<svg viewBox="0 0 22 23" fill="none" xmlns="http://www.w3.org/2000/svg">
<path d="M16.8149 0.500122C17.4229 0.500511 18.0178 0.677081 18.5275 1.00847C19.0373 1.33985 19.4401 1.81186 19.6873 2.36737L21.725 6.96262C21.9046 7.36463 21.9983 7.79971 22 8.24V19.3582C21.9989 20.1914 21.6673 20.9902 21.0781 21.5792C20.4888 22.1682 19.6899 22.4994 18.8568 22.5001H3.14325C2.30972 22.4998 1.51043 22.1685 0.921039 21.5791C0.331644 20.9897 0.000364385 20.1904 0 19.3569L0 8.24C0.0010544 7.79963 0.0947505 7.36441 0.275 6.96262L2.31825 2.36737C2.56458 1.81239 2.96645 1.34068 3.47523 1.0093C3.98402 0.677912 4.57793 0.501056 5.18512 0.500122H16.8149ZM16.8149 2.85687H12.1784V6.78525H19.0726L17.5312 3.32437C17.4699 3.18557 17.3695 3.06761 17.2423 2.98485C17.1151 2.90208 16.9666 2.85672 16.8149 2.85687ZM19.6432 9.142H2.35675V19.3569C2.35711 19.565 2.43995 19.7645 2.58711 19.9116C2.73427 20.0588 2.93376 20.1416 3.14188 20.142H18.8568C19.0648 20.1413 19.264 20.0583 19.4111 19.9112C19.5582 19.7642 19.6411 19.5649 19.6419 19.3569L19.6432 9.142ZM2.92875 6.78525H9.82162V2.85687H5.18512C5.03302 2.85671 4.88414 2.90066 4.7565 2.98339C4.62887 3.06612 4.52796 3.18409 4.466 3.323L2.92875 6.78525Z" fill="currentColor"/>
</svg>
