<svg viewBox="0 0 32 33" fill="none" xmlns="http://www.w3.org/2000/svg">
<path d="M23.4812 16.0295C23.7625 16.0295 24 15.8108 24 15.5295C24 11.6639 20.8656 8.52954 17 8.52954C16.7188 8.52954 16.5 8.76704 16.5 9.04829V16.0295H23.4812ZM13.5 17.5295C13.5 18.3577 14.1719 19.0295 15 19.0295H21.1594C20.3344 21.3608 18.1125 23.0295 15.5 23.0295C12.1875 23.0295 9.5 20.342 9.5 17.0295C9.5 14.417 11.1688 12.1952 13.5 11.3702V17.5295ZM15 10.6139C15 10.0358 14.5094 9.57329 13.9437 9.69204C10.5469 10.4077 8 13.4202 8 17.0295C8 21.1733 11.3594 24.5295 15.5 24.5295C19.1094 24.5295 22.1219 21.9827 22.8375 18.5858C22.9562 18.0202 22.4937 17.5295 21.9156 17.5295H16.5H15V16.0295V10.6139Z" fill="currentColor"/>
</svg>
