<svg viewBox="0 0 18 23" fill="none" xmlns="http://www.w3.org/2000/svg">
<path d="M16.447 4.51237L13.2391 1.30587C12.7228 0.791258 12.0239 0.50163 11.2949 0.500122L3.5 0.500122C2.77065 0.500122 2.07118 0.789853 1.55546 1.30558C1.03973 1.8213 0.75 2.52078 0.75 3.25012L0.75 19.7501C0.75 20.4795 1.03973 21.1789 1.55546 21.6947C2.07118 22.2104 2.77065 22.5001 3.5 22.5001H14.5C15.2287 22.4979 15.9269 22.2075 16.4421 21.6923C16.9574 21.177 17.2478 20.4788 17.25 19.7501V6.45525C17.2502 5.72683 16.9614 5.02809 16.447 4.51237ZM15.1875 19.7501C15.1875 19.9325 15.1151 20.1073 14.9861 20.2363C14.8572 20.3652 14.6823 20.4376 14.5 20.4376H3.5C3.31766 20.4376 3.1428 20.3652 3.01386 20.2363C2.88493 20.1073 2.8125 19.9325 2.8125 19.7501V3.25012C2.8125 3.06779 2.88493 2.89292 3.01386 2.76399C3.1428 2.63505 3.31766 2.56262 3.5 2.56262H10.375V6.00012C10.375 6.36479 10.5199 6.71453 10.7777 6.97239C11.0356 7.23026 11.3853 7.37512 11.75 7.37512H15.149V19.7501H15.1875ZM4.875 12.5314C4.875 12.8049 4.98365 13.0672 5.17705 13.2606C5.37044 13.454 5.63275 13.5626 5.90625 13.5626H12.0938C12.3673 13.5626 12.6296 13.454 12.823 13.2606C13.0163 13.0672 13.125 12.8049 13.125 12.5314C13.125 12.2579 13.0163 11.9956 12.823 11.8022C12.6296 11.6088 12.3673 11.5001 12.0938 11.5001H5.90625C5.63297 11.5008 5.37109 11.6097 5.17785 11.803C4.98461 11.9962 4.87573 12.2581 4.875 12.5314ZM12.0938 15.6251H5.90625C5.63275 15.6251 5.37044 15.7338 5.17705 15.9272C4.98365 16.1206 4.875 16.3829 4.875 16.6564C4.875 16.9299 4.98365 17.1922 5.17705 17.3856C5.37044 17.579 5.63275 17.6876 5.90625 17.6876H12.0938C12.3673 17.6876 12.6296 17.579 12.823 17.3856C13.0163 17.1922 13.125 16.9299 13.125 16.6564C13.125 16.3829 13.0163 16.1206 12.823 15.9272C12.6296 15.7338 12.3673 15.6251 12.0938 15.6251Z" fill="currentColor"/>
</svg>
