<svg viewBox="0 0 22 23" fill="none" xmlns="http://www.w3.org/2000/svg">
<path d="M1.56611 15.9997L0.576153 19.3587L0.0426783 21.1736C-0.0100644 21.3513 -0.0139959 21.54 0.0312964 21.7197C0.0765886 21.8995 0.169434 22.0637 0.300088 22.1952C0.430742 22.3267 0.594385 22.4206 0.773842 22.4671C0.953298 22.5135 1.14195 22.5108 1.31999 22.4592L3.13903 21.9216L6.498 20.9316C6.94339 20.8018 7.3607 20.5901 7.72857 20.3074L7.74094 20.3157L7.76294 20.2813C7.82344 20.2345 7.87843 20.1864 7.93481 20.1438C7.99118 20.1012 8.0503 20.0366 8.10667 19.9802L21.1933 6.89355C21.4492 6.63814 21.6522 6.33477 21.7907 6.00082C21.9292 5.66686 22.0005 5.30887 22.0005 4.94733C22.0005 4.58579 21.9292 4.2278 21.7907 3.89384C21.6522 3.55989 21.4492 3.25652 21.1933 3.00111L19.4994 1.30719C19.244 1.05131 18.9406 0.848308 18.6067 0.709801C18.2727 0.571293 17.9147 0.5 17.5532 0.5C17.1916 0.5 16.8336 0.571293 16.4997 0.709801C16.1657 0.848308 15.8624 1.05131 15.6069 1.30719L2.52169 14.3911C2.41323 14.4995 2.31131 14.6143 2.21645 14.7348L2.18208 14.7568L2.19033 14.7692C1.90927 15.1381 1.69775 15.5551 1.56611 15.9997ZM16.4745 8.69197L8.49166 16.6748L6.35776 16.1414L5.82428 14.0075L13.8072 6.02459L16.4745 8.69197ZM4.17298 15.9145L4.50434 17.2482C4.55009 17.4298 4.64416 17.5956 4.77659 17.728C4.90901 17.8605 5.07483 17.9545 5.25643 18.0003L6.59012 18.3316L6.27114 18.8129C6.16074 18.8738 6.04412 18.9226 5.92328 18.9586L4.91682 19.2556L2.55606 19.9431L3.24353 17.5864L3.54051 16.58C3.57571 16.4589 3.6246 16.3421 3.68626 16.2321L4.17298 15.9145ZM13.5638 9.88404C13.6295 9.82062 13.6818 9.74476 13.7179 9.66089C13.7539 9.57701 13.7728 9.4868 13.7736 9.39552C13.7744 9.30424 13.757 9.21371 13.7225 9.12923C13.6879 9.04474 13.6369 8.96798 13.5723 8.90343C13.5078 8.83889 13.431 8.78784 13.3465 8.75327C13.262 8.71871 13.1715 8.70131 13.0802 8.70211C12.9889 8.7029 12.8987 8.72186 12.8149 8.75789C12.731 8.79392 12.6551 8.8463 12.5917 8.91196L8.46691 13.0368C8.34168 13.1664 8.27239 13.3401 8.27395 13.5203C8.27552 13.7006 8.34782 13.873 8.47528 14.0005C8.60274 14.1279 8.77517 14.2002 8.95542 14.2018C9.13567 14.2034 9.30933 14.1341 9.43899 14.0088L13.5638 9.88404Z" fill="currentColor"/>
</svg>
