<svg width="16" height="17" viewBox="0 0 16 17" fill="none" xmlns="http://www.w3.org/2000/svg">
<path d="M5.5 3.25C5.5 3.25312 5.50313 3.26875 5.51875 3.29688C5.5375 3.33438 5.58125 3.39375 5.66563 3.46875C5.67813 3.47813 5.69063 3.49063 5.70312 3.5C5.11875 3.5125 4.55 3.55312 4.00313 3.62812V3.25C4.00313 2.6875 4.30625 2.2375 4.6625 1.91562C5.01875 1.59375 5.49688 1.3375 6.02187 1.1375C7.075 0.734375 8.48438 0.5 10 0.5C11.5156 0.5 12.925 0.734375 13.9781 1.13437C14.5031 1.33438 14.9812 1.59063 15.3375 1.9125C15.6938 2.23438 16 2.6875 16 3.25V6.5V9.75C16 10.3125 15.6969 10.7625 15.3406 11.0844C14.9844 11.4063 14.5062 11.6625 13.9812 11.8625C13.6812 11.9781 13.3531 12.0781 13.0031 12.1625V10.6125C13.1625 10.5656 13.3094 10.5156 13.4469 10.4625C13.8719 10.3 14.1656 10.125 14.3375 9.97188C14.4219 9.89688 14.4656 9.8375 14.4844 9.8C14.5031 9.76562 14.5031 9.75313 14.5031 9.75313V8.3875C14.3375 8.46875 14.1625 8.54375 13.9812 8.6125C13.6812 8.72813 13.3531 8.82812 13.0031 8.9125V7.3625C13.1625 7.31563 13.3094 7.26563 13.4469 7.2125C13.8719 7.05 14.1656 6.875 14.3375 6.72188C14.4219 6.64688 14.4656 6.5875 14.4844 6.55C14.5 6.52188 14.5031 6.50625 14.5031 6.50313V5.1375C14.3375 5.21875 14.1625 5.29375 13.9812 5.3625C13.5531 5.525 13.0625 5.6625 12.5344 5.76562C12.375 5.53125 12.1906 5.33125 12.0094 5.16875C11.6938 4.88438 11.3281 4.65313 10.9469 4.4625C11.9375 4.39063 12.8 4.20625 13.4469 3.95937C13.8719 3.79688 14.1656 3.62188 14.3375 3.46875C14.4219 3.39375 14.4656 3.33438 14.4844 3.29688C14.5 3.26875 14.5031 3.25312 14.5031 3.25C14.5031 3.25 14.5031 3.23438 14.4844 3.20312C14.4656 3.16563 14.4219 3.10625 14.3375 3.03125C14.1656 2.875 13.8719 2.7 13.4469 2.54063C12.6 2.21563 11.3813 2 10 2C8.61875 2 7.4 2.21562 6.55625 2.5375C6.13125 2.7 5.8375 2.875 5.66563 3.02813C5.58125 3.10313 5.5375 3.1625 5.51875 3.2C5.5 3.23438 5.5 3.24688 5.5 3.24688V3.25ZM1.5 7.25C1.5 7.25313 1.50312 7.26875 1.51875 7.29688C1.5375 7.33437 1.58125 7.39375 1.66562 7.46875C1.8375 7.625 2.13125 7.8 2.55625 7.95937C3.4 8.28125 4.61875 8.49687 6 8.49687C7.38125 8.49687 8.6 8.28125 9.44375 7.95937C9.86875 7.79687 10.1625 7.62188 10.3344 7.46875C10.4188 7.39375 10.4625 7.33437 10.4812 7.29688C10.4969 7.26875 10.5 7.25313 10.5 7.25C10.5 7.25 10.5 7.23438 10.4812 7.20312C10.4625 7.16563 10.4188 7.10625 10.3344 7.03125C10.1625 6.875 9.86875 6.7 9.44375 6.54063C8.6 6.21875 7.38125 6.00313 6 6.00313C4.61875 6.00313 3.4 6.21875 2.55625 6.54063C2.13125 6.70312 1.8375 6.87813 1.66562 7.03125C1.58125 7.10625 1.5375 7.16563 1.51875 7.20312C1.5 7.2375 1.5 7.25 1.5 7.25ZM0 7.25C0 6.6875 0.303125 6.2375 0.659375 5.91563C1.01562 5.59375 1.49375 5.3375 2.01875 5.1375C3.075 4.73438 4.48438 4.5 6 4.5C7.51562 4.5 8.925 4.73438 9.97812 5.13438C10.5031 5.33438 10.9812 5.59062 11.3375 5.9125C11.6938 6.23438 12 6.6875 12 7.25V10.5V13.75C12 14.3125 11.6969 14.7625 11.3406 15.0844C10.9844 15.4063 10.5063 15.6625 9.98125 15.8625C8.925 16.2656 7.51562 16.5 6 16.5C4.48438 16.5 3.075 16.2656 2.02187 15.8656C1.49687 15.6656 1.02188 15.4094 0.6625 15.0875C0.303125 14.7656 0 14.3125 0 13.75V10.5V7.25ZM10.5 10.5V9.1375C10.3344 9.21875 10.1594 9.29375 9.97812 9.3625C8.925 9.76562 7.51562 10 6 10C4.48438 10 3.075 9.76563 2.02187 9.36563C1.84062 9.29688 1.66562 9.22188 1.5 9.14062V10.5C1.5 10.5031 1.50312 10.5188 1.51875 10.5469C1.5375 10.5844 1.58125 10.6438 1.66562 10.7188C1.8375 10.875 2.13125 11.05 2.55625 11.2094C3.4 11.5313 4.61875 11.7469 6 11.7469C7.38125 11.7469 8.6 11.5313 9.44375 11.2094C9.86875 11.0469 10.1625 10.8719 10.3344 10.7188C10.4188 10.6438 10.4625 10.5844 10.4812 10.5469C10.4969 10.5188 10.5 10.5031 10.5 10.5ZM2.02187 12.6156C1.84062 12.5469 1.66562 12.4719 1.5 12.3906V13.75C1.5 13.75 1.5 13.7656 1.51875 13.7969C1.5375 13.8344 1.58125 13.8938 1.66562 13.9688C1.8375 14.125 2.13125 14.3 2.55625 14.4594C3.4 14.7813 4.61875 14.9969 6 14.9969C7.38125 14.9969 8.6 14.7813 9.44375 14.4594C9.86875 14.2969 10.1625 14.1219 10.3344 13.9688C10.4188 13.8938 10.4625 13.8344 10.4812 13.7969C10.5 13.7625 10.5 13.75 10.5 13.75V12.3875C10.3344 12.4688 10.1594 12.5438 9.97812 12.6125C8.925 13.0156 7.51562 13.25 6 13.25C4.48438 13.25 3.075 13.0156 2.02187 12.6156Z" fill="black"/>
</svg>
