<svg xmlns="http://www.w3.org/2000/svg" viewBox="0 0 25 25">
  <g id="icon_goback" transform="translate(-1097 -1370)">
    <rect id="Rectangle_1063" data-name="Rectangle 1063" width="25" height="25" transform="translate(1097 1370)" fill="#fff"/>
    <path id="Path_132" data-name="Path 132" d="M4.765-1.616l.613-.613a.375.375,0,0,0-.005-.536L2.851-5.187H13.625A.375.375,0,0,0,14-5.562v-.875a.375.375,0,0,0-.375-.375H2.851L5.373-9.235a.375.375,0,0,0,.005-.536l-.613-.613a.375.375,0,0,0-.53,0L.116-6.265a.375.375,0,0,0,0,.53L4.235-1.616A.375.375,0,0,0,4.765-1.616Z" transform="translate(1103 1388)"/>
  </g>
</svg>
