<svg xmlns="http://www.w3.org/2000/svg" viewBox="0 0 32 32"><defs><style>.a{fill:none;}.b{fill:currentcolor;}</style></defs><g transform="translate(-38 -2813)"><rect class="a" width="32" height="32" transform="translate(38 2813)"/><path class="b" d="M9.055-2.293a5.11,5.11,0,0,0,1.633-3.644c0-2.969-2.839-5.422-6.539-5.86-1.169-2.137-3.915-3.64-7.118-3.64-4.264,0-7.719,2.657-7.719,5.937A5.123,5.123,0,0,0-9.055-5.856a9.714,9.714,0,0,1-1.4,2.037.855.855,0,0,0-.163.928.855.855,0,0,0,.787.52,8.53,8.53,0,0,0,4.646-1.44,10.573,10.573,0,0,0,1.054.182C-2.965-1.5-.23,0,2.969,0A9.824,9.824,0,0,0,5.188-.252a8.55,8.55,0,0,0,4.646,1.44A.859.859,0,0,0,10.457-.26,9.458,9.458,0,0,1,9.055-2.293ZM-5.522-5.719l-.635.412a7.553,7.553,0,0,1-1.6.794c.1-.174.2-.36.3-.549l.575-1.154-.92-.909A3.4,3.4,0,0,1-8.906-9.5c0-2.253,2.72-4.156,5.937-4.156s5.937,1.9,5.937,4.156S.249-5.344-2.969-5.344a8.088,8.088,0,0,1-1.818-.208ZM7.8-3.562l-.917.905L7.463-1.5c.1.189.2.375.3.549a7.551,7.551,0,0,1-1.6-.794L5.526-2.16l-.738.171a8.088,8.088,0,0,1-1.818.208A6.9,6.9,0,0,1-1.9-3.626C1.855-4.026,4.75-6.5,4.75-9.5c0-.126-.015-.249-.026-.371,2.39.538,4.182,2.108,4.182,3.934A3.4,3.4,0,0,1,7.8-3.562Z" transform="translate(54 2836)"/></g></svg>