<svg xmlns="http://www.w3.org/2000/svg" viewBox="0 0 32 32"><defs><style>.a{fill:currentcolor;}.b{fill:none;}</style></defs><path class="a" d="M17.164-3.348C16.409-4.159,15-5.379,15-9.375a6.169,6.169,0,0,0-5-6.061v-.814A1.25,1.25,0,0,0,8.75-17.5,1.25,1.25,0,0,0,7.5-16.25v.814a6.169,6.169,0,0,0-5,6.061c0,4-1.412,5.216-2.167,6.027A1.221,1.221,0,0,0,0-2.5,1.251,1.251,0,0,0,1.254-1.25H16.246A1.251,1.251,0,0,0,17.5-2.5,1.22,1.22,0,0,0,17.164-3.348ZM2.638-3.125c.829-1.093,1.735-2.9,1.739-6.227,0-.008,0-.015,0-.023A4.375,4.375,0,0,1,8.75-13.75a4.375,4.375,0,0,1,4.375,4.375c0,.008,0,.015,0,.023,0,3.324.911,5.135,1.739,6.227ZM8.75,2.5a2.5,2.5,0,0,0,2.5-2.5h-5A2.5,2.5,0,0,0,8.75,2.5Z" transform="translate(7.25 23.5)"/><rect class="b" width="32" height="32"/></svg>