<svg xmlns="http://www.w3.org/2000/svg" viewBox="0 0 32 32"><defs><style>.a{fill:none;}.b{fill:"currentcolor";}</style></defs><rect class="a" width="32" height="32"/><path class="b" d="M25.279-19.525l-4.26-4.259A2.437,2.437,0,0,0,19.3-24.5H8.937A2.445,2.445,0,0,0,6.5-22.058V-18H8.937v-4.058H17.06v5.28a1.215,1.215,0,0,0,1.219,1.218h5.283V-.938H11.374V1.5H23.558A2.441,2.441,0,0,0,26-.938V-17.8A2.452,2.452,0,0,0,25.279-19.525ZM19.5-18V-21.86L23.36-18ZM12.564-7.322a1.531,1.531,0,0,0,.385-1.462,2.4,2.4,0,0,1,0-1.951,1.531,1.531,0,0,0-.385-1.462,2.37,2.37,0,0,1-.958-1.689,1.5,1.5,0,0,0-1.052-1.07,2.315,2.315,0,0,1-1.66-.975,1.469,1.469,0,0,0-1.437-.392,2.284,2.284,0,0,1-1.917,0,1.47,1.47,0,0,0-1.436.392,2.315,2.315,0,0,1-1.66.975,1.5,1.5,0,0,0-1.052,1.07A2.366,2.366,0,0,1,.435-12.2,1.531,1.531,0,0,0,.05-10.735a2.4,2.4,0,0,1,0,1.951A1.531,1.531,0,0,0,.435-7.322a2.371,2.371,0,0,1,.958,1.689,1.5,1.5,0,0,0,1.052,1.07,3.04,3.04,0,0,1,.8.254V1.5L6.5-.126,9.749,1.5V-4.309a3.043,3.043,0,0,1,.8-.254A1.5,1.5,0,0,0,11.6-5.633,2.369,2.369,0,0,1,12.564-7.322Zm-6.064.7a3.25,3.25,0,0,1-3.25-3.25,3.25,3.25,0,0,1,3.25-3.25,3.25,3.25,0,0,1,3.25,3.25A3.25,3.25,0,0,1,6.5-6.626Z" transform="translate(1.001 27.5)"/></svg>