<svg id="ic_search_results_course" data-name="ic_search results_course" xmlns="http://www.w3.org/2000/svg"  viewBox="0 0 16 16">
  <path id="Path_2110" data-name="Path 2110" d="M2.734-9.625a.329.329,0,0,0,.328-.328v-.219a.329.329,0,0,0-.328-.328H-1.859a.329.329,0,0,0-.328.328v.219a.329.329,0,0,0,.328.328ZM3.062-8.2v-.219a.329.329,0,0,0-.328-.328H-1.859a.329.329,0,0,0-.328.328V-8.2a.329.329,0,0,0,.328.328H2.734A.329.329,0,0,0,3.062-8.2ZM4.832-.875a5.2,5.2,0,0,1,.011-1.8.659.659,0,0,0,.407-.607V-13.344A.655.655,0,0,0,4.594-14H-4.812A2.187,2.187,0,0,0-7-11.812v9.625A2.187,2.187,0,0,0-4.812,0H4.922A.329.329,0,0,0,5.25-.328V-.547a.329.329,0,0,0-.328-.328ZM-3.5-3.5v-9.625H4.375V-3.5Zm-2.625.438v-8.75a1.313,1.313,0,0,1,1.313-1.312h.437V-3.5h-.437A2.188,2.188,0,0,0-6.125-3.062ZM4.055-.875H-4.812c-1.75,0-1.75-1.75,0-1.75H4.055A6.252,6.252,0,0,0,4.055-.875Z" transform="translate(9 15)" fill="currentcolor"/>
  <rect id="Rectangle_1180" data-name="Rectangle 1180" width="16" height="16" fill="none"/>
</svg>
