<svg xmlns="http://www.w3.org/2000/svg" viewBox="0 0 32 32">
  <g id="ic_order" transform="translate(-872 -462)">
    <g id="Group_13130" data-name="Group 13130" transform="translate(872 462)">
      <rect id="Rectangle_1641" data-name="Rectangle 1641" width="32" height="32" fill="none"/>
    </g>
    <path id="Path_2647" fill="currentcolor" data-name="Path 2647" d="M6.406-2.5H4.688V-15.625a.625.625,0,0,0-.625-.625H3.438a.625.625,0,0,0-.625.625V-2.5H1.094a.469.469,0,0,0-.469.469.541.541,0,0,0,.128.322L3.409,1.1a.537.537,0,0,0,.341.147A.536.536,0,0,0,4.09,1.1L6.746-1.709a.54.54,0,0,0,.128-.322A.469.469,0,0,0,6.406-2.5Zm7.841-10.791L11.591-16.1a.536.536,0,0,0-.341-.147.536.536,0,0,0-.341.147L8.253-13.291a.54.54,0,0,0-.128.322.469.469,0,0,0,.469.469h1.719V.625a.625.625,0,0,0,.625.625h.625a.625.625,0,0,0,.625-.625V-12.5h1.719a.469.469,0,0,0,.469-.469A.54.54,0,0,0,14.247-13.291Z" transform="translate(881 486)"/>
  </g>
</svg>
