<svg xmlns="http://www.w3.org/2000/svg" viewBox="0 0 16 16"><defs><style>.a{fill:none;}.b{fill: currentcolor;}</style></defs><path class="a" d="M0,0H15.7V15.7H0Z"/><rect class="a" width="16" height="16"/><path class="b" d="M11.355,11.317V3.861a.55.55,0,1,0-1.1,0v7.456H9.275a.294.294,0,0,0-.192.5l1.531,1.633a.268.268,0,0,0,.39,0l1.531-1.633a.3.3,0,0,0-.192-.5Z" transform="translate(-1.232 -0.591)"/><path d="M7.322,3.291,5.792,4.93a.294.294,0,0,0,.192.5h.982v7.456a.55.55,0,1,0,1.1,0V5.43h.982a.294.294,0,0,0,.192-.5L7.706,3.291a.262.262,0,0,0-.384,0Z" transform="translate(-1.232 -0.591)"/></svg>