<svg xmlns="http://www.w3.org/2000/svg" viewBox="0 0 16 16"><defs><style>.a{fill:none;}.b{fill:"currentcolor";}</style></defs><rect class="a" width="16" height="16"/><path class="b" d="M4.806-14H-8.806A.2.2,0,0,0-9-13.8v.407a.2.2,0,0,0,.194.2h.583v7.307a.8.8,0,0,0,.778.815h5.056v1.247L-4.471-1.635a.211.211,0,0,0,0,.288l.275.288A.218.218,0,0,0-4.059-1a.218.218,0,0,0,.137-.06L-2-3.072-.079-1.06A.218.218,0,0,0,.058-1,.218.218,0,0,0,.2-1.06l.275-.288a.211.211,0,0,0,0-.288L-1.611-3.816V-5.064H3.444a.8.8,0,0,0,.778-.815v-7.307h.583a.2.2,0,0,0,.194-.2V-13.8A.2.2,0,0,0,4.806-14ZM3.444-5.875H-7.444v-7.313H3.444Z" transform="translate(10 16)"/></svg>