<svg xmlns="http://www.w3.org/2000/svg" viewBox="0 0 16 16"><defs><style>.a{fill:none;}.b{fill:"currentcolor";}</style></defs><rect class="a" width="16" height="16"/><path class="b" d="M11.522-12.274,10.26-13.536a1.581,1.581,0,0,0-2.237,0L.584-6.146.008-2.654a.563.563,0,0,0,.647.647l3.492-.576,7.39-7.439A1.583,1.583,0,0,0,11.522-12.274ZM4.7-6.7a.514.514,0,0,0,.365.151A.514.514,0,0,0,5.427-6.7l2.79-2.79.67.67L4.922-4.828V-5.8H3.8V-6.922H2.828l3.99-3.965.67.67L4.7-7.427A.516.516,0,0,0,4.7-6.7ZM1.925-3.263l-.662-.662L1.547-5.65l.431-.428h.975v1.125H4.078v.975l-.428.431Zm8.882-7.489h0L9.679-9.616,7.616-11.679,8.749-12.8h0a.55.55,0,0,1,.779,0l1.262,1.262A.551.551,0,0,1,10.807-10.752Z" transform="translate(2 16)"/></svg>