<svg xmlns="http://www.w3.org/2000/svg" viewBox="0 0 16 16"><defs><style>.a{fill:"currentcolor";}.b{fill:"none";}</style></defs><path class="a" d="M.525-9.463a.486.486,0,0,0-.593.176.352.352,0,0,0,.209.5A.9.9,0,0,1,.778-8a.9.9,0,0,1-.636.787.352.352,0,0,0-.209.5.484.484,0,0,0,.593.176A1.647,1.647,0,0,0,1.667-8,1.647,1.647,0,0,0,.525-9.463ZM-2.561-12.5a.717.717,0,0,0-.466.165L-5.5-10.25H-8.333A.621.621,0,0,0-9-9.687v3.375a.621.621,0,0,0,.667.563H-5.5l2.471,2.085a.718.718,0,0,0,.466.165.623.623,0,0,0,.672-.563v-7.874A.623.623,0,0,0-2.561-12.5Zm-.217,7.985L-5.13-6.5H-8.111v-3H-5.13l2.353-1.984Zm5.486-9.442a.49.49,0,0,0-.6.157.348.348,0,0,0,.186.506A5.941,5.941,0,0,1,6.11-8,5.941,5.941,0,0,1,2.293-2.707a.348.348,0,0,0-.186.506.489.489,0,0,0,.6.157A6.684,6.684,0,0,0,7-8,6.684,6.684,0,0,0,2.709-13.957ZM4.333-8a4.153,4.153,0,0,0-2.467-3.7.5.5,0,0,0-.612.138.344.344,0,0,0,.166.512A3.414,3.414,0,0,1,3.437-8,3.414,3.414,0,0,1,1.42-4.95a.345.345,0,0,0-.166.512.5.5,0,0,0,.612.138A4.153,4.153,0,0,0,4.333-8Z" transform="translate(9 15.999)"/><rect class="b" width="16" height="16" transform="translate(0)"/></svg>