<svg xmlns="http://www.w3.org/2000/svg" viewBox="0 0 16 16"><defs><style>.a{fill:"currentcolor";}.b{fill:none;}</style></defs><path class="a" d="M2.667-1H.444a.237.237,0,0,0-.222.25v.5A.237.237,0,0,0,.444,0H2.667a.237.237,0,0,0,.222-.25v-.5A.237.237,0,0,0,2.667-1ZM-4.222-6.5v3a.5.5,0,0,0,.508.5h6.1a.5.5,0,0,0,.508-.5v-3A.5.5,0,0,0,2.381-7h-6.1A.5.5,0,0,0-4.222-6.5Zm.889.5H2v2H-3.333ZM-4-11H-.889a.237.237,0,0,0,.222-.25v-.5A.237.237,0,0,0-.889-12H-4a.237.237,0,0,0-.222.25v.5A.237.237,0,0,0-4-11Zm0,2H-.889a.237.237,0,0,0,.222-.25v-.5A.237.237,0,0,0-.889-10H-4a.237.237,0,0,0-.222.25v.5A.237.237,0,0,0-4-9Zm8.275-1.938-2.33-2.621A1.263,1.263,0,0,0,1-14H-4.667A1.429,1.429,0,0,0-6-12.5V.5A1.424,1.424,0,0,0-4.667,2h8A1.424,1.424,0,0,0,4.667.5V-9.876A1.608,1.608,0,0,0,4.275-10.938ZM1.112-12.982a.428.428,0,0,1,.206.131l2.33,2.621A.51.51,0,0,1,3.764-10H1.112ZM3.778.5a.476.476,0,0,1-.444.5h-8A.476.476,0,0,1-5.111.5v-13a.479.479,0,0,1,.444-.5H.223v3.252A.708.708,0,0,0,.89-9H3.778Z" transform="translate(9 14)"/><rect class="b" width="16" height="16" transform="translate(0 0)"/></svg>