<svg xmlns="http://www.w3.org/2000/svg" viewBox="0 0 16 16"><defs><style>.a{fill:"currentcolor";}.b{fill:none;}</style></defs><path class="a" d="M-.343-14a5.434,5.434,0,0,0-4.8,2.551,1.3,1.3,0,0,0,.3,1.779l1.173.871a1.357,1.357,0,0,0,1.86-.233c.6-.743.792-.874,1.287-.874.285,0,.706.191.706.5,0,.7-3.05.567-3.05,3.343v.376a1.3,1.3,0,0,0,.557,1.064,2.6,2.6,0,0,0-.944,2A2.655,2.655,0,0,0-.576,0,2.655,2.655,0,0,0,2.1-2.625a2.6,2.6,0,0,0-.944-2,1.3,1.3,0,0,0,.557-1.064v-.129c.708-.519,2.91-1.217,2.91-3.812C4.626-12.119,2.112-14-.343-14ZM-.576-.875a1.77,1.77,0,0,1-1.786-1.75A1.77,1.77,0,0,1-.576-4.375,1.77,1.77,0,0,1,1.21-2.625,1.77,1.77,0,0,1-.576-.875Zm1.4-5.1v.285a.442.442,0,0,1-.446.438H-1.529a.442.442,0,0,1-.446-.437v-.376c0-2.373,3.05-1.568,3.05-3.343a1.523,1.523,0,0,0-1.6-1.374c-.943,0-1.372.442-1.988,1.206a.453.453,0,0,1-.62.078L-4.3-10.367a.432.432,0,0,1-.1-.593A4.547,4.547,0,0,1-.343-13.125c1.972,0,4.076,1.508,4.076,3.5C3.733-6.988.823-6.948.823-5.972Z" transform="translate(8.374 15)"/><rect class="b" width="16" height="16"/></svg>