<svg xmlns="http://www.w3.org/2000/svg" viewBox="0 0 16 16"><defs><style>.a{fill:none;}.b{fill:"currentcolor";}</style></defs><rect class="a" width="16" height="16"/><path class="b" d="M7.365-9.357a3.262,3.262,0,0,0-.844-.612.279.279,0,0,0-.323.054l-.1.1a1.215,1.215,0,0,0-.347.714.282.282,0,0,0,.154.29,2.348,2.348,0,0,1,.535.381,1.977,1.977,0,0,1,0,2.789L4.674-3.873a1.966,1.966,0,0,1-2.784,0,1.974,1.974,0,0,1,0-2.789L2.964-7.738A.28.28,0,0,0,3.039-8a4.9,4.9,0,0,1-.111-.888.281.281,0,0,0-.48-.192L.962-7.592a3.288,3.288,0,0,0,0,4.648,3.275,3.275,0,0,0,4.64,0C7.528-4.873,7.447-4.782,7.593-4.963A3.3,3.3,0,0,0,7.365-9.357Zm3.674-3.68a3.275,3.275,0,0,0-4.64,0C4.472-11.108,4.553-11.2,4.407-11.017a3.3,3.3,0,0,0,.229,4.394,3.263,3.263,0,0,0,.844.612A.279.279,0,0,0,5.8-6.066l.1-.1a1.215,1.215,0,0,0,.347-.714.282.282,0,0,0-.154-.29,2.348,2.348,0,0,1-.535-.381,1.977,1.977,0,0,1,0-2.789l1.762-1.765a1.966,1.966,0,0,1,2.784,0,1.974,1.974,0,0,1,0,2.789L9.036-8.242a.28.28,0,0,0-.075.263,4.9,4.9,0,0,1,.111.888.281.281,0,0,0,.48.192l1.486-1.49A3.288,3.288,0,0,0,11.038-13.037Z" transform="translate(2 16)"/></svg>