<svg xmlns="http://www.w3.org/2000/svg" viewBox="0 0 16 16"><defs><style>.a{fill:none;}.b{fill:"currentcolor";}</style></defs><rect class="a" width="16" height="16"/><path class="b" d="M11.842-7.567,10.707-9.835a.821.821,0,0,0-.671-.415H3.375a1.862,1.862,0,0,1,1.219-1.743A1.5,1.5,0,0,0,6-11h.75a1.5,1.5,0,0,0,1.5-1.5A1.5,1.5,0,0,0,6.75-14H6a1.494,1.494,0,0,0-1.324.808A3,3,0,0,0,2.25-10.25H1.964a.821.821,0,0,0-.671.415L.158-7.567A1.776,1.776,0,0,0,0-6.9H0V-5.75A.75.75,0,0,0,.75-5H5.438v1.875H3.375A.375.375,0,0,0,3-2.75v.375A.375.375,0,0,0,3.375-2h5.25A.375.375,0,0,0,9-2.375V-2.75a.375.375,0,0,0-.375-.375H6.563V-5H11.25A.75.75,0,0,0,12-5.75V-6.9A1.5,1.5,0,0,0,11.842-7.567ZM6-12.875h.75a.375.375,0,0,1,.375.375.375.375,0,0,1-.375.375H6a.375.375,0,0,1-.375-.375A.375.375,0,0,1,6-12.875Zm4.875,6.75H1.125V-6.9a.374.374,0,0,1,.04-.168L2.2-9.125H9.8l1.031,2.061a.376.376,0,0,1,.04.168v.771Z" transform="translate(2 16)"/></svg>