<svg xmlns="http://www.w3.org/2000/svg" viewBox="0 0 16 16"><defs><style>.a{fill:none;}.b{fill:#fff;}</style></defs><rect class="a" width="16" height="16"/><path class="b" d="M10.875-14h-7.5A1.125,1.125,0,0,0,2.25-12.875v1.125H1.125A1.125,1.125,0,0,0,0-10.625v7.5A1.125,1.125,0,0,0,1.125-2h7.5A1.125,1.125,0,0,0,9.75-3.125V-4.25h1.125A1.125,1.125,0,0,0,12-5.375v-7.5A1.125,1.125,0,0,0,10.875-14ZM8.484-3.125H1.266a.141.141,0,0,1-.141-.141v-7.219a.141.141,0,0,1,.141-.141H2.25v5.25A1.125,1.125,0,0,0,3.375-4.25h5.25v.984A.141.141,0,0,1,8.484-3.125Zm2.25-2.25H3.516a.141.141,0,0,1-.141-.141v-7.219a.141.141,0,0,1,.141-.141h7.219a.141.141,0,0,1,.141.141v7.219A.141.141,0,0,1,10.734-5.375Z" transform="translate(2 15.999)"/></svg>