<svg id="ic_search_results_user" data-name="ic_search results_user" xmlns="http://www.w3.org/2000/svg"  viewBox="0 0 16 16">
  <path id="Path_2111" data-name="Path 2111" d="M1.575-6.125c-.785,0-1.162.438-2.45.438s-1.662-.437-2.45-.437A3.676,3.676,0,0,0-7-2.45v1.137A1.313,1.313,0,0,0-5.687,0H3.938A1.313,1.313,0,0,0,5.25-1.312V-2.45A3.676,3.676,0,0,0,1.575-6.125Zm2.8,4.813a.439.439,0,0,1-.438.438H-5.687a.439.439,0,0,1-.437-.438V-2.45a2.8,2.8,0,0,1,2.8-2.8,13.058,13.058,0,0,0,2.45.438,13.106,13.106,0,0,0,2.45-.437,2.8,2.8,0,0,1,2.8,2.8ZM-.875-7a3.5,3.5,0,0,0,3.5-3.5A3.5,3.5,0,0,0-.875-14a3.5,3.5,0,0,0-3.5,3.5A3.5,3.5,0,0,0-.875-7Zm0-6.125A2.629,2.629,0,0,1,1.75-10.5,2.629,2.629,0,0,1-.875-7.875,2.629,2.629,0,0,1-3.5-10.5,2.629,2.629,0,0,1-.875-13.125Z" transform="translate(9 15)" fill="currentcolor"/>
  <rect id="Rectangle_1181" data-name="Rectangle 1181" width="16" height="16" fill="none"/>
</svg>
