<svg viewBox="0 0 32 32" fill="none" xmlns="http://www.w3.org/2000/svg">
<path d="M16.0011 22.5C19.5917 22.5 22.5011 19.5906 22.5011 16C22.5011 12.4094 19.5917 9.5 16.0011 9.5C12.4105 9.5 9.50112 12.4094 9.50112 16C9.50112 16.1719 9.50737 16.3406 9.51987 16.5094L8.05737 16.9406C8.01987 16.6313 8.00112 16.3188 8.00112 16C8.00112 11.5813 11.5824 8 16.0011 8C20.4199 8 24.0011 11.5813 24.0011 16C24.0011 20.4187 20.4199 24 16.0011 24C15.6824 24 15.3699 23.9813 15.0605 23.9438L15.4917 22.4781C15.6605 22.4906 15.8292 22.4969 16.0011 22.4969V22.5ZM15.9261 21L16.373 19.4812C18.1324 19.2937 19.5011 17.8062 19.5011 16C19.5011 14.0656 17.9355 12.5 16.0011 12.5C14.1949 12.5 12.7074 13.8688 12.5199 15.6281L11.0011 16.075C11.0011 16.05 11.0011 16.025 11.0011 16C11.0011 13.2375 13.2386 11 16.0011 11C18.7636 11 21.0011 13.2375 21.0011 16C21.0011 18.7625 18.7636 21 16.0011 21C15.9761 21 15.9511 21 15.9261 21ZM9.21987 17.6406L15.6199 15.7594C15.998 15.6469 16.3511 16 16.2417 16.3813L14.3605 22.7812C14.2324 23.2156 13.6355 23.2688 13.4324 22.8625L12.5355 21.0719C12.5136 21.0312 12.4886 20.9906 12.4574 20.9563L9.70737 23.7063C9.31675 24.0969 8.68237 24.0969 8.29175 23.7063C7.90112 23.3156 7.90112 22.6812 8.29175 22.2906L11.0417 19.5406C11.0074 19.5094 10.9699 19.4812 10.9261 19.4625L9.13862 18.5688C8.73237 18.3656 8.7855 17.7688 9.21987 17.6406Z" fill="currentcolor"/>
</svg>
