<svg viewBox="0 0 32 32" fill="currentColor" xmlns="http://www.w3.org/2000/svg">
<path d="M8 22.5H16.8906C17.275 23.0875 17.7656 23.5969 18.3375 24H8C6.89688 24 6 23.1031 6 22V15C6 13.8969 6.89688 13 8 13H20C20.7437 13 21.3906 13.4031 21.7344 14.0062C21.6562 14.0031 21.5781 14 21.5 14C20.6812 14 19.9031 14.1781 19.2063 14.5H8C7.725 14.5 7.5 14.725 7.5 15V22C7.5 22.275 7.725 22.5 8 22.5ZM19.75 10.5C20.1656 10.5 20.5 10.8344 20.5 11.25C20.5 11.6656 20.1656 12 19.75 12H8.25C7.83438 12 7.5 11.6656 7.5 11.25C7.5 10.8344 7.83438 10.5 8.25 10.5H19.75ZM18.25 8C18.6656 8 19 8.33437 19 8.75C19 9.16562 18.6656 9.5 18.25 9.5H9.75C9.33437 9.5 9 9.16562 9 8.75C9 8.33437 9.33437 8 9.75 8H18.25ZM21.5 15C22.6935 15 23.8381 15.4741 24.682 16.318C25.5259 17.1619 26 18.3065 26 19.5C26 20.6935 25.5259 21.8381 24.682 22.682C23.8381 23.5259 22.6935 24 21.5 24C20.3065 24 19.1619 23.5259 18.318 22.682C17.4741 21.8381 17 20.6935 17 19.5C17 18.3065 17.4741 17.1619 18.318 16.318C19.1619 15.4741 20.3065 15 21.5 15ZM22 17.5C22 17.225 21.775 17 21.5 17C21.225 17 21 17.225 21 17.5V19H19.5C19.225 19 19 19.225 19 19.5C19 19.775 19.225 20 19.5 20H21V21.5C21 21.775 21.225 22 21.5 22C21.775 22 22 21.775 22 21.5V20H23.5C23.775 20 24 19.775 24 19.5C24 19.225 23.775 19 23.5 19H22V17.5Z" fill="currentColor"/>
</svg>
