<svg viewBox="0 0 32 32" fill="none" xmlns="http://www.w3.org/2000/svg">
<path d="M13 8.79375C12.4688 8.3 11.7562 8 10.975 8C9.33125 8 8 9.33125 8 10.975C8 11.5625 8.17188 12.1094 8.46562 12.5719L13 8.79375ZM16 11.5C17.4587 11.5 18.8576 12.0795 19.8891 13.1109C20.9205 14.1424 21.5 15.5413 21.5 17C21.5 18.4587 20.9205 19.8576 19.8891 20.8891C18.8576 21.9205 17.4587 22.5 16 22.5C14.5413 22.5 13.1424 21.9205 12.1109 20.8891C11.0795 19.8576 10.5 18.4587 10.5 17C10.5 15.5413 11.0795 14.1424 12.1109 13.1109C13.1424 12.0795 14.5413 11.5 16 11.5ZM16 24C17.6625 24 19.1906 23.4187 20.3906 22.4531L21.7188 23.7812C22.0125 24.075 22.4875 24.075 22.7781 23.7812C23.0687 23.4875 23.0719 23.0125 22.7781 22.7219L21.45 21.3938C22.4187 20.1938 22.9969 18.6656 22.9969 17.0031C23 13.1344 19.8656 10 16 10C12.1344 10 9 13.1344 9 17C9 18.6625 9.58125 20.1906 10.5469 21.3906L9.21875 22.7188C8.925 23.0125 8.925 23.4875 9.21875 23.7781C9.5125 24.0688 9.9875 24.0719 10.2781 23.7781L11.6063 22.45C12.8063 23.4187 14.3344 23.9969 15.9969 23.9969L16 24ZM23.5344 12.575C23.8281 12.1125 24 11.5625 24 10.975C24 9.33125 22.6687 8 21.025 8C20.2437 8 19.5312 8.3 19 8.79375L23.5344 12.575ZM16.75 13.75C16.75 13.3344 16.4156 13 16 13C15.5844 13 15.25 13.3344 15.25 13.75V17C15.25 17.2 15.3281 17.3906 15.4688 17.5312L16.9688 19.0312C17.2625 19.325 17.7375 19.325 18.0281 19.0312C18.3187 18.7375 18.3219 18.2625 18.0281 17.9719L16.7469 16.6906V13.75H16.75Z" fill="currentcolor"/>
</svg>
