<svg viewBox="0 0 32 32" fill="none" xmlns="http://www.w3.org/2000/svg">
<path d="M8.46562 12.575C8.17188 12.1125 8 11.5625 8 10.975C8 9.33125 9.33125 8 10.975 8C11.7562 8 12.4688 8.3 13 8.79375L8.46562 12.575ZM21.5 17C21.5 15.5413 20.9205 14.1424 19.8891 13.1109C18.8576 12.0795 17.4587 11.5 16 11.5C14.5413 11.5 13.1424 12.0795 12.1109 13.1109C11.0795 14.1424 10.5 15.5413 10.5 17C10.5 18.4587 11.0795 19.8576 12.1109 20.8891C13.1424 21.9205 14.5413 22.5 16 22.5C17.4587 22.5 18.8576 21.9205 19.8891 20.8891C20.9205 19.8576 21.5 18.4587 21.5 17ZM20.3906 22.4531C19.1906 23.4187 17.6625 24 16 24C14.3375 24 12.8094 23.4187 11.6094 22.4531L10.2812 23.7812C9.9875 24.075 9.5125 24.075 9.22187 23.7812C8.93125 23.4875 8.92812 23.0125 9.22187 22.7219L10.55 21.3938C9.58125 20.1906 9 18.6625 9 17C9 13.1344 12.1344 10 16 10C19.8656 10 23 13.1344 23 17C23 18.6625 22.4187 20.1906 21.4531 21.3906L22.7812 22.7188C23.075 23.0125 23.075 23.4875 22.7812 23.7781C22.4875 24.0688 22.0125 24.0719 21.7219 23.7781L20.3938 22.45L20.3906 22.4531ZM19 8.79375C19.5312 8.3 20.2437 8 21.025 8C22.6687 8 24 9.33125 24 10.975C24 11.5625 23.8281 12.1094 23.5344 12.5719L19 8.79375ZM16 19C16.2652 19 16.5196 19.1054 16.7071 19.2929C16.8946 19.4804 17 19.7348 17 20C17 20.2652 16.8946 20.5196 16.7071 20.7071C16.5196 20.8946 16.2652 21 16 21C15.7348 21 15.4804 20.8946 15.2929 20.7071C15.1054 20.5196 15 20.2652 15 20C15 19.7348 15.1054 19.4804 15.2929 19.2929C15.4804 19.1054 15.7348 19 16 19ZM16.75 13.75V17.25C16.75 17.6656 16.4156 18 16 18C15.5844 18 15.25 17.6656 15.25 17.25V13.75C15.25 13.3344 15.5844 13 16 13C16.4156 13 16.75 13.3344 16.75 13.75Z" fill="currentcolor"/>
</svg>
