<svg viewBox="0 0 32 32" fill="none" xmlns="http://www.w3.org/2000/svg">
<path d="M7.04219 21.9385C7.21094 20.6055 7.86344 19.4307 8.80844 18.6104C9.68031 17.8574 10.7969 17.4062 12.0147 17.4062H13.3H14.5853C15.8031 17.4062 16.9197 17.8574 17.7887 18.6104C18.7338 19.4307 19.3862 20.6055 19.555 21.9385C19.5831 22.1641 19.5972 22.3955 19.5972 22.6299C19.5972 23.1104 19.2231 23.5 18.7619 23.5H18.2134H8.38656H7.83531C7.37406 23.5 7 23.1104 7 22.6299C7 22.3955 7.01406 22.1641 7.04219 21.9385ZM9.7 12.25C9.7 11.2554 10.0793 10.3016 10.7544 9.59835C11.4295 8.89509 12.3452 8.5 13.3 8.5C14.2548 8.5 15.1705 8.89509 15.8456 9.59835C16.5207 10.3016 16.9 11.2554 16.9 12.25C16.9 13.2446 16.5207 14.1984 15.8456 14.9017C15.1705 15.6049 14.2548 16 13.3 16C12.3452 16 11.4295 15.6049 10.7544 14.9017C10.0793 14.1984 9.7 13.2446 9.7 12.25ZM15.55 12.25C15.55 11.6284 15.3129 11.0323 14.891 10.5927C14.469 10.1532 13.8967 9.90625 13.3 9.90625C12.7033 9.90625 12.131 10.1532 11.709 10.5927C11.2871 11.0323 11.05 11.6284 11.05 12.25C11.05 12.8716 11.2871 13.4677 11.709 13.9073C12.131 14.3468 12.7033 14.5938 13.3 14.5938C13.8967 14.5938 14.469 14.3468 14.891 13.9073C15.3129 13.4677 15.55 12.8716 15.55 12.25ZM12.0147 18.8125C10.6703 18.8125 9.4975 19.5654 8.85906 20.6875C8.61719 21.1094 8.45406 21.5869 8.38656 22.0938H9.75625H16.8438H18.2163C18.205 22.0146 18.1938 21.9385 18.1769 21.8594C18.0953 21.4404 17.9462 21.0449 17.7409 20.6875C17.1025 19.5654 15.9297 18.8125 14.5853 18.8125H12.0147ZM24.1366 23.5H20.2863C20.4241 23.2422 20.5 22.9463 20.5 22.6299C20.5 20.7256 19.6703 19.0205 18.3653 17.8896C18.4862 17.8779 18.61 17.875 18.7366 17.875H20.4634C22.9694 17.875 25 19.9902 25 22.6006C25 23.0986 24.6119 23.5 24.1366 23.5ZM19.15 16C18.2781 16 17.4906 15.6309 16.9197 15.0361C17.4738 14.2568 17.8 13.293 17.8 12.25C17.8 11.4648 17.6144 10.7236 17.2853 10.0732C17.8084 9.6748 18.4525 9.4375 19.15 9.4375C20.8909 9.4375 22.3 10.9053 22.3 12.7188C22.3 14.5322 20.8909 16 19.15 16Z" fill="currentcolor"/>
</svg>
