<svg viewBox="0 0 32 32" fill="none" xmlns="http://www.w3.org/2000/svg">
<path d="M15 9.5H17C17.1375 9.5 17.25 9.6125 17.25 9.75V10.5H14.75V9.75C14.75 9.6125 14.8625 9.5 15 9.5ZM13.25 9.75V10.5H13C10.7906 10.5 9 12.2906 9 14.5V22C9 23.1031 9.89688 24 11 24H12.25H19.75H21C22.1031 24 23 23.1031 23 22V14.5C23 12.2906 21.2094 10.5 19 10.5H18.75V9.75C18.75 8.78438 17.9656 8 17 8H15C14.0344 8 13.25 8.78438 13.25 9.75ZM20.5 22.5V19.75V17.75C20.5 16.5063 19.4937 15.5 18.25 15.5H13.75C12.5062 15.5 11.5 16.5063 11.5 17.75V19.75V22.5H11C10.725 22.5 10.5 22.275 10.5 22V14.5C10.5 13.1188 11.6188 12 13 12H14H18H19C20.3813 12 21.5 13.1188 21.5 14.5V22C21.5 22.275 21.275 22.5 21 22.5H20.5ZM13 22.5V20.5H19V22.5H13ZM13.5 13C13.0844 13 12.75 13.3344 12.75 13.75C12.75 14.1656 13.0844 14.5 13.5 14.5H18.5C18.9156 14.5 19.25 14.1656 19.25 13.75C19.25 13.3344 18.9156 13 18.5 13H13.5ZM19 19H13V17.75C13 17.3344 13.3344 17 13.75 17H18.25C18.6656 17 19 17.3344 19 17.75V19Z" fill="currentColor"/>
</svg>
