<svg viewBox="0 0 32 32" fill="none" xmlns="http://www.w3.org/2000/svg">
<path d="M10.2 10.4004C9.8675 10.4004 9.6 10.6679 9.6 11.0004V14.4004H10.8V11.0004C10.8 10.6679 10.5325 10.4004 10.2 10.4004ZM9.6 21.0004C9.6 21.3329 9.8675 21.6004 10.2 21.6004C10.5325 21.6004 10.8 21.3329 10.8 21.0004V17.6004H9.6V21.0004ZM12 21.2004C12 21.4204 12.18 21.6004 12.4 21.6004C12.62 21.6004 12.8 21.4204 12.8 21.2004V17.6004H12V21.2004ZM13.6 21.0004C13.6 21.3329 13.8675 21.6004 14.2 21.6004C14.5325 21.6004 14.8 21.3329 14.8 21.0004V17.6004H13.6V21.0004ZM13.6 11.0004V14.4004H14.8V11.0004C14.8 10.6679 14.5325 10.4004 14.2 10.4004C13.8675 10.4004 13.6 10.6679 13.6 11.0004ZM16.4 21.0004C16.4 21.3329 16.6675 21.6004 17 21.6004C17.3325 21.6004 17.6 21.3329 17.6 21.0004V17.6004H16.4V21.0004ZM16.4 11.0004V14.4004H17.6V11.0004C17.6 10.6679 17.3325 10.4004 17 10.4004C16.6675 10.4004 16.4 10.6679 16.4 11.0004ZM19.6 21.2004C19.6 21.4204 19.78 21.6004 20 21.6004C20.22 21.6004 20.4 21.4204 20.4 21.2004V17.6004H19.6V21.2004ZM19.6 10.8004V14.4004H20.4V10.8004C20.4 10.5804 20.22 10.4004 20 10.4004C19.78 10.4004 19.6 10.5804 19.6 10.8004ZM21.2 21.0004C21.2 21.3329 21.4675 21.6004 21.8 21.6004C22.1325 21.6004 22.4 21.3329 22.4 21.0004V17.6004H21.2V21.0004ZM21.2 11.0004V14.4004H22.4V11.0004C22.4 10.6679 22.1325 10.4004 21.8 10.4004C21.4675 10.4004 21.2 10.6679 21.2 11.0004ZM12 14.4004H12.8V10.8004C12.8 10.5804 12.62 10.4004 12.4 10.4004C12.18 10.4004 12 10.5804 12 10.8004V14.4004ZM8 16.0004C8 16.3329 8.2675 16.6004 8.6 16.6004H23.4C23.7325 16.6004 24 16.3329 24 16.0004C24 15.6679 23.7325 15.4004 23.4 15.4004H8.6C8.2675 15.4004 8 15.6679 8 16.0004Z" fill="currentColor"/>
</svg>
