<svg viewBox="0 0 32 32" fill="none" xmlns="http://www.w3.org/2000/svg">
<path d="M10.5021 21.0002V22.5001H12.502V21.0002H10.5021ZM13.252 23.8C13.0301 23.9281 12.7739 24 12.502 24H10.5021C9.67404 24 9.0022 23.3282 9.0022 22.5001V21.0002V20.2502V20.0002H12.502V19.5003V18.0003H14.0019V19.5003H16.0018V12.5007H14.0019V14.0006H12.502V12.5007V12.0007H9.0022V11.7507V11.0007V9.50083C9.0022 8.67276 9.67404 8.00092 10.5021 8.00092H12.502C12.7739 8.00092 13.0301 8.07279 13.252 8.20091C13.4738 8.07279 13.7301 8.00092 14.0019 8.00092H16.0018C16.6455 8.00092 17.1924 8.40402 17.408 8.97274C17.583 8.78213 17.8111 8.63838 18.0767 8.56651L19.9359 8.05092C20.7078 7.83843 21.5015 8.31028 21.7077 9.10711L22.2702 11.2695L22.4577 11.9944L24.3888 19.4409L24.5763 20.1658L24.9482 21.6033C25.1544 22.4001 24.6982 23.2188 23.9263 23.4313L22.064 23.9469C21.2921 24.1594 20.4984 23.6875 20.2922 22.8907L19.7297 20.7283L19.5422 20.0034L17.6142 12.56L17.5017 12.1319V12.5007V19.5003V20.2502V21.0002V22.5001C17.5017 23.3282 16.8299 24 16.0018 24H14.0019C13.7301 24 13.4738 23.9281 13.252 23.8ZM14.0019 22.5001H16.0018V21.0002H14.0019V22.5001ZM12.502 9.50083H10.5021V11.0007H12.502V9.50083ZM14.0019 11.0007H16.0018V9.50083H14.0019V11.0007ZM22.7545 19.1159L21.0109 12.3975L19.2454 12.885L20.989 19.6034L22.7545 19.1159ZM21.3671 21.0564L21.739 22.4845L23.5014 21.997C23.5014 21.9939 23.5014 21.9907 23.5014 21.9876V21.9845L23.1358 20.5721L21.3702 21.0595L21.3671 21.0564ZM18.8704 11.432L20.6359 10.9445L20.2641 9.51646L18.5017 10.0039C18.5017 10.0071 18.5017 10.0102 18.5017 10.0164L18.8673 11.4288L18.8704 11.432ZM9.0022 13.5006C9.0022 13.2256 9.22719 13.0006 9.50218 13.0006H10.5021C10.7771 13.0006 11.0021 13.2256 11.0021 13.5006V15.0005H12.502C12.777 15.0005 13.002 15.2255 13.002 15.5005V16.5004C13.002 16.7754 12.777 17.0004 12.502 17.0004H11.0021V18.5003C11.0021 18.7753 10.7771 19.0003 10.5021 19.0003H9.50218C9.22719 19.0003 9.0022 18.7753 9.0022 18.5003V17.0004H7.50229C7.22731 17.0004 7.00232 16.7754 7.00232 16.5004V15.5005C7.00232 15.2255 7.22731 15.0005 7.50229 15.0005H9.0022V13.5006Z" fill="currentColor"/>
</svg>
