<svg viewBox="0 0 32 32" fill="none" xmlns="http://www.w3.org/2000/svg">
    <path d="M10 8C8.89643 8 8 8.89643 8 10V22C8 23.1036 8.89643 24 10 24H12.2857C12.7607 24 13.1429 23.6179 13.1429 23.1429C13.1429 22.6679 12.7607 22.2857 12.2857 22.2857H10C9.84286 22.2857 9.71429 22.1571 9.71429 22V10C9.71429 9.84286 9.84286 9.71429 10 9.71429H12.2857C12.7607 9.71429 13.1429 9.33214 13.1429 8.85714C13.1429 8.38214 12.7607 8 12.2857 8H10ZM22 8H19.7143C19.2393 8 18.8571 8.38214 18.8571 8.85714C18.8571 9.33214 19.2393 9.71429 19.7143 9.71429H22C22.1571 9.71429 22.2857 9.84286 22.2857 10V22C22.2857 22.1571 22.1571 22.2857 22 22.2857H19.7143C19.2393 22.2857 18.8571 22.6679 18.8571 23.1429C18.8571 23.6179 19.2393 24 19.7143 24H22C23.1036 24 24 23.1036 24 22V10C24 8.89643 23.1036 8 22 8Z" fill="currentColor"/>
</svg>
