<svg viewBox="0 0 32 32" fill="none" xmlns="http://www.w3.org/2000/svg">
<path d="M16 8C15.7344 8 15.4688 8.05312 15.225 8.15937L8.68438 10.9625C8.26875 11.1406 8 11.5469 8 12C8 12.4531 8.26875 12.8594 8.68438 13.0375L15.225 15.8406C15.4688 15.9469 15.7344 16 16 16C16.2656 16 16.5312 15.9469 16.775 15.8406L23.3156 13.0375C23.7312 12.8594 24 12.45 24 12C24 11.55 23.7312 11.1406 23.3156 10.9625L16.775 8.15937C16.5312 8.05312 16.2656 8 16 8ZM15.8156 9.5375C15.875 9.5125 15.9375 9.5 16 9.5C16.0625 9.5 16.125 9.5125 16.1844 9.5375L21.9281 12L16.1844 14.4625C16.125 14.4875 16.0625 14.5 16 14.5C15.9375 14.5 15.875 14.4875 15.8156 14.4625L10.0719 12L15.8156 9.5375ZM8.68438 14.9625C8.26875 15.1406 8 15.5469 8 16C8 16.4531 8.26875 16.8594 8.68438 17.0375L15.225 19.8406C15.4688 19.9469 15.7344 20 16 20C16.2656 20 16.5312 19.9469 16.775 19.8406L23.3156 17.0375C23.7312 16.8594 24 16.45 24 16C24 15.55 23.7312 15.1406 23.3156 14.9625L22.3406 14.5437L20.4375 15.3594L21.9281 16L16.1844 18.4625C16.125 18.4875 16.0625 18.5 16 18.5C15.9375 18.5 15.875 18.4875 15.8156 18.4625L10.0719 16L11.5625 15.3594L9.65937 14.5437L8.68438 14.9625ZM8.68438 18.9625C8.26875 19.1406 8 19.5469 8 20C8 20.4531 8.26875 20.8594 8.68438 21.0375L15.225 23.8406C15.4688 23.9469 15.7344 24 16 24C16.2656 24 16.5312 23.9469 16.775 23.8406L23.3156 21.0375C23.7312 20.8594 24 20.45 24 20C24 19.55 23.7312 19.1406 23.3156 18.9625L22.3406 18.5437L20.4375 19.3594L21.9281 20L16.1844 22.4625C16.125 22.4875 16.0625 22.5 16 22.5C15.9375 22.5 15.875 22.4875 15.8156 22.4625L10.0719 20L11.5625 19.3594L9.65937 18.5437L8.68438 18.9625Z" fill="currentColor" />
</svg>
