<svg viewBox="0 0 32 32" fill="none" xmlns="http://www.w3.org/2000/svg">
<path d="M20.3687 18.0441C20.6507 17.9972 20.8873 18.2253 20.8873 18.5034V20.5409C20.8873 20.8159 21.1207 21.0409 21.4059 21.0409H23.4801C23.7685 21.0409 24.0084 21.2722 23.9533 21.5441C23.9371 21.6222 23.9209 21.7003 23.8982 21.7753C23.4542 23.3753 21.7462 24.3253 20.0868 23.8972C18.4274 23.4691 17.4421 21.8222 17.8862 20.2222C18.2102 19.0534 19.2085 18.2316 20.3655 18.0409L20.3687 18.0441ZM22.4397 17.0816C23.7459 17.2909 24.7732 18.2847 24.9936 19.5441C25.0422 19.8159 24.8057 20.0409 24.5172 20.0409H22.443C22.1578 20.0409 21.9244 19.8159 21.9244 19.5409V17.5409C21.9244 17.2659 22.1578 17.0378 22.4397 17.0816ZM7.73927 17.05L14.4932 19.8406C14.746 19.9469 15.0214 20 15.2969 20C15.5724 20 15.8187 19.9469 16.1007 19.8406L16.4796 19.6841C16.8173 18.6503 17.5368 17.7797 18.4789 17.2262L15.4881 18.4625C15.4266 18.4875 15.3617 18.5 15.2969 18.5C15.2029 18.5 15.1381 18.4875 15.1057 18.4625L8.8506 15.8906C9.11442 15.6344 9.14391 15.2469 8.92936 14.9563C8.6798 14.6188 8.19398 14.5406 7.84428 14.7812L7.51078 15.0125C7.19025 15.2344 7 15.5906 7 15.9688C7 16.4406 7.29072 16.8656 7.73927 17.05ZM7.70978 13.0375L14.4932 15.8406C14.746 15.9469 15.0214 16 15.2969 16C15.5724 16 15.8187 15.9469 16.1007 15.8406L22.8841 13.0375C23.3151 12.8594 23.5939 12.4531 23.5939 12C23.5939 11.5469 23.3151 11.1406 22.8841 10.9622L16.1007 8.15906C15.8187 8.05406 15.5724 8 15.2969 8C15.0214 8 14.746 8.05406 14.4932 8.15906L7.70978 10.9622C7.27905 11.1406 7 11.5469 7 12C7 12.4531 7.27905 12.8594 7.70978 13.0375ZM15.1057 9.53781C15.1381 9.51281 15.2029 9.5 15.2969 9.5C15.3617 9.5 15.4266 9.51281 15.4881 9.53781L21.4451 12L15.4881 14.4625C15.4266 14.4875 15.3617 14.5 15.2969 14.5C15.2029 14.5 15.1381 14.4875 15.1057 14.4625L9.14748 12L15.1057 9.53781ZM16.4015 22.085L15.4881 22.4625C15.4266 22.4875 15.3617 22.5 15.2969 22.5C15.2029 22.5 15.1381 22.4875 15.1057 22.4625L8.8506 19.8906C9.11442 19.6344 9.14391 19.2469 8.92936 18.9563C8.6798 18.6188 8.19398 18.5406 7.84428 18.7812L7.51078 19.0125C7.19025 19.2344 7 19.5906 7 19.9688C7 20.4406 7.29072 20.8656 7.73927 21.05L14.4932 23.8406C14.746 23.9469 15.0214 24 15.2969 24C15.5724 24 15.8187 23.9469 16.1007 23.8406L17.025 23.4587C16.7414 23.0441 16.5282 22.5809 16.4015 22.085Z" fill="currentcolor"/>
</svg>
