<svg width="32" height="32" viewBox="0 0 32 32" fill="none" xmlns="http://www.w3.org/2000/svg">
  <g clip-path="url(#clip0_37936_147347)">
    <path
      d="M20.5039 15C18.0207 15 16.0078 17.0147 16.0078 19.5C16.0078 21.9853 18.0207 24 20.5039 24C22.9871 24 25 21.9853 25 19.5C25 17.0147 22.9871 15 20.5039 15ZM22.978 19.0831L20.7649 21.2981C20.6219 21.4412 20.3868 21.4412 20.2438 21.2981L18.0307 19.0831C17.9249 18.9794 17.8924 18.82 17.9502 18.6816C18.0076 18.5431 18.1416 18.4534 18.2914 18.4534H22.7176C22.8675 18.4534 23.0033 18.5456 23.0586 18.6816C23.1141 18.8178 23.0842 18.9772 22.978 19.0831ZM17.7866 14.9744L19.1145 14.405C18.6424 14.5341 18.1962 14.7272 17.7866 14.9744ZM15.9338 22.1378L15.1773 22.4625C15.118 22.4875 15.0555 22.5 14.9931 22.5C14.9306 22.5 14.8682 22.4875 14.8088 22.4625L9.07008 20L10.5594 19.3594L8.65794 18.5437L7.68378 18.9625C7.26852 19.1406 7 19.5469 7 20C7 20.4531 7.26852 20.8594 7.68378 21.0375L14.2187 23.8406C14.4623 23.9469 14.7277 24 14.9931 24C15.2585 24 15.5239 23.9469 15.7674 23.8406L16.9008 23.3544C16.522 22.9997 16.1955 22.59 15.9338 22.1378ZM15.3446 18.3906L15.1773 18.4625C15.118 18.4875 15.0555 18.5 14.9931 18.5C14.9306 18.5 14.8682 18.4875 14.8088 18.4625L9.07008 16L10.5594 15.3594L8.65794 14.5437L7.68378 14.9625C7.26852 15.1406 7 15.5469 7 16C7 16.4531 7.26852 16.8594 7.68378 17.0375L14.2187 19.8406C14.4623 19.9469 14.7277 20 14.9931 20C15.0789 20 15.1645 19.9938 15.2494 19.9828C15.235 19.8238 15.2272 19.6628 15.2272 19.5C15.2272 19.1197 15.2681 18.7484 15.3446 18.3906ZM22.3023 10.9625L15.7674 8.15937C15.5239 8.05312 15.2585 8 14.9931 8C14.7277 8 14.4623 8.05312 14.2187 8.15937L7.68378 10.9625C7.26852 11.1406 7 11.5469 7 12C7 12.4531 7.26852 12.8594 7.68378 13.0375L14.2187 15.8406C14.4623 15.9469 14.7277 16 14.9931 16C15.2585 16 15.5239 15.9469 15.7674 15.8406L17.7866 14.9744C18.1962 14.7272 18.6424 14.5341 19.1145 14.405L22.3023 13.0375C22.7176 12.8594 22.9861 12.45 22.9861 12C22.9861 11.55 22.7176 11.1406 22.3023 10.9625ZM15.1773 14.4625C15.118 14.4875 15.0555 14.5 14.9931 14.5C14.9306 14.5 14.8682 14.4875 14.8088 14.4625L9.07008 12L14.8088 9.5375C14.8682 9.5125 14.9306 9.5 14.9931 9.5C15.0555 9.5 15.118 9.5125 15.1773 9.5375L20.916 12L15.1773 14.4625Z"
      fill="currentColor" />
  </g>
  <defs>
    <clipPath id="clip0_37936_147347">
      <rect width="18" height="16" fill="white" transform="translate(7 8)" />
    </clipPath>
  </defs>
</svg>