<svg viewBox="0 0 17 16" fill="none" xmlns="http://www.w3.org/2000/svg">
<path d="M6.375 1.86667V3.2H10.625V1.86667C10.625 1.72 10.5055 1.6 10.3594 1.6H6.64062C6.49453 1.6 6.375 1.72 6.375 1.86667ZM4.78125 3.2V1.86667C4.78125 0.836667 5.61465 0 6.64062 0H10.3594C11.3854 0 12.2188 0.836667 12.2188 1.86667V3.2H14.875C16.0471 3.2 17 4.15667 17 5.33333V13.8667C17 15.0433 16.0471 16 14.875 16H2.125C0.95293 16 0 15.0433 0 13.8667V5.33333C0 4.15667 0.95293 3.2 2.125 3.2H4.78125ZM1.59375 10.1333V13.8667C1.59375 14.16 1.83281 14.4 2.125 14.4H14.875C15.1672 14.4 15.4062 14.16 15.4062 13.8667V10.1333H10.625V10.6667C10.625 11.2567 10.1502 11.7333 9.5625 11.7333H7.4375C6.8498 11.7333 6.375 11.2567 6.375 10.6667V10.1333H1.59375ZM6.375 8.53333H15.4062V5.33333C15.4062 5.04 15.1672 4.8 14.875 4.8H2.125C1.83281 4.8 1.59375 5.04 1.59375 5.33333V8.53333H6.375Z" fill="currentColor"/>
</svg>
