<svg viewBox="0 0 32 32" fill="none" xmlns="http://www.w3.org/2000/svg">
<path d="M13.75 8.75C13.75 8.33437 13.4156 8 13 8C12.5844 8 12.25 8.33437 12.25 8.75V10H11C9.89687 10 9 10.8969 9 12V12.5V14H9.5H10.5H11H21H21.5H22.5H23V12.5V12C23 10.8969 22.1031 10 21 10H19.75V8.75C19.75 8.33437 19.4156 8 19 8C18.5844 8 18.25 8.33437 18.25 8.75V10H13.75V8.75ZM13.9594 22.5C13.9875 22.6625 14 22.8281 14 23C14 23.3656 13.9031 23.7063 13.7312 24H18.2688C18.1 23.7063 18 23.3656 18 23C18 22.8281 18.0156 22.6625 18.0406 22.5H13.9594ZM22.5 20C23.163 20 23.7989 19.7366 24.2678 19.2678C24.7366 18.7989 25 18.163 25 17.5C25 16.837 24.7366 16.2011 24.2678 15.7322C23.7989 15.2634 23.163 15 22.5 15C21.837 15 21.2011 15.2634 20.7322 15.7322C20.2634 16.2011 20 16.837 20 17.5C20 18.163 20.2634 18.7989 20.7322 19.2678C21.2011 19.7366 21.837 20 22.5 20ZM21 21C19.8969 21 19 21.8969 19 23C19 23.5531 19.4469 24 20 24H25C25.5531 24 26 23.5531 26 23C26 21.8969 25.1031 21 24 21H21ZM12 17.5C12 16.837 11.7366 16.2011 11.2678 15.7322C10.7989 15.2634 10.163 15 9.5 15C8.83696 15 8.20107 15.2634 7.73223 15.7322C7.26339 16.2011 7 16.837 7 17.5C7 18.163 7.26339 18.7989 7.73223 19.2678C8.20107 19.7366 8.83696 20 9.5 20C10.163 20 10.7989 19.7366 11.2678 19.2678C11.7366 18.7989 12 18.163 12 17.5ZM6 23C6 23.5531 6.44687 24 7 24H12C12.5531 24 13 23.5531 13 23C13 21.8969 12.1031 21 11 21H8C6.89688 21 6 21.8969 6 23Z" fill="currentColor"/>
</svg>
