<svg viewBox="0 0 32 32" fill="none" xmlns="http://www.w3.org/2000/svg">
<path d="M22.0008 22.4998H15.0034V23.4998C15.0034 23.6717 14.9722 23.8404 14.9191 23.9998H22.0008C23.1035 23.9998 24 23.1029 24 21.9998V12.8281C24 12.2968 23.7907 11.7875 23.4158 11.4125L20.5857 8.58437C20.2108 8.20937 19.7048 8 19.1737 8H14.0038C12.9011 8 12.0046 8.89686 12.0046 9.99998V12.2218L12.0077 12.2187C12.0545 12.1968 12.1326 12.1562 12.2139 12.125C12.6387 11.9531 13.0979 11.9562 13.504 12.1093V9.99998C13.504 9.72498 13.7289 9.49998 14.0038 9.49998H19.0019V12C19.0019 12.5531 19.4486 12.9999 20.0015 12.9999H22.5006V21.9998C22.5006 22.2748 22.2757 22.4998 22.0008 22.4998ZM11.4173 13.0499C11.1049 12.9218 10.7457 13.0187 10.5395 13.2843L10.2115 13.7062C10.1709 13.7593 10.1115 13.7906 10.0491 13.7999L9.52114 13.8718C9.18689 13.9187 8.92449 14.1812 8.88076 14.5124L8.80891 15.0405C8.79954 15.1062 8.76518 15.1655 8.7152 15.203L8.29036 15.5343C8.02483 15.7405 7.928 16.0999 8.05607 16.4124L8.256 16.9061C8.28099 16.9655 8.28099 17.0343 8.256 17.0968L8.05607 17.5874C7.928 17.8999 8.02483 18.2593 8.29036 18.4655L8.71207 18.7936C8.76518 18.8342 8.79641 18.8936 8.80579 18.9561L8.87763 19.4842C8.92449 19.8186 9.18689 20.0811 9.51801 20.128L10.0053 20.1936V23.4998C10.0053 23.6842 10.1053 23.8529 10.2709 23.9404C10.4364 24.0279 10.6301 24.0186 10.7832 23.9154L12.0046 23.0998L13.226 23.9154C13.379 24.0186 13.5758 24.0279 13.7383 23.9404C13.9007 23.8529 14.0038 23.6842 14.0038 23.4998V20.1936L14.488 20.128C14.8222 20.0811 15.0846 19.8186 15.1284 19.4842L15.2002 18.9561C15.2096 18.8905 15.244 18.8311 15.2939 18.7936L15.7157 18.4655C15.9812 18.2593 16.078 17.8999 15.9499 17.5874L15.7531 17.0936C15.7281 17.0343 15.7281 16.9655 15.7531 16.903L15.9562 16.4093C16.0843 16.0968 15.9874 15.7374 15.7219 15.5312L15.3002 15.203C15.2471 15.1624 15.2158 15.103 15.2065 15.0405L15.1346 14.5124C15.0878 14.1781 14.8254 13.9156 14.4942 13.8718L13.9663 13.7999C13.9007 13.7906 13.8414 13.7562 13.8039 13.7062L13.4759 13.2843C13.2697 13.0187 12.9105 12.9218 12.5981 13.0499L12.0983 13.2499C12.0389 13.2749 11.9702 13.2749 11.9077 13.2499L11.4142 13.0468L11.4173 13.0499ZM10.0053 16.9999C10.0053 16.4695 10.216 15.9608 10.5909 15.5857C10.9658 15.2106 11.4743 14.9999 12.0046 14.9999C12.5348 14.9999 13.0433 15.2106 13.4182 15.5857C13.7932 15.9608 14.0038 16.4695 14.0038 16.9999C14.0038 17.5303 13.7932 18.039 13.4182 18.4141C13.0433 18.7892 12.5348 18.9999 12.0046 18.9999C11.4743 18.9999 10.9658 18.7892 10.5909 18.4141C10.216 18.039 10.0053 17.5303 10.0053 16.9999Z" fill="currentcolor"/>
</svg>
