<svg viewBox="0 0 30 30" xmlns="http://www.w3.org/2000/svg">
<path d="M26.2514 27.1872H13.1314V29.0622C13.1314 29.3844 13.0729 29.7008 12.9733 29.9996H26.2514C28.319 29.9996 30 28.318 30 26.2497V9.05263C30 8.05655 29.6076 7.10148 28.9047 6.39836L23.5981 1.09569C22.8953 0.392574 21.9464 0 20.9507 0H11.2571C9.18957 0 7.50856 1.68162 7.50856 3.74996V7.91592L7.51442 7.91006C7.60228 7.86905 7.74871 7.79288 7.90099 7.73428C8.69757 7.41202 9.55857 7.41788 10.32 7.70499V3.74996C10.32 3.23434 10.7417 2.81247 11.2571 2.81247H20.6286V7.49991C20.6286 8.53701 21.4661 9.37489 22.5029 9.37489H27.1886V26.2497C27.1886 26.7653 26.7669 27.1872 26.2514 27.1872ZM6.40742 9.46864C5.82171 9.22841 5.14814 9.41004 4.76156 9.90809L4.14656 10.6991C4.07042 10.7987 3.95914 10.8573 3.84199 10.8749L2.85213 11.0096C2.22542 11.0975 1.73342 11.5897 1.65142 12.2108L1.51671 13.201C1.49913 13.3241 1.43471 13.4354 1.34099 13.5057L0.54442 14.1268C0.0465631 14.5135 -0.135008 15.1873 0.105134 15.7733L0.479992 16.699C0.526849 16.8103 0.526849 16.9393 0.479992 17.0564L0.105134 17.9763C-0.135008 18.5623 0.0465631 19.2361 0.54442 19.6228L1.33513 20.238C1.43471 20.3142 1.49328 20.4255 1.51085 20.5427L1.64556 21.5329C1.73342 22.1599 2.22542 22.6521 2.84628 22.74L3.75999 22.863V29.0622C3.75999 29.4079 3.94742 29.7243 4.25785 29.8883C4.56828 30.0524 4.93142 30.0348 5.21842 29.8414L7.50856 28.3122L9.79871 29.8414C10.0857 30.0348 10.4547 30.0524 10.7593 29.8883C11.0639 29.7243 11.2571 29.4079 11.2571 29.0622V22.863L12.165 22.74C12.7917 22.6521 13.2837 22.1599 13.3657 21.5329L13.5004 20.5427C13.518 20.4197 13.5824 20.3084 13.6761 20.238L14.4669 19.6228C14.9647 19.2361 15.1463 18.5623 14.9061 17.9763L14.5371 17.0506C14.4903 16.9393 14.4903 16.8103 14.5371 16.6932L14.9179 15.7674C15.158 15.1815 14.9764 14.5076 14.4786 14.1209L13.6879 13.5057C13.5883 13.4295 13.5297 13.3182 13.5121 13.201L13.3774 12.2108C13.2896 11.5838 12.7976 11.0917 12.1767 11.0096L11.1869 10.8749C11.0639 10.8573 10.9526 10.7928 10.8823 10.6991L10.2673 9.90809C9.88071 9.41004 9.20714 9.22841 8.62142 9.46864L7.68428 9.84363C7.57299 9.89051 7.44414 9.89051 7.32699 9.84363L6.40156 9.46278L6.40742 9.46864ZM3.75999 16.8748C3.75999 15.8802 4.15493 14.9264 4.85792 14.2232C5.56092 13.5199 6.51438 13.1248 7.50856 13.1248C8.50275 13.1248 9.45621 13.5199 10.1592 14.2232C10.8622 14.9264 11.2571 15.8802 11.2571 16.8748C11.2571 17.8693 10.8622 18.8232 10.1592 19.5264C9.45621 20.2297 8.50275 20.6248 7.50856 20.6248C6.51438 20.6248 5.56092 20.2297 4.85792 19.5264C4.15493 18.8232 3.75999 17.8693 3.75999 16.8748Z" fill="currentColor"/>
</svg>
