<svg viewBox="0 0 32 32" fill="none" xmlns="http://www.w3.org/2000/svg">
<path d="M16.571 8C17.0255 8.00026 17.4613 8.18093 17.7827 8.50231C18.1041 8.82369 18.2847 9.2595 18.285 9.714V22.286C18.2847 22.7405 18.1041 23.1763 17.7827 23.4977C17.4613 23.8191 17.0255 23.9997 16.571 24H15.429C14.9745 23.9997 14.5387 23.8191 14.2173 23.4977C13.8959 23.1763 13.7153 22.7405 13.715 22.286V9.714C13.7153 9.2595 13.8959 8.82369 14.2173 8.50231C14.5387 8.18093 14.9745 8.00026 15.429 8H16.571ZM16.571 9.714H15.429V22.286H16.571V9.714ZM10.857 14.857C11.3115 14.8573 11.7473 15.0379 12.0687 15.3593C12.3901 15.6807 12.5707 16.1165 12.571 16.571V22.285C12.571 22.7397 12.3905 23.1757 12.069 23.4973C11.7476 23.8189 11.3117 23.9997 10.857 24H9.714C9.25942 24 8.82346 23.8194 8.50202 23.498C8.18058 23.1765 8 22.7406 8 22.286V16.571C8 16.1164 8.18058 15.6805 8.50202 15.359C8.82346 15.0376 9.25942 14.857 9.714 14.857H10.857ZM10.857 16.571H9.714V22.285H10.857V16.571ZM19.429 12C19.4293 11.5455 19.6099 11.1097 19.9313 10.7883C20.2527 10.4669 20.6885 10.2863 21.143 10.286H22.286C22.7405 10.2863 23.1763 10.4669 23.4977 10.7883C23.8191 11.1097 23.9997 11.5455 24 12V22.286C23.9997 22.7405 23.8191 23.1763 23.4977 23.4977C23.1763 23.8191 22.7405 23.9997 22.286 24H21.143C20.6885 23.9997 20.2527 23.8191 19.9313 23.4977C19.6099 23.1763 19.4293 22.7405 19.429 22.286V12ZM21.143 22.286H22.286V12H21.143V22.286Z" fill="currentcolor"/>
</svg>
