<svg viewBox="0 0 32 32" fill="none" xmlns="http://www.w3.org/2000/svg">
<path d="M8.75 9.00003C9.16562 9.00003 9.5 9.33441 9.5 9.75003V20.75C9.5 21.1657 9.83438 21.5 10.25 21.5H23.25C23.6656 21.5 24 21.8344 24 22.25C24 22.6657 23.6656 23 23.25 23H10.25C9.00625 23 8 21.9938 8 20.75V9.75003C8 9.33441 8.33437 9.00003 8.75 9.00003ZM19.75 11.5C19.3344 11.5 19 11.1657 19 10.75C19 10.3344 19.3344 10 19.75 10H22.25C22.45 10 22.6406 10.0782 22.7812 10.2188C22.9219 10.3594 23 10.55 23 10.75V13.25C23 13.6657 22.6656 14 22.25 14C21.8344 14 21.5 13.6657 21.5 13.25V12.5594L17.5312 16.5313C17.2375 16.825 16.7625 16.825 16.4719 16.5313L14.5031 14.5625L12.5344 16.5313C12.2406 16.825 11.7656 16.825 11.475 16.5313C11.1844 16.2375 11.1812 15.7625 11.475 15.4719L13.975 12.9719C14.2687 12.6782 14.7438 12.6782 15.0344 12.9719L17.0031 14.9407L20.4406 11.5H19.75ZM19.75 20C19.3344 20 19 19.6657 19 19.25C19 18.8344 19.3344 18.5 19.75 18.5H20.4406L18.9719 17.0313L20.0312 15.9688L21.5 17.4375V16.7469C21.5 16.3313 21.8344 15.9969 22.25 15.9969C22.6656 15.9969 23 16.3313 23 16.7469V19.2469C23 19.4469 22.9219 19.6375 22.7812 19.7782C22.6406 19.9188 22.45 19.9969 22.25 19.9969H19.75V20Z" fill="currentColor"/>
</svg>
