<svg viewBox="0 0 32 32" fill="none" xmlns="http://www.w3.org/2000/svg">
<circle cx="16" cy="16" r="8" fill="#FF9C28"/>
<path d="M14.5714 13.2917V14.1667H17.4286V13.2917C17.4286 12.4859 16.7893 11.8333 16 11.8333C15.2107 11.8333 14.5714 12.4859 14.5714 13.2917ZM13.4286 14.1667V13.2917C13.4286 11.8424 14.5804 10.6667 16 10.6667C17.4196 10.6667 18.5714 11.8424 18.5714 13.2917V14.1667H18.8571C19.4875 14.1667 20 14.6898 20 15.3333V18.8333C20 19.4768 19.4875 20 18.8571 20H13.1429C12.5125 20 12 19.4768 12 18.8333V15.3333C12 14.6898 12.5125 14.1667 13.1429 14.1667H13.4286Z" fill="white"/>
</svg>
