<svg viewBox="0 0 32 32" fill="none" xmlns="http://www.w3.org/2000/svg">
<path d="M22.5 16C22.5 14.2761 21.8152 12.6228 20.5962 11.4038C19.3772 10.1848 17.7239 9.5 16 9.5C14.2761 9.5 12.6228 10.1848 11.4038 11.4038C10.1848 12.6228 9.5 14.2761 9.5 16C9.5 17.7239 10.1848 19.3772 11.4038 20.5962C12.6228 21.8152 14.2761 22.5 16 22.5C17.7239 22.5 19.3772 21.8152 20.5962 20.5962C21.8152 19.3772 22.5 17.7239 22.5 16ZM8 16C8 13.8783 8.84285 11.8434 10.3431 10.3431C11.8434 8.84285 13.8783 8 16 8C18.1217 8 20.1566 8.84285 21.6569 10.3431C23.1571 11.8434 24 13.8783 24 16C24 18.1217 23.1571 20.1566 21.6569 21.6569C20.1566 23.1571 18.1217 24 16 24C13.8783 24 11.8434 23.1571 10.3431 21.6569C8.84285 20.1566 8 18.1217 8 16ZM13.8844 12.5969C14.1219 12.4656 14.4094 12.4688 14.6438 12.6125L19.1438 15.3625C19.3656 15.5 19.5031 15.7406 19.5031 16.0031C19.5031 16.2656 19.3656 16.5063 19.1438 16.6438L14.6438 19.3938C14.4125 19.5344 14.1219 19.5406 13.8844 19.4094C13.6469 19.2781 13.5 19.0281 13.5 18.7563V13.25C13.5 12.9781 13.6469 12.7281 13.8844 12.5969Z" fill="black"/>
</svg>