<svg viewBox="0 0 33 32" fill="none" xmlns="http://www.w3.org/2000/svg">
<path d="M8.5 16C8.5 13.8783 9.34285 11.8434 10.8431 10.3431C12.3434 8.84285 14.3783 8 16.5 8C18.6217 8 20.6566 8.84285 22.1569 10.3431C23.6571 11.8434 24.5 13.8783 24.5 16C24.5 18.1217 23.6571 20.1566 22.1569 21.6569C20.6566 23.1571 18.6217 24 16.5 24C14.3783 24 12.3434 23.1571 10.8431 21.6569C9.34285 20.1566 8.5 18.1217 8.5 16ZM14.3844 12.5969C14.1469 12.7281 14 12.9812 14 13.25V18.75C14 19.0219 14.1469 19.2719 14.3844 19.4031C14.6219 19.5344 14.9094 19.5312 15.1438 19.3875L19.6438 16.6375C19.8656 16.5 20.0031 16.2594 20.0031 15.9969C20.0031 15.7344 19.8656 15.4937 19.6438 15.3562L15.1438 12.6062C14.9125 12.4656 14.6219 12.4594 14.3844 12.5906V12.5969Z" fill="currentColor"/>
</svg>
