<svg viewBox="0 0 32 33" fill="none" xmlns="http://www.w3.org/2000/svg">
<path d="M22.5 16.5C22.5 14.7761 21.8152 13.1228 20.5962 11.9038C19.3772 10.6848 17.7239 10 16 10C14.2761 10 12.6228 10.6848 11.4038 11.9038C10.1848 13.1228 9.5 14.7761 9.5 16.5C9.5 18.2239 10.1848 19.8772 11.4038 21.0962C12.6228 22.3152 14.2761 23 16 23C17.7239 23 19.3772 22.3152 20.5962 21.0962C21.8152 19.8772 22.5 18.2239 22.5 16.5ZM8 16.5C8 14.3783 8.84285 12.3434 10.3431 10.8431C11.8434 9.34285 13.8783 8.5 16 8.5C18.1217 8.5 20.1566 9.34285 21.6569 10.8431C23.1571 12.3434 24 14.3783 24 16.5C24 18.6217 23.1571 20.6566 21.6569 22.1569C20.1566 23.6571 18.1217 24.5 16 24.5C13.8783 24.5 11.8434 23.6571 10.3431 22.1569C8.84285 20.6566 8 18.6217 8 16.5Z" fill="currentColor"/>
</svg>
 