<svg viewBox="0 0 32 33" fill="none" xmlns="http://www.w3.org/2000/svg">
<path d="M8.73894 15.4017C9.13023 15.4017 9.45471 15.1058 9.5406 14.7241C9.70921 13.9638 10.0082 13.2544 10.4122 12.6181C10.6222 12.2873 10.6031 11.8483 10.3232 11.5715C10.0019 11.2502 9.47062 11.2725 9.2193 11.6511C8.64033 12.5195 8.22359 13.5057 8.01363 14.565C7.92456 15.0104 8.28403 15.4017 8.73894 15.4017ZM12.4546 10.579C13.0908 10.175 13.8002 9.87595 14.5605 9.70735C14.9423 9.62146 15.2381 9.29698 15.2381 8.90569C15.2381 8.45078 14.8468 8.09131 14.4015 8.18038C13.3421 8.39034 12.356 8.80708 11.4875 9.38605C11.1089 9.63736 11.0867 10.1686 11.408 10.4899C11.6847 10.7667 12.1237 10.789 12.4546 10.579ZM16.7651 23.4278C16.7651 23.8827 17.1564 24.2422 17.6017 24.1531C18.6611 23.9432 19.6472 23.5264 20.5157 22.9474C20.8943 22.6961 20.9165 22.1649 20.5952 21.8436C20.3185 21.5668 19.8795 21.5445 19.5486 21.7545C18.9124 22.1585 18.203 22.4575 17.4427 22.6261C17.0609 22.712 16.7651 23.0365 16.7651 23.4278ZM21.5878 19.7122C21.3778 20.043 21.3969 20.482 21.6768 20.7588C21.9981 21.0801 22.5294 21.0578 22.7807 20.6793C23.3597 19.8108 23.7764 18.8246 23.9864 17.7653C24.0754 17.3199 23.716 16.9286 23.2611 16.9286C22.8698 16.9286 22.5453 17.2245 22.4594 17.6062C22.2908 18.3665 21.9918 19.0759 21.5878 19.7122ZM11.408 21.8372C11.0867 22.1585 11.1089 22.6898 11.4875 22.9411C12.356 23.5201 13.3421 23.9368 14.4015 24.1468C14.8468 24.2358 15.2381 23.8764 15.2381 23.4214C15.2381 23.0302 14.9423 22.7057 14.5605 22.6198C13.8002 22.4512 13.0908 22.1521 12.4546 21.7481C12.1237 21.5382 11.6847 21.5573 11.408 21.8372ZM9.22248 20.6793C9.4738 21.0578 10.0051 21.0801 10.3264 20.7588C10.6031 20.482 10.6254 20.043 10.4154 19.7122C10.0114 19.0759 9.71239 18.3665 9.54378 17.6062C9.45789 17.2245 9.13341 16.9286 8.74213 16.9286C8.28722 16.9286 7.92774 17.3199 8.01682 17.7653C8.22677 18.8246 8.64351 19.8108 9.22248 20.6793ZM20.5952 10.4899C20.9165 10.1686 20.8943 9.63736 20.5157 9.38605C19.6472 8.80708 18.6611 8.39034 17.6017 8.18038C17.1564 8.09131 16.7651 8.45078 16.7651 8.90569C16.7651 9.29698 17.0609 9.62146 17.4427 9.70735C18.203 9.87595 18.9124 10.175 19.5486 10.579C19.8795 10.789 20.3185 10.7699 20.5952 10.4899ZM21.5878 12.615C21.9918 13.2512 22.2908 13.9606 22.4594 14.7209C22.5453 15.1026 22.8698 15.3985 23.2611 15.3985C23.716 15.3985 24.0754 15.0072 23.9864 14.5618C23.7764 13.5025 23.3597 12.5163 22.7807 11.6479C22.5294 11.2693 21.9981 11.247 21.6768 11.5683C21.4001 11.8451 21.3778 12.2841 21.5878 12.615Z" fill="currentcolor"/>
</svg>
