<svg viewBox="0 0 32 32" fill="none" xmlns="http://www.w3.org/2000/svg">
<circle cx="16" cy="16" r="8" fill="#FF9C28"/>
<path d="M16.6255 13.96C16.6255 13.1546 17.2779 12.5022 18.0834 12.5022C18.8888 12.5022 19.5412 13.1546 19.5412 13.96V14.8347C19.5412 15.1572 19.8018 15.4178 20.1243 15.4178C20.4468 15.4178 20.7074 15.1572 20.7074 14.8347V13.96C20.7074 12.5113 19.5321 11.3359 18.0834 11.3359C16.6347 11.3359 15.4593 12.5113 15.4593 13.96V14.8347H12.4592C11.816 14.8347 11.293 15.3577 11.293 16.0009V19.4997C11.293 20.1429 11.816 20.6659 12.4592 20.6659H17.2087C17.8519 20.6659 18.3749 20.1429 18.3749 19.4997V16.0009C18.3749 15.3577 17.8519 14.8347 17.2087 14.8347H16.6255V13.96Z" fill="white"/>
</svg>
