<svg viewBox="0 0 32 33" fill="none" xmlns="http://www.w3.org/2000/svg">
<path d="M22.5 16.5001C22.5 14.7762 21.8152 13.1229 20.5962 11.9039C19.3772 10.6849 17.7239 10.0001 16 10.0001C14.2761 10.0001 12.6228 10.6849 11.4038 11.9039C10.1848 13.1229 9.5 14.7762 9.5 16.5001C9.5 18.224 10.1848 19.8773 11.4038 21.0963C12.6228 22.3153 14.2761 23.0001 16 23.0001C17.7239 23.0001 19.3772 22.3153 20.5962 21.0963C21.8152 19.8773 22.5 18.224 22.5 16.5001ZM8 16.5001C8 14.3784 8.84285 12.3436 10.3431 10.8433C11.8434 9.34298 13.8783 8.50012 16 8.50012C18.1217 8.50012 20.1566 9.34298 21.6569 10.8433C23.1571 12.3436 24 14.3784 24 16.5001C24 18.6219 23.1571 20.6567 21.6569 22.157C20.1566 23.6573 18.1217 24.5001 16 24.5001C13.8783 24.5001 11.8434 23.6573 10.3431 22.157C8.84285 20.6567 8 18.6219 8 16.5001ZM14 13.5001H18C18.5531 13.5001 19 13.947 19 14.5001V18.5001C19 19.0532 18.5531 19.5001 18 19.5001H14C13.4469 19.5001 13 19.0532 13 18.5001V14.5001C13 13.947 13.4469 13.5001 14 13.5001Z" fill="currentcolor"/>
</svg>
