<svg viewBox="0 0 32 33" fill="none" xmlns="http://www.w3.org/2000/svg">
<path d="M13.4688 13.9688C13.7625 13.6781 14.2375 13.6781 14.5031 13.9688L15.9719 15.4406L17.4688 13.9688C17.7625 13.6781 18.2375 13.6781 18.5031 13.9688C18.8219 14.2625 18.8219 14.7375 18.5031 15.0031L17.0594 16.4719L18.5031 17.9688C18.8219 18.2625 18.8219 18.7375 18.5031 19.0031C18.2375 19.3219 17.7625 19.3219 17.4688 19.0031L15.9719 17.5594L14.5031 19.0031C14.2375 19.3219 13.7625 19.3219 13.4688 19.0031C13.1781 18.7375 13.1781 18.2625 13.4688 17.9688L14.9406 16.4719L13.4688 15.0031C13.1781 14.7375 13.1781 14.2625 13.4688 13.9688ZM24 16.5C24 20.9187 20.4187 24.5 16 24.5C11.5813 24.5 8 20.9187 8 16.5C8 12.0813 11.5813 8.5 16 8.5C20.4187 8.5 24 12.0813 24 16.5ZM16 10C12.4094 10 9.5 12.9094 9.5 16.5C9.5 20.0906 12.4094 23 16 23C19.5906 23 22.5 20.0906 22.5 16.5C22.5 12.9094 19.5906 10 16 10Z" fill="currentColor"/>
</svg>
