<svg viewBox="0 0 32 32" fill="none" xmlns="http://www.w3.org/2000/svg">
<path d="M22.5 16C22.5 14.2761 21.8152 12.6228 20.5962 11.4038C19.3772 10.1848 17.7239 9.5 16 9.5C14.2761 9.5 12.6228 10.1848 11.4038 11.4038C10.1848 12.6228 9.5 14.2761 9.5 16C9.5 17.7239 10.1848 19.3772 11.4038 20.5962C12.6228 21.8152 14.2761 22.5 16 22.5C17.7239 22.5 19.3772 21.8152 20.5962 20.5962C21.8152 19.3772 22.5 17.7239 22.5 16ZM8 16C8 13.8783 8.84285 11.8434 10.3431 10.3431C11.8434 8.84285 13.8783 8 16 8C18.1217 8 20.1566 8.84285 21.6569 10.3431C23.1571 11.8434 24 13.8783 24 16C24 18.1217 23.1571 20.1566 21.6569 21.6569C20.1566 23.1571 18.1217 24 16 24C13.8783 24 11.8434 23.1571 10.3431 21.6569C8.84285 20.1566 8 18.1217 8 16ZM13.3063 13.1656C13.5531 12.4688 14.2156 12 14.9563 12H16.7781C17.8687 12 18.75 12.8844 18.75 13.9719C18.75 14.6781 18.3719 15.3312 17.7594 15.6844L16.75 16.2625C16.7437 16.6687 16.4094 17 16 17C15.5844 17 15.25 16.6656 15.25 16.25V15.8281C15.25 15.5594 15.3938 15.3125 15.6281 15.1781L17.0125 14.3844C17.1594 14.3 17.25 14.1437 17.25 13.975C17.25 13.7125 17.0375 13.5031 16.7781 13.5031H14.9563C14.85 13.5031 14.7563 13.5687 14.7219 13.6687L14.7094 13.7063C14.5719 14.0969 14.1406 14.3 13.7531 14.1625C13.3656 14.025 13.1594 13.5938 13.2969 13.2063L13.3094 13.1687L13.3063 13.1656ZM15 19C15 18.7348 15.1054 18.4804 15.2929 18.2929C15.4804 18.1054 15.7348 18 16 18C16.2652 18 16.5196 18.1054 16.7071 18.2929C16.8946 18.4804 17 18.7348 17 19C17 19.2652 16.8946 19.5196 16.7071 19.7071C16.5196 19.8946 16.2652 20 16 20C15.7348 20 15.4804 19.8946 15.2929 19.7071C15.1054 19.5196 15 19.2652 15 19Z" fill="currentColor"/>
</svg>
