<svg viewBox="0 0 32 32" fill="none" xmlns="http://www.w3.org/2000/svg">
<path d="M22.5 16C22.5 17.7239 21.8152 19.3772 20.5962 20.5962C19.3772 21.8152 17.7239 22.5 16 22.5C14.2761 22.5 12.6228 21.8152 11.4038 20.5962C10.1848 19.3772 9.5 17.7239 9.5 16C9.5 14.2761 10.1848 12.6228 11.4038 11.4038C12.6228 10.1848 14.2761 9.5 16 9.5C17.7239 9.5 19.3772 10.1848 20.5962 11.4038C21.8152 12.6228 22.5 14.2761 22.5 16ZM8 16C8 18.1217 8.84285 20.1566 10.3431 21.6569C11.8434 23.1571 13.8783 24 16 24C18.1217 24 20.1566 23.1571 21.6569 21.6569C23.1571 20.1566 24 18.1217 24 16C24 13.8783 23.1571 11.8434 21.6569 10.3431C20.1566 8.84285 18.1217 8 16 8C13.8783 8 11.8434 8.84285 10.3431 10.3431C8.84285 11.8434 8 13.8783 8 16ZM15.25 11.75V16C15.25 16.25 15.375 16.4844 15.5844 16.625L18.5844 18.625C18.9281 18.8562 19.3938 18.7625 19.625 18.4156C19.8562 18.0687 19.7625 17.6062 19.4156 17.375L16.75 15.6V11.75C16.75 11.3344 16.4156 11 16 11C15.5844 11 15.25 11.3344 15.25 11.75Z" fill="currentColor"/>
</svg>
