<svg viewBox="0 0 13 13" fill="none" xmlns="http://www.w3.org/2000/svg">
<path d="M6.5 0C10.0902 0 13 2.90977 13 6.5C13 10.0902 10.0902 13 6.5 13C2.90977 13 0 10.0902 0 6.5C0 2.90977 2.90977 0 6.5 0ZM5.89062 3.04688V6.5C5.89062 6.70312 5.99219 6.89355 6.1623 7.00781L8.5998 8.63281C8.8791 8.8207 9.25742 8.74453 9.44531 8.4627C9.6332 8.18086 9.55703 7.80508 9.2752 7.61719L7.10938 6.175V3.04688C7.10938 2.70918 6.8377 2.4375 6.5 2.4375C6.1623 2.4375 5.89062 2.70918 5.89062 3.04688Z" fill="currentColor"/>
</svg>
