<svg viewBox="0 0 32 32" fill="currentColor" xmlns="http://www.w3.org/2000/svg">
<path d="M13.2063 11.3094C12.8969 11.5844 12.4219 11.5531 12.1469 11.2438C11.8719 10.9344 11.9031 10.4594 12.2125 10.1844C13.7563 8.825 15.7844 8 18 8C20.2156 8 22.2437 8.825 23.7844 10.1844C24.0938 10.4594 24.125 10.9313 23.85 11.2438C23.575 11.5563 23.1031 11.5844 22.7906 11.3094C21.5156 10.1813 19.8375 9.5 18 9.5C16.1625 9.5 14.4844 10.1813 13.2063 11.3094ZM9 19C8.725 19 8.5 19.225 8.5 19.5V22C8.5 22.275 8.725 22.5 9 22.5H23C23.275 22.5 23.5 22.275 23.5 22V19.5C23.5 19.225 23.275 19 23 19H9ZM7 19.5C7 18.3969 7.89688 17.5 9 17.5H17.25V15.75C17.25 15.3344 17.5844 15 18 15C18.4156 15 18.75 15.3344 18.75 15.75V17.5H23C24.1031 17.5 25 18.3969 25 19.5V22C25 23.1031 24.1031 24 23 24H9C7.89688 24 7 23.1031 7 22V19.5ZM10.25 20C10.4489 20 10.6397 20.079 10.7803 20.2197C10.921 20.3603 11 20.5511 11 20.75C11 20.9489 10.921 21.1397 10.7803 21.2803C10.6397 21.421 10.4489 21.5 10.25 21.5C10.0511 21.5 9.86032 21.421 9.71967 21.2803C9.57902 21.1397 9.5 20.9489 9.5 20.75C9.5 20.5511 9.57902 20.3603 9.71967 20.2197C9.86032 20.079 10.0511 20 10.25 20ZM12 20.75C12 20.5511 12.079 20.3603 12.2197 20.2197C12.3603 20.079 12.5511 20 12.75 20C12.9489 20 13.1397 20.079 13.2803 20.2197C13.421 20.3603 13.5 20.5511 13.5 20.75C13.5 20.9489 13.421 21.1397 13.2803 21.2803C13.1397 21.421 12.9489 21.5 12.75 21.5C12.5511 21.5 12.3603 21.421 12.2197 21.2803C12.079 21.1397 12 20.9489 12 20.75ZM18 13C17.1062 13 16.2844 13.3125 15.6406 13.8344C15.3188 14.0938 14.8469 14.0469 14.5844 13.725C14.3219 13.4031 14.3719 12.9312 14.6937 12.6687C15.6 11.9375 16.75 11.5 18 11.5C19.25 11.5 20.4 11.9375 21.3031 12.6687C21.625 12.9281 21.675 13.4031 21.4125 13.725C21.15 14.0469 20.6781 14.0969 20.3562 13.8344C19.7156 13.3125 18.8938 13 18 13Z" fill="currentColor"/>
</svg>
