<svg viewBox="0 0 40 40" fill="none" xmlns="http://www.w3.org/2000/svg">
<rect width="40" height="40" rx="5" fill="#FF9C28" fill-opacity="0.15"/>
<path d="M22.5 16V18H17.5V16C17.5 14.6188 18.6187 13.5 20 13.5C21.3812 13.5 22.5 14.6188 22.5 16ZM24 18V16C24 13.7906 22.2094 12 20 12C17.7906 12 16 13.7906 16 16V18H15C13.8969 18 13 18.8969 13 20V26C13 27.1031 13.8969 28 15 28H25C26.1031 28 27 27.1031 27 26V20C27 18.8969 26.1031 18 25 18H24ZM25.5 20V26C25.5 26.275 25.275 26.5 25 26.5H15C14.725 26.5 14.5 26.275 14.5 26V20C14.5 19.725 14.725 19.5 15 19.5H25C25.275 19.5 25.5 19.725 25.5 20Z" fill="#5C6468"/>
</svg>
