<svg viewBox="0 0 32 32" fill="none" xmlns="http://www.w3.org/2000/svg">
<path d="M22 20H16C14.8969 20 14 19.1031 14 18V10C14 8.89688 14.8969 8 16 8H20.3781C20.775 8 21.1562 8.15938 21.4375 8.44063L23.5594 10.5625C23.8406 10.8438 24 11.225 24 11.6219V18C24 19.1031 23.1031 20 22 20ZM10 12H13V13.5H10C9.725 13.5 9.5 13.725 9.5 14V22C9.5 22.275 9.725 22.5 10 22.5H16C16.275 22.5 16.5 22.275 16.5 22V21H18V22C18 23.1031 17.1031 24 16 24H10C8.89688 24 8 23.1031 8 22V14C8 12.8969 8.89688 12 10 12Z" fill="currentcolor"/>
</svg>
