<svg viewBox="0 0 32 32" fill="none" xmlns="http://www.w3.org/2000/svg">
<path d="M22.445 12.2795C22.6156 12.5501 22.6333 12.8825 22.5127 13.1648C22.398 13.4354 22.1862 13.6001 21.9215 13.6354C21.8627 13.6442 21.8068 13.6472 21.7509 13.6472C21.4068 13.6472 21.098 13.4972 20.8774 13.2589C20.6097 12.9648 20.2303 12.7972 19.8303 12.7972C19.4303 12.7972 19.0509 12.9678 18.7862 13.2619C18.5715 13.5001 18.2656 13.6501 17.9156 13.6501C17.5686 13.6501 17.2597 13.5001 17.045 13.2619C16.7774 12.9648 16.398 12.7972 15.998 12.7972C15.598 12.7972 15.2185 12.9648 14.9509 13.2619C14.7362 13.5001 14.4303 13.6501 14.0803 13.6501C13.7332 13.6501 13.4244 13.5001 13.2097 13.2619C12.9421 12.9648 12.5626 12.7972 12.1626 12.7972C11.7626 12.7972 11.3832 12.9648 11.1156 13.2619C10.9009 13.5001 10.595 13.6501 10.245 13.6501C10.192 13.6501 10.1332 13.6472 10.0744 13.6384C9.81263 13.6031 9.6038 13.4384 9.4891 13.1678C9.36851 12.8854 9.38616 12.5531 9.55674 12.2825L11.0715 9.88247H20.9303L22.445 12.2795ZM21.7509 15.0589C21.8715 15.0589 21.9892 15.0501 22.1039 15.0354C23.7362 14.8178 24.5098 12.9031 23.6362 11.5236L21.9509 8.856C21.8009 8.61776 21.5333 8.4707 21.248 8.4707H10.7538C10.4685 8.4707 10.2009 8.61776 10.0509 8.856L8.36262 11.5236C7.49203 12.9001 8.26262 14.8148 9.8891 15.0354C10.0067 15.0501 10.1273 15.0589 10.245 15.0589C10.8215 15.0589 11.3479 14.8707 11.7715 14.5589C11.9126 14.456 12.0421 14.3354 12.1597 14.2089C12.2773 14.3384 12.4068 14.456 12.5479 14.5589C12.9744 14.8707 13.5009 15.0589 14.0774 15.0589C14.6538 15.0589 15.1803 14.8707 15.6068 14.5589C15.748 14.456 15.8774 14.3354 15.995 14.206C16.1127 14.3354 16.2421 14.4531 16.3833 14.556C16.8097 14.8678 17.3362 15.056 17.9127 15.056C18.495 15.056 19.0244 14.8648 19.4509 14.5472C19.5892 14.4442 19.7156 14.3295 19.8303 14.2031C19.945 14.3295 20.0744 14.4472 20.2127 14.5501C20.6392 14.8648 21.1686 15.056 21.748 15.056L21.7509 15.0589ZM10.8244 18.3531V15.9531C10.6362 15.9854 10.445 16.0001 10.2479 16.0001C10.0862 16.0001 9.92439 15.9883 9.76851 15.9678H9.76557C9.64498 15.9501 9.52733 15.9295 9.41263 15.9001V18.3531V19.7648V21.6472C9.41263 22.6854 10.2567 23.5295 11.295 23.5295H20.7068C21.745 23.5295 22.5892 22.6854 22.5892 21.6472V19.7648V18.3531V15.9001C22.4715 15.9295 22.3539 15.9531 22.2274 15.9678H22.2245C22.0686 15.9883 21.9098 16.0001 21.748 16.0001C21.5539 16.0001 21.3627 15.9854 21.1774 15.9531V18.3531H10.8244ZM21.1774 19.7648V21.6472C21.1774 21.906 20.9656 22.1178 20.7068 22.1178H11.295C11.0362 22.1178 10.8244 21.906 10.8244 21.6472V19.7648H21.1774Z" fill="currentColor"/>
</svg>
