<svg viewBox="0 0 32 32" fill="none" xmlns="http://www.w3.org/2000/svg">
<path d="M18.2857 19.9214L14.3571 16L18.2857 12.0786V14C18.2857 14.475 18.6678 14.8571 19.1428 14.8571H23.4285V17.1429H19.1428C18.6678 17.1429 18.2857 17.525 18.2857 18V19.9214ZM12.5714 16C12.5714 16.4107 12.7357 16.8036 13.025 17.0929L17.1714 21.2286C17.4821 21.5393 17.9035 21.7143 18.3428 21.7143C19.2571 21.7143 20 20.9714 20 20.0571V18.8571H23.4285C24.375 18.8571 25.1428 18.0893 25.1428 17.1429V14.8571C25.1428 13.9107 24.375 13.1429 23.4285 13.1429H20V11.9429C20 11.0286 19.2571 10.2857 18.3428 10.2857C17.9035 10.2857 17.4821 10.4607 17.1714 10.7714L13.025 14.9071C12.7357 15.1964 12.5714 15.5893 12.5714 16ZM12.8571 22.2857H9.99996C9.21068 22.2857 8.57139 21.6464 8.57139 20.8571V11.1429C8.57139 10.3536 9.21068 9.71429 9.99996 9.71429H12.8571C13.3321 9.71429 13.7143 9.33214 13.7143 8.85714C13.7143 8.38214 13.3321 8 12.8571 8H9.99996C8.26425 8 6.85711 9.40714 6.85711 11.1429V20.8571C6.85711 22.5929 8.26425 24 9.99996 24H12.8571C13.3321 24 13.7143 23.6179 13.7143 23.1429C13.7143 22.6679 13.3321 22.2857 12.8571 22.2857Z" fill="currentColor"/>
</svg>
