<svg viewBox="0 0 22 24" fill="none" xmlns="http://www.w3.org/2000/svg">
<path d="M21.4965 16.5V2.25C21.4965 1.65326 21.2594 1.08097 20.8375 0.65901C20.4155 0.237053 19.8432 0 19.2465 0L4.24646 0C3.2519 0 2.29807 0.395088 1.59481 1.09835C0.891548 1.80161 0.49646 2.75544 0.49646 3.75L0.49646 20.25C0.49646 21.2446 0.891548 22.1984 1.59481 22.9016C2.29807 23.6049 3.2519 24 4.24646 24H20.3715C20.6698 24 20.956 23.8815 21.167 23.6705C21.3779 23.4595 21.4965 23.1734 21.4965 22.875C21.4965 22.5766 21.3779 22.2905 21.167 22.0795C20.956 21.8685 20.6698 21.75 20.3715 21.75H19.9965V18.612C20.4336 18.4574 20.8124 18.1716 21.0809 17.7935C21.3494 17.4155 21.4945 16.9637 21.4965 16.5ZM17.7465 21.75H4.24646C3.84864 21.75 3.4671 21.592 3.1858 21.3107C2.9045 21.0294 2.74646 20.6478 2.74646 20.25C2.74646 19.8522 2.9045 19.4706 3.1858 19.1893C3.4671 18.908 3.84864 18.75 4.24646 18.75H17.7465V21.75ZM19.2465 16.5H4.24646C3.7301 16.499 3.21922 16.6058 2.74646 16.8135V3.75C2.74646 3.35218 2.9045 2.97064 3.1858 2.68934C3.4671 2.40804 3.84864 2.25 4.24646 2.25H19.2465V16.5ZM7.62146 7.5H15.8715C16.1698 7.5 16.456 7.38147 16.667 7.1705C16.8779 6.95952 16.9965 6.67337 16.9965 6.375C16.9965 6.07663 16.8779 5.79048 16.667 5.5795C16.456 5.36853 16.1698 5.25 15.8715 5.25H7.62146C7.32309 5.25 7.03694 5.36853 6.82596 5.5795C6.61499 5.79048 6.49646 6.07663 6.49646 6.375C6.49646 6.67337 6.61499 6.95952 6.82596 7.1705C7.03694 7.38147 7.32309 7.5 7.62146 7.5ZM7.62146 11.25H15.8715C16.1698 11.25 16.456 11.1315 16.667 10.9205C16.8779 10.7095 16.9965 10.4234 16.9965 10.125C16.9965 9.82663 16.8779 9.54048 16.667 9.3295C16.456 9.11853 16.1698 9 15.8715 9H7.62146C7.32309 9 7.03694 9.11853 6.82596 9.3295C6.61499 9.54048 6.49646 9.82663 6.49646 10.125C6.49646 10.4234 6.61499 10.7095 6.82596 10.9205C7.03694 11.1315 7.32309 11.25 7.62146 11.25Z" fill="currentColor"/>
</svg>
