<svg viewBox="0 0 32 32" fill="none" xmlns="http://www.w3.org/2000/svg">
<path d="M10.25 8.5H9.75C8.23125 8.5 7 9.73125 7 11.25V11.75C7 12.1656 7.33437 12.5 7.75 12.5C8.16562 12.5 8.5 12.1656 8.5 11.75V11.25C8.5 10.5594 9.05938 10 9.75 10H10.25C10.6656 10 11 9.66562 11 9.25C11 8.83437 10.6656 8.5 10.25 8.5ZM7 16.75C7 17.1656 7.33437 17.5 7.75 17.5C8.16562 17.5 8.5 17.1656 8.5 16.75V14.25C8.5 13.8344 8.16562 13.5 7.75 13.5C7.33437 13.5 7 13.8344 7 14.25V16.75ZM7.75 18.5C7.33437 18.5 7 18.8344 7 19.25V19.75C7 21.2688 8.23125 22.5 9.75 22.5H10.25C10.6656 22.5 11 22.1656 11 21.75C11 21.3344 10.6656 21 10.25 21H9.75C9.05938 21 8.5 20.4406 8.5 19.75V19.25C8.5 18.8344 8.16562 18.5 7.75 18.5ZM20.25 13.5C20.6656 13.5 21 13.1656 21 12.75V11.25C21 9.73125 19.7688 8.5 18.25 8.5H17.75C17.3344 8.5 17 8.83437 17 9.25C17 9.66562 17.3344 10 17.75 10H18.25C18.9406 10 19.5 10.5594 19.5 11.25V12.75C19.5 13.1656 19.8344 13.5 20.25 13.5ZM15 21.75C15 21.3344 14.6656 21 14.25 21H12.75C12.3344 21 12 21.3344 12 21.75C12 22.1656 12.3344 22.5 12.75 22.5H14.25C14.6656 22.5 15 22.1656 15 21.75ZM15.25 10C15.6656 10 16 9.66562 16 9.25C16 8.83437 15.6656 8.5 15.25 8.5H12.75C12.3344 8.5 12 8.83437 12 9.25C12 9.66562 12.3344 10 12.75 10H15.25ZM20.5 23.5C21.6935 23.5 22.8381 23.0259 23.682 22.182C24.5259 21.3381 25 20.1935 25 19C25 17.8065 24.5259 16.6619 23.682 15.818C22.8381 14.9741 21.6935 14.5 20.5 14.5C19.3065 14.5 18.1619 14.9741 17.318 15.818C16.4741 16.6619 16 17.8065 16 19C16 20.1935 16.4741 21.3381 17.318 22.182C18.1619 23.0259 19.3065 23.5 20.5 23.5ZM21 17V18.5H22.5C22.775 18.5 23 18.725 23 19C23 19.275 22.775 19.5 22.5 19.5H21V21C21 21.275 20.775 21.5 20.5 21.5C20.225 21.5 20 21.275 20 21V19.5H18.5C18.225 19.5 18 19.275 18 19C18 18.725 18.225 18.5 18.5 18.5H20V17C20 16.725 20.225 16.5 20.5 16.5C20.775 16.5 21 16.725 21 17Z" fill="currentcolor"/>
</svg>
