<svg viewBox="0 0 32 32" fill="none" xmlns="http://www.w3.org/2000/svg">
<path d="M22.2222 10.3929C22.4667 10.3929 22.6667 10.6018 22.6667 10.8571V11.7857H9.33333V10.8571C9.33333 10.6018 9.53333 10.3929 9.77778 10.3929H22.2222ZM22.6667 14.5714V20.1429C22.6667 20.3982 22.4667 20.6071 22.2222 20.6071H9.77778C9.53333 20.6071 9.33333 20.3982 9.33333 20.1429V14.5714H22.6667ZM9.77778 9C8.79722 9 8 9.83281 8 10.8571V20.1429C8 21.1672 8.79722 22 9.77778 22H22.2222C23.2028 22 24 21.1672 24 20.1429V10.8571C24 9.83281 23.2028 9 22.2222 9H9.77778ZM11.3333 17.8214C10.9639 17.8214 10.6667 18.1319 10.6667 18.5179C10.6667 18.9038 10.9639 19.2143 11.3333 19.2143H12.6667C13.0361 19.2143 13.3333 18.9038 13.3333 18.5179C13.3333 18.1319 13.0361 17.8214 12.6667 17.8214H11.3333ZM14.8889 17.8214C14.5194 17.8214 14.2222 18.1319 14.2222 18.5179C14.2222 18.9038 14.5194 19.2143 14.8889 19.2143H18C18.3694 19.2143 18.6667 18.9038 18.6667 18.5179C18.6667 18.1319 18.3694 17.8214 18 17.8214H14.8889Z" fill="currentColor"/>
</svg>
