<svg viewBox="0 0 32 32" fill="none" xmlns="http://www.w3.org/2000/svg">
  <path
    d="M16.7483 8.74969V9.07775C16.9483 9.11525 17.142 9.16212 17.317 9.20898C17.7169 9.31521 17.9543 9.72764 17.8481 10.1276C17.7419 10.5275 17.3295 10.765 16.9295 10.6587C16.589 10.5681 16.2703 10.5056 15.9859 10.5025C15.7579 10.4994 15.5266 10.5556 15.3798 10.64C15.3142 10.6806 15.2829 10.715 15.2704 10.7337C15.2611 10.7493 15.2486 10.7712 15.2486 10.8212C15.2486 10.8306 15.2486 10.8368 15.2486 10.8399C15.2548 10.8462 15.2767 10.8774 15.3517 10.9212C15.5329 11.0305 15.8016 11.1149 16.2078 11.2368L16.2359 11.2461C16.5827 11.3492 17.0451 11.4898 17.4201 11.7242C17.8481 11.9929 18.2355 12.4397 18.2449 13.1271C18.2543 13.8301 17.8887 14.3425 17.4107 14.6424C17.2014 14.7705 16.9764 14.8611 16.7452 14.9174V15.2486C16.7452 15.6641 16.4109 15.9984 15.9953 15.9984C15.5798 15.9984 15.2454 15.6641 15.2454 15.2486V14.8924C14.9486 14.8205 14.6768 14.7268 14.4456 14.6487C14.38 14.6268 14.3175 14.6049 14.2581 14.5862C13.8644 14.4549 13.652 14.03 13.7832 13.6363C13.9144 13.2427 14.3394 13.0302 14.733 13.1614C14.8143 13.1895 14.8893 13.2145 14.9611 13.2395C15.386 13.3833 15.6922 13.4864 16.0203 13.4989C16.2703 13.5082 16.4921 13.4489 16.6202 13.3708C16.6796 13.3333 16.7077 13.302 16.7202 13.2802C16.7327 13.2614 16.7483 13.2239 16.7452 13.152V13.1458C16.7452 13.1146 16.7452 13.0802 16.6202 13.0021C16.4421 12.8896 16.1734 12.8021 15.7735 12.6803L15.7141 12.6615C15.3767 12.5615 14.933 12.4272 14.5768 12.2116C14.155 11.9585 13.7488 11.5242 13.7457 10.8337C13.7426 10.1182 14.1488 9.62766 14.6112 9.35271C14.8111 9.23398 15.0267 9.15274 15.2423 9.0965V8.74969C15.2423 8.33413 15.5766 7.99982 15.9922 7.99982C16.4077 7.99982 16.7421 8.33413 16.7421 8.74969H16.7483ZM12.8552 18.9979C12.6084 18.9979 12.3678 19.0698 12.1616 19.2072L9.66516 20.8726C9.54331 20.9538 9.39646 20.9976 9.24961 20.9976H7.74987C7.33432 20.9976 7 20.6632 7 20.2477C7 19.8321 7.33432 19.4978 7.74987 19.4978H9.02152L11.3274 17.9606C11.7804 17.6575 12.3116 17.4982 12.8552 17.4982H17.7481C18.8511 17.4982 19.7478 18.3949 19.7478 19.4978C19.7478 19.5197 19.7478 19.5384 19.7478 19.5603L21.7756 18.3105C22.1099 18.1043 22.4911 17.9981 22.8847 17.9981H23.116C24.1564 17.9981 25 18.8417 25 19.8821C25 20.5195 24.6751 21.1163 24.1408 21.4631L21.1538 23.3971C20.5476 23.7908 19.8384 24.0002 19.1166 24.0002H7.74987C7.33432 24.0002 7 23.6658 7 23.2503C7 22.8347 7.33432 22.5004 7.74987 22.5004H19.1135C19.5478 22.5004 19.9727 22.3754 20.3352 22.138L23.3222 20.2039C23.4315 20.1321 23.4971 20.0134 23.4971 19.8821C23.4971 19.6697 23.3253 19.4978 23.1128 19.4978H22.8816C22.7691 19.4978 22.6567 19.5291 22.5598 19.5884L19.6384 21.385C19.5197 21.4569 19.3854 21.4975 19.2448 21.4975H17.7481H16.9983H14.9986C14.5831 21.4975 14.2487 21.1632 14.2487 20.7476C14.2487 20.3321 14.5831 19.9977 14.9986 19.9977H16.9983H17.7481C18.0231 19.9977 18.248 19.7728 18.248 19.4978C18.248 19.2229 18.0231 18.9979 17.7481 18.9979H12.8552Z"
    fill="currentColor"
  />
</svg>