<svg viewBox="0 0 13 10" fill="none" xmlns="http://www.w3.org/2000/svg">
<path d="M7.09743 1.64815C7.31728 1.47917 7.45588 1.21759 7.45588 0.925926C7.45588 0.414352 7.02813 0 6.5 0C5.97188 0 5.54412 0.414352 5.54412 0.925926C5.54412 1.21759 5.68511 1.47917 5.90257 1.64815L4.26801 4.13889C4.02904 4.50231 3.52004 4.59259 3.16397 4.33333L1.7421 3.30324C1.84963 3.15509 1.91176 2.97222 1.91176 2.77778C1.91176 2.2662 1.48401 1.85185 0.955882 1.85185C0.427757 1.85185 0 2.2662 0 2.77778C0 3.28241 0.418198 3.69444 0.936765 3.7037L1.71581 8.73843C1.82813 9.46296 2.47096 10 3.22849 10H9.77151C10.529 10 11.1719 9.46296 11.2842 8.73843L12.0632 3.7037C12.5818 3.69444 13 3.28241 13 2.77778C13 2.2662 12.5722 1.85185 12.0441 1.85185C11.516 1.85185 11.0882 2.2662 11.0882 2.77778C11.0882 2.97222 11.1504 3.15509 11.2579 3.30324L9.83842 4.33565C9.48235 4.59491 8.97335 4.50463 8.73438 4.1412L7.09743 1.64815Z" fill="currentColor"/>
</svg>
