<svg viewBox="0 0 32 32" fill="none" xmlns="http://www.w3.org/2000/svg">
<path d="M21 10.5C21.275 10.5 21.5 10.725 21.5 11V18H19C18.4469 18 18 18.4469 18 19V21.5H11C10.725 21.5 10.5 21.275 10.5 21V11C10.5 10.725 10.725 10.5 11 10.5H21ZM11 23H18H18.1719C18.7031 23 19.2125 22.7906 19.5875 22.4156L22.4156 19.5875C22.7906 19.2125 23 18.7031 23 18.1719V18V11C23 9.89687 22.1031 9 21 9H11C9.89687 9 9 9.89687 9 11V21C9 22.1031 9.89687 23 11 23ZM13 19.25C13 19.0511 12.921 18.8603 12.7803 18.7197C12.6397 18.579 12.4489 18.5 12.25 18.5C12.0511 18.5 11.8603 18.579 11.7197 18.7197C11.579 18.8603 11.5 19.0511 11.5 19.25C11.5 19.4489 11.579 19.6397 11.7197 19.7803C11.8603 19.921 12.0511 20 12.25 20C12.4489 20 12.6397 19.921 12.7803 19.7803C12.921 19.6397 13 19.4489 13 19.25ZM12.25 12C12.0511 12 11.8603 12.079 11.7197 12.2197C11.579 12.3603 11.5 12.5511 11.5 12.75C11.5 12.9489 11.579 13.1397 11.7197 13.2803C11.8603 13.421 12.0511 13.5 12.25 13.5C12.4489 13.5 12.6397 13.421 12.7803 13.2803C12.921 13.1397 13 12.9489 13 12.75C13 12.5511 12.921 12.3603 12.7803 12.2197C12.6397 12.079 12.4489 12 12.25 12ZM13 16C13 15.8011 12.921 15.6103 12.7803 15.4697C12.6397 15.329 12.4489 15.25 12.25 15.25C12.0511 15.25 11.8603 15.329 11.7197 15.4697C11.579 15.6103 11.5 15.8011 11.5 16C11.5 16.1989 11.579 16.3897 11.7197 16.5303C11.8603 16.671 12.0511 16.75 12.25 16.75C12.4489 16.75 12.6397 16.671 12.7803 16.5303C12.921 16.3897 13 16.1989 13 16Z" fill="currentcolor"/>
</svg>
