<svg viewBox="0 0 32 32" fill="none" xmlns="http://www.w3.org/2000/svg">
<path d="M8 11H20C20.275 11 20.5 11.225 20.5 11.5V12.1906L19.7937 12.7688C20.3313 12.5938 20.9062 12.5 21.5 12.5C21.6687 12.5 21.8344 12.5063 22 12.5219V11.5C22 10.3969 21.1031 9.5 20 9.5H8C6.89688 9.5 6 10.3969 6 11.5V19.5C6 20.6031 6.89688 21.5 8 21.5H17.2563C16.8875 21.0531 16.5875 20.5469 16.375 20H8C7.725 20 7.5 19.775 7.5 19.5V14.1313L11.9375 17.775C13.1156 18.7438 14.8063 18.7594 16.0031 17.8219C16.0312 16.9094 16.2812 16.0563 16.7031 15.3094L15.1125 16.6156C14.4656 17.1469 13.5375 17.1469 12.8906 16.6156L7.5 12.1906V11.5C7.5 11.225 7.725 11 8 11ZM26 18C26 16.8065 25.5259 15.6619 24.682 14.818C23.8381 13.9741 22.6935 13.5 21.5 13.5C20.3065 13.5 19.1619 13.9741 18.318 14.818C17.4741 15.6619 17 16.8065 17 18C17 19.1935 17.4741 20.3381 18.318 21.182C19.1619 22.0259 20.3065 22.5 21.5 22.5C22.6935 22.5 23.8381 22.0259 24.682 21.182C25.5259 20.3381 26 19.1935 26 18ZM23.6031 16.6469C23.7969 16.8406 23.7969 17.1594 23.6031 17.3531L21.3531 19.6031C21.1594 19.7969 20.8406 19.7969 20.6469 19.6031L19.3969 18.3531C19.2031 18.1594 19.2031 17.8406 19.3969 17.6469C19.5906 17.4531 19.9094 17.4531 20.1031 17.6469L21 18.5438L22.8969 16.6469C23.0906 16.4531 23.4094 16.4531 23.6031 16.6469Z" fill="currentcolor"/>
</svg>
