<svg viewBox="0 0 32 32" fill="none" xmlns="http://www.w3.org/2000/svg">
<path d="M18.7844 12.1562C19.3688 11.5719 19.3688 10.6219 18.7844 10.0344L17.2812 8.53125C16.9406 8.19063 16.4812 8 16 8C15.5188 8 15.0594 8.19063 14.7188 8.53125L13.2156 10.0344C12.6312 10.6188 12.6312 11.5687 13.2156 12.1562L14.9375 13.8781C15.5219 14.4625 16.4719 14.4625 17.0594 13.8781L18.7844 12.1562ZM15.7812 9.59063C15.8406 9.53125 15.9187 9.5 16 9.5C16.0813 9.5 16.1625 9.53125 16.2188 9.59063L17.7219 11.0938L16 12.8187L14.2781 11.0938L15.7812 9.59063ZM12.1562 13.2156C11.5719 12.6312 10.6219 12.6312 10.0344 13.2156L8.53125 14.7188C8.19063 15.0594 8 15.5188 8 16C8 16.4812 8.19063 16.9406 8.53125 17.2812L10.0344 18.7844C10.6188 19.3688 11.5687 19.3688 12.1562 18.7844L13.8781 17.0625C14.4625 16.4781 14.4625 15.5281 13.8781 14.9406L12.1562 13.2156ZM9.59063 15.7812L11.0938 14.2781L12.8156 16L11.0938 17.7219L9.59063 16.2188C9.53125 16.1594 9.5 16.0813 9.5 16C9.5 15.9187 9.53125 15.8375 9.59063 15.7812ZM14.2781 20.9062L16 19.1812L17.7219 20.9062L16.2188 22.4094C16.1594 22.4687 16.0813 22.5 16 22.5C15.9187 22.5 15.8375 22.4687 15.7812 22.4094L14.2781 20.9062ZM17.0625 18.1219C16.4781 17.5375 15.5281 17.5375 14.9406 18.1219L13.2156 19.8438C12.6312 20.4281 12.6312 21.3781 13.2156 21.9656L14.7188 23.4688C15.0594 23.8094 15.5188 24 16 24C16.4812 24 16.9406 23.8094 17.2812 23.4688L18.7844 21.9656C19.3688 21.3812 19.3688 20.4312 18.7844 19.8438L17.0625 18.1219ZM21.9688 13.2156C21.3844 12.6312 20.4344 12.6312 19.8469 13.2156L18.125 14.9375C17.5406 15.5219 17.5406 16.4719 18.125 17.0594L19.8438 18.7844C20.4281 19.3688 21.3781 19.3688 21.9656 18.7844L23.4688 17.2812C23.8094 16.9406 24 16.4812 24 16C24 15.5188 23.8094 15.0594 23.4688 14.7188L21.9656 13.2156H21.9688ZM22.4094 15.7812C22.4687 15.8406 22.5 15.9187 22.5 16C22.5 16.0813 22.4687 16.1625 22.4094 16.2188L20.9062 17.7219L19.1812 16L20.9062 14.2781L22.4094 15.7812Z" fill="currentColor"/>
</svg>
