<svg viewBox="0 0 32 32" fill="none" xmlns="http://www.w3.org/2000/svg">
<path d="M16.75 8.75C16.75 8.33437 16.4156 8 16 8C15.5844 8 15.25 8.33437 15.25 8.75V17.1906L12.2812 14.2219C11.9875 13.9281 11.5125 13.9281 11.2219 14.2219C10.9312 14.5156 10.9281 14.9906 11.2219 15.2812L15.4688 19.5312C15.7625 19.825 16.2375 19.825 16.5281 19.5312L20.7812 15.2812C21.075 14.9875 21.075 14.5125 20.7812 14.2219C20.4875 13.9313 20.0125 13.9281 19.7219 14.2219L16.7531 17.1906V8.75H16.75ZM12.025 17.5H10C8.89688 17.5 8 18.3969 8 19.5V22C8 23.1031 8.89688 24 10 24H22C23.1031 24 24 23.1031 24 22V19.5C24 18.3969 23.1031 17.5 22 17.5H19.975L18.475 19H22C22.275 19 22.5 19.225 22.5 19.5V22C22.5 22.275 22.275 22.5 22 22.5H10C9.725 22.5 9.5 22.275 9.5 22V19.5C9.5 19.225 9.725 19 10 19H13.525L12.025 17.5ZM21.5 20.75C21.5 20.5511 21.421 20.3603 21.2803 20.2197C21.1397 20.079 20.9489 20 20.75 20C20.5511 20 20.3603 20.079 20.2197 20.2197C20.079 20.3603 20 20.5511 20 20.75C20 20.9489 20.079 21.1397 20.2197 21.2803C20.3603 21.421 20.5511 21.5 20.75 21.5C20.9489 21.5 21.1397 21.421 21.2803 21.2803C21.421 21.1397 21.5 20.9489 21.5 20.75Z" fill="currentcolor"/>
</svg>
