<svg viewBox="0 0 33 32" fill="none" xmlns="http://www.w3.org/2000/svg">
<path d="M10.5 8C9.39688 8 8.5 8.89688 8.5 10V17C8.5 18.1031 9.39688 19 10.5 19H12.5V15C12.5 13.3438 13.8438 12 15.5 12H19.5V10C19.5 8.89688 18.6031 8 17.5 8H10.5ZM15.5 14.5H22.5C22.775 14.5 23 14.725 23 15V22C23 22.275 22.775 22.5 22.5 22.5H15.5C15.225 22.5 15 22.275 15 22V15C15 14.725 15.225 14.5 15.5 14.5ZM13.5 15V22C13.5 23.1031 14.3969 24 15.5 24H22.5C23.6031 24 24.5 23.1031 24.5 22V15C24.5 13.8969 23.6031 13 22.5 13H15.5C14.3969 13 13.5 13.8969 13.5 15Z" fill="currentColor"/>
</svg>
