<svg viewBox="0 0 32 32" fill="none" xmlns="http://www.w3.org/2000/svg">
    <path d="M9.61563 17.2219L10.6063 17.4187C10.8531 17.4688 11.1063 17.3906 11.2844 17.2125L11.7656 16.7312C12.1281 16.3687 12.7375 16.4688 12.9656 16.925L13.2562 17.5031C13.4062 17.8031 13.7125 17.9937 14.05 17.9937C14.525 17.9937 14.8656 17.5375 14.7281 17.0813L14.5406 16.4594C14.3969 15.9781 14.7562 15.4938 15.2594 15.4938H15.3313C15.75 15.4938 16.1406 15.2844 16.3719 14.9375L16.7063 14.4344C16.8813 14.1687 16.8719 13.8219 16.6812 13.5687L16.1781 12.8969C15.8563 12.4688 16.075 11.85 16.5969 11.7188L17.1281 11.5844C17.3625 11.525 17.5531 11.3594 17.6438 11.1344L18.1562 9.85625C17.4812 9.62813 16.7563 9.5 16 9.5C12.4094 9.5 9.5 12.4094 9.5 16C9.5 16.4187 9.54062 16.8281 9.61563 17.2219ZM22.3562 17.3656C22.2625 17.3563 22.1687 17.3625 22.075 17.3906L21.5813 17.5281C21.3719 17.5875 21.15 17.5 21.0344 17.3188L20.9719 17.2219C20.7844 16.9281 20.4594 16.75 20.1094 16.75C19.7594 16.75 19.4344 16.9281 19.2469 17.2219L19.0562 17.5188C19.0125 17.5875 18.95 17.6469 18.8781 17.6844L17.75 18.3156C17.1844 18.6313 16.9531 19.3281 17.2188 19.9187L17.3906 20.3062C17.6594 20.9062 18.35 21.1969 18.9688 20.9656L19.05 20.9344C19.3625 20.8187 19.7156 20.8656 19.9844 21.0625L20.0312 21.0969C21.1938 20.175 22.0344 18.8656 22.3562 17.3625V17.3656ZM8 16C8 13.8783 8.84285 11.8434 10.3431 10.3431C11.8434 8.84285 13.8783 8 16 8C18.1217 8 20.1566 8.84285 21.6569 10.3431C23.1571 11.8434 24 13.8783 24 16C24 18.1217 23.1571 20.1566 21.6569 21.6569C20.1566 23.1571 18.1217 24 16 24C13.8783 24 11.8434 23.1571 10.3431 21.6569C8.84285 20.1566 8 18.1217 8 16ZM12.5156 18.8781C12.45 19.1469 12.6125 19.4187 12.8781 19.4844L13.8781 19.7344C14.1469 19.8 14.4187 19.6375 14.4844 19.3719C14.55 19.1062 14.3875 18.8313 14.1219 18.7656L13.1219 18.5156C12.8531 18.45 12.5813 18.6125 12.5156 18.8781ZM15.3906 18.2531C15.325 18.5219 15.4875 18.7937 15.7531 18.8594C16.0188 18.925 16.2937 18.7625 16.3594 18.4969L16.6094 17.4969C16.675 17.2281 16.5125 16.9563 16.2469 16.8906C15.9812 16.825 15.7063 16.9875 15.6406 17.2531L15.3906 18.2531ZM18.725 11.5531C18.4781 11.4281 18.1781 11.5312 18.0531 11.7781L17.5531 12.7781C17.4281 13.025 17.5312 13.325 17.7781 13.45C18.025 13.575 18.325 13.4719 18.45 13.225L18.95 12.225C19.075 11.9781 18.9719 11.6781 18.725 11.5531Z" fill="currentColor"/>
</svg>
