<svg viewBox="0 0 32 33" fill="none" xmlns="http://www.w3.org/2000/svg">
<path d="M7.67501 9.698C7.30094 9.698 7 9.99058 7 10.3542C7 10.7179 7.30094 11.0105 7.67501 11.0105H9.14035L10.8363 19.6648C10.8982 19.9738 11.1766 20.198 11.5001 20.198H16.0198C16.0058 20.0531 16.0001 19.9082 16.0001 19.7605C16.0001 19.4625 16.0283 19.1699 16.0817 18.8855H12.0598L11.8038 17.573H16.5401C16.7989 17.0808 17.142 16.6378 17.5527 16.2605H11.5451L10.6872 11.8855H21.6421L20.7562 14.9507C20.8208 14.948 20.8855 14.948 20.9502 14.948C21.3524 14.948 21.7462 14.9945 22.1202 15.082L23.1046 11.6832C23.2649 11.1281 22.8346 10.573 22.2384 10.573H10.4313L10.3638 10.2312C10.3019 9.92222 10.0235 9.698 9.70004 9.698H7.67501ZM11.9501 23.698C12.6957 23.698 13.3001 23.1104 13.3001 22.3855C13.3001 21.6606 12.6957 21.073 11.9501 21.073C11.2045 21.073 10.6001 21.6606 10.6001 22.3855C10.6001 23.1104 11.2045 23.698 11.9501 23.698ZM20.9502 22.9597C21.0672 22.9597 21.3774 22.849 21.7034 22.2154C21.8426 21.9431 21.9627 21.6125 22.0516 21.2371H19.8494C19.938 21.6122 20.0581 21.9431 20.1976 22.2154C20.5236 22.849 20.8335 22.9597 20.9508 22.9597H20.9502ZM19.7242 20.4988H22.1765C22.2018 20.2633 22.2161 20.0159 22.2161 19.7605C22.2161 19.5051 22.2018 19.2576 22.1765 19.0222H19.7242C19.6989 19.2576 19.6846 19.5051 19.6846 19.7605C19.6846 20.0159 19.6989 20.2633 19.7242 20.4988ZM19.8491 18.2839H22.0513C21.9627 17.9088 21.8424 17.5779 21.7031 17.3059C21.3772 16.672 21.0672 16.5613 20.9499 16.5613C20.8327 16.5613 20.5227 16.672 20.1967 17.3059C20.0575 17.5782 19.9374 17.9088 19.8485 18.2839H19.8491ZM22.939 19.0222C22.9626 19.2607 22.9738 19.5084 22.9738 19.7605C22.9738 20.0126 22.9612 20.2603 22.939 20.4988H24.1523C24.2094 20.262 24.2409 20.0142 24.2409 19.7605C24.2409 19.5067 24.2108 19.259 24.1523 19.0222H22.939ZM23.8691 18.2839C23.5304 17.6517 22.9814 17.1442 22.3123 16.8473C22.5354 17.241 22.7126 17.7316 22.8282 18.2839H23.8708H23.8691ZM19.0706 18.2839C19.1862 17.7319 19.3634 17.2427 19.5864 16.8473C18.9173 17.1442 18.3683 17.6517 18.0297 18.2839H19.0723H19.0706ZM17.7479 19.0222C17.691 19.259 17.6593 19.5067 17.6593 19.7605C17.6593 20.0142 17.6894 20.262 17.7479 20.4988H18.9612C18.9376 20.2603 18.9263 20.0126 18.9263 19.7605C18.9263 19.5084 18.939 19.2607 18.9612 19.0222H17.7479ZM22.3121 22.6737C22.9812 22.3767 23.5302 21.8692 23.8688 21.2371H22.8279C22.7123 21.7891 22.5351 22.2783 22.3121 22.6737ZM19.5878 22.6737C19.3648 22.28 19.1876 21.7894 19.072 21.2371H18.0294C18.368 21.8692 18.917 22.3767 19.5861 22.6737H19.5878ZM20.9499 23.698C18.7131 23.698 16.8999 21.9351 16.8999 19.7605C16.8999 17.5858 18.7131 15.823 20.9499 15.823C23.1868 15.823 25 17.5858 25 19.7605C25 21.9351 23.1868 23.698 20.9499 23.698Z" fill="black"/>
</svg>
