<svg viewBox="0 0 47 54" fill="none" xmlns="http://www.w3.org/2000/svg">
<path d="M5.03571 2.53125C5.03571 1.12852 3.91317 0 2.51786 0C1.12254 0 0 1.12852 0 2.53125V6.75V36.9668V42.1875V51.4688C0 52.8715 1.12254 54 2.51786 54C3.91317 54 5.03571 52.8715 5.03571 51.4688V40.9219L13.46 38.802C17.7719 37.7156 22.3355 38.2219 26.3116 40.2152C30.9487 42.5461 36.3306 42.8309 41.1775 40.9957L44.8179 39.6246C46.1292 39.1289 47 37.8738 47 36.4605V6.96094C47 4.53516 44.4612 2.95312 42.3 4.03945L41.2929 4.5457C36.4355 6.99258 30.7179 6.99258 25.8605 4.5457C22.1781 2.68945 17.9502 2.22539 13.9531 3.22734L5.03571 5.48438V2.53125Z" fill="currentColor" fill-opacity="0.15"/>
</svg>
