<svg viewBox="0 0 32 32" fill="currentColor" xmlns="http://www.w3.org/2000/svg">
<path d="M22.5008 10.3764C22.5008 9.96075 22.8352 9.62637 23.2508 9.62637C23.6665 9.62637 24.0008 9.96075 24.0008 10.3764V15.6264C24.0008 17.1451 22.7696 18.3764 21.2508 18.3764H10.5602L13.279 21.0951C13.5727 21.3889 13.5727 21.8639 13.279 22.1545C12.9852 22.4451 12.5102 22.4482 12.2196 22.1545L8.21958 18.1576C7.92583 17.8639 7.92583 17.3889 8.21958 17.0982L12.2196 13.0951C12.5133 12.8014 12.9883 12.8014 13.279 13.0951C13.5696 13.3889 13.5727 13.8639 13.279 14.1545L10.5602 16.8732H21.2508C21.9415 16.8732 22.5008 16.3139 22.5008 15.6232V10.3764Z" fill="currentColor"/>
</svg>
