<svg width="16" height="16" viewBox="0 0 16 16" fill="none" xmlns="http://www.w3.org/2000/svg">
  <circle cx="8" cy="8" r="8" fill="#FF9C28" />
  <path
    d="M6.57143 5.29163V6.16663H9.42857V5.29163C9.42857 4.4859 8.78929 3.83329 8 3.83329C7.21071 3.83329 6.57143 4.4859 6.57143 5.29163ZM5.42857 6.16663V5.29163C5.42857 3.84241 6.58036 2.66663 8 2.66663C9.41964 2.66663 10.5714 3.84241 10.5714 5.29163V6.16663H10.8571C11.4875 6.16663 12 6.6898 12 7.33329V10.8333C12 11.4768 11.4875 12 10.8571 12H5.14286C4.5125 12 4 11.4768 4 10.8333V7.33329C4 6.6898 4.5125 6.16663 5.14286 6.16663H5.42857Z"
    fill="white" />
</svg>