<svg viewBox="0 0 32 32" fill="none" xmlns="http://www.w3.org/2000/svg">
<path d="M12 22.5C11.725 22.5 11.5 22.275 11.5 22V10C11.5 9.725 11.725 9.5 12 9.5H17V12C17 12.5531 17.4469 13 18 13H20.5V22C20.5 22.275 20.275 22.5 20 22.5H12ZM12 8C10.8969 8 10 8.89688 10 10V22C10 23.1031 10.8969 24 12 24H20C21.1031 24 22 23.1031 22 22V12.8281C22 12.2969 21.7906 11.7875 21.4156 11.4125L18.5844 8.58438C18.2094 8.20938 17.7031 8 17.1719 8H12ZM19.0312 16.3625C19.325 16.0688 19.325 15.5938 19.0312 15.3031C18.7375 15.0125 18.2625 15.0094 17.9719 15.3031L15.1687 18.1062L14.0312 16.9688C13.7375 16.675 13.2625 16.675 12.9719 16.9688C12.6812 17.2625 12.6781 17.7375 12.9719 18.0281L14.6375 19.6938C14.7781 19.8344 14.9688 19.9125 15.1687 19.9125C15.3687 19.9125 15.5594 19.8344 15.7 19.6938L19.0312 16.3625Z" fill="currentColor"/>
</svg>
