<svg viewBox="0 0 33 32" fill="none" xmlns="http://www.w3.org/2000/svg">
<path d="M7.25 10C7.66562 10 8 10.3344 8 10.75V21.25C8 21.6656 7.66562 22 7.25 22C6.83437 22 6.5 21.6656 6.5 21.25V10.75C6.5 10.3344 6.83437 10 7.25 10ZM14.0312 12.2188C14.325 12.5125 14.325 12.9875 14.0312 13.2781L12.0625 15.2469H20.9406L18.9719 13.2781C18.6781 12.9844 18.6781 12.5094 18.9719 12.2188C19.2656 11.9281 19.7406 11.925 20.0312 12.2188L23.2812 15.4688C23.575 15.7625 23.575 16.2375 23.2812 16.5281L20.0312 19.7813C19.7375 20.075 19.2625 20.075 18.9719 19.7813C18.6813 19.4875 18.6781 19.0125 18.9719 18.7219L20.9406 16.7531H12.0625L14.0312 18.7219C14.325 19.0156 14.325 19.4906 14.0312 19.7813C13.7375 20.0719 13.2625 20.075 12.9719 19.7813L9.71875 16.5313C9.425 16.2375 9.425 15.7625 9.71875 15.4719L12.9688 12.2188C13.2625 11.925 13.7375 11.925 14.0281 12.2188H14.0312ZM26.5 10.75V21.25C26.5 21.6656 26.1656 22 25.75 22C25.3344 22 25 21.6656 25 21.25V10.75C25 10.3344 25.3344 10 25.75 10C26.1656 10 26.5 10.3344 26.5 10.75Z" fill="currentColor"/>
</svg>
