<svg viewBox="0 0 32 32" fill="none" xmlns="http://www.w3.org/2000/svg">
<path d="M19.0008 24H20.5009C20.8572 24 21.1853 23.7857 21.3634 23.4321L24.8637 16.575C25.0449 16.2214 25.0449 15.7857 24.8668 15.4286C24.6887 15.0714 24.3605 14.8571 24.0011 14.8571H11.5003C11.144 14.8571 10.8159 15.0714 10.6377 15.425L8.5001 19.6107V10.2857C8.5001 9.97143 8.72511 9.71429 9.00013 9.71429H12.6722C12.8035 9.71429 12.9316 9.775 13.0254 9.88214L13.8536 10.8286C14.5099 11.5786 15.4005 12 16.3287 12H20.0008C20.2759 12 20.5009 12.2571 20.5009 12.5714V13.7143H22.001V12.5714C22.001 11.3107 21.104 10.2857 20.0008 10.2857H16.3287C15.7974 10.2857 15.288 10.0464 14.913 9.61786L14.0848 8.66786C13.7098 8.23929 13.2004 8 12.6691 8H9.00013C7.89693 8 7 9.025 7 10.2857V21.7143C7 22.975 7.89693 24 9.00013 24H9.7408H19.0008Z" fill="currentColor"/>
</svg>
