<svg viewBox="0 0 32 32" fill="none" xmlns="http://www.w3.org/2000/svg">
<g id="SVG / Gamepad-modern">
<path id="Vector" d="M25 19.1625C25 18.9688 24.987 18.7722 24.96 18.5741L24.1855 12.9084C23.9973 11.3563 23.3862 9 15.9873 9C8.60679 9 8.02632 11.3406 7.81199 12.9094L7.04112 18.575C7.01333 18.775 7 18.9719 7 19.1687C7 21.2469 8.50258 23 10.4136 23C11.7125 22.9961 12.9025 22.1719 13.4722 20.875L13.8609 20H18.1616L18.5489 20.875C19.1192 22.1719 20.3021 22.9963 21.6019 23C23.5185 23 25 21.2438 25 19.1625ZM23.6481 19.1625C23.6481 19.7247 23.4675 20.2734 23.1338 20.7081C22.7491 21.2125 22.1838 21.5013 21.5898 21.5013C21.5858 21.5013 21.5818 21.5012 21.5779 21.5012C20.7963 21.5012 20.0922 21.009 19.7401 20.2159L19.2241 19.0581C19.0967 18.7156 18.7841 18.5 18.4405 18.5H13.5821C13.2393 18.5 12.9261 18.7158 12.774 19.0569L12.2581 20.2147C12.1265 20.511 11.5951 21.5 10.4014 21.5C9.80745 21.5 9.24556 21.2076 8.86422 20.7069C8.53046 20.2722 8.34993 19.7234 8.34993 19.1613C8.34993 19.0413 8.35815 18.9207 8.37487 18.8006L9.1494 13.135C9.28697 12.1406 9.93194 11.3594 10.7966 11.1437C12.5146 10.715 14.2637 10.5 15.9873 10.5C17.711 10.5 19.4854 10.7148 21.2006 11.1444C22.0667 11.3592 22.7108 12.1406 22.8482 13.1366L23.6228 18.8022C23.665 18.9219 23.6481 19.0406 23.6481 19.1625ZM18.2405 15.5C17.7442 15.5 17.3646 15.9494 17.3646 16.5C17.3646 17.0506 17.7693 17.5 18.2405 17.5C18.7117 17.5 19.1164 17.0506 19.1164 16.5C19.1164 15.9494 18.7615 15.5 18.2405 15.5ZM13.9595 14.25L13.0593 14.2497L13.0582 13.25C13.0582 12.8375 12.7546 12.5 12.3828 12.5C12.0358 12.5 11.7063 12.8375 11.7063 13.25L11.7073 14.2497L10.805 14.25C10.4333 14.25 10.1297 14.5875 10.1297 15C10.1297 15.4125 10.433 15.75 10.805 15.75L11.7074 15.7497L11.7063 16.75C11.7063 17.1625 12.011 17.5 12.3828 17.5C12.7546 17.5 13.0582 17.1625 13.0582 16.75L13.0592 15.7497L13.9595 15.75C14.3312 15.75 14.636 15.4125 14.636 15C14.6354 14.5875 14.3566 14.25 13.9595 14.25ZM20.043 12.5C19.5468 12.5 19.1671 12.9494 19.1671 13.5C19.1671 14.0506 19.5718 14.5 20.043 14.5C20.5393 14.5 20.919 14.0506 20.919 13.5C20.919 12.9494 20.5641 12.5 20.043 12.5Z" fill="currentcolor"/>
</g>
</svg>
