<svg viewBox="0 0 32 32" fill="none" xmlns="http://www.w3.org/2000/svg">
<path d="M9.77809 21.7788H16.8904C17.1349 21.7788 17.335 21.5788 17.335 21.3343V21.1482L18.4407 20.8731C18.5185 20.8537 18.5963 20.8287 18.6685 20.7981V21.3343C18.6685 22.315 17.8712 23.1124 16.8904 23.1124H9.77809C8.79736 23.1124 8 22.315 8 21.3343V10.6658C8 9.68506 8.79736 8.8877 9.77809 8.8877H14.3761C14.8484 8.8877 15.3013 9.07384 15.6347 9.40723L18.149 11.9216C18.4824 12.2549 18.6685 12.7078 18.6685 13.1801V14.5442L17.335 15.8778V13.3329H15.1123C14.6206 13.3329 14.2233 12.9356 14.2233 12.4439V10.2213H9.77809C9.5336 10.2213 9.33356 10.4213 9.33356 10.6658V21.3343C9.33356 21.5788 9.5336 21.7788 9.77809 21.7788ZM12.4452 18.5838L12.1729 19.4951C12.0035 20.0591 11.4839 20.4453 10.8949 20.4453H10.6671C10.4226 20.4453 10.2226 20.2452 10.2226 20.0007C10.2226 19.7562 10.4226 19.5562 10.6671 19.5562H10.8949C11.0922 19.5562 11.2645 19.4284 11.32 19.2395L11.734 17.8643C11.8284 17.5503 12.1174 17.3336 12.4452 17.3336C12.7731 17.3336 13.062 17.5475 13.1565 17.8643L13.4787 18.9367C13.6843 18.7644 13.9455 18.6672 14.2233 18.6672C14.665 18.6672 15.0679 18.9172 15.2652 19.3117L15.3874 19.5562H16.0986L16.432 18.2171C16.4709 18.0615 16.5515 17.917 16.6654 17.8031L20.2549 14.2164L22.2275 16.189L18.638 19.7757C18.524 19.8896 18.3824 19.9702 18.224 20.0091L16.5543 20.4258C16.5237 20.4341 16.4959 20.4369 16.4654 20.4397C16.4431 20.4425 16.4237 20.4453 16.4015 20.4453H15.1123C14.9429 20.4453 14.7901 20.3508 14.7151 20.2008L14.4706 19.709C14.4233 19.6146 14.3289 19.5562 14.2261 19.5562C14.1233 19.5562 14.026 19.6146 13.9816 19.709L13.7371 20.2008C13.6565 20.3647 13.4815 20.4619 13.3009 20.4453C13.1203 20.4286 12.9648 20.3036 12.9147 20.1313L12.4452 18.5838ZM23.2749 12.7689L23.6749 13.169C24.1084 13.6024 24.1084 14.3053 23.6749 14.7415L22.8581 15.5583L20.8856 13.5857L21.7024 12.7689C22.1358 12.3355 22.8387 12.3355 23.2749 12.7689Z" fill="currentcolor"/>
</svg>
