<svg viewBox="0 0 32 32" fill="none" xmlns="http://www.w3.org/2000/svg">
<path d="M20.1118 18.4997C20.1118 17.991 20.2812 17.4938 20.5988 17.0708C20.9163 16.6479 21.3676 16.3183 21.8956 16.1238C22.4235 15.9291 23.0045 15.8782 23.565 15.9775C24.1255 16.0768 24.6403 16.3218 25.0443 16.6815C25.4484 17.0412 25.7235 17.4995 25.8348 17.9984C25.9463 18.4973 25.889 19.0144 25.6701 19.4843C25.4513 19.9542 25.0808 20.3557 24.6056 20.6382C24.1304 20.9208 23.5717 21.0714 23.0003 21.0713C22.6209 21.0713 22.2452 21.0048 21.8947 20.8756C21.5442 20.7463 21.2258 20.5569 20.9575 20.318C20.6892 20.0793 20.4765 19.7958 20.3315 19.4837C20.1863 19.1717 20.1117 18.8373 20.1118 18.4997ZM23.0003 20.1073C23.4791 20.1073 23.9385 19.938 24.2772 19.6366C24.6158 19.3351 24.806 18.9263 24.806 18.5C24.806 18.0738 24.6158 17.6649 24.2772 17.3635C23.9385 17.0621 23.4791 16.8927 23.0003 16.8927H22.9353C22.9815 16.9949 23.0037 17.1045 23.0003 17.2146C22.9998 17.5555 22.8474 17.8823 22.5767 18.1234C22.3058 18.3644 21.9386 18.5 21.5556 18.5004C21.4321 18.5031 21.3093 18.4832 21.1949 18.4418V18.4837C21.1929 18.696 21.2382 18.9066 21.328 19.1032C21.4178 19.3 21.5504 19.4789 21.7182 19.6297C21.886 19.7806 22.0856 19.9004 22.3056 19.9824C22.5257 20.0644 22.7617 20.1068 23.0003 20.1073ZM18.6534 15.6192C19.8156 14.6035 21.3717 14.0238 23.0003 14C24.6288 14.0241 26.1848 14.6037 27.3471 15.6192C28.2452 16.357 28.9597 17.2543 29.4442 18.2531C29.4811 18.3313 29.5 18.4153 29.5 18.5C29.5 18.5848 29.4811 18.6688 29.4442 18.747C28.9495 19.7407 28.2366 20.6362 27.3471 21.3808C26.185 22.3967 24.6289 22.9764 23.0003 23C21.3716 22.9766 19.8153 22.3969 18.6534 21.3808C17.7643 20.6357 17.0511 19.7403 16.5555 18.747C16.5188 18.6688 16.5 18.5848 16.5 18.5C16.5 18.4153 16.5188 18.3313 16.5555 18.2531C17.0411 17.2546 17.7556 16.3576 18.6534 15.6192ZM23.0003 14.964C21.6457 14.9887 20.3536 15.4757 19.3911 16.3244C18.6456 16.9393 18.0424 17.6784 17.6158 18.4997C18.0475 19.3183 18.6499 20.0565 19.3911 20.675C20.3535 21.5239 21.6456 22.0112 23.0003 22.036C24.3548 22.0114 25.6469 21.5244 26.6094 20.6757C27.3442 20.0521 27.946 19.3151 28.3855 18.5004C27.951 17.683 27.3487 16.9452 26.6094 16.3251C25.647 15.4761 24.3549 14.9889 23.0003 14.964Z" fill="currentcolor"/>
<path d="M12.5 18C14.1569 18 15.5 16.6569 15.5 15C15.5 13.3431 14.1569 12 12.5 12C10.8431 12 9.5 13.3431 9.5 15C9.5 16.6569 10.8431 18 12.5 18ZM12.5 13.5C13.3284 13.5 14 14.1716 14 15C14 15.8284 13.3284 16.5 12.5 16.5C11.6716 16.5 11 15.8284 11 15C11 14.1716 11.6716 13.5 12.5 13.5ZM18.5 13C19.8806 13 21 11.8806 21 10.5C21 9.1194 19.8806 8.00003 18.5 8.00003C17.1194 8.00003 16 9.1194 16 10.5C16 11.8806 17.1194 13 18.5 13ZM15.235 22.5H8.08437C8.38125 21.35 9.425 20.5 10.6656 20.5H14.2644C14.2125 20.2322 14.185 19.9553 14.185 19.6725C14.185 19.4437 14.2028 19.2194 14.2369 19H10.6653C8.36531 19 6.49969 20.8656 6.49969 23.1656C6.49969 23.625 6.87156 24 7.33406 24H17.6653C17.7509 24 17.8338 23.9872 17.9116 23.9631C16.8459 23.8138 15.905 23.2775 15.235 22.5ZM9.85625 18C9.025 17.2656 8.50313 16.1938 8.50313 15C8.50313 14.7625 8.525 14.5312 8.5625 14.3031C8.1375 14.1062 7.66562 14 7.16875 14H5.83437C3.99375 14 2.5 15.4938 2.5 17.3344C2.5 17.7 2.8 18 3.16562 18H9.85625ZM7 13C8.38063 13 9.5 11.8806 9.5 10.5C9.5 9.1194 8.38063 8.00003 7 8.00003C5.61937 8.00003 4.5 9.1194 4.5 10.5C4.5 11.8806 5.61937 13 7 13Z" fill="black"/>
</svg>
