<svg viewBox="0 0 32 32" fill="none" xmlns="http://www.w3.org/2000/svg">
<path d="M14.2501 18C15.4938 18 16.5001 16.9937 16.5001 15.75V15.5H19.7501C20.1657 15.5 20.5001 15.8343 20.5001 16.25C20.5001 16.6156 20.2376 16.9218 19.8938 16.9875C19.6532 17.0343 19.4501 17.1937 19.3501 17.4187C19.2501 17.6437 19.2657 17.9031 19.3938 18.1125C19.4626 18.225 19.5001 18.3562 19.5001 18.5C19.5001 18.9156 19.1657 19.25 18.7501 19.25C18.3345 19.25 18.0001 19.5843 18.0001 20C18.0001 20.275 17.7751 20.5 17.5001 20.5H17.0001H16.0001H13.9157C13.4501 20.5 13.0063 20.6843 12.6782 21.0125L10.9688 22.7187C10.6751 23.0125 10.6751 23.4875 10.9688 23.7781C11.2626 24.0687 11.7376 24.0718 12.0282 23.7781L13.7345 22.0718C13.7813 22.025 13.8438 22 13.9126 22H15.997H16.997H17.497C18.372 22 19.1157 21.4406 19.3876 20.6593C20.3188 20.3843 20.997 19.5218 20.997 18.5C20.997 18.3781 20.9876 18.2562 20.9688 18.1406C21.5907 17.7406 22.0001 17.0437 22.0001 16.25C22.0001 15.0062 20.9938 14 19.7501 14H16.5001V13.25C16.5001 12.8343 16.1657 12.5 15.7501 12.5C15.3345 12.5 15.0001 12.8343 15.0001 13.25V15.75C15.0001 16.1656 14.6657 16.5 14.2501 16.5C13.8345 16.5 13.5001 16.1656 13.5001 15.75V12.75C13.5001 12.0593 14.0595 11.5 14.7501 11.5H19.0845C19.5501 11.5 19.9938 11.3156 20.322 10.9875L22.0313 9.2812C22.3251 8.98745 22.3251 8.51245 22.0313 8.22183C21.7376 7.9312 21.2626 7.92808 20.972 8.22183L19.2626 9.92808C19.2157 9.97495 19.1532 9.99995 19.0845 9.99995H14.7501C13.2313 9.99995 12.0001 11.2312 12.0001 12.75V15.75C12.0001 16.9937 13.0063 18 14.2501 18ZM11.0001 12.1406C10.4063 12.375 9.94072 12.8781 9.76885 13.5218L9.09385 16.0468C9.08135 16.0906 9.05947 16.1281 9.02822 16.1593L6.21885 18.9687C5.9251 19.2625 5.9251 19.7375 6.21885 20.0281C6.5126 20.3187 6.9876 20.3218 7.27822 20.0281L10.0907 17.2187C10.3095 17 10.4657 16.7312 10.5438 16.4312L11.0001 14.7218V12.1406ZM22.9751 15.8375L25.7813 13.0312C26.0751 12.7375 26.0751 12.2625 25.7813 11.9718C25.4876 11.6812 25.0126 11.6781 24.722 11.9718L22.3688 14.325C22.6907 14.7593 22.9032 15.2781 22.9751 15.8406V15.8375Z" fill="currentColor"/>
</svg>
