<svg viewBox="0 0 32 32" fill="none" xmlns="http://www.w3.org/2000/svg">
<path d="M8 9.65625C8 9.29258 8.29722 9 8.66667 9H18C18.3694 9 18.6667 9.29258 18.6667 9.65625C18.6667 10.0199 18.3694 10.3125 18 10.3125H17.7778V10.832C17.7778 11.934 17.3333 12.9922 16.5417 13.7715L14.275 16L15.4917 17.1977C15.2472 17.7719 15.1111 18.4008 15.1111 19.0625C15.1111 20.6895 15.9333 22.1277 17.1889 23H8.66667C8.29722 23 8 22.7074 8 22.3438C8 21.9801 8.29722 21.6875 8.66667 21.6875H8.88889V21.168C8.88889 20.066 9.33333 19.0078 10.125 18.2285L12.3917 16L10.125 13.7715C9.33333 12.9922 8.88889 11.934 8.88889 10.832V10.3125H8.66667C8.29722 10.3125 8 10.0199 8 9.65625ZM10.7722 12.5H15.8944C16.25 12.0187 16.4444 11.4336 16.4444 10.832V10.3125H10.2222V10.832C10.2222 11.4363 10.4167 12.0187 10.7722 12.5ZM16 19.0625C16 18.0182 16.4214 17.0167 17.1716 16.2783C17.9217 15.5398 18.9391 15.125 20 15.125C21.0609 15.125 22.0783 15.5398 22.8284 16.2783C23.5786 17.0167 24 18.0182 24 19.0625C24 20.1068 23.5786 21.1083 22.8284 21.8467C22.0783 22.5852 21.0609 23 20 23C18.9391 23 17.9217 22.5852 17.1716 21.8467C16.4214 21.1083 16 20.1068 16 19.0625ZM20 16.875C19.7556 16.875 19.5556 17.0719 19.5556 17.3125V19.0625C19.5556 19.3031 19.7556 19.5 20 19.5H21.3333C21.5778 19.5 21.7778 19.3031 21.7778 19.0625C21.7778 18.8219 21.5778 18.625 21.3333 18.625H20.4444V17.3125C20.4444 17.0719 20.2444 16.875 20 16.875Z" fill="currentColor"/>
</svg>
