<svg viewBox="0 0 32 32" fill="none" xmlns="http://www.w3.org/2000/svg">
<path d="M23 7.84375C23 7.37617 22.6099 7 22.125 7L9.875 7C9.39011 7 9 7.37617 9 7.84375C9 8.31133 9.39011 8.6875 9.875 8.6875L10.1667 8.6875L10.1667 9.35547C10.1667 10.7723 10.75 12.1328 11.7891 13.1348L14.7641 16L11.7927 18.8652C10.75 19.8672 10.1667 21.2277 10.1667 22.6445L10.1667 23.3125L9.875 23.3125C9.3901 23.3125 9 23.6887 9 24.1562C9 24.6238 9.3901 25 9.875 25L22.125 25C22.6099 25 23 24.6238 23 24.1562C23 23.6887 22.6099 23.3125 22.125 23.3125L21.8333 23.3125L21.8333 22.6445C21.8333 21.2277 21.25 19.8672 20.2109 18.8652L17.2359 16L20.2109 13.1348C21.25 12.1328 21.8333 10.7723 21.8333 9.35547L21.8333 8.6875L22.125 8.6875C22.6099 8.6875 23 8.31133 23 7.84375ZM13.0286 11.9395C12.3177 11.2539 11.9167 10.3258 11.9167 9.35547L11.9167 8.6875L20.0833 8.6875L20.0833 9.35547C20.0833 10.3258 19.6823 11.2539 18.9714 11.9395L16 14.8082L13.0286 11.943L13.0286 11.9395Z" fill="currentColor"/>
</svg>
