<svg viewBox="0 0 32 32" fill="none" xmlns="http://www.w3.org/2000/svg">
<path d="M16.486 8.17812C16.2047 7.94062 15.7954 7.94062 15.5141 8.17812L7.26411 15.1781C6.94849 15.4469 6.91099 15.9187 7.17661 16.2344C7.44224 16.55 7.91724 16.5875 8.23286 16.3219L9.00161 15.6719V21.5C9.00161 22.8813 10.1204 24 11.5016 24H20.5016C21.8829 24 23.0016 22.8813 23.0016 21.5V15.6719L23.7672 16.3219C24.0829 16.5906 24.5579 16.55 24.8235 16.2344C25.0891 15.9187 25.0516 15.4437 24.736 15.1781L16.486 8.17812ZM21.5016 14.4V21.5C21.5016 22.0531 21.0547 22.5 20.5016 22.5H11.5016C10.9485 22.5 10.5016 22.0531 10.5016 21.5V14.4L16.0016 9.73438L21.5016 14.4ZM18.0016 15C18.0016 14.4696 17.7909 13.9609 17.4158 13.5858C17.0408 13.2107 16.532 13 16.0016 13C15.4712 13 14.9625 13.2107 14.5874 13.5858C14.2123 13.9609 14.0016 14.4696 14.0016 15C14.0016 15.5304 14.2123 16.0391 14.5874 16.4142C14.9625 16.7893 15.4712 17 16.0016 17C16.532 17 17.0408 16.7893 17.4158 16.4142C17.7909 16.0391 18.0016 15.5304 18.0016 15ZM15.0016 18C13.6204 18 12.5016 19.1187 12.5016 20.5C12.5016 20.775 12.7266 21 13.0016 21H19.0016C19.2766 21 19.5016 20.775 19.5016 20.5C19.5016 19.1187 18.3829 18 17.0016 18H15.0016Z" fill="currentColor"/>
</svg>
