<svg viewBox="0 0 32 33" fill="currentColor" xmlns="http://www.w3.org/2000/svg">
<path d="M21.35 14.498C20.5633 13.6413 19.93 12.948 19.24 12.4047C18.3467 11.7013 17.4067 11.298 16 11.298C13.4067 11.298 11.1367 12.978 10.3567 15.288C10.2167 15.708 9.76 15.9313 9.34333 15.7913C8.92667 15.6513 8.7 15.1947 8.84 14.778C9.84333 11.8147 12.7233 9.698 16 9.698C17.7967 9.698 19.0767 10.2413 20.23 11.148C20.96 11.7213 21.66 12.4647 22.4 13.2747V12.098C22.4 11.6547 22.7567 11.298 23.2 11.298C23.6433 11.298 24 11.6547 24 12.098V15.298C24 15.7413 23.6433 16.098 23.2 16.098H20C19.5567 16.098 19.2 15.7413 19.2 15.298C19.2 14.8547 19.5567 14.498 20 14.498H21.35ZM8.8 23.0313C8.35667 23.0313 8 22.6747 8 22.2313V19.0313C8 18.588 8.35667 18.2313 8.8 18.2313H12C12.4433 18.2313 12.8 18.588 12.8 19.0313C12.8 19.4747 12.4433 19.8313 12 19.8313H10.73L10.83 19.9413C11.5633 20.7513 12.1567 21.4047 12.81 21.928C13.68 22.628 14.5967 23.0313 16.0033 23.0313C18.5967 23.0313 20.8667 21.3513 21.6467 19.0413C21.7867 18.6213 22.2433 18.398 22.66 18.538C23.0767 18.678 23.3033 19.1347 23.1633 19.5513C22.1567 22.5147 19.2767 24.6313 16 24.6313C14.2033 24.6313 12.9367 24.0847 11.8067 23.178C11.07 22.588 10.36 21.8113 9.6 20.9713V22.2313C9.6 22.6747 9.24333 23.0313 8.8 23.0313ZM16.89 13.6247V12.958H15.5567V13.908C15.3333 13.9513 15.12 14.0147 14.92 14.1047C14.3833 14.348 13.9233 14.798 13.81 15.4447C13.7467 15.808 13.78 16.158 13.93 16.4747C14.0767 16.7847 14.3067 17.0047 14.5467 17.168C14.9667 17.4513 15.5233 17.6213 15.96 17.7513L16.0367 17.7747C16.55 17.928 16.9133 18.0513 17.1433 18.218C17.2433 18.2913 17.2867 18.3513 17.3067 18.398C17.3267 18.4413 17.35 18.528 17.32 18.688C17.2933 18.8447 17.2033 18.9747 16.98 19.068C16.7367 19.1713 16.3567 19.218 15.8733 19.1447C15.6433 19.108 15.24 18.968 14.8867 18.848C14.8067 18.8213 14.73 18.7947 14.6567 18.7713L14.0233 18.5613L13.6033 19.828L14.2367 20.038C14.2833 20.0547 14.34 20.0713 14.4033 20.0947C14.7133 20.2013 15.2033 20.368 15.5567 20.4413V21.4047H16.89V20.4713C17.1067 20.4347 17.3133 20.378 17.5067 20.2947C18.07 20.0547 18.5167 19.5913 18.6333 18.9147C18.6967 18.5413 18.67 18.188 18.53 17.868C18.39 17.548 18.1667 17.3147 17.9267 17.1413C17.4867 16.8213 16.9 16.6447 16.4467 16.508L16.42 16.5013C15.9 16.3447 15.53 16.228 15.2933 16.068C15.19 15.998 15.15 15.9447 15.1333 15.908C15.12 15.878 15.0967 15.8147 15.1233 15.678C15.14 15.5747 15.22 15.438 15.47 15.3247C15.7233 15.2113 16.1067 15.1513 16.5733 15.2247C16.7367 15.2513 17.24 15.348 17.3833 15.388L18.0267 15.558L18.37 14.268L17.7267 14.0913C17.55 14.0447 17.1267 13.9613 16.89 13.918V13.6247Z" fill="currentColor"/>
</svg>
