<svg viewBox="0 0 32 33" fill="currentColor" xmlns="http://www.w3.org/2000/svg">
<path d="M18.5 12.698V14.698H13.5V12.698C13.5 11.3167 14.6187 10.198 16 10.198C17.3812 10.198 18.5 11.3167 18.5 12.698ZM20 14.698V12.698C20 10.4886 18.2094 8.698 16 8.698C13.7906 8.698 12 10.4886 12 12.698V14.698H11C9.89688 14.698 9 15.5949 9 16.698V22.698C9 23.8011 9.89688 24.698 11 24.698H21C22.1031 24.698 23 23.8011 23 22.698V16.698C23 15.5949 22.1031 14.698 21 14.698H20ZM21.5 16.698V22.698C21.5 22.973 21.275 23.198 21 23.198H11C10.725 23.198 10.5 22.973 10.5 22.698V16.698C10.5 16.423 10.725 16.198 11 16.198H21C21.275 16.198 21.5 16.423 21.5 16.698Z" fill="currentColor"/>
</svg>
