<svg viewBox="0 0 32 33" fill="currentColor" xmlns="http://www.w3.org/2000/svg">
<path d="M22 8.698C23.1031 8.698 24 9.59487 24 10.698V14.698C24 14.973 23.775 15.198 23.5 15.198H21.875C21.6687 15.198 21.5 15.3667 21.5 15.573V15.698C21.5 16.2511 21.0531 16.698 20.5 16.698C19.9469 16.698 19.5 16.2511 19.5 15.698V15.573C19.5 15.3667 19.3313 15.198 19.125 15.198H18C17.725 15.198 17.5 14.973 17.5 14.698V13.698C17.5 13.423 17.725 13.198 18 13.198H18.5C19.0531 13.198 19.5 12.7511 19.5 12.198C19.5 11.6449 19.0531 11.198 18.5 11.198H18C17.725 11.198 17.5 10.973 17.5 10.698V9.198C17.5 8.923 17.725 8.698 18 8.698H22ZM8 16.198V12.698C8 11.5949 8.89688 10.698 10 10.698H14.5C14.775 10.698 15 10.923 15 11.198V12.823C15 13.0292 15.1687 13.198 15.375 13.198H15.5C16.0531 13.198 16.5 13.6449 16.5 14.198C16.5 14.7511 16.0531 15.198 15.5 15.198H15.375C15.1687 15.198 15 15.3667 15 15.573V17.198C15 17.473 14.775 17.698 14.5 17.698H13.5C13.225 17.698 13 17.473 13 17.198V16.698C13 16.1449 12.5531 15.698 12 15.698C11.4469 15.698 11 16.1449 11 16.698V17.198C11 17.473 10.775 17.698 10.5 17.698H9.5V22.448C9.5 22.8636 9.83438 23.198 10.25 23.198H15V22.073C15 21.8667 14.8313 21.698 14.625 21.698H14.5C13.9469 21.698 13.5 21.2511 13.5 20.698C13.5 20.1449 13.9469 19.698 14.5 19.698H14.625C14.8313 19.698 15 19.5292 15 19.323V18.198C15 17.923 15.225 17.698 15.5 17.698H17C17.275 17.698 17.5 17.923 17.5 18.198V18.698C17.5 19.2511 17.9469 19.698 18.5 19.698C19.0531 19.698 19.5 19.2511 19.5 18.698V18.198C19.5 17.923 19.725 17.698 20 17.698H21.5C21.775 17.698 22 17.923 22 18.198V22.698C22 23.8011 21.1031 24.698 20 24.698H16H15.5H10.25C9.00625 24.698 8 23.6917 8 22.448V17.198V16.198Z" fill="currentColor"/>
</svg>
