<svg viewBox="0 0 32 32" fill="currentColor" xmlns="http://www.w3.org/2000/svg">
<path d="M18.0031 13.4688L20.0031 15.4688C20.3219 15.7625 20.3219 16.2375 20.0031 16.5031L18.0031 18.5031C17.7375 18.8219 17.2625 18.8219 16.9688 18.5031C16.6781 18.2375 16.6781 17.7625 16.9688 17.4688L18.4406 16L16.9688 14.5031C16.6781 14.2375 16.6781 13.7625 16.9688 13.4688C17.2625 13.1781 17.7375 13.1781 18.0031 13.4688ZM13.5594 16L15.0031 17.4688C15.3219 17.7625 15.3219 18.2375 15.0031 18.5031C14.7375 18.8219 14.2625 18.8219 13.9688 18.5031L11.9688 16.5031C11.6781 16.2375 11.6781 15.7625 11.9688 15.4688L13.9688 13.4688C14.2625 13.1781 14.7375 13.1781 15.0031 13.4688C15.3219 13.7625 15.3219 14.2375 15.0031 14.5031L13.5594 16ZM22 9C23.1031 9 24 9.89531 24 11V21C24 22.1031 23.1031 23 22 23H10C8.89531 23 8 22.1031 8 21V11C8 9.89531 8.89531 9 10 9H22ZM22 10.5H10C9.72375 10.5 9.5 10.7237 9.5 11V21C9.5 21.275 9.72375 21.5 10 21.5H22C22.275 21.5 22.5 21.275 22.5 21V11C22.5 10.7237 22.275 10.5 22 10.5Z" fill="currentColor"/>
</svg>
