<svg viewBox="0 0 32 33" fill="currentColor" xmlns="http://www.w3.org/2000/svg">
<path d="M17.3325 21.948C17.3325 22.1886 17.1325 22.3855 16.8881 22.3855H9.77762C9.5332 22.3855 9.33322 22.1886 9.33322 21.948V11.448C9.33322 11.2074 9.5332 11.0105 9.77762 11.0105H14.2217V13.198C14.2217 13.682 14.6189 14.073 15.1105 14.073H17.3325V16.698H18.6657V13.9226C18.6657 13.4578 18.4796 13.0121 18.1463 12.6839L15.6299 10.2093C15.2966 9.8812 14.8466 9.698 14.3744 9.698H9.77762C8.79715 9.698 8 10.4828 8 11.448V21.948C8 22.9132 8.79715 23.698 9.77762 23.698H16.8881C17.8686 23.698 18.6657 22.9132 18.6657 21.948V19.7605H17.3325V21.948ZM21.5822 15.5769C21.3211 15.3199 20.8989 15.3199 20.6406 15.5769C20.3823 15.8339 20.3795 16.2496 20.6406 16.5039L21.7238 17.5703H13.9995C13.6301 17.5703 13.3329 17.8628 13.3329 18.2265C13.3329 18.5902 13.6301 18.8828 13.9995 18.8828H21.7238L20.6406 19.9492C20.3795 20.2062 20.3795 20.6218 20.6406 20.8761C20.9017 21.1304 21.3238 21.1332 21.5822 20.8761L23.8042 18.6886C24.0653 18.4316 24.0653 18.016 23.8042 17.7617L21.5822 15.5742V15.5769Z" fill="currentColor"/>
</svg>
