<svg viewBox="0 0 32 32" fill="currentColor" xmlns="http://www.w3.org/2000/svg">
<path d="M13.4621 16.0949C14.0742 16.0949 14.6612 15.848 15.094 15.4083C15.5269 14.9687 15.77 14.3725 15.77 13.7507C15.77 13.129 15.5269 12.5327 15.094 12.0931C14.6612 11.6535 14.0742 11.4065 13.4621 11.4065C12.85 11.4065 12.263 11.6535 11.8302 12.0931C11.3974 12.5327 11.1542 13.129 11.1542 13.7507C11.1542 14.3725 11.3974 14.9687 11.8302 15.4083C12.263 15.848 12.85 16.0949 13.4621 16.0949ZM13.4621 10C14.4415 10 15.3807 10.3952 16.0732 11.0986C16.7657 11.802 17.1548 12.756 17.1548 13.7507C17.1548 14.7455 16.7657 15.6995 16.0732 16.4029C15.3807 17.1063 14.4415 17.5015 13.4621 17.5015C12.4828 17.5015 11.5435 17.1063 10.851 16.4029C10.1585 15.6995 9.76948 14.7455 9.76948 13.7507C9.76948 12.756 10.1585 11.802 10.851 11.0986C11.5435 10.3952 12.4828 10 13.4621 10ZM8.42224 23.5964H16.7105C16.8057 23.7195 16.9038 23.8367 17.0076 23.948C17.4606 24.4432 18.15 24.4872 18.6578 24.203V24.2293C18.6578 24.4989 18.7357 24.7714 18.8857 25H7.85681C7.38369 25.0029 7 24.6132 7 24.1326C7 21.2463 9.30213 18.908 12.1437 18.908H13.4621H14.7805C15.1209 18.908 15.4556 18.9431 15.7758 19.0047C15.7152 19.5468 15.9893 20.0479 16.4047 20.3174C16.3008 20.3848 16.2027 20.4669 16.1191 20.5636C15.7037 20.4024 15.2507 20.3145 14.7776 20.3145H12.1437C10.2484 20.3145 8.679 21.7415 8.42224 23.5964ZM19.5781 16.3938C19.5781 16.1887 19.7079 16.0041 19.904 15.9601C20.207 15.8898 20.5243 15.8517 20.8474 15.8517C21.1705 15.8517 21.4878 15.8898 21.7907 15.9601C21.9869 16.0041 22.1167 16.1887 22.1167 16.3938V17.2905C22.3446 17.3901 22.561 17.5161 22.7601 17.6656L23.4784 17.2465C23.6544 17.144 23.8736 17.1674 24.0121 17.3169C24.2314 17.5542 24.4246 17.8209 24.592 18.1139C24.7593 18.4069 24.8891 18.7117 24.9814 19.0223C25.042 19.2186 24.9497 19.4237 24.7737 19.5263L24.0525 19.9482C24.064 20.0654 24.0727 20.1856 24.0727 20.3086C24.0727 20.4317 24.0669 20.5489 24.0525 20.6691L24.7737 21.091C24.9497 21.1936 25.0391 21.3987 24.9814 21.595C24.8862 21.9056 24.7564 22.2104 24.592 22.5034C24.4275 22.7964 24.2314 23.0631 24.0121 23.3004C23.8736 23.4499 23.6515 23.4733 23.4784 23.3708L22.7601 22.9517C22.561 23.1012 22.3475 23.2272 22.1167 23.3268V24.2235C22.1167 24.4286 21.9869 24.6132 21.7907 24.6571C21.4878 24.7275 21.1705 24.7656 20.8474 24.7656C20.5243 24.7656 20.207 24.7275 19.904 24.6571C19.7079 24.6132 19.5781 24.4286 19.5781 24.2235V23.3268C19.3473 23.2272 19.128 23.1012 18.929 22.9488L18.2164 23.3678C18.0404 23.4704 17.8212 23.4469 17.6827 23.2975C17.4634 23.0602 17.2702 22.7935 17.1028 22.5005C16.9355 22.2074 16.8057 21.9027 16.7134 21.5921C16.6528 21.3958 16.7451 21.1906 16.9211 21.0881L17.6365 20.6691C17.625 20.5489 17.6163 20.4288 17.6163 20.3057C17.6163 20.1826 17.6221 20.0625 17.6365 19.9424L16.9182 19.5233C16.7422 19.4208 16.6528 19.2157 16.7105 19.0193C16.8057 18.7087 16.9326 18.404 17.0999 18.111C17.2673 17.8179 17.4606 17.5513 17.6798 17.3139C17.8183 17.1645 18.0375 17.141 18.2135 17.2436L18.929 17.6626C19.128 17.5132 19.3473 17.3872 19.5781 17.2846V16.3938ZM22.235 20.3057C22.2436 20.1154 22.214 19.9253 22.1482 19.7469C22.0824 19.5685 21.9817 19.4056 21.8521 19.2678C21.7226 19.1301 21.5669 19.0204 21.3944 18.9455C21.222 18.8706 21.0364 18.832 20.8488 18.832C20.6613 18.832 20.4757 18.8706 20.3032 18.9455C20.1308 19.0204 19.9751 19.1301 19.8455 19.2678C19.716 19.4056 19.6152 19.5685 19.5494 19.7469C19.4836 19.9253 19.4541 20.1154 19.4627 20.3057C19.4541 20.496 19.4836 20.6861 19.5494 20.8645C19.6152 21.0429 19.716 21.2059 19.8455 21.3436C19.9751 21.4814 20.1308 21.591 20.3032 21.6659C20.4757 21.7408 20.6613 21.7794 20.8488 21.7794C21.0364 21.7794 21.222 21.7408 21.3944 21.6659C21.5669 21.591 21.7226 21.4814 21.8521 21.3436C21.9817 21.2059 22.0824 21.0429 22.1482 20.8645C22.214 20.6861 22.2436 20.496 22.235 20.3057Z" fill="currentColor"/>
</svg>
