<svg viewBox="0 0 32 33" fill="currentColor" xmlns="http://www.w3.org/2000/svg">
<path d="M25 19.8605C25 19.6668 24.987 19.4702 24.96 19.2721L24.1855 13.6064C23.9973 12.0542 23.3862 9.698 15.9873 9.698C8.60679 9.698 8.02632 12.0386 7.81199 13.6074L7.04112 19.273C7.01333 19.473 7 19.6699 7 19.8667C7 21.9449 8.50258 23.698 10.4136 23.698C11.7125 23.6941 12.9025 22.8699 13.4722 21.573L13.8609 20.698H18.1616L18.5489 21.573C19.1192 22.8699 20.3021 23.6942 21.6019 23.698C23.5185 23.698 25 21.9417 25 19.8605ZM23.6481 19.8605C23.6481 20.4227 23.4675 20.9714 23.1338 21.4061C22.7491 21.9105 22.1838 22.1992 21.5898 22.1992C21.5858 22.1992 21.5818 22.1992 21.5779 22.1992C20.7963 22.1992 20.0922 21.707 19.7401 20.9139L19.2241 19.7561C19.0967 19.4136 18.7841 19.198 18.4405 19.198H13.5821C13.2393 19.198 12.9261 19.4138 12.774 19.7549L12.2581 20.9127C12.1265 21.209 11.5951 22.198 10.4014 22.198C9.80745 22.198 9.24556 21.9056 8.86422 21.4049C8.53046 20.9702 8.34993 20.4214 8.34993 19.8592C8.34993 19.7393 8.35815 19.6187 8.37487 19.4986L9.1494 13.833C9.28697 12.8386 9.93194 12.0574 10.7966 11.8417C12.5146 11.413 14.2637 11.198 15.9873 11.198C17.711 11.198 19.4854 11.4128 21.2006 11.8424C22.0667 12.0572 22.7108 12.8386 22.8482 13.8346L23.6228 19.5002C23.665 19.6199 23.6481 19.7386 23.6481 19.8605ZM18.2405 16.198C17.7442 16.198 17.3646 16.6474 17.3646 17.198C17.3646 17.7486 17.7693 18.198 18.2405 18.198C18.7117 18.198 19.1164 17.7486 19.1164 17.198C19.1164 16.6474 18.7615 16.198 18.2405 16.198ZM13.9595 14.948L13.0593 14.9477L13.0582 13.948C13.0582 13.5355 12.7546 13.198 12.3828 13.198C12.0358 13.198 11.7063 13.5355 11.7063 13.948L11.7073 14.9477L10.805 14.948C10.4333 14.948 10.1297 15.2855 10.1297 15.698C10.1297 16.1105 10.433 16.448 10.805 16.448L11.7074 16.4477L11.7063 17.448C11.7063 17.8605 12.011 18.198 12.3828 18.198C12.7546 18.198 13.0582 17.8605 13.0582 17.448L13.0592 16.4477L13.9595 16.448C14.3312 16.448 14.636 16.1105 14.636 15.698C14.6354 15.2855 14.3566 14.948 13.9595 14.948ZM20.043 13.198C19.5468 13.198 19.1671 13.6474 19.1671 14.198C19.1671 14.7486 19.5718 15.198 20.043 15.198C20.5393 15.198 20.919 14.7486 20.919 14.198C20.919 13.6474 20.5641 13.198 20.043 13.198Z" fill="currentColor"/>
</svg>
