<svg viewBox="0 0 32 32" fill="currentColor" xmlns="http://www.w3.org/2000/svg">
<path d="M10.2857 9.71429C9.97143 9.71429 9.71429 9.97143 9.71429 10.2857V21.7143C9.71429 22.0286 9.97143 22.2857 10.2857 22.2857H21.7143C22.0286 22.2857 22.2857 22.0286 22.2857 21.7143V10.2857C22.2857 9.97143 22.0286 9.71429 21.7143 9.71429H10.2857ZM8 10.2857C8 9.025 9.025 8 10.2857 8H21.7143C22.975 8 24 9.025 24 10.2857V21.7143C24 22.975 22.975 24 21.7143 24H10.2857C9.025 24 8 22.975 8 21.7143V10.2857ZM11.4286 12.5714C11.4286 12.2683 11.549 11.9776 11.7633 11.7633C11.9776 11.549 12.2683 11.4286 12.5714 11.4286C12.8745 11.4286 13.1652 11.549 13.3796 11.7633C13.5939 11.9776 13.7143 12.2683 13.7143 12.5714C13.7143 12.8745 13.5939 13.1652 13.3796 13.3796C13.1652 13.5939 12.8745 13.7143 12.5714 13.7143C12.2683 13.7143 11.9776 13.5939 11.7633 13.3796C11.549 13.1652 11.4286 12.8745 11.4286 12.5714ZM15.1429 12.5714C15.1429 12.0964 15.525 11.7143 16 11.7143H19.4286C19.9036 11.7143 20.2857 12.0964 20.2857 12.5714C20.2857 13.0464 19.9036 13.4286 19.4286 13.4286H16C15.525 13.4286 15.1429 13.0464 15.1429 12.5714ZM15.1429 16C15.1429 15.525 15.525 15.1429 16 15.1429H19.4286C19.9036 15.1429 20.2857 15.525 20.2857 16C20.2857 16.475 19.9036 16.8571 19.4286 16.8571H16C15.525 16.8571 15.1429 16.475 15.1429 16ZM15.1429 19.4286C15.1429 18.9536 15.525 18.5714 16 18.5714H19.4286C19.9036 18.5714 20.2857 18.9536 20.2857 19.4286C20.2857 19.9036 19.9036 20.2857 19.4286 20.2857H16C15.525 20.2857 15.1429 19.9036 15.1429 19.4286ZM12.5714 17.1429C12.2683 17.1429 11.9776 17.0224 11.7633 16.8081C11.549 16.5938 11.4286 16.3031 11.4286 16C11.4286 15.6969 11.549 15.4062 11.7633 15.1919C11.9776 14.9776 12.2683 14.8571 12.5714 14.8571C12.8745 14.8571 13.1652 14.9776 13.3796 15.1919C13.5939 15.4062 13.7143 15.6969 13.7143 16C13.7143 16.3031 13.5939 16.5938 13.3796 16.8081C13.1652 17.0224 12.8745 17.1429 12.5714 17.1429ZM11.4286 19.4286C11.4286 19.1255 11.549 18.8348 11.7633 18.6205C11.9776 18.4061 12.2683 18.2857 12.5714 18.2857C12.8745 18.2857 13.1652 18.4061 13.3796 18.6205C13.5939 18.8348 13.7143 19.1255 13.7143 19.4286C13.7143 19.7317 13.5939 20.0224 13.3796 20.2367C13.1652 20.451 12.8745 20.5714 12.5714 20.5714C12.2683 20.5714 11.9776 20.451 11.7633 20.2367C11.549 20.0224 11.4286 19.7317 11.4286 19.4286Z" fill="currentColor"/>
</svg>
