<svg id="Icon-Collapsed_Left_Nav_Bar" data-name="Icon-Collapsed Left Nav Bar" xmlns="http://www.w3.org/2000/svg" width="32" height="32" viewBox="0 0 32 32">
  <rect id="Rectangle_8256" data-name="Rectangle 8256" width="32" height="32" fill="none"/>
  <path id="list-ul-regular" d="M33.067,64A1.067,1.067,0,1,1,32,65.067,1.067,1.067,0,0,1,33.067,64Zm14.133.267a.8.8,0,0,1,0,1.6H37.067a.8.8,0,0,1,0-1.6Zm0,5.333a.8.8,0,1,1,0,1.6H37.067a.8.8,0,1,1,0-1.6Zm0,5.333a.8.8,0,1,1,0,1.6H37.067a.8.8,0,1,1,0-1.6ZM33.067,71.467A1.067,1.067,0,1,1,34.133,70.4,1.066,1.066,0,0,1,33.067,71.467Zm0,3.2A1.067,1.067,0,1,1,32,75.733,1.066,1.066,0,0,1,33.067,74.667Z" transform="translate(-24 -54)" fill="currentColor"/>
</svg>
