<?xml version="1.0" encoding="UTF-8"?>
<svg id="Layer_2" data-name="Layer 2" xmlns="http://www.w3.org/2000/svg" viewBox="0 0 24 24">
  <defs>
    <style>
      .warning-icon-cls-1 {
        fill: none;
      }

      .warning-icon-cls-2 {
        fill: currentColor;
      }
    </style>
  </defs>
  <g id="Layer_1-2" data-name="Layer 1">
    <g>
      <rect class="warning-icon-cls-1" width="24" height="24"/>
      <path class="warning-icon-cls-2" d="m23.73,19.54L13.74,2.49c-.38-.66-1.06-.98-1.73-.98s-1.35.33-1.78.98L.25,19.54c-.73,1.31.23,2.95,1.77,2.95h19.98c1.53,0,2.49-1.64,1.73-2.95Zm-21.25.7L11.97,3.98l9.57,16.26H2.48Zm9.53-4.45c-.81,0-1.47.66-1.47,1.47s.66,1.47,1.47,1.47,1.47-.66,1.47-1.47c0-.81-.66-1.47-1.47-1.47Zm-1.12-7.17v4.5c0,.62.51,1.12,1.12,1.12s1.12-.5,1.12-1.12v-4.5c0-.62-.5-1.12-1.12-1.12s-1.12.51-1.12,1.12Z"/>
    </g>
  </g>
</svg>