<?xml version="1.0" encoding="UTF-8"?>
<svg id="Layer_2" data-name="Layer 2" xmlns="http://www.w3.org/2000/svg" viewBox="0 0 24 24">
  <defs>
    <style>
      .success-icon-cls-1 {
        fill: currentColor;
      }
    </style>
  </defs>
  <g id="Layer_1-2" data-name="Layer 1">
    <path class="success-icon-cls-1" d="m11.43,15.93c-.51.51-1.35.51-1.86,0l-3-3c-.51-.51-.51-1.35,0-1.86.51-.51,1.35-.51,1.86,0l2.07,2.07,5.07-5.07c.51-.51,1.35-.51,1.86,0,.51.51.51,1.35,0,1.86l-6,6Zm12.57-3.93c0,6.63-5.37,12-12,12S0,18.63,0,12,5.37,0,12,0s12,5.37,12,12ZM12,2.25C6.61,2.25,2.25,6.61,2.25,12s4.36,9.75,9.75,9.75,9.75-4.36,9.75-9.75S17.39,2.25,12,2.25Z"/>
  </g>
</svg>