<svg viewBox="0 0 16 16" fill="none" xmlns="http://www.w3.org/2000/svg">
<path d="M2.28571 1.71429C1.97143 1.71429 1.71429 1.97143 1.71429 2.28571V13.7143C1.71429 14.0286 1.97143 14.2857 2.28571 14.2857H13.7143C14.0286 14.2857 14.2857 14.0286 14.2857 13.7143V2.28571C14.2857 1.97143 14.0286 1.71429 13.7143 1.71429H2.28571ZM0 2.28571C0 1.025 1.025 0 2.28571 0H13.7143C14.975 0 16 1.025 16 2.28571V13.7143C16 14.975 14.975 16 13.7143 16H2.28571C1.025 16 0 14.975 0 13.7143V2.28571ZM3.42857 4.57143C3.42857 4.26832 3.54898 3.97763 3.76331 3.76331C3.97763 3.54898 4.26832 3.42857 4.57143 3.42857C4.87453 3.42857 5.16522 3.54898 5.37955 3.76331C5.59388 3.97763 5.71429 4.26832 5.71429 4.57143C5.71429 4.87453 5.59388 5.16522 5.37955 5.37955C5.16522 5.59388 4.87453 5.71429 4.57143 5.71429C4.26832 5.71429 3.97763 5.59388 3.76331 5.37955C3.54898 5.16522 3.42857 4.87453 3.42857 4.57143ZM7.14286 4.57143C7.14286 4.09643 7.525 3.71429 8 3.71429H11.4286C11.9036 3.71429 12.2857 4.09643 12.2857 4.57143C12.2857 5.04643 11.9036 5.42857 11.4286 5.42857H8C7.525 5.42857 7.14286 5.04643 7.14286 4.57143ZM7.14286 8C7.14286 7.525 7.525 7.14286 8 7.14286H11.4286C11.9036 7.14286 12.2857 7.525 12.2857 8C12.2857 8.475 11.9036 8.85714 11.4286 8.85714H8C7.525 8.85714 7.14286 8.475 7.14286 8ZM7.14286 11.4286C7.14286 10.9536 7.525 10.5714 8 10.5714H11.4286C11.9036 10.5714 12.2857 10.9536 12.2857 11.4286C12.2857 11.9036 11.9036 12.2857 11.4286 12.2857H8C7.525 12.2857 7.14286 11.9036 7.14286 11.4286ZM4.57143 9.14286C4.26832 9.14286 3.97763 9.02245 3.76331 8.80812C3.54898 8.59379 3.42857 8.30311 3.42857 8C3.42857 7.6969 3.54898 7.40621 3.76331 7.19188C3.97763 6.97755 4.26832 6.85714 4.57143 6.85714C4.87453 6.85714 5.16522 6.97755 5.37955 7.19188C5.59388 7.40621 5.71429 7.6969 5.71429 8C5.71429 8.30311 5.59388 8.59379 5.37955 8.80812C5.16522 9.02245 4.87453 9.14286 4.57143 9.14286ZM3.42857 11.4286C3.42857 11.1255 3.54898 10.8348 3.76331 10.6205C3.97763 10.4061 4.26832 10.2857 4.57143 10.2857C4.87453 10.2857 5.16522 10.4061 5.37955 10.6205C5.59388 10.8348 5.71429 11.1255 5.71429 11.4286C5.71429 11.7317 5.59388 12.0224 5.37955 12.2367C5.16522 12.451 4.87453 12.5714 4.57143 12.5714C4.26832 12.5714 3.97763 12.451 3.76331 12.2367C3.54898 12.0224 3.42857 11.7317 3.42857 11.4286Z" fill="currentColor"/>
</svg>
