<svg width="32" height="32" viewBox="0 0 32 32" fill="none" xmlns="http://www.w3.org/2000/svg">
<path d="M24 10C25.1031 10 26 10.8969 26 12V20C26 21.1031 25.1031 22 24 22H8C6.89688 22 6 21.1031 6 20V12C6 10.8969 6.89375 10 8 10H24ZM24 11.5H8C7.725 11.5 7.5 11.725 7.5 12V20C7.5 20.275 7.725 20.5 8 20.5H24C24.275 20.5 24.5 20.275 24.5 20V12C24.5 11.725 24.275 11.5 24 11.5ZM10.725 13.425C10.8781 13.425 11 13.5469 11 13.7V15.5031L12.5094 14.5687C12.6406 14.4875 12.8094 14.5281 12.8875 14.6594C12.9656 14.7906 12.9281 14.9594 12.7969 15.0375L11.25 16L12.8031 16.9625C12.9344 17.0437 12.9719 17.2125 12.8938 17.3406C12.8125 17.4688 12.6438 17.5094 12.5156 17.4312L11 16.4969V18.3C11 18.4531 10.8781 18.575 10.725 18.575C10.5719 18.575 10.45 18.4531 10.45 18.3V16.4969L8.9375 17.4312C8.80625 17.5125 8.6375 17.4719 8.55938 17.3406C8.48125 17.2094 8.51875 17.0406 8.65 16.9625L10.2031 16L8.65 15.0375C8.51875 14.9562 8.48125 14.7875 8.55938 14.6594C8.6375 14.5312 8.80938 14.4906 8.9375 14.5687L10.4469 15.5031V13.7C10.45 13.5469 10.5719 13.425 10.725 13.425ZM16 13.425C16.1531 13.425 16.275 13.5469 16.275 13.7V15.5031L17.7844 14.5687C17.9156 14.4875 18.0844 14.5281 18.1625 14.6594C18.2406 14.7906 18.2031 14.9594 18.0719 15.0375L16.525 16L18.0781 16.9625C18.2094 17.0437 18.2469 17.2125 18.1687 17.3406C18.0875 17.4688 17.9187 17.5094 17.7906 17.4312L16.2812 16.4969V18.3C16.2812 18.4531 16.1594 18.575 16.0063 18.575C15.8531 18.575 15.7312 18.4531 15.7312 18.3V16.4969L14.2219 17.4312C14.0906 17.5125 13.9219 17.4719 13.8438 17.3406C13.7656 17.2094 13.8031 17.0406 13.9344 16.9625L15.4875 16L13.9344 15.0375C13.8031 14.9562 13.7656 14.7875 13.8438 14.6594C13.9219 14.5312 14.0938 14.4906 14.2219 14.5687L15.7312 15.5031V13.7C15.725 13.5469 15.8469 13.425 16 13.425ZM21.275 13.425C21.4281 13.425 21.55 13.5469 21.55 13.7V15.5031L23.0594 14.5687C23.1906 14.4875 23.3594 14.5281 23.4375 14.6594C23.5156 14.7906 23.4781 14.9594 23.3469 15.0375L21.8 16L23.3531 16.9625C23.4844 17.0437 23.5219 17.2125 23.4438 17.3406C23.3625 17.4688 23.1937 17.5094 23.0656 17.4312L21.5562 16.4969V18.3C21.5562 18.4531 21.4344 18.575 21.2812 18.575C21.1281 18.575 21.0063 18.4531 21.0063 18.3V16.4969L19.4969 17.4312C19.3656 17.5125 19.1969 17.4719 19.1187 17.3406C19.0406 17.2094 19.0781 17.0406 19.2094 16.9625L20.75 16L19.1969 15.0375C19.0656 14.9562 19.0281 14.7875 19.1062 14.6594C19.1844 14.5312 19.3562 14.4906 19.4844 14.5687L20.9937 15.5031V13.7C21 13.5469 21.1219 13.425 21.275 13.425Z" fill="currentColor"/>
</svg>
