<svg viewBox="0 0 32 32" fill="none" xmlns="http://www.w3.org/2000/svg">
<path d="M11.5562 8.88763C11.9257 8.88763 12.223 9.18491 12.223 9.55442V10.6657H16.2236V9.55442C16.2236 9.18491 16.5209 8.88763 16.8904 8.88763C17.2599 8.88763 17.5572 9.18491 17.5572 9.55442V10.6657H18.6685C19.6492 10.6657 20.4466 11.4631 20.4466 12.4438V12.8883V14.2219H19.113H18.6685H9.33356V21.3342C9.33356 21.5787 9.5336 21.7788 9.77809 21.7788H15.2929L15.1512 22.34C15.0873 22.6011 15.1012 22.8678 15.1901 23.1123H9.77809C8.79736 23.1123 8 22.315 8 21.3342V14.2219V12.8883V12.4438C8 11.4631 8.79736 10.6657 9.77809 10.6657H10.8894V9.55442C10.8894 9.18491 11.1867 8.88763 11.5562 8.88763ZM11.3339 16H16.2236C16.5932 16 16.8904 16.2973 16.8904 16.6668C16.8904 17.0363 16.5932 17.3335 16.2236 17.3335H11.3339C10.9644 17.3335 10.6671 17.0363 10.6671 16.6668C10.6671 16.2973 10.9644 16 11.3339 16ZM10.6671 19.3339C10.6671 18.9644 10.9644 18.6671 11.3339 18.6671H14.4456C14.8151 18.6671 15.1123 18.9644 15.1123 19.3339C15.1123 19.7034 14.8151 20.0007 14.4456 20.0007H11.3339C10.9644 20.0007 10.6671 19.7034 10.6671 19.3339ZM23.2749 15.436L23.6749 15.8361C24.1084 16.2695 24.1084 16.9724 23.6749 17.4086L22.8581 18.2254L20.8856 16.2528L21.7024 15.436C22.1358 15.0026 22.8387 15.0026 23.2749 15.436ZM16.6654 20.473L20.2549 16.8835L22.2275 18.856L18.638 22.4428C18.524 22.5567 18.3824 22.6372 18.224 22.6761L16.5543 23.0929C16.4015 23.1318 16.2431 23.0873 16.132 22.9762C16.0208 22.8651 15.9764 22.7067 16.0153 22.5539L16.432 20.8842C16.4709 20.7286 16.5515 20.5841 16.6654 20.4702V20.473Z" fill="currentColor"/>
</svg>
