<svg viewBox="0 0 32 32" fill="none" xmlns="http://www.w3.org/2000/svg">
<path d="M24 14.1333C24 14.5767 23.6433 14.9333 23.2 14.9333H19.4667H18.4C17.9567 14.9333 17.6 14.5767 17.6 14.1333C17.6 13.69 17.9567 13.3333 18.4 13.3333H19.4667H21.27L19.5333 11.5967C18.5933 10.66 17.3233 10.1333 16 10.1333C13.5767 10.1333 11.4933 11.6033 10.6 13.7033C10.4267 14.11 9.95667 14.3 9.55 14.1267C9.14333 13.9533 8.95333 13.4833 9.12667 13.0767C10.2633 10.4067 12.9133 8.53333 16 8.53333C17.75 8.53333 19.4267 9.22666 20.6633 10.4633L22.4 12.2033V10.4V10.3867V9.33333C22.4 8.88999 22.7567 8.53333 23.2 8.53333C23.6433 8.53333 24 8.88999 24 9.33333V14.1333ZM8.8 17.0667H12.5333C12.9767 17.0667 13.3333 17.4233 13.3333 17.8667C13.3333 18.31 12.9767 18.6667 12.5333 18.6667H10.73L12.4667 20.4033C13.4067 21.34 14.6767 21.8667 16 21.8667C18.42 21.8667 20.5 20.4033 21.3967 18.3067C21.57 17.9 22.04 17.7133 22.4467 17.8867C22.8533 18.06 23.04 18.53 22.8667 18.9367C21.7267 21.6 19.0833 23.4667 16 23.4667C14.25 23.4667 12.5733 22.7733 11.3367 21.5367L9.6 19.7967V21.6C9.6 22.0433 9.24333 22.4 8.8 22.4C8.35667 22.4 8 22.0433 8 21.6V17.8667C8 17.4233 8.35667 17.0667 8.8 17.0667Z" fill="currentColor"/>
</svg>
