<svg viewBox="0 0 32 32" fill="currentColor" xmlns="http://www.w3.org/2000/svg">
<path d="M16.1354 8.01406C16.0461 7.99531 15.9539 7.99531 15.8646 8.01406L10.1043 9.26419C9.7817 9.33294 9.5484 9.64235 9.5484 9.99863C9.5484 10.3205 9.73561 10.6018 10.0092 10.705V12.9489L9.55704 15.4023C9.53112 15.5492 9.56568 15.7023 9.65209 15.818C9.73849 15.9336 9.87098 16.0023 10.0092 16.0023H10.9309C11.0691 16.0023 11.1987 15.9367 11.288 15.818C11.3773 15.6992 11.4119 15.5492 11.3831 15.4023L10.9309 12.9489V10.9143L15.8646 11.9863C15.9539 12.0051 16.0461 12.0051 16.1354 11.9863L21.8958 10.7362C22.2183 10.6643 22.4516 10.3549 22.4516 9.99863C22.4516 9.64235 22.2183 9.33294 21.8958 9.26419L16.1354 8.01406ZM10.9683 22.4999C11.1354 21.3247 11.8324 20.3371 12.7915 19.8402L14.6233 22.0748C14.7673 22.2498 14.9315 22.3905 15.11 22.4999H10.9683ZM21.0317 22.4999H16.89C17.0686 22.3936 17.2327 22.253 17.3767 22.0748L19.2085 19.8402C20.1676 20.334 20.8646 21.3216 21.0317 22.4999ZM12.7051 18.2619C10.8704 18.937 9.5484 20.8216 9.5484 23.0405C9.5484 23.5718 9.94587 24 10.4326 24H21.5674C22.057 24 22.4516 23.5687 22.4516 23.0405C22.4516 20.8216 21.1296 18.937 19.2949 18.2651C18.981 18.1494 18.6411 18.2776 18.4222 18.5463L16.3456 21.0778C16.1613 21.3029 15.8387 21.3029 15.6573 21.0778L13.5807 18.5432C13.3618 18.2744 13.0219 18.1463 12.708 18.2619H12.7051ZM12.3134 12.9989C12.3134 15.2085 13.9637 16.9993 16 16.9993C18.0363 16.9993 19.6866 15.2085 19.6866 12.9989V12.2332L18.3042 12.5333V12.9989C18.3042 14.3803 17.2731 15.4992 16 15.4992C14.727 15.4992 13.6959 14.3803 13.6959 12.9989V12.5333L12.3134 12.2332V12.9989Z" fill="currentColor"/>
</svg>
