<svg width="32" height="32" viewBox="0 0 32 32" fill="none" xmlns="http://www.w3.org/2000/svg">
<path d="M9.77809 21.7788H16.8904C17.1349 21.7788 17.335 21.5787 17.335 21.3342V21.1481L18.4407 20.873C18.5185 20.8536 18.5963 20.8286 18.6685 20.798V21.3342C18.6685 22.315 17.8712 23.1123 16.8904 23.1123H9.77809C8.79736 23.1123 8 22.315 8 21.3342V10.6657C8 9.68499 8.79736 8.88763 9.77809 8.88763H14.3761C14.8484 8.88763 15.3013 9.07378 15.6347 9.40717L18.149 11.9215C18.4824 12.2549 18.6685 12.7077 18.6685 13.18V14.5442L17.335 15.8777V13.3329H15.1123C14.6206 13.3329 14.2233 12.9356 14.2233 12.4438V10.2212H9.77809C9.5336 10.2212 9.33356 10.4212 9.33356 10.6657V21.3342C9.33356 21.5787 9.5336 21.7788 9.77809 21.7788ZM12.4452 18.5838L12.1729 19.495C12.0035 20.059 11.4839 20.4452 10.8949 20.4452H10.6671C10.4226 20.4452 10.2226 20.2452 10.2226 20.0007C10.2226 19.7562 10.4226 19.5562 10.6671 19.5562H10.8949C11.0922 19.5562 11.2645 19.4284 11.32 19.2394L11.734 17.8642C11.8284 17.5502 12.1174 17.3335 12.4452 17.3335C12.7731 17.3335 13.062 17.5475 13.1565 17.8642L13.4787 18.9366C13.6843 18.7643 13.9455 18.6671 14.2233 18.6671C14.665 18.6671 15.0679 18.9172 15.2652 19.3117L15.3874 19.5562H16.0986L16.432 18.217C16.4709 18.0614 16.5515 17.917 16.6654 17.8031L20.2549 14.2163L22.2275 16.1889L18.638 19.7756C18.524 19.8895 18.3824 19.9701 18.224 20.009L16.5543 20.4257C16.5237 20.4341 16.4959 20.4369 16.4654 20.4396C16.4431 20.4424 16.4237 20.4452 16.4015 20.4452H15.1123C14.9429 20.4452 14.7901 20.3507 14.7151 20.2007L14.4706 19.709C14.4233 19.6145 14.3289 19.5562 14.2261 19.5562C14.1233 19.5562 14.026 19.6145 13.9816 19.709L13.7371 20.2007C13.6565 20.3646 13.4815 20.4619 13.3009 20.4452C13.1203 20.4285 12.9648 20.3035 12.9147 20.1313L12.4452 18.5838ZM23.2749 12.7689L23.6749 13.1689C24.1084 13.6023 24.1084 14.3052 23.6749 14.7414L22.8581 15.5582L20.8856 13.5857L21.7024 12.7689C22.1358 12.3355 22.8387 12.3355 23.2749 12.7689Z" fill="currentColor"/>
</svg>
