<svg viewBox="0 0 32 33" fill="currentColor" xmlns="http://www.w3.org/2000/svg">
<path d="M15.1429 19.4436V17.1579H12.8571C12.3821 17.1579 12 16.7758 12 16.3008C12 15.8258 12.3821 15.4436 12.8571 15.4436H15.1429V13.1579C15.1429 12.6829 15.525 12.3008 16 12.3008C16.475 12.3008 16.8571 12.6829 16.8571 13.1579V15.4436H19.1429C19.6179 15.4436 20 15.8258 20 16.3008C20 16.7758 19.6179 17.1579 19.1429 17.1579H16.8571V19.4436C16.8571 19.9186 16.475 20.3008 16 20.3008C15.525 20.3008 15.1429 19.9186 15.1429 19.4436ZM8 10.5865C8 9.324 9.02321 8.30078 10.2857 8.30078H21.7143C22.975 8.30078 24 9.324 24 10.5865V22.0151C24 23.2758 22.975 24.3008 21.7143 24.3008H10.2857C9.02321 24.3008 8 23.2758 8 22.0151V10.5865ZM9.71429 10.5865V22.0151C9.71429 22.3294 9.97 22.5865 10.2857 22.5865H21.7143C22.0286 22.5865 22.2857 22.3294 22.2857 22.0151V10.5865C22.2857 10.2708 22.0286 10.0151 21.7143 10.0151H10.2857C9.97 10.0151 9.71429 10.2708 9.71429 10.5865Z" fill="currentColor"/>
</svg>
