<svg id="Icon-Chart" xmlns="http://www.w3.org/2000/svg" width="32" height="32" viewBox="0 0 32 32">
  <rect id="Rectangle_8202" data-name="Rectangle 8202" width="32" height="32" fill="none"/>
  <path id="chart-simple-regular" d="M8.571,32a1.715,1.715,0,0,1,1.714,1.714V46.286A1.715,1.715,0,0,1,8.571,48H7.429a1.715,1.715,0,0,1-1.714-1.714V33.714A1.715,1.715,0,0,1,7.429,32Zm0,1.714H7.429V46.286H8.571ZM2.857,38.857a1.715,1.715,0,0,1,1.714,1.714v5.714A1.715,1.715,0,0,1,2.857,48H1.714A1.714,1.714,0,0,1,0,46.286V40.571a1.714,1.714,0,0,1,1.714-1.714Zm0,1.714H1.714v5.714H2.857ZM11.429,36a1.715,1.715,0,0,1,1.714-1.714h1.143A1.715,1.715,0,0,1,16,36V46.286A1.715,1.715,0,0,1,14.286,48H13.143a1.715,1.715,0,0,1-1.714-1.714Zm1.714,10.286h1.143V36H13.143Z" transform="translate(8 -24)" fill="currentColor"/>
</svg>