<svg viewBox="0 0 32 32" fill="none" xmlns="http://www.w3.org/2000/svg">
<path d="M22.5 16C22.5 17.7239 21.8152 19.3772 20.5962 20.5962C19.3772 21.8152 17.7239 22.5 16 22.5C14.2761 22.5 12.6228 21.8152 11.4038 20.5962C10.1848 19.3772 9.5 17.7239 9.5 16C9.5 14.2761 10.1848 12.6228 11.4038 11.4038C12.6228 10.1848 14.2761 9.5 16 9.5C17.7239 9.5 19.3772 10.1848 20.5962 11.4038C21.8152 12.6228 22.5 14.2761 22.5 16ZM8 16C8 18.1217 8.84285 20.1566 10.3431 21.6569C11.8434 23.1571 13.8783 24 16 24C18.1217 24 20.1566 23.1571 21.6569 21.6569C23.1571 20.1566 24 18.1217 24 16C24 13.8783 23.1571 11.8434 21.6569 10.3431C20.1566 8.84285 18.1217 8 16 8C13.8783 8 11.8434 8.84285 10.3431 10.3431C8.84285 11.8434 8 13.8783 8 16ZM17.0312 19.2812L19.7812 16.5312C20.075 16.2375 20.075 15.7625 19.7812 15.4719L17.0312 12.7219C16.7375 12.4281 16.2625 12.4281 15.9719 12.7219C15.6813 13.0156 15.6781 13.4906 15.9719 13.7812L17.4406 15.25H12.75C12.3344 15.25 12 15.5844 12 16C12 16.4156 12.3344 16.75 12.75 16.75H17.4406L15.9719 18.2188C15.6781 18.5125 15.6781 18.9875 15.9719 19.2781C16.2656 19.5687 16.7406 19.5719 17.0312 19.2781V19.2812Z" fill="currentColor"/>
</svg>
