<svg width="32" height="32" viewBox="0 0 32 32" fill="none" xmlns="http://www.w3.org/2000/svg">
<path d="M17.5 17.5H14.5C13.0413 17.5 11.6424 18.0795 10.6109 19.1109C9.57946 20.1424 9 21.5413 9 23C9 23.2652 9.10536 23.5196 9.29289 23.7071C9.48043 23.8946 9.73478 24 10 24H22C22.2652 24 22.5196 23.8946 22.7071 23.7071C22.8946 23.5196 23 23.2652 23 23C23 21.5413 22.4205 20.1424 21.3891 19.1109C20.3576 18.0795 18.9587 17.5 17.5 17.5ZM10.531 22.5C10.6528 21.5333 11.1232 20.6443 11.854 19.9999C12.5848 19.3555 13.5257 18.9999 14.5 19H17.5C18.474 19.0012 19.4142 19.3572 20.1447 20.0014C20.8752 20.6456 21.346 21.5338 21.469 22.5H10.531ZM16 16C16.7911 16 17.5645 15.7654 18.2223 15.3259C18.8801 14.8864 19.3928 14.2616 19.6955 13.5307C19.9983 12.7998 20.0775 11.9956 19.9231 11.2196C19.7688 10.4437 19.3878 9.73098 18.8284 9.17157C18.269 8.61216 17.5563 8.2312 16.7804 8.07686C16.0044 7.92252 15.2002 8.00173 14.4693 8.30448C13.7384 8.60723 13.1136 9.11992 12.6741 9.77772C12.2346 10.4355 12 11.2089 12 12C12 13.0609 12.4214 14.0783 13.1716 14.8284C13.9217 15.5786 14.9391 16 16 16ZM16 9.5C16.4945 9.5 16.9778 9.64662 17.3889 9.92133C17.8 10.196 18.1205 10.5865 18.3097 11.0433C18.4989 11.5001 18.5484 12.0028 18.452 12.4877C18.3555 12.9727 18.1174 13.4181 17.7678 13.7678C17.4181 14.1174 16.9727 14.3555 16.4877 14.452C16.0028 14.5484 15.5001 14.4989 15.0433 14.3097C14.5865 14.1205 14.196 13.8001 13.9213 13.3889C13.6466 12.9778 13.5 12.4945 13.5 12C13.5 11.337 13.7634 10.7011 14.2322 10.2322C14.7011 9.76339 15.337 9.5 16 9.5Z" fill="currentColor" />
</svg>