<svg viewBox="0 0 40 40" fill="none" xmlns="http://www.w3.org/2000/svg">
<path d="M25.5433 12C25.1969 12 24.9134 12.2835 24.9134 12.6299V13.7638H23.7795C23.4331 13.7638 23.1496 14.0472 23.1496 14.3937C23.1496 14.7402 23.4331 15.0236 23.7795 15.0236H24.9134V16.1575C24.9134 16.5039 25.1969 16.7874 25.5433 16.7874C25.8898 16.7874 26.1732 16.5039 26.1732 16.1575V15.0236H27.3071C27.6535 15.0236 27.937 14.7402 27.937 14.3937C27.937 14.0472 27.6535 13.7638 27.3071 13.7638H26.1732V12.6299C26.1732 12.2835 25.8898 12 25.5433 12ZM20 15.9055C19.7323 15.9055 19.4646 15.9591 19.2189 16.0661L12.6268 18.8913C12.2079 19.0709 11.937 19.4803 11.937 19.937C11.937 20.3937 12.2079 20.8032 12.6268 20.9827L19.2189 23.8079C19.4646 23.915 19.7323 23.9685 20 23.9685C20.2677 23.9685 20.5354 23.915 20.7811 23.8079L27.3732 20.9827C27.7921 20.8032 28.063 20.3906 28.063 19.937C28.063 19.4835 27.7921 19.0709 27.3732 18.8913L20.7811 16.0661C20.5354 15.9591 20.2677 15.9055 20 15.9055ZM19.8142 17.4551C19.874 17.4299 19.937 17.4173 20 17.4173C20.063 17.4173 20.126 17.4299 20.1858 17.4551L25.9748 19.937L20.1858 22.4189C20.126 22.4441 20.063 22.4567 20 22.4567C19.937 22.4567 19.874 22.4441 19.8142 22.4189L14.0252 19.937L19.8142 17.4551ZM13.6095 22.5008L12.6268 22.9228C12.2079 23.1024 11.937 23.5118 11.937 23.9685C11.937 24.4252 12.2079 24.8346 12.6268 25.0142L19.2189 27.8394C19.4646 27.9465 19.7323 28 20 28C20.2677 28 20.5354 27.9465 20.7811 27.8394L27.3732 25.0142C27.7921 24.8346 28.063 24.422 28.063 23.9685C28.063 23.515 27.7921 23.1024 27.3732 22.9228L26.3906 22.5008L24.4724 23.3228L25.9748 23.9685L20.1858 26.4504C20.126 26.4756 20.063 26.4882 20 26.4882C19.937 26.4882 19.874 26.4756 19.8142 26.4504L14.0252 23.9685L15.5276 23.3228L13.6095 22.5008Z" fill="currentColor"/>
</svg>
