<svg viewBox="0 0 32 32" fill="none" xmlns="http://www.w3.org/2000/svg">
<path d="M19.75 8.9375H23.25C23.5938 8.9375 23.875 9.21875 23.875 9.5625C23.875 9.90625 23.5938 10.1875 23.25 10.1875H19.75C19.4062 10.1875 19.125 9.90625 19.125 9.5625C19.125 9.21875 19.4062 8.9375 19.75 8.9375ZM15.225 11.2219C15.4688 11.1156 15.7344 11.0625 16 11.0625C16.2656 11.0625 16.5312 11.1156 16.775 11.2219L23.3156 14.025C23.7312 14.2031 24 14.6125 24 15.0625C24 15.5125 23.7312 15.9219 23.3156 16.1L16.775 18.9031C16.5312 19.0094 16.2656 19.0625 16 19.0625C15.7344 19.0625 15.4688 19.0094 15.225 18.9031L8.68438 16.1C8.26875 15.9219 8 15.5156 8 15.0625C8 14.6094 8.26875 14.2031 8.68438 14.025L15.225 11.2219ZM16 12.5625C15.9375 12.5625 15.875 12.575 15.8156 12.6L10.0719 15.0625L15.8156 17.525C15.875 17.55 15.9375 17.5625 16 17.5625C16.0625 17.5625 16.125 17.55 16.1844 17.525L21.9281 15.0625L16.1844 12.6C16.125 12.575 16.0625 12.5625 16 12.5625ZM8.68438 18.025L9.65937 17.6062L11.5625 18.4219L10.0719 19.0625L15.8156 21.525C15.875 21.55 15.9375 21.5625 16 21.5625C16.0625 21.5625 16.125 21.55 16.1844 21.525L21.9281 19.0625L20.4375 18.4219L22.3406 17.6062L23.3156 18.025C23.7312 18.2031 24 18.6125 24 19.0625C24 19.5125 23.7312 19.9219 23.3156 20.1L16.775 22.9031C16.5312 23.0094 16.2656 23.0625 16 23.0625C15.7344 23.0625 15.4688 23.0094 15.225 22.9031L8.68438 20.1C8.26875 19.9219 8 19.5156 8 19.0625C8 18.6094 8.26875 18.2031 8.68438 18.025Z" fill="currentColor"/>
</svg>
