<svg viewBox="0 0 32 32" fill="none" xmlns="http://www.w3.org/2000/svg">
<path d="M18.5 12V14H13.5V12C13.5 10.6188 14.6187 9.5 16 9.5C17.3812 9.5 18.5 10.6188 18.5 12ZM20 14V12C20 9.79063 18.2094 8 16 8C13.7906 8 12 9.79063 12 12V14H11C9.89688 14 9 14.8969 9 16V22C9 23.1031 9.89688 24 11 24H21C22.1031 24 23 23.1031 23 22V16C23 14.8969 22.1031 14 21 14H20ZM21.5 16V22C21.5 22.275 21.275 22.5 21 22.5H11C10.725 22.5 10.5 22.275 10.5 22V16C10.5 15.725 10.725 15.5 11 15.5H21C21.275 15.5 21.5 15.725 21.5 16Z" fill="currentColor"/>
</svg>
