<svg viewBox="0 0 32 32" fill="none" xmlns="http://www.w3.org/2000/svg">
<path d="M21.5433 8C21.1969 8 20.9134 8.28346 20.9134 8.62992V9.76378H19.7795C19.4331 9.76378 19.1496 10.0472 19.1496 10.3937C19.1496 10.7402 19.4331 11.0236 19.7795 11.0236H20.9134V12.1575C20.9134 12.5039 21.1969 12.7874 21.5433 12.7874C21.8898 12.7874 22.1732 12.5039 22.1732 12.1575V11.0236H23.3071C23.6535 11.0236 23.937 10.7402 23.937 10.3937C23.937 10.0472 23.6535 9.76378 23.3071 9.76378H22.1732V8.62992C22.1732 8.28346 21.8898 8 21.5433 8ZM16 11.9055C15.7323 11.9055 15.4646 11.9591 15.2189 12.0661L8.62678 14.8913C8.20788 15.0709 7.93701 15.4803 7.93701 15.937C7.93701 16.3937 8.20788 16.8032 8.62678 16.9827L15.2189 19.8079C15.4646 19.915 15.7323 19.9685 16 19.9685C16.2677 19.9685 16.5354 19.915 16.7811 19.8079L23.3732 16.9827C23.7921 16.8032 24.063 16.3906 24.063 15.937C24.063 15.4835 23.7921 15.0709 23.3732 14.8913L16.7811 12.0661C16.5354 11.9591 16.2677 11.9055 16 11.9055ZM15.8142 13.4551C15.874 13.4299 15.937 13.4173 16 13.4173C16.063 13.4173 16.126 13.4299 16.1858 13.4551L21.9748 15.937L16.1858 18.4189C16.126 18.4441 16.063 18.4567 16 18.4567C15.937 18.4567 15.874 18.4441 15.8142 18.4189L10.0252 15.937L15.8142 13.4551ZM9.60945 18.5008L8.62678 18.9228C8.20788 19.1024 7.93701 19.5118 7.93701 19.9685C7.93701 20.4252 8.20788 20.8346 8.62678 21.0142L15.2189 23.8394C15.4646 23.9465 15.7323 24 16 24C16.2677 24 16.5354 23.9465 16.7811 23.8394L23.3732 21.0142C23.7921 20.8346 24.063 20.422 24.063 19.9685C24.063 19.515 23.7921 19.1024 23.3732 18.9228L22.3906 18.5008L20.4724 19.3228L21.9748 19.9685L16.1858 22.4504C16.126 22.4756 16.063 22.4882 16 22.4882C15.937 22.4882 15.874 22.4756 15.8142 22.4504L10.0252 19.9685L11.5276 19.3228L9.60945 18.5008Z" fill="black"/>
</svg>
