<svg viewBox="0 0 32 32" fill="currentColor" xmlns="http://www.w3.org/2000/svg">
<path d="M8.75 8C7.23125 8 6 9.23125 6 10.75V21.25H6.0125C6.00313 21.3313 6 21.4156 6 21.5C6 22.8813 7.11875 24 8.5 24H18.3375C17.7656 23.5969 17.2719 23.0875 16.8906 22.5H8.5C7.94688 22.5 7.5 22.0531 7.5 21.5C7.5 20.9469 7.94688 20.5 8.5 20.5H16.0906C16.0313 20.175 16 19.8406 16 19.5C16 19.3313 16.0063 19.1656 16.0219 19H8.5C8.14375 19 7.80625 19.075 7.5 19.2094V10.75C7.5 10.0594 8.05938 9.5 8.75 9.5H18.25C18.3875 9.5 18.5 9.6125 18.5 9.75V14.8906C18.9563 14.5938 19.4625 14.3594 20 14.2094V9.75C20 8.78438 19.2156 8 18.25 8H8.75ZM25.7613 20.1809L25 19.7425C25.0153 19.6175 25.0213 19.4959 25.0213 19.3678C25.0213 19.2397 25.0122 19.115 25 18.9931L25.7613 18.5547C25.9469 18.4481 26.0444 18.235 25.9806 18.0309C25.8831 17.7081 25.7463 17.3912 25.5694 17.0869C25.3928 16.7822 25.1888 16.5053 24.9572 16.2584C24.8109 16.1031 24.5797 16.0787 24.3938 16.1853L23.6353 16.6209C23.4253 16.4656 23.1969 16.3347 22.9563 16.2312V15.2994C22.9563 15.0862 22.8191 14.8944 22.6122 14.8488C22.2925 14.7756 21.9575 14.7359 21.6163 14.7359C21.275 14.7359 20.9403 14.7756 20.6203 14.8488C20.4131 14.8944 20.2763 15.0862 20.2763 15.2994V16.2253C20.0325 16.3319 19.8013 16.4628 19.5909 16.6181L18.8356 16.1825C18.65 16.0759 18.4184 16.1003 18.2722 16.2556C18.0406 16.5022 17.8366 16.7794 17.66 17.0841C17.4834 17.3888 17.3494 17.7053 17.2488 18.0281C17.1878 18.2322 17.2822 18.4453 17.4681 18.5519L18.2266 18.9875C18.2113 19.1125 18.2053 19.2372 18.2053 19.365C18.2053 19.4928 18.2144 19.6178 18.2266 19.7425L17.4713 20.1781C17.2856 20.2847 17.1881 20.4978 17.2519 20.7019C17.3494 21.0247 17.4863 21.3416 17.6631 21.6459C17.8397 21.9506 18.0438 22.2275 18.2753 22.4744C18.4216 22.6297 18.6528 22.6541 18.8388 22.5475L19.5909 22.1119C19.8009 22.2703 20.0325 22.4012 20.2763 22.5047V23.4366C20.2763 23.6497 20.4134 23.8416 20.6203 23.8872C20.94 23.9603 21.275 24 21.6163 24C21.9575 24 22.2922 23.9603 22.6122 23.8872C22.8194 23.8416 22.9563 23.6497 22.9563 23.4366V22.5047C23.2 22.4012 23.4253 22.2703 23.6353 22.115L24.3938 22.5506C24.5766 22.6572 24.8109 22.6328 24.9572 22.4775C25.1888 22.2309 25.3956 21.9537 25.5694 21.6491C25.7428 21.3444 25.88 21.0278 25.9806 20.705C26.0416 20.5009 25.9472 20.2878 25.7613 20.1812V20.1809ZM23.0813 19.4984C23.0444 20.3066 22.3594 20.9319 21.5513 20.895C20.7431 20.8581 20.1178 20.1731 20.1547 19.365C20.1528 19.3206 20.1528 19.2759 20.1547 19.2316C20.1916 18.4234 20.8766 17.7981 21.6847 17.835C22.4928 17.8719 23.1181 18.5569 23.0813 19.365C23.0831 19.4094 23.0831 19.4541 23.0813 19.4984ZM10.75 11.5H16.25C16.6656 11.5 17 11.8344 17 12.25C17 12.6656 16.6656 13 16.25 13H10.75C10.3344 13 10 12.6656 10 12.25C10 11.8344 10.3344 11.5 10.75 11.5ZM10.75 14H16.25C16.6656 14 17 14.3344 17 14.75C17 15.1656 16.6656 15.5 16.25 15.5H10.75C10.3344 15.5 10 15.1656 10 14.75C10 14.3344 10.3344 14 10.75 14Z" fill="currentColor"/>
</svg>
