<?xml version="1.0" encoding="UTF-8"?>
<svg id="Layer_2" data-name="Layer 2" xmlns="http://www.w3.org/2000/svg" viewBox="0 0 24 24">
  <defs>
    <style>
      .cls-1 {
        fill: currentColor;
      }
    </style>
  </defs>
  <g id="Layer_1-2" data-name="Layer 1">
    <path class="cls-1" d="m12,0C5.37,0,0,5.37,0,12s5.37,12,12,12,12-5.37,12-12S18.63,0,12,0Zm0,21.75c-5.38,0-9.75-4.37-9.75-9.75S6.62,2.25,12,2.25s9.75,4.37,9.75,9.75-4.37,9.75-9.75,9.75Zm1.88-6h-.75v-4.12c0-.62-.5-1.12-1.12-1.12h-1.5c-.62,0-1.12.51-1.12,1.12s.51,1.12,1.12,1.12h.38v3h-.75c-.62,0-1.12.51-1.12,1.12s.51,1.12,1.12,1.12h3.75c.62,0,1.12-.5,1.12-1.12s-.5-1.12-1.12-1.12Zm-1.88-6.75c.83,0,1.5-.67,1.5-1.5s-.67-1.5-1.5-1.5-1.5.67-1.5,1.5.67,1.5,1.5,1.5Z"/>
  </g>
</svg>