<svg viewBox="0 0 32 32" fill="currentColor" xmlns="http://www.w3.org/2000/svg">
<path d="M13.008 12.4851C13.008 12.0191 13.383 11.6442 13.849 11.6442H17.2128C17.6789 11.6442 18.0538 12.0191 18.0538 12.4851C18.0538 12.9512 17.6789 13.3261 17.2128 13.3261H13.849C13.383 13.3261 13.008 12.9512 13.008 12.4851ZM13.849 16.69H16.9416C16.9795 16.6167 17.0187 16.5442 17.0597 16.4734C17.2672 16.1153 17.5093 15.788 17.7798 15.5003C17.8208 15.4565 17.8649 15.4166 17.9112 15.3795C17.7605 15.1552 17.5044 15.0084 17.2128 15.0084H13.849C13.383 15.0084 13.008 15.3833 13.008 15.8493C13.008 16.3154 13.383 16.6903 13.849 16.6903V16.69ZM17.1964 19.188L17.2609 19.1508L17.1932 19.1119C16.8964 18.9416 16.6858 18.675 16.586 18.3719H13.849C13.383 18.3719 13.008 18.7468 13.008 19.2128C13.008 19.6789 13.383 20.0538 13.849 20.0538H16.5523C16.6308 19.7003 16.8568 19.3831 17.1964 19.188ZM10.4851 18.0916C9.86598 18.0916 9.36385 18.5937 9.36385 19.2128C9.36385 19.832 9.86598 20.3341 10.4851 20.3341C11.1043 20.3341 11.6064 19.832 11.6064 19.2128C11.6064 18.5937 11.1043 18.0916 10.4851 18.0916ZM10.4851 11.3639C9.86598 11.3639 9.36385 11.866 9.36385 12.4851C9.36385 13.1043 9.86598 13.6064 10.4851 13.6064C11.1043 13.6064 11.6064 13.1043 11.6064 12.4851C11.6064 11.866 11.1043 11.3639 10.4851 11.3639ZM10.4851 14.7277C9.86598 14.7277 9.36385 15.2298 9.36385 15.849C9.36385 16.4682 9.86598 16.9703 10.4851 16.9703C11.1043 16.9703 11.6064 16.4682 11.6064 15.849C11.6064 15.2298 11.1043 14.7277 10.4851 14.7277ZM19.5083 23.1444V22.9751L19.4099 23.0322C19.2045 23.15 18.9722 23.212 18.7381 23.212C18.3776 23.212 18.0296 23.062 17.7837 22.801C17.5608 22.5634 17.3583 22.3002 17.1782 22.0161H8.24257C7.93422 22.0161 7.68193 21.7638 7.68193 21.4554V10.2426C7.68193 9.93422 7.93422 9.68193 8.24257 9.68193H19.4554C19.7638 9.68193 20.0161 9.93422 20.0161 10.2426V14.1064C20.1636 13.9919 20.337 13.9078 20.5297 13.865C20.9138 13.7774 21.3069 13.7329 21.698 13.7329V10.2426C21.698 9.00565 20.6923 8 19.4554 8H8.24257C7.00565 8 6 9.00565 6 10.2426V21.4554C6 22.6923 7.00565 23.698 8.24257 23.698H19.4554C19.5115 23.698 19.5668 23.6952 19.6215 23.6913C19.5483 23.5242 19.5083 23.3392 19.5083 23.1447V23.1444ZM25.9806 20.4645C25.8818 20.7812 25.7472 21.0917 25.5769 21.3906C25.4066 21.6895 25.2034 21.9614 24.9763 22.2032C24.833 22.3556 24.6028 22.3794 24.4238 22.275L23.6799 21.8475C23.4738 21.9999 23.2527 22.1282 23.0137 22.2298V23.144C23.0137 23.3532 22.8795 23.5414 22.6763 23.5862C22.3624 23.658 22.034 23.6969 21.6994 23.6969C21.3648 23.6969 21.0361 23.658 20.7225 23.5862C20.5196 23.5414 20.385 23.3532 20.385 23.144V22.2298C20.1457 22.1282 19.9186 21.9999 19.7126 21.8444L18.9747 22.2719C18.7925 22.3763 18.5654 22.3524 18.4221 22.2C18.195 21.9579 17.9946 21.6863 17.8215 21.3871C17.648 21.0885 17.5135 20.7777 17.4178 20.461C17.3555 20.2609 17.4511 20.0517 17.633 19.9473L18.3741 19.5198C18.3622 19.3975 18.3534 19.2749 18.3534 19.1494C18.3534 19.024 18.3594 18.9017 18.3741 18.779L17.6302 18.3516C17.4476 18.2471 17.3551 18.038 17.415 17.8379C17.5138 17.5211 17.6452 17.2107 17.8183 16.9118C17.9914 16.6129 18.1919 16.341 18.4189 16.0992C18.5626 15.9468 18.7897 15.9229 18.9719 16.0273L19.713 16.4548C19.9193 16.3024 20.1461 16.1742 20.3854 16.0694V15.1612C20.3854 14.952 20.5196 14.7638 20.7228 14.7189C21.0368 14.6471 21.3651 14.6082 21.6997 14.6082C22.0344 14.6082 22.3631 14.6471 22.6767 14.7189C22.8795 14.7638 23.0141 14.952 23.0141 15.1612V16.0754C23.2503 16.177 23.4742 16.3052 23.6802 16.4576L24.4241 16.0302C24.6063 15.9257 24.8334 15.9496 24.9767 16.102C25.2038 16.3441 25.4042 16.6157 25.5773 16.9146C25.7507 17.2131 25.8853 17.5239 25.9809 17.8407C26.0433 18.0408 25.9477 18.2499 25.7658 18.3544L25.0191 18.7843C25.031 18.9038 25.0401 19.0261 25.0401 19.1519C25.0401 19.2777 25.0342 19.3968 25.0191 19.5194L25.7658 19.9494C25.948 20.0542 26.0409 20.2634 25.9809 20.4634L25.9806 20.4645ZM23.1364 19.1498C23.1725 18.3572 22.5593 17.6851 21.7663 17.6487C20.9737 17.6126 20.3016 18.2258 20.2652 19.0187C20.2634 19.0622 20.2634 19.106 20.2652 19.1494C20.2291 19.942 20.8427 20.6141 21.6353 20.6505C22.4279 20.687 23.0999 20.0734 23.1364 19.2805C23.1381 19.237 23.1381 19.1932 23.1364 19.1498Z" fill="currentColor"/>
</svg>
