<svg viewBox="0 0 32 32" fill="none" xmlns="http://www.w3.org/2000/svg">
<path d="M16 20C17.3924 20 18.7277 19.4469 19.7123 18.4623C20.6969 17.4777 21.25 16.1424 21.25 14.75C21.25 13.3576 20.6969 12.0223 19.7123 11.0377C18.7277 10.0531 17.3924 9.5 16 9.5C14.6076 9.5 13.2723 10.0531 12.2877 11.0377C11.3031 12.0223 10.75 13.3576 10.75 14.75C10.75 16.1424 11.3031 17.4777 12.2877 18.4623C13.2723 19.4469 14.6076 20 16 20ZM16 21.5C15.0906 21.5 14.2219 21.3187 13.4313 20.9937L12.2719 22.5H19.7281L18.5688 20.9937C17.7781 21.3187 16.9094 21.5 16 21.5ZM22.75 14.75C22.75 17.025 21.625 19.0375 19.8969 20.2625L21.8438 22.7937C22.0188 23.0188 22.0469 23.325 21.9219 23.5813C21.7969 23.8375 21.5344 24 21.25 24H10.75C10.4656 24 10.2031 23.8375 10.0781 23.5813C9.95312 23.325 9.98125 23.0188 10.1562 22.7937L12.1031 20.2625C10.375 19.0375 9.25 17.025 9.25 14.75C9.25 11.0219 12.2719 8 16 8C19.7281 8 22.75 11.0219 22.75 14.75ZM18.25 14.75C18.25 14.4545 18.1918 14.1619 18.0787 13.889C17.9657 13.616 17.7999 13.3679 17.591 13.159C17.3821 12.9501 17.134 12.7843 16.861 12.6713C16.5881 12.5582 16.2955 12.5 16 12.5C15.7045 12.5 15.4119 12.5582 15.139 12.6713C14.866 12.7843 14.6179 12.9501 14.409 13.159C14.2001 13.3679 14.0343 13.616 13.9213 13.889C13.8082 14.1619 13.75 14.4545 13.75 14.75C13.75 15.0455 13.8082 15.3381 13.9213 15.611C14.0343 15.884 14.2001 16.1321 14.409 16.341C14.6179 16.5499 14.866 16.7157 15.139 16.8287C15.4119 16.9418 15.7045 17 16 17C16.2955 17 16.5881 16.9418 16.861 16.8287C17.134 16.7157 17.3821 16.5499 17.591 16.341C17.7999 16.1321 17.9657 15.884 18.0787 15.611C18.1918 15.3381 18.25 15.0455 18.25 14.75ZM12.25 14.75C12.25 13.7554 12.6451 12.8016 13.3483 12.0983C14.0516 11.3951 15.0054 11 16 11C16.9946 11 17.9484 11.3951 18.6517 12.0983C19.3549 12.8016 19.75 13.7554 19.75 14.75C19.75 15.7446 19.3549 16.6984 18.6517 17.4017C17.9484 18.1049 16.9946 18.5 16 18.5C15.0054 18.5 14.0516 18.1049 13.3483 17.4017C12.6451 16.6984 12.25 15.7446 12.25 14.75Z" fill="currentColor"/>
</svg>
