<svg viewBox="0 0 32 32" fill="currentColor" xmlns="http://www.w3.org/2000/svg">
<path d="M7.04219 21.5426C7.21094 20.2984 7.86344 19.202 8.80844 18.4363C9.68031 17.7336 10.7969 17.3125 12.0147 17.3125H13.3H14.5853C15.8031 17.3125 16.9197 17.7336 17.7887 18.4363C18.7338 19.202 19.3862 20.2984 19.555 21.5426C19.5831 21.7531 19.5972 21.9691 19.5972 22.1879C19.5972 22.6363 19.2231 23 18.7619 23H18.2134H8.38656H7.83531C7.37406 23 7 22.6363 7 22.1879C7 21.9691 7.01406 21.7531 7.04219 21.5426ZM9.7 12.5C9.7 11.5717 10.0793 10.6815 10.7544 10.0251C11.4295 9.36875 12.3452 9 13.3 9C14.2548 9 15.1705 9.36875 15.8456 10.0251C16.5207 10.6815 16.9 11.5717 16.9 12.5C16.9 13.4283 16.5207 14.3185 15.8456 14.9749C15.1705 15.6313 14.2548 16 13.3 16C12.3452 16 11.4295 15.6313 10.7544 14.9749C10.0793 14.3185 9.7 13.4283 9.7 12.5ZM15.55 12.5C15.55 11.9198 15.3129 11.3634 14.891 10.9532C14.469 10.543 13.8967 10.3125 13.3 10.3125C12.7033 10.3125 12.131 10.543 11.709 10.9532C11.2871 11.3634 11.05 11.9198 11.05 12.5C11.05 13.0802 11.2871 13.6366 11.709 14.0468C12.131 14.457 12.7033 14.6875 13.3 14.6875C13.8967 14.6875 14.469 14.457 14.891 14.0468C15.3129 13.6366 15.55 13.0802 15.55 12.5ZM12.0147 18.625C10.6703 18.625 9.4975 19.3277 8.85906 20.375C8.61719 20.7688 8.45406 21.2145 8.38656 21.6875H9.75625H16.8438H18.2163C18.205 21.6137 18.1938 21.5426 18.1769 21.4688C18.0953 21.0777 17.9462 20.7086 17.7409 20.375C17.1025 19.3277 15.9297 18.625 14.5853 18.625H12.0147ZM24.1366 23H20.2863C20.4241 22.7594 20.5 22.4832 20.5 22.1879C20.5 20.4105 19.6703 18.8191 18.3653 17.7637C18.4862 17.7527 18.61 17.75 18.7366 17.75H20.4634C22.9694 17.75 25 19.7242 25 22.1605C25 22.6254 24.6119 23 24.1366 23ZM19.15 16C18.2781 16 17.4906 15.6555 16.9197 15.1004C17.4738 14.373 17.8 13.4734 17.8 12.5C17.8 11.7672 17.6144 11.0754 17.2853 10.4684C17.8084 10.0965 18.4525 9.875 19.15 9.875C20.8909 9.875 22.3 11.2449 22.3 12.9375C22.3 14.6301 20.8909 16 19.15 16Z" fill="currentColor"/>
</svg>
