<svg viewBox="0 0 32 32" fill="none" xmlns="http://www.w3.org/2000/svg">
<path d="M13.7699 15.7373C13.0799 13.8573 13.8099 11.8048 15.4124 10.7498C15.2999 10.6948 15.1849 10.6448 15.0649 10.5998C13.3499 9.97725 11.4499 10.8598 10.8199 12.5748L10.4549 13.5748C10.0999 14.5448 9.43991 15.3748 8.57491 15.9423L8.37241 16.0748C8.11741 16.2423 7.97991 16.5373 8.01491 16.8373C8.04991 17.1373 8.24991 17.3923 8.53491 17.4948L14.2974 19.5923L14.3249 19.4948C14.5599 18.6823 14.5274 17.8148 14.2374 17.0173L13.7699 15.7373ZM15.6499 15.0548C15.2249 13.8948 15.8224 12.6098 16.9824 12.1873C18.1424 11.7648 19.4299 12.3623 19.8549 13.5223L20.3249 14.8023C20.7199 15.8798 21.4149 16.8223 22.3274 17.5148L16.3424 19.6923C16.5899 18.5773 16.5149 17.4123 16.1174 16.3323L15.6499 15.0548ZM15.0974 19.7148L14.9824 20.1098C14.8999 20.3998 14.9849 20.7098 15.2074 20.9148C15.4299 21.1198 15.7449 21.1848 16.0274 21.0823L23.4649 18.3773C23.7474 18.2748 23.9499 18.0223 23.9849 17.7223C24.0199 17.4223 23.8849 17.1298 23.6349 16.9623L23.2924 16.7323C22.4474 16.1648 21.8024 15.3473 21.4524 14.3923L20.9824 13.1123C20.3299 11.3298 18.3524 10.4123 16.5699 11.0598C14.7874 11.7073 13.8699 13.6798 14.5224 15.4648L14.9924 16.7448C15.3424 17.6998 15.3799 18.7398 15.0999 19.7173L15.0974 19.7148ZM20.0199 21.5998C20.9099 21.5998 21.6324 20.8798 21.6324 19.9923C21.6324 19.9598 21.6324 19.9273 21.6299 19.8948L18.7274 20.9523C19.0224 21.3448 19.4924 21.5998 20.0199 21.5998ZM10.3574 19.0023C10.3499 19.0648 10.3474 19.1273 10.3474 19.1898C10.3474 20.0773 11.0699 20.7973 11.9599 20.7973C12.5174 20.7973 13.0074 20.5148 13.2974 20.0873L10.3574 19.0023Z" fill="currentColor"/>
</svg>
