<svg viewBox="0 0 32 32" fill="none" xmlns="http://www.w3.org/2000/svg">
<path d="M21.35 13.8C20.5633 12.9433 19.93 12.25 19.24 11.7067C18.3467 11.0033 17.4067 10.6 16 10.6C13.4067 10.6 11.1367 12.28 10.3567 14.59C10.2167 15.01 9.76 15.2333 9.34333 15.0933C8.92667 14.9533 8.7 14.4967 8.84 14.08C9.84333 11.1167 12.7233 9 16 9C17.7967 9 19.0767 9.54333 20.23 10.45C20.96 11.0233 21.66 11.7667 22.4 12.5767V11.4C22.4 10.9567 22.7567 10.6 23.2 10.6C23.6433 10.6 24 10.9567 24 11.4V14.6C24 15.0433 23.6433 15.4 23.2 15.4H20C19.5567 15.4 19.2 15.0433 19.2 14.6C19.2 14.1567 19.5567 13.8 20 13.8H21.35ZM8.8 22.3333C8.35667 22.3333 8 21.9767 8 21.5333V18.3333C8 17.89 8.35667 17.5333 8.8 17.5333H12C12.4433 17.5333 12.8 17.89 12.8 18.3333C12.8 18.7767 12.4433 19.1333 12 19.1333H10.73L10.83 19.2433C11.5633 20.0533 12.1567 20.7067 12.81 21.23C13.68 21.93 14.5967 22.3333 16.0033 22.3333C18.5967 22.3333 20.8667 20.6533 21.6467 18.3433C21.7867 17.9233 22.2433 17.7 22.66 17.84C23.0767 17.98 23.3033 18.4367 23.1633 18.8533C22.1567 21.8167 19.2767 23.9333 16 23.9333C14.2033 23.9333 12.9367 23.3867 11.8067 22.48C11.07 21.89 10.36 21.1133 9.6 20.2733V21.5333C9.6 21.9767 9.24333 22.3333 8.8 22.3333ZM16.89 12.9267V12.26H15.5567V13.21C15.3333 13.2533 15.12 13.3167 14.92 13.4067C14.3833 13.65 13.9233 14.1 13.81 14.7467C13.7467 15.11 13.78 15.46 13.93 15.7767C14.0767 16.0867 14.3067 16.3067 14.5467 16.47C14.9667 16.7533 15.5233 16.9233 15.96 17.0533L16.0367 17.0767C16.55 17.23 16.9133 17.3533 17.1433 17.52C17.2433 17.5933 17.2867 17.6533 17.3067 17.7C17.3267 17.7433 17.35 17.83 17.32 17.99C17.2933 18.1467 17.2033 18.2767 16.98 18.37C16.7367 18.4733 16.3567 18.52 15.8733 18.4467C15.6433 18.41 15.24 18.27 14.8867 18.15C14.8067 18.1233 14.73 18.0967 14.6567 18.0733L14.0233 17.8633L13.6033 19.13L14.2367 19.34C14.2833 19.3567 14.34 19.3733 14.4033 19.3967C14.7133 19.5033 15.2033 19.67 15.5567 19.7433V20.7067H16.89V19.7733C17.1067 19.7367 17.3133 19.68 17.5067 19.5967C18.07 19.3567 18.5167 18.8933 18.6333 18.2167C18.6967 17.8433 18.67 17.49 18.53 17.17C18.39 16.85 18.1667 16.6167 17.9267 16.4433C17.4867 16.1233 16.9 15.9467 16.4467 15.81L16.42 15.8033C15.9 15.6467 15.53 15.53 15.2933 15.37C15.19 15.3 15.15 15.2467 15.1333 15.21C15.12 15.18 15.0967 15.1167 15.1233 14.98C15.14 14.8767 15.22 14.74 15.47 14.6267C15.7233 14.5133 16.1067 14.4533 16.5733 14.5267C16.7367 14.5533 17.24 14.65 17.3833 14.69L18.0267 14.86L18.37 13.57L17.7267 13.3933C17.55 13.3467 17.1267 13.2633 16.89 13.22V12.9267Z" fill="currentColor"/>
</svg>
