<svg viewBox="0 0 32 32" fill="currentColor" xmlns="http://www.w3.org/2000/svg">
<path d="M13.7143 8.85714C13.7143 8.38214 13.3321 8 12.8571 8C12.3821 8 12 8.38214 12 8.85714V12H8.85714C8.38214 12 8 12.3821 8 12.8571C8 13.3321 8.38214 13.7143 8.85714 13.7143H12.8571C13.3321 13.7143 13.7143 13.3321 13.7143 12.8571V8.85714ZM8.85714 18.2857C8.38214 18.2857 8 18.6679 8 19.1429C8 19.6179 8.38214 20 8.85714 20H12V23.1429C12 23.6179 12.3821 24 12.8571 24C13.3321 24 13.7143 23.6179 13.7143 23.1429V19.1429C13.7143 18.6679 13.3321 18.2857 12.8571 18.2857H8.85714ZM20 8.85714C20 8.38214 19.6179 8 19.1429 8C18.6679 8 18.2857 8.38214 18.2857 8.85714V12.8571C18.2857 13.3321 18.6679 13.7143 19.1429 13.7143H23.1429C23.6179 13.7143 24 13.3321 24 12.8571C24 12.3821 23.6179 12 23.1429 12H20V8.85714ZM19.1429 18.2857C18.6679 18.2857 18.2857 18.6679 18.2857 19.1429V23.1429C18.2857 23.6179 18.6679 24 19.1429 24C19.6179 24 20 23.6179 20 23.1429V20H23.1429C23.6179 20 24 19.6179 24 19.1429C24 18.6679 23.6179 18.2857 23.1429 18.2857H19.1429Z" fill="currentColor"/>
</svg>
