<svg viewBox="0 0 32 32" fill="currentColor" xmlns="http://www.w3.org/2000/svg">
  <path
    d="M13.4286 7.71426C13.4286 7.23926 13.0464 6.85712 12.5714 6.85712C12.0964 6.85712 11.7143 7.23926 11.7143 7.71426V9.14283H10.2857C9.025 9.14283 8 10.1678 8 11.4285V12V13.7143V22.8571C8 24.1178 9.025 25.1428 10.2857 25.1428H21.7143C22.975 25.1428 24 24.1178 24 22.8571V13.7143V12V11.4285C24 10.1678 22.975 9.14283 21.7143 9.14283H20.2857V7.71426C20.2857 7.23926 19.9036 6.85712 19.4286 6.85712C18.9536 6.85712 18.5714 7.23926 18.5714 7.71426V9.14283H13.4286V7.71426ZM9.71429 13.7143H22.2857V22.8571C22.2857 23.1714 22.0286 23.4285 21.7143 23.4285H10.2857C9.97143 23.4285 9.71429 23.1714 9.71429 22.8571V13.7143ZM11.4286 16.8571C11.4286 17.3321 11.8107 17.7143 12.2857 17.7143H19.7143C20.1893 17.7143 20.5714 17.3321 20.5714 16.8571C20.5714 16.3821 20.1893 16 19.7143 16H12.2857C11.8107 16 11.4286 16.3821 11.4286 16.8571ZM12.2857 19.4285C11.8107 19.4285 11.4286 19.8107 11.4286 20.2857C11.4286 20.7607 11.8107 21.1428 12.2857 21.1428H16.2857C16.7607 21.1428 17.1429 20.7607 17.1429 20.2857C17.1429 19.8107 16.7607 19.4285 16.2857 19.4285H12.2857Z"
    fill="currentColor" />
</svg>