<svg viewBox="0 0 32 32" fill="none" xmlns="http://www.w3.org/2000/svg">
<path d="M7.67501 9C7.30094 9 7 9.29258 7 9.65625C7 10.0199 7.30094 10.3125 7.67501 10.3125H9.14035L10.8363 18.9668C10.8982 19.2758 11.1766 19.5 11.5001 19.5H16.0198C16.0058 19.3551 16.0001 19.2102 16.0001 19.0625C16.0001 18.7645 16.0283 18.4719 16.0817 18.1875H12.0598L11.8038 16.875H16.5401C16.7989 16.3828 17.142 15.9398 17.5527 15.5625H11.5451L10.6872 11.1875H21.6421L20.7562 14.2527C20.8208 14.25 20.8855 14.25 20.9502 14.25C21.3524 14.25 21.7462 14.2965 22.1202 14.384L23.1046 10.9852C23.2649 10.4301 22.8346 9.875 22.2384 9.875H10.4313L10.3638 9.5332C10.3019 9.22422 10.0235 9 9.70004 9H7.67501ZM11.9501 23C12.6957 23 13.3001 22.4124 13.3001 21.6875C13.3001 20.9626 12.6957 20.375 11.9501 20.375C11.2045 20.375 10.6001 20.9626 10.6001 21.6875C10.6001 22.4124 11.2045 23 11.9501 23ZM20.9502 22.2617C21.0672 22.2617 21.3774 22.151 21.7034 21.5174C21.8426 21.2451 21.9627 20.9145 22.0516 20.5391H19.8494C19.938 20.9142 20.0581 21.2451 20.1976 21.5174C20.5236 22.151 20.8335 22.2617 20.9508 22.2617H20.9502ZM19.7242 19.8008H22.1765C22.2018 19.5654 22.2161 19.3179 22.2161 19.0625C22.2161 18.8071 22.2018 18.5596 22.1765 18.3242H19.7242C19.6989 18.5596 19.6846 18.8071 19.6846 19.0625C19.6846 19.3179 19.6989 19.5654 19.7242 19.8008ZM19.8491 17.5859H22.0513C21.9627 17.2108 21.8424 16.8799 21.7031 16.6079C21.3772 15.974 21.0672 15.8633 20.9499 15.8633C20.8327 15.8633 20.5227 15.974 20.1967 16.6079C20.0575 16.8802 19.9374 17.2108 19.8485 17.5859H19.8491ZM22.939 18.3242C22.9626 18.5627 22.9738 18.8104 22.9738 19.0625C22.9738 19.3146 22.9612 19.5623 22.939 19.8008H24.1523C24.2094 19.564 24.2409 19.3162 24.2409 19.0625C24.2409 18.8088 24.2108 18.561 24.1523 18.3242H22.939ZM23.8691 17.5859C23.5304 16.9538 22.9814 16.4462 22.3123 16.1493C22.5354 16.543 22.7126 17.0336 22.8282 17.5859H23.8708H23.8691ZM19.0706 17.5859C19.1862 17.0339 19.3634 16.5447 19.5864 16.1493C18.9173 16.4462 18.3683 16.9538 18.0297 17.5859H19.0723H19.0706ZM17.7479 18.3242C17.691 18.561 17.6593 18.8088 17.6593 19.0625C17.6593 19.3162 17.6894 19.564 17.7479 19.8008H18.9612C18.9376 19.5623 18.9263 19.3146 18.9263 19.0625C18.9263 18.8104 18.939 18.5627 18.9612 18.3242H17.7479ZM22.3121 21.9757C22.9812 21.6788 23.5302 21.1713 23.8688 20.5391H22.8279C22.7123 21.0911 22.5351 21.5803 22.3121 21.9757ZM19.5878 21.9757C19.3648 21.582 19.1876 21.0914 19.072 20.5391H18.0294C18.368 21.1713 18.917 21.6788 19.5861 21.9757H19.5878ZM20.9499 23C18.7131 23 16.8999 21.2371 16.8999 19.0625C16.8999 16.8879 18.7131 15.125 20.9499 15.125C23.1868 15.125 25 16.8879 25 19.0625C25 21.2371 23.1868 23 20.9499 23Z" fill="currentColor"/>
</svg>
