<svg viewBox="0 0 18 15" fill="none" xmlns="http://www.w3.org/2000/svg">
<path d="M16.2 1.36089H6.3C6.0525 1.36089 5.85 1.56502 5.85 1.81452V2.98545C5.43375 2.81534 4.97813 2.72177 4.5 2.72177V1.81452C4.5 0.813697 5.30719 0 6.3 0H16.2C17.1928 0 18 0.813697 18 1.81452V9.97984C18 10.9807 17.1928 11.7944 16.2 11.7944H15.3H14.625H11.025H10.35H9.4725C9.23906 11.284 8.91562 10.8247 8.52469 10.4335H10.35V9.2994C10.35 8.42332 11.0559 7.71169 11.925 7.71169H13.725C14.5941 7.71169 15.3 8.42332 15.3 9.2994V10.4335H16.2C16.4475 10.4335 16.65 10.2293 16.65 9.97984V1.81452C16.65 1.56502 16.4475 1.36089 16.2 1.36089ZM13.95 10.4335V9.2994C13.95 9.17465 13.8487 9.07258 13.725 9.07258H11.925C11.8012 9.07258 11.7 9.17465 11.7 9.2994V10.4335H13.95ZM5.85 6.35081C5.85 5.98988 5.70777 5.64373 5.45459 5.38851C5.20142 5.1333 4.85804 4.98992 4.5 4.98992C4.14196 4.98992 3.79858 5.1333 3.54541 5.38851C3.29223 5.64373 3.15 5.98988 3.15 6.35081C3.15 6.71174 3.29223 7.05788 3.54541 7.3131C3.79858 7.56832 4.14196 7.71169 4.5 7.71169C4.85804 7.71169 5.20142 7.56832 5.45459 7.3131C5.70777 7.05788 5.85 6.71174 5.85 6.35081ZM1.8 6.35081C1.8 5.62895 2.08446 4.93665 2.59081 4.42622C3.09716 3.91579 3.78392 3.62903 4.5 3.62903C5.21608 3.62903 5.90284 3.91579 6.40919 4.42622C6.91554 4.93665 7.2 5.62895 7.2 6.35081C7.2 7.07267 6.91554 7.76496 6.40919 8.27539C5.90284 8.78582 5.21608 9.07258 4.5 9.07258C3.78392 9.07258 3.09716 8.78582 2.59081 8.27539C2.08446 7.76496 1.8 7.07267 1.8 6.35081ZM1.42594 13.1552H7.57406C7.30687 12.1119 6.3675 11.3407 5.25094 11.3407H3.74906C2.62969 11.3407 1.69031 12.1119 1.42594 13.1552ZM0 13.7591C0 11.6724 1.67906 9.97984 3.74906 9.97984H5.24813C7.32094 9.97984 9 11.6724 9 13.7591C9 14.1759 8.66531 14.5161 8.24906 14.5161H0.750938C0.334688 14.5161 0 14.1787 0 13.7591Z" fill="currentColor"/>
</svg>
