<svg viewBox="0 0 18 18" width="20" height="20" fill="none" xmlns="http://www.w3.org/2000/svg">
<path d="M16.757 15.721L12.568 11.532C13.492 10.3919 13.9895 8.96539 13.975 7.498C13.9764 6.02295 13.477 4.59112 12.5587 3.43678C11.6404 2.28244 10.3575 1.47394 8.91995 1.14358C7.48237 0.813216 5.97523 0.980546 4.64512 1.61819C3.31501 2.25583 2.2407 3.32603 1.59796 4.65369C0.955218 5.98134 0.78211 7.48783 1.10696 8.92667C1.4318 10.3655 2.23537 11.6515 3.38618 12.5742C4.53699 13.4969 5.9669 14.0018 7.44194 14.0061C8.91699 14.0104 10.3498 13.514 11.506 12.598L15.695 16.787C15.8493 16.9251 16.048 17.0031 16.255 17.007C16.4539 17.0068 16.6445 16.9277 16.785 16.787C16.8561 16.7167 16.912 16.6327 16.9493 16.5399C16.9866 16.4472 17.0045 16.3478 17.0019 16.2479C16.9992 16.148 16.9762 16.0497 16.9341 15.9591C16.8919 15.8685 16.8317 15.7874 16.757 15.721ZM2.50003 7.498C2.50003 6.50909 2.79327 5.54239 3.34268 4.72015C3.89208 3.8979 4.67298 3.25704 5.58661 2.8786C6.50024 2.50016 7.50557 2.40115 8.47548 2.59407C9.44538 2.787 10.3363 3.2632 11.0356 3.96247C11.7348 4.66173 12.211 5.55264 12.404 6.52255C12.5969 7.49245 12.4979 8.49779 12.1194 9.41142C11.741 10.325 11.1001 11.1059 10.2779 11.6553C9.45563 12.2048 8.48893 12.498 7.50003 12.498C6.17451 12.4961 4.90382 11.9688 3.96654 11.0315C3.02926 10.0942 2.50188 8.82351 2.50003 7.498Z" fill="black"/>
</svg>