<svg width="32" height="32" viewBox="0 0 32 32" fill="none" xmlns="http://www.w3.org/2000/svg">
<path d="M22.1312 13.496C22.2437 13.1906 22.3113 12.8627 22.3113 12.5234C22.3113 11.0194 21.0963 9.80937 19.6112 9.80937C19.06 9.80937 18.5425 9.979 18.115 10.273C17.3387 8.91599 15.8875 8 14.2113 8C11.725 8 9.71125 10.0242 9.71125 12.5234C9.71125 12.6026 9.71125 12.6817 9.71125 12.7496C8.13625 13.3037 7 15.2714 7 17.0468C7 20.6204 9.59875 22 11.8375 22H20.1737C22.165 22 25 20.4394 25 17.6349C25 15.8821 23.7625 13.8239 22.12 13.496H22.1312ZM17.0013 16.6058C16.585 16.6058 16.2025 16.4814 15.8763 16.2779L14.605 17.5557L15.2125 18.1664C15.3925 18.3473 15.3925 18.6527 15.2125 18.8336C15.0325 19.0145 14.7288 19.0145 14.5487 18.8336L13.9412 18.2229L13.6713 18.4943L14.2788 19.105C14.4588 19.2859 14.4588 19.5913 14.2788 19.7722C14.0988 19.9531 13.795 19.9531 13.615 19.7722L12.67 18.8223C12.49 18.6414 12.49 18.336 12.67 18.1551L15.2125 15.5994C15.01 15.2714 14.8863 14.8869 14.8863 14.4685C14.8863 13.2924 15.8313 12.3312 17.0125 12.3312C18.1938 12.3312 19.1388 13.2811 19.1388 14.4685C19.1388 15.6559 18.1937 16.5945 17.0238 16.6058H17.0013ZM18.1825 14.4685C18.1825 15.1244 17.6538 15.6559 17.0013 15.6559C16.3488 15.6559 15.82 15.1244 15.82 14.4685C15.82 13.8126 16.3488 13.2811 17.0013 13.2811C17.6538 13.2811 18.1825 13.8126 18.1825 14.4685Z" fill="#0288D1"/>
</svg>
