<svg id="Icon-Edit" xmlns="http://www.w3.org/2000/svg" viewBox="0 0 32 32">
  <rect id="Rectangle_8204" data-name="Rectangle 8204" width="32" height="32" fill="none"/>
  <path id="pen-to-square-regular" d="M11.748,4.546a2.266,2.266,0,0,1,3.206,0l.381.382a2.268,2.268,0,0,1,0,3.206l-6.21,6.213a2.3,2.3,0,0,1-.982.576l-3.149.9a.717.717,0,0,1-.743-.22.7.7,0,0,1-.192-.715l.9-3.149a2.3,2.3,0,0,1,.576-.982Zm2.11,1.069a.724.724,0,0,0-1.042,0l-.916.916,1.452,1.452.916-.945a.721.721,0,0,0,0-1.041Zm-7.444,6.54L5.885,14l1.842-.529a.736.736,0,0,0,.327-.192L12.284,9.05,10.832,7.6,6.606,11.827A.736.736,0,0,0,6.414,12.155ZM6.3,5.775a.756.756,0,1,1,0,1.511H2.771a1.259,1.259,0,0,0-1.26,1.26v8.565a1.259,1.259,0,0,0,1.26,1.26h8.565a1.259,1.259,0,0,0,1.26-1.26V13.584a.756.756,0,0,1,1.511,0v3.527a2.771,2.771,0,0,1-2.771,2.771H2.771A2.771,2.771,0,0,1,0,17.111V8.546A2.771,2.771,0,0,1,2.771,5.775Z" transform="translate(8 4.118)" fill="currentColor"/>
</svg>