<svg id="Icon_-_Positive" data-name="Icon - Positive" xmlns="http://www.w3.org/2000/svg" viewBox="0 0 32 32" fill="currentColor">
  <rect id="Rectangle_8453" data-name="Rectangle 8453" />
  <path id="calendar-check-regular" d="M4.571,0a.855.855,0,0,1,.857.857V2.286h5.143V.857a.857.857,0,1,1,1.714,0V2.286h1.429A2.288,2.288,0,0,1,16,4.571V16a2.288,2.288,0,0,1-2.286,2.286H2.286A2.288,2.288,0,0,1,0,16V4.571A2.288,2.288,0,0,1,2.286,2.286H3.714V.857A.855.855,0,0,1,4.571,0Zm9.714,6.857H1.714V16a.573.573,0,0,0,.571.571H13.714A.573.573,0,0,0,14.286,16Zm-2.536,3.75-4,4a.854.854,0,0,1-1.211,0L4.254,12.321a.856.856,0,0,1,1.211-1.211l1.679,1.679L10.536,9.4a.856.856,0,1,1,1.211,1.211Z" transform="translate(8 7)" fill="currentColor"/>
</svg>
