<svg id="Icon-Preview-Small" xmlns="http://www.w3.org/2000/svg" width="32" height="32" viewBox="0 0 32 32">
  <rect id="Rectangle_8115" data-name="Rectangle 8115" width="32" height="32" fill="none"/>
  <path id="eye-regular" d="M4.445,38.222A3.556,3.556,0,1,1,8,41.778,3.555,3.555,0,0,1,4.445,38.222ZM8,40.445A2.222,2.222,0,0,0,8,36H7.92A1.107,1.107,0,0,1,8,36.445a1.78,1.78,0,0,1-1.778,1.778,1.107,1.107,0,0,1-.444-.081V38.2A2.227,2.227,0,0,0,8,40.445Zm-5.35-6.206A7.819,7.819,0,0,1,8,32a7.822,7.822,0,0,1,5.35,2.239,10.762,10.762,0,0,1,2.581,3.642.883.883,0,0,1,0,.683,11.263,11.263,0,0,1-2.581,3.642A7.817,7.817,0,0,1,8,44.445a7.814,7.814,0,0,1-5.35-2.239A11.306,11.306,0,0,1,.068,38.564a.888.888,0,0,1,0-.683,10.8,10.8,0,0,1,2.582-3.642ZM8,33.333a6.5,6.5,0,0,0-4.442,1.881,9.586,9.586,0,0,0-2.185,3.008,9.875,9.875,0,0,0,2.185,3.008A6.5,6.5,0,0,0,8,43.112a6.5,6.5,0,0,0,4.442-1.881,10.339,10.339,0,0,0,2.186-3.008,10.022,10.022,0,0,0-2.186-3.008A6.5,6.5,0,0,0,8,33.333Z" transform="translate(8 -22)" fill="currentColor"/>
</svg>