<svg viewBox="0 0 32 32" fill="none" xmlns="http://www.w3.org/2000/svg">
<path d="M22 22.5H14C13.725 22.5 13.5 22.275 13.5 22V19.5H12V22C12 23.1031 12.8969 24 14 24H22C23.1031 24 24 23.1031 24 22V12.8281C24 12.2969 23.7906 11.7875 23.4156 11.4125L20.5844 8.58438C20.2094 8.20938 19.7031 8 19.1719 8H14C12.8969 8 12 8.89688 12 10V16H13.5V10C13.5 9.725 13.725 9.5 14 9.5H19V12C19 12.5531 19.4469 13 20 13H22.5V22C22.5 22.275 22.275 22.5 22 22.5ZM17.2812 14.7188C16.9875 14.425 16.5125 14.425 16.2219 14.7188C15.9313 15.0125 15.9281 15.4875 16.2219 15.7781L17.4406 16.9969H8.75C8.33437 16.9969 8 17.3313 8 17.7469C8 18.1625 8.33437 18.4969 8.75 18.4969H17.4406L16.2219 19.7156C15.9281 20.0094 15.9281 20.4844 16.2219 20.775C16.5156 21.0656 16.9906 21.0687 17.2812 20.775L19.7812 18.275C20.075 17.9812 20.075 17.5062 19.7812 17.2156L17.2812 14.7156V14.7188Z" fill="currentColor"/>
</svg>
