<svg viewBox="0 0 32 32" fill="none" xmlns="http://www.w3.org/2000/svg">
<path d="M11.85 12.5991C11.43 12.4291 10.98 12.3391 10.5 12.3391V11.4291C10.5 10.4291 11.31 9.61914 12.3 9.61914H17.56C17.34 10.0491 17.17 10.4991 17.09 10.9791H12.3C12.05 10.9791 11.85 11.1791 11.85 11.4291V12.5991ZM22.65 16.8091C23.12 16.7491 23.57 16.6391 24 16.4491V19.5991C24 20.5991 23.19 21.4091 22.2 21.4091H15.47C15.24 20.8991 14.91 20.4391 14.52 20.0491H16.35V18.9191C16.35 18.0391 17.06 17.3291 17.92 17.3291H19.72C20.59 17.3291 21.29 18.0391 21.29 18.9191V20.0491H22.19C22.44 20.0491 22.64 19.8491 22.64 19.5991V16.8091H22.65ZM19.95 18.9091C19.95 18.7891 19.85 18.6791 19.73 18.6791H17.93C17.81 18.6791 17.71 18.7791 17.71 18.9091V20.0391H19.96V18.9091H19.95ZM15 23.3691C15 23.7891 14.67 24.1291 14.25 24.1291H6.75C6.33 24.1291 6 23.7891 6 23.3691C6 21.2791 7.68 19.5891 9.75 19.5891H11.25C13.32 19.5891 15 21.2791 15 23.3691ZM13.57 22.7691C13.3 21.7291 12.36 20.9591 11.25 20.9591H9.75C8.63 20.9591 7.69 21.7291 7.43 22.7691H13.58H13.57ZM8.59 17.8891C8.08 17.3791 7.8 16.6891 7.8 15.9691C7.8 15.2491 8.08 14.5591 8.59 14.0491C9.1 13.5391 9.78 13.2491 10.5 13.2491C11.22 13.2491 11.9 13.5391 12.41 14.0491C12.92 14.5591 13.2 15.2491 13.2 15.9691C13.2 16.6891 12.92 17.3791 12.41 17.8891C11.9 18.3991 11.22 18.6891 10.5 18.6891C9.78 18.6891 9.1 18.3991 8.59 17.8891ZM9.15 15.9591C9.15 16.3191 9.29 16.6691 9.55 16.9191C9.8 17.1791 10.15 17.3191 10.5 17.3191C10.85 17.3191 11.2 17.1791 11.45 16.9191C11.7 16.6591 11.85 16.3191 11.85 15.9591C11.85 15.5991 11.71 15.2491 11.45 14.9991C11.2 14.7391 10.85 14.5991 10.5 14.5991C10.15 14.5991 9.8 14.7391 9.55 14.9991C9.3 15.2591 9.15 15.5991 9.15 15.9591ZM26 11.8691C26 12.9291 25.58 13.9491 24.83 14.6991C24.08 15.4491 23.06 15.8691 22 15.8691C20.94 15.8691 19.92 15.4491 19.17 14.6991C18.42 13.9491 18 12.9291 18 11.8691C18 10.8091 18.42 9.78914 19.17 9.03914C19.92 8.28914 20.94 7.86914 22 7.86914C23.06 7.86914 24.08 8.28914 24.83 9.03914C25.58 9.78914 26 10.8091 26 11.8691ZM23.26 12.5991L22.53 11.8691L23.26 11.1391C23.41 10.9891 23.41 10.7591 23.26 10.6091C23.11 10.4591 22.88 10.4591 22.73 10.6091L22 11.3391L21.27 10.6091C21.12 10.4591 20.89 10.4591 20.74 10.6091C20.59 10.7591 20.59 10.9891 20.74 11.1391L21.47 11.8691L20.74 12.5991C20.59 12.7491 20.59 12.9791 20.74 13.1291C20.89 13.2791 21.12 13.2791 21.27 13.1291L22 12.3991L22.73 13.1291C22.88 13.2791 23.11 13.2791 23.26 13.1291C23.41 12.9791 23.41 12.7491 23.26 12.5991Z" fill="currentColor"/>
</svg>
