<svg viewBox="0 0 40 40" fill="none" xmlns="http://www.w3.org/2000/svg">
<rect width="40" height="40" rx="5" fill="#FF9C28" fill-opacity="0.15"/>
<path d="M15.85 16.5991C15.43 16.4291 14.98 16.3391 14.5 16.3391V15.4291C14.5 14.4291 15.31 13.6191 16.3 13.6191H21.56C21.34 14.0491 21.17 14.4991 21.09 14.9791H16.3C16.05 14.9791 15.85 15.1791 15.85 15.4291V16.5991ZM26.65 20.8091C27.12 20.7491 27.57 20.6391 28 20.4491V23.5991C28 24.5991 27.19 25.4091 26.2 25.4091H19.47C19.24 24.8991 18.91 24.4391 18.52 24.0491H20.35V22.9191C20.35 22.0391 21.06 21.3291 21.92 21.3291H23.72C24.59 21.3291 25.29 22.0391 25.29 22.9191V24.0491H26.19C26.44 24.0491 26.64 23.8491 26.64 23.5991V20.8091H26.65ZM23.95 22.9091C23.95 22.7891 23.85 22.6791 23.73 22.6791H21.93C21.81 22.6791 21.71 22.7791 21.71 22.9091V24.0391H23.96V22.9091H23.95ZM19 27.3691C19 27.7891 18.67 28.1291 18.25 28.1291H10.75C10.33 28.1291 10 27.7891 10 27.3691C10 25.2791 11.68 23.5891 13.75 23.5891H15.25C17.32 23.5891 19 25.2791 19 27.3691ZM17.57 26.7691C17.3 25.7291 16.36 24.9591 15.25 24.9591H13.75C12.63 24.9591 11.69 25.7291 11.43 26.7691H17.58H17.57ZM12.59 21.8891C12.08 21.3791 11.8 20.6891 11.8 19.9691C11.8 19.2491 12.08 18.5591 12.59 18.0491C13.1 17.5391 13.78 17.2491 14.5 17.2491C15.22 17.2491 15.9 17.5391 16.41 18.0491C16.92 18.5591 17.2 19.2491 17.2 19.9691C17.2 20.6891 16.92 21.3791 16.41 21.8891C15.9 22.3991 15.22 22.6891 14.5 22.6891C13.78 22.6891 13.1 22.3991 12.59 21.8891ZM13.15 19.9591C13.15 20.3191 13.29 20.6691 13.55 20.9191C13.8 21.1791 14.15 21.3191 14.5 21.3191C14.85 21.3191 15.2 21.1791 15.45 20.9191C15.7 20.6591 15.85 20.3191 15.85 19.9591C15.85 19.5991 15.71 19.2491 15.45 18.9991C15.2 18.7391 14.85 18.5991 14.5 18.5991C14.15 18.5991 13.8 18.7391 13.55 18.9991C13.3 19.2591 13.15 19.5991 13.15 19.9591ZM30 15.8691C30 16.9291 29.58 17.9491 28.83 18.6991C28.08 19.4491 27.06 19.8691 26 19.8691C24.94 19.8691 23.92 19.4491 23.17 18.6991C22.42 17.9491 22 16.9291 22 15.8691C22 14.8091 22.42 13.7891 23.17 13.0391C23.92 12.2891 24.94 11.8691 26 11.8691C27.06 11.8691 28.08 12.2891 28.83 13.0391C29.58 13.7891 30 14.8091 30 15.8691ZM27.26 16.5991L26.53 15.8691L27.26 15.1391C27.41 14.9891 27.41 14.7591 27.26 14.6091C27.11 14.4591 26.88 14.4591 26.73 14.6091L26 15.3391L25.27 14.6091C25.12 14.4591 24.89 14.4591 24.74 14.6091C24.59 14.7591 24.59 14.9891 24.74 15.1391L25.47 15.8691L24.74 16.5991C24.59 16.7491 24.59 16.9791 24.74 17.1291C24.89 17.2791 25.12 17.2791 25.27 17.1291L26 16.3991L26.73 17.1291C26.88 17.2791 27.11 17.2791 27.26 17.1291C27.41 16.9791 27.41 16.7491 27.26 16.5991Z" fill="#5C6468"/>
</svg>
