<svg viewBox="0 0 32 32" fill="none" xmlns="http://www.w3.org/2000/svg">
<path d="M22.1557 9.79439L18.3346 8.04067V8.04237C18.1987 7.97999 18.0353 7.98678 17.9047 8.06082C17.7741 8.13485 17.6971 8.26495 17.6971 8.40476V13.3086C17.6971 13.3086 17.6966 13.3089 17.6966 13.3091H12.971C11.3911 13.3091 10.082 14.3679 9.83876 15.7549C9.69096 15.8961 9.6 16.0876 9.6 16.2983C9.6 16.5277 9.70735 16.734 9.87895 16.878C10.2029 18.171 11.4639 19.1344 12.971 19.1344H18.4708C19.3542 19.1344 20.0956 19.6851 20.3111 20.4335C20.2231 20.557 20.1715 20.7044 20.1715 20.8629C20.1715 21.0214 20.2257 21.1774 20.3188 21.3032C20.1139 22.0656 19.3651 22.6299 18.4708 22.6299H11.2211C11.0683 22.5032 10.8655 22.426 10.6428 22.426C10.1672 22.426 9.78165 22.7785 9.78165 23.213C9.78165 23.6474 10.1672 23.9999 10.6428 23.9999C10.866 23.9999 11.0696 23.9222 11.2224 23.7948H18.4708C20.0041 23.7948 21.2823 22.7977 21.579 21.4709C21.7712 21.3265 21.8939 21.1078 21.8939 20.8626C21.8939 20.6175 21.7665 20.3905 21.5679 20.2463C21.2522 18.9431 19.9862 17.9693 18.4708 17.9693H12.971C12.123 17.9693 11.4057 17.4615 11.159 16.7588C11.2616 16.6292 11.3221 16.4702 11.3221 16.2981C11.3221 16.1073 11.2478 15.9323 11.1241 15.7961C11.3309 15.0361 12.0783 14.474 12.971 14.474H17.6937C17.8468 14.6016 18.0504 14.6796 18.2741 14.6796C18.7498 14.6796 19.1353 14.3271 19.1353 13.8926L19.1464 12.162L22.1557 10.5194C22.3045 10.4502 22.4 10.3102 22.4 10.1568C22.4 10.0034 22.3064 9.86333 22.1557 9.79415V9.79439Z" fill="currentColor"/>
</svg>
