<svg viewBox="0 0 13 16" fill="none" xmlns="http://www.w3.org/2000/svg">
<path d="M12.5557 1.79439L8.73464 0.0406702V0.0423693C8.59873 -0.0200122 8.43532 -0.0132158 8.3047 0.0608167C8.17408 0.134849 8.09714 0.264952 8.09714 0.404764V5.30863C8.09714 5.30863 8.09661 5.30887 8.09661 5.30911H3.37101C1.79114 5.30911 0.482026 6.3679 0.238766 7.75486C0.0909583 7.89613 0 8.08764 0 8.29833C0 8.52771 0.107352 8.73403 0.278956 8.87797C0.602863 10.171 1.86385 11.1344 3.37101 11.1344H8.87081C9.75422 11.1344 10.4956 11.6851 10.7111 12.4335C10.6231 12.557 10.5715 12.7044 10.5715 12.8629C10.5715 13.0214 10.6257 13.1774 10.7188 13.3032C10.5139 14.0656 9.76506 14.6299 8.87081 14.6299H1.62112C1.46829 14.5032 1.26548 14.426 1.04285 14.426C0.567167 14.426 0.181652 14.7785 0.181652 15.213C0.181652 15.6474 0.567167 15.9999 1.04285 15.9999C1.26601 15.9999 1.46961 15.9222 1.62244 15.7948H8.87081C10.4041 15.7948 11.6823 14.7977 11.979 13.4709C12.1712 13.3265 12.2939 13.1078 12.2939 12.8626C12.2939 12.6175 12.1665 12.3905 11.9679 12.2463C11.6522 10.9431 10.3862 9.96928 8.87081 9.96928H3.37101C2.52304 9.96928 1.80568 9.46149 1.55898 8.75879C1.66158 8.62917 1.72213 8.47018 1.72213 8.29809C1.72213 8.1073 1.64783 7.93229 1.52408 7.79612C1.73085 7.03613 2.47835 6.47397 3.37101 6.47397H8.0937C8.2468 6.60165 8.4504 6.67957 8.67409 6.67957C9.14977 6.67957 9.53529 6.32712 9.53529 5.89264L9.54639 4.16197L12.5557 2.51942C12.7045 2.45025 12.8 2.31019 12.8 2.15679C12.8 2.00338 12.7064 1.86333 12.5557 1.79415V1.79439Z" fill="currentColor"/>
</svg>
