<svg viewBox="0 0 32 32" fill="none" xmlns="http://www.w3.org/2000/svg">
<path d="M8 11C8 9.89688 8.89688 9 10 9H22C23.1031 9 24 9.89688 24 11V13C24 14.1031 23.1031 15 22 15H12.75V18C12.75 18.6906 13.3094 19.25 14 19.25H15V19C15 17.8969 15.8969 17 17 17H22C23.1031 17 24 17.8969 24 19V21C24 22.1031 23.1031 23 22 23H17C15.8969 23 15 22.1031 15 21V20.75H14C12.4812 20.75 11.25 19.5188 11.25 18V15H10C8.89688 15 8 14.1031 8 13V11ZM22 18.5H17C16.725 18.5 16.5 18.725 16.5 19V21C16.5 21.275 16.725 21.5 17 21.5H22C22.275 21.5 22.5 21.275 22.5 21V19C22.5 18.725 22.275 18.5 22 18.5Z" fill="black"/>
</svg>
