<svg id="Group_16160" data-name="Group 16160" xmlns="http://www.w3.org/2000/svg" viewBox="0 0 50 50">
  <g id="Icon-Level_Up" data-name="Icon-Level Up">
    <path id="circle-arrow-up" d="M26.719,11.689A2.351,2.351,0,0,0,25,10.938a2.213,2.213,0,0,0-1.719.752L13.125,22.627a2.345,2.345,0,0,0,3.437,3.192l6.095-6.571V35.938a2.344,2.344,0,0,0,4.688,0V19.248l6.095,6.563a2.345,2.345,0,0,0,3.437-3.192ZM25,0A25,25,0,1,0,50,25,25,25,0,0,0,25,0Zm0,45.313A20.313,20.313,0,1,1,45.313,25,20.335,20.335,0,0,1,25,45.313Z" fill="#3cb744"/>
  </g>
</svg>
