<svg viewBox="0 0 32 32" fill="none" xmlns="http://www.w3.org/2000/svg">
    <path d="M15.9566 10.0034C16.0972 9.6128 15.8941 9.18467 15.5035 9.04405C15.1128 8.90342 14.6847 9.10655 14.5441 9.49717L10.0441 21.9972C9.90347 22.3878 10.1066 22.8159 10.4972 22.9565C10.8878 23.0972 11.316 22.894 11.4566 22.5034L15.9566 10.0034ZM18.3972 9.0128C17.991 8.93155 17.5972 9.19405 17.516 9.6003L15.016 22.1003C14.9347 22.5065 15.1972 22.9003 15.6035 22.9815C16.0097 23.0628 16.4035 22.8003 16.4847 22.394L18.9847 9.89405C19.066 9.4878 18.8035 9.09405 18.3972 9.0128ZM21.2503 9.0003C20.8347 9.0003 20.5003 9.33467 20.5003 9.7503V22.2503C20.5003 22.6659 20.8347 23.0003 21.2503 23.0003C21.666 23.0003 22.0003 22.6659 22.0003 22.2503V9.7503C22.0003 9.33467 21.666 9.0003 21.2503 9.0003Z" fill="currentColor"/>
</svg>
