<svg viewBox="0 0 24 24" fill="none" xmlns="http://www.w3.org/2000/svg">
<rect width="24" height="24" rx="12" fill="#0077B5"/>
<path d="M8.68661 18H6.19821V9.98839H8.68661V18ZM7.44107 8.89554C6.64554 8.89554 6 8.23661 6 7.44107C6 7.05888 6.15183 6.69233 6.42208 6.42208C6.69233 6.15183 7.05888 6 7.44107 6C7.82327 6 8.18981 6.15183 8.46006 6.42208C8.73032 6.69233 8.88214 7.05888 8.88214 7.44107C8.88214 8.23661 8.23661 8.89554 7.44107 8.89554ZM17.9973 18H15.5143V14.1C15.5143 13.1705 15.4955 11.9786 14.2205 11.9786C12.9268 11.9786 12.7286 12.9884 12.7286 14.033V18H10.2429V9.98839H12.6295V11.0813H12.6643C12.9964 10.4518 13.808 9.7875 15.0188 9.7875C17.5366 9.7875 18 11.4455 18 13.5991V18H17.9973Z" fill="white"/>
</svg>
