<svg viewBox="0 0 32 32" fill="none" xmlns="http://www.w3.org/2000/svg">
<path d="M14.7812 20.5312L18.7812 16.5312C19.075 16.2375 19.075 15.7625 18.7812 15.4719L14.7812 11.4688C14.4875 11.175 14.0125 11.175 13.7219 11.4688C13.4313 11.7625 13.4281 12.2375 13.7219 12.5281L16.4406 15.2469L8.75 15.25C8.33437 15.25 8 15.5844 8 16C8 16.4156 8.33437 16.75 8.75 16.75H16.4406L13.7219 19.4688C13.4281 19.7625 13.4281 20.2375 13.7219 20.5281C14.0156 20.8187 14.4906 20.8219 14.7812 20.5281V20.5312ZM18.75 10.5H21.25C21.9406 10.5 22.5 11.0594 22.5 11.75V20.25C22.5 20.9406 21.9406 21.5 21.25 21.5H18.75C18.3344 21.5 18 21.8344 18 22.25C18 22.6656 18.3344 23 18.75 23H21.25C22.7688 23 24 21.7688 24 20.25V11.75C24 10.2313 22.7688 9 21.25 9H18.75C18.3344 9 18 9.33437 18 9.75C18 10.1656 18.3344 10.5 18.75 10.5Z" fill="currentColor"/>
</svg>
