<svg viewBox="0 0 32 32" fill="none" xmlns="http://www.w3.org/2000/svg">
<path d="M14.5 21C14.5 20.1719 13.8281 19.5 13 19.5H10C9.725 19.5 9.5 19.275 9.5 19V10C9.5 9.725 9.725 9.5 10 9.5H22C22.275 9.5 22.5 9.725 22.5 10V19C22.5 19.275 22.275 19.5 22 19.5H17.6656C17.3406 19.5 17.025 19.6062 16.7656 19.8L14.5 21.5V21ZM14.4938 23.3813L14.5 23.375L17.6656 21H22C23.1031 21 24 20.1031 24 19V10C24 8.89688 23.1031 8 22 8H10C8.89688 8 8 8.89688 8 10V19C8 20.1031 8.89688 21 10 21H11.5H13V22.5V22.625V22.6344V22.8344V23.5C13 23.6906 13.1063 23.8625 13.275 23.9469C13.4437 24.0312 13.6469 24.0125 13.8 23.9L14.3344 23.5L14.4938 23.3813ZM15.25 17.25C15.25 17.6656 15.5844 18 16 18C16.4156 18 16.75 17.6656 16.75 17.25V15.25H18.75C19.1656 15.25 19.5 14.9156 19.5 14.5C19.5 14.0844 19.1656 13.75 18.75 13.75H16.75V11.75C16.75 11.3344 16.4156 11 16 11C15.5844 11 15.25 11.3344 15.25 11.75V13.75H13.25C12.8344 13.75 12.5 14.0844 12.5 14.5C12.5 14.9156 12.8344 15.25 13.25 15.25H15.25V17.25Z" fill="currentColor"/>
</svg>
