<svg viewBox="0 0 32 32" fill="none" xmlns="http://www.w3.org/2000/svg">
<path d="M14.5 21.0004C14.5 20.1722 13.8281 19.5004 13 19.5004H10C9.725 19.5004 9.5 19.2754 9.5 19.0004V10.0004C9.5 9.72537 9.725 9.50037 10 9.50037H22C22.275 9.50037 22.5 9.72537 22.5 10.0004V19.0004C22.5 19.2754 22.275 19.5004 22 19.5004H17.6656C17.3406 19.5004 17.025 19.6066 16.7656 19.8004L14.5 21.5004V21.0004ZM14.4938 23.3816L14.5 23.3754L17.6656 21.0004H22C23.1031 21.0004 24 20.1035 24 19.0004V10.0004C24 8.89724 23.1031 8.00037 22 8.00037H10C8.89688 8.00037 8 8.89724 8 10.0004V19.0004C8 20.1035 8.89688 21.0004 10 21.0004H11.5H13V22.5004V22.6254V22.6347V22.8347V23.5004C13 23.691 13.1063 23.8629 13.275 23.9472C13.4437 24.0316 13.6469 24.0129 13.8 23.9004L14.3344 23.5004L14.4938 23.3816ZM18.65 11.8441C18.1906 11.3847 17.4438 11.3847 16.9844 11.8441L16.5188 12.3129L18.1844 13.9785L18.65 13.5129C19.1094 13.0535 19.1094 12.3066 18.65 11.8472V11.8441ZM13.5656 15.266C13.4375 15.3941 13.3469 15.5535 13.3031 15.7316L13.0156 16.8754C12.9719 17.0472 13.0219 17.2254 13.1469 17.3504C13.2719 17.4754 13.45 17.5254 13.6219 17.4816L14.7656 17.1941C14.9406 17.1504 15.1031 17.0597 15.2312 16.9316L17.4781 14.6847L15.8125 13.0191L13.5656 15.266Z" fill="currentColor"/>
</svg>
