<svg xmlns="http://www.w3.org/2000/svg" viewBox="0 0 24 24"><g transform="translate(-6067 826)"><rect fill="none" width="24" height="24" transform="translate(6067 -826)"/><path fill="currentColor" d="M13.5-7.793c-.68-.536-1.244-.967-4.493-3.325-.454-.333-1.356-1.132-1.993-1.132H6.989c-.637,0-1.539.8-2,1.131C1.747-8.761,1.183-8.329.5-7.793A1.306,1.306,0,0,0,0-6.759V0A1.751,1.751,0,0,0,1.75,1.75h10.5A1.75,1.75,0,0,0,14,0V-6.759A1.3,1.3,0,0,0,13.5-7.793ZM12.688,0a.438.438,0,0,1-.437.438H1.75A.438.438,0,0,1,1.312,0V-4.684l3.721,3.1A3.091,3.091,0,0,0,7-.875a3.085,3.085,0,0,0,1.968-.711l3.72-3.1Zm0-6.393L8.127-2.617a1.806,1.806,0,0,1-2.255,0L1.312-6.393l0-.369c.635-.5,1.155-.9,4.454-3.3.084-.062.182-.137.291-.221a6.14,6.14,0,0,1,.94-.64,6.168,6.168,0,0,1,.941.64c.108.084.207.16.294.224,3.293,2.392,3.815,2.794,4.452,3.3Z" transform="translate(6072 -808.75)" fill="currentColor"/></g></svg>