<svg viewBox="0 0 32 32" fill="none" xmlns="http://www.w3.org/2000/svg">
<path d="M14.5 21.3129C14.5 20.433 13.8281 19.7191 13 19.7191H10C9.725 19.7191 9.5 19.4801 9.5 19.1879V9.6254C9.5 9.33321 9.725 9.09415 10 9.09415H22C22.275 9.09415 22.5 9.33321 22.5 9.6254V19.1879C22.5 19.4801 22.275 19.7191 22 19.7191H17.6656C17.3406 19.7191 17.025 19.832 16.7656 20.0379L14.5 21.8441V21.3129ZM14.4938 23.843L14.5 23.8363L17.6656 21.3129H22C23.1031 21.3129 24 20.36 24 19.1879V9.6254C24 8.45333 23.1031 7.5004 22 7.5004H10C8.89688 7.5004 8 8.45333 8 9.6254V19.1879C8 20.36 8.89688 21.3129 10 21.3129H11.5H13V22.9066V23.0395V23.0494V23.2619V23.9691C13 24.1717 13.1063 24.3543 13.275 24.4439C13.4437 24.5336 13.6469 24.5137 13.8 24.3941L14.3344 23.9691L14.4938 23.843ZM14.4156 11.2191C13.3594 11.2191 12.5 12.1289 12.5 13.2545C12.5 13.7924 12.7031 14.3104 13.0594 14.6922L15.6438 17.4381C15.8375 17.6439 16.1562 17.6439 16.35 17.4381L18.9344 14.6922C19.2937 14.3104 19.4937 13.7924 19.4937 13.2545C19.4937 12.1322 18.6375 11.2191 17.5781 11.2191C17.0719 11.2191 16.5844 11.435 16.225 11.8135L15.9938 12.0592L15.7625 11.8135C15.4031 11.4316 14.9156 11.2191 14.4094 11.2191H14.4156Z" fill="currentColor"/>
</svg>
