<svg width="16" height="16" viewBox="0 0 16 16" fill="none" xmlns="http://www.w3.org/2000/svg">
<path d="M6.5 13.0004C6.5 12.1722 5.82812 11.5004 5 11.5004H2C1.725 11.5004 1.5 11.2754 1.5 11.0004V2.00037C1.5 1.72537 1.725 1.50037 2 1.50037H14C14.275 1.50037 14.5 1.72537 14.5 2.00037V11.0004C14.5 11.2754 14.275 11.5004 14 11.5004H9.66562C9.34062 11.5004 9.025 11.6066 8.76562 11.8004L6.5 13.5004V13.0004ZM6.49375 15.3816L6.5 15.3754L9.66562 13.0004H14C15.1031 13.0004 16 12.1035 16 11.0004V2.00037C16 0.897241 15.1031 0.000366211 14 0.000366211H2C0.896875 0.000366211 0 0.897241 0 2.00037V11.0004C0 12.1035 0.896875 13.0004 2 13.0004H3.5H5V14.5004V14.6254V14.6347V14.8347V15.5004C5 15.691 5.10625 15.8629 5.275 15.9472C5.44375 16.0316 5.64688 16.0129 5.8 15.9004L6.33437 15.5004L6.49375 15.3816ZM6 5.50037C6.26522 5.50037 6.51957 5.39501 6.70711 5.20747C6.89464 5.01994 7 4.76558 7 4.50037C7 4.23515 6.89464 3.9808 6.70711 3.79326C6.51957 3.60572 6.26522 3.50037 6 3.50037C5.73478 3.50037 5.48043 3.60572 5.29289 3.79326C5.10536 3.9808 5 4.23515 5 4.50037C5 4.76558 5.10536 5.01994 5.29289 5.20747C5.48043 5.39501 5.73478 5.50037 6 5.50037ZM10 5.50037C10.2652 5.50037 10.5196 5.39501 10.7071 5.20747C10.8946 5.01994 11 4.76558 11 4.50037C11 4.23515 10.8946 3.9808 10.7071 3.79326C10.5196 3.60572 10.2652 3.50037 10 3.50037C9.73478 3.50037 9.48043 3.60572 9.29289 3.79326C9.10536 3.9808 9 4.23515 9 4.50037C9 4.76558 9.10536 5.01994 9.29289 5.20747C9.48043 5.39501 9.73478 5.50037 10 5.50037ZM4.70312 7.44099C4.39375 7.71599 4.36875 8.19099 4.64375 8.50037C5.46563 9.41912 6.66562 10.0004 7.99687 10.0004C9.32812 10.0004 10.5281 9.41912 11.35 8.50037C11.625 8.19099 11.6 7.71912 11.2906 7.44099C10.9812 7.16287 10.5094 7.19099 10.2312 7.50037C9.68125 8.11599 8.88437 8.50037 7.99375 8.50037C7.10313 8.50037 6.30937 8.11599 5.75625 7.50037C5.48125 7.19099 5.00625 7.16599 4.69688 7.44099H4.70312Z" fill="currentColor"/>
</svg>
