<svg xmlns="http://www.w3.org/2000/svg" viewBox="0 0 24 24"><g transform="translate(-6067 826)"><rect fill="none" width="24" height="24" transform="translate(6067 -826)"/><path fill="currentColor" d="M0-8.75A1.75,1.75,0,0,1,1.75-10.5h10.5A1.751,1.751,0,0,1,14-8.75v7A1.752,1.752,0,0,1,12.25,0H1.75A1.751,1.751,0,0,1,0-1.75Zm1.313,0v.6L6.029-4.274a1.526,1.526,0,0,0,1.941,0l4.717-3.872v-.629a.456.456,0,0,0-.437-.437H1.75a.455.455,0,0,0-.437.438Zm0,2.3v4.7a.438.438,0,0,0,.438.438h10.5a.439.439,0,0,0,.438-.437v-4.7L8.8-3.259a2.878,2.878,0,0,1-3.634,0Z" transform="translate(6072 -808.5)" fill="currentColor"/></g></svg>