<svg viewBox="0 0 32 32" fill="none" xmlns="http://www.w3.org/2000/svg">
    <path d="M16.0005 10.498C16.0786 10.498 16.1567 10.5105 16.2317 10.5387L23.0442 12.998L16.2317 15.4574C16.1567 15.4855 16.0786 15.498 16.0005 15.498C15.9224 15.498 15.8442 15.4855 15.7692 15.4574L11.7786 14.0168L16.1786 12.3668C16.438 12.2699 16.5692 11.9824 16.4724 11.723C16.3755 11.4637 16.088 11.3324 15.8286 11.4293L10.8411 13.298C10.6786 13.3605 10.5192 13.4293 10.363 13.5043L8.95986 12.998L15.7724 10.5387C15.8474 10.5105 15.9255 10.498 16.0036 10.498H16.0005ZM6.49423 13.7043L8.91298 14.5762C8.06298 15.473 7.54736 16.6605 7.50361 17.9418C7.50048 17.9605 7.50048 17.9793 7.50048 17.998C7.50048 18.8855 7.16298 19.8043 6.80361 20.523C6.60048 20.9293 6.36923 21.3293 6.10048 21.698C6.00048 21.8324 5.97236 22.0074 6.02861 22.1668C6.08486 22.3262 6.21611 22.4449 6.37861 22.4855L8.37861 22.9855C8.50986 23.0199 8.65048 22.9949 8.76611 22.923C8.88173 22.8512 8.96298 22.7324 8.98798 22.598C9.25673 21.2605 9.12236 20.0605 8.92236 19.2012C8.82236 18.7637 8.68798 18.3168 8.50361 17.9043C8.56298 16.748 9.10361 15.6887 9.96298 14.9605L15.2599 16.873C15.4974 16.9574 15.7474 17.0012 16.0005 17.0012C16.2536 17.0012 16.5036 16.9574 16.7411 16.873L25.5067 13.7043C25.8036 13.598 26.0005 13.3137 26.0005 12.998C26.0005 12.6824 25.8036 12.4012 25.5067 12.2918L16.7411 9.12617C16.5036 9.0418 16.2536 8.99805 16.0005 8.99805C15.7474 8.99805 15.4974 9.0418 15.2599 9.12617L6.49423 12.2918C6.19736 12.4012 6.00048 12.6824 6.00048 12.998C6.00048 13.3137 6.19736 13.5949 6.49423 13.7043ZM21.5192 16.2043L20.0661 16.7293L20.463 20.4949C20.313 20.6043 20.063 20.7449 19.6942 20.8887C18.813 21.2355 17.5005 21.498 16.0005 21.498C14.5005 21.498 13.188 21.2355 12.3036 20.8918C11.9349 20.748 11.6849 20.6043 11.5349 20.498L11.9317 16.7324L10.4786 16.2074L10.0005 20.748C10.0005 21.8512 12.688 22.998 16.0005 22.998C19.313 22.998 22.0005 21.8512 22.0005 20.748L21.5224 16.2043H21.5192ZM20.6067 20.373C20.6086 20.3706 20.6099 20.3677 20.6107 20.3647C20.6114 20.3617 20.6114 20.3586 20.6108 20.3555C20.6102 20.3525 20.609 20.3496 20.6072 20.3471C20.6054 20.3446 20.603 20.3424 20.6004 20.3409C20.5977 20.3393 20.5947 20.3383 20.5916 20.338C20.5885 20.3377 20.5854 20.338 20.5825 20.339C20.5795 20.34 20.5768 20.3416 20.5745 20.3437C20.5723 20.3458 20.5704 20.3483 20.5692 20.3512C20.5673 20.3536 20.566 20.3565 20.5653 20.3595C20.5646 20.3625 20.5646 20.3657 20.5652 20.3687C20.5658 20.3717 20.567 20.3746 20.5688 20.3771C20.5706 20.3797 20.5729 20.3818 20.5756 20.3833C20.5783 20.3849 20.5813 20.3859 20.5843 20.3862C20.5874 20.3865 20.5905 20.3862 20.5935 20.3852C20.5964 20.3842 20.5991 20.3827 20.6014 20.3806C20.6037 20.3785 20.6055 20.3759 20.6067 20.373ZM11.3942 20.373C11.3948 20.3764 11.3962 20.3796 11.3982 20.3823C11.4002 20.385 11.4029 20.3873 11.4059 20.3888C11.409 20.3903 11.4123 20.3911 11.4157 20.3911C11.4192 20.3911 11.4225 20.3904 11.4256 20.3888C11.4286 20.3873 11.4313 20.3851 11.4333 20.3824C11.4353 20.3796 11.4367 20.3765 11.4373 20.3731C11.4379 20.3698 11.4377 20.3663 11.4367 20.363C11.4358 20.3598 11.4341 20.3568 11.4317 20.3543C11.4311 20.3509 11.4298 20.3478 11.4277 20.345C11.4257 20.3423 11.4231 20.3401 11.42 20.3385C11.417 20.337 11.4136 20.3362 11.4102 20.3362C11.4068 20.3362 11.4035 20.337 11.4004 20.3385C11.3974 20.34 11.3947 20.3423 11.3927 20.345C11.3906 20.3477 11.3893 20.3509 11.3887 20.3542C11.3881 20.3576 11.3882 20.361 11.3892 20.3643C11.3902 20.3676 11.3919 20.3706 11.3942 20.373Z" fill="currentColor"/>
</svg>
