<svg viewBox="0 0 32 32" fill="none" xmlns="http://www.w3.org/2000/svg">
<path d="M10.5 8C11.163 8 11.7989 8.26339 12.2678 8.73223C12.7366 9.20107 13 9.83696 13 10.5C13 11.163 12.7366 11.7989 12.2678 12.2678C11.7989 12.7366 11.163 13 10.5 13C9.83696 13 9.20107 12.7366 8.73223 12.2678C8.26339 11.7989 8 11.163 8 10.5C8 9.83696 8.26339 9.20107 8.73223 8.73223C9.20107 8.26339 9.83696 8 10.5 8ZM22 8C22.663 8 23.2989 8.26339 23.7678 8.73223C24.2366 9.20107 24.5 9.83696 24.5 10.5C24.5 11.163 24.2366 11.7989 23.7678 12.2678C23.2989 12.7366 22.663 13 22 13C21.337 13 20.7011 12.7366 20.2322 12.2678C19.7634 11.7989 19.5 11.163 19.5 10.5C19.5 9.83696 19.7634 9.20107 20.2322 8.73223C20.7011 8.26339 21.337 8 22 8ZM6 17.3344C6 15.4938 7.49375 14 9.33437 14H10.6687C11.1656 14 11.6375 14.1094 12.0625 14.3031C12.0219 14.5281 12.0031 14.7625 12.0031 15C12.0031 16.1938 12.5281 17.2656 13.3562 18C13.35 18 13.3438 18 13.3344 18H6.66562C6.3 18 6 17.7 6 17.3344ZM18.6656 18C18.6594 18 18.6531 18 18.6438 18C19.475 17.2656 19.9969 16.1938 19.9969 15C19.9969 14.7625 19.975 14.5312 19.9375 14.3031C20.3625 14.1062 20.8344 14 21.3313 14H22.6656C24.5063 14 26 15.4938 26 17.3344C26 17.7031 25.7 18 25.3344 18H24.9156C24.7094 17.4187 24.1531 17 23.5 17H22.5C21.8469 17 21.2906 17.4187 21.0844 18H18.6656ZM17.8313 19C18.4344 19 19.0062 19.1281 19.525 19.3594C19.2031 19.6344 19 20.0437 19 20.5V20.7688C18.6469 20.5969 18.2531 20.5 17.8344 20.5H14.1656C12.9219 20.5 11.8781 21.35 11.5844 22.5H19.3813C19.6562 22.8062 20.0562 23 20.5 23H21V23.5C21 23.675 21.0312 23.8438 21.0844 24H10.8344C10.375 24 10 23.6281 10 23.1656C10 20.8656 11.8656 19 14.1656 19H17.8344H17.8313ZM16 16.5C16.197 16.5 16.392 16.4612 16.574 16.3858C16.756 16.3104 16.9214 16.1999 17.0607 16.0607C17.1999 15.9214 17.3104 15.756 17.3858 15.574C17.4612 15.392 17.5 15.197 17.5 15C17.5 14.803 17.4612 14.608 17.3858 14.426C17.3104 14.244 17.1999 14.0786 17.0607 13.9393C16.9214 13.8001 16.756 13.6896 16.574 13.6142C16.392 13.5388 16.197 13.5 16 13.5C15.803 13.5 15.608 13.5388 15.426 13.6142C15.244 13.6896 15.0786 13.8001 14.9393 13.9393C14.8001 14.0786 14.6896 14.244 14.6142 14.426C14.5388 14.608 14.5 14.803 14.5 15C14.5 15.197 14.5388 15.392 14.6142 15.574C14.6896 15.756 14.8001 15.9214 14.9393 16.0607C15.0786 16.1999 15.244 16.3104 15.426 16.3858C15.608 16.4612 15.803 16.5 16 16.5ZM16 12C16.394 12 16.7841 12.0776 17.1481 12.2284C17.512 12.3791 17.8427 12.6001 18.1213 12.8787C18.3999 13.1573 18.6209 13.488 18.7716 13.8519C18.9224 14.2159 19 14.606 19 15C19 15.394 18.9224 15.7841 18.7716 16.1481C18.6209 16.512 18.3999 16.8427 18.1213 17.1213C17.8427 17.3999 17.512 17.6209 17.1481 17.7716C16.7841 17.9224 16.394 18 16 18C15.606 18 15.2159 17.9224 14.8519 17.7716C14.488 17.6209 14.1573 17.3999 13.8787 17.1213C13.6001 16.8427 13.3791 16.512 13.2284 16.1481C13.0776 15.7841 13 15.394 13 15C13 14.606 13.0776 14.2159 13.2284 13.8519C13.3791 13.488 13.6001 13.1573 13.8787 12.8787C14.1573 12.6001 14.488 12.3791 14.8519 12.2284C15.2159 12.0776 15.606 12 16 12ZM22 18.5C22 18.225 22.225 18 22.5 18H23.5C23.775 18 24 18.225 24 18.5V20H25.5C25.775 20 26 20.225 26 20.5V21.5C26 21.775 25.775 22 25.5 22H24V23.5C24 23.775 23.775 24 23.5 24H22.5C22.225 24 22 23.775 22 23.5V22H20.5C20.225 22 20 21.775 20 21.5V20.5C20 20.225 20.225 20 20.5 20H22V18.5Z" fill="currentcolor"/>
</svg>
