<svg viewBox="0 0 32 32" fill="none" xmlns="http://www.w3.org/2000/svg">
<path d="M22.5 11.6V13.5556H18V11.6H22.5ZM9.5 10.1334C8.67188 10.1334 8 10.7903 8 11.6V13.5556C8 14.3653 8.67188 15.0223 9.5 15.0223H22.5C23.3281 15.0223 24 14.3653 24 13.5556V11.6C24 10.7903 23.3281 10.1334 22.5 10.1334H9.5ZM22.5 18.4445V20.4H14V18.4445H22.5ZM9.5 16.9778C8.67188 16.9778 8 17.6348 8 18.4445V20.4C8 21.2098 8.67188 21.8667 9.5 21.8667H22.5C23.3281 21.8667 24 21.2098 24 20.4V18.4445C24 17.6348 23.3281 16.9778 22.5 16.9778H9.5Z" fill="currentColor"/>
</svg>
