<svg viewBox="0 0 32 32" fill="currentColor" xmlns="http://www.w3.org/2000/svg">
<path d="M8.51001 9.65165C8.51001 9.22948 8.84965 8.88985 9.27181 8.88985H10.2876C10.7097 8.88985 11.0494 9.22948 11.0494 9.65165V13.4607H11.5572C11.9794 13.4607 12.319 13.8003 12.319 14.2225C12.319 14.6446 11.9794 14.9843 11.5572 14.9843H9.01788C8.59571 14.9843 8.25608 14.6446 8.25608 14.2225C8.25608 13.8003 8.59571 13.4607 9.01788 13.4607H9.52575V10.4135H9.27181C8.84965 10.4135 8.51001 10.0738 8.51001 9.65165ZM10.5002 18.7044C10.2939 18.4695 9.91935 18.4854 9.73842 18.7425L9.38291 19.2345C9.1385 19.5773 8.66237 19.6567 8.31956 19.4122C7.97675 19.1678 7.8974 18.6917 8.14181 18.3489L8.49414 17.8537C9.24642 16.7999 10.7891 16.7237 11.6429 17.6982C12.319 18.4727 12.3032 19.6313 11.608 20.3867L10.5034 21.5866H11.5572C11.9794 21.5866 12.319 21.9262 12.319 22.3484C12.319 22.7705 11.9794 23.1102 11.5572 23.1102H8.76395C8.4624 23.1102 8.18625 22.9324 8.06563 22.6531C7.94501 22.3738 7.99897 22.0532 8.20212 21.831L10.4875 19.3551C10.6558 19.171 10.6589 18.8917 10.497 18.7044H10.5002ZM14.6044 10.1595H23.2382C23.6604 10.1595 24 10.4992 24 10.9213C24 11.3435 23.6604 11.6831 23.2382 11.6831H14.6044C14.1823 11.6831 13.8426 11.3435 13.8426 10.9213C13.8426 10.4992 14.1823 10.1595 14.6044 10.1595ZM14.6044 15.2382H23.2382C23.6604 15.2382 24 15.5778 24 16C24 16.4222 23.6604 16.7618 23.2382 16.7618H14.6044C14.1823 16.7618 13.8426 16.4222 13.8426 16C13.8426 15.5778 14.1823 15.2382 14.6044 15.2382ZM14.6044 20.3169H23.2382C23.6604 20.3169 24 20.6565 24 21.0787C24 21.5009 23.6604 21.8405 23.2382 21.8405H14.6044C14.1823 21.8405 13.8426 21.5009 13.8426 21.0787C13.8426 20.6565 14.1823 20.3169 14.6044 20.3169Z" fill="currentcolor"/>
</svg>
