<svg viewBox="0 0 169 150" fill="none" xmlns="http://www.w3.org/2000/svg">
<g clip-path="url(#clip0_64383_80909)">
<path d="M86.528 0.326991L81.0898 1.72939L14.0903 19.0072L8.65212 20.4096C6.01249 21.0935 3.75192 22.7965 2.36635 25.145C0.980788 27.4936 0.583383 30.2958 1.26132 32.9369L24.8425 124.379C25.5264 127.019 27.2294 129.28 29.5779 130.665C31.9264 132.051 34.7286 132.448 37.3698 131.77L37.3838 131.767L115.232 111.691L115.246 111.688C117.885 111.004 120.146 109.301 121.531 106.952C122.917 104.604 123.314 101.801 122.636 99.1603L99.0553 7.71783C98.3714 5.0782 96.6684 2.81762 94.3199 1.43204C91.9714 0.0464695 89.1692 -0.350944 86.528 0.326991Z" fill="#74B0EA" fill-opacity="0.5"/>
<path d="M87.2674 3.1941L80.8262 4.85514L15.8324 21.6157L9.39139 23.2768C7.51164 23.7638 5.90183 24.9765 4.91513 26.6489C3.92843 28.3214 3.64543 30.3169 4.1282 32.1977L27.7094 123.64C28.1964 125.52 29.4091 127.13 31.0816 128.116C32.754 129.103 34.7495 129.386 36.6304 128.903L36.6444 128.9L114.492 108.824L114.506 108.821C116.386 108.334 117.996 107.121 118.983 105.448C119.969 103.776 120.252 101.781 119.769 99.8997L96.1882 8.45729C95.7013 6.57757 94.4885 4.96777 92.8161 3.98107C91.1437 2.99437 89.1482 2.71135 87.2674 3.1941Z" fill="white"/>
<path d="M82.4035 32.8054L43.0222 42.961C42.5824 43.0744 42.1155 43.0085 41.7243 42.7777C41.333 42.5469 41.0495 42.1701 40.9361 41.7302C40.8227 41.2904 40.8886 40.8235 41.1194 40.4323C41.3502 40.041 41.727 39.7575 42.1669 39.6441L81.5482 29.4885C81.9879 29.3755 82.4544 29.4417 82.8453 29.6726C83.2362 29.9034 83.5195 30.28 83.6328 30.7196C83.7462 31.1592 83.6804 31.6258 83.4499 32.0169C83.2194 32.408 82.843 32.6916 82.4035 32.8054Z" fill="#74B0EA" fill-opacity="0.5"/>
<path d="M90.688 36.6385L44.4656 48.5583C44.0257 48.6718 43.5588 48.6058 43.1676 48.375C42.7764 48.1442 42.4929 47.7674 42.3795 47.3276C42.266 46.8877 42.332 46.4208 42.5628 46.0296C42.7936 45.6384 43.1704 45.3549 43.6102 45.2414L89.8327 33.3216C90.2725 33.2082 90.7394 33.2741 91.1306 33.5049C91.5219 33.7357 91.8054 34.1125 91.9188 34.5524C92.0322 34.9922 91.9663 35.4591 91.7355 35.8503C91.5047 36.2416 91.1279 36.5251 90.688 36.6385Z" fill="#74B0EA" fill-opacity="0.5"/>
<path d="M88.8723 57.8895L49.491 68.0451C49.2732 68.1013 49.0465 68.114 48.8238 68.0826C48.6011 68.0511 48.3867 67.9761 48.193 67.8618C47.9993 67.7475 47.83 67.5962 47.6948 67.4165C47.5595 67.2367 47.461 67.0321 47.4048 66.8144C47.3487 66.5966 47.336 66.3698 47.3674 66.1471C47.3989 65.9244 47.4739 65.7101 47.5882 65.5164C47.7025 65.3227 47.8538 65.1534 48.0335 65.0181C48.2132 64.8829 48.4178 64.7844 48.6356 64.7282L88.0169 54.5726C88.2347 54.5164 88.4614 54.5037 88.6841 54.5351C88.9068 54.5666 89.1212 54.6416 89.3149 54.7559C89.5086 54.8702 89.6779 55.0215 89.8131 55.2012C89.9484 55.381 90.0469 55.5855 90.1031 55.8033C90.1592 56.0211 90.1719 56.2479 90.1405 56.4706C90.109 56.6933 90.034 56.9076 89.9197 57.1013C89.8054 57.295 89.6541 57.4643 89.4744 57.5996C89.2947 57.7348 89.0901 57.8333 88.8723 57.8895Z" fill="#74B0EA" fill-opacity="0.5"/>
<path d="M97.1568 61.7227L50.9343 73.6426C50.7165 73.6987 50.4898 73.7114 50.2671 73.68C50.0444 73.6485 49.8301 73.5735 49.6364 73.4592C49.4427 73.3449 49.2733 73.1936 49.1381 73.0139C49.0029 72.8342 48.9044 72.6296 48.8482 72.4118C48.792 72.194 48.7793 71.9673 48.8108 71.7446C48.8422 71.5219 48.9172 71.3075 49.0315 71.1138C49.1458 70.9201 49.2971 70.7508 49.4769 70.6156C49.6566 70.4803 49.8612 70.3818 50.079 70.3257L96.3014 58.4058C96.7413 58.2924 97.2081 58.3583 97.5994 58.5892C97.9906 58.82 98.2741 59.1967 98.3875 59.6366C98.501 60.0764 98.435 60.5433 98.2042 60.9346C97.9734 61.3258 97.5966 61.6093 97.1568 61.7227Z" fill="#74B0EA" fill-opacity="0.5"/>
<path d="M95.3409 82.9737L55.9596 93.1294C55.5198 93.2424 55.0532 93.1763 54.6622 92.9454C54.2713 92.7146 53.988 92.3379 53.8746 91.8983C53.7612 91.4586 53.827 90.992 54.0576 90.6008C54.2882 90.2097 54.6646 89.9261 55.1042 89.8125L94.4855 79.6568C94.9254 79.5434 95.3922 79.6093 95.7835 79.8401C96.1747 80.0709 96.4582 80.4477 96.5716 80.8876C96.6851 81.3274 96.6191 81.7943 96.3883 82.1855C96.1575 82.5768 95.7807 82.8603 95.3409 82.9737Z" fill="#74B0EA" fill-opacity="0.5"/>
<path d="M103.626 86.8067L57.4031 98.7266C57.1852 98.7829 56.9584 98.7958 56.7355 98.7645C56.5127 98.7332 56.2982 98.6583 56.1043 98.544C55.9104 98.4297 55.741 98.2784 55.6056 98.0986C55.4703 97.9188 55.3717 97.7141 55.3155 97.4962C55.2593 97.2782 55.2466 97.0514 55.2781 96.8286C55.3096 96.6057 55.3848 96.3913 55.4992 96.1975C55.6136 96.0038 55.7652 95.8344 55.9451 95.6993C56.125 95.5641 56.3298 95.4657 56.5477 95.4097L102.77 83.4898C103.21 83.3764 103.677 83.4423 104.068 83.6731C104.459 83.904 104.743 84.2807 104.856 84.7206C104.97 85.1604 104.904 85.6273 104.673 86.0185C104.442 86.4098 104.065 86.6933 103.626 86.8067Z" fill="#74B0EA" fill-opacity="0.5"/>
<path d="M36.2991 53.3742L22.3625 56.9681C22.1516 57.0223 21.9278 56.9906 21.7403 56.8799C21.5528 56.7693 21.4168 56.5888 21.3622 56.378L18.163 43.9724C18.1089 43.7615 18.1406 43.5378 18.2513 43.3502C18.3619 43.1627 18.5424 43.0267 18.7532 42.9721L32.6899 39.3781C32.9007 39.324 33.1245 39.3557 33.312 39.4663C33.4996 39.577 33.6355 39.7575 33.6902 39.9683L36.8893 52.3739C36.9434 52.5847 36.9117 52.8085 36.8011 52.996C36.6904 53.1836 36.5099 53.3196 36.2991 53.3742Z" fill="#74B0EA" fill-opacity="0.5"/>
<path d="M42.7679 78.4584L28.8312 82.0524C28.6203 82.1065 28.3966 82.0748 28.209 81.9641C28.0215 81.8535 27.8855 81.673 27.8309 81.4622L24.6318 69.0566C24.5776 68.8457 24.6094 68.622 24.72 68.4345C24.8306 68.2469 25.0112 68.1109 25.2219 68.0563L39.1586 64.4623C39.3695 64.4082 39.5933 64.4399 39.7808 64.5506C39.9683 64.6612 40.1043 64.8417 40.1589 65.0525L43.358 77.4581C43.4122 77.669 43.3805 77.8927 43.2698 78.0803C43.1592 78.2678 42.9787 78.4038 42.7679 78.4584Z" fill="#74B0EA" fill-opacity="0.5"/>
<path d="M49.2367 103.542L35.3 107.136C35.0891 107.19 34.8653 107.159 34.6778 107.048C34.4903 106.937 34.3543 106.757 34.2997 106.546L31.1005 94.1406C31.0464 93.9297 31.0781 93.706 31.1888 93.5184C31.2994 93.3309 31.4799 93.1949 31.6907 93.1403L45.6274 89.5463C45.8383 89.4922 46.062 89.5239 46.2495 89.6346C46.4371 89.7452 46.5731 89.9257 46.6277 90.1365L49.8268 102.542C49.8809 102.753 49.8492 102.977 49.7386 103.164C49.6279 103.352 49.4474 103.488 49.2367 103.542Z" fill="#74B0EA" fill-opacity="0.5"/>
<path d="M140.842 23.5066H60.4187C57.6919 23.5097 55.0777 24.5942 53.1495 26.5224C51.2214 28.4505 50.1369 31.0647 50.1338 33.7915V128.226C50.1369 130.952 51.2214 133.567 53.1495 135.495C55.0777 137.423 57.6919 138.507 60.4187 138.51H140.842C143.569 138.507 146.183 137.423 148.111 135.495C150.04 133.567 151.124 130.952 151.127 128.226V33.7915C151.124 31.0647 150.04 28.4505 148.111 26.5224C146.183 24.5942 143.569 23.5097 140.842 23.5066Z" fill="#74B0EA" fill-opacity="0.5"/>
<path d="M140.843 26.4673H60.4188C58.477 26.4695 56.6154 27.2418 55.2423 28.6149C53.8693 29.9879 53.0969 31.8496 53.0947 33.7914V128.225C53.0969 130.167 53.8693 132.029 55.2423 133.402C56.6154 134.775 58.477 135.547 60.4188 135.55H140.843C142.784 135.547 144.646 134.775 146.019 133.402C147.392 132.029 148.164 130.167 148.167 128.225V33.7914C148.164 31.8496 147.392 29.988 146.019 28.6149C144.646 27.2418 142.784 26.4695 140.843 26.4673Z" fill="white"/>
<path d="M149.291 150C159.66 150 168.066 141.594 168.066 131.225C168.066 120.856 159.66 112.451 149.291 112.451C138.922 112.451 130.517 120.856 130.517 131.225C130.517 141.594 138.922 150 149.291 150Z" fill="#0046AB"/>
<path d="M157 129.133C157 129.577 156.643 129.933 156.2 129.933H152.467H151.4C150.957 129.933 150.6 129.577 150.6 129.133C150.6 128.69 150.957 128.333 151.4 128.333H152.467H154.27L152.533 126.597C151.593 125.66 150.323 125.133 149 125.133C146.577 125.133 144.493 126.603 143.6 128.703C143.427 129.11 142.957 129.3 142.55 129.127C142.143 128.953 141.953 128.483 142.127 128.077C143.263 125.407 145.913 123.533 149 123.533C150.75 123.533 152.427 124.227 153.663 125.463L155.4 127.203V125.4V125.387V124.333C155.4 123.89 155.757 123.533 156.2 123.533C156.643 123.533 157 123.89 157 124.333V129.133ZM141.8 132.067H145.533C145.977 132.067 146.333 132.423 146.333 132.867C146.333 133.31 145.977 133.667 145.533 133.667H143.73L145.467 135.403C146.407 136.34 147.677 136.867 149 136.867C151.42 136.867 153.5 135.403 154.397 133.307C154.57 132.9 155.04 132.713 155.447 132.887C155.853 133.06 156.04 133.53 155.867 133.937C154.727 136.6 152.083 138.467 149 138.467C147.25 138.467 145.573 137.773 144.337 136.537L142.6 134.797V136.6C142.6 137.043 142.243 137.4 141.8 137.4C141.357 137.4 141 137.043 141 136.6V132.867C141 132.423 141.357 132.067 141.8 132.067Z" fill="white"/>
<path d="M128.739 78.3585H88.0691C87.844 78.3588 87.6211 78.3147 87.4131 78.2287C87.2051 78.1427 87.0161 78.0166 86.8568 77.8576C86.6976 77.6985 86.5712 77.5096 86.485 77.3017C86.3989 77.0938 86.3545 76.8709 86.3545 76.6458C86.3545 76.4207 86.3989 76.1979 86.485 75.9899C86.5712 75.782 86.6976 75.5931 86.8568 75.4341C87.0161 75.275 87.2051 75.1489 87.4131 75.0629C87.6211 74.977 87.844 74.9329 88.0691 74.9331H128.739C129.193 74.9336 129.628 75.1143 129.949 75.4354C130.269 75.7566 130.45 76.1919 130.45 76.6458C130.45 77.0997 130.269 77.5351 129.949 77.8562C129.628 78.1774 129.193 78.358 128.739 78.3585Z" fill="#74B0EA" fill-opacity="0.5"/>
<path d="M135.804 84.139H88.0691C87.844 84.1393 87.6211 84.0952 87.4131 84.0092C87.2051 83.9233 87.0161 83.7971 86.8568 83.6381C86.6976 83.479 86.5712 83.2901 86.485 83.0822C86.3989 82.8743 86.3545 82.6514 86.3545 82.4263C86.3545 82.2013 86.3989 81.9784 86.485 81.7705C86.5712 81.5625 86.6976 81.3736 86.8568 81.2146C87.0161 81.0555 87.2051 80.9294 87.4131 80.8434C87.6211 80.7575 87.844 80.7134 88.0691 80.7136H135.804C136.258 80.7136 136.694 80.8941 137.015 81.2153C137.336 81.5365 137.516 81.9721 137.516 82.4263C137.516 82.8806 137.336 83.3162 137.015 83.6374C136.694 83.9586 136.258 84.139 135.804 84.139Z" fill="#74B0EA" fill-opacity="0.5"/>
<path d="M128.739 104.263H88.0691C87.844 104.264 87.6211 104.219 87.4131 104.133C87.2051 104.048 87.0161 103.921 86.8568 103.762C86.6976 103.603 86.5712 103.414 86.485 103.206C86.3989 102.999 86.3545 102.776 86.3545 102.551C86.3545 102.326 86.3989 102.103 86.485 101.895C86.5712 101.687 86.6976 101.498 86.8568 101.339C87.0161 101.18 87.2051 101.054 87.4131 100.968C87.6211 100.882 87.844 100.838 88.0691 100.838H128.739C129.193 100.838 129.629 101.018 129.95 101.34C130.271 101.661 130.452 102.096 130.452 102.551C130.452 103.005 130.271 103.44 129.95 103.762C129.629 104.083 129.193 104.263 128.739 104.263Z" fill="#74B0EA" fill-opacity="0.5"/>
<path d="M135.804 110.044H88.0691C87.844 110.044 87.6211 110 87.4131 109.914C87.2051 109.828 87.0161 109.702 86.8568 109.543C86.6976 109.384 86.5712 109.195 86.485 108.987C86.3989 108.779 86.3545 108.556 86.3545 108.331C86.3545 108.106 86.3989 107.883 86.485 107.675C86.5712 107.467 86.6976 107.278 86.8568 107.119C87.0161 106.96 87.2051 106.834 87.4131 106.748C87.6211 106.662 87.844 106.618 88.0691 106.618H135.804C136.029 106.618 136.252 106.662 136.46 106.748C136.668 106.834 136.857 106.96 137.016 107.119C137.175 107.278 137.302 107.467 137.388 107.675C137.474 107.883 137.518 108.106 137.518 108.331C137.518 108.556 137.474 108.779 137.388 108.987C137.302 109.195 137.175 109.384 137.016 109.543C136.857 109.702 136.668 109.828 136.46 109.914C136.252 110 136.029 110.044 135.804 110.044Z" fill="#74B0EA" fill-opacity="0.5"/>
<path d="M78.9585 86.763H64.5659C64.3481 86.7628 64.1394 86.6762 63.9854 86.5222C63.8315 86.3682 63.7449 86.1595 63.7446 85.9418V73.1303C63.7449 72.9126 63.8315 72.7038 63.9854 72.5499C64.1394 72.3959 64.3481 72.3093 64.5659 72.3091H78.9585C79.1762 72.3093 79.385 72.3959 79.5389 72.5499C79.6929 72.7038 79.7795 72.9126 79.7797 73.1303V85.9418C79.7795 86.1595 79.6929 86.3682 79.5389 86.5222C79.385 86.6762 79.1762 86.7628 78.9585 86.763Z" fill="#74B0EA" fill-opacity="0.5"/>
<path d="M78.9585 112.668H64.5659C64.3481 112.668 64.1394 112.581 63.9854 112.427C63.8315 112.273 63.7449 112.064 63.7446 111.847V99.0351C63.7449 98.8174 63.8315 98.6086 63.9854 98.4547C64.1394 98.3007 64.3481 98.2141 64.5659 98.2139H78.9585C79.1762 98.2141 79.385 98.3007 79.5389 98.4547C79.6929 98.6086 79.7795 98.8174 79.7797 99.0351V111.847C79.7795 112.064 79.6929 112.273 79.5389 112.427C79.385 112.581 79.1762 112.668 78.9585 112.668Z" fill="#74B0EA" fill-opacity="0.5"/>
<path d="M128.784 49.5216H98.7996C98.3454 49.5216 97.9098 49.3412 97.5886 49.02C97.2674 48.6988 97.0869 48.2631 97.0869 47.8089C97.0869 47.3547 97.2674 46.919 97.5886 46.5978C97.9098 46.2766 98.3454 46.0962 98.7996 46.0962H128.784C129.238 46.0962 129.674 46.2766 129.995 46.5978C130.316 46.919 130.496 47.3547 130.496 47.8089C130.496 48.2631 130.316 48.6988 129.995 49.02C129.674 49.3412 129.238 49.5216 128.784 49.5216Z" fill="#74B0EA" fill-opacity="0.5"/>
<path d="M135.849 55.3019H98.7996C98.5747 55.3019 98.352 55.2576 98.1442 55.1715C97.9364 55.0854 97.7476 54.9593 97.5886 54.8002C97.4295 54.6412 97.3034 54.4524 97.2173 54.2446C97.1312 54.0368 97.0869 53.8141 97.0869 53.5892C97.0869 53.3643 97.1312 53.1415 97.2173 52.9337C97.3034 52.726 97.4295 52.5371 97.5886 52.3781C97.7476 52.2191 97.9364 52.0929 98.1442 52.0068C98.352 51.9208 98.5747 51.8765 98.7996 51.8765H135.849C136.303 51.8765 136.739 52.0569 137.06 52.3781C137.381 52.6993 137.561 53.1349 137.561 53.5892C137.561 54.0434 137.381 54.479 137.06 54.8002C136.739 55.1214 136.303 55.3019 135.849 55.3019Z" fill="#74B0EA" fill-opacity="0.5"/>
<path d="M92.1637 62.3069H64.521C64.3032 62.3067 64.0945 62.2201 63.9405 62.0661C63.7865 61.9122 63.6999 61.7034 63.6997 61.4857V39.9121C63.6999 39.6943 63.7865 39.4856 63.9405 39.3316C64.0945 39.1777 64.3032 39.0911 64.521 39.0908H92.1637C92.3814 39.0911 92.5902 39.1777 92.7441 39.3316C92.8981 39.4856 92.9847 39.6943 92.985 39.9121V61.4857C92.9847 61.7034 92.8981 61.9122 92.7441 62.0661C92.5902 62.2201 92.3814 62.3067 92.1637 62.3069Z" fill="#0046AB"/>
</g>
<defs>
<clipPath id="clip0_64383_80909">
<rect width="167.132" height="150" fill="white" transform="translate(0.934082)"/>
</clipPath>
</defs>
</svg>
