<svg viewBox="0 0 32 32" fill="none" xmlns="http://www.w3.org/2000/svg">
<path fill-rule="evenodd" clip-rule="evenodd" d="M14.5299 14.5076C15.1833 13.8546 14.9499 10.7764 13.1765 9.00412C11.9164 7.74486 10.003 7.69822 8.88295 8.86421C7.76289 10.0302 7.76289 11.8958 9.02295 13.155C10.8431 14.9273 13.8766 15.1605 14.5299 14.5076ZM18.8702 22.9959C20.1769 24.3018 22.0437 24.3018 23.1637 23.1825C24.3305 22.0165 24.2838 20.1509 22.977 18.8916C21.2036 17.1194 18.1701 16.8862 17.4701 17.5391C16.8634 18.1454 17.0967 21.177 18.8702 22.9959ZM17.3767 11.7092C17.6101 10.7764 18.1234 9.79699 18.8702 9.00412C20.1769 7.69822 22.0437 7.69822 23.1637 8.81757C24.3305 9.98355 24.2838 11.8491 22.977 13.1084C22.2303 13.8546 21.2503 14.321 20.3169 14.6009C20.1769 14.6475 20.0369 14.6941 19.8969 14.6941C18.8235 14.974 17.4234 15.3471 16.3967 16.3732C15.37 17.3992 15.0433 18.7517 14.7166 19.8711C14.6699 20.011 14.6233 20.1509 14.6233 20.2908C14.3899 21.2236 13.8766 22.203 13.1298 22.9493C11.8231 24.2552 9.95634 24.2552 8.83628 23.1358C7.66955 21.9698 7.71622 20.1043 9.02295 18.845C9.76966 18.0988 10.7964 17.5858 11.7298 17.3526C11.8698 17.3059 12.0098 17.2593 12.1498 17.2593C13.2232 16.9795 14.6233 16.6063 15.6033 15.5803C16.63 14.5542 16.9567 13.2017 17.2834 12.129C17.2834 11.989 17.3301 11.8491 17.3767 11.7092Z" fill="currentColor"/>
</svg>
