<svg id="Component_147_2" data-name="Component 147 – 2" xmlns="http://www.w3.org/2000/svg" viewBox="0 0 32 32" fill="currentColor">
  <rect id="Rectangle_8331" data-name="Rectangle 8331" fill="none"/>
  <path id="gear-regular_1_" data-name="gear-regular (1)" d="M7.325,1.606a6.654,6.654,0,0,1,2.369,0L9.96,2.7a1.861,1.861,0,0,0,.9,1.169l.044.025a1.874,1.874,0,0,0,1.466.2l1.081-.319a6.6,6.6,0,0,1,.628.869l.125.216a6.551,6.551,0,0,1,.434.966l-.819.778a1.849,1.849,0,0,0-.559,1.366v.05a1.866,1.866,0,0,0,.559,1.366l.819.778a6.551,6.551,0,0,1-.434.966l-.125.216a6.6,6.6,0,0,1-.628.869L12.372,11.9a1.848,1.848,0,0,0-1.466.2l-.044.025a1.872,1.872,0,0,0-.9,1.169l-.266,1.1a6.447,6.447,0,0,1-1.184.106,6.705,6.705,0,0,1-1.184-.106l-.266-1.1a1.861,1.861,0,0,0-.9-1.169L6.113,12.1a1.874,1.874,0,0,0-1.466-.2l-1.078.325a6.6,6.6,0,0,1-.628-.869l-.125-.219a6.551,6.551,0,0,1-.434-.966L3.2,9.391A1.849,1.849,0,0,0,3.76,8.025v-.05A1.866,1.866,0,0,0,3.2,6.609l-.819-.778a6.551,6.551,0,0,1,.434-.966l.125-.216a6.6,6.6,0,0,1,.628-.869L4.65,4.1a1.848,1.848,0,0,0,1.466-.2l.044-.025a1.872,1.872,0,0,0,.9-1.169l.266-1.1ZM8.51,0A8.263,8.263,0,0,0,6.953.15a1.3,1.3,0,0,0-.919.628,1.507,1.507,0,0,0-.144.369L5.6,2.35a.375.375,0,0,1-.187.219c-.019.013-.037.022-.059.034a.37.37,0,0,1-.284.053l-1.184-.35A1.447,1.447,0,0,0,3.5,2.247a1.306,1.306,0,0,0-1.009.481,8.065,8.065,0,0,0-.841,1.153h0l-.006.013-.131.228h0l-.006.012A7.828,7.828,0,0,0,.938,5.425a1.287,1.287,0,0,0,.078,1.1,1.592,1.592,0,0,0,.25.313l.9.856a.375.375,0,0,1,.094.272v.069a.381.381,0,0,1-.094.272l-.9.85a1.592,1.592,0,0,0-.25.313,1.3,1.3,0,0,0-.081,1.1,7.828,7.828,0,0,0,.572,1.291h0l.006.012.134.231h0l.006.012a8.036,8.036,0,0,0,.841,1.15,1.311,1.311,0,0,0,1.009.481,1.588,1.588,0,0,0,.381-.059l1.188-.35a.371.371,0,0,1,.284.053c.019.012.037.022.059.034a.366.366,0,0,1,.188.219l.291,1.2a1.46,1.46,0,0,0,.144.369,1.319,1.319,0,0,0,.919.628A7.988,7.988,0,0,0,8.513,16a8.263,8.263,0,0,0,1.556-.15,1.3,1.3,0,0,0,.919-.628,1.507,1.507,0,0,0,.144-.369l.291-1.2a.375.375,0,0,1,.188-.219c.019-.012.038-.022.059-.034a.37.37,0,0,1,.284-.053l1.188.35a1.447,1.447,0,0,0,.381.059,1.306,1.306,0,0,0,1.009-.481,8.065,8.065,0,0,0,.841-1.153h0l.006-.012.131-.228h0l.006-.012a7.828,7.828,0,0,0,.572-1.291A1.3,1.3,0,0,0,16,9.469a1.592,1.592,0,0,0-.25-.312l-.9-.853a.375.375,0,0,1-.094-.272V7.962a.381.381,0,0,1,.094-.272l.9-.853A1.592,1.592,0,0,0,16,6.525a1.321,1.321,0,0,0,.084-1.106,7.828,7.828,0,0,0-.572-1.291h0l-.006-.012-.131-.228h0l-.006-.013a8.245,8.245,0,0,0-.841-1.153,1.311,1.311,0,0,0-1.009-.481,1.588,1.588,0,0,0-.381.059l-1.191.356a.371.371,0,0,1-.284-.053c-.019-.013-.038-.022-.059-.034a.366.366,0,0,1-.187-.219l-.291-1.2a1.46,1.46,0,0,0-.144-.369A1.319,1.319,0,0,0,10.063.15,8.2,8.2,0,0,0,8.51,0ZM7.01,8a1.5,1.5,0,1,1,1.5,1.5A1.5,1.5,0,0,1,7.01,8Zm4.5,0a3,3,0,1,0-3,3,3,3,0,0,0,3-3Z" transform="translate(7.151 8)" fill="currentColor"/>
</svg>
