<svg viewBox="0 0 32 32" fill="none" xmlns="http://www.w3.org/2000/svg">
    <path d="M22.4972 16.0691C22.4972 16.1535 22.4659 16.2316 22.3659 16.3191C22.2472 16.4159 22.0504 16.5003 21.8098 16.5003H18.7479C17.092 16.5003 15.7485 17.8438 15.7485 19.4997C15.7485 19.7122 15.7704 19.9184 15.8141 20.1183C15.9172 20.6089 16.1328 21.09 16.264 21.3868C16.2859 21.4368 16.3078 21.4806 16.3234 21.5212C16.4796 21.8805 16.4983 22.0023 16.4983 22.0555C16.4983 22.2211 16.439 22.3523 16.3796 22.4241C16.3515 22.4585 16.3296 22.4741 16.3171 22.4804C16.3078 22.4866 16.2921 22.4897 16.2671 22.4929C16.1765 22.496 16.089 22.4991 15.9984 22.4991C12.4085 22.4991 9.49971 19.5903 9.49971 16.0004C9.49971 12.4105 12.4085 9.50166 15.9984 9.50166C19.5884 9.50166 22.4972 12.4105 22.4972 16.0004C22.4972 16.0223 22.4972 16.0441 22.4972 16.0691ZM23.9969 16.0848C23.9969 16.0566 23.9969 16.0285 23.9969 16.0004C23.9969 11.5825 20.4163 8.00195 15.9984 8.00195C11.5806 8.00195 8 11.5825 8 16.0004C8 20.4183 11.5806 23.9988 15.9984 23.9988C16.1078 23.9988 16.2203 23.9957 16.3296 23.9926C17.3232 23.952 17.998 23.0521 17.998 22.0555C17.998 21.6024 17.8075 21.1713 17.62 20.7432C17.4856 20.437 17.3482 20.1277 17.2826 19.809C17.2607 19.709 17.2513 19.6059 17.2513 19.4997C17.2513 18.6717 17.9231 18 18.751 18H21.8098C22.9502 18 23.9875 17.2252 24 16.0848H23.9969ZM12.999 16.0004C12.999 15.7352 12.8937 15.4809 12.7062 15.2934C12.5187 15.1059 12.2644 15.0006 11.9992 15.0006C11.7341 15.0006 11.4798 15.1059 11.2923 15.2934C11.1048 15.4809 10.9994 15.7352 10.9994 16.0004C10.9994 16.2656 11.1048 16.5199 11.2923 16.7074C11.4798 16.8949 11.7341 17.0002 11.9992 17.0002C12.2644 17.0002 12.5187 16.8949 12.7062 16.7074C12.8937 16.5199 12.999 16.2656 12.999 16.0004ZM12.999 14.0008C13.2642 14.0008 13.5185 13.8954 13.706 13.7079C13.8935 13.5204 13.9988 13.2661 13.9988 13.001C13.9988 12.7358 13.8935 12.4815 13.706 12.294C13.5185 12.1065 13.2642 12.0012 12.999 12.0012C12.7339 12.0012 12.4796 12.1065 12.2921 12.294C12.1046 12.4815 11.9992 12.7358 11.9992 13.001C11.9992 13.2661 12.1046 13.5204 12.2921 13.7079C12.4796 13.8954 12.7339 14.0008 12.999 14.0008ZM16.9982 12.0012C16.9982 11.736 16.8929 11.4817 16.7054 11.2942C16.5179 11.1067 16.2636 11.0014 15.9984 11.0014C15.7333 11.0014 15.479 11.1067 15.2915 11.2942C15.104 11.4817 14.9986 11.736 14.9986 12.0012C14.9986 12.2663 15.104 12.5206 15.2915 12.7081C15.479 12.8956 15.7333 13.001 15.9984 13.001C16.2636 13.001 16.5179 12.8956 16.7054 12.7081C16.8929 12.5206 16.9982 12.2663 16.9982 12.0012ZM18.9979 14.0008C19.263 14.0008 19.5173 13.8954 19.7048 13.7079C19.8923 13.5204 19.9977 13.2661 19.9977 13.001C19.9977 12.7358 19.8923 12.4815 19.7048 12.294C19.5173 12.1065 19.263 12.0012 18.9979 12.0012C18.7327 12.0012 18.4784 12.1065 18.2909 12.294C18.1034 12.4815 17.998 12.7358 17.998 13.001C17.998 13.2661 18.1034 13.5204 18.2909 13.7079C18.4784 13.8954 18.7327 14.0008 18.9979 14.0008Z" fill="currentColor"/>
</svg>
