<svg viewBox="0 0 32 32" fill="none" xmlns="http://www.w3.org/2000/svg">
<path d="M9.00056 9.00018C9.00056 8.73496 9.10592 8.4806 9.29345 8.29307C9.48099 8.10553 9.73534 8.00018 10.0006 8.00018C10.2658 8.00018 10.5201 8.10553 10.7077 8.29307C10.8952 8.4806 11.0006 8.73496 11.0006 9.00018C11.0006 9.26539 10.8952 9.51975 10.7077 9.70728C10.5201 9.89482 10.2658 10.0002 10.0006 10.0002C9.73534 10.0002 9.48099 9.89482 9.29345 9.70728C9.10592 9.51975 9.00056 9.26539 9.00056 9.00018ZM22.0006 13.0002C22.0006 12.735 22.1059 12.4806 22.2935 12.2931C22.481 12.1055 22.7353 12.0002 23.0006 12.0002C23.2658 12.0002 23.5201 12.1055 23.7077 12.2931C23.8952 12.4806 24.0006 12.735 24.0006 13.0002C24.0006 13.2654 23.8952 13.5197 23.7077 13.7073C23.5201 13.8948 23.2658 14.0002 23.0006 14.0002C22.7353 14.0002 22.481 13.8948 22.2935 13.7073C22.1059 13.5197 22.0006 13.2654 22.0006 13.0002ZM23.0006 21.0002C23.2658 21.0002 23.5201 21.1055 23.7077 21.2931C23.8952 21.4806 24.0006 21.735 24.0006 22.0002C24.0006 22.2654 23.8952 22.5197 23.7077 22.7073C23.5201 22.8948 23.2658 23.0002 23.0006 23.0002C22.7353 23.0002 22.481 22.8948 22.2935 22.7073C22.1059 22.5197 22.0006 22.2654 22.0006 22.0002C22.0006 21.735 22.1059 21.4806 22.2935 21.2931C22.481 21.1055 22.7353 21.0002 23.0006 21.0002ZM13.2193 12.7814C12.9256 12.4877 12.9256 12.0127 13.2193 11.7221L13.4787 11.4627C14.0006 10.9408 14.3287 10.2564 14.4099 9.52205L14.5037 8.6658C14.5506 8.25643 14.9224 7.95955 15.3349 8.0033C15.7474 8.04705 16.0443 8.41893 15.9974 8.83143L15.9037 9.68768C15.7849 10.7596 15.3037 11.7596 14.5412 12.5221L14.2818 12.7814C13.9881 13.0752 13.5131 13.0752 13.2224 12.7814H13.2193ZM19.2193 17.7189L19.4756 17.4596C20.2381 16.6971 21.2381 16.2158 22.3099 16.0971L23.1662 16.0033C23.5787 15.9564 23.9474 16.2533 23.9943 16.6658C24.0412 17.0783 23.7443 17.4471 23.3318 17.4939L22.4756 17.5877C21.7412 17.6689 21.0568 17.9971 20.5349 18.5189L20.2818 18.7814C19.9881 19.0752 19.5131 19.0752 19.2224 18.7814C18.9318 18.4877 18.9287 18.0127 19.2224 17.7221L19.2193 17.7189ZM23.8224 8.2658C24.0912 8.58143 24.0506 9.05643 23.7349 9.32205L23.4224 9.58768C22.9599 9.9783 22.3693 10.1846 21.7662 10.1689C21.2474 10.1564 20.8099 10.5564 20.7787 11.0752L20.7224 12.0127C20.6443 13.3408 19.5256 14.3658 18.1974 14.3314C17.9599 14.3252 17.7287 14.4064 17.5506 14.5596L17.2381 14.8252C16.9224 15.0939 16.4474 15.0533 16.1818 14.7377C15.9162 14.4221 15.9537 13.9471 16.2693 13.6814L16.5818 13.4158C17.0443 13.0252 17.6349 12.8189 18.2381 12.8346C18.7568 12.8471 19.1943 12.4471 19.2256 11.9283L19.2818 10.9908C19.3599 9.66268 20.4787 8.63768 21.8068 8.67205C22.0443 8.6783 22.2756 8.59705 22.4537 8.44393L22.7662 8.1783C23.0818 7.90955 23.5568 7.95018 23.8224 8.2658ZM12.7068 14.2939L17.7068 19.2939C17.9474 19.5346 18.0506 19.8814 17.9756 20.2127C17.9006 20.5439 17.6662 20.8189 17.3506 20.9377L16.1099 21.4033L10.5974 15.8908L11.0631 14.6502C11.1818 14.3314 11.4568 14.0971 11.7881 14.0252C12.1193 13.9533 12.4662 14.0564 12.7068 14.2939ZM9.50681 18.8002L10.2131 16.9189L15.0818 21.7877L13.2006 22.4939L9.50681 18.8002ZM9.12244 19.8283L12.1724 22.8783L9.35056 23.9377C8.98494 24.0752 8.56931 23.9846 8.29119 23.7096C8.01306 23.4346 7.92556 23.0158 8.06306 22.6502L9.11931 19.8283H9.12244Z" fill="currentColor"/>
</svg>
