<svg viewBox="0 0 32 32" fill="none" xmlns="http://www.w3.org/2000/svg">
<path d="M21 9.5C21.275 9.5 21.5 9.725 21.5 10V22C21.5 22.275 21.275 22.5 21 22.5H11C10.725 22.5 10.5 22.275 10.5 22V10C10.5 9.725 10.725 9.5 11 9.5H21ZM11 8C9.89688 8 9 8.89688 9 10V22C9 23.1031 9.89688 24 11 24H21C22.1031 24 23 23.1031 23 22V10C23 8.89688 22.1031 8 21 8H11ZM12 20.5C12 20.775 12.225 21 12.5 21H19.5C19.775 21 20 20.775 20 20.5C20 20.225 19.775 20 19.5 20H12.5C12.225 20 12 20.225 12 20.5ZM13.0406 15H14.2625C14.3125 15.95 14.5031 16.6812 14.7188 17.2125C13.8469 16.8 13.2063 15.9812 13.0406 15ZM16 17.5H15.9906C15.9156 17.3906 15.8125 17.2219 15.7063 16.9844C15.5188 16.5594 15.3187 15.9125 15.2625 15H16.7344C16.6781 15.9125 16.4813 16.5594 16.2906 16.9844C16.1844 17.2219 16.0812 17.3906 16.0062 17.5H15.9969H16ZM18.9594 15C18.7938 15.9812 18.1531 16.8 17.2812 17.2125C17.4937 16.6781 17.6844 15.95 17.7375 15H18.9594ZM18.9594 14H17.7375C17.6875 13.05 17.4969 12.3187 17.2812 11.7875C18.1531 12.2 18.7938 13.0188 18.9594 14ZM16 11.5H16.0094C16.0844 11.6094 16.1875 11.7781 16.2937 12.0156C16.4812 12.4406 16.6813 13.0875 16.7375 14H15.2656C15.3219 13.0875 15.5187 12.4406 15.7094 12.0156C15.8156 11.7781 15.9188 11.6094 15.9938 11.5H16.0031H16ZM13.0406 14C13.2063 13.0188 13.8469 12.2 14.7188 11.7875C14.5062 12.3219 14.3156 13.05 14.2625 14H13.0406ZM16 18.5C17.0609 18.5 18.0783 18.0786 18.8284 17.3284C19.5786 16.5783 20 15.5609 20 14.5C20 13.4391 19.5786 12.4217 18.8284 11.6716C18.0783 10.9214 17.0609 10.5 16 10.5C14.9391 10.5 13.9217 10.9214 13.1716 11.6716C12.4214 12.4217 12 13.4391 12 14.5C12 15.5609 12.4214 16.5783 13.1716 17.3284C13.9217 18.0786 14.9391 18.5 16 18.5Z" fill="currentColor"/>
</svg>
