<svg viewBox="0 0 32 32" fill="none" xmlns="http://www.w3.org/2000/svg">
<path fill-rule="evenodd" clip-rule="evenodd" d="M8.2688 8H23.7222H23.7305C24.9479 8 25.9417 9.02692 25.9417 10.2857V21.7143C25.9417 22.9731 24.9479 24 23.7305 24H8.2688C7.05141 24 6.05762 22.9731 6.05762 21.7143V10.2857C6.05762 9.02692 7.05141 8 8.2688 8ZM23.7222 22.2857C24.0286 22.2857 24.2771 22.029 24.2771 21.7143H24.2854V10.2857C24.2854 9.97101 24.0369 9.71429 23.7305 9.71429H8.2688C7.96238 9.71429 7.71393 9.97101 7.71393 10.2857V21.7143C7.71393 22.029 7.96238 22.2857 8.2688 22.2857H23.7222ZM20.1529 13.4576C20.1694 13.4824 20.2108 13.5156 20.2108 13.5156L20.2274 13.5073C20.658 13.9131 20.9562 14.352 21.1218 14.8075C21.4199 15.6439 21.3702 16.5052 20.9727 17.2174C20.5504 17.971 19.7802 18.5093 18.803 18.7164C18.5048 18.7909 18.2067 18.7909 17.892 18.7909H17.5276L17.4779 19.0725C17.4282 19.3623 17.3785 19.6522 17.3371 19.9421C17.2543 20.5218 16.774 20.9441 16.2025 20.9441H15.7553H15.0431C14.7947 20.9441 14.5545 20.8447 14.3806 20.6626C14.2067 20.4804 14.1156 20.2485 14.1239 20V19.9752H13.9996H13.5027C12.8733 19.9669 12.4344 19.5942 12.3682 18.998C12.3433 18.8075 12.3765 18.617 12.4096 18.4265L12.4096 18.4265C12.4243 18.3602 12.4325 18.2938 12.44 18.2333C12.4409 18.2259 12.4418 18.2185 12.4427 18.2112C12.4675 18.0456 12.4841 17.8799 12.5007 17.7143C12.5034 17.6895 12.5062 17.6647 12.5089 17.6398C12.5477 17.2899 12.5879 16.9271 12.6497 16.5715C12.8154 15.6191 12.9562 14.6418 13.0887 13.6978C13.1547 13.1987 13.2273 12.7062 13.3006 12.2086C13.31 12.1447 13.3194 12.0807 13.3288 12.0166C13.4116 11.4617 13.9003 11.0394 14.4717 11.0394H15.275C15.4072 11.0394 15.5398 11.039 15.6727 11.0387C16.2053 11.0374 16.7422 11.036 17.2791 11.0559C18.3806 11.0973 19.2005 11.5694 19.6891 12.4721C19.8299 12.7288 19.9292 12.9607 20.0286 13.3085C20.0448 13.365 20.0923 13.4058 20.1484 13.4538L20.1529 13.4576ZM16.9396 15.9006C17.3785 15.9338 17.9085 15.7185 18.3061 15.3127V15.3209C18.7284 14.8903 18.9437 14.3603 18.8941 13.8468C18.8195 13.0518 18.3806 12.4886 17.6767 12.2899H17.6435C17.6352 12.2878 17.6269 12.2857 17.6187 12.2836C17.5289 12.261 17.4461 12.2402 17.3702 12.2402H15.1177H14.48L13.5442 18.8075H13.9085H14.2315C14.3226 18.8158 14.3392 18.8075 14.364 18.6998C14.5048 18.0621 14.6456 17.4327 14.7947 16.8033C14.9355 16.2153 15.3247 15.8924 15.9375 15.8924H16.1943C16.4427 15.8841 16.6912 15.8758 16.9396 15.9006ZM15.5108 18.9668C15.4674 19.155 15.4238 19.3444 15.3827 19.5363L15.333 19.7599H16.1611C16.1639 19.7461 16.1676 19.7323 16.1713 19.7185C16.1786 19.6908 16.186 19.6632 16.186 19.6356L16.2605 19.147L16.2605 19.147C16.3102 18.824 16.3599 18.5011 16.4179 18.1781C16.4924 17.764 16.6663 17.6067 17.1052 17.6067H17.5276C17.8671 17.6067 18.215 17.6067 18.5545 17.5652C19.1756 17.4907 19.6891 17.1346 19.9458 16.5797C20.1777 16.0746 20.1611 15.4949 19.9044 14.9814V14.998C19.5234 16.0249 18.4054 17.0766 17.0638 17.0766H16.9479H16.4427H16.0369C15.9541 17.0766 15.9458 17.0849 15.9292 17.1594C15.8961 17.3085 15.8609 17.4597 15.8257 17.6108C15.7905 17.7619 15.7553 17.9131 15.7222 18.0621L15.6145 18.5093C15.5811 18.6616 15.5461 18.8138 15.5108 18.9668Z" fill="currentcolor"/>
</svg>
