<svg viewBox="0 0 96 96" fill="none" xmlns="http://www.w3.org/2000/svg">
  <g clipPath="url(#clip0_37061_7194)">
    <path
      d="M36.1444 22.7067C33.3667 20.0353 28.8667 20.0353 26.0889 22.7067L21.7 26.9167C21.3556 27.248 21.0444 27.6113 20.7889 27.9853C18.9667 30.6353 19.2667 34.247 21.7 36.5871L31.5667 46.0758C33.1111 45.6484 34.7444 45.424 36.4444 45.424H36.6111L37.5222 44.5478L33.8889 41.0536L40.7778 34.4286L44.4222 37.9335L48.1889 34.3111L36.1444 22.7067ZM62.0222 54.8486L66.1667 58.8343C66.2333 58.8984 66.3 58.9625 66.3556 59.0266C66.7889 59.4968 67.1 60.0524 67.2889 60.6508L68.0556 63.1512L69.8444 69.0069L63.7556 67.2865L61.1556 66.5492C60.4444 66.3462 59.7889 65.9722 59.2667 65.47L55.1222 61.4843L54.2222 62.3498V62.5315C54.2222 64.1557 53.9889 65.7264 53.5444 67.2224L55.5 69.103C55.6444 69.2419 55.7889 69.3809 55.9444 69.5091C57.0111 70.4173 58.2778 71.0905 59.6556 71.4752L68.3333 73.9329L73.0222 75.2472C73.9556 75.5143 74.9667 75.2686 75.6556 74.5954C76.3444 73.9222 76.6 72.9605 76.3333 72.0629L74.9556 67.5536L72.4 59.2083C71.9333 57.7016 71.0889 56.3232 69.9333 55.2119L65.7889 51.2262L62.0222 54.8486ZM73.6667 26.7351C74.5889 27.622 74.5889 29.0645 73.6667 29.9514L53.3667 49.4738L50.0222 46.2575L70.3333 26.7351C71.2556 25.8482 72.7556 25.8482 73.6778 26.7351H73.6667ZM36.4444 54.8379C37.4889 54.8379 38.4778 55.0302 39.3889 55.3722L43.8889 59.6998C44.2556 60.576 44.4444 61.5377 44.4444 62.5315C44.4444 66.7843 40.8667 70.225 36.4444 70.225H26.9333L27.0111 70.1288C28.3 68.323 28.9111 66.0042 28.5444 63.7175C28.4889 63.3329 28.4556 62.9375 28.4556 62.5315C28.4556 58.2786 32.0333 54.8379 36.4556 54.8379H36.4444ZM66.5556 23.102L38.7 49.8905C37.9667 49.773 37.2111 49.7089 36.4444 49.7089C29.0778 49.7089 23.1111 55.447 23.1111 62.5315C23.1111 63.194 23.1667 63.8565 23.2667 64.4976C23.5667 66.3996 22.2333 68.5153 20.2222 68.5153H19.5556C17.5889 68.5153 16 70.0434 16 71.9347C16 73.826 17.5889 75.354 19.5556 75.354H36.4444C43.8111 75.354 49.7778 69.6159 49.7778 62.5315C49.7778 61.7942 49.7111 61.0675 49.5889 60.3623L77.4444 33.5738C80.4444 30.6887 80.4444 25.9978 77.4444 23.1127C74.4444 20.2276 69.5667 20.2276 66.5667 23.1127L66.5556 23.102Z"
      fill="currentcolor"
    />
  </g>
  <defs>
    <clipPath id="clip0_37061_7194">
      <rect width="64" height="54.7097" fill="white" transform="translate(16 20.6445)" />
    </clipPath>
  </defs>
</svg>