<svg viewBox="0 0 32 32" fill="none" xmlns="http://www.w3.org/2000/svg">
<path d="M21.7745 11.3347C22.0811 11.0281 22.0811 10.5322 21.7745 10.2288C21.4678 9.92537 20.9719 9.92211 20.6685 10.2288L10.2255 20.6653C9.91882 20.9719 9.91882 21.4678 10.2255 21.7712C10.5322 22.0746 11.028 22.0779 11.3314 21.7712L21.7745 11.3347ZM13.39 11.8241C13.39 11.6185 13.3495 11.4148 13.2708 11.2248C13.1921 11.0348 13.0768 10.8622 12.9314 10.7168C12.786 10.5714 12.6133 10.456 12.4233 10.3773C12.2333 10.2986 12.0297 10.2581 11.8241 10.2581C11.6184 10.2581 11.4148 10.2986 11.2248 10.3773C11.0348 10.456 10.8622 10.5714 10.7168 10.7168C10.5714 10.8622 10.456 11.0348 10.3773 11.2248C10.2986 11.4148 10.2581 11.6185 10.2581 11.8241C10.2581 12.0297 10.2986 12.2334 10.3773 12.4234C10.456 12.6134 10.5714 12.786 10.7168 12.9314C10.8622 13.0768 11.0348 13.1922 11.2248 13.2709C11.4148 13.3496 11.6184 13.3901 11.8241 13.3901C12.0297 13.3901 12.2333 13.3496 12.4233 13.2709C12.6133 13.1922 12.786 13.0768 12.9314 12.9314C13.0768 12.786 13.1921 12.6134 13.2708 12.4234C13.3495 12.2334 13.39 12.0297 13.39 11.8241ZM21.7418 20.1759C21.7418 19.7606 21.5768 19.3623 21.2832 19.0686C20.9895 18.7749 20.5912 18.6099 20.1759 18.6099C19.7605 18.6099 19.3622 18.7749 19.0686 19.0686C18.7749 19.3623 18.6099 19.7606 18.6099 20.1759C18.6099 20.5912 18.7749 20.9895 19.0686 21.2832C19.3622 21.5769 19.7605 21.7419 20.1759 21.7419C20.5912 21.7419 20.9895 21.5769 21.2832 21.2832C21.5768 20.9895 21.7418 20.5912 21.7418 20.1759Z" fill="currentcolor"/>
</svg>
