<svg viewBox="0 0 32 32" fill="currentColor" xmlns="http://www.w3.org/2000/svg">
  <path d="M16 10C17.3813 10 18.5 11.1188 18.5 12.5V14H13.5V12.5C13.5 11.1188 14.6188 10 16 10ZM11.5 12.5V14H11C9.89688 14 9 14.8969 9 16V22C9 23.1031 9.89688 24 11 24H21C22.1031 24 23 23.1031 23 22V16C23 14.8969 22.1031 14 21 14H20.5V12.5C20.5 10.0156 18.4844 8 16 8C13.5156 8 11.5 10.0156 11.5 12.5ZM17 18V20C17 20.5531 16.5531 21 16 21C15.4469 21 15 20.5531 15 20V18C15 17.4469 15.4469 17 16 17C16.5531 17 17 17.4469 17 18Z" />
</svg>