<svg viewBox="0 0 32 32" fill="none" xmlns="http://www.w3.org/2000/svg">
<path d="M17.5019 8.75C17.5019 9.16562 17.8363 9.5 18.252 9.5H21.4433L14.47 16.4688C14.1762 16.7625 14.1762 17.2375 14.47 17.5281C14.7638 17.8187 15.2389 17.8219 15.5296 17.5281L22.4997 10.5594V13.75C22.4997 14.1656 22.8341 14.5 23.2499 14.5C23.6656 14.5 24 14.1656 24 13.75V8.75C24 8.33437 23.6656 8 23.2499 8H18.252C17.8363 8 17.5019 8.33437 17.5019 8.75ZM10.2504 9C9.00645 9 8 10.0062 8 11.25V21.75C8 22.9937 9.00645 24 10.2504 24H20.7525C21.9965 24 23.0029 22.9937 23.0029 21.75V17.75C23.0029 17.3344 22.6685 17 22.2528 17C21.8371 17 21.5026 17.3344 21.5026 17.75V21.75C21.5026 22.1656 21.1682 22.5 20.7525 22.5H10.2504C9.83473 22.5 9.50029 22.1656 9.50029 21.75V11.25C9.50029 10.8344 9.83473 10.5 10.2504 10.5H14.2512C14.6669 10.5 15.0014 10.1656 15.0014 9.75C15.0014 9.33438 14.6669 9 14.2512 9H10.2504Z" fill="currentcolor"/>
</svg>
