<svg viewBox="0 0 32 32" fill="none" xmlns="http://www.w3.org/2000/svg">
<path d="M8.80028 10.5003H21.4022C21.6498 10.5003 21.8523 10.7254 21.8523 11.0005V13.8636L22.038 13.6573C22.3643 13.2947 22.7778 13.0791 23.2025 13.0165V11.0005C23.2025 9.89708 22.3952 9 21.4022 9H8.80028C7.80731 9 7 9.89708 7 11.0005V19.0023C7 20.1057 7.80731 21.0027 8.80028 21.0027H16.2968L16.4655 20.2557C16.5274 19.9806 16.6399 19.7243 16.7975 19.5024H8.80028C8.55274 19.5024 8.35021 19.2773 8.35021 19.0023V11.0005C8.35021 10.7254 8.55274 10.5003 8.80028 10.5003ZM10.3755 15.5015C10.0014 15.5015 9.70042 15.8359 9.70042 16.2517C9.70042 16.6674 10.0014 17.0018 10.3755 17.0018H16.2264C16.6006 17.0018 16.9015 16.6674 16.9015 16.2517C16.9015 15.8359 16.6006 15.5015 16.2264 15.5015H10.3755ZM9.70042 13.251C9.70042 13.6667 10.0014 14.0011 10.3755 14.0011H18.9269C19.301 14.0011 19.602 13.6667 19.602 13.251C19.602 12.8352 19.301 12.5008 18.9269 12.5008H10.3755C10.0014 12.5008 9.70042 12.8352 9.70042 13.251ZM24.2658 14.3668C23.827 13.8792 23.1153 13.8792 22.6737 14.3668L21.8467 15.2858L23.8439 17.5051L24.6709 16.5861C25.1097 16.0985 25.1097 15.3077 24.6709 14.817L24.2658 14.3668ZM17.5738 20.0338C17.4585 20.1619 17.3769 20.3213 17.3376 20.4995L16.9156 22.378C16.8762 22.55 16.9212 22.7281 17.0338 22.8532C17.1463 22.9782 17.3066 23.0282 17.4613 22.9844L19.1519 22.5156C19.3094 22.4718 19.4557 22.3812 19.571 22.253L23.2053 18.2115L21.2082 15.9922L17.5738 20.0338Z" fill="currentcolor"/>
</svg>
