<svg viewBox="0 0 32 32" fill="none" xmlns="http://www.w3.org/2000/svg">
<path d="M10.2857 9.71429C9.97143 9.71429 9.71429 9.97143 9.71429 10.2857V21.7143C9.71429 22.0286 9.97143 22.2857 10.2857 22.2857H21.7143C22.0286 22.2857 22.2857 22.0286 22.2857 21.7143V10.2857C22.2857 9.97143 22.0286 9.71429 21.7143 9.71429H10.2857ZM8 10.2857C8 9.025 9.025 8 10.2857 8H21.7143C22.975 8 24 9.025 24 10.2857V21.7143C24 22.975 22.975 24 21.7143 24H10.2857C9.025 24 8 22.975 8 21.7143V10.2857ZM13.4286 15.1429H18.5714C19.0464 15.1429 19.4286 15.525 19.4286 16C19.4286 16.475 19.0464 16.8571 18.5714 16.8571H13.4286C12.9536 16.8571 12.5714 16.475 12.5714 16C12.5714 15.525 12.9536 15.1429 13.4286 15.1429Z" fill="currentcolor"/>
</svg>
