<svg viewBox="0 0 24 16" fill="none" xmlns="http://www.w3.org/2000/svg">
<path id="Vector" d="M2.85679 1.71468H18.8604C19.1748 1.71468 19.432 1.97188 19.432 2.28624V5.55841L19.6678 5.32264C20.0821 4.90826 20.6073 4.66178 21.1467 4.59033V2.28624C21.1467 1.02523 20.1214 0 18.8604 0H2.85679C1.59579 0 0.570557 1.02523 0.570557 2.28624V11.4312C0.570557 12.6922 1.59579 13.7174 2.85679 13.7174H12.3768L12.5912 12.8636C12.6697 12.5493 12.8126 12.2564 13.0127 12.0027H2.85679C2.54243 12.0027 2.28523 11.7455 2.28523 11.4312V2.28624C2.28523 1.97188 2.54243 1.71468 2.85679 1.71468ZM4.85725 7.43026C4.38214 7.43026 3.99991 7.81249 3.99991 8.2876C3.99991 8.76271 4.38214 9.14494 4.85725 9.14494H12.2875C12.7626 9.14494 13.1449 8.76271 13.1449 8.2876C13.1449 7.81249 12.7626 7.43026 12.2875 7.43026H4.85725ZM3.99991 4.85825C3.99991 5.33336 4.38214 5.71559 4.85725 5.71559H15.7169C16.192 5.71559 16.5742 5.33336 16.5742 4.85825C16.5742 4.38314 16.192 4.00091 15.7169 4.00091H4.85725C4.38214 4.00091 3.99991 4.38314 3.99991 4.85825ZM22.497 6.13354C21.9397 5.57627 21.0359 5.57627 20.4751 6.13354L19.4249 7.18378L21.9611 9.72007L23.0114 8.66983C23.5687 8.11256 23.5687 7.20879 23.0114 6.64794L22.497 6.13354ZM13.9986 12.61C13.8522 12.7565 13.7486 12.9387 13.6985 13.1423L13.1627 15.2892C13.1127 15.4857 13.1699 15.6893 13.3127 15.8322C13.4556 15.9751 13.6593 16.0322 13.8557 15.9822L16.0026 15.4464C16.2027 15.3964 16.3884 15.2928 16.5349 15.1463L21.1502 10.5274L18.614 7.99111L13.9986 12.61Z" fill="currentColor"/>
</svg>
