<svg viewBox="0 0 32 33" fill="none" xmlns="http://www.w3.org/2000/svg">
  <path
    d="M8.80028 11.0887H21.4022C21.6498 11.0887 21.8523 11.3138 21.8523 11.5888V14.452L22.038 14.2457C22.3643 13.8831 22.7778 13.6674 23.2025 13.6049V11.5888C23.2025 10.4855 22.3952 9.58838 21.4022 9.58838H8.80028C7.80731 9.58838 7 10.4855 7 11.5888V19.5907C7 20.694 7.80731 21.5911 8.80028 21.5911H16.2968L16.4655 20.8441C16.5274 20.569 16.6399 20.3127 16.7975 20.0908H8.80028C8.55274 20.0908 8.35021 19.8657 8.35021 19.5907V11.5888C8.35021 11.3138 8.55274 11.0887 8.80028 11.0887ZM10.3755 16.0899C10.0014 16.0899 9.70042 16.4243 9.70042 16.84C9.70042 17.2558 10.0014 17.5902 10.3755 17.5902H16.2264C16.6006 17.5902 16.9015 17.2558 16.9015 16.84C16.9015 16.4243 16.6006 16.0899 16.2264 16.0899H10.3755ZM9.70042 13.8393C9.70042 14.2551 10.0014 14.5895 10.3755 14.5895H18.9269C19.301 14.5895 19.602 14.2551 19.602 13.8393C19.602 13.4236 19.301 13.0892 18.9269 13.0892H10.3755C10.0014 13.0892 9.70042 13.4236 9.70042 13.8393ZM24.2658 14.9552C23.827 14.4676 23.1153 14.4676 22.6737 14.9552L21.8467 15.8742L23.8439 18.0934L24.6709 17.1745C25.1097 16.6869 25.1097 15.8961 24.6709 15.4053L24.2658 14.9552ZM17.5738 20.6221C17.4585 20.7503 17.3769 20.9097 17.3376 21.0879L16.9156 22.9664C16.8762 23.1383 16.9212 23.3165 17.0338 23.4415C17.1463 23.5666 17.3066 23.6166 17.4613 23.5728L19.1519 23.104C19.3094 23.0602 19.4557 22.9696 19.571 22.8414L23.2053 18.7999L21.2082 16.5806L17.5738 20.6221Z"
    fill="currentcolor" />
</svg>