<svg viewBox="0 0 32 32" fill="none" xmlns="http://www.w3.org/2000/svg">
<path d="M23.4812 15.5C23.7625 15.5 24 15.2812 24 15C24 11.1344 20.8656 8 17 8C16.7188 8 16.5 8.2375 16.5 8.51875V15.5H23.4812ZM13.5 17C13.5 17.8281 14.1719 18.5 15 18.5H21.1594C20.3344 20.8313 18.1125 22.5 15.5 22.5C12.1875 22.5 9.5 19.8125 9.5 16.5C9.5 13.8875 11.1688 11.6656 13.5 10.8406V17ZM15 10.0844C15 9.50625 14.5094 9.04375 13.9437 9.1625C10.5469 9.87812 8 12.8906 8 16.5C8 20.6438 11.3594 24 15.5 24C19.1094 24 22.1219 21.4531 22.8375 18.0562C22.9562 17.4906 22.4937 17 21.9156 17H16.5H15V15.5V10.0844Z" fill="currentColor"/>
</svg>