<svg viewBox="0 0 32 32" fill="none" xmlns="http://www.w3.org/2000/svg">
<path d="M16.4994 8C15.7088 8 15.0244 8.45938 14.6994 9.125C14.4807 9.04375 14.2463 9 13.9994 9C12.8963 9 11.9994 9.89688 11.9994 11V16.1719L11.915 16.0875C11.1338 15.3062 9.86816 15.3062 9.08691 16.0875C8.30566 16.8687 8.30566 18.1344 9.08691 18.9156L11.8275 21.6562C13.3275 23.1562 15.3619 24 17.4838 24H17.7494H17.9994C18.0463 24 18.0932 23.9969 18.14 23.9875C21.0057 23.7937 23.2963 21.5063 23.4869 18.6406C23.4963 18.5938 23.4994 18.5469 23.4994 18.5V13C23.4994 11.8969 22.6025 11 21.4994 11C21.3275 11 21.1588 11.0219 20.9994 11.0625V11C20.9994 9.89688 20.1025 9 18.9994 9C18.7525 9 18.5182 9.04375 18.2994 9.125C17.9744 8.45938 17.29 8 16.4994 8ZM15.9994 11.0031V11V10C15.9994 9.725 16.2244 9.5 16.4994 9.5C16.7744 9.5 16.9994 9.725 16.9994 10V10.9969V11V15.25C16.9994 15.6656 17.3338 16 17.7494 16C18.165 16 18.4994 15.6656 18.4994 15.25V11C18.4994 11 18.4994 11 18.4994 10.9969C18.4994 10.7219 18.7244 10.4969 18.9994 10.4969C19.2744 10.4969 19.4994 10.7219 19.4994 10.9969V12.7438V12.7469V15.2469C19.4994 15.6625 19.8338 15.9969 20.2494 15.9969C20.665 15.9969 20.9994 15.6625 20.9994 15.2469V13V12.9969C20.9994 12.7219 21.2244 12.4969 21.4994 12.4969C21.7744 12.4969 21.9994 12.7219 21.9994 12.9969V18.4C21.9963 18.4187 21.9963 18.4406 21.9932 18.4594C21.8869 20.6375 20.14 22.3844 17.9619 22.4906C17.9432 22.4906 17.9213 22.4937 17.9025 22.4969H17.7494H17.4838C15.7588 22.4969 14.1057 21.8125 12.8869 20.5938L10.1463 17.8531C9.95254 17.6594 9.95254 17.3406 10.1463 17.1469C10.34 16.9531 10.6588 16.9531 10.8525 17.1469L12.2182 18.5125C12.4338 18.7281 12.7557 18.7906 13.0369 18.675C13.3182 18.5594 13.4994 18.2844 13.4994 17.9812V11C13.4994 10.725 13.7244 10.5 13.9994 10.5C14.2744 10.5 14.4994 10.7219 14.4994 10.9969V15.25C14.4994 15.6656 14.8338 16 15.2494 16C15.665 16 15.9994 15.6656 15.9994 15.25V11.0031Z" fill="currentcolor"/>
</svg>
