<svg viewBox="0 0 32 32" fill="none" xmlns="http://www.w3.org/2000/svg">
<path d="M22.768 14.5777C22.176 12.3571 20.532 11.5249 17.884 11.2969C17.596 10.9808 17.132 10.8047 16.384 10.7647L16.244 9.74847C16.62 9.64044 16.9 9.30036 16.9 8.89225C16.9 8.40013 16.496 8.00003 16 8.00003C15.504 8.00003 15.1 8.40013 15.1 8.89225C15.1 9.30036 15.376 9.64444 15.756 9.74847L15.616 10.7647C14.864 10.8047 14.4 10.9808 14.112 11.2969C11.464 11.5249 9.82 12.3611 9.232 14.5777C8.388 14.7857 8 15.3339 8 16.7742C8 18.2146 8.388 18.7627 9.232 18.9708C9.84 21.2513 11.56 22.0715 14.34 22.2716V24C14.34 24 17.808 22.7677 20.336 21.7395C21.576 21.2513 22.388 20.3951 22.768 18.9668C23.612 18.7587 24 18.2106 24 16.7702C24 15.3299 23.612 14.7817 22.768 14.5737V14.5777ZM21.008 18.9548C20.84 19.3709 20.608 19.6749 20.276 19.903C19.528 20.4191 18.172 20.6632 16 20.6632C13.828 20.6632 12.472 20.4231 11.724 19.903C11.392 19.6749 11.16 19.3709 10.992 18.9548C10.776 18.4186 10.664 17.6865 10.664 16.7742C10.664 15.862 10.772 15.1298 10.992 14.5937C11.16 14.1776 11.392 13.8735 11.724 13.6454C12.472 13.1293 13.828 12.8853 16 12.8853C18.172 12.8853 19.528 13.1253 20.276 13.6454C20.608 13.8735 20.84 14.1776 21.008 14.5937C21.224 15.1298 21.336 15.862 21.336 16.7742C21.336 17.6865 21.228 18.4186 21.008 18.9548ZM16.992 17.6424C17.076 17.6424 17.144 17.7145 17.132 17.7985C17.072 18.3506 16.68 18.7747 15.996 18.7747C15.312 18.7747 14.924 18.3506 14.86 17.7985C14.852 17.7145 14.916 17.6424 15 17.6424H16.984H16.992ZM13.296 15.1578C12.732 15.1578 12.612 15.6019 12.612 16.062C12.612 16.5222 12.732 16.9663 13.296 16.9663C13.86 16.9663 13.98 16.5222 13.98 16.062C13.98 15.6019 13.86 15.1578 13.296 15.1578ZM18.7 15.1578C18.136 15.1578 18.016 15.6019 18.016 16.062C18.016 16.5222 18.136 16.9663 18.7 16.9663C19.264 16.9663 19.384 16.5222 19.384 16.062C19.384 15.6019 19.264 15.1578 18.7 15.1578Z" fill="currentColor"/>
</svg>
