<svg  viewBox="0 0 55 55" fill="currentcolor" xmlns="http://www.w3.org/2000/svg">
<path d="M24.9592 29.862C25.7704 29.5837 26.6183 29.435 27.4862 29.433C28.3541 29.4309 29.2043 29.5632 30.0074 29.8257C33.2266 24.1089 33.3156 19.8988 32.4272 16.9158C31.5348 13.9119 29.5173 11.7001 27.6242 10.2547C25.7102 11.7275 23.6606 13.9686 22.7249 16.9856C21.7935 19.9817 21.8261 24.1951 24.9592 29.862ZM35.241 24.4256L38.6627 27.8474C39.7201 28.9047 40.1366 30.453 39.7487 31.9149L38.1967 37.8377C38.0674 38.3333 37.683 38.726 37.1873 38.8638C36.6916 39.0015 36.1685 38.8669 35.8063 38.5047L31.0317 33.7301C30.0909 32.7893 28.8075 32.2661 27.4658 32.2757C26.1241 32.2854 24.833 32.8272 23.8786 33.7816L19.0348 38.6254C18.6716 38.9886 18.1423 39.1349 17.6485 39.0043C17.1547 38.8737 16.7759 38.4865 16.6537 37.9927L15.1868 32.0916C14.8242 30.6309 15.2588 29.0807 16.3314 28.0081L19.8028 24.5367C17.7708 15.5958 22.9426 10.0326 26.6886 7.43558C27.2659 7.03313 28.029 7.02764 28.6005 7.42183C32.3095 9.96525 37.4018 15.4546 35.241 24.4256ZM28.5367 47.7641C27.8777 48.4565 26.8211 48.4641 26.1719 47.7812C24.6406 46.1738 22.1636 43.131 22.1885 40.2588C22.2092 37.3741 24.5615 35.0219 27.4462 35.0011C30.3309 34.9804 32.6495 37.299 32.6288 40.1837C32.6123 43.0558 30.0913 46.1346 28.5367 47.7641ZM27.9717 42.9592C28.4831 42.3895 29.1353 41.4876 29.1455 40.6448C29.1524 39.6888 28.3782 38.9146 27.4222 38.9214C26.4662 38.9283 25.6807 39.7138 25.6738 40.6698C25.6677 41.5167 26.3112 42.4052 26.8145 42.9675C27.1264 43.3217 27.6589 43.3137 27.9801 42.9592L27.9717 42.9592ZM25.8785 19.793C25.4369 19.3514 25.1914 18.7499 25.1959 18.1209C25.2004 17.4918 25.4547 16.8867 25.9027 16.4387C26.3507 15.9907 26.9558 15.7365 27.5848 15.7319C28.2139 15.7274 28.8154 15.973 29.257 16.4146C29.6986 16.8562 29.9441 17.4577 29.9396 18.0867C29.9351 18.7158 29.6808 19.3209 29.2328 19.7689C28.7848 20.2169 28.1797 20.4711 27.5507 20.4756C26.9216 20.4802 26.3201 20.2346 25.8785 19.793Z" fill="currentcolor"/>
</svg>
