<svg viewBox="0 0 32 32" fill="none" xmlns="http://www.w3.org/2000/svg">
<path d="M15.6594 9.5C16.3781 9.5 16.9875 9.95937 17.2156 10.6C17.3531 10.9906 17.7812 11.1938 18.1719 11.0563C18.5625 10.9188 18.7656 10.4906 18.6281 10.1C18.1969 8.87812 17.0312 8 15.6594 8C14.2875 8 13.1188 8.87812 12.6875 10.1C12.55 10.4906 12.7531 10.9188 13.1438 11.0563C13.5344 11.1938 13.9625 10.9906 14.1 10.6C14.3281 9.95937 14.9406 9.5 15.6594 9.5ZM9.08437 14.1719C9.45625 13.9875 9.60625 13.5375 9.41875 13.1656C9.23125 12.7938 8.78437 12.6438 8.4125 12.8313L8.26562 12.9031C7.49063 13.2906 7 14.0844 7 14.9563C7 16.125 7.875 17.0906 9.00625 17.2344C9.075 18.7719 9.84375 20.1313 11 21V22.5C11 23.3281 11.6719 24 12.5 24H14C14.8281 24 15.5 23.3281 15.5 22.5V22H17V22.5C17 23.3281 17.6719 24 18.5 24H20C20.8281 24 21.5 23.3281 21.5 22.5V21.3313C22.0844 20.9938 22.5969 20.5375 23 20H24C24.5531 20 25 19.5531 25 19V16C25 15.4469 24.5531 15 24 15H23.5844C23.3281 14.4125 22.9625 13.8844 22.5156 13.4437L22.8687 12.2937C23.0656 11.65 22.5844 11 21.9125 11H21.25C20.2656 11 19.3687 11.3812 18.7 12H14C11.675 12 9.71875 13.5875 9.15937 15.7375C8.78437 15.675 8.5 15.3469 8.5 14.9531C8.5 14.6531 8.66875 14.3781 8.94062 14.2406L9.0875 14.1687L9.08437 14.1719ZM20.25 17C20.4489 17 20.6397 16.921 20.7803 16.7803C20.921 16.6397 21 16.4489 21 16.25C21 16.0511 20.921 15.8603 20.7803 15.7197C20.6397 15.579 20.4489 15.5 20.25 15.5C20.0511 15.5 19.8603 15.579 19.7197 15.7197C19.579 15.8603 19.5 16.0511 19.5 16.25C19.5 16.4489 19.579 16.6397 19.7197 16.7803C19.8603 16.921 20.0511 17 20.25 17ZM19.5719 13.25C19.9812 12.7906 20.575 12.5031 21.2344 12.5L20.9375 13.4625C20.8469 13.7562 20.9437 14.075 21.1844 14.2688C21.7281 14.7031 22.1344 15.2938 22.3438 15.9719C22.4406 16.2875 22.7313 16.5031 23.0594 16.5031H23.4969V18.5031H22.6062C22.3469 18.5031 22.1062 18.6375 21.9719 18.8562C21.6062 19.4406 21.075 19.9094 20.4438 20.1938C20.1719 20.3125 20 20.5781 20 20.875V22.5H18.5V21.25C18.5 20.8344 18.1656 20.5 17.75 20.5H14.75C14.3344 20.5 14 20.8344 14 21.25V22.5H12.5V20.6062C12.5 20.3469 12.3656 20.1062 12.1469 19.9719C11.1562 19.3531 10.5 18.2531 10.5 17.0031C10.5 15.0688 12.0656 13.5031 14 13.5031H19H19.0125C19.225 13.5031 19.4312 13.4125 19.5719 13.2531V13.25Z" fill="currentcolor"/>
</svg>
