<svg viewBox="0 0 32 32" fill="none" xmlns="http://www.w3.org/2000/svg">
<path d="M16 8C16.4156 8 16.75 8.33437 16.75 8.75V15.25H23.25C23.6656 15.25 24 15.5844 24 16C24 16.4156 23.6656 16.75 23.25 16.75H16.75V23.25C16.75 23.6656 16.4156 24 16 24C15.5844 24 15.25 23.6656 15.25 23.25V16.75H8.75C8.33437 16.75 8 16.4156 8 16C8 15.5844 8.33437 15.25 8.75 15.25H15.25V8.75C15.25 8.33437 15.5844 8 16 8ZM20.5 9C20.9156 9 21.25 9.33438 21.25 9.75V10.75H22.25C22.6656 10.75 23 11.0844 23 11.5C23 11.9156 22.6656 12.25 22.25 12.25H21.25V13.25C21.25 13.6656 20.9156 14 20.5 14C20.0844 14 19.75 13.6656 19.75 13.25V12.25H18.75C18.3344 12.25 18 11.9156 18 11.5C18 11.0844 18.3344 10.75 18.75 10.75H19.75V9.75C19.75 9.33438 20.0844 9 20.5 9ZM9.73125 18.7312C10.025 18.4375 10.5 18.4375 10.7906 18.7312L11.5 19.4406L12.2063 18.7344C12.5 18.4406 12.975 18.4406 13.2656 18.7344C13.5563 19.0281 13.5594 19.5031 13.2656 19.7937L12.5594 20.5L13.2656 21.2063C13.5594 21.5 13.5594 21.975 13.2656 22.2656C12.9719 22.5562 12.4969 22.5594 12.2063 22.2656L11.5 21.5594L10.7938 22.2688C10.5 22.5625 10.025 22.5625 9.73438 22.2688C9.44375 21.975 9.44062 21.5 9.73438 21.2094L10.4406 20.5L9.73125 19.7937C9.4375 19.5 9.4375 19.025 9.73125 18.7344V18.7312ZM10 10.75H13C13.4156 10.75 13.75 11.0844 13.75 11.5C13.75 11.9156 13.4156 12.25 13 12.25H10C9.58438 12.25 9.25 11.9156 9.25 11.5C9.25 11.0844 9.58438 10.75 10 10.75ZM19 18.5H22C22.4156 18.5 22.75 18.8344 22.75 19.25C22.75 19.6656 22.4156 20 22 20H19C18.5844 20 18.25 19.6656 18.25 19.25C18.25 18.8344 18.5844 18.5 19 18.5ZM19 21H22C22.4156 21 22.75 21.3344 22.75 21.75C22.75 22.1656 22.4156 22.5 22 22.5H19C18.5844 22.5 18.25 22.1656 18.25 21.75C18.25 21.3344 18.5844 21 19 21Z" fill="currentColor"/>
</svg>
