<svg viewBox="0 0 32 32" fill="none" xmlns="http://www.w3.org/2000/svg">
<path d="M13 14.4988C13.663 14.4988 14.2989 14.2354 14.7678 13.7666C15.2366 13.2978 15.5 12.6619 15.5 11.9988C15.5 11.3358 15.2366 10.6999 14.7678 10.2311C14.2989 9.76223 13.663 9.49884 13 9.49884C12.337 9.49884 11.7011 9.76223 11.2322 10.2311C10.7634 10.6999 10.5 11.3358 10.5 11.9988C10.5 12.6619 10.7634 13.2978 11.2322 13.7666C11.7011 14.2354 12.337 14.4988 13 14.4988ZM13 7.99884C14.0609 7.99884 15.0783 8.42027 15.8284 9.17041C16.5786 9.92056 17 10.938 17 11.9988C17 13.0597 16.5786 14.0771 15.8284 14.8273C15.0783 15.5774 14.0609 15.9988 13 15.9988C11.9391 15.9988 10.9217 15.5774 10.1716 14.8273C9.42143 14.0771 9 13.0597 9 11.9988C9 10.938 9.42143 9.92056 10.1716 9.17041C10.9217 8.42027 11.9391 7.99884 13 7.99884ZM7.54062 22.4988H17.7094C18.1219 23.0363 18.625 23.5426 19.2375 23.9832C19.1844 23.9926 19.1281 23.9988 19.0719 23.9988H6.92813C6.41563 23.9988 6 23.5832 6 23.0707C6 19.9926 8.49375 17.4988 11.5719 17.4988H13H14.4281C14.9781 17.4988 15.5094 17.5801 16.0125 17.727C16.0406 18.2457 16.1188 18.8301 16.2719 19.4395C15.7188 19.1582 15.0906 18.9988 14.4281 18.9988H11.5719C9.51875 18.9988 7.81875 20.5207 7.54062 22.4988ZM21.2219 15.052C21.4 14.9801 21.6 14.9801 21.7781 15.052L25.5281 16.552C25.8125 16.6676 26 16.9426 26 17.2488C26 19.227 25.1906 22.5238 21.7875 23.9426C21.6031 24.0207 21.3938 24.0207 21.2094 23.9426C17.8094 22.5238 17 19.227 17 17.2488C17 16.9426 17.1875 16.6676 17.4719 16.552L21.2219 15.052ZM24.4813 17.7488L21.5 16.5551V22.427C23.6313 21.3957 24.3594 19.3332 24.4813 17.7488Z" fill="currentColor"/>
</svg>
