<svg viewBox="0 0 32 32" fill="none" xmlns="http://www.w3.org/2000/svg">
<path d="M17.6031 14.4688C20.1937 14.1844 22.2406 12.1062 22.4781 9.5H22.25C19.8531 9.5 17.8125 11.0344 17.0594 13.1719C16.7844 12.6469 16.4531 12.1531 16.0719 11.7C17.2531 9.5 19.5781 8 22.25 8H23C23.5531 8 24 8.44687 24 9C24 12.55 21.3562 15.4812 17.9312 15.9375C17.8656 15.4313 17.7562 14.9406 17.6031 14.4656V14.4688ZM9.5 11.5V12C9.5 15.0375 11.9625 17.5 15 17.5H15.25V17C15.25 13.9625 12.7875 11.5 9.75 11.5H9.5ZM16.75 17V17.5V19V23.25C16.75 23.6656 16.4156 24 16 24C15.5844 24 15.25 23.6656 15.25 23.25V19H15C11.1344 19 8 15.8656 8 12V11C8 10.4469 8.44687 10 9 10H9.75C13.6156 10 16.75 13.1344 16.75 17Z" fill="currentColor"/>
</svg>
