<svg viewBox="0 0 32 32" fill="none" xmlns="http://www.w3.org/2000/svg">
<path d="M17 9.97187L14.8844 13.5H19.1156L17 9.97187ZM20.8562 13.4844C21.0406 13.7937 21.0469 14.1781 20.8687 14.4906C20.6906 14.8031 20.3594 14.9969 20 14.9969H14C13.6406 14.9969 13.3063 14.8031 13.1312 14.4906C12.9562 14.1781 12.9594 13.7937 13.1438 13.4844L16.1438 8.48438C16.3219 8.18437 16.65 8 17 8C17.35 8 17.6781 8.18437 17.8562 8.48438L20.8562 13.4844ZM22.5 18H18.5V22H22.5V18ZM18.25 16.5H22.75C23.4406 16.5 24 17.0594 24 17.75V22.25C24 22.9406 23.4406 23.5 22.75 23.5H18.25C17.5594 23.5 17 22.9406 17 22.25V17.75C17 17.0594 17.5594 16.5 18.25 16.5ZM14.5 20C14.5 19.337 14.2366 18.7011 13.7678 18.2322C13.2989 17.7634 12.663 17.5 12 17.5C11.337 17.5 10.7011 17.7634 10.2322 18.2322C9.76339 18.7011 9.5 19.337 9.5 20C9.5 20.663 9.76339 21.2989 10.2322 21.7678C10.7011 22.2366 11.337 22.5 12 22.5C12.663 22.5 13.2989 22.2366 13.7678 21.7678C14.2366 21.2989 14.5 20.663 14.5 20ZM8 20C8 18.9391 8.42143 17.9217 9.17157 17.1716C9.92172 16.4214 10.9391 16 12 16C13.0609 16 14.0783 16.4214 14.8284 17.1716C15.5786 17.9217 16 18.9391 16 20C16 21.0609 15.5786 22.0783 14.8284 22.8284C14.0783 23.5786 13.0609 24 12 24C10.9391 24 9.92172 23.5786 9.17157 22.8284C8.42143 22.0783 8 21.0609 8 20Z" fill="currentColor"/>
</svg>
