<svg viewBox="0 0 32 32" fill="currentColor" xmlns="http://www.w3.org/2000/svg">
<path d="M13.8235 12.7414C12.7407 12.7414 11.8586 13.5598 11.8586 14.5789C11.8586 15.5883 12.7407 16.4163 13.8235 16.4163C14.9062 16.4163 15.7883 15.5883 15.7883 14.5789C15.7883 13.5598 14.9062 12.7414 13.8235 12.7414ZM18.39 12.7414C17.3072 12.7414 16.4252 13.5598 16.4252 14.5789C16.4252 15.5883 17.3072 16.4163 18.39 16.4163C19.4822 16.4163 20.3548 15.5883 20.3548 14.5789C20.358 13.5598 19.4822 12.7414 18.39 12.7414ZM23.3768 15.6074L23.1858 15.7444V9.4296C23.1858 8.55706 22.5298 7.84692 21.7209 7.84692H10.2855C9.47667 7.84692 8.82067 8.55706 8.82067 9.4296V15.7444C8.75698 15.6998 8.68374 15.652 8.62005 15.6074C8.1392 15.2699 7.82075 15.7348 8.11054 16.1711C8.69329 16.8908 9.80149 17.7729 11.4956 18.4639C9.70277 24.5685 15.8711 25.5429 15.7723 22.4158C15.7723 22.3935 15.7819 20.6134 15.7819 19.3396C15.9443 19.3747 16.0812 19.4129 16.2182 19.4383C16.2182 20.7026 16.2277 22.3935 16.2277 22.4158C16.129 25.5461 22.2973 24.5717 20.5044 18.4671C22.1954 17.7761 23.3068 16.894 23.8895 16.1743C24.1793 15.7348 23.8609 15.2731 23.3768 15.6074ZM22.4056 16.2189C20.2115 17.4098 18.3199 17.2092 17.2913 17.1646C16.5366 17.136 16.2532 17.4544 16.2182 17.9576C15.8902 17.7124 15.6259 17.464 15.5717 17.413C15.4093 17.2411 15.1354 17.1583 14.7087 17.1678C13.6993 17.2029 11.8523 17.4035 9.6964 16.2762V10.1493C9.6964 9.03791 9.97981 8.69399 10.9893 8.69399H21.1063C22.0712 8.69399 22.4087 9.10478 22.4087 10.1493V16.2189H22.4056Z" fill="currentColor"/>
</svg>
