<svg viewBox="0 0 32 32" fill="none" xmlns="http://www.w3.org/2000/svg">
<path d="M18.2344 10.6625C18.0938 10.7156 18 10.85 18 11C18 11.15 18.0938 11.2844 18.2344 11.3375L20 12L20.6625 13.7656C20.7156 13.9062 20.85 14 21 14C21.15 14 21.2844 13.9062 21.3375 13.7656L22 12L23.7656 11.3375C23.9062 11.2844 24 11.15 24 11C24 10.85 23.9062 10.7156 23.7656 10.6625L22 10L21.3375 8.23438C21.2844 8.09375 21.15 8 21 8C20.85 8 20.7156 8.09375 20.6625 8.23438L20 10L18.2344 10.6625ZM8.29063 15.5C8.1125 15.5813 8 15.7594 8 15.9563C8 16.1531 8.1125 16.3281 8.29063 16.4094L8.82187 16.6562L9.075 16.7719L9.09375 16.7812L11.8531 18.0562L13.1281 20.8125L13.1375 20.8313L13.2531 21.0844L13.5 21.6187C13.5813 21.7969 13.7594 21.9094 13.9531 21.9094C14.1469 21.9094 14.325 21.7969 14.4062 21.6187L14.6531 21.0844L14.7688 20.8313L14.7781 20.8125L16.0531 18.0531L18.8125 16.7812L18.8313 16.7719L19.0844 16.6562L19.6187 16.4094C19.7969 16.3281 19.9094 16.15 19.9094 15.9563C19.9094 15.7625 19.7969 15.5844 19.6187 15.5031L19.0844 15.2562L18.8313 15.1406L18.8125 15.1312L16.0531 13.8562L14.7812 11.0969L14.7719 11.0781L14.6562 10.8219L14.4094 10.2875C14.3281 10.1094 14.15 9.99688 13.9563 9.99688C13.7625 9.99688 13.5844 10.1094 13.5031 10.2875L13.2562 10.8219L13.1406 11.075L13.1312 11.0938L11.8563 13.8531L9.09687 15.1281L9.07812 15.1375L8.825 15.2531L8.29063 15.5ZM10.8844 15.9531L12.4844 15.2156C12.8094 15.0656 13.0687 14.8062 13.2188 14.4812L13.9563 12.8812L14.6937 14.4812C14.8438 14.8062 15.1031 15.0656 15.4281 15.2156L17.0281 15.9531L15.4281 16.6906C15.1031 16.8406 14.8438 17.1 14.6937 17.425L13.9563 19.025L13.2188 17.425C13.0687 17.1 12.8094 16.8406 12.4844 16.6906L10.8844 15.9563V15.9531ZM20 20L18.2344 20.6625C18.0938 20.7156 18 20.85 18 21C18 21.15 18.0938 21.2844 18.2344 21.3375L20 22L20.6625 23.7656C20.7156 23.9062 20.85 24 21 24C21.15 24 21.2844 23.9062 21.3375 23.7656L22 22L23.7656 21.3375C23.9062 21.2844 24 21.15 24 21C24 20.85 23.9062 20.7156 23.7656 20.6625L22 20L21.3375 18.2344C21.2844 18.0938 21.15 18 21 18C20.85 18 20.7156 18.0938 20.6625 18.2344L20 20Z" fill="currentColor"/>
</svg>
