<svg viewBox="0 0 32 32" fill="none" xmlns="http://www.w3.org/2000/svg">
<path d="M17.3531 11.6469C17.4469 11.4531 17.5 11.2344 17.5 11C17.5 10.1719 16.8281 9.5 16 9.5C15.1719 9.5 14.5 10.1719 14.5 11C14.5 11.2344 14.5531 11.4531 14.6469 11.6469L14.6562 11.6656C14.875 12.1219 15.25 12.9031 15.25 13.8125C15.25 15.85 13.6 17.5 11.5625 17.5H11C10.1719 17.5 9.5 18.1719 9.5 19V19.25C9.5 19.3875 9.6125 19.5 9.75 19.5H22.25C22.3875 19.5 22.5 19.3875 22.5 19.25V19C22.5 18.1719 21.8281 17.5 21 17.5H20.4375C18.4 17.5 16.75 15.85 16.75 13.8125C16.75 12.9062 17.125 12.1219 17.3438 11.6688L17.3531 11.65V11.6469ZM18.7063 12.2969C18.475 12.7781 18.25 13.2781 18.25 13.8125C18.25 15.0219 19.2312 16 20.4375 16H21C22.6562 16 24 17.3438 24 19V19.25C24 20.2156 23.2156 21 22.25 21H9.75C8.78438 21 8 20.2156 8 19.25V19C8 17.3438 9.34375 16 11 16H11.5625C12.7719 16 13.75 15.0219 13.75 13.8125C13.75 13.2781 13.525 12.7781 13.2937 12.2969C13.1062 11.9031 13 11.4656 13 11C13 9.34375 14.3438 8 16 8C17.6562 8 19 9.34375 19 11C19 11.4656 18.8938 11.9031 18.7063 12.2969ZM9 23C9 22.4469 9.44687 22 10 22H22C22.5531 22 23 22.4469 23 23C23 23.5531 22.5531 24 22 24H10C9.44687 24 9 23.5531 9 23Z" fill="currentColor"/>
</svg>
