<svg viewBox="0 0 17 17" fill="none" xmlns="http://www.w3.org/2000/svg">
<path d="M9.37043 1.06044C9.21035 0.720174 8.87018 0.5 8.5 0.5C8.12982 0.5 7.78965 0.720174 7.62957 1.06044L5.6786 5.19372L1.32643 5.85424C0.966251 5.91429 0.656097 6.17449 0.546042 6.53478C0.435987 6.89506 0.526032 7.29538 0.786161 7.55558L3.94773 10.7781L3.19736 15.3317C3.13733 15.712 3.28741 16.0923 3.58756 16.3125C3.8877 16.5327 4.2879 16.5627 4.60806 16.3826L8.5 14.2409L12.3919 16.3826C12.7221 16.5627 13.1123 16.5327 13.4124 16.3125C13.7126 16.0923 13.8627 15.712 13.8026 15.3317L13.0523 10.7781L16.2138 7.55558C16.474 7.28537 16.564 6.89506 16.454 6.53478C16.3339 6.17449 16.0337 5.91429 15.6736 5.85424L11.3214 5.19372L9.37043 1.06044Z" stroke="currentColor" stroke-miterlimit="10"/>
<path d="M8.5 0.5C8.12982 0.5 7.78965 0.720174 7.62957 1.06044L5.6786 5.19372L1.32643 5.85424C0.966251 5.91429 0.656097 6.17449 0.546042 6.53478C0.435987 6.89506 0.526032 7.29538 0.786161 7.55558L3.94773 10.7781L3.19736 15.3317C3.13733 15.712 3.28741 16.0923 3.58756 16.3125C3.8877 16.5327 4.2879 16.5627 4.60806 16.3826L8.5 14.2409V0.5Z" fill="currentColor"/>
</svg>
