<svg viewBox="0 0 32 32" fill="none" xmlns="http://www.w3.org/2000/svg">
<path d="M16.8705 8.78777C16.7099 8.45447 16.3705 8.24237 15.9978 8.24237C15.6251 8.24237 15.2888 8.45447 15.1252 8.78777L13.1769 12.7964L8.82586 13.4388C8.46227 13.4933 8.15927 13.7478 8.04716 14.0963C7.93505 14.4447 8.02595 14.8295 8.28653 15.0871L11.4438 18.211L10.6984 22.6257C10.6378 22.9893 10.7893 23.3589 11.0893 23.5741C11.3892 23.7892 11.7862 23.8165 12.1134 23.6438L16.0009 21.5682L19.8883 23.6438C20.2156 23.8165 20.6125 23.7922 20.9124 23.5741C21.2124 23.3559 21.3639 22.9893 21.3033 22.6257L20.5549 18.211L23.7121 15.0871C23.9727 14.8295 24.0667 14.4447 23.9515 14.0963C23.8364 13.7478 23.5364 13.4933 23.1728 13.4388L18.8187 12.7964L16.8705 8.78777Z" fill="currentcolor"/>
</svg>
