<svg viewBox="0 0 20 20" fill="none" xmlns="http://www.w3.org/2000/svg">
<path d="M17.07 2.93C15.19 1.05 12.65 0 10 0C7.35 0 4.8 1.05 2.93 2.93C1.06 4.81 0 7.35 0 10C0 12.65 1.05 15.2 2.93 17.07C4.81 18.95 7.35 20 10 20C12.65 20 15.2 18.95 17.07 17.07C18.95 15.19 20 12.65 20 10C20 7.35 18.95 4.8 17.07 2.93ZM14.93 10.71L11.46 14.18C11.27 14.37 11.01 14.48 10.74 14.48C10.47 14.48 10.21 14.37 10.02 14.18C9.63 13.78 9.63 13.14 10.02 12.75L11.76 11.01H5.78C5.22 11.01 4.77 10.55 4.77 9.99C4.77 9.43 5.22 8.98 5.78 8.98H11.76L10.02 7.24C9.83 7.05 9.72 6.79 9.72 6.52C9.72 6.25 9.83 6 10.02 5.81C10.21 5.62 10.47 5.51 10.74 5.51C11.01 5.51 11.26 5.62 11.45 5.81L14.92 9.28C15.11 9.47 15.22 9.73 15.22 10C15.22 10.27 15.11 10.52 14.92 10.71H14.93Z" fill="#0046AB"/>
</svg>
