<svg viewBox="0 0 32 32" fill="none" xmlns="http://www.w3.org/2000/svg">
<path d="M23 19.455C23 20.555 22.1 21.455 21 21.455V19.955C21.27 19.955 21.5 19.725 21.5 19.455V15.205H10.5V19.455C10.5 19.735 10.73 19.955 11 19.955V21.455C9.97 21.455 9.11 20.665 9 19.655V19.455V9.45496V9.25496C9.11 8.30496 9.85 7.55496 10.79 7.45496H10.99H20.99C22.09 7.45496 22.99 8.35496 22.99 9.45496V19.455H23ZM21.5 9.45496C21.5 9.17496 21.27 8.95496 21 8.95496H11C10.73 8.95496 10.5 9.18496 10.5 9.45496V13.705H21.5V9.45496ZM16 16.845C13.88 16.845 12.15 18.565 12.15 20.695C12.15 22.815 13.87 24.545 16 24.545C18.13 24.545 19.85 22.825 19.85 20.695C19.85 18.565 18.13 16.845 16 16.845ZM14.2 20.605C14.37 20.435 14.64 20.435 14.8 20.605L15.57 21.375V18.985C15.57 18.745 15.76 18.555 16 18.555C16.24 18.555 16.43 18.745 16.43 18.985V21.375L17.2 20.605C17.37 20.435 17.64 20.435 17.8 20.605C17.97 20.775 17.97 21.045 17.8 21.205L16.3 22.705C16.13 22.875 15.86 22.875 15.7 22.705L14.2 21.205C14.03 21.035 14.03 20.765 14.2 20.605Z" fill="currentColor"/>
</svg>
