<svg viewBox="0 0 32 32" fill="none" xmlns="http://www.w3.org/2000/svg">
<path d="M9.00488 12.5498C9.00488 11.4498 9.90488 10.5498 11.0049 10.5498V12.0498C10.7349 12.0498 10.5049 12.2798 10.5049 12.5498V16.7998H21.5049V12.5498C21.5049 12.2698 21.2749 12.0498 21.0049 12.0498V10.5498C22.0349 10.5498 22.8949 11.3398 22.9949 12.3498V12.5498V22.5498V22.7498C22.8849 23.6898 22.1449 24.4398 21.2049 24.5298H21.0049H11.0049C9.90488 24.5498 9.00488 23.6498 9.00488 22.5498V12.5498ZM10.5049 22.5498C10.5049 22.8298 10.7349 23.0498 11.0049 23.0498H21.0049C21.2749 23.0498 21.5049 22.8198 21.5049 22.5498V18.2998H10.5049V22.5498ZM16.0049 7.46985C13.8849 7.46985 12.1549 9.18985 12.1549 11.3198C12.1549 13.4498 13.8749 15.1698 16.0049 15.1698C18.1349 15.1698 19.8549 13.4498 19.8549 11.3198C19.8549 9.18985 18.1349 7.46985 16.0049 7.46985ZM17.8049 11.4098C17.6349 11.5798 17.3649 11.5798 17.2049 11.4098L16.4349 10.6398V13.0298C16.4349 13.2698 16.2449 13.4598 16.0049 13.4598C15.7649 13.4598 15.5749 13.2698 15.5749 13.0298V10.6398L14.8049 11.4098C14.6349 11.5798 14.3649 11.5798 14.2049 11.4098C14.0349 11.2398 14.0349 10.9698 14.2049 10.8098L15.7049 9.30985C15.8749 9.13985 16.1449 9.13985 16.3049 9.30985L17.8049 10.8098C17.9749 10.9798 17.9749 11.2498 17.8049 11.4098Z" fill="currentColor"/>
</svg>
