<svg viewBox="0 0 16 16" fill="none" xmlns="http://www.w3.org/2000/svg">
<path id="Vector" d="M6.5 13C6.5 12.1719 5.82812 11.5 5 11.5H2C1.725 11.5 1.5 11.275 1.5 11V2C1.5 1.725 1.725 1.5 2 1.5H14C14.275 1.5 14.5 1.725 14.5 2V11C14.5 11.275 14.275 11.5 14 11.5H9.66562C9.34062 11.5 9.025 11.6062 8.76562 11.8L6.5 13.5V13ZM6.49375 15.3813L6.5 15.375L9.66562 13H14C15.1031 13 16 12.1031 16 11V2C16 0.896875 15.1031 0 14 0H2C0.896875 0 0 0.896875 0 2V11C0 12.1031 0.896875 13 2 13H3.5H5V14.5V14.625V14.6344V14.8344V15.5C5 15.6906 5.10625 15.8625 5.275 15.9469C5.44375 16.0312 5.64688 16.0125 5.8 15.9L6.33437 15.5L6.49375 15.3813ZM4.75 4.5C4.33437 4.5 4 4.83437 4 5.25C4 5.66563 4.33437 6 4.75 6H11.25C11.6656 6 12 5.66563 12 5.25C12 4.83437 11.6656 4.5 11.25 4.5H4.75ZM4.75 7.5C4.33437 7.5 4 7.83437 4 8.25C4 8.66562 4.33437 9 4.75 9H8.25C8.66562 9 9 8.66562 9 8.25C9 7.83437 8.66562 7.5 8.25 7.5H4.75Z" fill="currentColor"/>
</svg>
