<svg viewBox="0 0 32 32" fill="none" xmlns="http://www.w3.org/2000/svg">
<path d="M10 10C10.2652 10 10.5196 10.1054 10.7071 10.2929C10.8946 10.4804 11 10.7348 11 11C11 11.2652 10.8946 11.5196 10.7071 11.7071C10.5196 11.8946 10.2652 12 10 12C9.73478 12 9.48043 11.8946 9.29289 11.7071C9.10536 11.5196 9 11.2652 9 11C9 10.7348 9.10536 10.4804 9.29289 10.2929C9.48043 10.1054 9.73478 10 10 10ZM10.75 13.3844C11.7656 13.0656 12.5 12.1188 12.5 11C12.5 9.61875 11.3812 8.5 10 8.5C8.61875 8.5 7.5 9.61875 7.5 11C7.5 12.1188 8.23438 13.0656 9.25 13.3844V15.25H6.75C6.33437 15.25 6 15.5844 6 16C6 16.4156 6.33437 16.75 6.75 16.75H15.25V18.6156C14.2344 18.9344 13.5 19.8813 13.5 21C13.5 22.3813 14.6187 23.5 16 23.5C17.3813 23.5 18.5 22.3813 18.5 21C18.5 19.8813 17.7656 18.9344 16.75 18.6156V16.75H25.25C25.6656 16.75 26 16.4156 26 16C26 15.5844 25.6656 15.25 25.25 15.25H22.75V13.3844C23.7656 13.0656 24.5 12.1188 24.5 11C24.5 9.61875 23.3813 8.5 22 8.5C20.6187 8.5 19.5 9.61875 19.5 11C19.5 12.1188 20.2344 13.0656 21.25 13.3844V15.25H10.75V13.3844ZM16 22C15.7348 22 15.4804 21.8946 15.2929 21.7071C15.1054 21.5196 15 21.2652 15 21C15 20.7348 15.1054 20.4804 15.2929 20.2929C15.4804 20.1054 15.7348 20 16 20C16.2652 20 16.5196 20.1054 16.7071 20.2929C16.8946 20.4804 17 20.7348 17 21C17 21.2652 16.8946 21.5196 16.7071 21.7071C16.5196 21.8946 16.2652 22 16 22ZM21 11C21 10.7348 21.1054 10.4804 21.2929 10.2929C21.4804 10.1054 21.7348 10 22 10C22.2652 10 22.5196 10.1054 22.7071 10.2929C22.8946 10.4804 23 10.7348 23 11C23 11.2652 22.8946 11.5196 22.7071 11.7071C22.5196 11.8946 22.2652 12 22 12C21.7348 12 21.4804 11.8946 21.2929 11.7071C21.1054 11.5196 21 11.2652 21 11Z" fill="currentcolor"/>
</svg>
