<svg viewBox="0 0 32 32" fill="currentColor" xmlns="http://www.w3.org/2000/svg">
  <path d="M14 20.5C14 20.6326 13.9473 20.7598 13.8536 20.8536C13.7598 20.9473 13.6326 21 13.5 21C13.3674 21 13.2402 20.9473 13.1464 20.8536C13.0527 20.7598 13 20.6326 13 20.5V14C13 13.8674 13.0527 13.7402 13.1464 13.6464C13.2402 13.5527 13.3674 13.5 13.5 13.5C13.6326 13.5 13.7598 13.5527 13.8536 13.6464C13.9473 13.7402 14 13.8674 14 14V20.5ZM16.5 20.5C16.5 20.6326 16.4473 20.7598 16.3536 20.8536C16.2598 20.9473 16.1326 21 16 21C15.8674 21 15.7402 20.9473 15.6464 20.8536C15.5527 20.7598 15.5 20.6326 15.5 20.5V14C15.5 13.8674 15.5527 13.7402 15.6464 13.6464C15.7402 13.5527 15.8674 13.5 16 13.5C16.1326 13.5 16.2598 13.5527 16.3536 13.6464C16.4473 13.7402 16.5 13.8674 16.5 14V20.5ZM19 20.5C19 20.6326 18.9473 20.7598 18.8536 20.8536C18.7598 20.9473 18.6326 21 18.5 21C18.3674 21 18.2402 20.9473 18.1464 20.8536C18.0527 20.7598 18 20.6326 18 20.5V14C18 13.8674 18.0527 13.7402 18.1464 13.6464C18.2402 13.5527 18.3674 13.5 18.5 13.5C18.6326 13.5 18.7598 13.5527 18.8536 13.6464C18.9473 13.7402 19 13.8674 19 14V20.5ZM18.922 8.779L20.069 10.5H22.25C22.4489 10.5 22.6397 10.579 22.7803 10.7197C22.921 10.8603 23 11.0511 23 11.25C23 11.4489 22.921 11.6397 22.7803 11.7803C22.6397 11.921 22.4489 12 22.25 12H22V21.5C22 22.163 21.7366 22.7989 21.2678 23.2678C20.7989 23.7366 20.163 24 19.5 24H12.5C11.837 24 11.2011 23.7366 10.7322 23.2678C10.2634 22.7989 10 22.163 10 21.5V12H9.75C9.55109 12 9.36032 11.921 9.21967 11.7803C9.07902 11.6397 9 11.4489 9 11.25C9 11.0511 9.07902 10.8603 9.21967 10.7197C9.36032 10.579 9.55109 10.5 9.75 10.5H11.932L13.078 8.779C13.238 8.53948 13.4545 8.34308 13.7085 8.20721C13.9624 8.07133 14.246 8.00016 14.534 8H17.466C17.754 8.00016 18.0376 8.07133 18.2915 8.20721C18.5455 8.34308 18.762 8.53948 18.922 8.779ZM13.734 10.5H18.266L17.672 9.611C17.6493 9.57716 17.6186 9.54937 17.5827 9.53003C17.5468 9.51069 17.5068 9.50038 17.466 9.5H14.534C14.453 9.5 14.347 9.542 14.328 9.611L13.734 10.5ZM11.5 21.5C11.5 21.7652 11.6054 22.0196 11.7929 22.2071C11.9804 22.3946 12.2348 22.5 12.5 22.5H19.5C19.7652 22.5 20.0196 22.3946 20.2071 22.2071C20.3946 22.0196 20.5 21.7652 20.5 21.5V12H11.5V21.5Z" />
</svg>