<svg viewBox="0 0 32 32" fill="currentColor" xmlns="http://www.w3.org/2000/svg">
<path d="M11.5 10.5V19.25H20.5V10.5H11.5ZM10 19.25V10.5C10 9.67188 10.6719 9 11.5 9H20.5C21.3281 9 22 9.67188 22 10.5V19.25C22.4156 19.25 22.75 19.5844 22.75 20C22.75 20.4156 22.4156 20.75 22 20.75H20.5H11.5H10C9.58437 20.75 9.25 20.4156 9.25 20C9.25 19.5844 9.58437 19.25 10 19.25ZM9 17V18.5H8.5V21.5H23.5V18.5H23V17H23.5C24.3281 17 25 17.6719 25 18.5V21.5C25 22.3281 24.3281 23 23.5 23H8.5C7.67188 23 7 22.3281 7 21.5V18.5C7 17.6719 7.67188 17 8.5 17H9ZM19.0312 13.6125L15.6969 16.9469C15.5562 17.0875 15.3656 17.1656 15.1656 17.1656C14.9656 17.1656 14.775 17.0875 14.6344 16.9469L12.9688 15.2812C12.675 14.9875 12.675 14.5125 12.9688 14.2219C13.2625 13.9313 13.7375 13.9281 14.0281 14.2219L15.1656 15.3594L17.9688 12.5531C18.2625 12.2594 18.7375 12.2594 19.0281 12.5531C19.3187 12.8469 19.3219 13.3219 19.0281 13.6125H19.0312Z" fill="currentColor"/>
</svg>
