<svg id="upload_icon" xmlns="http://www.w3.org/2000/svg" viewBox="0 0 32 32" fill="currentColor">
  <rect id="Rectangle_8276" data-name="Rectangle 8276" fill="none"/>
  <path id="cloud-arrow-up-regular" d="M10.821,37.107a.826.826,0,0,1,1.182,0l2.857,2.857a.836.836,0,1,1-1.182,1.182l-1.393-1.364v4.789a.857.857,0,0,1-1.714,0V39.782L9.146,41.146a.776.776,0,0,1-1.182,0,.826.826,0,0,1,0-1.182ZM5.143,48a5.144,5.144,0,0,1-1.714-9.993V38a6,6,0,0,1,10.546-3.917A4.287,4.287,0,0,1,20,38a4.379,4.379,0,0,1-.054.689,4.86,4.86,0,0,1-1.661,9.3V48ZM9.429,33.714A4.285,4.285,0,0,0,5.143,38v1.217l-1.175.407a3.435,3.435,0,0,0,1.175,6.661h12.95l.093-.007a3.143,3.143,0,0,0,1.071-6.018l-1.218-.532.214-1.311A2.676,2.676,0,0,0,18.286,38a2.57,2.57,0,0,0-2.571-2.571,2.514,2.514,0,0,0-1.043.221l-1.164.518-.832-.964A4.289,4.289,0,0,0,9.4,33.714Z" transform="translate(5 -24)"  fill="currentColor"/>
</svg>
