<svg viewBox="0 0 32 32" fill="none" xmlns="http://www.w3.org/2000/svg">
<path d="M13 8.00003C10.7906 8.00003 9 9.79066 9 12C9 14.2094 10.7906 16 13 16C15.2094 16 17 14.2094 17 12C17 9.79066 15.2094 8.00003 13 8.00003ZM13 14.5C11.6188 14.5 10.5 13.3813 10.5 12C10.5 10.6188 11.6188 9.50003 13 9.50003C14.3813 9.50003 15.5 10.6188 15.5 12C15.5 13.3813 14.3813 14.5 13 14.5ZM14.4281 17.5H11.5719C8.49375 17.5 6 19.9938 6 23.0719C6 23.5844 6.41563 24 6.92813 24H19.0719C19.5844 24 20 23.5844 20 23.0719C20 19.9938 17.5063 17.5 14.4281 17.5ZM7.54062 22.5C7.81875 20.5219 9.51875 19 11.5719 19H14.4281C16.4813 19 18.1813 20.5219 18.4594 22.5H7.54062ZM18.6156 12.9219H19.5938L18.1812 14.3344C18.0031 14.5125 17.9531 14.7782 18.0469 15.0032C18.1406 15.2313 18.3656 15.3844 18.6156 15.3844H21.0781C21.4156 15.3844 21.6938 15.1063 21.6938 14.7688C21.6938 14.4313 21.4156 14.1532 21.0781 14.1532H20.1L21.5125 12.7407C21.6906 12.5625 21.7406 12.2969 21.6469 12.0719C21.5531 11.8438 21.3281 11.6907 21.0781 11.6907H18.6156C18.2781 11.6907 18 11.9688 18 12.3063C18 12.6469 18.2781 12.9219 18.6156 12.9219ZM22.3062 8.61566C22.3062 8.95316 22.5844 9.23128 22.9219 9.23128H23.9L22.4875 10.6438C22.3094 10.8219 22.2594 11.0875 22.3531 11.3125C22.4469 11.5407 22.6719 11.6938 22.9219 11.6938H25.3844C25.7219 11.6938 26 11.4157 26 11.0782C26 10.7407 25.7219 10.4625 25.3844 10.4625H24.4062L25.8188 9.05003C25.9969 8.87191 26.0469 8.60628 25.9531 8.38128C25.8625 8.15316 25.6344 8.00003 25.3844 8.00003H22.9219C22.5844 8.00003 22.3062 8.27816 22.3062 8.61566Z" fill="currentColor"/>
</svg>
