<svg viewBox="0 0 32 32" fill="none" xmlns="http://www.w3.org/2000/svg">
<path d="M8.75 8.00003C7.23125 8.00003 6 9.23128 6 10.75V21.25C6 22.7688 7.23125 24 8.75 24H23.25C24.7687 24 26 22.7688 26 21.25V10.75C26 9.23128 24.7687 8.00003 23.25 8.00003H8.75ZM7.5 10.75C7.5 10.0594 8.05938 9.50003 8.75 9.50003H23.25C23.9406 9.50003 24.5 10.0594 24.5 10.75V21.25C24.5 21.9407 23.9406 22.5 23.25 22.5H8.75C8.05938 22.5 7.5 21.9407 7.5 21.25V10.75ZM16 12.5C16.1989 12.5 16.3897 12.579 16.5303 12.7197C16.671 12.8604 16.75 13.0511 16.75 13.25C16.75 13.4489 16.671 13.6397 16.5303 13.7804C16.3897 13.921 16.1989 14 16 14C15.8011 14 15.6103 13.921 15.4697 13.7804C15.329 13.6397 15.25 13.4489 15.25 13.25C15.25 13.0511 15.329 12.8604 15.4697 12.7197C15.6103 12.579 15.8011 12.5 16 12.5ZM14.3875 16.5625C14.3531 16.5688 14.3188 16.5782 14.2844 16.5844C13.4813 16.7813 12.8031 17.3 12.4 18C12.1438 18.4407 12 18.9532 12 19.5C12 20.0532 12.4469 20.5 13 20.5H19C19.5531 20.5 20 20.0532 20 19.5C20 18.9532 19.8531 18.4407 19.6 18C19.5656 17.9438 19.5312 17.8875 19.4969 17.8313C19.0875 17.2188 18.4563 16.7657 17.7188 16.5844C17.6844 16.575 17.65 16.5688 17.6156 16.5625C17.4188 16.5219 17.2125 16.5 17.0031 16.5H16H15C14.7906 16.5 14.5844 16.5219 14.3875 16.5625ZM14.6062 15.0157C14.8383 15.1987 15.1042 15.3342 15.3886 15.4145C15.6731 15.4948 15.9705 15.5183 16.2641 15.4836C16.5576 15.4489 16.8414 15.3568 17.0993 15.2124C17.3572 15.068 17.5842 14.8743 17.7672 14.6422C17.9502 14.4101 18.0857 14.1443 18.166 13.8599C18.2463 13.5754 18.2698 13.2779 18.2351 12.9844C18.2004 12.6909 18.1083 12.4071 17.9639 12.1492C17.8196 11.8913 17.6258 11.6643 17.3938 11.4813C17.1617 11.2983 16.8958 11.1627 16.6114 11.0824C16.3269 11.0021 16.0295 10.9787 15.7359 11.0133C15.4424 11.048 15.1586 11.1402 14.9007 11.2845C14.6428 11.4289 14.4158 11.6226 14.2328 11.8547C14.0498 12.0868 13.9143 12.3526 13.834 12.6371C13.7537 12.9215 13.7302 13.219 13.7649 13.5125C13.7996 13.806 13.8917 14.0899 14.0361 14.3478C14.1804 14.6057 14.3742 14.8326 14.6062 15.0157ZM18.4156 19H13.5844C13.7906 18.4188 14.3469 18 15 18H17C17.6531 18 18.2094 18.4188 18.4156 19ZM12.9938 13C12.9938 12.803 12.955 12.608 12.8796 12.426C12.8042 12.244 12.6937 12.0787 12.5544 11.9394C12.4151 11.8001 12.2498 11.6896 12.0678 11.6142C11.8858 11.5388 11.6907 11.5 11.4938 11.5C11.2968 11.5 11.1017 11.5388 10.9197 11.6142C10.7377 11.6896 10.5724 11.8001 10.4331 11.9394C10.2938 12.0787 10.1833 12.244 10.1079 12.426C10.0325 12.608 9.99375 12.803 9.99375 13C9.99375 13.197 10.0325 13.3921 10.1079 13.5741C10.1833 13.756 10.2938 13.9214 10.4331 14.0607C10.5724 14.2 10.7377 14.3105 10.9197 14.3858C11.1017 14.4612 11.2968 14.5 11.4938 14.5C11.6907 14.5 11.8858 14.4612 12.0678 14.3858C12.2498 14.3105 12.4151 14.2 12.5544 14.0607C12.6937 13.9214 12.8042 13.756 12.8796 13.5741C12.955 13.3921 12.9938 13.197 12.9938 13ZM9 17.1657C9 17.625 9.37187 18 9.83437 18H11.2906C11.7188 16.9407 12.5875 16.1063 13.6719 15.725C13.425 15.5813 13.1406 15.5 12.8344 15.5H10.6656C9.74688 15.5 9 16.2469 9 17.1657ZM20.7094 18H22.1656C22.625 18 23 17.6282 23 17.1657C23 16.2438 22.2531 15.5 21.3344 15.5H19.1656C18.8594 15.5 18.575 15.5813 18.3281 15.725C19.4094 16.1063 20.2812 16.9407 20.7094 18ZM22 13C22 12.6022 21.842 12.2207 21.5607 11.9394C21.2794 11.6581 20.8978 11.5 20.5 11.5C20.1022 11.5 19.7206 11.6581 19.4393 11.9394C19.158 12.2207 19 12.6022 19 13C19 13.3979 19.158 13.7794 19.4393 14.0607C19.7206 14.342 20.1022 14.5 20.5 14.5C20.8978 14.5 21.2794 14.342 21.5607 14.0607C21.842 13.7794 22 13.3979 22 13Z" fill="currentColor"/>
</svg>
