<svg width="32" viewBox="0 0 32 32" fill="none" xmlns="http://www.w3.org/2000/svg">
<path d="M12.5011 10.9999C12.8988 10.9999 13.2803 10.8418 13.5616 10.5605C13.8429 10.2792 14.0009 9.89773 14.0009 9.49993C14.0009 9.10212 13.8429 8.72061 13.5616 8.43932C13.2803 8.15803 12.8988 8 12.5011 8C12.1033 8 11.7218 8.15803 11.4405 8.43932C11.1592 8.72061 11.0012 9.10212 11.0012 9.49993C11.0012 9.89773 11.1592 10.2792 11.4405 10.5605C11.7218 10.8418 12.1033 10.9999 12.5011 10.9999ZM10.4325 16.3308L11.3668 13.5247C11.6074 13.5622 11.8355 13.6372 12.0448 13.7466C12.0417 13.756 12.0386 13.7685 12.0355 13.7778L11.023 17.0183L10.5106 16.6027C10.4293 16.5371 10.3981 16.4277 10.4325 16.3308ZM12.2761 18.037L13.1666 15.184L13.4947 16.3308C13.5541 16.534 13.6635 16.7215 13.8135 16.8714L14.7196 17.7808C15.0134 18.0745 15.4883 18.0745 15.7789 17.7808C16.0695 17.487 16.0726 17.0121 15.7789 16.7215L14.9165 15.859L14.5759 14.6684C14.1291 13.0873 12.6854 11.9998 11.0418 11.9998H10.8887C10.3856 11.9998 9.88563 12.0811 9.40755 12.2404C8.16077 12.656 7.14522 13.5779 6.61089 14.7809L6.31404 15.4465C6.1453 15.8246 6.31716 16.2684 6.69526 16.4371C7.07335 16.6058 7.51707 16.434 7.68581 16.0559L7.98266 15.3903C8.32326 14.6247 8.94821 14.0278 9.72002 13.7216L9.00758 15.8559C8.77635 16.5465 8.9982 17.3089 9.56378 17.7683L12.826 20.4182L13.5166 23.418C13.6103 23.8211 14.0134 24.0742 14.4165 23.9805C14.8196 23.8867 15.0727 23.4836 14.979 23.0805L14.2697 19.9994C14.2072 19.7276 14.0572 19.4869 13.8385 19.3088L12.2729 18.037H12.2761ZM9.11694 18.6932L8.36075 20.5775L6.2203 22.718C5.92657 23.0118 5.92657 23.4868 6.2203 23.7774C6.51402 24.068 6.98899 24.0711 7.27959 23.7774L9.45754 21.5993C9.57628 21.4806 9.67003 21.3369 9.73565 21.1806L10.3356 19.6807L9.11694 18.6901V18.6932ZM19.9692 22.0306C20.2629 22.3243 20.7379 22.3243 21.0285 22.0306C21.3191 21.7368 21.3222 21.2619 21.0285 20.9713L19.8099 19.7526H21.1254C23.8189 19.7526 26 17.5714 26 14.8778C26 12.1842 23.8189 10.003 21.1254 10.003L16.7507 9.9999C16.3351 9.9999 16.0008 10.3343 16.0008 10.7499C16.0008 11.1655 16.3351 11.4998 16.7507 11.4998H21.1254C22.9877 11.4998 24.5001 13.0123 24.5001 14.8747C24.5001 16.7371 22.9877 18.2495 21.1254 18.2495H19.8099L21.0285 17.0308C21.3222 16.7371 21.3222 16.2621 21.0285 15.9715C20.7348 15.6809 20.2598 15.6778 19.9692 15.9715L17.4694 18.4714C17.1757 18.7651 17.1757 19.2401 17.4694 19.5307L19.9692 22.0306Z" fill="currentColor"/>
</svg>
