<svg viewBox="0 0 32 32" fill="currentColor" xmlns="http://www.w3.org/2000/svg">
<path d="M17.3333 10C17.7 10 18 10.3 18 10.6667V21.3333C18 21.7 17.7 22 17.3333 22H6.66667C6.3 22 6 21.7 6 21.3333V10.6667C6 10.3 6.3 10 6.66667 10H17.3333ZM6.66667 8C5.19583 8 4 9.19583 4 10.6667V21.3333C4 22.8042 5.19583 24 6.66667 24H17.3333C18.8042 24 20 22.8042 20 21.3333V19.9583V12.0417V10.6667C20 9.19583 18.8042 8 17.3333 8H6.66667ZM26 11.525V20.475L21.3333 18.375V20.5667L25.6792 22.5208C25.8917 22.6167 26.1208 22.6667 26.3542 22.6667C27.2625 22.6667 28 21.9292 28 21.0208V10.9792C28 10.0708 27.2625 9.33333 26.3542 9.33333C26.1208 9.33333 25.8917 9.38333 25.6792 9.47917L21.3333 11.4333V13.625L26 11.525ZM13 13C13 12.4458 12.5542 12 12 12C11.4458 12 11 12.4458 11 13V15H9C8.44583 15 8 15.4458 8 16C8 16.5542 8.44583 17 9 17H11V19C11 19.5542 11.4458 20 12 20C12.5542 20 13 19.5542 13 19V17H15C15.5542 17 16 16.5542 16 16C16 15.4458 15.5542 15 15 15H13V13Z" fill="currentColor"/>
</svg>
