<svg viewBox="0 0 32 32" fill="none" xmlns="http://www.w3.org/2000/svg">
<path d="M8 9.42857C8 8.63929 8.63929 8 9.42857 8H11.1429C11.9321 8 12.5714 8.63929 12.5714 9.42857V11.1429C12.5714 11.9321 11.9321 12.5714 11.1429 12.5714H9.42857C8.63929 12.5714 8 11.9321 8 11.1429V9.42857ZM8 15.1429C8 14.3536 8.63929 13.7143 9.42857 13.7143H11.1429C11.9321 13.7143 12.5714 14.3536 12.5714 15.1429V16.8571C12.5714 17.6464 11.9321 18.2857 11.1429 18.2857H9.42857C8.63929 18.2857 8 17.6464 8 16.8571V15.1429ZM12.5714 20.8571V22.5714C12.5714 23.3607 11.9321 24 11.1429 24H9.42857C8.63929 24 8 23.3607 8 22.5714V20.8571C8 20.0679 8.63929 19.4286 9.42857 19.4286H11.1429C11.9321 19.4286 12.5714 20.0679 12.5714 20.8571ZM13.7143 9.42857C13.7143 8.63929 14.3536 8 15.1429 8H16.8571C17.6464 8 18.2857 8.63929 18.2857 9.42857V11.1429C18.2857 11.9321 17.6464 12.5714 16.8571 12.5714H15.1429C14.3536 12.5714 13.7143 11.9321 13.7143 11.1429V9.42857ZM18.2857 15.1429V16.8571C18.2857 17.6464 17.6464 18.2857 16.8571 18.2857H15.1429C14.3536 18.2857 13.7143 17.6464 13.7143 16.8571V15.1429C13.7143 14.3536 14.3536 13.7143 15.1429 13.7143H16.8571C17.6464 13.7143 18.2857 14.3536 18.2857 15.1429ZM13.7143 20.8571C13.7143 20.0679 14.3536 19.4286 15.1429 19.4286H16.8571C17.6464 19.4286 18.2857 20.0679 18.2857 20.8571V22.5714C18.2857 23.3607 17.6464 24 16.8571 24H15.1429C14.3536 24 13.7143 23.3607 13.7143 22.5714V20.8571ZM24 9.42857V11.1429C24 11.9321 23.3607 12.5714 22.5714 12.5714H20.8571C20.0679 12.5714 19.4286 11.9321 19.4286 11.1429V9.42857C19.4286 8.63929 20.0679 8 20.8571 8H22.5714C23.3607 8 24 8.63929 24 9.42857ZM19.4286 15.1429C19.4286 14.3536 20.0679 13.7143 20.8571 13.7143H22.5714C23.3607 13.7143 24 14.3536 24 15.1429V16.8571C24 17.6464 23.3607 18.2857 22.5714 18.2857H20.8571C20.0679 18.2857 19.4286 17.6464 19.4286 16.8571V15.1429ZM24 20.8571V22.5714C24 23.3607 23.3607 24 22.5714 24H20.8571C20.0679 24 19.4286 23.3607 19.4286 22.5714V20.8571C19.4286 20.0679 20.0679 19.4286 20.8571 19.4286H22.5714C23.3607 19.4286 24 20.0679 24 20.8571Z" fill="currentColor"/>
</svg>
