<svg viewBox="0 0 32 32" fill="none" xmlns="http://www.w3.org/2000/svg">
    <path d="M23.0626 10.5602L23.3973 10.8856C23.6616 11.1426 23.6616 11.5582 23.3973 11.8125L22.8038 12.3922L21.5185 11.1426L22.1035 10.5656C22.3679 10.3059 22.7954 10.3059 23.0626 10.5629V10.5602ZM17.176 15.4192L20.5707 12.075L21.8504 13.3192L18.4332 16.6442C18.3404 16.7344 18.2223 16.7973 18.0957 16.8219L16.7007 17.1063L16.9932 15.7473C17.0185 15.6242 17.0832 15.5094 17.1732 15.4219L17.176 15.4192ZM21.1445 9.64142L16.2141 14.4977C15.9413 14.7656 15.7529 15.1074 15.6741 15.4766L15.1679 17.8199C15.1201 18.0359 15.1904 18.2629 15.3507 18.4188C15.511 18.5746 15.7445 18.643 15.9666 18.5965L18.3713 18.107C18.7566 18.0277 19.1082 17.8418 19.3866 17.5711L24.3535 12.7422C25.1438 11.9738 25.1438 10.727 24.3535 9.95861L24.016 9.63321C23.2229 8.85939 21.932 8.86486 21.1445 9.64142ZM9.07883 12.4442C7.95946 12.4442 7.05383 13.3246 7.05383 14.4129V20.9754C7.05383 22.0637 7.95946 22.9442 9.07883 22.9442H21.2288C22.3482 22.9442 23.2538 22.0637 23.2538 20.9754V17.4754C23.2538 17.1117 22.9529 16.8192 22.5788 16.8192C22.2048 16.8192 21.9038 17.1117 21.9038 17.4754V20.9754C21.9038 21.3391 21.6029 21.6317 21.2288 21.6317H9.07883C8.70477 21.6317 8.40383 21.3391 8.40383 20.9754V14.4129C8.40383 14.0492 8.70477 13.7567 9.07883 13.7567H14.4788C14.8529 13.7567 15.1538 13.4641 15.1538 13.1004C15.1538 12.7367 14.8529 12.4442 14.4788 12.4442H9.07883ZM10.6538 18.5692C10.8925 18.5692 11.1214 18.477 11.2902 18.3129C11.459 18.1488 11.5538 17.9262 11.5538 17.6942C11.5538 17.4621 11.459 17.2395 11.2902 17.0754C11.1214 16.9113 10.8925 16.8192 10.6538 16.8192C10.4151 16.8192 10.1862 16.9113 10.0174 17.0754C9.84865 17.2395 9.75383 17.4621 9.75383 17.6942C9.75383 17.9262 9.84865 18.1488 10.0174 18.3129C10.1862 18.477 10.4151 18.5692 10.6538 18.5692ZM14.2538 17.6942C14.2538 17.4621 14.159 17.2395 13.9902 17.0754C13.8214 16.9113 13.5925 16.8192 13.3538 16.8192C13.1151 16.8192 12.8862 16.9113 12.7174 17.0754C12.5487 17.2395 12.4538 17.4621 12.4538 17.6942C12.4538 17.9262 12.5487 18.1488 12.7174 18.3129C12.8862 18.477 13.1151 18.5692 13.3538 18.5692C13.5925 18.5692 13.8214 18.477 13.9902 18.3129C14.159 18.1488 14.2538 17.9262 14.2538 17.6942Z" fill="currentColor"/>
</svg>