<svg viewBox="0 0 70 70" fill="none" xmlns="http://www.w3.org/2000/svg">
<rect width="70" height="70" rx="35" fill="white"/>
<path d="M30.3818 27.5H39.6182V28.4375C39.6182 31.0273 37.5516 33.125 35 33.125C32.4484 33.125 30.3818 31.0273 30.3818 28.4375V27.5ZM30.3818 21.125L30.376 21.1191C30.3587 21.1074 30.3414 21.0957 30.3298 21.084L30.1509 20.9375L29.2503 20.2051C29.0829 20.0703 28.8809 20 28.673 20H28.5345C28.0265 20 27.6108 20.4219 27.6108 20.9375V22.2852V22.4727V22.4785V28.4375C27.6108 32.5801 30.9186 35.9375 35 35.9375C39.0814 35.9375 42.3892 32.5801 42.3892 28.4375V22.4785V22.4727V22.2852V20.9375C42.3892 20.4219 41.9735 20 41.4655 20H41.327C41.1192 20 40.9113 20.0703 40.7497 20.2051L39.8491 20.9375L39.676 21.0781C39.6586 21.0898 39.6413 21.1016 39.6298 21.1133L39.624 21.1191C39.0352 21.5586 38.2501 21.6055 37.6093 21.2363L35.8601 20.2344C35.5946 20.082 35.3002 20 35 20C34.6998 20 34.3996 20.082 34.1399 20.2344L32.3965 21.2422C31.7615 21.6113 30.9706 21.5645 30.3818 21.125ZM31.7672 40.625H38.2328C41.9043 40.625 44.9061 43.5254 45.1428 47.1875H24.8572C25.0939 43.5254 28.1015 40.625 31.7672 40.625ZM31.7672 37.8125C26.4101 37.8125 22.069 42.2188 22.069 47.6562V48.125C22.069 49.1621 22.8945 50 23.9163 50H46.0837C47.1055 50 47.931 49.1621 47.931 48.125V47.6562C47.931 42.2188 43.5899 37.8125 38.2328 37.8125H31.7672Z" fill="currentcolor"/>
<rect x="0.5" y="0.5" width="69" height="69" rx="34.5" stroke="#74B0EA" stroke-opacity="0.25"/>
</svg>
