<svg viewBox="0 0 70 70" fill="none" xmlns="http://www.w3.org/2000/svg">
<rect width="70" height="70" rx="35" fill="white"/>
<path d="M26.8349 28.75C26.8349 27.714 27.235 26.7204 27.9471 25.9879C28.6592 25.2553 29.625 24.8438 30.6321 24.8438C31.6391 24.8438 32.605 25.2553 33.3171 25.9879C34.0292 26.7204 34.4292 27.714 34.4292 28.75C34.4292 29.786 34.0292 30.7796 33.3171 31.5121C32.605 32.2447 31.6391 32.6562 30.6321 32.6562C29.625 32.6562 28.6592 32.2447 27.9471 31.5121C27.235 30.7796 26.8349 29.786 26.8349 28.75ZM36.7075 28.75C36.7075 27.0924 36.0674 25.5027 34.9281 24.3306C33.7887 23.1585 32.2434 22.5 30.6321 22.5C29.0208 22.5 27.4754 23.1585 26.3361 24.3306C25.1967 25.5027 24.5566 27.0924 24.5566 28.75C24.5566 30.4076 25.1967 31.9973 26.3361 33.1694C27.4754 34.3415 29.0208 35 30.6321 35C32.2434 35 33.7887 34.3415 34.9281 33.1694C36.0674 31.9973 36.7075 30.4076 36.7075 28.75ZM32.8012 39.6875C35.9196 39.6875 38.5017 42.0654 38.9241 45.1562H22.34C22.7624 42.0654 25.3445 39.6875 28.4629 39.6875H32.8012ZM28.4629 37.3438C23.7877 37.3438 20 41.2402 20 46.0498C20 46.8506 20.6313 47.5 21.4097 47.5H39.8544C40.6329 47.5 41.2641 46.8506 41.2641 46.0498C41.2641 41.2402 37.4765 37.3438 32.8012 37.3438H30.6321H28.4629ZM49.6654 31.1426C50.1115 30.6836 50.1115 29.9414 49.6654 29.4873C49.2192 29.0332 48.4977 29.0283 48.0563 29.4873L42.7878 34.9072L40.5569 32.6123C40.1108 32.1533 39.3893 32.1533 38.9479 32.6123C38.5064 33.0713 38.5017 33.8135 38.9479 34.2676L41.9856 37.3926C42.4318 37.8516 43.1532 37.8516 43.5947 37.3926L49.6654 31.1426Z" fill="currentcolor"/>
<rect x="0.5" y="0.5" width="69" height="69" rx="34.5" stroke="#74B0EA" stroke-opacity="0.25"/>
</svg>
