<svg viewBox="0 0 32 33" fill="none" xmlns="http://www.w3.org/2000/svg">
<path d="M10.5037 21.5002V23.0001H12.5036V21.5002H10.5037ZM13.2535 24.3C13.0317 24.4281 12.7754 24.5 12.5036 24.5H10.5037C9.67563 24.5 9.00379 23.8282 9.00379 23.0001V21.5002V20.7502V20.5002H12.5036V20.0003V18.5003H14.0035V20.0003H16.0034V13.0007H14.0035V14.5006H12.5036V13.0007V12.5007H9.00379V12.2507V11.5007V10.0008C9.00379 9.17276 9.67563 8.50092 10.5037 8.50092H12.5036C12.7754 8.50092 13.0317 8.57279 13.2535 8.70091C13.4754 8.57279 13.7316 8.50092 14.0035 8.50092H16.0034C16.6471 8.50092 17.1939 8.90402 17.4096 9.47274C17.5845 9.28213 17.8127 9.13838 18.0783 9.06651L19.9375 8.55092C20.7094 8.33843 21.5031 8.81028 21.7093 9.60711L22.2718 11.7695L22.4593 12.4944L24.3904 19.9409L24.5779 20.6658L24.9497 22.1033C25.156 22.9001 24.6998 23.7188 23.9279 23.9313L22.0655 24.4469C21.2937 24.6594 20.5 24.1875 20.2938 23.3907L19.7313 21.2283L19.5438 20.5034L17.6158 13.06L17.5033 12.6319V13.0007V20.0003V20.7502V21.5002V23.0001C17.5033 23.8282 16.8315 24.5 16.0034 24.5H14.0035C13.7316 24.5 13.4754 24.4281 13.2535 24.3ZM14.0035 23.0001H16.0034V21.5002H14.0035V23.0001ZM12.5036 10.0008H10.5037V11.5007H12.5036V10.0008ZM14.0035 11.5007H16.0034V10.0008H14.0035V11.5007ZM22.7561 19.6159L21.0125 12.8975L19.247 13.385L20.9906 20.1034L22.7561 19.6159ZM21.3687 21.5564L21.7406 22.9845L23.503 22.497C23.503 22.4939 23.503 22.4907 23.503 22.4876V22.4845L23.1374 21.0721L21.3718 21.5595L21.3687 21.5564ZM18.872 11.932L20.6375 11.4445L20.2656 10.0165L18.5032 10.5039C18.5032 10.5071 18.5032 10.5102 18.5032 10.5164L18.8688 11.9288L18.872 11.932ZM9.00379 14.0006C9.00379 13.7256 9.22878 13.5006 9.50376 13.5006H10.5037C10.7787 13.5006 11.0037 13.7256 11.0037 14.0006V15.5005H12.5036C12.7786 15.5005 13.0036 15.7255 13.0036 16.0005V17.0004C13.0036 17.2754 12.7786 17.5004 12.5036 17.5004H11.0037V19.0003C11.0037 19.2753 10.7787 19.5003 10.5037 19.5003H9.50376C9.22878 19.5003 9.00379 19.2753 9.00379 19.0003V17.5004H7.50388C7.22889 17.5004 7.00391 17.2754 7.00391 17.0004V16.0005C7.00391 15.7255 7.22889 15.5005 7.50388 15.5005H9.00379V14.0006Z" fill="currentColor"/>
</svg>
