<svg viewBox="0 0 32 32" fill="none" xmlns="http://www.w3.org/2000/svg">
<path d="M20.229 8C20.6712 8.00028 21.1038 8.1287 21.4746 8.36971C21.8453 8.61071 22.1383 8.95399 22.318 9.358L23.8 12.7C23.9306 12.9924 23.9987 13.3088 24 13.629V21.715C23.9992 22.3209 23.7581 22.9018 23.3295 23.3302C22.9009 23.7586 22.3199 23.9995 21.714 24H10.286C9.6798 23.9997 9.0985 23.7588 8.66985 23.3302C8.2412 22.9015 8.00027 22.3202 8 21.714V13.629C8.00077 13.3087 8.06891 12.9922 8.2 12.7L9.686 9.358C9.86515 8.95438 10.1574 8.61131 10.5274 8.37031C10.8975 8.1293 11.3294 8.00068 11.771 8H20.229ZM20.229 9.714H16.857V12.571H21.871L20.75 10.054C20.7054 9.95306 20.6324 9.86726 20.5399 9.80707C20.4474 9.74688 20.3394 9.71389 20.229 9.714ZM22.286 14.285H9.714V21.714C9.71426 21.8654 9.77451 22.0104 9.88153 22.1175C9.98856 22.2245 10.1336 22.2847 10.285 22.285H21.714C21.8653 22.2845 22.0102 22.2241 22.1172 22.1172C22.2241 22.0102 22.2845 21.8653 22.285 21.714L22.286 14.285ZM10.13 12.571H15.143V9.714H11.771C11.6604 9.71388 11.5521 9.74584 11.4593 9.80601C11.3664 9.86618 11.2931 9.95197 11.248 10.053L10.13 12.571Z" fill="currentColor"/>
</svg>
