<svg viewBox="0 0 32 32" fill="none" xmlns="http://www.w3.org/2000/svg">
<path d="M11.2786 8.22363C9.59139 8.22363 8.22357 9.59145 8.22357 11.2787V12.8582C8.22357 13.2262 8.07776 13.5803 7.81739 13.8407L6.24475 15.4099C5.91842 15.7362 5.91842 16.2639 6.24475 16.5868L7.81739 18.1594C8.07776 18.4198 8.22357 18.7739 8.22357 19.1419V20.7215C8.22357 22.4087 9.59139 23.7765 11.2786 23.7765H12.945C13.4067 23.7765 13.7782 23.405 13.7782 22.9433C13.7782 22.4816 13.4067 22.1101 12.945 22.1101H11.2786C10.5114 22.1101 9.88995 21.4887 9.88995 20.7215V19.1419C9.88995 18.333 9.56709 17.5553 8.99427 16.9825L8.0118 16.0001L8.99427 15.0176C9.56709 14.4448 9.88995 13.6671 9.88995 12.8582V11.2787C9.88995 10.5114 10.5114 9.89001 11.2786 9.89001H12.945C13.4067 9.89001 13.7782 9.51855 13.7782 9.05682C13.7782 8.5951 13.4067 8.22363 12.945 8.22363H11.2786ZM20.7214 8.22363H19.055C18.5933 8.22363 18.2218 8.5951 18.2218 9.05682C18.2218 9.51855 18.5933 9.89001 19.055 9.89001H20.7214C21.4886 9.89001 22.1101 10.5114 22.1101 11.2787V12.8582C22.1101 13.6671 22.4329 14.4448 23.0057 15.0176L23.9882 16.0001L23.0057 16.9825C22.4329 17.5553 22.1101 18.333 22.1101 19.1419V20.7215C22.1101 21.4887 21.4886 22.1101 20.7214 22.1101H19.055C18.5933 22.1101 18.2218 22.4816 18.2218 22.9433C18.2218 23.405 18.5933 23.7765 19.055 23.7765H20.7214C22.4086 23.7765 23.7764 22.4087 23.7764 20.7215V19.1419C23.7764 18.7739 23.9222 18.4198 24.1826 18.1594L25.7553 16.5902C26.0816 16.2639 26.0816 15.7362 25.7553 15.4134L24.1826 13.8407C23.9222 13.5803 23.7764 13.2262 23.7764 12.8582V11.2787C23.7764 9.59145 22.4086 8.22363 20.7214 8.22363Z" fill="currentColor"/>
</svg>
