<svg width="32" height="33" viewBox="0 0 32 33" fill="none" xmlns="http://www.w3.org/2000/svg">
<path d="M23.2 10.6028H13.3C13.0525 10.6028 12.85 10.807 12.85 11.0565V12.2274C12.4337 12.0573 11.9781 11.9637 11.5 11.9637V11.0565C11.5 10.0556 12.3072 9.24194 13.3 9.24194H23.2C24.1928 9.24194 25 10.0556 25 11.0565V19.2218C25 20.2226 24.1928 21.0363 23.2 21.0363H22.3H21.625H18.025H17.35H16.4725C16.2391 20.526 15.9156 20.0667 15.5247 19.6754H17.35V18.5413C17.35 17.6653 18.0559 16.9536 18.925 16.9536H20.725C21.5941 16.9536 22.3 17.6653 22.3 18.5413V19.6754H23.2C23.4475 19.6754 23.65 19.4713 23.65 19.2218V11.0565C23.65 10.807 23.4475 10.6028 23.2 10.6028ZM20.95 19.6754V18.5413C20.95 18.4166 20.8487 18.3145 20.725 18.3145H18.925C18.8012 18.3145 18.7 18.4166 18.7 18.5413V19.6754H20.95ZM12.85 15.5928C12.85 15.2318 12.7078 14.8857 12.4546 14.6305C12.2014 14.3752 11.858 14.2319 11.5 14.2319C11.142 14.2319 10.7986 14.3752 10.5454 14.6305C10.2922 14.8857 10.15 15.2318 10.15 15.5928C10.15 15.9537 10.2922 16.2998 10.5454 16.555C10.7986 16.8103 11.142 16.9536 11.5 16.9536C11.858 16.9536 12.2014 16.8103 12.4546 16.555C12.7078 16.2998 12.85 15.9537 12.85 15.5928ZM8.8 15.5928C8.8 14.8709 9.08446 14.1786 9.59081 13.6682C10.0972 13.1577 10.7839 12.871 11.5 12.871C12.2161 12.871 12.9028 13.1577 13.4092 13.6682C13.9155 14.1786 14.2 14.8709 14.2 15.5928C14.2 16.3146 13.9155 17.0069 13.4092 17.5173C12.9028 18.0278 12.2161 18.3145 11.5 18.3145C10.7839 18.3145 10.0972 18.0278 9.59081 17.5173C9.08446 17.0069 8.8 16.3146 8.8 15.5928ZM8.42594 22.3972H14.5741C14.3069 21.3538 13.3675 20.5827 12.2509 20.5827H10.7491C9.62969 20.5827 8.69031 21.3538 8.42594 22.3972ZM7 23.0011C7 20.9144 8.67906 19.2218 10.7491 19.2218H12.2481C14.3209 19.2218 16 20.9144 16 23.0011C16 23.4179 15.6653 23.7581 15.2491 23.7581H7.75094C7.33469 23.7581 7 23.4207 7 23.0011Z" fill="currentColor"/>
</svg>
