<svg viewBox="0 0 70 70" fill="none" xmlns="http://www.w3.org/2000/svg">
<rect width="70" height="70" rx="35" fill="white"/>
<path d="M45.9829 23.3013L46.6967 24.0155C47.2605 24.5796 47.2605 25.4917 46.6967 26.0498L45.4311 27.322L42.6901 24.5796L43.9376 23.3134C44.5014 22.7433 45.4131 22.7433 45.9829 23.3074V23.3013ZM33.4293 33.9652L40.6688 26.6259L43.3978 29.3564L36.1104 36.6537C35.9124 36.8517 35.6605 36.9897 35.3906 37.0437L32.4157 37.6679L33.0394 34.6853C33.0934 34.4153 33.2314 34.1632 33.4233 33.9712L33.4293 33.9652ZM41.8923 21.285L31.378 31.9429C30.7962 32.531 30.3944 33.2811 30.2264 34.0912L29.1468 39.2341C29.0448 39.7082 29.1948 40.2063 29.5367 40.5484C29.8785 40.8904 30.3764 41.0404 30.8502 40.9384L35.9784 39.8642C36.8001 39.6902 37.5499 39.2821 38.1437 38.688L48.7359 28.0902C50.4214 26.4039 50.4214 23.6674 48.7359 21.9811L48.0162 21.267C46.3248 19.5687 43.5717 19.5807 41.8923 21.285ZM38.9954 20.8109C37.6878 20.4389 36.3023 20.2348 34.8748 20.2348C26.6577 20.2348 20 26.896 20 35.1174C20 43.3388 26.6577 50 34.8748 50C35.6725 50 36.3143 49.3579 36.3143 48.5597C36.3143 47.7616 35.6725 47.1195 34.8748 47.1195C28.2471 47.1195 22.879 41.7486 22.879 35.1174C22.879 28.4863 28.2471 23.1153 34.8748 23.1153C35.4626 23.1153 36.0324 23.1573 36.5962 23.2353L38.9954 20.8109ZM46.7566 33.4611C46.8286 34.0012 46.8706 34.5533 46.8706 35.1174C46.8706 38.562 44.0756 41.3585 40.6328 41.3585C39.8351 41.3585 39.1933 42.0006 39.1933 42.7987C39.1933 43.5969 39.8351 44.239 40.6328 44.239C45.665 44.239 49.7496 40.1523 49.7496 35.1174C49.7496 33.7012 49.5517 32.3329 49.1858 31.0367L46.7626 33.4671L46.7566 33.4611Z" fill="currentcolor"/>
<rect x="0.5" y="0.5" width="69" height="69" rx="34.5" stroke="#74B0EA" stroke-opacity="0.25"/>
</svg>
