<svg viewBox="0 0 70 70" fill="none" xmlns="http://www.w3.org/2000/svg">
<rect width="70" height="70" rx="35" fill="white"/>
<path d="M48 40.625V22.8125C48 22.0666 47.7065 21.3512 47.1841 20.8238C46.6617 20.2963 45.9531 20 45.2143 20H26.6429C25.4115 20 24.2306 20.4939 23.3599 21.3729C22.4892 22.252 22 23.4443 22 24.6875V45.3125C22 46.5557 22.4892 47.748 23.3599 48.6271C24.2306 49.5061 25.4115 50 26.6429 50H46.6071C46.9766 50 47.3308 49.8518 47.592 49.5881C47.8533 49.3244 48 48.9667 48 48.5938C48 48.2208 47.8533 47.8631 47.592 47.5994C47.3308 47.3357 46.9766 47.1875 46.6071 47.1875H46.1429V43.265C46.6841 43.0718 47.1531 42.7145 47.4855 42.2419C47.8179 41.7693 47.9976 41.2046 48 40.625ZM43.3571 47.1875H26.6429C26.1503 47.1875 25.6779 46.99 25.3297 46.6383C24.9814 46.2867 24.7857 45.8098 24.7857 45.3125C24.7857 44.8152 24.9814 44.3383 25.3297 43.9867C25.6779 43.635 26.1503 43.4375 26.6429 43.4375H43.3571V47.1875ZM45.2143 40.625H26.6429C26.0036 40.6238 25.371 40.7573 24.7857 41.0169V24.6875C24.7857 24.1902 24.9814 23.7133 25.3297 23.3617C25.6779 23.01 26.1503 22.8125 26.6429 22.8125H45.2143V40.625ZM30.8214 29.375H41.0357C41.4051 29.375 41.7594 29.2268 42.0206 28.9631C42.2818 28.6994 42.4286 28.3417 42.4286 27.9688C42.4286 27.5958 42.2818 27.2381 42.0206 26.9744C41.7594 26.7107 41.4051 26.5625 41.0357 26.5625H30.8214C30.452 26.5625 30.0977 26.7107 29.8365 26.9744C29.5753 27.2381 29.4286 27.5958 29.4286 27.9688C29.4286 28.3417 29.5753 28.6994 29.8365 28.9631C30.0977 29.2268 30.452 29.375 30.8214 29.375ZM30.8214 34.0625H41.0357C41.4051 34.0625 41.7594 33.9143 42.0206 33.6506C42.2818 33.3869 42.4286 33.0292 42.4286 32.6562C42.4286 32.2833 42.2818 31.9256 42.0206 31.6619C41.7594 31.3982 41.4051 31.25 41.0357 31.25H30.8214C30.452 31.25 30.0977 31.3982 29.8365 31.6619C29.5753 31.9256 29.4286 32.2833 29.4286 32.6562C29.4286 33.0292 29.5753 33.3869 29.8365 33.6506C30.0977 33.9143 30.452 34.0625 30.8214 34.0625Z" fill="currentcolor"/>
<rect x="0.5" y="0.5" width="69" height="69" rx="34.5" stroke="#74B0EA" stroke-opacity="0.25"/>
</svg>
