<svg viewBox="0 0 70 70" fill="none" xmlns="http://www.w3.org/2000/svg">
<rect width="70" height="70" rx="35" fill="white"/>
<path d="M31.2861 23.75C31.2861 23.2344 31.7039 22.8125 32.2146 22.8125C32.7253 22.8125 33.1432 23.2344 33.1432 23.75V31.7188C33.1432 32.3223 33.5262 32.8613 34.0949 33.0547C34.6637 33.248 35.2905 33.0488 35.6503 32.5684C35.8244 32.3398 36.0913 32.1934 36.3931 32.1934C36.9038 32.1934 37.3217 32.6152 37.3217 33.1309V33.5996C37.3217 34.2031 37.7047 34.7422 38.2734 34.9355C38.8422 35.1289 39.4689 34.9297 39.8288 34.4492C40.0029 34.2207 40.2698 34.0742 40.5716 34.0742C41.0823 34.0742 41.5001 34.4961 41.5001 35.0117C41.5001 35.5449 41.7961 36.0312 42.272 36.2715C42.7479 36.5117 43.3108 36.459 43.7287 36.1367C43.8854 36.0195 44.0769 35.9492 44.2858 35.9492C44.7965 35.9492 45.2143 36.3711 45.2143 36.8867V42.5117V42.9805C45.2143 45.3125 43.3456 47.1992 41.0359 47.1992H37.7859H34.3213H34.2691C32.0986 47.1992 30.0674 46.1035 28.8602 44.2754L24.9429 38.334C24.6585 37.9004 24.7746 37.3203 25.1983 37.0332C25.6219 36.7461 26.2023 36.8633 26.4866 37.291L28.7326 40.6953C29.075 41.2109 29.7075 41.4395 30.2937 41.2637C30.8798 41.0879 31.2803 40.5371 31.2803 39.916V38.75V23.75H31.2861ZM32.2146 20C30.166 20 28.5004 21.6816 28.5004 23.75V35.334C27.2933 33.9453 25.2215 33.6406 23.6546 34.6895C21.9483 35.8438 21.4841 38.1699 22.6273 39.8926L26.5447 45.8281C28.2683 48.4355 31.1642 50 34.2691 50H34.3213H37.7859H41.0359C44.8836 50 48 46.8535 48 42.9688V42.5V36.875C48 34.8066 46.3344 33.125 44.2858 33.125C44.1233 33.125 43.9608 33.1367 43.8041 33.1543C43.1657 32.0176 41.9586 31.25 40.5716 31.25C40.2582 31.25 39.9622 31.291 39.6721 31.3613C39.0453 30.1777 37.815 29.375 36.3931 29.375C36.2364 29.375 36.0797 29.3867 35.9288 29.4043V23.75C35.9288 21.6816 34.2632 20 32.2146 20ZM35.0003 37.8125C35.0003 37.2969 34.5824 36.875 34.0717 36.875C33.561 36.875 33.1432 37.2969 33.1432 37.8125V43.4375C33.1432 43.9531 33.561 44.375 34.0717 44.375C34.5824 44.375 35.0003 43.9531 35.0003 43.4375V37.8125ZM37.7859 36.875C37.2752 36.875 36.8574 37.2969 36.8574 37.8125V43.4375C36.8574 43.9531 37.2752 44.375 37.7859 44.375C38.2966 44.375 38.7145 43.9531 38.7145 43.4375V37.8125C38.7145 37.2969 38.2966 36.875 37.7859 36.875ZM42.4287 37.8125C42.4287 37.2969 42.0108 36.875 41.5001 36.875C40.9894 36.875 40.5716 37.2969 40.5716 37.8125V43.4375C40.5716 43.9531 40.9894 44.375 41.5001 44.375C42.0108 44.375 42.4287 43.9531 42.4287 43.4375V37.8125Z" fill="currentcolor"/>
<rect x="0.5" y="0.5" width="69" height="69" rx="34.5" stroke="#74B0EA" stroke-opacity="0.25"/>
</svg>
