<svg viewBox="0 0 70 70" fill="none" xmlns="http://www.w3.org/2000/svg">
<rect width="70" height="70" rx="35" fill="white"/>
<path d="M38.0059 32.1289C42.8633 31.5957 46.7012 27.6992 47.1465 22.8125H46.7188C42.2246 22.8125 38.3984 25.6895 36.9863 29.6973C36.4707 28.7129 35.8496 27.7871 35.1348 26.9375C37.3496 22.8125 41.709 20 46.7188 20H48.125C49.1621 20 50 20.8379 50 21.875C50 28.5312 45.043 34.0273 38.6211 34.8828C38.498 33.9336 38.293 33.0137 38.0059 32.123V32.1289ZM22.8125 26.5625V27.5C22.8125 33.1953 27.4297 37.8125 33.125 37.8125H33.5938V36.875C33.5938 31.1797 28.9766 26.5625 23.2812 26.5625H22.8125ZM36.4062 36.875V37.8125V40.625V48.5938C36.4062 49.373 35.7793 50 35 50C34.2207 50 33.5938 49.373 33.5938 48.5938V40.625H33.125C25.877 40.625 20 34.748 20 27.5V25.625C20 24.5879 20.8379 23.75 21.875 23.75H23.2812C30.5293 23.75 36.4062 29.627 36.4062 36.875Z" fill="currentcolor"/>
<rect x="0.5" y="0.5" width="69" height="69" rx="34.5" stroke="#74B0EA" stroke-opacity="0.25"/>
</svg>
