<svg viewBox="0 0 32 32" fill="none" xmlns="http://www.w3.org/2000/svg">
<path d="M16 9.5C17.7239 9.5 19.3772 10.1848 20.5962 11.4038C21.8152 12.6228 22.5 14.2761 22.5 16C22.5 17.7239 21.8152 19.3772 20.5962 20.5962C19.3772 21.8152 17.7239 22.5 16 22.5C14.2761 22.5 12.6228 21.8152 11.4038 20.5962C10.1848 19.3772 9.5 17.7239 9.5 16C9.5 14.2761 10.1848 12.6228 11.4038 11.4038C12.6228 10.1848 14.2761 9.5 16 9.5ZM16 24C18.1217 24 20.1566 23.1571 21.6569 21.6569C23.1571 20.1566 24 18.1217 24 16C24 13.8783 23.1571 11.8434 21.6569 10.3431C20.1566 8.84285 18.1217 8 16 8C13.8783 8 11.8434 8.84285 10.3431 10.3431C8.84285 11.8434 8 13.8783 8 16C8 18.1217 8.84285 20.1566 10.3431 21.6569C11.8434 23.1571 13.8783 24 16 24ZM17.75 19C17.75 18.3031 17.3406 17.7 16.75 17.4187V11.75C16.75 11.3344 16.4156 11 16 11C15.5844 11 15.25 11.3344 15.25 11.75V17.4187C14.6594 17.7 14.25 18.3031 14.25 19C14.25 19.9656 15.0344 20.75 16 20.75C16.9656 20.75 17.75 19.9656 17.75 19ZM13 14C13.2652 14 13.5196 13.8946 13.7071 13.7071C13.8946 13.5196 14 13.2652 14 13C14 12.7348 13.8946 12.4804 13.7071 12.2929C13.5196 12.1054 13.2652 12 13 12C12.7348 12 12.4804 12.1054 12.2929 12.2929C12.1054 12.4804 12 12.7348 12 13C12 13.2652 12.1054 13.5196 12.2929 13.7071C12.4804 13.8946 12.7348 14 13 14ZM12.5 16C12.5 15.7348 12.3946 15.4804 12.2071 15.2929C12.0196 15.1054 11.7652 15 11.5 15C11.2348 15 10.9804 15.1054 10.7929 15.2929C10.6054 15.4804 10.5 15.7348 10.5 16C10.5 16.2652 10.6054 16.5196 10.7929 16.7071C10.9804 16.8946 11.2348 17 11.5 17C11.7652 17 12.0196 16.8946 12.2071 16.7071C12.3946 16.5196 12.5 16.2652 12.5 16ZM20.5 17C20.7652 17 21.0196 16.8946 21.2071 16.7071C21.3946 16.5196 21.5 16.2652 21.5 16C21.5 15.7348 21.3946 15.4804 21.2071 15.2929C21.0196 15.1054 20.7652 15 20.5 15C20.2348 15 19.9804 15.1054 19.7929 15.2929C19.6054 15.4804 19.5 15.7348 19.5 16C19.5 16.2652 19.6054 16.5196 19.7929 16.7071C19.9804 16.8946 20.2348 17 20.5 17ZM20 13C20 12.7348 19.8946 12.4804 19.7071 12.2929C19.5196 12.1054 19.2652 12 19 12C18.7348 12 18.4804 12.1054 18.2929 12.2929C18.1054 12.4804 18 12.7348 18 13C18 13.2652 18.1054 13.5196 18.2929 13.7071C18.4804 13.8946 18.7348 14 19 14C19.2652 14 19.5196 13.8946 19.7071 13.7071C19.8946 13.5196 20 13.2652 20 13Z" fill="currentColor"/>
</svg>
