<svg viewBox="0 0 70 70" fill="none" xmlns="http://www.w3.org/2000/svg">
<rect width="70" height="70" rx="35" fill="white"/>
<path d="M47 25.1713H30.5C30.0875 25.1713 29.75 25.5116 29.75 25.9274V27.8789C29.0562 27.5954 28.2969 27.4395 27.5 27.4395V25.9274C27.5 24.2594 28.8453 22.9032 30.5 22.9032H47C48.6547 22.9032 50 24.2594 50 25.9274V39.5363C50 41.2043 48.6547 42.5605 47 42.5605H45.5H44.375H38.375H37.25H35.7875C35.3984 41.7099 34.8594 40.9444 34.2078 40.2923H37.25V38.4022C37.25 36.9421 38.4266 35.756 39.875 35.756H42.875C44.3234 35.756 45.5 36.9421 45.5 38.4022V40.2923H47C47.4125 40.2923 47.75 39.9521 47.75 39.5363V25.9274C47.75 25.5116 47.4125 25.1713 47 25.1713ZM43.25 40.2923V38.4022C43.25 38.1943 43.0812 38.0242 42.875 38.0242H39.875C39.6688 38.0242 39.5 38.1943 39.5 38.4022V40.2923H43.25ZM29.75 33.4879C29.75 32.8863 29.5129 32.3094 29.091 31.8841C28.669 31.4587 28.0967 31.2197 27.5 31.2197C26.9033 31.2197 26.331 31.4587 25.909 31.8841C25.4871 32.3094 25.25 32.8863 25.25 33.4879C25.25 34.0894 25.4871 34.6663 25.909 35.0917C26.331 35.5171 26.9033 35.756 27.5 35.756C28.0967 35.756 28.669 35.5171 29.091 35.0917C29.5129 34.6663 29.75 34.0894 29.75 33.4879ZM23 33.4879C23 32.2848 23.4741 31.131 24.318 30.2802C25.1619 29.4295 26.3065 28.9516 27.5 28.9516C28.6935 28.9516 29.8381 29.4295 30.682 30.2802C31.5259 31.131 32 32.2848 32 33.4879C32 34.691 31.5259 35.8448 30.682 36.6955C29.8381 37.5462 28.6935 38.0242 27.5 38.0242C26.3065 38.0242 25.1619 37.5462 24.318 36.6955C23.4741 35.8448 23 34.691 23 33.4879ZM22.3766 44.8286H32.6234C32.1781 43.0897 30.6125 41.8044 28.7516 41.8044H26.2484C24.3828 41.8044 22.8172 43.0897 22.3766 44.8286ZM20 45.8351C20 42.3573 22.7984 39.5363 26.2484 39.5363H28.7469C32.2016 39.5363 35 42.3573 35 45.8351C35 46.5297 34.4422 47.0967 33.7484 47.0967H21.2516C20.5578 47.0967 20 46.5344 20 45.8351Z" fill="currentcolor"/>
<rect x="0.5" y="0.5" width="69" height="69" rx="34.5" stroke="#74B0EA" stroke-opacity="0.25"/>
</svg>
