<svg viewBox="0 0 70 70" fill="none" xmlns="http://www.w3.org/2000/svg">
<rect width="70" height="70" rx="35" fill="white"/>
<path d="M35.2538 20.0264C35.0864 19.9912 34.9136 19.9912 34.7462 20.0264L23.9455 22.3703C23.3406 22.4993 22.9032 23.0794 22.9032 23.7474C22.9032 24.351 23.2542 24.8784 23.7673 25.0718V29.2792L22.9194 33.8793C22.8708 34.1547 22.9356 34.4418 23.0976 34.6587C23.2596 34.8755 23.508 35.0044 23.7673 35.0044H25.4954C25.7546 35.0044 25.9976 34.8813 26.165 34.6587C26.3324 34.436 26.3972 34.1547 26.3432 33.8793L25.4954 29.2792V25.4644L34.7462 27.4744C34.9136 27.5095 35.0864 27.5095 35.2538 27.4744L46.0545 25.1304C46.6593 24.9956 47.0967 24.4155 47.0967 23.7474C47.0967 23.0794 46.6593 22.4993 46.0545 22.3703L35.2538 20.0264ZM25.5656 47.1872C25.8788 44.9839 27.1857 43.1321 28.984 42.2004L32.4186 46.3903C32.6886 46.7184 32.9964 46.9821 33.3313 47.1872H25.5656ZM44.4344 47.1872H36.6687C37.0035 46.988 37.3113 46.7243 37.5813 46.3903L41.016 42.2004C42.8143 43.1263 44.1212 44.978 44.4344 47.1872ZM28.822 39.2411C25.382 40.5069 22.9032 44.0404 22.9032 48.201C22.9032 49.1972 23.6484 50 24.5611 50H45.4388C46.3569 50 47.0967 49.1913 47.0967 48.201C47.0967 44.0404 44.618 40.5069 41.178 39.247C40.5893 39.0302 39.9521 39.2704 39.5417 39.7744L35.648 44.521C35.3024 44.9429 34.6976 44.9429 34.3573 44.521L30.4637 39.7685C30.0533 39.2646 29.416 39.0243 28.8274 39.2411H28.822ZM28.0875 29.373C28.0875 33.516 31.1819 36.8737 35 36.8737C38.818 36.8737 41.9124 33.516 41.9124 29.373V27.9373L39.3202 28.4999V29.373C39.3202 31.9631 37.3869 34.0609 35 34.0609C32.613 34.0609 30.6797 31.9631 30.6797 29.373V28.4999L28.0875 27.9373V29.373Z" fill="currentcolor"/>
<rect x="0.5" y="0.5" width="69" height="69" rx="34.5" stroke="#74B0EA" stroke-opacity="0.25"/>
</svg>
