<svg viewBox="0 0 32 32" fill="none" xmlns="http://www.w3.org/2000/svg">
<path d="M17.756 12.2913L15.284 15.1961L14.356 14.2617C14.2125 14.1368 14.0272 14.0713 13.8376 14.0784C13.648 14.0856 13.4682 14.1648 13.3343 14.3001C13.2004 14.4354 13.1224 14.6168 13.116 14.8077C13.1097 14.9987 13.1754 15.1849 13.3 15.329L14.8 16.8393C14.9406 16.9808 15.1312 17.0605 15.33 17.0608H15.358C15.4611 17.0572 15.5623 17.032 15.6551 16.9867C15.7479 16.9415 15.8303 16.8772 15.897 16.798L18.897 13.274C18.9629 13.1991 19.0134 13.1117 19.0455 13.017C19.0776 12.9223 19.0906 12.8221 19.0838 12.7222C19.077 12.6224 19.0506 12.5249 19.006 12.4354C18.9614 12.346 18.8996 12.2664 18.8241 12.2012C18.7486 12.1361 18.6611 12.0867 18.5665 12.056C18.4719 12.0253 18.3721 12.0138 18.2731 12.0223C18.1741 12.0308 18.0777 12.059 17.9896 12.1054C17.9015 12.1517 17.8235 12.2153 17.76 12.2923L17.756 12.2913ZM22 8.00008H10C9.47438 8.00003 8.96987 8.20831 8.59559 8.57988C8.22132 8.95145 8.00736 9.45643 8 9.9856V19.0191C8.00104 19.2819 8.05369 19.5419 8.15491 19.7842C8.25614 20.0265 8.40394 20.2462 8.58982 20.4307C8.77569 20.6152 8.99598 20.7609 9.23799 20.8594C9.48001 20.9579 9.73898 21.0073 10 21.0046H13V23.6224C13 23.6925 13.0194 23.7613 13.056 23.8209C13.0926 23.8806 13.145 23.9288 13.2073 23.9601C13.2696 23.9915 13.3393 24.0048 13.4087 23.9985C13.478 23.9922 13.5443 23.9666 13.6 23.9245L17.5 20.9764H22C22.5256 20.9765 23.0301 20.7682 23.4044 20.3966C23.7787 20.0251 23.9926 19.5201 24 18.9909V9.9856C23.9987 9.72285 23.9459 9.46295 23.8445 9.22081C23.7432 8.97867 23.5954 8.75906 23.4096 8.57458C23.2238 8.3901 23.0036 8.24439 22.7617 8.1458C22.5198 8.04721 22.261 7.99769 22 8.00008ZM22.528 19.0755C22.528 19.209 22.4753 19.337 22.3816 19.4315C22.2878 19.5259 22.1606 19.5789 22.028 19.5789H17.028L14.528 21.4668V19.5789H10.028C9.89539 19.5789 9.76821 19.5259 9.67445 19.4315C9.58068 19.337 9.528 19.209 9.528 19.0755V10.0138C9.528 9.88027 9.58068 9.75222 9.67445 9.65781C9.76821 9.5634 9.89539 9.51036 10.028 9.51036H22.028C22.1606 9.51036 22.2878 9.5634 22.3816 9.65781C22.4753 9.75222 22.528 9.88027 22.528 10.0138V19.0755Z" fill="currentColor"/>
</svg>
