<svg viewBox="0 0 70 70" fill="none" xmlns="http://www.w3.org/2000/svg">
<rect width="70" height="70" rx="35" fill="white"/>
<path d="M23.75 37.875C23.75 37.6844 23.829 37.5016 23.9697 37.3668C24.1103 37.232 24.3011 37.1562 24.5 37.1562C24.6989 37.1562 24.8897 37.232 25.0303 37.3668C25.171 37.5016 25.25 37.6844 25.25 37.875C25.25 38.0656 25.171 38.2484 25.0303 38.3832C24.8897 38.518 24.6989 38.5938 24.5 38.5938C24.3011 38.5938 24.1103 38.518 23.9697 38.3832C23.829 38.2484 23.75 38.0656 23.75 37.875ZM27.5 37.875C27.5 37.1125 27.1839 36.3812 26.6213 35.8421C26.0587 35.3029 25.2956 35 24.5 35C23.7044 35 22.9413 35.3029 22.3787 35.8421C21.8161 36.3812 21.5 37.1125 21.5 37.875C21.5 38.6375 21.8161 39.3688 22.3787 39.9079C22.9413 40.4471 23.7044 40.75 24.5 40.75C25.2956 40.75 26.0587 40.4471 26.6213 39.9079C27.1839 39.3688 27.5 38.6375 27.5 37.875ZM23 42.1875C21.3453 42.1875 20 43.4768 20 45.0625C20 45.8576 20.6703 46.5 21.5 46.5H27.5C28.3297 46.5 29 45.8576 29 45.0625C29 43.4768 27.6547 42.1875 26 42.1875H23ZM34.25 37.875C34.25 37.6844 34.329 37.5016 34.4697 37.3668C34.6103 37.232 34.8011 37.1562 35 37.1562C35.1989 37.1562 35.3897 37.232 35.5303 37.3668C35.671 37.5016 35.75 37.6844 35.75 37.875C35.75 38.0656 35.671 38.2484 35.5303 38.3832C35.3897 38.518 35.1989 38.5938 35 38.5938C34.8011 38.5938 34.6103 38.518 34.4697 38.3832C34.329 38.2484 34.25 38.0656 34.25 37.875ZM38 37.875C38 37.1125 37.6839 36.3812 37.1213 35.8421C36.5587 35.3029 35.7956 35 35 35C34.2044 35 33.4413 35.3029 32.8787 35.8421C32.3161 36.3812 32 37.1125 32 37.875C32 38.6375 32.3161 39.3688 32.8787 39.9079C33.4413 40.4471 34.2044 40.75 35 40.75C35.7956 40.75 36.5587 40.4471 37.1213 39.9079C37.6839 39.3688 38 38.6375 38 37.875ZM33.5 42.1875C31.8453 42.1875 30.5 43.4768 30.5 45.0625C30.5 45.8576 31.1703 46.5 32 46.5H38C38.8297 46.5 39.5 45.8576 39.5 45.0625C39.5 43.4768 38.1547 42.1875 36.5 42.1875H33.5ZM45.5 37.1562C45.6989 37.1562 45.8897 37.232 46.0303 37.3668C46.171 37.5016 46.25 37.6844 46.25 37.875C46.25 38.0656 46.171 38.2484 46.0303 38.3832C45.8897 38.518 45.6989 38.5938 45.5 38.5938C45.3011 38.5938 45.1103 38.518 44.9697 38.3832C44.829 38.2484 44.75 38.0656 44.75 37.875C44.75 37.6844 44.829 37.5016 44.9697 37.3668C45.1103 37.232 45.3011 37.1562 45.5 37.1562ZM45.5 40.75C46.2956 40.75 47.0587 40.4471 47.6213 39.9079C48.1839 39.3688 48.5 38.6375 48.5 37.875C48.5 37.1125 48.1839 36.3812 47.6213 35.8421C47.0587 35.3029 46.2956 35 45.5 35C44.7044 35 43.9413 35.3029 43.3787 35.8421C42.8161 36.3812 42.5 37.1125 42.5 37.875C42.5 38.6375 42.8161 39.3688 43.3787 39.9079C43.9413 40.4471 44.7044 40.75 45.5 40.75ZM41 45.0625C41 45.8576 41.6703 46.5 42.5 46.5H48.5C49.3297 46.5 50 45.8576 50 45.0625C50 43.4768 48.6547 42.1875 47 42.1875H44C42.3453 42.1875 41 43.4768 41 45.0625ZM45.5 25.6562H24.5C24.0875 25.6562 23.75 25.9797 23.75 26.375V33.6209C22.8922 33.7602 22.1188 34.1285 21.5 34.6586V26.375C21.5 24.7893 22.8453 23.5 24.5 23.5H45.5C47.1547 23.5 48.5 24.7893 48.5 26.375V34.6586C47.8813 34.1285 47.1078 33.7557 46.25 33.6209V26.375C46.25 25.9797 45.9125 25.6562 45.5 25.6562Z" fill="currentcolor"/>
<rect x="0.5" y="0.5" width="69" height="69" rx="34.5" stroke="#74B0EA" stroke-opacity="0.25"/>
</svg>
