<svg viewBox="0 0 32 32" fill="none" xmlns="http://www.w3.org/2000/svg">
<path d="M9.13904 19.691L8.41904 22.134L8.03104 23.454C7.99268 23.5833 7.98982 23.7205 8.02276 23.8512C8.0557 23.982 8.12323 24.1014 8.21826 24.197C8.31328 24.2927 8.4323 24.361 8.56282 24.3948C8.69334 24.4285 8.83055 24.4266 8.96004 24.389L10.283 23.998L12.726 23.278C13.05 23.1836 13.3535 23.0296 13.621 22.824L13.63 22.83L13.646 22.805C13.69 22.771 13.73 22.736 13.771 22.705C13.812 22.674 13.855 22.627 13.896 22.586L23.414 13.068C23.6001 12.8823 23.7478 12.6616 23.8485 12.4188C23.9493 12.1759 24.0011 11.9155 24.0011 11.6525C24.0011 11.3896 23.9493 11.1292 23.8485 10.8863C23.7478 10.6434 23.6001 10.4228 23.414 10.237L22.182 9.00504C21.9963 8.81894 21.7756 8.6713 21.5327 8.57056C21.2899 8.46982 21.0295 8.41797 20.7665 8.41797C20.5036 8.41797 20.2432 8.46982 20.0003 8.57056C19.7574 8.6713 19.5368 8.81894 19.351 9.00504L9.83404 18.521C9.75516 18.5999 9.68103 18.6834 9.61204 18.771L9.58704 18.787L9.59304 18.796C9.38863 19.0643 9.23478 19.3676 9.13904 19.691ZM19.982 14.376L14.176 20.182L12.624 19.794L12.236 18.242L18.042 12.436L19.982 14.376ZM11.035 19.629L11.276 20.599C11.3093 20.7311 11.3777 20.8517 11.474 20.948C11.5704 21.0444 11.691 21.1128 11.823 21.146L12.793 21.387L12.561 21.737C12.4807 21.7813 12.3959 21.8169 12.308 21.843L11.576 22.059L9.85904 22.559L10.359 20.845L10.575 20.113C10.6006 20.025 10.6362 19.9401 10.681 19.86L11.035 19.629ZM17.865 15.243C17.9128 15.1969 17.9509 15.1417 17.9771 15.0807C18.0033 15.0197 18.0171 14.9541 18.0177 14.8877C18.0182 14.8214 18.0056 14.7555 17.9805 14.6941C17.9553 14.6326 17.9182 14.5768 17.8712 14.5298C17.8243 14.4829 17.7685 14.4458 17.707 14.4206C17.6456 14.3955 17.5797 14.3828 17.5133 14.3834C17.4469 14.384 17.3813 14.3978 17.3203 14.424C17.2593 14.4502 17.2042 14.4883 17.158 14.536L14.158 17.536C14.067 17.6303 14.0166 17.7566 14.0177 17.8877C14.0188 18.0188 14.0714 18.1442 14.1641 18.237C14.2568 18.3297 14.3822 18.3822 14.5133 18.3834C14.6444 18.3845 14.7707 18.3341 14.865 18.243L17.865 15.243Z" fill="currentColor"/>
</svg>
