<svg viewBox="0 0 70 70" fill="none" xmlns="http://www.w3.org/2000/svg">
<rect width="70" height="70" rx="35" fill="white"/>
<path d="M47.1875 26.75V30.4167H38.75V26.75H47.1875ZM22.8125 24C21.2598 24 20 25.2318 20 26.75V30.4167C20 31.9349 21.2598 33.1667 22.8125 33.1667H47.1875C48.7402 33.1667 50 31.9349 50 30.4167V26.75C50 25.2318 48.7402 24 47.1875 24H22.8125ZM47.1875 39.5833V43.25H31.25V39.5833H47.1875ZM22.8125 36.8333C21.2598 36.8333 20 38.0651 20 39.5833V43.25C20 44.7682 21.2598 46 22.8125 46H47.1875C48.7402 46 50 44.7682 50 43.25V39.5833C50 38.0651 48.7402 36.8333 47.1875 36.8333H22.8125Z" fill="currentcolor"/>
<rect x="0.5" y="0.5" width="69" height="69" rx="34.5" stroke="#74B0EA" stroke-opacity="0.25"/>
</svg>
