<svg viewBox="0 0 32 32" fill="none" xmlns="http://www.w3.org/2000/svg">
<path d="M11.5801 24C11.0865 24 10.6154 23.8032 10.266 23.4516L6.40705 19.5677C6.14744 19.3065 6 18.9516 6 18.5806C6 18.2097 6.14744 17.8548 6.40705 17.5935L10.266 13.7097C10.6154 13.3581 11.0865 13.1613 11.5801 13.1613C12.6058 13.1613 13.4359 13.9968 13.4359 15.029V15.2258H19.5897C19.8718 15.2258 20.1026 15.4581 20.1026 15.7419V16.971C20.1026 17.1484 20.2468 17.2903 20.4199 17.2903C20.5032 17.2903 20.5865 17.2581 20.6442 17.1968L24.4006 13.4194L20.6474 9.64194C20.5865 9.58065 20.5064 9.54839 20.4231 9.54839C20.2468 9.54839 20.1058 9.69355 20.1058 9.86774V11.0968C20.1058 11.3806 19.875 11.6129 19.5929 11.6129H16C15.5737 11.6129 15.2308 11.2677 15.2308 10.8387C15.2308 10.4097 15.5737 10.0645 16 10.0645H18.5641V9.86774C18.5641 8.83548 19.3942 8 20.4199 8C20.9135 8 21.3846 8.19677 21.734 8.54839L25.5929 12.4323C25.8526 12.6935 26 13.0484 26 13.4194C26 13.7903 25.8526 14.1452 25.5929 14.4065L21.734 18.2903C21.3846 18.6419 20.9135 18.8387 20.4199 18.8387C19.3942 18.8387 18.5641 18.0032 18.5641 16.971V16.7742H12.4103C12.1282 16.7742 11.8974 16.5419 11.8974 16.2581V15.029C11.8974 14.8516 11.7532 14.7097 11.5801 14.7097C11.4968 14.7097 11.4135 14.7419 11.3558 14.8032L7.59936 18.5806L11.3526 22.3581C11.4135 22.4194 11.4936 22.4516 11.5769 22.4516C11.7532 22.4516 11.8942 22.3065 11.8942 22.1323V20.9032C11.8942 20.6194 12.125 20.3871 12.4071 20.3871H16C16.4263 20.3871 16.7692 20.7323 16.7692 21.1613C16.7692 21.5903 16.4263 21.9355 16 21.9355H13.4359V22.1323C13.4359 23.1645 12.6058 24 11.5801 24Z" fill="currentColor"/>
</svg>
