<svg viewBox="0 0 70 70" fill="none" xmlns="http://www.w3.org/2000/svg">
<rect width="70" height="70" rx="35" fill="white"/>
<path d="M29.8497 42.4762C28.9713 42.1629 27.9934 42.2964 27.2379 42.8476C26.7578 43.1957 25.9321 43.7063 24.9307 44.1647C25.2586 43.3118 25.5104 42.3486 25.5924 41.2984C25.651 40.5499 25.3992 39.8072 24.9014 39.2386C23.537 37.7126 22.8109 35.9255 22.8109 34.0687C22.8109 29.4559 27.6889 24.7851 34.9912 24.7851C42.2936 24.7851 47.1716 29.4559 47.1716 34.0687C47.1716 38.6815 42.2936 43.3524 34.9912 43.3524C33.1407 43.3524 31.4015 43.0333 29.8497 42.4762ZM21.5401 44.7333C21.4464 44.89 21.3469 45.0466 21.2415 45.2033L21.2239 45.2323C21.1302 45.3658 21.0365 45.4992 20.9428 45.6327C20.7378 45.9054 20.5153 46.1723 20.2811 46.416C20.0117 46.6829 19.9356 47.0774 20.082 47.4256C20.2284 47.7737 20.568 48 20.9487 48C21.2473 48 21.546 47.9826 21.8446 47.9536L21.8856 47.9478C22.1433 47.9188 22.4009 47.884 22.6586 47.8375C22.7054 47.8317 22.7523 47.8201 22.7991 47.8085C23.8415 47.6054 24.8429 47.2573 25.733 46.8744C27.074 46.2941 28.2159 45.6037 28.9127 45.0989C30.7749 45.7661 32.8362 46.1375 35.0088 46.1375C43.2891 46.1375 50 40.7355 50 34.0687C50 27.4019 43.2715 22 34.9912 22C26.7109 22 20 27.4019 20 34.0687C20 36.6856 21.0365 39.1051 22.7933 41.0837C22.682 42.5052 22.1257 43.7701 21.5401 44.7333ZM41.6084 31.3417C42.1589 30.7963 42.1589 29.9143 41.6084 29.3747C41.058 28.8351 40.1679 28.8293 39.6233 29.3747L33.1232 35.8152L30.3709 33.0882C29.8204 32.5427 28.9303 32.5427 28.3857 33.0882C27.8411 33.6336 27.8353 34.5155 28.3857 35.0551L32.1335 38.7686C32.684 39.314 33.5741 39.314 34.1187 38.7686L41.6084 31.3417Z" fill="currentcolor"/>
<rect x="0.5" y="0.5" width="69" height="69" rx="34.5" stroke="#74B0EA" stroke-opacity="0.25"/>
</svg>
