<svg viewBox="0 0 70 70" fill="none" xmlns="http://www.w3.org/2000/svg">
<rect width="70" height="70" rx="35" fill="white"/>
<path d="M47.1875 35C47.1875 38.2323 45.9035 41.3323 43.6179 43.6179C41.3323 45.9035 38.2323 47.1875 35 47.1875C31.7677 47.1875 28.6677 45.9035 26.3821 43.6179C24.0965 41.3323 22.8125 38.2323 22.8125 35C22.8125 31.7677 24.0965 28.6677 26.3821 26.3821C28.6677 24.0965 31.7677 22.8125 35 22.8125C38.2323 22.8125 41.3323 24.0965 43.6179 26.3821C45.9035 28.6677 47.1875 31.7677 47.1875 35ZM20 35C20 38.9782 21.5804 42.7936 24.3934 45.6066C27.2064 48.4196 31.0218 50 35 50C38.9782 50 42.7936 48.4196 45.6066 45.6066C48.4196 42.7936 50 38.9782 50 35C50 31.0218 48.4196 27.2064 45.6066 24.3934C42.7936 21.5804 38.9782 20 35 20C31.0218 20 27.2064 21.5804 24.3934 24.3934C21.5804 27.2064 20 31.0218 20 35ZM33.5938 27.0312V35C33.5938 35.7793 34.2207 36.4062 35 36.4062H41.0938C41.873 36.4062 42.5 35.7793 42.5 35C42.5 34.2207 41.873 33.5938 41.0938 33.5938H36.4062V27.0312C36.4062 26.252 35.7793 25.625 35 25.625C34.2207 25.625 33.5938 26.252 33.5938 27.0312Z" fill="currentcolor"/>
<rect x="0.5" y="0.5" width="69" height="69" rx="34.5" stroke="#74B0EA" stroke-opacity="0.25"/>
</svg>
