<svg viewBox="0 0 32 33" fill="none" xmlns="http://www.w3.org/2000/svg">
<path d="M16.1339 8.51406C16.0446 8.49531 15.9524 8.49531 15.8631 8.51406L10.1028 9.76419C9.78017 9.83294 9.54688 10.1423 9.54688 10.4986C9.54688 10.8205 9.73409 11.1018 10.0077 11.205V13.4489L9.55552 15.9023C9.52959 16.0492 9.56416 16.2023 9.65056 16.318C9.73697 16.4336 9.86946 16.5023 10.0077 16.5023H10.9294C11.0676 16.5023 11.1972 16.4367 11.2865 16.318C11.3758 16.1992 11.4104 16.0492 11.3816 15.9023L10.9294 13.4489V11.4143L15.8631 12.4863C15.9524 12.5051 16.0446 12.5051 16.1339 12.4863L21.8942 11.2362C22.2168 11.1643 22.4501 10.8549 22.4501 10.4986C22.4501 10.1423 22.2168 9.83294 21.8942 9.76419L16.1339 8.51406ZM10.9668 22.9999C11.1339 21.8247 11.8309 20.8371 12.79 20.3402L14.6218 22.5748C14.7658 22.7498 14.9299 22.8905 15.1085 22.9999H10.9668ZM21.0302 22.9999H16.8885C17.067 22.8936 17.2312 22.753 17.3752 22.5748L19.207 20.3402C20.1661 20.834 20.8631 21.8216 21.0302 22.9999ZM12.7036 18.7619C10.8689 19.437 9.54688 21.3216 9.54688 23.5405C9.54688 24.0718 9.94434 24.5 10.4311 24.5H21.5659C22.0555 24.5 22.4501 24.0687 22.4501 23.5405C22.4501 21.3216 21.1281 19.437 19.2934 18.7651C18.9795 18.6494 18.6396 18.7776 18.4207 19.0463L16.3441 21.5778C16.1598 21.8029 15.8372 21.8029 15.6557 21.5778L13.5791 19.0432C13.3602 18.7744 13.0204 18.6463 12.7064 18.7619H12.7036ZM12.3119 13.4989C12.3119 15.7085 13.9622 17.4993 15.9985 17.4993C18.0348 17.4993 19.6851 15.7085 19.6851 13.4989V12.7332L18.3026 13.0333V13.4989C18.3026 14.8803 17.2715 15.9992 15.9985 15.9992C14.7254 15.9992 13.6943 14.8803 13.6943 13.4989V13.0333L12.3119 12.7332V13.4989Z" fill="currentColor"/>
</svg>
