<svg viewBox="0 0 32 33" fill="none" xmlns="http://www.w3.org/2000/svg">
<path d="M13.4621 16.5949C14.0742 16.5949 14.6612 16.348 15.094 15.9083C15.5269 15.4687 15.77 14.8725 15.77 14.2507C15.77 13.629 15.5269 13.0327 15.094 12.5931C14.6612 12.1535 14.0742 11.9065 13.4621 11.9065C12.85 11.9065 12.263 12.1535 11.8302 12.5931C11.3974 13.0327 11.1542 13.629 11.1542 14.2507C11.1542 14.8725 11.3974 15.4687 11.8302 15.9083C12.263 16.348 12.85 16.5949 13.4621 16.5949ZM13.4621 10.5C14.4415 10.5 15.3807 10.8952 16.0732 11.5986C16.7657 12.302 17.1548 13.256 17.1548 14.2507C17.1548 15.2455 16.7657 16.1995 16.0732 16.9029C15.3807 17.6063 14.4415 18.0015 13.4621 18.0015C12.4828 18.0015 11.5435 17.6063 10.851 16.9029C10.1585 16.1995 9.76948 15.2455 9.76948 14.2507C9.76948 13.256 10.1585 12.302 10.851 11.5986C11.5435 10.8952 12.4828 10.5 13.4621 10.5ZM8.42224 24.0964H16.7105C16.8057 24.2195 16.9038 24.3367 17.0076 24.448C17.4606 24.9432 18.15 24.9872 18.6578 24.703V24.7293C18.6578 24.9989 18.7357 25.2714 18.8857 25.5H7.85681C7.38369 25.5029 7 25.1132 7 24.6326C7 21.7463 9.30213 19.408 12.1437 19.408H13.4621H14.7805C15.1209 19.408 15.4556 19.4431 15.7758 19.5047C15.7152 20.0468 15.9893 20.5479 16.4047 20.8174C16.3008 20.8848 16.2027 20.9669 16.1191 21.0636C15.7037 20.9024 15.2507 20.8145 14.7776 20.8145H12.1437C10.2484 20.8145 8.679 22.2415 8.42224 24.0964ZM19.5781 16.8938C19.5781 16.6887 19.7079 16.5041 19.904 16.4601C20.207 16.3898 20.5243 16.3517 20.8474 16.3517C21.1705 16.3517 21.4878 16.3898 21.7907 16.4601C21.9869 16.5041 22.1167 16.6887 22.1167 16.8938V17.7905C22.3446 17.8901 22.561 18.0161 22.7601 18.1656L23.4784 17.7465C23.6544 17.644 23.8736 17.6674 24.0121 17.8169C24.2314 18.0542 24.4246 18.3209 24.592 18.6139C24.7593 18.9069 24.8891 19.2117 24.9814 19.5223C25.042 19.7186 24.9497 19.9237 24.7737 20.0263L24.0525 20.4482C24.064 20.5654 24.0727 20.6856 24.0727 20.8086C24.0727 20.9317 24.0669 21.0489 24.0525 21.1691L24.7737 21.591C24.9497 21.6936 25.0391 21.8987 24.9814 22.095C24.8862 22.4056 24.7564 22.7104 24.592 23.0034C24.4275 23.2964 24.2314 23.5631 24.0121 23.8004C23.8736 23.9499 23.6515 23.9733 23.4784 23.8708L22.7601 23.4517C22.561 23.6012 22.3475 23.7272 22.1167 23.8268V24.7235C22.1167 24.9286 21.9869 25.1132 21.7907 25.1571C21.4878 25.2275 21.1705 25.2656 20.8474 25.2656C20.5243 25.2656 20.207 25.2275 19.904 25.1571C19.7079 25.1132 19.5781 24.9286 19.5781 24.7235V23.8268C19.3473 23.7272 19.128 23.6012 18.929 23.4488L18.2164 23.8678C18.0404 23.9704 17.8212 23.9469 17.6827 23.7975C17.4634 23.5602 17.2702 23.2935 17.1028 23.0005C16.9355 22.7074 16.8057 22.4027 16.7134 22.0921C16.6528 21.8958 16.7451 21.6906 16.9211 21.5881L17.6365 21.1691C17.625 21.0489 17.6163 20.9288 17.6163 20.8057C17.6163 20.6826 17.6221 20.5625 17.6365 20.4424L16.9182 20.0233C16.7422 19.9208 16.6528 19.7157 16.7105 19.5193C16.8057 19.2087 16.9326 18.904 17.0999 18.611C17.2673 18.3179 17.4606 18.0513 17.6798 17.8139C17.8183 17.6645 18.0375 17.641 18.2135 17.7436L18.929 18.1626C19.128 18.0132 19.3473 17.8872 19.5781 17.7846V16.8938ZM22.235 20.8057C22.2436 20.6154 22.214 20.4253 22.1482 20.2469C22.0824 20.0685 21.9817 19.9056 21.8521 19.7678C21.7226 19.6301 21.5669 19.5204 21.3944 19.4455C21.222 19.3706 21.0364 19.332 20.8488 19.332C20.6613 19.332 20.4757 19.3706 20.3032 19.4455C20.1308 19.5204 19.9751 19.6301 19.8455 19.7678C19.716 19.9056 19.6152 20.0685 19.5494 20.2469C19.4836 20.4253 19.4541 20.6154 19.4627 20.8057C19.4541 20.996 19.4836 21.1861 19.5494 21.3645C19.6152 21.5429 19.716 21.7059 19.8455 21.8436C19.9751 21.9814 20.1308 22.091 20.3032 22.1659C20.4757 22.2408 20.6613 22.2794 20.8488 22.2794C21.0364 22.2794 21.222 22.2408 21.3944 22.1659C21.5669 22.091 21.7226 21.9814 21.8521 21.8436C21.9817 21.7059 22.0824 21.5429 22.1482 21.3645C22.214 21.1861 22.2436 20.996 22.235 20.8057Z" fill="currentColor"/>
</svg>
