<svg viewBox="0 0 32 32" fill="none" xmlns="http://www.w3.org/2000/svg">
<path d="M10.08 12.018C10.08 11.7015 10.1738 11.3922 10.3496 11.1291C10.5255 10.8659 10.7753 10.6609 11.0677 10.5398C11.3601 10.4187 11.6818 10.387 11.9921 10.4487C12.3025 10.5104 12.5876 10.6628 12.8114 10.8866C13.0351 11.1104 13.1875 11.3955 13.2493 11.7058C13.311 12.0162 13.2793 12.3379 13.1582 12.6303C13.0371 12.9226 12.832 13.1725 12.5689 13.3483C12.3058 13.5241 11.9965 13.618 11.68 13.618C11.2557 13.618 10.8487 13.4494 10.5486 13.1493C10.2486 12.8493 10.08 12.4423 10.08 12.018ZM12.8 14.418C13.0936 14.4134 13.3825 14.4916 13.6337 14.6437C13.8849 14.7958 14.0881 15.0156 14.22 15.278C13.7722 15.3663 13.3485 15.5495 12.9774 15.8151C12.6062 16.0807 12.2961 16.4227 12.068 16.818H9.6C9.38783 16.818 9.18434 16.7337 9.03431 16.5837C8.88429 16.4336 8.8 16.2301 8.8 16.018C8.8 15.5936 8.96857 15.1867 9.26863 14.8866C9.56869 14.5865 9.97565 14.418 10.4 14.418H12.8ZM22.4 16.818H20.012C19.7776 16.4119 19.4567 16.0623 19.0723 15.794C18.6878 15.5256 18.249 15.345 17.787 15.265C17.9236 15.0089 18.1272 14.7948 18.3761 14.6456C18.625 14.4964 18.9098 14.4177 19.2 14.418H21.6C22.0243 14.418 22.4313 14.5865 22.7314 14.8866C23.0314 15.1867 23.2 15.5936 23.2 16.018C23.2 16.2301 23.1157 16.4336 22.9657 16.5837C22.8157 16.7337 22.6122 16.818 22.4 16.818ZM19.64 18.418C19.64 18.6301 19.5557 18.8336 19.4057 18.9837C19.2557 19.1337 19.0522 19.218 18.84 19.218H13.24C13.0278 19.218 12.8243 19.1337 12.6743 18.9837C12.5243 18.8336 12.44 18.6301 12.44 18.418C12.4347 17.8269 12.6525 17.2555 13.05 16.818C13.3987 16.4281 13.8643 16.1615 14.377 16.058L14.527 16.038C14.6308 16.025 14.7354 16.0183 14.84 16.018H17.24C17.3446 16.0183 17.4492 16.025 17.553 16.038C17.57 16.038 17.585 16.021 17.6 16.046C18.1519 16.1292 18.6576 16.4022 19.03 16.818C19.4275 17.2555 19.6453 17.8269 19.64 18.418ZM18.373 18.018C18.2902 17.7839 18.1369 17.5813 17.9342 17.438C17.7315 17.2947 17.4893 17.2178 17.241 17.218H14.84C14.5916 17.2176 14.3492 17.2944 14.1462 17.4377C13.9433 17.581 13.7898 17.7837 13.707 18.018H18.373ZM18.88 12.018C18.88 11.7015 18.9738 11.3922 19.1496 11.1291C19.3255 10.8659 19.5753 10.6609 19.8677 10.5398C20.1601 10.4187 20.4818 10.387 20.7921 10.4487C21.1025 10.5104 21.3876 10.6628 21.6114 10.8866C21.8351 11.1104 21.9875 11.3955 22.0493 11.7058C22.111 12.0162 22.0793 12.3379 21.9582 12.6303C21.8371 12.9226 21.632 13.1725 21.3689 13.3483C21.1058 13.5241 20.7964 13.618 20.48 13.618C20.0557 13.618 19.6487 13.4494 19.3486 13.1493C19.0486 12.8493 18.88 12.4423 18.88 12.018ZM14.04 13.218C14.04 12.8224 14.1573 12.4357 14.3771 12.1068C14.5968 11.7779 14.9092 11.5216 15.2746 11.3702C15.6401 11.2188 16.0422 11.1792 16.4302 11.2564C16.8181 11.3336 17.1745 11.5241 17.4542 11.8038C17.7339 12.0835 17.9244 12.4398 18.0016 12.8278C18.0787 13.2158 18.0391 13.6179 17.8878 13.9833C17.7364 14.3488 17.48 14.6611 17.1511 14.8809C16.8222 15.1007 16.4356 15.218 16.04 15.218C15.6067 15.2216 15.1845 15.0809 14.84 14.818C14.5916 14.6317 14.39 14.3901 14.2511 14.1124C14.1123 13.8347 14.04 13.5285 14.04 13.218ZM16.04 14.018C16.1982 14.018 16.3529 13.9711 16.4845 13.8831C16.616 13.7952 16.7186 13.6703 16.7791 13.5241C16.8397 13.3779 16.8555 13.2171 16.8246 13.0619C16.7938 12.9067 16.7176 12.7642 16.6057 12.6523C16.4938 12.5404 16.3513 12.4642 16.1961 12.4333C16.0409 12.4025 15.88 12.4183 15.7339 12.4789C15.5877 12.5394 15.4627 12.642 15.3748 12.7735C15.2869 12.9051 15.24 13.0597 15.24 13.218C15.24 13.4301 15.3243 13.6336 15.4743 13.7837C15.6243 13.9337 15.8278 14.018 16.04 14.018ZM8 21.018C8 20.8588 8.06321 20.7062 8.17574 20.5937C8.28826 20.4812 8.44087 20.418 8.6 20.418H23.4C23.5591 20.418 23.7117 20.4812 23.8243 20.5937C23.9368 20.7062 24 20.8588 24 21.018C24 21.1771 23.9368 21.3297 23.8243 21.4422C23.7117 21.5548 23.5591 21.618 23.4 21.618H8.6C8.44087 21.618 8.28826 21.5548 8.17574 21.4422C8.06321 21.3297 8 21.1771 8 21.018Z" fill="currentColor"/>
</svg>
