<svg width="32" height="33" viewBox="0 0 32 33" fill="none" xmlns="http://www.w3.org/2000/svg">
<path d="M19.1519 11.5487C19.1519 10.3054 20.1589 9.29834 21.4022 9.29834C22.6456 9.29834 23.6526 10.3054 23.6526 11.5487C23.6526 12.792 22.6456 13.799 21.4022 13.799C20.1589 13.799 19.1519 12.792 19.1519 11.5487ZM21.9986 14.6992H20.8031H20.7975C20.3502 14.6992 19.9255 14.7948 19.5429 14.972C19.5767 15.1774 19.5963 15.3855 19.5963 15.5993C19.5963 16.5951 19.1941 17.4952 18.5415 18.1478L19.526 18.0044L20.2096 16.6204C20.4233 16.1844 20.8762 15.9031 21.3629 15.9003H21.3685C21.8579 15.9031 22.3108 16.1844 22.5246 16.6232L23.2082 18.0044L24.6962 18.221C24.8762 18.1169 25 17.9228 25 17.7006C25 17.6612 25 17.6218 24.9972 17.5853L25 17.5881C24.9409 15.9819 23.6217 14.6992 22.0014 14.6992H21.9986ZM18.1195 23.0367L18.2377 22.3532H17.6357H13.9142H12.0267C12.294 21.318 13.2335 20.5529 14.3502 20.5529H17.1997C17.2729 20.5529 17.3432 20.5557 17.4135 20.5613L17.2813 20.432C16.9494 20.1085 16.82 19.6443 16.9297 19.1999H14.353H14.2968C12.2489 19.2308 10.6006 20.8989 10.6006 22.9495C10.6006 23.363 10.9353 23.7006 11.3516 23.7006H11.7454H18.1814C18.1055 23.4924 18.083 23.2674 18.1195 23.0367ZM13.6217 18.2997C12.8734 17.6387 12.4037 16.6739 12.4037 15.5993C12.4037 15.3855 12.4233 15.1774 12.4571 14.972C12.0745 14.7948 11.6498 14.6992 11.2025 14.6992H10.0014C8.34458 14.6992 7 16.0438 7 17.7006C7 18.0297 7.27004 18.2997 7.59916 18.2997H13.602C13.6076 18.2997 13.6132 18.2997 13.6217 18.2997ZM13.301 15.5993C13.301 14.1085 14.5105 12.8989 16.0014 12.8989C17.4923 12.8989 18.7018 14.1085 18.7018 15.5993C18.7018 15.6303 18.7018 15.6612 18.699 15.6922C18.699 15.7006 18.699 15.709 18.699 15.7175C18.699 15.7456 18.6962 15.7709 18.6934 15.799C18.6934 15.8075 18.6934 15.8131 18.6906 15.8215C18.6878 15.844 18.6878 15.8694 18.6849 15.8919C18.6849 15.9059 18.6821 15.9172 18.6793 15.9313C18.6765 15.9481 18.6765 15.9622 18.6737 15.9791C18.6709 16.0072 18.6653 16.0325 18.6624 16.0606C18.6624 16.0691 18.6596 16.0775 18.6596 16.0831C18.6568 16.1028 18.6512 16.1225 18.6484 16.145V16.1478C18.5781 16.4995 18.4374 16.823 18.2461 17.1127C18.2433 17.1155 18.2405 17.1155 18.2377 17.1183C18.1055 17.3152 17.9451 17.4924 17.7679 17.6471C17.7595 17.6556 17.7511 17.6612 17.7426 17.6668C17.7285 17.6781 17.7145 17.6893 17.7032 17.7006C17.6864 17.7147 17.6723 17.7259 17.6554 17.7372C17.6385 17.7484 17.6245 17.7625 17.6076 17.7737C17.5963 17.7822 17.5851 17.7906 17.571 17.799C17.5485 17.8131 17.5288 17.83 17.5063 17.844C17.4951 17.8525 17.481 17.8609 17.4698 17.8666C17.4473 17.8806 17.4248 17.8947 17.4022 17.9087C17.391 17.9144 17.3797 17.9228 17.3685 17.9284C17.3488 17.9397 17.3263 17.9538 17.3066 17.965C17.2925 17.9734 17.2785 17.9791 17.2672 17.9875C17.2475 17.9988 17.225 18.01 17.2053 18.0185C17.1941 18.0241 17.18 18.0297 17.1688 18.0353C17.1463 18.0466 17.121 18.0578 17.0956 18.0691C17.0844 18.0747 17.0759 18.0775 17.0647 18.0831C17.0366 18.0944 17.0113 18.1057 16.9831 18.1169C16.9719 18.1197 16.9634 18.1253 16.9522 18.1282C16.924 18.1394 16.8959 18.1478 16.865 18.1591C16.8565 18.1619 16.8453 18.1647 16.8368 18.1675C16.8059 18.176 16.775 18.1872 16.7468 18.1957C16.7384 18.1985 16.7328 18.1985 16.7243 18.2013C16.6934 18.2097 16.6653 18.2182 16.6343 18.2238C16.6287 18.2238 16.6231 18.2266 16.6174 18.2266C16.5837 18.235 16.5499 18.2407 16.5162 18.2463C16.5105 18.2463 16.5021 18.2491 16.4965 18.2491C16.4627 18.2547 16.429 18.2604 16.3952 18.266C16.3868 18.266 16.3812 18.2688 16.3727 18.2688C16.339 18.2744 16.3024 18.2772 16.2686 18.2801C16.263 18.2801 16.2546 18.2801 16.2489 18.2829C16.2124 18.2857 16.1758 18.2885 16.1392 18.2913C16.1336 18.2913 16.1308 18.2913 16.1252 18.2913C16.0858 18.2941 16.0464 18.2941 16.0098 18.2941C15.9705 18.2941 15.9311 18.2941 15.8945 18.2913C15.8889 18.2913 15.8861 18.2913 15.8805 18.2913C15.8439 18.2885 15.8073 18.2857 15.7707 18.2829C15.7651 18.2829 15.7567 18.2829 15.7511 18.2801C15.7173 18.2772 15.6807 18.2716 15.647 18.2688C15.6385 18.2688 15.6329 18.266 15.6245 18.266C15.5907 18.2604 15.557 18.2547 15.5232 18.2491C15.5176 18.2491 15.5091 18.2463 15.5035 18.2463C15.4698 18.2407 15.436 18.2322 15.4023 18.2266C15.3966 18.2266 15.391 18.2238 15.3854 18.2238C15.3544 18.2154 15.3235 18.2097 15.2954 18.2013C15.2869 18.1985 15.2813 18.1985 15.2729 18.1957C15.2419 18.1872 15.211 18.1788 15.1828 18.1675C15.1744 18.1647 15.1631 18.1619 15.1547 18.1591C15.1266 18.1507 15.0985 18.1394 15.0675 18.1282C15.0563 18.1253 15.0478 18.1197 15.0366 18.1169C15.0084 18.1057 14.9803 18.0944 14.955 18.0831C14.9437 18.0775 14.9353 18.0747 14.9241 18.0691C14.8987 18.0578 14.8762 18.0466 14.8509 18.0353C14.8397 18.0297 14.8256 18.0241 14.8143 18.0156C14.7947 18.0044 14.7722 17.9959 14.7525 17.9847C14.7384 17.9763 14.7243 17.9706 14.7131 17.9622C14.6934 17.9509 14.6709 17.9397 14.6512 17.9256C14.6399 17.92 14.6287 17.9116 14.6174 17.9059C14.5949 17.8919 14.5724 17.8778 14.5499 17.8637C14.5387 17.8553 14.5246 17.8469 14.5134 17.8412C14.4909 17.8272 14.4712 17.8131 14.4487 17.7962C14.4374 17.7878 14.4233 17.7794 14.4121 17.7709C14.3952 17.7597 14.3783 17.7456 14.3643 17.7343C14.3474 17.7231 14.3333 17.709 14.3165 17.6978C14.3024 17.6865 14.2883 17.6753 14.2771 17.664C14.2686 17.6584 14.2602 17.65 14.2518 17.6443C14.0717 17.4896 13.9142 17.3124 13.782 17.1155C13.7792 17.1127 13.7764 17.1127 13.7736 17.1099C13.5795 16.823 13.4416 16.4967 13.3713 16.145V16.1422C13.3685 16.1225 13.3629 16.1028 13.3601 16.0803C13.3572 16.0719 13.3572 16.0635 13.3572 16.0578C13.3516 16.0297 13.3488 16.0044 13.346 15.9763C13.3432 15.9594 13.3404 15.9453 13.3404 15.9284C13.3376 15.9144 13.3376 15.9031 13.3347 15.8891C13.3319 15.8666 13.3291 15.8412 13.3291 15.8187C13.3291 15.8103 13.3291 15.8047 13.3263 15.7962C13.3235 15.7709 13.3235 15.7428 13.3207 15.7147C13.3207 15.7062 13.3207 15.6978 13.3207 15.6893C13.301 15.6612 13.301 15.6303 13.301 15.5993ZM14.6512 15.5993C14.6512 16.3448 15.256 16.9495 16.0014 16.9495C16.7468 16.9495 17.3516 16.3448 17.3516 15.5993C17.3516 14.8539 16.7468 14.2491 16.0014 14.2491C15.256 14.2491 14.6512 14.8539 14.6512 15.5993ZM11.0506 13.799C12.294 13.799 13.301 12.792 13.301 11.5487C13.301 10.3054 12.294 9.29834 11.0506 9.29834C9.80731 9.29834 8.80028 10.3054 8.80028 11.5487C8.80028 12.792 9.80731 13.799 11.0506 13.799ZM21.3685 16.7442C21.1997 16.7442 21.0422 16.8398 20.9662 16.9945L20.0858 18.7751L18.1195 19.0621C17.9508 19.0874 17.8101 19.2055 17.7567 19.3687C17.7032 19.5318 17.7454 19.709 17.8692 19.83L19.2897 21.2168L18.9522 23.1774C18.924 23.3462 18.9916 23.5149 19.1322 23.6162C19.2729 23.7175 19.4557 23.7287 19.6076 23.65L21.3657 22.7245L23.1238 23.6471C23.2729 23.7287 23.4557 23.7118 23.5963 23.6134C23.737 23.5149 23.8045 23.3433 23.7764 23.1746L23.4416 21.2168L24.865 19.83C24.9859 19.7118 25.0309 19.5318 24.9775 19.3687C24.924 19.2055 24.7834 19.0874 24.6146 19.0621L22.6484 18.7751L21.7679 16.9945C21.6948 16.8426 21.5373 16.7442 21.3657 16.7442H21.3685Z" fill="currentColor"/>
</svg>
