<svg viewBox="0 0 32 32" fill="none" xmlns="http://www.w3.org/2000/svg">
<path d="M11.1009 12.25C11.1009 11.6284 11.341 11.0323 11.7682 10.5927C12.1955 10.1532 12.775 9.90625 13.3792 9.90625C13.9835 9.90625 14.563 10.1532 14.9902 10.5927C15.4175 11.0323 15.6575 11.6284 15.6575 12.25C15.6575 12.8716 15.4175 13.4677 14.9902 13.9073C14.563 14.3468 13.9835 14.5938 13.3792 14.5938C12.775 14.5938 12.1955 14.3468 11.7682 13.9073C11.341 13.4677 11.1009 12.8716 11.1009 12.25ZM17.0245 12.25C17.0245 11.2554 16.6405 10.3016 15.9568 9.59835C15.2732 8.89509 14.346 8.5 13.3792 8.5C12.4125 8.5 11.4853 8.89509 10.8016 9.59835C10.118 10.3016 9.73396 11.2554 9.73396 12.25C9.73396 13.2446 10.118 14.1984 10.8016 14.9017C11.4853 15.6049 12.4125 16 13.3792 16C14.346 16 15.2732 15.6049 15.9568 14.9017C16.6405 14.1984 17.0245 13.2446 17.0245 12.25ZM14.6807 18.8125C16.5518 18.8125 18.101 20.2393 18.3545 22.0938H8.404C8.65746 20.2393 10.2067 18.8125 12.0778 18.8125H14.6807ZM12.0778 17.4062C9.27261 17.4062 7 19.7441 7 22.6299C7 23.1104 7.37877 23.5 7.84582 23.5H18.9127C19.3797 23.5 19.7585 23.1104 19.7585 22.6299C19.7585 19.7441 17.4859 17.4062 14.6807 17.4062H13.3792H12.0778ZM24.7992 13.6855C25.0669 13.4102 25.0669 12.9648 24.7992 12.6924C24.5315 12.4199 24.0986 12.417 23.8338 12.6924L20.6727 15.9443L19.3342 14.5674C19.0665 14.292 18.6336 14.292 18.3687 14.5674C18.1039 14.8428 18.101 15.2881 18.3687 15.5605L20.1914 17.4355C20.4591 17.7109 20.8919 17.7109 21.1568 17.4355L24.7992 13.6855Z" fill="currentColor"/>
</svg>
