<svg viewBox="0 0 70 70" fill="none" xmlns="http://www.w3.org/2000/svg">
<rect width="70" height="70" rx="35" fill="white"/>
<path d="M20.0703 44.8975C20.3516 42.6758 21.4391 40.7178 23.0141 39.3506C24.4672 38.0957 26.3281 37.3438 28.3578 37.3438H30.5H32.6422C34.6719 37.3438 36.5328 38.0957 37.9813 39.3506C39.5562 40.7178 40.6437 42.6758 40.925 44.8975C40.9719 45.2734 40.9953 45.6592 40.9953 46.0498C40.9953 46.8506 40.3719 47.5 39.6031 47.5H38.6891H22.3109H21.3922C20.6234 47.5 20 46.8506 20 46.0498C20 45.6592 20.0234 45.2734 20.0703 44.8975ZM24.5 28.75C24.5 27.0924 25.1321 25.5027 26.2574 24.3306C27.3826 23.1585 28.9087 22.5 30.5 22.5C32.0913 22.5 33.6174 23.1585 34.7426 24.3306C35.8679 25.5027 36.5 27.0924 36.5 28.75C36.5 30.4076 35.8679 31.9973 34.7426 33.1694C33.6174 34.3415 32.0913 35 30.5 35C28.9087 35 27.3826 34.3415 26.2574 33.1694C25.1321 31.9973 24.5 30.4076 24.5 28.75ZM34.25 28.75C34.25 27.714 33.8549 26.7204 33.1517 25.9879C32.4484 25.2553 31.4946 24.8438 30.5 24.8438C29.5054 24.8438 28.5516 25.2553 27.8484 25.9879C27.1451 26.7204 26.75 27.714 26.75 28.75C26.75 29.786 27.1451 30.7796 27.8484 31.5121C28.5516 32.2447 29.5054 32.6563 30.5 32.6563C31.4946 32.6563 32.4484 32.2447 33.1517 31.5121C33.8549 30.7796 34.25 29.786 34.25 28.75ZM28.3578 39.6875C26.1172 39.6875 24.1625 40.9424 23.0984 42.8125C22.6953 43.5156 22.4234 44.3115 22.3109 45.1562H24.5938H36.4062H38.6938C38.675 45.0244 38.6562 44.8975 38.6281 44.7656C38.4922 44.0674 38.2437 43.4082 37.9016 42.8125C36.8375 40.9424 34.8828 39.6875 32.6422 39.6875H28.3578ZM48.5609 47.5H42.1438C42.3734 47.0703 42.5 46.5771 42.5 46.0498C42.5 42.876 41.1172 40.0342 38.9422 38.1494C39.1437 38.1299 39.35 38.125 39.5609 38.125H42.4391C46.6156 38.125 50 41.6504 50 46.001C50 46.8311 49.3531 47.5 48.5609 47.5ZM40.25 35C38.7969 35 37.4844 34.3848 36.5328 33.3936C37.4563 32.0947 38 30.4883 38 28.75C38 27.4414 37.6906 26.2061 37.1422 25.1221C38.0141 24.458 39.0875 24.0625 40.25 24.0625C43.1516 24.0625 45.5 26.5088 45.5 29.5313C45.5 32.5537 43.1516 35 40.25 35Z" fill="currentcolor"/>
<rect x="0.5" y="0.5" width="69" height="69" rx="34.5" stroke="#74B0EA" stroke-opacity="0.25"/>
</svg>
