<svg viewBox="0 0 32 32" fill="none" xmlns="http://www.w3.org/2000/svg">
<path d="M16.0011 18C16.6449 18.005 17.2757 17.8186 17.8135 17.4645C18.3512 17.1104 18.7717 16.6045 19.0215 16.0111C19.2713 15.4177 19.3392 14.7635 19.2167 14.1314C19.0941 13.4993 18.7866 12.9179 18.3331 12.4609C17.8796 12.0039 17.3005 11.6918 16.6694 11.5644C16.0383 11.437 15.3835 11.4998 14.7882 11.7451C14.1929 11.9903 13.6838 12.4068 13.3256 12.9418C12.9674 13.4768 12.7761 14.1062 12.7761 14.75C12.7731 15.1755 12.8542 15.5975 13.0149 15.9915C13.1756 16.3856 13.4127 16.7439 13.7124 17.046C14.0121 17.3481 14.3687 17.5879 14.7615 17.7516C15.1543 17.9153 15.5756 17.9997 16.0011 18ZM16.0011 13C16.3472 13 16.6856 13.1026 16.9734 13.2949C17.2611 13.4872 17.4854 13.7605 17.6179 14.0803C17.7503 14.4001 17.785 14.7519 17.7175 15.0914C17.65 15.4309 17.4833 15.7427 17.2385 15.9874C16.9938 16.2322 16.682 16.3989 16.3425 16.4664C16.003 16.5339 15.6512 16.4992 15.3314 16.3668C15.0116 16.2343 14.7383 16.01 14.546 15.7222C14.3537 15.4345 14.2511 15.0961 14.2511 14.75C14.2514 14.286 14.4358 13.841 14.764 13.5129C15.0921 13.1847 15.5371 13.0003 16.0011 13ZM22.0011 13C22.4956 13 22.9789 12.8534 23.39 12.5787C23.8012 12.304 24.1216 11.9135 24.3108 11.4567C24.5 10.9999 24.5495 10.4972 24.4531 10.0123C24.3566 9.52732 24.1185 9.08187 23.7689 8.73223C23.4192 8.3826 22.9738 8.1445 22.4888 8.04804C22.0039 7.95157 21.5012 8.00108 21.0444 8.1903C20.5876 8.37952 20.1971 8.69995 19.9224 9.11108C19.6477 9.5222 19.5011 10.0055 19.5011 10.5C19.5011 11.163 19.7645 11.7989 20.2333 12.2678C20.7022 12.7366 21.3381 13 22.0011 13ZM17.5601 19H14.4421C13.3011 18.9647 12.1926 19.3835 11.36 20.1645C10.5274 20.9456 10.0387 22.025 10.0011 23.166C10.0082 23.3942 10.1056 23.6103 10.2719 23.7667C10.4382 23.9231 10.6599 24.007 10.8881 24H21.1141C21.3423 24.007 21.564 23.9231 21.7303 23.7667C21.8966 23.6103 21.9941 23.3942 22.0011 23.166C21.9635 22.025 21.4748 20.9456 20.6422 20.1645C19.8096 19.3835 18.7012 18.9647 17.5601 19ZM11.5671 22.5C11.7628 21.9042 12.1458 21.3876 12.659 21.0272C13.1723 20.6667 13.7882 20.4818 14.4151 20.5H17.5611C18.1879 20.482 18.8038 20.667 19.317 21.0274C19.8302 21.3877 20.2133 21.9043 20.4091 22.5H11.5671ZM23.2481 14H21.3151C20.9269 14.0014 20.5439 14.0896 20.1941 14.258C20.2202 14.4209 20.2369 14.5852 20.2441 14.75C20.2403 15.7612 19.8729 16.7372 19.2091 17.5H25.4501C25.6005 17.4953 25.7429 17.4312 25.8462 17.3218C25.9494 17.2123 26.0051 17.0664 26.0011 16.916C26.0221 16.1644 25.744 15.4352 25.2278 14.8885C24.7117 14.3418 23.9997 14.0222 23.2481 14ZM11.7481 14.75C11.7547 14.5825 11.7714 14.4155 11.7981 14.25C11.4545 14.073 11.0714 13.9869 10.6851 14H8.75411C8.00256 14.0222 7.29054 14.3418 6.77438 14.8885C6.25823 15.4352 5.98011 16.1644 6.00111 16.916C5.99707 17.0664 6.05277 17.2123 6.15604 17.3218C6.2593 17.4312 6.40171 17.4953 6.55211 17.5H12.7861C12.1209 16.7379 11.7524 15.7616 11.7481 14.75ZM10.0011 13C10.4956 13 10.9789 12.8534 11.39 12.5787C11.8012 12.304 12.1216 11.9135 12.3108 11.4567C12.5 10.9999 12.5495 10.4972 12.4531 10.0123C12.3566 9.52732 12.1185 9.08187 11.7689 8.73223C11.4192 8.3826 10.9738 8.1445 10.4888 8.04804C10.0039 7.95157 9.50121 8.00108 9.0444 8.1903C8.58758 8.37952 8.19714 8.69995 7.92243 9.11108C7.64773 9.5222 7.50111 10.0055 7.50111 10.5C7.50111 11.163 7.7645 11.7989 8.23334 12.2678C8.70218 12.7366 9.33807 13 10.0011 13Z" fill="currentColor"/>
</svg>
