<svg viewBox="0 0 32 32" fill="none" xmlns="http://www.w3.org/2000/svg">
<path d="M9 11.5C8.725 11.5 8.5 11.725 8.5 12V20C8.5 20.275 8.725 20.5 9 20.5H17C17.275 20.5 17.5 20.275 17.5 20V12C17.5 11.725 17.275 11.5 17 11.5H9ZM7 12C7 10.8969 7.89688 10 9 10H17C18.1031 10 19 10.8969 19 12V13.0312V18.9688V20C19 21.1031 18.1031 22 17 22H9C7.89688 22 7 21.1031 7 20V12ZM23.5 19.3562V12.6438L20 14.2188V12.575L23.2594 11.1094C23.4187 11.0375 23.5906 11 23.7656 11C24.4469 11 25 11.5531 25 12.2344V19.7656C25 20.4469 24.4469 21 23.7656 21C23.5906 21 23.4187 20.9625 23.2594 20.8906L20 19.425V17.7812L23.5 19.3562Z" fill="currentColor"/>
</svg>
