<svg viewBox="0 0 40 40" fill="none" xmlns="http://www.w3.org/2000/svg">
<path d="M16.8206 12V13.4286H21.3677V12C21.3677 11.8429 21.2398 11.7143 21.0835 11.7143H17.1048C16.9485 11.7143 16.8206 11.8429 16.8206 12ZM15.1155 13.4286V12C15.1155 10.8964 16.0071 10 17.1048 10H21.0835C22.1812 10 23.0728 10.8964 23.0728 12V13.4286H25.9147C27.1687 13.4286 28.1883 14.4536 28.1883 15.7143V18.05C27.6519 17.8036 27.0799 17.625 26.4831 17.5214V15.7107C26.4831 15.3964 26.2274 15.1393 25.9147 15.1393H12.2735C11.9609 15.1393 11.7052 15.3964 11.7052 15.7107V19.1393H20.8348C19.8295 20.0321 19.087 21.2214 18.7389 22.5679H17.9574C17.3286 22.5679 16.8206 22.0571 16.8206 21.425V20.8536H11.7052V24.8536C11.7052 25.1679 11.9609 25.425 12.2735 25.425H18.6217C18.7211 26.025 18.8988 26.6 19.1474 27.1393L12.2735 27.1429C11.0195 27.1429 10 26.1179 10 24.8571V15.7143C10 14.4536 11.0195 13.4286 12.2735 13.4286H15.1155Z" fill="currentColor"/>
<path d="M24.8845 19.7143C27.7087 19.7143 30 22.0179 30 24.8571C30 27.6964 27.7087 30 24.8845 30C22.0604 30 19.7691 27.6964 19.7691 24.8571C19.7691 22.0179 22.0604 19.7143 24.8845 19.7143ZM25.4529 22.5714C25.4529 22.2571 25.1972 22 24.8845 22C24.5719 22 24.3162 22.2571 24.3162 22.5714V24.2857H22.611C22.2984 24.2857 22.0426 24.5429 22.0426 24.8571C22.0426 25.1714 22.2984 25.4286 22.611 25.4286H24.3162V27.1429C24.3162 27.4571 24.5719 27.7143 24.8845 27.7143C25.1972 27.7143 25.4529 27.4571 25.4529 27.1429V25.4286H27.1581C27.4707 25.4286 27.7265 25.1714 27.7265 24.8571C27.7265 24.5429 27.4707 24.2857 27.1581 24.2857H25.4529V22.5714Z" fill="currentColor"/>
</svg>
