<svg viewBox="0 0 40 40" fill="currentColor" xmlns="http://www.w3.org/2000/svg">
<path d="M24 14H22.75H22.45C22.2188 12.8594 21.2094 12 20 12C18.7906 12 17.7812 12.8594 17.55 14H17.25H16C14.8969 14 14 14.8969 14 16V26C14 27.1031 14.8969 28 16 28H24C25.1031 28 26 27.1031 26 26V16C26 14.8969 25.1031 14 24 14ZM16.5 15.5V16.25C16.5 16.6656 16.8344 17 17.25 17H20H22.75C23.1656 17 23.5 16.6656 23.5 16.25V15.5H24C24.275 15.5 24.5 15.725 24.5 16V26C24.5 26.275 24.275 26.5 24 26.5H16C15.725 26.5 15.5 26.275 15.5 26V16C15.5 15.725 15.725 15.5 16 15.5H16.5ZM19.25 14.5C19.25 14.3011 19.329 14.1103 19.4697 13.9697C19.6103 13.829 19.8011 13.75 20 13.75C20.1989 13.75 20.3897 13.829 20.5303 13.9697C20.671 14.1103 20.75 14.3011 20.75 14.5C20.75 14.6989 20.671 14.8897 20.5303 15.0303C20.3897 15.171 20.1989 15.25 20 15.25C19.8011 15.25 19.6103 15.171 19.4697 15.0303C19.329 14.8897 19.25 14.6989 19.25 14.5ZM23.0312 20.3625C23.325 20.0688 23.325 19.5938 23.0312 19.3031C22.7375 19.0125 22.2625 19.0094 21.9719 19.3031L19.1687 22.1062L18.0312 20.9688C17.7375 20.675 17.2625 20.675 16.9719 20.9688C16.6812 21.2625 16.6781 21.7375 16.9719 22.0281L18.6375 23.6938C18.7781 23.8344 18.9688 23.9125 19.1687 23.9125C19.3687 23.9125 19.5594 23.8344 19.7 23.6938L23.0312 20.3625Z" fill="black"/>
</svg>
