<svg viewBox="0 0 12 16" fill="none" xmlns="http://www.w3.org/2000/svg">
<g clip-path="url(#clip0_53113_15668)">
<path d="M10 2H8.75H8.45C8.21875 0.859375 7.20937 0 6 0C4.79063 0 3.78125 0.859375 3.55 2H3.25H2C0.896875 2 0 2.89687 0 4V14C0 15.1031 0.896875 16 2 16H10C11.1031 16 12 15.1031 12 14V4C12 2.89687 11.1031 2 10 2ZM2.5 3.5V4.25C2.5 4.66563 2.83437 5 3.25 5H6H8.75C9.16562 5 9.5 4.66563 9.5 4.25V3.5H10C10.275 3.5 10.5 3.725 10.5 4V14C10.5 14.275 10.275 14.5 10 14.5H2C1.725 14.5 1.5 14.275 1.5 14V4C1.5 3.725 1.725 3.5 2 3.5H2.5ZM5.25 2.5C5.25 2.30109 5.32902 2.11032 5.46967 1.96967C5.61032 1.82902 5.80109 1.75 6 1.75C6.19891 1.75 6.38968 1.82902 6.53033 1.96967C6.67098 2.11032 6.75 2.30109 6.75 2.5C6.75 2.69891 6.67098 2.88968 6.53033 3.03033C6.38968 3.17098 6.19891 3.25 6 3.25C5.80109 3.25 5.61032 3.17098 5.46967 3.03033C5.32902 2.88968 5.25 2.69891 5.25 2.5Z" fill="currentColor"/>
<path d="M8.38988 7.14121C8.53671 6.99438 8.53671 6.75695 8.38988 6.61168C8.24305 6.46642 8.00562 6.46485 7.86036 6.61168L6.00156 8.47048L4.14121 6.61012C3.99438 6.46329 3.75695 6.46329 3.61168 6.61012C3.46642 6.75695 3.46485 6.99438 3.61168 7.13964L5.47048 8.99844L3.61012 10.8588C3.46329 11.0056 3.46329 11.243 3.61012 11.3883C3.75695 11.5336 3.99438 11.5351 4.13964 11.3883L5.99844 9.52952L7.85879 11.3899C8.00562 11.5367 8.24305 11.5367 8.38832 11.3899C8.53358 11.243 8.53515 11.0056 8.38832 10.8604L6.52952 9.00156L8.38988 7.14121Z" fill="currentColor"/>
<path fill-rule="evenodd" clip-rule="evenodd" d="M8.74154 6.25625C9.0872 6.59824 9.08447 7.15372 8.74343 7.49476L7.23663 9.00156L8.73997 10.5049L8.74103 10.506C9.08802 10.8504 9.07798 11.4037 8.74375 11.7415C8.40176 12.0872 7.84628 12.0845 7.50524 11.7434L5.99844 10.2366L4.49508 11.74L4.49399 11.7411C4.14955 12.088 3.59627 12.078 3.25846 11.7438C2.91279 11.4018 2.91553 10.8463 3.25657 10.5052L4.76337 8.99844L3.25888 7.49395C2.91198 7.14951 2.92204 6.59626 3.25624 6.25846C3.59824 5.91279 4.15372 5.91553 4.49476 6.25657L6.00156 7.76337L7.50492 6.26003L7.506 6.25894C7.85043 5.91198 8.40372 5.92203 8.74154 6.25625ZM7.86036 6.61168C8.00562 6.46485 8.24305 6.46642 8.38988 6.61168C8.53671 6.75695 8.53671 6.99438 8.38988 7.14121L6.52952 9.00156L8.38832 10.8604C8.53515 11.0056 8.53358 11.243 8.38832 11.3899C8.24305 11.5367 8.00562 11.5367 7.85879 11.3899L5.99844 9.52952L4.13964 11.3883C3.99438 11.5351 3.75695 11.5336 3.61012 11.3883C3.46329 11.243 3.46329 11.0056 3.61012 10.8588L5.47048 8.99844L3.61168 7.13964C3.46485 6.99438 3.46642 6.75695 3.61168 6.61012C3.75695 6.46329 3.99438 6.46329 4.14121 6.61012L6.00156 8.47048L7.86036 6.61168Z" fill="currentColor"/>
</g>
</svg>
