<svg viewBox="0 0 40 40" fill="none" xmlns="http://www.w3.org/2000/svg">
<g clip-path="url(#clip0_53058_49392)">
<path d="M24 14H22.75H22.45C22.2188 12.8594 21.2094 12 20 12C18.7906 12 17.7812 12.8594 17.55 14H17.25H16C14.8969 14 14 14.8969 14 16V26C14 27.1031 14.8969 28 16 28H24C25.1031 28 26 27.1031 26 26V16C26 14.8969 25.1031 14 24 14ZM16.5 15.5V16.25C16.5 16.6656 16.8344 17 17.25 17H20H22.75C23.1656 17 23.5 16.6656 23.5 16.25V15.5H24C24.275 15.5 24.5 15.725 24.5 16V26C24.5 26.275 24.275 26.5 24 26.5H16C15.725 26.5 15.5 26.275 15.5 26V16C15.5 15.725 15.725 15.5 16 15.5H16.5ZM19.25 14.5C19.25 14.3011 19.329 14.1103 19.4697 13.9697C19.6103 13.829 19.8011 13.75 20 13.75C20.1989 13.75 20.3897 13.829 20.5303 13.9697C20.671 14.1103 20.75 14.3011 20.75 14.5C20.75 14.6989 20.671 14.8897 20.5303 15.0303C20.3897 15.171 20.1989 15.25 20 15.25C19.8011 15.25 19.6103 15.171 19.4697 15.0303C19.329 14.8897 19.25 14.6989 19.25 14.5Z" fill="black"/>
<path d="M22.3899 19.1412C22.5367 18.9944 22.5367 18.757 22.3899 18.6117C22.243 18.4664 22.0056 18.4649 21.8604 18.6117L20.0016 20.4705L18.1412 18.6101C17.9944 18.4633 17.757 18.4633 17.6117 18.6101C17.4664 18.757 17.4649 18.9944 17.6117 19.1396L19.4705 20.9984L17.6101 22.8588C17.4633 23.0056 17.4633 23.243 17.6101 23.3883C17.757 23.5336 17.9944 23.5351 18.1396 23.3883L19.9984 21.5295L21.8588 23.3899C22.0056 23.5367 22.243 23.5367 22.3883 23.3899C22.5336 23.243 22.5351 23.0056 22.3883 22.8604L20.5295 21.0016L22.3899 19.1412Z" fill="black"/>
<path fill-rule="evenodd" clip-rule="evenodd" d="M22.7415 18.2562C23.0872 18.5982 23.0845 19.1537 22.7434 19.4948L21.2366 21.0016L22.74 22.5049L22.741 22.506C23.088 22.8504 23.078 23.4037 22.7438 23.7415C22.4018 24.0872 21.8463 24.0845 21.5052 23.7434L19.9984 22.2366L18.4951 23.74L18.494 23.7411C18.1496 24.088 17.5963 24.078 17.2585 23.7438C16.9128 23.4018 16.9155 22.8463 17.2566 22.5052L18.7634 20.9984L17.2589 19.4939C16.912 19.1495 16.922 18.5963 17.2562 18.2585C17.5982 17.9128 18.1537 17.9155 18.4948 18.2566L20.0016 19.7634L21.5049 18.26L21.506 18.2589C21.8504 17.912 22.4037 17.922 22.7415 18.2562ZM21.8604 18.6117C22.0056 18.4649 22.243 18.4664 22.3899 18.6117C22.5367 18.757 22.5367 18.9944 22.3899 19.1412L20.5295 21.0016L22.3883 22.8604C22.5351 23.0056 22.5336 23.243 22.3883 23.3899C22.243 23.5367 22.0056 23.5367 21.8588 23.3899L19.9984 21.5295L18.1396 23.3883C17.9944 23.5351 17.757 23.5336 17.6101 23.3883C17.4633 23.243 17.4633 23.0056 17.6101 22.8588L19.4705 20.9984L17.6117 19.1396C17.4649 18.9944 17.4664 18.757 17.6117 18.6101C17.757 18.4633 17.9944 18.4633 18.1412 18.6101L20.0016 20.4705L21.8604 18.6117Z" fill="black"/>
</g>
<defs>
<clipPath id="clip0_53058_49392">
<rect width="12" height="16" fill="white" transform="translate(14 12)"/>
</clipPath>
</defs>
</svg>
