<svg viewBox="0 0 12 16" fill="none" xmlns="http://www.w3.org/2000/svg">
<path d="M10 2H8.75H8.45C8.21875 0.859375 7.20937 0 6 0C4.79063 0 3.78125 0.859375 3.55 2H3.25H2C0.896875 2 0 2.89687 0 4V14C0 15.1031 0.896875 16 2 16H10C11.1031 16 12 15.1031 12 14V4C12 2.89687 11.1031 2 10 2ZM2.5 3.5V4.25C2.5 4.66563 2.83437 5 3.25 5H6H8.75C9.16562 5 9.5 4.66563 9.5 4.25V3.5H10C10.275 3.5 10.5 3.725 10.5 4V14C10.5 14.275 10.275 14.5 10 14.5H2C1.725 14.5 1.5 14.275 1.5 14V4C1.5 3.725 1.725 3.5 2 3.5H2.5ZM5.25 2.5C5.25 2.30109 5.32902 2.11032 5.46967 1.96967C5.61032 1.82902 5.80109 1.75 6 1.75C6.19891 1.75 6.38968 1.82902 6.53033 1.96967C6.67098 2.11032 6.75 2.30109 6.75 2.5C6.75 2.69891 6.67098 2.88968 6.53033 3.03033C6.38968 3.17098 6.19891 3.25 6 3.25C5.80109 3.25 5.61032 3.17098 5.46967 3.03033C5.32902 2.88968 5.25 2.69891 5.25 2.5ZM9.03125 8.3625C9.325 8.06875 9.325 7.59375 9.03125 7.30312C8.7375 7.0125 8.2625 7.00938 7.97188 7.30312L5.16875 10.1062L4.03125 8.96875C3.7375 8.675 3.2625 8.675 2.97187 8.96875C2.68125 9.2625 2.67812 9.7375 2.97187 10.0281L4.6375 11.6938C4.77812 11.8344 4.96875 11.9125 5.16875 11.9125C5.36875 11.9125 5.55937 11.8344 5.7 11.6938L9.03125 8.3625Z" fill="currentColor"/>
</svg>
