<svg viewBox="0 0 40 40" fill="none" xmlns="http://www.w3.org/2000/svg">
<path d="M20 24.4706C20 21.6939 22.2396 19.4412 25 19.4412C27.7604 19.4412 30 21.6939 30 24.4706C30 27.2472 27.7604 29.5 25 29.5C22.2396 29.5 20 27.2472 20 24.4706ZM27.7778 24.4706C27.7778 24.1632 27.5278 23.9118 27.2222 23.9118H22.7778C22.4722 23.9118 22.2222 24.1632 22.2222 24.4706C22.2222 24.7779 22.4722 25.0294 22.7778 25.0294H27.2222C27.5278 25.0294 27.7778 24.7779 27.7778 24.4706Z" fill="currentColor"/>
<path d="M16.6667 12.4559V13.8529H21.1111V12.4559C21.1111 12.3022 20.9861 12.1765 20.8333 12.1765H16.9444C16.7917 12.1765 16.6667 12.3022 16.6667 12.4559ZM15 13.8529V12.4559C15 11.3767 15.8715 10.5 16.9444 10.5H20.8333C21.9063 10.5 22.7778 11.3767 22.7778 12.4559V13.8529H25.5556C26.7812 13.8529 27.7778 14.8553 27.7778 16.0882V18.3724C27.2535 18.1314 26.6944 17.9568 26.1111 17.8555V16.0847C26.1111 15.7774 25.8611 15.5259 25.5556 15.5259H12.2222C11.9167 15.5259 11.6667 15.7774 11.6667 16.0847V19.4377H20.5903C19.6076 20.3108 18.8819 21.4739 18.5417 22.7906H17.7778C17.1632 22.7906 16.6667 22.2912 16.6667 21.673V21.1142H11.6667V25.0259C11.6667 25.3333 11.9167 25.5847 12.2222 25.5847H18.4271C18.5243 26.1715 18.6979 26.7338 18.941 27.2612L12.2222 27.2647C10.9965 27.2647 10 26.2623 10 25.0294V16.0882C10 14.8553 10.9965 13.8529 12.2222 13.8529H15Z" fill="currentColor"/>
</svg>
