<svg viewBox="0 0 71 70" fill="none" xmlns="http://www.w3.org/2000/svg">
<path d="M48.0714 33.8571H22.9286V36.1429H48.0714V33.8571ZM51.5 36.1429C51.5 38.0357 49.9643 39.5714 48.0714 39.5714H22.9286C21.0357 39.5714 19.5 38.0357 19.5 36.1429V33.8571C19.5 31.9643 21.0357 30.4286 22.9286 30.4286H48.0714C49.9643 30.4286 51.5 31.9643 51.5 33.8571V36.1429ZM34.3571 45.2857H22.9286V47.5714H34.3571V45.2857ZM37.7857 47.5714C37.7857 49.4643 36.25 51 34.3571 51H22.9286C21.0357 51 19.5 49.4643 19.5 47.5714V45.2857C19.5 43.3929 21.0357 41.8571 22.9286 41.8571H34.3571C36.25 41.8571 37.7857 43.3929 37.7857 45.2857V47.5714ZM43.5 24.7143V22.4286H22.9286V24.7143H43.5ZM43.5 28.1429H22.9286C21.0357 28.1429 19.5 26.6071 19.5 24.7143V22.4286C19.5 20.5357 21.0357 19 22.9286 19H43.5C45.3929 19 46.9286 20.5357 46.9286 22.4286V24.7143C46.9286 26.6071 45.3929 28.1429 43.5 28.1429Z" fill="currentColor"/>
</svg>
