<svg viewBox="0 0 33 32" fill="none" xmlns="http://www.w3.org/2000/svg">
<path d="M29.0714 14.8571H3.92857V17.1429H29.0714V14.8571ZM32.5 17.1429C32.5 19.0357 30.9643 20.5714 29.0714 20.5714H3.92857C2.03571 20.5714 0.5 19.0357 0.5 17.1429V14.8571C0.5 12.9643 2.03571 11.4286 3.92857 11.4286H29.0714C30.9643 11.4286 32.5 12.9643 32.5 14.8571V17.1429ZM15.3571 26.2857H3.92857V28.5714H15.3571V26.2857ZM18.7857 28.5714C18.7857 30.4643 17.25 32 15.3571 32H3.92857C2.03571 32 0.5 30.4643 0.5 28.5714V26.2857C0.5 24.3929 2.03571 22.8571 3.92857 22.8571H15.3571C17.25 22.8571 18.7857 24.3929 18.7857 26.2857V28.5714ZM24.5 5.71429V3.42857H3.92857V5.71429H24.5ZM24.5 9.14286H3.92857C2.03571 9.14286 0.5 7.60714 0.5 5.71429V3.42857C0.5 1.53571 2.03571 0 3.92857 0H24.5C26.3929 0 27.9286 1.53571 27.9286 3.42857V5.71429C27.9286 7.60714 26.3929 9.14286 24.5 9.14286Z" fill="currentColor"/>
</svg>
