<svg viewBox="0 0 33 28" fill="none" xmlns="http://www.w3.org/2000/svg">
<path d="M4.5 2C4.5 0.89375 3.60625 0 2.5 0C1.39375 0 0.5 0.89375 0.5 2V23C0.5 25.7625 2.7375 28 5.5 28H30.5C31.6063 28 32.5 27.1063 32.5 26C32.5 24.8937 31.6063 24 30.5 24H5.5C4.95 24 4.5 23.55 4.5 23V2ZM12.5 10C13.0304 10 13.5391 9.78929 13.9142 9.41421C14.2893 9.03914 14.5 8.53043 14.5 8C14.5 7.46957 14.2893 6.96086 13.9142 6.58579C13.5391 6.21071 13.0304 6 12.5 6C11.9696 6 11.4609 6.21071 11.0858 6.58579C10.7107 6.96086 10.5 7.46957 10.5 8C10.5 8.53043 10.7107 9.03914 11.0858 9.41421C11.4609 9.78929 11.9696 10 12.5 10ZM20.5 14C20.5 13.4696 20.2893 12.9609 19.9142 12.5858C19.5391 12.2107 19.0304 12 18.5 12C17.9696 12 17.4609 12.2107 17.0858 12.5858C16.7107 12.9609 16.5 13.4696 16.5 14C16.5 14.5304 16.7107 15.0391 17.0858 15.4142C17.4609 15.7893 17.9696 16 18.5 16C19.0304 16 19.5391 15.7893 19.9142 15.4142C20.2893 15.0391 20.5 14.5304 20.5 14ZM24.5 20C25.0304 20 25.5391 19.7893 25.9142 19.4142C26.2893 19.0391 26.5 18.5304 26.5 18C26.5 17.4696 26.2893 16.9609 25.9142 16.5858C25.5391 16.2107 25.0304 16 24.5 16C23.9696 16 23.4609 16.2107 23.0858 16.5858C22.7107 16.9609 22.5 17.4696 22.5 18C22.5 18.5304 22.7107 19.0391 23.0858 19.4142C23.4609 19.7893 23.9696 20 24.5 20ZM28.5 6C28.5 5.46957 28.2893 4.96086 27.9142 4.58579C27.5391 4.21071 27.0304 4 26.5 4C25.9696 4 25.4609 4.21071 25.0858 4.58579C24.7107 4.96086 24.5 5.46957 24.5 6C24.5 6.53043 24.7107 7.03914 25.0858 7.41421C25.4609 7.78929 25.9696 8 26.5 8C27.0304 8 27.5391 7.78929 27.9142 7.41421C28.2893 7.03914 28.5 6.53043 28.5 6ZM10.5 20C11.0304 20 11.5391 19.7893 11.9142 19.4142C12.2893 19.0391 12.5 18.5304 12.5 18C12.5 17.4696 12.2893 16.9609 11.9142 16.5858C11.5391 16.2107 11.0304 16 10.5 16C9.96957 16 9.46086 16.2107 9.08579 16.5858C8.71071 16.9609 8.5 17.4696 8.5 18C8.5 18.5304 8.71071 19.0391 9.08579 19.4142C9.46086 19.7893 9.96957 20 10.5 20Z" fill="currentColor"/>
</svg>
