<svg viewBox="0 0 71 70" fill="none" xmlns="http://www.w3.org/2000/svg">
<path d="M23.5 23C23.5 21.8937 22.6063 21 21.5 21C20.3937 21 19.5 21.8937 19.5 23V44C19.5 46.7625 21.7375 49 24.5 49H49.5C50.6063 49 51.5 48.1063 51.5 47C51.5 45.8937 50.6063 45 49.5 45H24.5C23.95 45 23.5 44.55 23.5 44V23ZM31.5 31C32.0304 31 32.5391 30.7893 32.9142 30.4142C33.2893 30.0391 33.5 29.5304 33.5 29C33.5 28.4696 33.2893 27.9609 32.9142 27.5858C32.5391 27.2107 32.0304 27 31.5 27C30.9696 27 30.4609 27.2107 30.0858 27.5858C29.7107 27.9609 29.5 28.4696 29.5 29C29.5 29.5304 29.7107 30.0391 30.0858 30.4142C30.4609 30.7893 30.9696 31 31.5 31ZM39.5 35C39.5 34.4696 39.2893 33.9609 38.9142 33.5858C38.5391 33.2107 38.0304 33 37.5 33C36.9696 33 36.4609 33.2107 36.0858 33.5858C35.7107 33.9609 35.5 34.4696 35.5 35C35.5 35.5304 35.7107 36.0391 36.0858 36.4142C36.4609 36.7893 36.9696 37 37.5 37C38.0304 37 38.5391 36.7893 38.9142 36.4142C39.2893 36.0391 39.5 35.5304 39.5 35ZM43.5 41C44.0304 41 44.5391 40.7893 44.9142 40.4142C45.2893 40.0391 45.5 39.5304 45.5 39C45.5 38.4696 45.2893 37.9609 44.9142 37.5858C44.5391 37.2107 44.0304 37 43.5 37C42.9696 37 42.4609 37.2107 42.0858 37.5858C41.7107 37.9609 41.5 38.4696 41.5 39C41.5 39.5304 41.7107 40.0391 42.0858 40.4142C42.4609 40.7893 42.9696 41 43.5 41ZM47.5 27C47.5 26.4696 47.2893 25.9609 46.9142 25.5858C46.5391 25.2107 46.0304 25 45.5 25C44.9696 25 44.4609 25.2107 44.0858 25.5858C43.7107 25.9609 43.5 26.4696 43.5 27C43.5 27.5304 43.7107 28.0391 44.0858 28.4142C44.4609 28.7893 44.9696 29 45.5 29C46.0304 29 46.5391 28.7893 46.9142 28.4142C47.2893 28.0391 47.5 27.5304 47.5 27ZM29.5 41C30.0304 41 30.5391 40.7893 30.9142 40.4142C31.2893 40.0391 31.5 39.5304 31.5 39C31.5 38.4696 31.2893 37.9609 30.9142 37.5858C30.5391 37.2107 30.0304 37 29.5 37C28.9696 37 28.4609 37.2107 28.0858 37.5858C27.7107 37.9609 27.5 38.4696 27.5 39C27.5 39.5304 27.7107 40.0391 28.0858 40.4142C28.4609 40.7893 28.9696 41 29.5 41Z" fill="currentColor"/>
</svg>
