<svg viewBox="0 0 33 26" fill="none" xmlns="http://www.w3.org/2000/svg">
<path d="M14.7222 3.17857C15.2111 3.17857 15.6111 3.58036 15.6111 4.07143V9.42857C15.6111 9.91964 15.2111 10.3214 14.7222 10.3214H4.05556C3.56667 10.3214 3.16667 9.91964 3.16667 9.42857V4.07143C3.16667 3.58036 3.56667 3.17857 4.05556 3.17857H14.7222ZM4.05556 0.5C2.09444 0.5 0.5 2.10156 0.5 4.07143V9.42857C0.5 11.3984 2.09444 13 4.05556 13H14.7222C16.6833 13 18.2778 11.3984 18.2778 9.42857V4.07143C18.2778 2.10156 16.6833 0.5 14.7222 0.5H4.05556ZM28.9444 3.17857C29.4333 3.17857 29.8333 3.58036 29.8333 4.07143V16.5714C29.8333 17.0625 29.4333 17.4643 28.9444 17.4643H25.3889C24.9 17.4643 24.5 17.0625 24.5 16.5714V4.07143C24.5 3.58036 24.9 3.17857 25.3889 3.17857H28.9444ZM25.3889 0.5C23.4278 0.5 21.8333 2.10156 21.8333 4.07143V16.5714C21.8333 18.5413 23.4278 20.1429 25.3889 20.1429H28.9444C30.9056 20.1429 32.5 18.5413 32.5 16.5714V4.07143C32.5 2.10156 30.9056 0.5 28.9444 0.5H25.3889ZM7.61111 18.3571H15.6111C16.1 18.3571 16.5 18.7589 16.5 19.25V21.9286C16.5 22.4196 16.1 22.8214 15.6111 22.8214H7.61111C7.12222 22.8214 6.72222 22.4196 6.72222 21.9286V19.25C6.72222 18.7589 7.12222 18.3571 7.61111 18.3571ZM4.05556 19.25V21.9286C4.05556 23.8984 5.65 25.5 7.61111 25.5H15.6111C17.5722 25.5 19.1667 23.8984 19.1667 21.9286V19.25C19.1667 17.2801 17.5722 15.6786 15.6111 15.6786H7.61111C5.65 15.6786 4.05556 17.2801 4.05556 19.25Z" fill="currentColor"/>
</svg>
