<svg viewBox="0 0 71 70" fill="none" xmlns="http://www.w3.org/2000/svg">
<path d="M33.7222 25.1786C34.2111 25.1786 34.6111 25.5804 34.6111 26.0714V31.4286C34.6111 31.9196 34.2111 32.3214 33.7222 32.3214H23.0556C22.5667 32.3214 22.1667 31.9196 22.1667 31.4286V26.0714C22.1667 25.5804 22.5667 25.1786 23.0556 25.1786H33.7222ZM23.0556 22.5C21.0944 22.5 19.5 24.1016 19.5 26.0714V31.4286C19.5 33.3984 21.0944 35 23.0556 35H33.7222C35.6833 35 37.2778 33.3984 37.2778 31.4286V26.0714C37.2778 24.1016 35.6833 22.5 33.7222 22.5H23.0556ZM47.9444 25.1786C48.4333 25.1786 48.8333 25.5804 48.8333 26.0714V38.5714C48.8333 39.0625 48.4333 39.4643 47.9444 39.4643H44.3889C43.9 39.4643 43.5 39.0625 43.5 38.5714V26.0714C43.5 25.5804 43.9 25.1786 44.3889 25.1786H47.9444ZM44.3889 22.5C42.4278 22.5 40.8333 24.1016 40.8333 26.0714V38.5714C40.8333 40.5413 42.4278 42.1429 44.3889 42.1429H47.9444C49.9056 42.1429 51.5 40.5413 51.5 38.5714V26.0714C51.5 24.1016 49.9056 22.5 47.9444 22.5H44.3889ZM26.6111 40.3571H34.6111C35.1 40.3571 35.5 40.7589 35.5 41.25V43.9286C35.5 44.4196 35.1 44.8214 34.6111 44.8214H26.6111C26.1222 44.8214 25.7222 44.4196 25.7222 43.9286V41.25C25.7222 40.7589 26.1222 40.3571 26.6111 40.3571ZM23.0556 41.25V43.9286C23.0556 45.8984 24.65 47.5 26.6111 47.5H34.6111C36.5722 47.5 38.1667 45.8984 38.1667 43.9286V41.25C38.1667 39.2801 36.5722 37.6786 34.6111 37.6786H26.6111C24.65 37.6786 23.0556 39.2801 23.0556 41.25Z" fill="currentColor"/>
</svg>
