<svg viewBox="0 0 73 72" fill="currentColor" xmlns="http://www.w3.org/2000/svg">
<rect x="0.355652" width="72" height="72" rx="5" fill="#F5F5F6"/>
<path d="M27.0634 18.5312C27.5987 32.0275 30.7686 37.9652 33.0687 40.51C34.2145 41.7781 35.2349 42.3072 35.8371 42.534C36.0546 42.618 36.2302 42.66 36.3473 42.6936C36.4644 42.6684 36.64 42.618 36.8575 42.534C37.4597 42.3072 38.4801 41.7781 39.6259 40.51C41.926 37.9652 45.1043 32.0275 45.6312 18.5312H27.0634ZM26.9881 14.5H45.7232C47.9396 14.5 49.7462 16.3309 49.6626 18.548C49.6459 18.9932 49.6291 19.4383 49.604 19.875H58.4363C59.5487 19.875 60.4436 20.7736 60.4436 21.8906C60.4436 31.0029 56.6046 36.8146 51.9627 40.4176C47.4545 43.9197 42.2857 45.2551 39.4587 45.7674C39.0656 45.9773 38.6975 46.1453 38.363 46.2797V53.4688H45.0541C46.1665 53.4688 47.0614 54.3674 47.0614 55.4844C47.0614 56.6014 46.1665 57.5 45.0541 57.5H36.3557H27.6572C26.5448 57.5 25.6499 56.6014 25.6499 55.4844C25.6499 54.3674 26.5448 53.4688 27.6572 53.4688H34.3483V46.2797C34.0138 46.1453 33.6458 45.9773 33.2527 45.7674C30.4257 45.2635 25.2652 43.9197 20.7487 40.4176C16.1067 36.8146 12.2677 31.0029 12.2677 21.8906C12.2677 20.7736 13.1626 19.875 14.275 19.875H23.1073C23.0822 19.4383 23.0655 19.0016 23.0487 18.548C22.9651 16.3309 24.7717 14.5 26.9881 14.5ZM44.9537 39.9137C46.4676 39.2418 48.0316 38.3684 49.5037 37.2262C52.8994 34.5975 55.8519 30.4906 56.3537 23.9062H49.2946C48.5335 31.4732 46.8523 36.5291 44.9537 39.9137ZM23.2077 37.2262C24.6713 38.3684 26.2437 39.2418 27.7576 39.9137C25.859 36.5291 24.1779 31.4732 23.4167 23.9062H16.3576C16.8595 30.4906 19.8119 34.5975 23.2077 37.2262ZM36.9579 23.1084L38.1706 25.5691C38.271 25.7707 38.455 25.9051 38.6725 25.9387L41.3824 26.3334C41.9344 26.4174 42.1518 27.0893 41.7504 27.4756L39.7932 29.3904C39.6343 29.5416 39.5674 29.7684 39.6008 29.9867L40.0609 32.691C40.1529 33.2369 39.5841 33.6568 39.0907 33.3965L36.6651 32.1199C36.4728 32.0191 36.2386 32.0191 36.0462 32.1199L33.6207 33.3965C33.1272 33.6568 32.5585 33.2369 32.6505 32.691L33.1105 29.9867C33.1439 29.7684 33.077 29.55 32.9181 29.3904L30.961 27.4756C30.5679 27.0893 30.7853 26.409 31.329 26.3334L34.0389 25.9387C34.2563 25.9051 34.4487 25.7707 34.5407 25.5691L35.7535 23.1084C35.996 22.6129 36.7069 22.6129 36.9495 23.1084H36.9579Z" fill="#1B68B3"/>
</svg>
