<svg width="303" height="255" viewBox="0 0 303 255" fill="none" xmlns="http://www.w3.org/2000/svg">
<path d="M197.764 244.872L192.173 246.144L184.605 225.183L192.858 223.305L197.764 244.872Z" fill="#FFB6B6"/>
<path d="M199.289 250.66L182.094 254.572L182.045 254.355C181.641 252.58 181.959 250.717 182.928 249.176C183.898 247.636 185.44 246.543 187.214 246.139L189.813 243.042L196.215 244.091L197.716 243.75L199.289 250.66Z" fill="#2F2E41"/>
<path d="M287.961 142.699L291.035 147.54L273.827 161.701L269.29 154.556L287.961 142.699Z" fill="#FFB6B6"/>
<path d="M292.902 139.322L302.356 154.207L302.167 154.327C300.631 155.303 298.769 155.628 296.993 155.232C295.216 154.835 293.67 153.749 292.694 152.213L288.904 150.803L287.745 144.42L286.92 143.121L292.902 139.322Z" fill="#2F2E41"/>
<path d="M109.73 90.9467L108.349 82.9422L129.344 73.4616L133.878 65.434C133.732 64.7295 133.783 63.9983 134.026 63.3211C134.269 62.6439 134.695 62.0471 135.256 61.5965C135.817 61.146 136.491 60.8593 137.205 60.768C137.919 60.6768 138.644 60.7846 139.3 61.0795C139.956 61.3745 140.518 61.8451 140.924 62.4393C141.329 63.0336 141.563 63.7284 141.598 64.447C141.634 65.1656 141.47 65.8801 141.125 66.5114C140.78 67.1428 140.267 67.6665 139.643 68.0247L132.184 79.5561L109.73 90.9467Z" fill="#A0616A"/>
<path d="M103.348 84.4033L112.802 79.5736L115.305 88.9714L108.738 93.8395L103.348 84.4033Z" fill="#1B68B3"/>
<path d="M82.1317 244.144L87.8483 244.144L90.5679 222.093L82.1304 222.094L82.1317 244.144Z" fill="#A0616A"/>
<path d="M89.7507 244.659V240.783L88.2478 240.875L82.1299 241.237L80.714 241.324L79.6316 254.304L79.5736 255H83.6328L83.7633 254.309L84.3528 251.168L85.8751 254.309L86.2085 255H96.9703C97.6107 254.996 98.2236 254.739 98.676 254.286C99.1284 253.833 99.3837 253.219 99.3865 252.579C99.8407 250.458 90.8911 245.872 89.7507 244.659Z" fill="#2F2E41"/>
<path d="M14.2719 156.635L12.9392 162.194L33.7479 169.98L35.7145 161.775L14.2719 156.635Z" fill="#A0616A"/>
<path d="M12.4474 163.924L16.2162 164.828L16.4773 163.345L17.5513 157.311L17.7969 155.914L5.42716 151.835L4.76398 151.616L3.81753 155.564L4.45909 155.852L7.37612 157.157L3.96672 157.905L3.21698 158.068L0.707775 168.534C0.562402 169.157 0.668931 169.813 1.00425 170.359C1.33957 170.904 1.8766 171.296 2.49871 171.448C4.45575 172.384 11.002 164.75 12.4474 163.924Z" fill="#2F2E41"/>
<path d="M90.9709 101.435L83.6126 97.9951L68.9385 115.753L60.0003 118.014C59.3593 117.687 58.6404 117.544 57.9231 117.6C57.2058 117.656 56.518 117.91 55.9357 118.332C55.3533 118.755 54.8991 119.33 54.6232 119.994C54.3472 120.659 54.2603 121.387 54.3721 122.098C54.4838 122.808 54.7898 123.474 55.2563 124.022C55.7229 124.57 56.3317 124.978 57.0156 125.201C57.6995 125.425 58.4319 125.455 59.1318 125.288C59.8317 125.122 60.472 124.765 60.9818 124.257L74.0702 120.098L90.9709 101.435Z" fill="#A0616A"/>
<path d="M195.292 35.6962C193.733 35.6962 192.208 35.2336 190.911 34.3671C189.614 33.5005 188.603 32.2689 188.006 30.8278C187.41 29.3868 187.253 27.8012 187.558 26.2714C187.862 24.7416 188.613 23.3364 189.716 22.2335C190.819 21.1306 192.224 20.3795 193.754 20.0752C195.284 19.7709 196.869 19.9271 198.31 20.524C199.751 21.1209 200.983 22.1317 201.85 23.4285C202.716 24.7254 203.179 26.2501 203.179 27.8099C203.176 29.9007 202.345 31.9053 200.866 33.3837C199.388 34.8622 197.383 35.6938 195.292 35.6962ZM195.292 20.8287C193.912 20.8287 192.562 21.2381 191.414 22.0052C190.266 22.7723 189.371 23.8627 188.843 25.1383C188.314 26.414 188.176 27.8177 188.445 29.1719C188.715 30.5261 189.38 31.77 190.356 32.7464C191.332 33.7227 192.576 34.3876 193.93 34.657C195.285 34.9264 196.688 34.7881 197.964 34.2597C199.24 33.7313 200.33 32.8365 201.097 31.6885C201.864 30.5404 202.274 29.1907 202.274 27.8099C202.271 25.959 201.535 24.1845 200.227 22.8758C198.918 21.567 197.143 20.8308 195.292 20.8287Z" fill="#C1C5C8"/>
<path d="M194.736 30.7809C194.72 30.7809 194.704 30.7804 194.688 30.7796C194.548 30.7728 194.411 30.7359 194.287 30.6713C194.163 30.6066 194.054 30.5159 193.968 30.4052L192.725 28.8081C192.647 28.7072 192.589 28.592 192.555 28.4688C192.521 28.3456 192.512 28.217 192.528 28.0903C192.544 27.9635 192.584 27.8411 192.647 27.7301C192.711 27.619 192.795 27.5215 192.896 27.4431L192.94 27.4083C193.041 27.3298 193.157 27.2719 193.28 27.238C193.403 27.2041 193.532 27.1948 193.658 27.2107C193.785 27.2265 193.908 27.2672 194.019 27.3304C194.13 27.3936 194.227 27.478 194.306 27.5789C194.368 27.6595 194.448 27.7255 194.538 27.7726C194.629 27.8196 194.729 27.8466 194.831 27.8515C194.933 27.8565 195.035 27.8394 195.129 27.8014C195.224 27.7633 195.31 27.7053 195.38 27.6312L197.902 24.9683C198.08 24.7813 198.324 24.6723 198.582 24.6653C198.84 24.6583 199.09 24.7538 199.277 24.9309L199.319 24.9704C199.412 25.0582 199.486 25.1634 199.538 25.2801C199.59 25.3967 199.619 25.5225 199.622 25.6502C199.626 25.7779 199.604 25.905 199.558 26.0243C199.513 26.1436 199.444 26.2527 199.356 26.3454L195.442 30.4771C195.351 30.5731 195.241 30.6495 195.12 30.7017C194.999 30.754 194.868 30.7809 194.736 30.7809Z" fill="#C1C5C8"/>
<path d="M155.924 131.176C154.364 131.176 152.839 130.713 151.543 129.847C150.246 128.98 149.235 127.749 148.638 126.308C148.041 124.867 147.885 123.281 148.189 121.751C148.494 120.221 149.245 118.816 150.348 117.713C151.45 116.61 152.856 115.859 154.385 115.555C155.915 115.251 157.501 115.407 158.942 116.004C160.383 116.601 161.615 117.611 162.481 118.908C163.348 120.205 163.81 121.73 163.81 123.29C163.808 125.381 162.976 127.385 161.498 128.864C160.019 130.342 158.015 131.174 155.924 131.176ZM155.924 116.309C154.543 116.309 153.193 116.718 152.045 117.485C150.897 118.252 150.003 119.342 149.474 120.618C148.946 121.894 148.808 123.297 149.077 124.652C149.346 126.006 150.011 127.25 150.987 128.226C151.964 129.203 153.208 129.867 154.562 130.137C155.916 130.406 157.32 130.268 158.596 129.74C159.871 129.211 160.962 128.316 161.729 127.168C162.496 126.02 162.905 124.67 162.905 123.29C162.903 121.439 162.167 119.664 160.858 118.356C159.549 117.047 157.775 116.311 155.924 116.309Z" fill="#C1C5C8"/>
<path d="M155.367 126.261C155.352 126.261 155.336 126.26 155.32 126.259C155.18 126.253 155.043 126.216 154.919 126.151C154.794 126.086 154.685 125.996 154.599 125.885L153.357 124.288C153.278 124.187 153.221 124.072 153.187 123.949C153.153 123.825 153.144 123.697 153.159 123.57C153.175 123.443 153.216 123.321 153.279 123.21C153.342 123.099 153.427 123.001 153.527 122.923L153.572 122.888C153.673 122.81 153.788 122.752 153.911 122.718C154.035 122.684 154.163 122.675 154.29 122.69C154.417 122.706 154.539 122.747 154.65 122.81C154.761 122.873 154.859 122.958 154.937 123.059C155 123.139 155.079 123.205 155.17 123.252C155.261 123.299 155.36 123.326 155.462 123.331C155.564 123.336 155.666 123.319 155.761 123.281C155.856 123.243 155.941 123.185 156.012 123.111L158.534 120.448C158.711 120.261 158.956 120.152 159.214 120.145C159.472 120.138 159.722 120.234 159.909 120.411L159.95 120.45C160.043 120.538 160.118 120.643 160.17 120.76C160.222 120.877 160.25 121.002 160.254 121.13C160.257 121.258 160.236 121.385 160.19 121.504C160.144 121.623 160.075 121.732 159.988 121.825L156.073 125.957C155.982 126.053 155.873 126.129 155.752 126.182C155.63 126.234 155.499 126.261 155.367 126.261Z" fill="#C1C5C8"/>
<path d="M69.4944 24.8359C67.9346 24.8359 66.4099 24.3734 65.113 23.5068C63.8162 22.6403 62.8054 21.4086 62.2085 19.9676C61.6116 18.5266 61.4554 16.9409 61.7597 15.4111C62.064 13.8813 62.8151 12.4761 63.918 11.3732C65.0209 10.2703 66.4261 9.51922 67.9559 9.21493C69.4857 8.91063 71.0713 9.06681 72.5123 9.6637C73.9534 10.2606 75.185 11.2714 76.0516 12.5683C76.9181 13.8652 77.3807 15.3899 77.3807 16.9496C77.3783 19.0405 76.5467 21.045 75.0682 22.5235C73.5898 24.0019 71.5852 24.8336 69.4944 24.8359ZM69.4944 9.96842C68.1136 9.96842 66.7639 10.3779 65.6158 11.145C64.4678 11.9121 63.573 13.0024 63.0446 14.278C62.5162 15.5537 62.378 16.9574 62.6473 18.3116C62.9167 19.6658 63.5816 20.9098 64.5579 21.8861C65.5343 22.8625 66.7782 23.5274 68.1324 23.7967C69.4867 24.0661 70.8904 23.9278 72.166 23.3995C73.4417 22.8711 74.532 21.9763 75.2991 20.8282C76.0662 19.6801 76.4756 18.3304 76.4756 16.9496C76.4735 15.0987 75.7373 13.3243 74.4286 12.0155C73.1198 10.7067 71.3453 9.97052 69.4944 9.96842Z" fill="#C1C5C8"/>
<path d="M68.9378 19.9206C68.9219 19.9206 68.9061 19.9201 68.8902 19.9193C68.7502 19.9126 68.6133 19.8756 68.489 19.811C68.3646 19.7464 68.2556 19.6556 68.1696 19.5449L66.9273 17.9478C66.8489 17.847 66.791 17.7317 66.7571 17.6085C66.7233 17.4854 66.714 17.3568 66.7298 17.23C66.7456 17.1032 66.7863 16.9808 66.8494 16.8698C66.9125 16.7588 66.9969 16.6612 67.0978 16.5828L67.1425 16.548C67.2433 16.4695 67.3586 16.4117 67.4818 16.3778C67.605 16.3439 67.7337 16.3346 67.8605 16.3504C67.9872 16.3663 68.1097 16.4069 68.2207 16.4701C68.3318 16.5333 68.4293 16.6177 68.5077 16.7186C68.5705 16.7992 68.6499 16.8653 68.7405 16.9123C68.8311 16.9594 68.9309 16.9863 69.0329 16.9913C69.1349 16.9962 69.2367 16.9791 69.3315 16.9411C69.4263 16.9031 69.5117 16.845 69.582 16.771L72.1044 14.108C72.2819 13.921 72.5264 13.8121 72.7842 13.8051C73.042 13.7981 73.292 13.8936 73.4795 14.0707L73.5209 14.1101C73.6136 14.1979 73.6881 14.3032 73.7402 14.4198C73.7923 14.5365 73.8208 14.6622 73.8243 14.7899C73.8277 14.9176 73.806 15.0447 73.7603 15.164C73.7146 15.2833 73.6458 15.3924 73.558 15.4851L69.6436 19.6168C69.5528 19.7128 69.4434 19.7892 69.322 19.8415C69.2006 19.8937 69.0699 19.9207 68.9378 19.9206Z" fill="#C1C5C8"/>
<path d="M107.546 23.2922C109.657 23.2922 111.369 20.9973 111.369 18.1664C111.369 15.3355 109.657 13.0406 107.546 13.0406C105.435 13.0406 103.724 15.3355 103.724 18.1664C103.724 20.9973 105.435 23.2922 107.546 23.2922Z" fill="#C1C5C8"/>
<path d="M151.696 103.255C149.949 104.42 148.16 101.648 149.941 100.536C151.689 99.3715 153.477 102.143 151.696 103.255Z" fill="#C1C5C8"/>
<path d="M141.637 9.95525C144.386 9.95525 146.615 7.72669 146.615 4.97763C146.615 2.22856 144.386 0 141.637 0C138.888 0 136.66 2.22856 136.66 4.97763C136.66 7.72669 138.888 9.95525 141.637 9.95525Z" fill="#FF6584"/>
<path d="M130.457 133.035C133.132 133.035 135.3 130.867 135.3 128.192C135.3 125.518 133.132 123.35 130.457 123.35C127.783 123.35 125.614 125.518 125.614 128.192C125.614 130.867 127.783 133.035 130.457 133.035Z" fill="#F5F5F6"/>
<path d="M83.5524 130.04C83.5524 130.04 71.4791 137.901 74.6716 143.125C74.7817 143.306 60.2501 162.498 60.2501 162.498L32.8181 160.756L31.8516 169.938L56.2735 177.011C56.2735 177.011 62.2481 181.401 66.8636 176.564C71.4791 171.728 86.8529 156.918 86.8529 156.918L87.5945 186.819L79.8769 228.252L91.4001 227.521L102.616 185.954L106.756 138.868L83.5524 130.04Z" fill="#2F2E41"/>
<path d="M92.1522 82.8571L87.0752 86.7046L81.2884 99.0553L86.8529 106.613C86.8529 106.613 91.5336 114.725 84.0415 122.581C76.5493 130.436 70.7961 138.827 76.7929 138.527C82.7896 138.228 107.077 150.581 107.237 140.46C107.397 130.34 107.72 122.581 107.72 122.581L114.088 106.43C114.088 106.43 117.882 96.7953 115.218 93.9112C112.555 91.0272 108.988 87.3418 108.988 87.3418L102.503 80.8564H96.6469L92.1522 82.8571Z" fill="#1B68B3"/>
<path d="M101.63 59.1267C113.02 65.608 103.669 82.7089 92.0669 76.6194C80.6773 70.1383 90.0279 53.0374 101.63 59.1267Z" fill="#A0616A"/>
<path d="M107.72 62.7204C106.922 63.7584 105.255 63.2716 101.99 64.0123C101.997 62.9055 101.869 61.802 101.609 60.7262C101.366 62.0582 100.833 63.3207 100.049 64.4244C97.2138 64.7389 100.69 73.3523 99.2378 79.6852C97.3673 66.3249 93.4332 69.8252 95.4207 72.4752C96.693 74.1716 95.8448 79.2611 92.0277 76.7164C85.7297 79.7096 76.7593 64.841 86.7012 57.8678C86.5236 54.0986 90.7175 53.5032 93.3001 54.662C99.5676 49.9931 106.728 55.9756 107.72 62.7204Z" fill="#2F2E41"/>
<path d="M78.4962 52.9715C75.9604 68.5625 62.3687 50.1041 55.9779 65.4473C53.9686 71.0037 57.4161 74.9785 59.5968 79.5906C60.0945 83.3808 55.1637 85.3038 54.6472 88.7928C54.5034 96.7915 67.408 96.302 71.0155 91.2555C74.7223 85.9727 70.2959 78.885 72.5239 73.2146C75.6554 65.3421 88.3906 65.2836 89.5001 56.1246C87.3514 53.0648 81.5737 49.5604 78.4962 52.9715Z" fill="#2F2E41"/>
<path d="M88.7689 54.495C88.6859 54.5299 88.6029 54.5648 88.5287 54.6041H88.5244C88.4545 54.6391 88.3846 54.674 88.3148 54.7133C88.3061 54.7177 88.3017 54.722 88.293 54.7264C88.2013 54.6391 88.1096 54.5518 88.0135 54.4644C87.9887 54.6067 87.9946 54.7526 88.031 54.8923L88.0441 54.9447C88.1314 55.0364 88.2231 55.1237 88.3192 55.2154C88.4065 55.1499 88.4895 55.0801 88.5768 55.0146C88.6292 54.9709 88.6816 54.9272 88.7383 54.8836C88.747 54.7701 88.7602 54.6391 88.7732 54.495L88.7689 54.495ZM91.3973 49.6398C89.45 49.1944 88.8212 51.7399 88.6335 52.9668C87.9262 48.5133 84.9834 49.9149 86.0007 52.9537C86.325 53.8534 86.8353 54.6746 87.4983 55.3638C87.59 55.4686 87.6904 55.5734 87.7952 55.6782C87.6773 56.2895 88.2711 56.1323 89.0745 55.5691C89.6677 55.1472 90.2163 54.6659 90.7118 54.1326C92.3142 52.4516 93.563 50.203 91.3973 49.6398ZM91.4585 52.146C90.8577 52.9207 90.1836 53.6357 89.4456 54.2811C89.2142 54.4906 88.9785 54.6915 88.7383 54.8836C88.734 54.9229 88.7339 54.9578 88.7296 54.9884C88.7127 55.0308 88.6923 55.0717 88.6684 55.1106C88.4239 55.5516 88.1489 55.3115 88.0441 54.9447C88.0354 54.9316 88.0223 54.9185 88.0135 54.9054C87.6646 54.545 87.3611 54.1432 87.1097 53.7091C85.3065 50.5829 88.21 48.4565 88.0659 54.2941C88.0394 54.3477 88.0217 54.4052 88.0135 54.4644C87.9887 54.6067 87.9946 54.7526 88.031 54.8923L88.0441 54.9447C88.1314 55.0364 88.2231 55.1237 88.3192 55.2154C88.4065 55.1499 88.4895 55.0801 88.5768 55.0146C88.6292 54.9709 88.6816 54.9272 88.7383 54.8836C88.747 54.7701 88.7602 54.6391 88.7732 54.495V54.4906C88.8868 53.3205 89.1968 51.216 89.7688 50.644C91.0262 49.6791 92.6548 50.7226 91.4585 52.146ZM88.7689 54.495C88.6859 54.5299 88.6029 54.5648 88.5287 54.6041H88.5244C88.4545 54.6391 88.3846 54.674 88.3148 54.7133C88.3061 54.7177 88.3017 54.722 88.293 54.7264C88.2013 54.6391 88.1096 54.5518 88.0135 54.4644C87.9887 54.6067 87.9946 54.7526 88.031 54.8923L88.0441 54.9447C88.1314 55.0364 88.2231 55.1237 88.3192 55.2154C88.4065 55.1499 88.4895 55.0801 88.5768 55.0146C88.6292 54.9709 88.6816 54.9272 88.7383 54.8836C88.747 54.7701 88.7602 54.6391 88.7732 54.495L88.7689 54.495Z" fill="#2F2E41"/>
<path d="M194.042 140.454L189.836 151.424L170.103 190.349L187.442 235.631L196.391 233.268L189.015 190.349L210.176 164.638L235.307 181.682C235.307 181.682 246.452 190.383 250.692 182.135C254.932 173.886 282.368 156.342 282.368 156.342L275.58 149.101L243.987 163.887L222.18 133.194L194.042 140.454Z" fill="#2F2E41"/>
<path d="M215.268 88.7072L208.344 81.2675L196.465 79.6334L181.911 89.8225L182.057 101.1L189.252 127.676C189.252 127.676 186.512 146.769 194.166 146.578C201.821 146.386 205.993 142.57 209.111 143.347C212.229 144.124 225.482 147.43 226.322 143.967C227.162 140.504 231.626 142.983 231.43 139.707C231.234 136.431 219.344 112.816 219.344 112.816L222.3 89.1986L215.268 88.7072Z" fill="#1B68B3"/>
<path d="M259.113 54.4609C259.174 55.0779 259.1 55.701 258.896 56.2862C258.691 56.8715 258.36 57.4047 257.927 57.8483C257.493 58.2919 256.968 58.6352 256.388 58.8538C255.808 59.0725 255.187 59.1613 254.568 59.1139L238.644 89.3989L234.369 82.8359L250.645 54.2534C250.794 53.22 251.316 52.277 252.113 51.603C252.911 50.9289 253.927 50.5708 254.971 50.5964C256.015 50.6219 257.013 51.0295 257.776 51.7417C258.539 52.454 259.015 53.4215 259.113 54.4609Z" fill="#FFB6B6"/>
<path d="M208.981 94.3384C208.981 94.3384 208.35 99.7254 214.414 101.059C220.479 102.393 237.281 92.7921 240.035 91.3257C240.898 90.8665 242.068 88.6159 243.269 85.7407C243.808 84.4499 244.354 83.0332 244.88 81.5963C245.184 80.7648 246.643 80.5378 246.93 79.7132C247.215 78.893 246.33 77.4751 246.588 76.7021C247.815 73.0333 248.684 70.1226 248.684 70.1226L244.665 62.5722C239.043 65.5442 236.16 72.0906 234.039 79.6325L208.981 94.3384Z" fill="#1B68B3"/>
<path d="M138.154 61.4156C138.249 62.0285 138.476 62.6132 138.821 63.1286C139.166 63.6439 139.62 64.0774 140.15 64.3985C140.681 64.7196 141.275 64.9204 141.892 64.9869C142.508 65.0534 143.132 64.9839 143.718 64.7834L166.715 90.1195L169.212 82.6954L146.3 59.0958C145.898 58.1324 145.156 57.3501 144.216 56.897C143.275 56.444 142.201 56.3517 141.197 56.6376C140.193 56.9236 139.328 57.5679 138.768 58.4485C138.207 59.3292 137.989 60.3849 138.154 61.4156Z" fill="#FFB6B6"/>
<path d="M196.67 87.4784C196.67 87.4784 198.629 92.536 193.092 95.3449C187.554 98.1538 168.884 93.0635 165.85 92.3332C164.9 92.1045 163.204 90.2183 161.321 87.7352C160.476 86.6204 159.594 85.3852 158.725 84.1257C158.222 83.3969 156.753 83.5421 156.269 82.8155C155.787 82.093 156.29 80.4984 155.846 79.8147C153.74 76.5697 152.17 73.9692 152.17 73.9692L154.172 65.6531C160.359 67.1237 164.789 72.7402 168.729 79.5114L196.67 87.4784Z" fill="#1B68B3"/>
<path d="M202.641 77.7408C208.883 77.7408 213.943 72.6808 213.943 66.4389C213.943 60.197 208.883 55.1369 202.641 55.1369C196.399 55.1369 191.339 60.197 191.339 66.4389C191.339 72.6808 196.399 77.7408 202.641 77.7408Z" fill="#FFB6B6"/>
<path d="M215.543 59.9676C214.354 58.1284 212.123 56.9026 209.96 57.247C209.759 55.8668 209.183 54.5682 208.294 53.4928C207.406 52.4173 206.24 51.6061 204.923 51.1475C203.605 50.689 202.187 50.6006 200.823 50.892C199.459 51.1835 198.201 51.8436 197.186 52.8005C196.853 52.5655 196.464 52.4207 196.058 52.38C195.652 52.3394 195.242 52.4043 194.868 52.5685C194.124 52.9069 193.476 53.4267 192.985 54.0802C191.744 55.6279 190.946 57.4831 190.675 59.4483C190.405 61.4136 190.673 63.4154 191.45 65.2406C191.185 64.2797 192.148 63.3757 193.121 63.1601C194.094 62.9445 195.115 63.1484 196.102 63.008C197.366 62.8281 198.503 62.0945 199.769 61.9294C200.843 61.8596 201.921 61.998 202.942 62.3371C203.964 62.6762 205.039 62.8207 206.114 62.7631C207.18 62.6365 208.553 66.6763 208.535 69.5217C208.531 70.0609 208.642 70.7532 209.169 70.8676C209.818 71.0086 210.194 70.1129 210.812 69.8688C211.097 69.7872 211.402 69.8193 211.663 69.9584C211.925 70.0974 212.122 70.3325 212.214 70.6142C212.291 70.9005 212.3 71.2013 212.238 71.4915C212.176 71.7817 212.046 72.0529 211.858 72.2825C211.478 72.7379 211.027 73.1288 210.523 73.4404L210.778 73.652C211.019 73.9072 211.342 74.0704 211.69 74.1137C212.039 74.157 212.392 74.0777 212.688 73.8894C213.272 73.4944 213.744 72.9566 214.06 72.3272C215.252 70.4836 216.105 68.4414 216.577 66.2972C216.975 64.1438 216.731 61.8068 215.543 59.9676Z" fill="#2F2E41"/>
</svg>
