<svg width="73" height="72" viewBox="0 0 73 72" fill="none" xmlns="http://www.w3.org/2000/svg">
<rect x="0.015625" width="72" height="72" rx="5" fill="#F5F5F6"/>
<path fill-rule="evenodd" clip-rule="evenodd" d="M36.0156 57.5C47.8897 57.5 57.5156 47.8741 57.5156 36C57.5156 24.1259 47.8897 14.5 36.0156 14.5C24.1415 14.5 14.5156 24.1259 14.5156 36C14.5156 47.8741 24.1415 57.5 36.0156 57.5ZM22.1279 32.8983C21.9433 33.719 21.2456 34.3551 20.4044 34.3551C19.4263 34.3551 18.6534 33.5138 18.8449 32.5563C19.2963 30.2787 20.1923 28.1585 21.4371 26.2913C21.9775 25.4774 23.1197 25.4295 23.8105 26.1203C24.4123 26.7153 24.4534 27.6592 24.002 28.3705C23.1333 29.7384 22.4904 31.2636 22.1279 32.8983ZM32.9207 22.1123C31.2861 22.4748 29.7609 23.1177 28.3929 23.9863C27.6816 24.4377 26.7378 24.3899 26.1427 23.7948C25.4519 23.104 25.4998 21.9618 26.3137 21.4215C28.1809 20.1767 30.3012 19.2807 32.5788 18.8293C33.5363 18.6378 34.3776 19.4107 34.3776 20.3887C34.3776 21.23 33.7415 21.9276 32.9207 22.1123ZM39.4593 53.1707C38.5018 53.3622 37.6605 52.5893 37.6605 51.6113C37.6605 50.77 38.2966 50.0724 39.1174 49.8877C40.752 49.5252 42.2772 48.8823 43.6451 48.0137C44.3565 47.5623 45.3003 47.6101 45.8954 48.2052C46.5861 48.896 46.5383 50.0382 45.7244 50.5785C43.8572 51.8233 41.7369 52.7193 39.4593 53.1707ZM48.2208 45.8729C47.6189 45.2778 47.5779 44.334 48.0293 43.6227C48.8979 42.2548 49.5408 40.7295 49.9033 39.0949C50.088 38.2742 50.7856 37.6381 51.6269 37.6381C52.6049 37.6381 53.3778 38.4793 53.1863 39.4369C52.7349 41.7144 51.8389 43.8347 50.5941 45.7019C50.0538 46.5158 48.9116 46.5637 48.2208 45.8729ZM26.3137 50.5648C25.4998 50.0245 25.4519 48.8823 26.1427 48.1915C26.7378 47.5896 27.6816 47.5486 28.3929 48C29.7609 48.8686 31.2861 49.5115 32.9207 49.874C33.7415 50.0587 34.3776 50.7563 34.3776 51.5976C34.3776 52.5756 33.5363 53.3485 32.5788 53.157C30.3012 52.7056 28.1809 51.8096 26.3137 50.5648ZM23.8173 45.8729C23.1265 46.5637 21.9843 46.5158 21.444 45.7019C20.1992 43.8347 19.3032 41.7144 18.8518 39.4369C18.6603 38.4793 19.4331 37.6381 20.4112 37.6381C21.2525 37.6381 21.9501 38.2742 22.1348 39.0949C22.4973 40.7295 23.1402 42.2548 24.0088 43.6227C24.4602 44.334 24.4123 45.2778 23.8173 45.8729ZM45.7244 21.4215C46.5383 21.9618 46.5861 23.104 45.8954 23.7948C45.3003 24.3967 44.3565 24.4377 43.6451 23.9863C42.2772 23.1177 40.752 22.4748 39.1174 22.1123C38.2966 21.9276 37.6605 21.23 37.6605 20.3887C37.6605 19.4107 38.5018 18.6378 39.4593 18.8293C41.7369 19.2807 43.8572 20.1767 45.7244 21.4215ZM49.9033 32.8914C49.5408 31.2568 48.8979 29.7316 48.0293 28.3636C47.5779 27.6523 47.6258 26.7085 48.2208 26.1134C48.9116 25.4226 50.0538 25.4705 50.5941 26.2844C51.8389 28.1516 52.7349 30.2719 53.1863 32.5494C53.3778 33.507 52.6049 34.3482 51.6269 34.3482C50.7856 34.3482 50.088 33.7122 49.9033 32.8914Z" fill="#FF9C28"/>
</svg>
