<svg width="73" height="72" viewBox="0 0 73 72" fill="none" xmlns="http://www.w3.org/2000/svg">
<rect x="0.015625" width="72" height="72" rx="5" fill="#F5F5F6"/>
<path d="M36.0156 57.5C41.7178 57.5 47.1864 55.2348 51.2184 51.2028C55.2505 47.1708 57.5156 41.7022 57.5156 36C57.5156 30.2978 55.2505 24.8292 51.2184 20.7972C47.1864 16.7652 41.7178 14.5 36.0156 14.5C30.3135 14.5 24.8449 16.7652 20.8128 20.7972C16.7808 24.8292 14.5156 30.2978 14.5156 36C14.5156 41.7022 16.7808 47.1708 20.8128 51.2028C24.8449 55.2348 30.3135 57.5 36.0156 57.5ZM45.5059 32.0527L34.7559 42.8027C33.9664 43.5922 32.6898 43.5922 31.9088 42.8027L26.5338 37.4277C25.7443 36.6383 25.7443 35.3617 26.5338 34.5807C27.3232 33.7996 28.5998 33.7912 29.3809 34.5807L33.3281 38.5279L42.6504 29.1973C43.4398 28.4078 44.7164 28.4078 45.4975 29.1973C46.2785 29.9867 46.2869 31.2633 45.4975 32.0443L45.5059 32.0527Z" fill="#3CB744"/>
</svg>
