<svg width="73" height="72" viewBox="0 0 73 72" fill="none" xmlns="http://www.w3.org/2000/svg">
<rect x="0.355652" width="72" height="72" rx="5" fill="#F5F5F6"/>
<path d="M53.8244 36C53.8244 40.633 51.984 45.0762 48.7079 48.3523C45.4319 51.6283 40.9887 53.4688 36.3557 53.4688C31.7227 53.4688 27.2794 51.6283 24.0034 48.3523C20.7274 45.0762 18.8869 40.633 18.8869 36C18.8869 31.367 20.7274 26.9238 24.0034 23.6477C27.2794 20.3717 31.7227 18.5312 36.3557 18.5312C40.9887 18.5312 45.4319 20.3717 48.7079 23.6477C51.984 26.9238 53.8244 31.367 53.8244 36ZM14.8557 36C14.8557 41.7022 17.1208 47.1708 21.1529 51.2028C25.1849 55.2348 30.6535 57.5 36.3557 57.5C42.0578 57.5 47.5264 55.2348 51.5584 51.2028C55.5905 47.1708 57.8557 41.7022 57.8557 36C57.8557 30.2978 55.5905 24.8292 51.5584 20.7972C47.5264 16.7652 42.0578 14.5 36.3557 14.5C30.6535 14.5 25.1849 16.7652 21.1529 20.7972C17.1208 24.8292 14.8557 30.2978 14.8557 36ZM34.34 24.5781V36C34.34 36.6719 34.676 37.3018 35.2387 37.6797L43.3012 43.0547C44.225 43.6762 45.4764 43.4242 46.0978 42.492C46.7193 41.5598 46.4674 40.3168 45.5351 39.6953L38.3713 34.925V24.5781C38.3713 23.4611 37.4726 22.5625 36.3557 22.5625C35.2387 22.5625 34.34 23.4611 34.34 24.5781Z" fill="#1B68B3"/>
</svg>
