<svg width="32" height="32" viewBox="0 0 32 32" fill="none" xmlns="http://www.w3.org/2000/svg">
<path d="M21.5 10.2588L21.1656 10.5932C19.3906 12.3682 17.0031 13.3869 14.5 13.4463V13.4494V17.4494V17.4525C17.0031 17.5119 19.3906 18.5307 21.1656 20.3057L21.5 20.64V10.2588ZM13 11.9494H14.2719C16.4594 11.9494 18.5594 11.0807 20.1062 9.53378L21.2937 8.34628C21.9219 7.71503 23 8.1619 23 9.05253V13.5619C23.5813 13.8369 24 14.5775 24 15.4494C24 16.3213 23.5813 17.0619 23 17.3369V21.8463C23 22.7369 21.9219 23.1838 21.2937 22.5525L20.1062 21.365C18.6125 19.8713 16.6062 19.0088 14.5 18.9525V22.1994C14.5 23.165 13.7156 23.9494 12.75 23.9494H11.75C10.7844 23.9494 10 23.165 10 22.1994V18.9494C8.89688 18.9494 8 18.0525 8 16.9494V13.9494C8 12.8463 8.89688 11.9494 10 11.9494H13ZM11.5 18.9494V22.1994C11.5 22.3369 11.6125 22.4494 11.75 22.4494H12.75C12.8875 22.4494 13 22.3369 13 22.1994V18.9494H11.5ZM10 13.4494C9.725 13.4494 9.5 13.6744 9.5 13.9494V16.9494C9.5 17.2244 9.725 17.4494 10 17.4494H11.5H13V13.4494H10Z" fill="black"/>
</svg>