<svg viewBox="0 0 32 32" fill="none" xmlns="http://www.w3.org/2000/svg">
<path d="M14.4984 13.5C14.4984 11.2906 16.289 9.5 18.4984 9.5C20.7078 9.5 22.4984 11.2906 22.4984 13.5C22.4984 15.7094 20.7078 17.5 18.4984 17.5C18.1734 17.5 17.8578 17.4625 17.5578 17.3875C17.3047 17.325 17.0359 17.4 16.8515 17.5875L15.939 18.5H14.2484C13.8328 18.5 13.4984 18.8344 13.4984 19.25V20.5H12.2484C11.8328 20.5 11.4984 20.8344 11.4984 21.25V22.5H9.49841V20.0594L14.4109 15.1469C14.5953 14.9625 14.6703 14.6938 14.6109 14.4406C14.539 14.1406 14.4984 13.825 14.4984 13.5ZM18.4984 8C15.4609 8 12.9984 10.4625 12.9984 13.5C12.9984 13.7969 13.0203 14.0875 13.0672 14.3719L8.21716 19.2188C8.07654 19.3594 7.99841 19.55 7.99841 19.75V23.25C7.99841 23.6656 8.33279 24 8.74841 24H12.2484C12.664 24 12.9984 23.6656 12.9984 23.25V22H14.2484C14.664 22 14.9984 21.6656 14.9984 21.25V20H16.2484C16.4484 20 16.639 19.9219 16.7797 19.7812L17.6297 18.9312C17.914 18.975 18.2047 19 18.5015 19C21.539 19 24.0015 16.5375 24.0015 13.5C24.0015 10.4625 21.5359 8 18.4984 8ZM19.4984 13.5C19.7636 13.5 20.018 13.3946 20.2055 13.2071C20.3931 13.0196 20.4984 12.7652 20.4984 12.5C20.4984 12.2348 20.3931 11.9804 20.2055 11.7929C20.018 11.6054 19.7636 11.5 19.4984 11.5C19.2332 11.5 18.9788 11.6054 18.7913 11.7929C18.6038 11.9804 18.4984 12.2348 18.4984 12.5C18.4984 12.7652 18.6038 13.0196 18.7913 13.2071C18.9788 13.3946 19.2332 13.5 19.4984 13.5Z" fill="currentColor"/>
</svg>
