<svg viewBox="0 0 71 71" fill="none" xmlns="http://www.w3.org/2000/svg">
<rect x="0.5" y="0.5" width="70" height="70" rx="35" fill="white"/>
<path d="M21.625 23.5H49.375C49.9984 23.5 50.5 24.0016 50.5 24.625C50.5 25.2484 49.9984 25.75 49.375 25.75H21.625C21.0016 25.75 20.5 25.2484 20.5 24.625C20.5 24.0016 21.0016 23.5 21.625 23.5ZM21.625 45.25H49.375C49.9984 45.25 50.5 45.7516 50.5 46.375C50.5 46.9984 49.9984 47.5 49.375 47.5H21.625C21.0016 47.5 20.5 46.9984 20.5 46.375C20.5 45.7516 21.0016 45.25 21.625 45.25ZM35.575 33.25C35.9728 33.25 36.3544 33.092 36.6357 32.8107C36.917 32.5294 37.075 32.1478 37.075 31.75C37.075 31.3522 36.917 30.9706 36.6357 30.6893C36.3544 30.408 35.9728 30.25 35.575 30.25C35.1772 30.25 34.7956 30.408 34.5143 30.6893C34.233 30.9706 34.075 31.3522 34.075 31.75C34.075 32.1478 34.233 32.5294 34.5143 32.8107C34.7956 33.092 35.1772 33.25 35.575 33.25ZM32.7391 37.0375C32.9313 37.0141 33.1281 37 33.325 37H35.575H37.825C38.0219 37 38.2188 37.0141 38.4109 37.0375C40.6187 37.3234 42.325 39.2125 42.325 41.5C42.325 42.3297 41.6547 43 40.825 43H30.325C29.4953 43 28.825 42.3297 28.825 41.5C28.825 40.975 28.9141 40.4688 29.0828 40C29.575 38.6078 30.7375 37.525 32.1812 37.1453C32.3641 37.0984 32.5516 37.0609 32.7391 37.0375ZM33.325 34.75C32.4156 34.0656 31.825 32.9781 31.825 31.75C31.825 29.6781 33.5031 28 35.575 28C37.6469 28 39.325 29.6781 39.325 31.75C39.325 32.9781 38.7344 34.0656 37.825 34.75C37.1969 35.2188 36.4188 35.5 35.575 35.5C34.7313 35.5 33.9531 35.2188 33.325 34.75ZM38.9078 39.5266C38.5891 39.3484 38.2188 39.25 37.825 39.25H33.325C32.3453 39.25 31.5109 39.8781 31.2016 40.75H39.9484C39.8266 40.4078 39.625 40.1031 39.3672 39.8594C39.1938 39.7797 39.0391 39.6625 38.9078 39.5266ZM27.4 28C28.1956 28 28.9587 28.3161 29.5213 28.8787C30.0839 29.4413 30.4 30.2044 30.4 31C30.4 31.7956 30.0839 32.5587 29.5213 33.1213C28.9587 33.6839 28.1956 34 27.4 34C26.6044 34 25.8413 33.6839 25.2787 33.1213C24.7161 32.5587 24.4 31.7956 24.4 31C24.4 30.2044 24.7161 29.4413 25.2787 28.8787C25.8413 28.3161 26.6044 28 27.4 28ZM25 35.5H29.5C30.0719 35.5 30.6109 35.6594 31.0656 35.9406C29.3219 36.6484 27.9906 38.1531 27.5125 40H23.5C22.6703 40 22 39.3297 22 38.5C22 36.8453 23.3453 35.5 25 35.5ZM47.5 40H43.6375C43.1547 38.1203 41.7812 36.5969 39.9953 35.9031C40.4359 35.6453 40.9516 35.5 41.5 35.5H46C47.6547 35.5 49 36.8453 49 38.5C49 39.3297 48.3297 40 47.5 40ZM43.9 28C44.6957 28 45.4587 28.3161 46.0213 28.8787C46.5839 29.4413 46.9 30.2044 46.9 31C46.9 31.7956 46.5839 32.5587 46.0213 33.1213C45.4587 33.6839 44.6957 34 43.9 34C43.1044 34 42.3413 33.6839 41.7787 33.1213C41.2161 32.5587 40.9 31.7956 40.9 31C40.9 30.2044 41.2161 29.4413 41.7787 28.8787C42.3413 28.3161 43.1044 28 43.9 28Z" fill="currentcolor"/>
<rect x="1" y="1" width="69" height="69" rx="34.5" stroke="#74B0EA" stroke-opacity="0.25"/>
</svg>
