<svg viewBox="0 0 32 32" fill="none" xmlns="http://www.w3.org/2000/svg">
<path d="M15.1429 19.1429V16.8571H12.8571C12.3821 16.8571 12 16.475 12 16C12 15.525 12.3821 15.1429 12.8571 15.1429H15.1429V12.8571C15.1429 12.3821 15.525 12 16 12C16.475 12 16.8571 12.3821 16.8571 12.8571V15.1429H19.1429C19.6179 15.1429 20 15.525 20 16C20 16.475 19.6179 16.8571 19.1429 16.8571H16.8571V19.1429C16.8571 19.6179 16.475 20 16 20C15.525 20 15.1429 19.6179 15.1429 19.1429ZM8 10.2857C8 9.02321 9.02321 8 10.2857 8H21.7143C22.975 8 24 9.02321 24 10.2857V21.7143C24 22.975 22.975 24 21.7143 24H10.2857C9.02321 24 8 22.975 8 21.7143V10.2857ZM9.71429 10.2857V21.7143C9.71429 22.0286 9.97 22.2857 10.2857 22.2857H21.7143C22.0286 22.2857 22.2857 22.0286 22.2857 21.7143V10.2857C22.2857 9.97 22.0286 9.71429 21.7143 9.71429H10.2857C9.97 9.71429 9.71429 9.97 9.71429 10.2857Z" fill="currentcolor"/>
</svg>
