<svg viewBox="0 0 70 70" fill="none" xmlns="http://www.w3.org/2000/svg">
<rect width="70" height="70" rx="35" fill="white"/>
<path d="M25.8345 43.4055V45.9269H29.1685V43.4055H25.8345ZM30.4187 48.1121C30.0489 48.3275 29.6217 48.4483 29.1685 48.4483H25.8345C24.454 48.4483 23.334 47.3189 23.334 45.9269V43.4055V42.1448V41.7246H29.1685V40.8841V38.3627H31.669V40.8841H35.003V29.1175H31.669V31.6389H29.1685V29.1175V28.2771H23.334V27.8568V26.5961V24.0747C23.334 22.6827 24.454 21.5533 25.8345 21.5533H29.1685C29.6217 21.5533 30.0489 21.6741 30.4187 21.8895C30.7886 21.6741 31.2158 21.5533 31.669 21.5533H35.003C36.0761 21.5533 36.9877 22.2309 37.3472 23.187C37.6389 22.8665 38.0192 22.6249 38.462 22.5041L41.5616 21.6374C42.8483 21.2802 44.1715 22.0733 44.5153 23.4128L45.453 27.0479L45.7655 28.2666L48.9849 40.7843L49.2975 42.003L49.9174 44.4193C50.2612 45.7588 49.5006 47.1351 48.2139 47.4923L45.1091 48.359C43.8224 48.7162 42.4993 47.923 42.1554 46.5835L41.2178 42.9485L40.9052 41.7298L37.691 29.2173L37.5035 28.4977V29.1175V40.8841V42.1448V43.4055V45.9269C37.5035 47.3189 36.3835 48.4483 35.003 48.4483H31.669C31.2158 48.4483 30.7886 48.3275 30.4187 48.1121ZM31.669 45.9269H35.003V43.4055H31.669V45.9269ZM29.1685 24.0747H25.8345V26.5961H29.1685V24.0747ZM31.669 26.5961H35.003V24.0747H31.669V26.5961ZM46.2604 40.238L43.3536 28.9442L40.4103 29.7636L43.3171 41.0574L46.2604 40.238ZM43.9475 43.5L44.5674 45.9006L47.5055 45.0812C47.5055 45.0759 47.5055 45.0707 47.5055 45.0654V45.0602L46.896 42.6858L43.9527 43.5053L43.9475 43.5ZM39.7852 27.321L42.7285 26.5016L42.1086 24.101L39.1705 24.9204C39.1705 24.9257 39.1705 24.9309 39.1705 24.9414L39.78 27.3158L39.7852 27.321ZM23.334 30.7985C23.334 30.3362 23.7091 29.958 24.1675 29.958H25.8345C26.2929 29.958 26.668 30.3362 26.668 30.7985V33.3199H29.1685C29.6269 33.3199 30.002 33.6981 30.002 34.1603V35.8413C30.002 36.3035 29.6269 36.6817 29.1685 36.6817H26.668V39.2031C26.668 39.6654 26.2929 40.0436 25.8345 40.0436H24.1675C23.7091 40.0436 23.334 39.6654 23.334 39.2031V36.6817H20.8335C20.3751 36.6817 20 36.3035 20 35.8413V34.1603C20 33.6981 20.3751 33.3199 20.8335 33.3199H23.334V30.7985Z" fill="currentcolor"/>
<rect x="0.5" y="0.5" width="69" height="69" rx="34.5" stroke="#74B0EA" stroke-opacity="0.25"/>
</svg>
