<?xml version="1.0" encoding="UTF-8"?>
<svg id="Layer_2" data-name="Layer 2" xmlns="http://www.w3.org/2000/svg" viewBox="0 0 32 32">
  <defs>
    <style>
      .cls-1 {
        fill: none;
      }

      .cls-2 {
        fill: currentColor;
      }
    </style>
  </defs>
  <g id="Layer_1-2" data-name="Layer 1">
    <g>
      <rect class="cls-1" width="32" height="32"/>
      <path class="cls-2" d="m11.74,11.71c.72-1.13,1.89-1.93,3.26-2.15v-.56c0-.55.45-1,1-1s1,.45,1,1v.56c2.27.36,4,2.32,4,4.69v1.04c0,1.42.48,2.8,1.37,3.91l.47.58c.14.2.21.47.12.72l2.76,2.16c.32.26.38.73.13,1.05-.26.32-.73.38-1.05.13L6.29,9.34c-.33-.26-.38-.73-.13-1.05.26-.33.73-.38,1.05-.13l4.52,3.55Zm1.19.93l7.16,5.58c-.38-.9-.58-1.91-.58-2.93v-1.04c0-1.79-1.46-3.25-3.25-3.25h-.5c-1.21,0-2.26.66-2.82,1.64h0Zm-1.93,2.66v-.35l1.46,1.15c-.12,1.21-.54,2.38-1.2,3.41h5.53l1.91,1.5h-8.94c-.29,0-.55-.17-.68-.42-.12-.26-.09-.57.09-.79l.47-.58c.88-1.11,1.37-2.49,1.37-3.91h0Zm7,6.71c0,.5-.21,1.04-.58,1.42s-.91.58-1.42.58c-.53,0-1.04-.21-1.42-.58s-.58-.91-.58-1.42h4Z"/>
    </g>
  </g>
</svg>