<svg viewBox="0 0 32 32" fill="none" xmlns="http://www.w3.org/2000/svg">
<path d="M15.3806 20.2194C15.5056 20.1889 15.6306 20.1555 15.7556 20.125C17.3083 19.7278 19.0722 19.275 20.9028 19.3278C21.0167 18.4555 21.7611 17.7805 22.6667 17.7805V12.8889C21.6861 12.8889 20.8917 12.0944 20.8889 11.1139C19.5833 11.0666 18.2 11.3778 16.6194 11.7805C16.4944 11.8111 16.3694 11.8444 16.2444 11.8778C14.6917 12.275 12.9278 12.7278 11.0972 12.675C10.9833 13.5472 10.2361 14.2222 9.33333 14.2222V19.1111C10.3139 19.1111 11.1083 19.9055 11.1111 20.8861C12.4167 20.9333 13.8 20.6222 15.3806 20.2194ZM8 20.5972V12.0278C8 11.3555 8.70556 10.9083 9.34444 11.0833C11.5611 11.6944 13.7806 11.1278 16 10.5639C18.4139 9.94997 20.8278 9.33331 23.2417 10.2305C23.7167 10.4055 24 10.8889 24 11.4028V19.9722C24 20.6472 23.2944 21.0916 22.6583 20.9166C20.4389 20.3055 18.2194 20.8722 16 21.4361C13.5861 22.05 11.1722 22.6666 8.75833 21.7694C8.28333 21.5944 8 21.1111 8 20.5972ZM18.6667 16C18.6667 17.7194 17.4722 19.1111 16 19.1111C14.5278 19.1111 13.3333 17.7194 13.3333 16C13.3333 14.2805 14.5278 12.8889 16 12.8889C17.4722 12.8889 18.6667 14.2805 18.6667 16ZM15.1111 14.6666C15.1111 14.9111 15.3111 15.1111 15.5556 15.1111V16.8889H15.3333C15.0889 16.8889 14.8889 17.0889 14.8889 17.3333C14.8889 17.5778 15.0889 17.7778 15.3333 17.7778H16H16.6667C16.9111 17.7778 17.1111 17.5778 17.1111 17.3333C17.1111 17.0889 16.9111 16.8889 16.6667 16.8889H16.4444V14.6666C16.4444 14.4222 16.2444 14.2222 16 14.2222H15.5556C15.3111 14.2222 15.1111 14.4222 15.1111 14.6666Z" fill="currentcolor"/>
</svg>
