<svg viewBox="0 0 26 30" xmlns="http://www.w3.org/2000/svg">
<path d="M26 20.625V2.8125C26 2.06658 25.7065 1.35121 25.1841 0.823762C24.6617 0.296316 23.9531 0 23.2143 0L4.64286 0C3.41149 0 2.23057 0.49386 1.35986 1.37294C0.489157 2.25201 0 3.4443 0 4.6875L0 25.3125C0 26.5557 0.489157 27.748 1.35986 28.6271C2.23057 29.5061 3.41149 30 4.64286 30H24.6071C24.9766 30 25.3308 29.8518 25.592 29.5881C25.8533 29.3244 26 28.9667 26 28.5938C26 28.2208 25.8533 27.8631 25.592 27.5994C25.3308 27.3357 24.9766 27.1875 24.6071 27.1875H24.1429V23.265C24.6841 23.0718 25.1531 22.7145 25.4855 22.2419C25.8179 21.7693 25.9976 21.2046 26 20.625ZM21.3571 27.1875H4.64286C4.15031 27.1875 3.67794 26.99 3.32966 26.6383C2.98138 26.2867 2.78571 25.8098 2.78571 25.3125C2.78571 24.8152 2.98138 24.3383 3.32966 23.9867C3.67794 23.635 4.15031 23.4375 4.64286 23.4375H21.3571V27.1875ZM23.2143 20.625H4.64286C4.00355 20.6238 3.37103 20.7573 2.78571 21.0169V4.6875C2.78571 4.19022 2.98138 3.71331 3.32966 3.36167C3.67794 3.01004 4.15031 2.8125 4.64286 2.8125H23.2143V20.625ZM8.82143 9.375H19.0357C19.4051 9.375 19.7594 9.22684 20.0206 8.96312C20.2818 8.6994 20.4286 8.34171 20.4286 7.96875C20.4286 7.59579 20.2818 7.2381 20.0206 6.97438C19.7594 6.71066 19.4051 6.5625 19.0357 6.5625H8.82143C8.45202 6.5625 8.09774 6.71066 7.83653 6.97438C7.57532 7.2381 7.42857 7.59579 7.42857 7.96875C7.42857 8.34171 7.57532 8.6994 7.83653 8.96312C8.09774 9.22684 8.45202 9.375 8.82143 9.375ZM8.82143 14.0625H19.0357C19.4051 14.0625 19.7594 13.9143 20.0206 13.6506C20.2818 13.3869 20.4286 13.0292 20.4286 12.6562C20.4286 12.2833 20.2818 11.9256 20.0206 11.6619C19.7594 11.3982 19.4051 11.25 19.0357 11.25H8.82143C8.45202 11.25 8.09774 11.3982 7.83653 11.6619C7.57532 11.9256 7.42857 12.2833 7.42857 12.6562C7.42857 13.0292 7.57532 13.3869 7.83653 13.6506C8.09774 13.9143 8.45202 14.0625 8.82143 14.0625Z" fill="currentColor"/>
</svg>
