<svg width="16" height="13" viewBox="0 0 16 13" xmlns="http://www.w3.org/2000/svg">
<path d="M8.88941 0C9.24292 0.00021195 9.58188 0.144745 9.83185 0.401849C10.0818 0.658953 10.2223 1.0076 10.2225 1.3712V3.2C10.2223 3.5636 10.0818 3.91225 9.83185 4.16935C9.58188 4.42646 9.24292 4.57099 8.88941 4.5712H8.66696V5.7144H12.8896C13.3022 5.7144 13.6978 5.88297 13.9896 6.18303C14.2813 6.48309 14.4452 6.89006 14.4452 7.3144V8.2288H14.6676C15.021 8.22922 15.3598 8.37385 15.6096 8.63093C15.8594 8.88801 15.9998 9.23654 16 9.6V11.4288C15.9998 11.7924 15.8593 12.141 15.6093 12.3982C15.3593 12.6553 15.0204 12.7998 14.6669 12.8H12.8888C12.5353 12.7998 12.1963 12.6553 11.9464 12.3982C11.6964 12.141 11.5559 11.7924 11.5557 11.4288V9.6C11.5559 9.2364 11.6964 8.88775 11.9464 8.63065C12.1963 8.37354 12.5353 8.22901 12.8888 8.2288H13.1113V7.3144C13.1111 7.25378 13.0876 7.19571 13.0459 7.15285C13.0042 7.10998 12.9478 7.08581 12.8888 7.0856H8.66696V8.2288H8.88941C9.24292 8.22901 9.58188 8.37354 9.83185 8.63065C10.0818 8.88775 10.2223 9.2364 10.2225 9.6V11.4288C10.2223 11.7924 10.0818 12.141 9.83185 12.3982C9.58188 12.6553 9.24292 12.7998 8.88941 12.8H7.11137C6.75786 12.7998 6.41889 12.6553 6.16893 12.3982C5.91896 12.141 5.77844 11.7924 5.77823 11.4288V9.6C5.77844 9.2364 5.91896 8.88775 6.16893 8.63065C6.41889 8.37354 6.75786 8.22901 7.11137 8.2288H7.33382V7.0856H3.11118C3.05224 7.08581 2.99578 7.10998 2.95411 7.15285C2.91243 7.19571 2.88893 7.25378 2.88873 7.3144V8.2288H3.11118C3.46468 8.22901 3.80365 8.37354 4.05362 8.63065C4.30359 8.88775 4.44411 9.2364 4.44431 9.6V11.4288C4.44411 11.7924 4.30359 12.141 4.05362 12.3982C3.80365 12.6553 3.46468 12.7998 3.11118 12.8H1.33314C0.979568 12.8 0.640479 12.6555 0.390467 12.3984C0.140455 12.1412 0 11.7925 0 11.4288L0 9.6C0.000206067 9.2364 0.140728 8.88775 0.390695 8.63065C0.640662 8.37354 0.979632 8.22901 1.33314 8.2288H1.55559V7.3144C1.55559 6.89006 1.71948 6.48309 2.01121 6.18303C2.30294 5.88297 2.69861 5.7144 3.11118 5.7144H7.33382V4.5712H7.11137C6.75786 4.57099 6.41889 4.42646 6.16893 4.16935C5.91896 3.91225 5.77844 3.5636 5.77823 3.2V1.3712C5.77844 1.0076 5.91896 0.658953 6.16893 0.401849C6.41889 0.144745 6.75786 0.00021195 7.11137 0H8.88941ZM8.88941 1.3712H7.11137V3.2H8.88941V1.3712ZM1.33314 11.4288H3.11118V9.6H1.33314V11.4288ZM7.11137 11.4288H8.88941V9.6H7.11137V11.4288ZM12.8896 11.4288H14.6676V9.6H12.8888L12.8896 11.4288Z" />
</svg>
