<svg xmlns="http://www.w3.org/2000/svg" viewBox="0 0 32 32"><defs><style>.a{fill:"currentcolor";}.b{fill:none;}</style></defs><path class="a" d="M5.781-6.25a.47.47,0,0,0,.469-.469V-8.281a.47.47,0,0,0-.469-.469H4.219a.47.47,0,0,0-.469.469v1.563a.47.47,0,0,0,.469.469ZM10-6.719V-8.281a.47.47,0,0,0-.469-.469H7.969a.47.47,0,0,0-.469.469v1.563a.47.47,0,0,0,.469.469H9.531A.47.47,0,0,0,10-6.719Zm3.75,0V-8.281a.47.47,0,0,0-.469-.469H11.719a.47.47,0,0,0-.469.469v1.563a.47.47,0,0,0,.469.469h1.563A.47.47,0,0,0,13.75-6.719ZM10-2.969V-4.531A.47.47,0,0,0,9.531-5H7.969a.47.47,0,0,0-.469.469v1.563a.47.47,0,0,0,.469.469H9.531A.47.47,0,0,0,10-2.969Zm-3.75,0V-4.531A.47.47,0,0,0,5.781-5H4.219a.47.47,0,0,0-.469.469v1.563a.47.47,0,0,0,.469.469H5.781A.47.47,0,0,0,6.25-2.969Zm7.5,0V-4.531A.47.47,0,0,0,13.281-5H11.719a.47.47,0,0,0-.469.469v1.563a.47.47,0,0,0,.469.469h1.563A.47.47,0,0,0,13.75-2.969ZM17.5-13.125A1.875,1.875,0,0,0,15.625-15H13.75v-2.031a.47.47,0,0,0-.469-.469H11.719a.47.47,0,0,0-.469.469V-15h-5v-2.031a.47.47,0,0,0-.469-.469H4.219a.47.47,0,0,0-.469.469V-15H1.875A1.875,1.875,0,0,0,0-13.125V.625A1.875,1.875,0,0,0,1.875,2.5h13.75A1.875,1.875,0,0,0,17.5.625ZM15.625.391a.235.235,0,0,1-.234.234H2.109A.235.235,0,0,1,1.875.391V-11.25h13.75Z" transform="translate(7.25 23.5)"/><rect class="b" width="32" height="32"/></svg>