<?xml version="1.0" encoding="UTF-8"?>
<svg id="Layer_2" data-name="Layer 2" xmlns="http://www.w3.org/2000/svg" viewBox="0 0 32 32">
  <defs>
    <style>
      .cls-1 {
        fill: none;
      }

      .cls-2 {
        fill: currentcolor;
      }
    </style>
  </defs>
  <g id="Layer_1-2" data-name="Layer 1">
    <g>
      <rect class="cls-1" width="32" height="32"/>
      <path class="cls-2" d="M14,20.25c0,.42-.33,.75-.75,.75s-.75-.33-.75-.75v-2.5c0-.42,.33-.75,.75-.75s.75,.33,.75,.75v2.5Zm2-3.25c.42,0,.75,.33,.75,.75v2.5c0,.42-.33,.75-.75,.75s-.75-.33-.75-.75v-2.5c0-.42,.33-.75,.75-.75Zm3.5,3.25c0,.42-.33,.75-.75,.75s-.75-.33-.75-.75v-2.5c0-.42,.33-.75,.75-.75s.75,.33,.75,.75v2.5Zm-4.9-12.17c.37,.19,.51,.64,.32,1.01l-2.55,4.9h7.27l-2.55-4.9c-.19-.37-.05-.82,.32-1.01,.37-.19,.82-.05,1.01,.32l2.91,5.6h2.92c.42,0,.75,.33,.75,.75s-.33,.75-.75,.75h-.62l-1.75,6.98c-.25,.89-1.02,1.52-1.94,1.52h-7.9c-.89,0-1.69-.62-1.91-1.52l-1.75-6.98h-.62c-.41,0-.75-.33-.75-.75s.34-.75,.75-.75h2.92l2.91-5.6c.19-.37,.64-.51,1.01-.32h0Zm-3.02,14.04c.06,.22,.26,.38,.46,.38h7.9c.23,0,.43-.16,.49-.38l1.65-6.62H9.92l1.65,6.62Z"/>
    </g>
  </g>
</svg>