<svg xmlns="http://www.w3.org/2000/svg" viewBox="0 0 32 32"><defs><style>.a{fill:currentcolor;}.b{fill:none;}</style></defs><path class="a" d="M22.031-10H19.184l-5.032-5.92a.938.938,0,0,0-1.321-.107.938.938,0,0,0-.107,1.321l4,4.705H5.777l4-4.705a.938.938,0,0,0-.107-1.321.938.938,0,0,0-1.321.107L3.316-10H.469A.469.469,0,0,0,0-9.531v.938a.469.469,0,0,0,.469.469H1.2L2.275-.367A1.875,1.875,0,0,0,4.133,1.25H18.367A1.875,1.875,0,0,0,20.225-.367L21.3-8.125h.729a.469.469,0,0,0,.469-.469v-.937A.469.469,0,0,0,22.031-10ZM18.367-.625H4.133l-1.042-7.5H19.409Zm-6.18-5.312a.937.937,0,0,0-.937-.937.937.937,0,0,0-.937.938v3.125a.937.937,0,0,0,.938.938.937.937,0,0,0,.938-.937Zm4.375,0a.937.937,0,0,0-.937-.937.937.937,0,0,0-.937.938v3.125a.937.937,0,0,0,.938.938.937.937,0,0,0,.938-.937Zm-8.75,0a.937.937,0,0,0-.937-.937.937.937,0,0,0-.937.938v3.125a.937.937,0,0,0,.938.938.937.937,0,0,0,.938-.937Z" transform="translate(4.75 23.5)"/><rect class="b" width="32" height="32"/></svg>