<?xml version="1.0" encoding="UTF-8"?>
<svg id="Layer_2" data-name="Layer 2" xmlns="http://www.w3.org/2000/svg" viewBox="0 0 32 32">
  <defs>
    <style>
      .cls-1 {
        fill: none;
      }

      .cls-2 {
        fill: currentColor;
      }
    </style>
  </defs>
  <g id="Layer_1-2" data-name="Layer 1">
    <g>
      <rect class="cls-1" width="32" height="32"/>
      <path class="cls-2" d="M21.94,18.33c.34-.22,.71-.52,.99-.96,.44-.76,.4-1.53,.37-1.99,0-.02,0-.03,0-.05,0,0,.01-.02,.02-.03,.26-.42,.65-1.07,.65-1.97s-.43-1.55-.68-1.93c0,0-.01-.02-.02-.03,0-.02,0-.03,0-.05,.03-.46,.07-1.23-.37-1.99-.44-.77-1.13-1.11-1.55-1.32-.01,0-.03-.01-.04-.02,0-.01-.01-.03-.02-.04-.21-.41-.56-1.1-1.32-1.55-.45-.26-.96-.39-1.56-.39-.14,0-.28,0-.42,.01-.02,0-.03,0-.05,0,0,0-.02-.01-.03-.02-.35-.26-1-.68-1.9-.68s-1.55,.43-1.93,.68c0,0-.02,.01-.03,.02-.02,0-.03,0-.05,0-.15,0-.29-.01-.43-.01-.6,0-1.11,.13-1.56,.39-.77,.44-1.11,1.13-1.32,1.55,0,.01-.01,.03-.02,.04-.01,0-.03,.01-.04,.02-.41,.21-1.1,.56-1.55,1.32-.44,.76-.4,1.53-.37,1.99,0,.02,0,.03,0,.05,0,.01-.01,.02-.02,.03-.26,.39-.68,1.04-.68,1.93s.43,1.55,.68,1.93c0,0,.01,.02,.02,.03,0,.02,0,.03,0,.05-.03,.46-.07,1.23,.37,1.99,.29,.49,.67,.8,1.02,1.02l-2.02,5.03c-.14,.34-.07,.73,.16,1.01,.19,.23,.47,.36,.77,.36,.07,0,.13,0,.2-.02l1.88-.38,.89,1.76c.17,.34,.51,.55,.89,.55,.01,0,.03,0,.04,0,.4-.02,.74-.25,.89-.62l1.9-4.71h.65l1.87,4.71c.15,.37,.49,.6,.89,.62,.01-.04,0,0,.04,0,.38,0,.72-.21,.89-.55l.89-1.76,1.88,.38c.07,.01,.13,.02,.2,.02,.29,0,.57-.13,.77-.36,.24-.28,.3-.67,.16-1.01l-1.99-5.05Zm-.75-2c-.25,.44-.94,.55-1.29,.9-.35,.35-.47,1.04-.9,1.29-.16,.09-.36,.12-.56,.12s-.42-.02-.63-.02c-.13,0-.26,0-.38,.04-.47,.13-.91,.67-1.43,.67s-.95-.54-1.43-.67c-.12-.03-.25-.08-.38-.08-.21,0-.42,.02-.63,.02s-.4-.02-.56-.12c-.44-.22-.55-.9-.9-1.26-.35-.35-1.04-.47-1.29-.9-.25-.43,0-1.08-.14-1.57-.13-.48-.67-.91-.67-1.43s.54-.95,.67-1.43c.13-.49-.11-1.14,.14-1.57,.25-.44,.94-.55,1.29-.9,.35-.35,.47-1.04,.9-1.29,.16-.09,.36-.12,.56-.12s.42,.02,.63,.02c.13,0,.26,0,.38-.04,.47-.13,.91-.67,1.43-.67s.95,.54,1.43,.67c.12,.03,.25,.04,.38,.04,.21,0,.42-.02,.63-.02s.4,.02,.56,.12c.44,.25,.55,.94,.9,1.29,.35,.35,1.04,.47,1.29,.9,.25,.43,0,1.08,.14,1.57,.13,.47,.67,.91,.67,1.43s-.54,.95-.67,1.43c-.13,.49,.11,1.14-.14,1.57Zm-5.2-5.67c-1.47,0-2.67,1.19-2.67,2.67s1.19,2.67,2.67,2.67,2.67-1.19,2.67-2.67-1.2-2.67-2.67-2.67Z"/>
    </g>
  </g>
</svg>