<svg
  xmlns="http://www.w3.org/2000/svg"
  width="10"
  height="14"
  viewBox="0 0 10 14"
  fill="currentColor"
>
  <path d="M6.8143 6.5266C7.07517 6.78746 7.07517 7.2093 6.8143 7.46739L1.4859 12.7986C1.22503 13.0594 0.803201 13.0594 0.545107 12.7986C0.287013 12.5377 0.284238 12.1159 0.545107 11.8578L5.40172 7.00116L0.542332 2.14177C0.281462 1.8809 0.281462 1.45907 0.542332 1.20097C0.803201 0.942877 1.22226 0.940101 1.48313 1.20097L6.8143 6.5266ZM9.65334 12.3684V1.6339C9.65334 1.28145 9.36749 0.995605 9.01504 0.995605C8.66259 0.995605 8.37674 1.28145 8.37674 1.6339V12.3656C8.37674 12.7181 8.66259 13.0039 9.01504 13.0039C9.36749 13.0039 9.65334 12.7209 9.65334 12.3684Z" />
</svg>
