<svg width="32" height="32" viewBox="0 0 32 32" fill="none" xmlns="http://www.w3.org/2000/svg">
<g clip-path="url(#clip0_4132_1950)">
<path d="M14.1851 16.4802C13.9242 16.2194 13.9242 15.7975 14.1851 15.5394L19.5135 10.2083C19.7744 9.9474 20.1962 9.9474 20.4543 10.2083C20.7124 10.4691 20.7152 10.891 20.4543 11.1491L15.5977 16.0057L20.4571 20.8651C20.7179 21.1259 20.7179 21.5478 20.4571 21.8059C20.1962 22.064 19.7771 22.0667 19.5163 21.8059L14.1851 16.4802ZM11.3461 10.6384L11.346 21.3729C11.346 21.7254 11.6319 22.0112 11.9843 22.0112C12.3368 22.0112 12.6226 21.7254 12.6226 21.3729L12.6226 10.6412C12.6226 10.2888 12.3368 10.0029 11.9843 10.0029C11.6319 10.0029 11.3461 10.286 11.3461 10.6384Z" fill="black"/>
</g>
<defs>
<clipPath id="clip0_4132_1950">
<rect width="9.30805" height="12" fill="white" transform="translate(20.6541 22) rotate(-180)"/>
</clipPath>
</defs>
</svg>
