<svg width="32" height="32" viewBox="0 0 32 32" fill="none" xmlns="http://www.w3.org/2000/svg">
<path d="M17.8143 15.5266C18.0752 15.7875 18.0752 16.2093 17.8143 16.4674L12.4859 21.7986C12.225 22.0594 11.8032 22.0594 11.5451 21.7986C11.287 21.5377 11.2842 21.1159 11.5451 20.8578L16.4017 16.0012L11.5423 11.1418C11.2815 10.8809 11.2815 10.4591 11.5423 10.201C11.8032 9.94288 12.2223 9.9401 12.4831 10.201L17.8143 15.5266ZM20.6533 21.3684V10.6339C20.6533 10.2815 20.3675 9.99561 20.015 9.99561C19.6626 9.99561 19.3767 10.2815 19.3767 10.6339V21.3656C19.3767 21.7181 19.6626 22.0039 20.015 22.0039C20.3675 22.0039 20.6533 21.7209 20.6533 21.3684Z" fill="black"/>
</svg>
