<svg
  xmlns="http://www.w3.org/2000/svg"
  width="10"
  height="12"
  viewBox="0 0 10 12"
  fill="currentColor"
>
  <g clipPath="url(#clip0_4281_1933)">
    <path d="M3.18497 6.48024C2.9241 6.21937 2.9241 5.79754 3.18497 5.53944L8.51337 0.20827C8.77424 -0.0526 9.19607 -0.0525999 9.45416 0.20827C9.71226 0.469139 9.71503 0.890971 9.45416 1.14907L4.59755 6.00568L9.45694 10.8651C9.71781 11.1259 9.71781 11.5478 9.45694 11.8059C9.19607 12.064 8.77701 12.0667 8.51614 11.8059L3.18497 6.48024ZM0.345928 0.638427L0.345927 11.3729C0.345927 11.7254 0.631774 12.0112 0.984225 12.0112C1.33668 12.0112 1.62252 11.7254 1.62252 11.3729L1.62252 0.641202C1.62252 0.288751 1.33668 0.00290416 0.984226 0.00290413C0.631775 0.0029041 0.345928 0.285975 0.345928 0.638427Z" />
  </g>
</svg>