<svg width="32" height="32" viewBox="0 0 32 32" fill="none" xmlns="http://www.w3.org/2000/svg">
<path d="M21.8092 14.1493L16.4943 19.2388C16.3622 19.3645 16.1898 19.4394 16.0077 19.4501C15.8364 19.446 15.6723 19.3799 15.5461 19.2639L10.2062 14.1463C10.143 14.0857 10.0923 14.0132 10.0571 13.933C10.0218 13.8528 10.0027 13.7664 10.0009 13.6788C9.99902 13.5912 10.0144 13.5041 10.0462 13.4225C10.078 13.3409 10.1256 13.2663 10.1862 13.2031C10.2468 13.1398 10.3193 13.0891 10.3995 13.0539C10.4797 13.0187 10.5661 12.9996 10.6537 12.9977C10.7413 12.9958 10.8284 13.0113 10.91 13.0431C10.9916 13.0749 11.0662 13.1224 11.1294 13.183L16.0067 17.8621L20.885 13.1891C21.0131 13.0716 21.182 13.0089 21.3557 13.0144C21.5294 13.0198 21.6941 13.093 21.8146 13.2182C21.9351 13.3434 22.0019 13.5108 22.0007 13.6846C21.9995 13.8583 21.9304 14.0248 21.8082 14.1483L21.8092 14.1493Z" fill="black"/>
</svg>
