<svg id="icon_failed" xmlns="http://www.w3.org/2000/svg" viewBox="0 0 48 48">
  <rect id="Rectangle_1077" data-name="Rectangle 1077" width="48" height="48" fill="none"/>
  <path id="Path_93" data-name="Path 93" d="M4.561-13.125,11.4-19.966a2.15,2.15,0,0,0,0-3.041l-1.52-1.52a2.15,2.15,0,0,0-3.041,0L0-17.686l-6.841-6.841a2.15,2.15,0,0,0-3.041,0l-1.52,1.52a2.15,2.15,0,0,0,0,3.041l6.841,6.841L-11.4-6.284a2.15,2.15,0,0,0,0,3.041l1.52,1.52a2.15,2.15,0,0,0,3.041,0L0-8.564,6.841-1.723a2.15,2.15,0,0,0,3.041,0l1.52-1.52a2.15,2.15,0,0,0,0-3.041Z" transform="translate(24 38)" fill="currentcolor"/>
</svg>
