<?xml version="1.0" encoding="UTF-8"?>
<svg id="Layer_2" data-name="Layer 2" xmlns="http://www.w3.org/2000/svg" viewBox="0 0 32 32">
  <defs>
    <style>
      .cls-1 {
        fill: none;
      }

      .cls-2 {
        fill: currentColor;
      }
    </style>
  </defs>
  <g id="Layer_1-2" data-name="Layer 1">
    <g>
      <rect class="cls-1" width="32" height="32"/>
      <path class="cls-2" d="m17,9v.56c2.27.36,4,2.32,4,4.69v1.04c0,1.42.48,2.8,1.37,3.91l.47.58c.18.23.22.53.09.79-.12.26-.39.43-.68.43h-12.5c-.29,0-.55-.17-.68-.43-.12-.26-.09-.57.09-.79l.47-.58c.89-1.11,1.37-2.49,1.37-3.91v-1.04c0-2.37,1.73-4.33,4-4.69v-.56c0-.55.45-1,1-1s1,.45,1,1h0Zm-1.25,2c-1.79,0-3.25,1.46-3.25,3.25v1.04c0,1.5-.43,2.96-1.24,4.21h9.48c-.81-1.25-1.24-2.71-1.24-4.21v-1.04c0-1.79-1.46-3.25-3.25-3.25h-.5Zm2.25,11c0,.5-.21,1.04-.58,1.42s-.91.58-1.42.58c-.53,0-1.04-.21-1.42-.58s-.58-.91-.58-1.42h4Z"/>
    </g>
  </g>
</svg>