<svg viewBox="0 0 70 70" fill="none" xmlns="http://www.w3.org/2000/svg">
<rect width="70" height="70" rx="35" fill="white"/>
<path d="M34.2852 39.9102C33.6465 40.5488 32.6035 40.5488 31.9648 39.9102L28.2148 36.1602C27.5762 35.5215 27.5762 34.4785 28.2148 33.8398C28.8535 33.2012 29.8965 33.2012 30.5352 33.8398L33.125 36.4297L39.4648 30.0898C40.1035 29.4512 41.1465 29.4512 41.7852 30.0898C42.4238 30.7285 42.4238 31.7715 41.7852 32.4102L34.2852 39.9102ZM50 35C50 43.2852 43.2852 50 35 50C26.7148 50 20 43.2852 20 35C20 26.7148 26.7148 20 35 20C43.2852 20 50 26.7148 50 35ZM35 22.8125C28.2676 22.8125 22.8125 28.2676 22.8125 35C22.8125 41.7324 28.2676 47.1875 35 47.1875C41.7324 47.1875 47.1875 41.7324 47.1875 35C47.1875 28.2676 41.7324 22.8125 35 22.8125Z" fill="currentcolor"/>
<rect x="0.5" y="0.5" width="69" height="69" rx="34.5" stroke="#74B0EA" stroke-opacity="0.25"/>
</svg>
