<svg viewBox="0 0 32 32" fill="none" xmlns="http://www.w3.org/2000/svg">
<path d="M21.3642 17.0816C22.6236 17.2909 23.6142 18.2847 23.8267 19.5441C23.8736 19.8159 23.6454 20.0409 23.3673 20.0409H21.3673C21.0923 20.0409 20.8673 19.8159 20.8673 19.5409V17.5409C20.8673 17.2659 21.0923 17.0378 21.3642 17.0816ZM19.3673 18.0441C19.6392 17.9972 19.8673 18.2253 19.8673 18.5034V20.5409C19.8673 20.8159 20.0923 21.0409 20.3673 21.0409H22.3673C22.6454 21.0409 22.8767 21.2722 22.8236 21.5441C22.8079 21.6222 22.7923 21.7003 22.7704 21.7753C22.3423 23.3753 20.6954 24.3253 19.0954 23.8972C17.4954 23.4691 16.5454 21.8222 16.9736 20.2222C17.2861 19.0534 18.2486 18.2316 19.3642 18.0409L19.3673 18.0441ZM12.917 13H18.417C18.8326 13 19.167 12.6656 19.167 12.25C19.167 11.8344 18.8326 11.5 18.417 11.5H12.917C12.5014 11.5 12.167 11.8344 12.167 12.25C12.167 12.6656 12.5014 13 12.917 13ZM12.917 15.5H18.417C18.8326 15.5 19.167 15.1656 19.167 14.75C19.167 14.3344 18.8326 14 18.417 14H12.917C12.5014 14 12.167 14.3344 12.167 14.75C12.167 15.1656 12.5014 15.5 12.917 15.5ZM10.667 22.5C10.1139 22.5 9.66699 22.0531 9.66699 21.5C9.66699 20.9469 10.1139 20.5 10.667 20.5H15.5492C15.6132 19.9637 15.7751 19.4578 16.0167 19H10.667C10.3107 19 9.97324 19.075 9.66699 19.2094V10.75C9.66699 10.0594 10.2264 9.5 10.917 9.5H20.417C20.5545 9.5 20.667 9.6125 20.667 9.75V15.8987C20.8251 15.8803 20.9879 15.8706 21.1542 15.8706C21.5117 15.8706 21.8532 15.9153 22.167 15.9969V9.75C22.167 8.78438 21.3826 8 20.417 8H10.917C9.39824 8 8.16699 9.23125 8.16699 10.75V21.25H8.17949C8.17012 21.3313 8.16699 21.4156 8.16699 21.5C8.16699 22.8813 9.28574 24 10.667 24H16.7067C16.302 23.5731 15.9829 23.0638 15.7779 22.5H10.667Z" fill="currentcolor"/>
</svg>
