<svg xmlns="http://www.w3.org/2000/svg" viewBox="0 0 32 32">
  <g id="ic_danger" transform="translate(-1529 -776)">
    <rect id="Rectangle_1740" data-name="Rectangle 1740" width="32" height="32" transform="translate(1529 776)" fill="none"/>
    <path id="Path_2644" data-name="Path 2644" d="M11.043-6.75h2.872a.571.571,0,0,0,.58-.612,5.789,5.789,0,0,0-2.162-3.913.588.588,0,0,0-.872.137L9.946-8.715A2.324,2.324,0,0,1,11.043-6.75ZM7.492-4.785,5.973-2.355a.574.574,0,0,0,.207.816,5.689,5.689,0,0,0,2.535.6,5.736,5.736,0,0,0,2.535-.6.569.569,0,0,0,.207-.816L9.939-4.785a2.3,2.3,0,0,1-1.227.359A2.3,2.3,0,0,1,7.492-4.785ZM3.526-6.75H6.4A2.316,2.316,0,0,1,7.5-8.715L5.98-11.137a.588.588,0,0,0-.872-.137A5.8,5.8,0,0,0,2.946-7.362.571.571,0,0,0,3.526-6.75ZM8.719-5.59a1.161,1.161,0,0,0,1.16-1.16,1.161,1.161,0,0,0-1.16-1.16,1.161,1.161,0,0,0-1.16,1.16A1.161,1.161,0,0,0,8.719-5.59Zm0,7.559A8.717,8.717,0,0,0,17.438-6.75a8.717,8.717,0,0,0-8.719-8.719A8.717,8.717,0,0,0,0-6.75,8.717,8.717,0,0,0,8.719,1.969Zm0-15.75A7.038,7.038,0,0,1,15.75-6.75,7.038,7.038,0,0,1,8.719.281,7.038,7.038,0,0,1,1.688-6.75,7.038,7.038,0,0,1,8.719-13.781Z" transform="translate(1536 799)" fill="#fff"/>
  </g>
</svg>
