<svg viewBox="0 0 16 16" xmlns="http://www.w3.org/2000/svg">
<path d="M6.25938 2.54688C6.59063 1.92188 7.24687 1.5 8 1.5C8.75313 1.5 9.40938 1.92188 9.74063 2.54688C9.90938 2.86562 10.2812 3.01875 10.625 2.9125C11.3 2.70625 12.0656 2.86875 12.5969 3.40313C13.1281 3.9375 13.2937 4.7 13.0875 5.375C12.9812 5.71875 13.1344 6.09062 13.4531 6.25625C14.0781 6.5875 14.5 7.24375 14.5 7.99687C14.5 8.75 14.0781 9.40625 13.4531 9.7375C13.1344 9.90625 12.9812 10.275 13.0875 10.6187C13.2937 11.2937 13.1313 12.0594 12.5969 12.5906C12.0625 13.1219 11.3 13.2875 10.625 13.0813C10.2812 12.975 9.90937 13.1281 9.74375 13.4469C9.4125 14.0719 8.75625 14.4937 8.00313 14.4937C7.25 14.4937 6.59375 14.0719 6.2625 13.4469C6.09375 13.1281 5.725 12.975 5.38125 13.0813C4.70625 13.2875 3.94062 13.125 3.40937 12.5906C2.87812 12.0562 2.70625 11.3 2.9125 10.625C3.01875 10.2812 2.86562 9.90937 2.54688 9.74375C1.92188 9.40937 1.5 8.75313 1.5 8C1.5 7.24687 1.92188 6.59063 2.54688 6.25938C2.86562 6.09063 3.01875 5.71875 2.9125 5.375C2.70625 4.7 2.86875 3.93438 3.40313 3.40313C3.9375 2.87188 4.7 2.70625 5.375 2.9125C5.71875 3.01875 6.09062 2.86562 6.25625 2.54688H6.25938ZM8 0C6.87813 0 5.88125 0.53125 5.24687 1.35625C4.21562 1.22188 3.13438 1.55 2.34063 2.34375C1.54688 3.1375 1.21875 4.21875 1.35312 5.25C0.53125 5.88125 0 6.87813 0 8C0 9.12187 0.53125 10.1188 1.35625 10.7531C1.22188 11.7844 1.55 12.8656 2.34375 13.6594C3.1375 14.4531 4.21875 14.7812 5.25 14.6469C5.88125 15.4688 6.87813 16 8 16C9.12187 16 10.1188 15.4688 10.7531 14.6438C11.7844 14.7781 12.8656 14.45 13.6594 13.6562C14.4531 12.8625 14.7812 11.7812 14.6469 10.75C15.4688 10.1187 16 9.12187 16 8C16 6.87813 15.4688 5.88125 14.6438 5.24687C14.7781 4.21562 14.45 3.13438 13.6562 2.34063C12.8625 1.54688 11.7812 1.21875 10.75 1.35312C10.1187 0.53125 9.12187 0 8 0ZM6 7C6.26522 7 6.51957 6.89464 6.70711 6.70711C6.89464 6.51957 7 6.26522 7 6C7 5.73478 6.89464 5.48043 6.70711 5.29289C6.51957 5.10536 6.26522 5 6 5C5.73478 5 5.48043 5.10536 5.29289 5.29289C5.10536 5.48043 5 5.73478 5 6C5 6.26522 5.10536 6.51957 5.29289 6.70711C5.48043 6.89464 5.73478 7 6 7ZM11 10C11 9.73478 10.8946 9.48043 10.7071 9.29289C10.5196 9.10536 10.2652 9 10 9C9.73478 9 9.48043 9.10536 9.29289 9.29289C9.10536 9.48043 9 9.73478 9 10C9 10.2652 9.10536 10.5196 9.29289 10.7071C9.48043 10.8946 9.73478 11 10 11C10.2652 11 10.5196 10.8946 10.7071 10.7071C10.8946 10.5196 11 10.2652 11 10ZM10.5312 6.53125C10.825 6.2375 10.825 5.7625 10.5312 5.47188C10.2375 5.18125 9.7625 5.17813 9.47188 5.47188L5.46875 9.46875C5.175 9.7625 5.175 10.2375 5.46875 10.5281C5.7625 10.8187 6.2375 10.8219 6.52812 10.5281L10.5312 6.53125Z" fill="currentColor"/>
</svg>
