<svg viewBox="0 0 32 32" fill="none" xmlns="http://www.w3.org/2000/svg">
<path d="M11.2857 8C9.30709 8 7.45709 8.52143 6.68209 8.77143C6.08209 8.96429 5.71423 9.51786 5.71423 10.1107V21.2679C5.71423 22.2 6.57138 22.8464 7.42852 22.7036C8.13566 22.5857 9.38566 22.4286 10.9999 22.4286C12.9285 22.4286 14.4821 23.3393 15.0178 23.7C15.2857 23.8786 15.6178 24 15.9821 24C16.3928 24 16.7535 23.85 17.0285 23.6464C17.5071 23.2964 18.8964 22.4286 20.9999 22.4286C22.7035 22.4286 23.8749 22.5714 24.5357 22.6857C25.3892 22.8321 26.2857 22.1929 26.2857 21.2357V10.1107C26.2857 9.52143 25.9178 8.96429 25.3178 8.77143C24.5428 8.52143 22.6928 8 20.7142 8C19.3999 8 18.1499 8.22857 17.2357 8.45357C16.7785 8.56786 16.3964 8.67857 16.1321 8.76429C16.0857 8.77857 16.0392 8.79286 15.9999 8.80714C15.9607 8.79286 15.9142 8.77857 15.8678 8.76429C15.5999 8.67857 15.2214 8.56786 14.7642 8.45357C13.8499 8.22857 12.5999 8 11.2857 8ZM15.1428 10.3321V21.7821C14.2142 21.2929 12.7428 20.7143 10.9999 20.7143C9.4678 20.7143 8.23566 20.8464 7.42852 20.9679V10.3321C8.22495 10.0929 9.72852 9.71429 11.2857 9.71429C12.4142 9.71429 13.5214 9.91429 14.3535 10.1179C14.6607 10.1929 14.9285 10.2679 15.1428 10.3321ZM16.8571 21.7321V10.3321C17.0714 10.2679 17.3392 10.1929 17.6464 10.1179C18.4785 9.91429 19.5857 9.71429 20.7142 9.71429C22.2714 9.71429 23.7749 10.0929 24.5714 10.3321V20.9536C23.7964 20.8357 22.6107 20.7143 20.9999 20.7143C19.1642 20.7143 17.7571 21.25 16.8571 21.7357V21.7321Z" fill="currentColor"/>
</svg>
