<svg viewBox="0 0 32 32" fill="none" xmlns="http://www.w3.org/2000/svg">
<path d="M16 11.7813C16.1906 11.7813 16.3656 11.8906 16.4469 12.0594L17.425 14.0375L19.6094 14.3562C19.7969 14.3844 19.9531 14.5156 20.0125 14.6969C20.0719 14.8781 20.0219 15.075 19.8844 15.2094L18.3062 16.7219L18.6781 18.925C18.7094 19.1125 18.6344 19.3 18.4812 19.4125C18.325 19.525 18.1219 19.5406 17.9531 19.45L16 18.425L14.0469 19.45C13.8781 19.5406 13.675 19.525 13.5188 19.4125C13.3656 19.3 13.2906 19.1125 13.3219 18.925L13.6937 16.7219L12.1156 15.2094C11.9781 15.075 11.9281 14.8781 11.9875 14.6969C12.0469 14.5156 12.2031 14.3844 12.3906 14.3562L14.575 14.0375L15.5531 12.0594C15.6344 11.8906 15.8094 11.7813 16 11.7813ZM24 16C24 20.4187 20.4187 24 16 24C11.5813 24 8 20.4187 8 16C8 11.5813 11.5813 8 16 8C20.4187 8 24 11.5813 24 16ZM16 9.5C12.4094 9.5 9.5 12.4094 9.5 16C9.5 19.5906 12.4094 22.5 16 22.5C19.5906 22.5 22.5 19.5906 22.5 16C22.5 12.4094 19.5906 9.5 16 9.5Z" fill="currentcolor"/>
</svg>
