<svg id="Group_16160" data-name="Group 16160" xmlns="http://www.w3.org/2000/svg" viewBox="0 0 50 50">
  <g id="Icon-Failed">
    <path id="circle-xmark" d="M17.09,17.09a2.257,2.257,0,0,1,3.232,0l4.59,4.6,4.678-4.6a2.257,2.257,0,0,1,3.232,0,2.121,2.121,0,0,1,0,3.232l-4.512,4.59,4.512,4.678a2.286,2.286,0,0,1-3.232,3.232l-4.678-4.512-4.59,4.512a2.121,2.121,0,0,1-3.232,0,2.257,2.257,0,0,1,0-3.232l4.6-4.678-4.6-4.59a2.257,2.257,0,0,1,0-3.232ZM50,25A25,25,0,1,1,25,0,25,25,0,0,1,50,25ZM25,4.688A20.313,20.313,0,1,0,45.313,25,20.309,20.309,0,0,0,25,4.688Z" fill="#d12525"/>
  </g>
</svg>
