<?xml version="1.0" encoding="UTF-8"?>
<svg id="Layer_2" data-name="Layer 2" xmlns="http://www.w3.org/2000/svg" viewBox="0 0 32 32">
  <defs>
    <style>
      .cls-1 {
        fill: none;
      }

      .cls-2 {
        fill: #010101;
      }
    </style>
  </defs>
  <g id="Layer_1-2" data-name="Layer 1">
    <g>
      <rect class="cls-1" width="32" height="32"/>
      <path class="cls-2" d="m19.28,12.53h-6.5c-.41,0-.75.34-.75.76s.34.76.75.76h6.5c.42,0,.75-.34.75-.76s-.33-.76-.75-.76Zm-3,3.02h-3.5c-.41,0-.75.34-.75.76s.34.76.75.76h3.5c.42,0,.75-.34.75-.76s-.33-.76-.75-.76Zm5.72-7.55h-12c-1.1,0-2,.9-2,1.99v9.03c0,1.11.9,1.99,2,1.99h3v2.61c0,.31.34.49.6.31l3.9-2.95h4.5c1.1,0,2-.9,2-1.99v-9.01c0-1.08-.87-1.99-2-1.99Zm.53,11.08c0,.28-.23.5-.5.5h-5l-2.5,1.89v-1.89h-4.5c-.27,0-.5-.23-.5-.5v-9.06c0-.28.23-.5.5-.5h12c.27,0,.5.23.5.5v9.06Z"/>
    </g>
  </g>
</svg>