<svg xmlns="http://www.w3.org/2000/svg" viewBox="0 0 24 24"><defs><style>.a{fill:none;}.b{fill:"currentcolor";}</style></defs><g transform="translate(-6466 -1341)"><rect class="a" width="24" height="24" transform="translate(6466 1341)"/><path class="b" d="M20,6H12L10,4H4A2,2,0,0,0,2.01,6L2,18a2.006,2.006,0,0,0,2,2H20a2.006,2.006,0,0,0,2-2V8A2.006,2.006,0,0,0,20,6Zm0,12H4V6H9.17l2,2H20Zm-5-5a2,2,0,1,0-2-2A2.006,2.006,0,0,0,15,13Zm-4,4h8V16c0-1.33-2.67-2-4-2s-4,.67-4,2Z" transform="translate(6466 1341)"/></g></svg>