<svg viewBox="0 0 32 32" fill="none" xmlns="http://www.w3.org/2000/svg">
<path d="M9.75 8C10.1656 8 10.5 8.33437 10.5 8.75V9.625L13.1562 8.9625C14.3469 8.66562 15.6031 8.80312 16.7031 9.35312C18.15 10.0781 19.8531 10.0781 21.3 9.35312L21.6 9.20312C22.2438 8.87813 23 9.34687 23 10.0656V18.8062C23 19.2219 22.7406 19.5969 22.35 19.7437L21.2656 20.15C19.8219 20.6906 18.2156 20.6062 16.8375 19.9187C15.6531 19.325 14.2969 19.1781 13.0094 19.5L10.5 20.125V23.25C10.5 23.6656 10.1656 24 9.75 24C9.33437 24 9 23.6656 9 23.25V20.5V18.9531V10V8.75C9 8.33437 9.33437 8 9.75 8ZM10.5 12.7094L13 12.1656V10.5469L10.5 11.1719V12.7125V12.7094ZM10.5 14.2438V15.7094L13 15.1656V13.7031L10.5 14.2469V14.2438ZM10.5 17.2437V18.5781L12.6437 18.0406C12.7625 18.0125 12.8812 17.9844 13 17.9625V16.7031L10.5 17.2469V17.2437ZM14.5 17.8313C15.5344 17.8531 16.5594 18.1031 17.5 18.5719V17.0156L15.7688 16.5063C15.3563 16.3844 14.925 16.3469 14.5 16.3938V17.8313ZM19 18.9875C19.5844 19.0344 20.1781 18.9531 20.7375 18.7437L21.5 18.4594V17L20.6969 17.1875C20.1375 17.3156 19.5688 17.3594 19 17.3219V18.9937V18.9875ZM21.5 15.4563V14L20.6969 14.1875C20.1375 14.3156 19.5688 14.3594 19 14.3219V15.8156C19.4531 15.8594 19.9125 15.8281 20.3594 15.725L21.5 15.4625V15.4563ZM21.5 12.4563V10.9031C20.7 11.2281 19.85 11.3906 19 11.3906V12.8125C19.4531 12.8562 19.9125 12.825 20.3594 12.7219L21.5 12.4594V12.4563ZM17.5 11.2219C16.9969 11.1063 16.5031 10.9281 16.0312 10.6937C15.5531 10.4531 15.0281 10.325 14.5 10.3094V11.8906C15.0687 11.85 15.6406 11.9094 16.1906 12.0719L17.5 12.4531V11.2219ZM17.5 14.0188L15.7688 13.5094C15.3563 13.3875 14.925 13.35 14.5 13.3969V14.8906C15.0687 14.85 15.6406 14.9094 16.1906 15.0719L17.5 15.4531V14.0156V14.0188Z" fill="currentColor"/>
</svg>
