<?xml version="1.0" encoding="UTF-8"?>
<svg id="Layer_2" data-name="Layer 2" xmlns="http://www.w3.org/2000/svg" viewBox="0 0 32 32">
  <defs>
    <style>
      .cls-1 {
        fill: none;
      }

      .cls-2 {
        fill: currentColor;
      }
    </style>
  </defs>
  <g id="Layer_1-2" data-name="Layer 1">
    <g>
      <rect class="cls-1" width="32" height="32"/>
      <path class="cls-2" d="m20,16.8c-.88,0-1.6.72-1.6,1.6s.72,1.6,1.6,1.6,1.6-.72,1.6-1.6-.72-1.6-1.6-1.6Zm-7.64-2h-1.6v-1.6c0-.66-.54-1.2-1.2-1.2s-1.2.54-1.2,1.2v1.6l-1.56-.04c-.66,0-1.25.58-1.25,1.24s.54,1.2,1.2,1.2h1.6v1.6c0,.66.54,1.2,1.2,1.2s1.2-.54,1.2-1.2v-1.6h1.6c.66,0,1.2-.54,1.2-1.2,0-.66-.5-1.2-1.2-1.2Zm10.84-2.8c-.88,0-1.6.72-1.6,1.6s.72,1.6,1.6,1.6,1.6-.72,1.6-1.6-.72-1.6-1.6-1.6Zm-.8-5.6h-12.8C4.3,6.4,0,10.66,0,16s4.3,9.6,9.6,9.6h12.8c5.3,0,9.6-4.3,9.6-9.6s-4.3-9.6-9.6-9.6Zm0,16.8h-12.8c-3.97,0-7.2-3.23-7.2-7.2s3.23-7.2,7.2-7.2h12.8c3.97,0,7.2,3.23,7.2,7.2s-3.23,7.2-7.2,7.2Z"/>
    </g>
  </g>
</svg>