<svg id="Group_16160" data-name="Group 16160" xmlns="http://www.w3.org/2000/svg" width="50" height="50" viewBox="0 0 50 50">
  <g id="Icon-Points">
    <path id="target-hit-succeed-aim-svgrepo-com" d="M44.187,19.969h.59A22.469,22.469,0,1,1,34.031,9.222v2.46l-1.558,1.558a18.171,18.171,0,1,0,8.287,8.286l1.558-1.558Zm-10.547,9.57a9.18,9.18,0,1,1-9.18-9.18c.288,0,.571.015.852.041L28.9,16.816A13.485,13.485,0,1,0,37.184,25.1L33.6,28.687C33.626,28.968,33.641,29.252,33.641,29.539ZM44.187,16.063,52,8.25H45.75V2L37.937,9.813V13.3l-12,12A4.492,4.492,0,1,0,28.7,28.059l12-12Z" transform="translate(-2 -2)" fill="#3cb744"/>
  </g>
</svg>
