<svg xmlns="http://www.w3.org/2000/svg" viewBox="0 0 24 24"><defs><style>.a{fill:none;}.b{fill:#7a7a7a;}</style></defs><rect class="a" width="24" height="24"/><path class="b" d="M11-18.906a11,11,0,0,0-11,11,11,11,0,0,0,11,11,11,11,0,0,0,11-11A11,11,0,0,0,11-18.906Zm7.953,7.1H15.972a14.782,14.782,0,0,0-1.384-4.2A8.892,8.892,0,0,1,18.953-11.809ZM11-16.777c.825,0,2.156,1.827,2.8,4.968H8.2C8.844-14.95,10.175-16.777,11-16.777ZM2.129-7.906A8.982,8.982,0,0,1,2.306-9.68H5.753c-.044.581-.075,1.167-.075,1.774s.031,1.193.075,1.774H2.306A8.982,8.982,0,0,1,2.129-7.906ZM3.047-4H6.028A14.782,14.782,0,0,0,7.412.2,8.892,8.892,0,0,1,3.047-4Zm2.981-7.806H3.047a8.892,8.892,0,0,1,4.364-4.2A14.782,14.782,0,0,0,6.028-11.809ZM11,.965C10.175.965,8.844-.863,8.2-4h5.611C13.156-.863,11.825.965,11,.965Zm3.109-7.1H7.891c-.049-.568-.084-1.153-.084-1.774s.035-1.206.084-1.774h6.223c.049.568.084,1.153.084,1.774S14.158-6.7,14.109-6.132ZM14.588.2A14.923,14.923,0,0,0,15.972-4h2.981A8.892,8.892,0,0,1,14.588.2Zm1.659-6.329c.044-.581.075-1.167.075-1.774S16.292-9.1,16.247-9.68h3.446a8.982,8.982,0,0,1,.177,1.774,8.982,8.982,0,0,1-.177,1.774Z" transform="translate(1 20)"/></svg>