<svg xmlns="http://www.w3.org/2000/svg" viewBox="0 0 16 16"><defs><style>.a{fill:none;}.b{fill:currentcolor;}</style></defs><g transform="translate(0)"><path class="a" d="M0,0H16V16H0Z" transform="translate(0)"/><path class="b" d="M4.706,9.308H6.824a.714.714,0,0,0,.706-.718V5.718A.714.714,0,0,0,6.824,5H4.706A.714.714,0,0,0,4,5.718V8.59A.714.714,0,0,0,4.706,9.308Zm0,5.026H6.824a.714.714,0,0,0,.706-.718V10.744a.714.714,0,0,0-.706-.718H4.706A.714.714,0,0,0,4,10.744v2.872A.714.714,0,0,0,4.706,14.333Zm4.235,0h2.118a.714.714,0,0,0,.706-.718V10.744a.714.714,0,0,0-.706-.718H8.941a.714.714,0,0,0-.706.718v2.872A.714.714,0,0,0,8.941,14.333Zm4.235,0h2.118A.714.714,0,0,0,16,13.615V10.744a.714.714,0,0,0-.706-.718H13.176a.714.714,0,0,0-.706.718v2.872A.714.714,0,0,0,13.176,14.333ZM8.941,9.308h2.118a.714.714,0,0,0,.706-.718V5.718A.714.714,0,0,0,11.059,5H8.941a.714.714,0,0,0-.706.718V8.59A.714.714,0,0,0,8.941,9.308Zm3.529-3.59V8.59a.714.714,0,0,0,.706.718h2.118A.714.714,0,0,0,16,8.59V5.718A.714.714,0,0,0,15.294,5H13.176A.714.714,0,0,0,12.471,5.718Z" transform="translate(-2 -1.667)"/></g></svg>