<svg viewBox="0 0 32 32" fill="none" xmlns="http://www.w3.org/2000/svg">
<path d="M12.5714 12.2857C12.5714 11.4965 11.9321 10.8572 11.1429 10.8572H9.42857C8.63929 10.8572 8 11.4965 8 12.2857V14C8 14.7893 8.63929 15.4286 9.42857 15.4286H11.1429C11.9321 15.4286 12.5714 14.7893 12.5714 14V12.2857ZM12.5714 18C12.5714 17.2107 11.9321 16.5715 11.1429 16.5715H9.42857C8.63929 16.5715 8 17.2107 8 18V19.7143C8 20.5036 8.63929 21.1429 9.42857 21.1429H11.1429C11.9321 21.1429 12.5714 20.5036 12.5714 19.7143V18ZM13.7143 12.2857V14C13.7143 14.7893 14.3536 15.4286 15.1429 15.4286H16.8571C17.6464 15.4286 18.2857 14.7893 18.2857 14V12.2857C18.2857 11.4965 17.6464 10.8572 16.8571 10.8572H15.1429C14.3536 10.8572 13.7143 11.4965 13.7143 12.2857ZM18.2857 18C18.2857 17.2107 17.6464 16.5715 16.8571 16.5715H15.1429C14.3536 16.5715 13.7143 17.2107 13.7143 18V19.7143C13.7143 20.5036 14.3536 21.1429 15.1429 21.1429H16.8571C17.6464 21.1429 18.2857 20.5036 18.2857 19.7143V18ZM19.4286 12.2857V14C19.4286 14.7893 20.0679 15.4286 20.8571 15.4286H22.5714C23.3607 15.4286 24 14.7893 24 14V12.2857C24 11.4965 23.3607 10.8572 22.5714 10.8572H20.8571C20.0679 10.8572 19.4286 11.4965 19.4286 12.2857ZM24 18C24 17.2107 23.3607 16.5715 22.5714 16.5715H20.8571C20.0679 16.5715 19.4286 17.2107 19.4286 18V19.7143C19.4286 20.5036 20.0679 21.1429 20.8571 21.1429H22.5714C23.3607 21.1429 24 20.5036 24 19.7143V18Z" fill="currentColor"/>
</svg>
