<svg id="Icon-Grip" xmlns="http://www.w3.org/2000/svg" width="32" height="32" viewBox="0 0 32 32">
  <rect id="Rectangle_8319" data-name="Rectangle 8319" width="32" height="32" fill="none"/>
  <path id="grip-dots-regular_1_" data-name="grip-dots-regular (1)" d="M13.333,161.333A1.333,1.333,0,1,0,14.667,160,1.333,1.333,0,0,0,13.333,161.333Zm-6.667,0A1.333,1.333,0,1,0,8,160,1.333,1.333,0,0,0,6.667,161.333Zm-5.333,1.333A1.333,1.333,0,1,0,0,161.333,1.333,1.333,0,0,0,1.333,162.667Zm12,4a1.333,1.333,0,1,0,1.333-1.333A1.333,1.333,0,0,0,13.333,166.667ZM8,168a1.333,1.333,0,1,0-1.333-1.333A1.333,1.333,0,0,0,8,168Zm-8-1.333a1.333,1.333,0,1,0,1.333-1.333A1.333,1.333,0,0,0,0,166.667Z" transform="translate(8 -148)"/>
</svg>
