<svg viewBox="0 0 32 32" fill="none" xmlns="http://www.w3.org/2000/svg">
<path d="M23.5312 15.735C24.7906 15.9444 25.7812 16.9381 25.9937 18.1975C26.0406 18.4694 25.8125 18.6944 25.5344 18.6944H23.5344C23.2594 18.6944 23.0344 18.4694 23.0344 18.1944V16.1944C23.0344 15.9194 23.2594 15.6913 23.5312 15.735ZM16 18C17.6569 18 19 16.6569 19 15C19 13.3431 17.6569 12 16 12C14.3431 12 13 13.3431 13 15C13 16.6569 14.3431 18 16 18ZM16 13.5C16.8284 13.5 17.5 14.1716 17.5 15C17.5 15.8284 16.8284 16.5 16 16.5C15.1716 16.5 14.5 15.8284 14.5 15C14.5 14.1716 15.1716 13.5 16 13.5ZM22 13C23.3806 13 24.5 11.8806 24.5 10.5C24.5 9.11937 23.3806 8 22 8C20.6194 8 19.5 9.11937 19.5 10.5C19.5 11.8806 20.6194 13 22 13ZM18.735 22.5H11.5844C11.8812 21.35 12.925 20.5 14.1656 20.5H17.7644C17.7125 20.2322 17.685 19.9553 17.685 19.6725C17.685 19.4437 17.7028 19.2194 17.7369 19H14.1653C11.8653 19 9.99969 20.8656 9.99969 23.1656C9.99969 23.625 10.3716 24 10.8341 24H21.1653C21.2509 24 21.3338 23.9872 21.4116 23.9631C20.3459 23.8138 19.4047 23.2775 18.7347 22.5H18.735ZM13.3562 18C12.525 17.2656 12.0031 16.1938 12.0031 15C12.0031 14.7625 12.025 14.5312 12.0625 14.3031C11.6375 14.1062 11.1656 14 10.6687 14H9.33437C7.49375 14 6 15.4938 6 17.3344C6 17.7 6.3 18 6.66562 18H13.3562ZM10.5 13C11.8806 13 13 11.8806 13 10.5C13 9.11937 11.8806 8 10.5 8C9.11937 8 8 9.11937 8 10.5C8 11.8806 9.11937 13 10.5 13ZM21.5344 16.6975C21.8063 16.6506 22.0344 16.8787 22.0344 17.1569V19.1944C22.0344 19.4694 22.2594 19.6944 22.5344 19.6944H24.5344C24.8125 19.6944 25.0438 19.9256 24.9906 20.1975C24.975 20.2756 24.9594 20.3538 24.9375 20.4288C24.5094 22.0288 22.8625 22.9788 21.2625 22.5506C19.6625 22.1225 18.7125 20.4756 19.1406 18.8756C19.4531 17.7069 20.4156 16.885 21.5312 16.6944L21.5344 16.6975Z" fill="currentcolor"/>
</svg>
