<svg viewBox="0 0 32 32" fill="none" xmlns="http://www.w3.org/2000/svg">
<path d="M15.9978 8.23999C15.6251 8.23999 15.2888 8.45217 15.1252 8.78559L13.1769 12.7957L8.82586 13.4383C8.46227 13.4929 8.15927 13.7475 8.04716 14.0961C7.93505 14.4447 8.02595 14.8296 8.28653 15.0873L11.4438 18.2123L10.6984 22.6286C10.6378 22.9924 10.7893 23.3622 11.0892 23.5774C11.3892 23.7926 11.7861 23.8199 12.1134 23.6471L16.0008 21.5708L15.9978 8.23999Z" fill="currentcolor"/>
<path d="M21.3033 22.6286L20.5549 18.2123L23.7121 15.0873C23.9727 14.8296 24.0666 14.4447 23.9515 14.0961C23.8363 13.7475 23.5364 13.4929 23.1728 13.4383L18.8187 12.7957L16.8705 8.78559C16.7099 8.45217 16.3705 8.23999 16.0009 8.23999V21.5708L19.8883 23.6471C20.0186 23.7138 20.158 23.7532 20.2973 23.7592H20.4004C20.5822 23.7501 20.7609 23.6895 20.9155 23.5774C21.2124 23.3591 21.3639 22.9924 21.3033 22.6286Z" fill="#C1C5C8"/>
</svg>
