<svg xmlns="http://www.w3.org/2000/svg" viewBox="0 0 32 32">
  <g id="ic_home_normal" transform="translate(-122 -255)">
    <g id="ic_home_updated_32_x_32" data-name="ic_home updated 32 x 32" transform="translate(-481 21)">
      <rect id="Rectangle_1765" data-name="Rectangle 1765" width="32" height="32" transform="translate(603 234)" fill="none"/>
    </g>
    <path id="Path_2939" data-name="Path 2939" d="M23.389-8.227l-10.105-8.3a2.67,2.67,0,0,0-1.471-.532,2.67,2.67,0,0,0-1.471.532L.236-8.227a.745.745,0,0,0-.235.5A.762.762,0,0,0,.154-7.3l.42.5a.745.745,0,0,0,.5.235A.762.762,0,0,0,1.5-6.716l1.127-.925V0A1.318,1.318,0,0,0,3.938,1.313h5.25A1.318,1.318,0,0,0,10.5,0V-4.266h2.625V0a1.318,1.318,0,0,0,1.313,1.313h5.25A1.319,1.319,0,0,0,21,.01V-7.642l1.129.928a.762.762,0,0,0,.421.153.745.745,0,0,0,.5-.235l.42-.5a.762.762,0,0,0,.153-.421A.744.744,0,0,0,23.389-8.227ZM19.025-.656H15.094V-4.922a1.318,1.318,0,0,0-1.312-1.312H9.844A1.318,1.318,0,0,0,8.531-4.922V-.656H4.594v-8.6l7.219-5.932,7.219,5.929Z" transform="translate(126 279)" fill="currentcolor"/>
  </g>
</svg>