<svg viewBox="0 0 32 32" fill="none" xmlns="http://www.w3.org/2000/svg">
<path d="M16 18C16.6438 18.005 17.2746 17.8186 17.8124 17.4645C18.3501 17.1104 18.7706 16.6045 19.0204 16.0111C19.2702 15.4177 19.3381 14.7635 19.2156 14.1314C19.093 13.4993 18.7855 12.9179 18.332 12.4609C17.8785 12.0039 17.2994 11.6918 16.6683 11.5644C16.0372 11.437 15.3824 11.4998 14.7871 11.7451C14.1918 11.9903 13.6827 12.4068 13.3245 12.9418C12.9663 13.4768 12.775 14.1062 12.775 14.75C12.772 15.1755 12.8531 15.5975 13.0138 15.9915C13.1745 16.3856 13.4116 16.7439 13.7113 17.046C14.011 17.3481 14.3676 17.5879 14.7604 17.7516C15.1532 17.9153 15.5745 17.9997 16 18ZM16 13C16.3461 13 16.6845 13.1026 16.9723 13.2949C17.26 13.4872 17.4843 13.7605 17.6168 14.0803C17.7493 14.4001 17.7839 14.7519 17.7164 15.0914C17.6489 15.4309 17.4822 15.7427 17.2374 15.9874C16.9927 16.2322 16.6809 16.3989 16.3414 16.4664C16.002 16.5339 15.6501 16.4992 15.3303 16.3668C15.0105 16.2343 14.7372 16.01 14.5449 15.7222C14.3526 15.4345 14.25 15.0961 14.25 14.75C14.2503 14.286 14.4347 13.841 14.7629 13.5129C15.091 13.1847 15.536 13.0003 16 13ZM22 13C22.4945 13 22.9778 12.8534 23.3889 12.5787C23.8001 12.304 24.1205 11.9135 24.3097 11.4567C24.4989 10.9999 24.5484 10.4972 24.452 10.0123C24.3555 9.52732 24.1174 9.08187 23.7678 8.73223C23.4181 8.3826 22.9727 8.1445 22.4877 8.04804C22.0028 7.95157 21.5001 8.00108 21.0433 8.1903C20.5865 8.37952 20.196 8.69995 19.9213 9.11108C19.6466 9.5222 19.5 10.0055 19.5 10.5C19.5 11.163 19.7634 11.7989 20.2322 12.2678C20.7011 12.7366 21.337 13 22 13ZM17.559 19H14.441C13.3 18.9647 12.1915 19.3835 11.3589 20.1645C10.5263 20.9456 10.0376 22.025 10 23.166C10.0071 23.3942 10.1045 23.6103 10.2708 23.7667C10.4371 23.9231 10.6588 24.007 10.887 24H21.113C21.3412 24.007 21.5629 23.9231 21.7292 23.7667C21.8955 23.6103 21.993 23.3942 22 23.166C21.9624 22.025 21.4737 20.9456 20.6411 20.1645C19.8085 19.3835 18.7001 18.9647 17.559 19ZM11.566 22.5C11.7617 21.9042 12.1447 21.3876 12.658 21.0272C13.1712 20.6667 13.7871 20.4818 14.414 20.5H17.56C18.1868 20.482 18.8027 20.667 19.3159 21.0274C19.8291 21.3877 20.2122 21.9043 20.408 22.5H11.566ZM23.247 14H21.314C20.9258 14.0014 20.5428 14.0896 20.193 14.258C20.2191 14.4209 20.2358 14.5852 20.243 14.75C20.2392 15.7612 19.8718 16.7372 19.208 17.5H25.449C25.5994 17.4953 25.7418 17.4312 25.8451 17.3218C25.9483 17.2123 26.004 17.0664 26 16.916C26.021 16.1644 25.7429 15.4352 25.2267 14.8885C24.7106 14.3418 23.9986 14.0222 23.247 14ZM11.747 14.75C11.7536 14.5825 11.7703 14.4155 11.797 14.25C11.4534 14.073 11.0703 13.9869 10.684 14H8.75301C8.00146 14.0222 7.28944 14.3418 6.77329 14.8885C6.25713 15.4352 5.97902 16.1644 6.00001 16.916C5.99597 17.0664 6.05167 17.2123 6.15494 17.3218C6.2582 17.4312 6.40061 17.4953 6.55101 17.5H12.785C12.1198 16.7379 11.7513 15.7616 11.747 14.75ZM10 13C10.4945 13 10.9778 12.8534 11.3889 12.5787C11.8001 12.304 12.1205 11.9135 12.3097 11.4567C12.4989 10.9999 12.5484 10.4972 12.452 10.0123C12.3555 9.52732 12.1174 9.08187 11.7678 8.73223C11.4181 8.3826 10.9727 8.1445 10.4877 8.04804C10.0028 7.95157 9.50012 8.00108 9.0433 8.1903C8.58649 8.37952 8.19604 8.69995 7.92133 9.11108C7.64663 9.5222 7.50001 10.0055 7.50001 10.5C7.50001 11.163 7.7634 11.7989 8.23224 12.2678C8.70108 12.7366 9.33697 13 10 13Z" fill="currentColor"/>
</svg>
