<svg viewBox="0 0 32 32" fill="none" xmlns="http://www.w3.org/2000/svg">
<path d="M8.82759 14.9015C8.36897 14.9015 8 14.5325 8 14.0738V9.10771C8 8.64904 8.36897 8.28003 8.82759 8.28003C9.28621 8.28003 9.65517 8.64904 9.65517 9.10771V11.8701L10.3448 11.0596C11.7586 9.36291 13.8931 8.28003 16.2759 8.28003C20.5414 8.28003 24 11.739 24 16.005C24 20.271 20.5414 23.73 16.2759 23.73C14.5379 23.73 12.931 23.1541 11.6414 22.185C11.2759 21.9091 11.2034 21.3918 11.4759 21.0263C11.7483 20.6607 12.269 20.5883 12.6345 20.8607C13.6483 21.6229 14.9069 22.0747 16.2759 22.0747C19.6276 22.0747 22.3448 19.3571 22.3448 16.005C22.3448 12.6529 19.6276 9.93539 16.2759 9.93539C14.4034 9.93539 12.7276 10.7838 11.6138 12.1218L11.6103 12.1287L10.6586 13.2461H13.7931C14.2517 13.2461 14.6207 13.6151 14.6207 14.0738C14.6207 14.5325 14.2517 14.9015 13.7931 14.9015H8.82759Z" fill="currentColor"/>
</svg>
