<svg viewBox="0 0 32 32" fill="none" xmlns="http://www.w3.org/2000/svg">
<path d="M14.2 10.25H13.75C13.0594 10.25 12.5 10.8094 12.5 11.5V13H21.1969C21.7 13 22.1656 13.25 22.4438 13.6687L23.7469 15.6219C23.9125 15.8687 24 16.1562 24 16.4531V18C24 18.5531 23.5531 19 23 19H9C8.44687 19 8 18.5531 8 18V16.4531C8 16.1562 8.0875 15.8687 8.25313 15.6219L9.55625 13.6687C9.83437 13.25 10.3 13 10.8031 13H11V11.5C11 9.98125 12.2312 8.75 13.75 8.75H14.2C14.4594 8.30312 14.9437 8 15.5 8H17.5C18.3281 8 19 8.67188 19 9.5C19 10.3281 18.3281 11 17.5 11H15.5C14.9437 11 14.4594 10.6969 14.2 10.25ZM9.5 17.5H22.5V16.4531L21.1969 14.5H10.8031L9.5 16.4531V17.5ZM12 23.25C12 22.8344 12.3344 22.5 12.75 22.5H15.25V20H16.75V22.5H19.25C19.6656 22.5 20 22.8344 20 23.25C20 23.6656 19.6656 24 19.25 24H16H12.75C12.3344 24 12 23.6656 12 23.25Z" fill="currentColor"/>
</svg>
