<svg xmlns="http://www.w3.org/2000/svg" xmlns:xlink="http://www.w3.org/1999/xlink" width="400" height="250" viewBox="0 0 400 250">
  <defs>
    <clipPath id="clip-path">
      <rect id="Rectangle_8245" data-name="Rectangle 8245" width="400" height="250" transform="translate(18 0)" fill="none"/>
    </clipPath>
    <clipPath id="clip-path-2">
      <rect id="Rectangle_8244" data-name="Rectangle 8244" width="457.688" height="304.78" fill="#1b68b3"/>
    </clipPath>
    <clipPath id="clip-path-3">
      <rect id="Rectangle_8219" data-name="Rectangle 8219" width="43.104" height="21.432" fill="#74b0ea"/>
    </clipPath>
    <clipPath id="clip-path-4">
      <rect id="Rectangle_8220" data-name="Rectangle 8220" width="0.192" height="0.121" fill="none"/>
    </clipPath>
    <clipPath id="clip-path-5">
      <rect id="Rectangle_8221" data-name="Rectangle 8221" width="8.861" height="36.078" fill="none"/>
    </clipPath>
    <clipPath id="clip-path-6">
      <rect id="Rectangle_8222" data-name="Rectangle 8222" width="31.698" height="23.85" fill="none"/>
    </clipPath>
    <clipPath id="clip-path-7">
      <rect id="Rectangle_8223" data-name="Rectangle 8223" width="0.204" height="0.032" fill="none"/>
    </clipPath>
    <clipPath id="clip-path-8">
      <rect id="Rectangle_8224" data-name="Rectangle 8224" width="0.18" height="0.11" fill="none"/>
    </clipPath>
    <clipPath id="clip-path-9">
      <rect id="Rectangle_8225" data-name="Rectangle 8225" width="8.605" height="12.469" fill="none"/>
    </clipPath>
    <clipPath id="clip-path-10">
      <rect id="Rectangle_8226" data-name="Rectangle 8226" width="90.729" height="158.095" fill="#103e6b"/>
    </clipPath>
    <clipPath id="clip-path-11">
      <rect id="Rectangle_8227" data-name="Rectangle 8227" width="15.317" height="43.407" fill="#103e6b"/>
    </clipPath>
    <clipPath id="clip-path-12">
      <rect id="Rectangle_8228" data-name="Rectangle 8228" width="138.385" height="29.565" fill="none"/>
    </clipPath>
    <clipPath id="clip-path-13">
      <rect id="Rectangle_8229" data-name="Rectangle 8229" width="136.388" height="29.565" fill="none"/>
    </clipPath>
    <clipPath id="clip-path-14">
      <rect id="Rectangle_8230" data-name="Rectangle 8230" width="10.196" height="8.107" fill="none"/>
    </clipPath>
    <clipPath id="clip-path-15">
      <rect id="Rectangle_8231" data-name="Rectangle 8231" width="44.294" height="20.489" fill="none"/>
    </clipPath>
    <clipPath id="clip-path-16">
      <rect id="Rectangle_8233" data-name="Rectangle 8233" width="27.439" height="60.403" fill="none"/>
    </clipPath>
    <clipPath id="clip-path-17">
      <rect id="Rectangle_8243" data-name="Rectangle 8243" width="27.44" height="60.404" fill="none"/>
    </clipPath>
  </defs>
  <g id="Group_16670" data-name="Group 16670" transform="translate(-18 -106)">
    <g id="Group_16669" data-name="Group 16669" transform="translate(0 106)" clip-path="url(#clip-path)">
      <g id="Group_16668" data-name="Group 16668" transform="translate(0 -54.78)">
        <g id="Group_16667" data-name="Group 16667" transform="translate(0 0)" clip-path="url(#clip-path-2)">
          <g id="Group_16594" data-name="Group 16594" transform="translate(203.879 252.354)">
            <g id="Group_16593" data-name="Group 16593">
              <g id="Group_16592" data-name="Group 16592" clip-path="url(#clip-path-3)">
                <path id="Path_15891" data-name="Path 15891" d="M1379.411,1665.363c.607,6.514-3.727,10.477-9.758,8.29-5.724-2.075-6.95,2.419-11.684,2.918-5.047.532-6.428-5.994-9.958-3.277-6.811,5.243-13.475,1.235-11.186-5.841,1.851-5.723,5.354-7.068,8.32-7.168,5.381-.182,4.133-4.757,10.39-5.1,7.986-.434,5.757,6.825,12.9,5.14,4.428-1.045,10.658,1.594,10.978,5.036" transform="translate(-1336.364 -1655.169)" fill="#74b0ea" fill-rule="evenodd"/>
              </g>
            </g>
          </g>
          <path id="Path_15892" data-name="Path 15892" d="M1699.846,1628.324c-.2,2.514-.467,5.249-.829,8.245-1.359,11.233-1.185,49.159-.485,73.224.7,23.947,61.69,40.728,63.7,42.689s-7.049,20.592-9.735,19.938-74.855-18.3-81.233-56.873c-2.219-13.422-3.179-33.458-9.378-75.3l0,.007c-.07.194-1.581,4.269-3.781,10.54-4.707,13.386-13.278,37.794-17.048,54.726-5.877,26.419-2.1,94.262-4.559,96.638-7.328,4.2-19.731,4.611-23.041-1.226,0,0-3.875-84.906-1.268-98.244,1.766-9.068,19.154-98.195,22.483-122.069,0,0,53.379-7.21,55.394,14.643.274,2.988,9.636-1.154,9.6,1.364-.052,3.393.14,6.537.329,9.986a148.441,148.441,0,0,1-.148,21.71" transform="translate(-1365.465 -1338.676)" fill="#3b3b4d"/>
          <g id="Group_16597" data-name="Group 16597" transform="translate(302.016 289.477)" opacity="0.46">
            <g id="Group_16596" data-name="Group 16596">
              <g id="Group_16595" data-name="Group 16595" clip-path="url(#clip-path-4)">
                <path id="Path_15893" data-name="Path 15893" d="M1979.815,1898.587a.325.325,0,0,0-.009.034,1.846,1.846,0,0,1-.183-.12,1.6,1.6,0,0,1,.192.086" transform="translate(-1979.623 -1898.501)" fill="#1f1f3b"/>
              </g>
            </g>
          </g>
          <g id="Group_16600" data-name="Group 16600" transform="translate(287.564 290.676)" opacity="0.54">
            <g id="Group_16599" data-name="Group 16599">
              <g id="Group_16598" data-name="Group 16598" clip-path="url(#clip-path-5)">
                <path id="Path_15894" data-name="Path 15894" d="M1893.753,1917.255l0,.007c-.07.194-6.656,18.9-8.856,25.172l6.279-36.078s-.093,1.513,2.581,10.9" transform="translate(-1884.892 -1906.356)" fill="#1f1f3b"/>
              </g>
            </g>
          </g>
          <g id="Group_16603" data-name="Group 16603" transform="translate(303.153 259.234)" opacity="0.35">
            <g id="Group_16602" data-name="Group 16602">
              <g id="Group_16601" data-name="Group 16601" clip-path="url(#clip-path-6)">
                <path id="Path_15895" data-name="Path 15895" d="M2018.679,1724.119c-.544-.118-28.188-11.5-31.611-23.85,0,0,24.251,1.414,31.295,2.148.307,5.634.537,18.513.317,21.7" transform="translate(-1987.068 -1700.269)" fill="#1f1f3b"/>
              </g>
            </g>
          </g>
          <g id="Group_16606" data-name="Group 16606" transform="translate(322.061 275.571)" opacity="0.46">
            <g id="Group_16605" data-name="Group 16605">
              <g id="Group_16604" data-name="Group 16604" clip-path="url(#clip-path-7)">
                <path id="Path_15896" data-name="Path 15896" d="M2111.207,1807.346s0,.012.01.032a1.621,1.621,0,0,1-.2-.013,1.455,1.455,0,0,1,.194-.019" transform="translate(-2111.013 -1807.347)" fill="#1f1f39"/>
              </g>
            </g>
          </g>
          <path id="Path_15897" data-name="Path 15897" d="M1208.782,610.758c3.463-15.976-6.437-10.77-6.846-20.56-.067-1.605,10.116-9.036,14.962-4.119s6.345,15.248,5.6,20.009-6.868,5.376-8.437,4.808-5.276-.138-5.276-.138" transform="translate(-1018.565 -495.424)" fill="#efaea6"/>
          <g id="Group_16609" data-name="Group 16609" transform="translate(297.906 282.499)" opacity="0.46">
            <g id="Group_16608" data-name="Group 16608">
              <g id="Group_16607" data-name="Group 16607" clip-path="url(#clip-path-8)">
                <path id="Path_15898" data-name="Path 15898" d="M1952.858,1852.839s0,.013-.007.034a1.618,1.618,0,0,1-.174-.11,1.442,1.442,0,0,1,.181.076" transform="translate(-1952.678 -1852.763)" fill="#1f1f39"/>
              </g>
            </g>
          </g>
          <path id="Path_15899" data-name="Path 15899" d="M1774.422,833.395l-12.511,2.161s-12.161,1.933-9.884-.724c3.048-3.548,2.842-7.3,4.059-9.689a20.451,20.451,0,0,0,1.59-5.983,64.893,64.893,0,0,0,.585-7.868l-.16-.99,1.337-2.807,3.913-8.214s8.183,4.329,8.592,9.877c.375,5.06,3.156,18.7,2.478,24.236" transform="translate(-1484.493 -677.504)" fill="#efaea6"/>
          <g id="Group_16612" data-name="Group 16612" transform="translate(273.183 129.452)" opacity="0.14">
            <g id="Group_16611" data-name="Group 16611">
              <g id="Group_16610" data-name="Group 16610" clip-path="url(#clip-path-9)">
                <path id="Path_15900" data-name="Path 15900" d="M1790.635,861.8a64.907,64.907,0,0,0,.586-7.868l-.16-.99,1.337-2.807,1.422-.539a56.011,56.011,0,0,1,5.085,5c1.512,2.084-2.265,8.887-8.27,7.2" transform="translate(-1790.634 -849.593)" fill="#1f1f39"/>
              </g>
            </g>
          </g>
          <path id="Path_15901" data-name="Path 15901" d="M1741.845,925.764c-5.3-1.253-5.445,7.7-10.709,8.349-2.779.342-2.214-.938-3.585-2.21-.844-.783-1.642-1.668-2.868-.259-24.939,28.669,5.046,97.159,1.927,102.151-2.551,4.083,19.862,11.851,33.574,7.8,18.805-5.559,16.78-26.807,16.064-30.852s-15.779-72.678-15.779-72.678a103.9,103.9,0,0,1-18.624-12.3" transform="translate(-1453.093 -784.589)" fill="#fff"/>
          <path id="Path_15902" data-name="Path 15902" d="M1244.076,729.189c.1,1.921-1.979,57.117,18.3,62.521,8.971,2.391,40.222,7.016,45.414,10.839,3.952,2.91,7.979,12.192,7.434,17.374-.441,4.167-.99,8.192-1.193,11.171-.52,7.652-5.206,39.977,4.315,49.38,6.052,5.976,10.828,5.151,14.158,1.736,5.715-5.861-1.269-31.065-.009-56.077.974-19.337-8.172-30.31-6.829-46.314,1.018-12.108.182-16.7.182-16.7-28.853,12.813-48.125,9.688-54.718,7.637-8.47-2.633-5.209-39.8-8.354-42.047-1.239-.885-18.951-4.118-18.7.48" transform="translate(-1054.261 -616.063)" fill="#0267a4"/>
          <g id="Group_16615" data-name="Group 16615" transform="translate(189.797 110.716)">
            <g id="Group_16614" data-name="Group 16614">
              <g id="Group_16613" data-name="Group 16613" clip-path="url(#clip-path-10)">
                <path id="Path_15903" data-name="Path 15903" d="M1244.076,729.189c.1,1.921-1.979,57.117,18.3,62.521,8.971,2.391,40.222,7.016,45.414,10.839,3.952,2.91,7.979,12.192,7.434,17.374-.441,4.167-.99,8.192-1.193,11.171-.52,7.652-5.206,39.977,4.315,49.38,6.052,5.976,10.828,5.151,14.158,1.736,5.715-5.861-1.269-31.065-.009-56.077.974-19.337-8.172-30.31-6.829-46.314,1.018-12.108.182-16.7.182-16.7-28.853,12.813-48.125,9.688-54.718,7.637-8.47-2.633-5.209-39.8-8.354-42.047-1.239-.885-18.951-4.118-18.7.48" transform="translate(-1244.059 -726.779)" fill="#103e6b"/>
              </g>
            </g>
          </g>
          <path id="Path_15904" data-name="Path 15904" d="M1943,1054.834c-2.156,9.943-26.912.345-34.547-7.3-6.33-6.341-.545-15.121-5.658-30.306-2.586-7.672-6.532-20.9-8.17-31.19-.16-1.013-.3-2-.413-2.949-.95-7.969-1.533-16.6-1.884-24.7-.16-3.683-.273-7.26-.348-10.614-.048-2.152-.08-4.216-.1-6.158-.077-7.189.009-12.743.1-15.187a37.071,37.071,0,0,1,24.528,11.011,18.944,18.944,0,0,1,3.551,5.626c.893,1.986,6.373,10.953,7.266,20.878,1.077,11.98,1.265,20.711,1.68,27.937.458,7.965,3.151,15.334,4,28.085.764,11.45,11.123,29.685,10,34.867" transform="translate(-1603.222 -785.255)" fill="#1b68b3"/>
          <g id="Group_16618" data-name="Group 16618" transform="translate(289.106 165.767)" opacity="0.18">
            <g id="Group_16617" data-name="Group 16617">
              <g id="Group_16616" data-name="Group 16616" clip-path="url(#clip-path-11)">
                <path id="Path_15905" data-name="Path 15905" d="M1910.318,1087.619c.182,3.159-10.225,37.129-11.356,43.407-.16-1.013-1.961-10.391-2.075-11.34-.95-7.969-1.533-16.6-1.883-24.7Z" transform="translate(-1895.003 -1087.619)" fill="#103e6b"/>
              </g>
            </g>
          </g>
          <path id="Path_15906" data-name="Path 15906" d="M1728.047,729.2c-2.152,4.37-10.433,11.056-7.381,12.274s-4.556,9.228-1.353,10.641c7.76,3.423,18.762,2.08,21.273-1.312s6.136-14.231,6.136-14.231Z" transform="translate(-1456.329 -618.114)" fill="#efaea6"/>
          <path id="Path_15907" data-name="Path 15907" d="M1765.152,685.229c-2.593-.706-2.9-.15-4.308-1.691s2.54-2.731-.489-4.571-6.507-3.47-5.386-7.319c1.622-5.57,6.047-2.82,8.74-1.016,1.733,1.161,3.818-2.765,7.527-1.068,2.909,1.331,1.881,2.924,4.426,4.227,1.536.787,5.684-.591,7.416,2.332,3.213,5.422-2.36,8.255-.018,13.6,2.731,6.239-11.361,11.538-12.113,9.91-.878-1.9,3-5.669,2-7.318-1.5-2.488-2.486-.768-4.946.2-2.628,1.037-6.209-.277-2.564-2.855s2.06-3.8-.287-4.437" transform="translate(-1487.044 -566.539)" fill="#1f1f39"/>
          <path id="Path_15908" data-name="Path 15908" d="M1140.826,690.345a.517.517,0,0,0,.211-.044l-.009,0-.026.02c-.015.008-.044.036-.068.054a3.819,3.819,0,0,0-.371.382c-.266.306-.536.668-.8,1.036-.529.743-1.044,1.532-1.559,2.325-1.028,1.589-2.055,3.2-3.115,4.8a114.043,114.043,0,0,1-6.8,9.323,75.59,75.59,0,0,1-7.986,8.424,56.614,56.614,0,0,1-9.418,6.9,46.912,46.912,0,0,1-10.793,4.594,45.733,45.733,0,0,1-11.622,1.7,53,53,0,0,1-11.659-1.12c-.957-.191-1.9-.42-2.85-.654l-.706-.187-.353-.094c-.118-.032-.241-.073-.361-.109l-.726-.225c-.241-.077-.486-.144-.72-.241a27.041,27.041,0,0,1-5.4-2.66,36.783,36.783,0,0,1-4.735-3.6,46.766,46.766,0,0,1-4.141-4.188q-1.931-2.208-3.651-4.567t-3.255-4.822c-1.02-1.644-2-3.309-2.933-5s-1.826-3.4-2.67-5.128-1.67-3.468-2.449-5.225c-.4-.875-.771-1.76-1.154-2.641s-.749-1.768-1.105-2.659c-2.9-7.112-5.368-14.375-7.55-21.715q-1.638-5.506-3.05-11.074-.707-2.783-1.359-5.582-.326-1.4-.634-2.806c-.206-.941-.4-1.869-.6-2.835a1.761,1.761,0,1,1,3.455-.685l0,.01,0,.013c.173.9.367,1.836.563,2.756s.4,1.845.608,2.767q.623,2.766,1.309,5.52,1.368,5.508,2.949,10.96c2.113,7.264,4.511,14.446,7.315,21.452.345.878.713,1.746,1.071,2.619s.733,1.737,1.117,2.6q1.13,2.591,2.366,5.128c.815,1.7,1.684,3.362,2.573,5.015s1.839,3.269,2.816,4.865,2.022,3.143,3.1,4.659,2.24,2.969,3.45,4.369a43.723,43.723,0,0,0,3.858,3.949,33.774,33.774,0,0,0,4.322,3.33,24.078,24.078,0,0,0,4.806,2.405c.206.088.42.146.632.215l.636.2c.107.033.209.069.32.1l.336.091.673.182c.9.229,1.8.453,2.711.639a50.121,50.121,0,0,0,11.02,1.127,42.919,42.919,0,0,0,10.92-1.535,44.165,44.165,0,0,0,10.189-4.268,53.958,53.958,0,0,0,9.01-6.521,73,73,0,0,0,7.756-8.088A111.514,111.514,0,0,0,1133,697.53c1.054-1.569,2.08-3.16,3.129-4.76.527-.8,1.057-1.6,1.636-2.406.293-.4.593-.8.953-1.216a6.1,6.1,0,0,1,.631-.632c.069-.056.129-.109.213-.167l.12-.084.143-.087a1.979,1.979,0,0,1,.881-.271,1.22,1.22,0,0,1,.117,2.438" transform="translate(-869.788 -543.057)" fill="#252530"/>
          <path id="Path_15909" data-name="Path 15909" d="M2185.827,801.68c3.586,0,10.956,6.361.423,7.38s-26.307.55-32.689.571c-10.419.035-13-.391-12.921-4.648.048-2.464,1.379-4.059,6.872-4.705,5.713-.672,2.794-7.027,9.769-6.834,5.941.164,6.547,8.482,11.983,6.443s4.3,3.517,8.272,4.536c4.37,1.12,4.706-2.743,8.291-2.743" transform="translate(-1814.057 -672.553)" fill="#74b0ea"/>
          <path id="Path_15946" data-name="Path 15946" d="M2185.827,801.68c3.586,0,10.956,6.361.423,7.38s-26.307.55-32.689.571c-10.419.035-13-.391-12.921-4.648.048-2.464,1.379-4.059,6.872-4.705,5.713-.672,2.794-7.027,9.769-6.834,5.941.164,6.547,8.482,11.983,6.443s4.3,3.517,8.272,4.536c4.37,1.12,4.706-2.743,8.291-2.743" transform="translate(-2110.175 -543.437)" fill="#74b0ea"/>
          <path id="Path_15910" data-name="Path 15910" d="M693.45,1220.538a98.662,98.662,0,0,1-28.795-2.38,6.845,6.845,0,0,1-4.041-2.019c-1.515-1.876-1.059-5.035.574-6.786a7.5,7.5,0,0,1,6.367-2.032c1.454.156,2.946.586,4.349.14,1.754-.557,2.915-2.319,4.091-3.854s2.768-3.052,4.58-2.812c1.358.18,2.429,1.3,3.637,2.007s2.964.778,3.657-.518c1.483-2.773-.6-10.378,7.039-10.378,11.025,0,9.224,7.654,10.551,9.278,2.012,2.462,5.593,1.92,8.507,1.087s6.384-1.624,8.633.577c1.95,1.909,2.15,5.409,4.224,7.154,2.207,1.857,5.341.866,8.015.032s6.121-1.14,7.673,1.394c1.3,2.125.331,5.21-1.519,6.768s-4.29,1.938-6.616,2.092c-15.1,1.005-28.814-.558-40.927.249" transform="translate(-559.046 -1010.229)" fill="#74b0ea"/>
          <path id="Path_15911" data-name="Path 15911" d="M750.322,430.571a8.6,8.6,0,0,1-1.149,3.982c-.773,1.124-2.1,1.9-4.435,1.728-4.355-.323-4.674-2.531-10.462-2.453s-17.117,5.856-20.813,5.345c-3.363-.466-87.375,4.477-102.675-.022a8.179,8.179,0,0,1-1.325-.5c-.681-.338-1.045-.718-1.053-1.145-.01-.533.011-1.328.061-2.343.512-10.557,4.1-44.917,7.646-55.73.708-2.157,1.415-3.377,2.1-3.286a23.562,23.562,0,0,1,3.214.89c16.152,5.262,81.007,31.675,92.654,34.671,12.331,3.171,16.714,11.91,20.23,12.639,4.973,1.028,4.724-.9,12.048.223,3.947.606,4.123,4.449,3.962,6" transform="translate(-515.587 -318.922)" fill="#454554"/>
          <g id="Group_16621" data-name="Group 16621" transform="translate(95.201 92.567)" opacity="0.18">
            <g id="Group_16620" data-name="Group 16620">
              <g id="Group_16619" data-name="Group 16619" clip-path="url(#clip-path-12)">
                <path id="Path_15912" data-name="Path 15912" d="M762.4,630.886c-.773,1.124-2.1,1.9-4.435,1.728-4.355-.323-4.674-2.531-10.462-2.453s-17.117,5.856-20.813,5.345c-3.363-.466-87.376,4.477-102.675-.021.066-.09.13-.18.194-.27q1.242-1.742,2.474-3.462c4.821-6.743,9.374-13.1,12.573-17.559,2.8-3.911,4.57-6.369,4.57-6.369.529,1,1.839,2.005,3.779,3,17.184,8.756,83.822,16.514,95.908,16.062,10.366-.389,16.582,2.61,18.888,4.005" transform="translate(-624.013 -607.823)" fill="#1f1f39"/>
              </g>
            </g>
          </g>
          <path id="Path_15913" data-name="Path 15913" d="M572.046,409.715c-1.824,12.477-8.392,22-16.063,25.526a14.994,14.994,0,0,1-8.9,1.291c-9.18-1.586-14.66-16.344-12.153-33.5s10.611-30.641,19.845-29.408a12.285,12.285,0,0,1,3.867,1.213h0a.045.045,0,0,0,.01.008,18.382,18.382,0,0,1,5.574,4.468c5.928,6.81,9.528,18.682,7.817,30.4" transform="translate(-452.805 -316.721)" fill="#1f1f39"/>
          <path id="Path_15914" data-name="Path 15914" d="M583.5,424.775c-.073,1.022-.183,2.044-.331,3.059q-.119.806-.264,1.61a51.583,51.583,0,0,1-2.752,9.706q-.254.643-.522,1.268a39.225,39.225,0,0,1-3.729,6.87c-3.115,4.5-6.8,7.224-10.351,6.705a6.932,6.932,0,0,1-3.665-1.841,12.05,12.05,0,0,1-1.838-2.172,22.134,22.134,0,0,1-2.575-5.53c-.069-.209-.136-.421-.2-.636a47.936,47.936,0,0,1-1.188-19.935c2.034-13.917,8.943-27.243,16.422-26.149,6.934,1.013,11.923,14.062,10.994,27.048" transform="translate(-470.798 -337.159)" fill="#fff"/>
          <path id="Path_15915" data-name="Path 15915" d="M1003.649,457.441a5.049,5.049,0,0,1-1.407,2.447,2.163,2.163,0,0,1-1.564.557c-4.359-.261-5.416-2.2-11.2-2.127-5.727.076-17,7.595-20.825,7.26-.041,0-.081-.008-.121-.014-3.362-.465-87.376,4.478-102.675-.021a8.235,8.235,0,0,1-1.321-.494l0,0c-.68-.339-1.045-.719-1.053-1.146,0-.171,0-.368,0-.592,0-.209.009-.441.017-.694.011-.319.026-.673.044-1.057.513-10.557,4.1-44.918,7.646-55.73.708-2.157,1.416-3.378,2.1-3.286a23.459,23.459,0,0,1,3.2.883l.018.006c16.152,5.262,81.006,31.675,92.654,34.671,12.33,3.172,17.808,13.487,21.322,14.225,4.658.979,2.393-.166,9.719.962,3.945.606,3.864,2.6,3.46,4.15" transform="translate(-731.741 -341.29)" fill="#454554"/>
          <g id="Group_16624" data-name="Group 16624" transform="translate(134.114 96.595)" opacity="0.18">
            <g id="Group_16623" data-name="Group 16623">
              <g id="Group_16622" data-name="Group 16622" clip-path="url(#clip-path-13)">
                <path id="Path_15916" data-name="Path 15916" d="M1015.46,656.223a2.164,2.164,0,0,1-1.564.557c-4.359-.261-5.416-2.2-11.2-2.127-5.727.076-17,7.595-20.825,7.261-.041,0-.081-.008-.121-.014-3.363-.465-87.376,4.478-102.675-.021.067-.09.131-.18.2-.27q.57-.8,1.138-1.594l1.335-1.867h0l1.117-1.562c1.828-2.557,3.605-5.039,5.268-7.364a0,0,0,0,0,0,0l6.183-8.628s0,0,0,0c2.8-3.91,4.569-6.368,4.569-6.368.53,1,1.84,2,3.779,2.995,17.184,8.757,83.822,16.515,95.908,16.062,8.167-.307,13.758,1.491,16.89,2.948" transform="translate(-879.072 -634.219)" fill="#1f1f39"/>
              </g>
            </g>
          </g>
          <path id="Path_15917" data-name="Path 15917" d="M827.109,436.109c-1.824,12.477-8.392,22-16.063,25.526a14.994,14.994,0,0,1-8.9,1.291c-9.18-1.586-14.66-16.344-12.153-33.5s10.611-30.641,19.845-29.407a12.289,12.289,0,0,1,3.867,1.213h0a.048.048,0,0,0,.01.008,18.382,18.382,0,0,1,5.574,4.468c5.928,6.81,9.528,18.682,7.817,30.4" transform="translate(-668.955 -339.088)" fill="#1f1f39"/>
          <path id="Path_15918" data-name="Path 15918" d="M838.233,454.226a51.227,51.227,0,0,1-1.709,7.57q-.471,1.542-1.028,3.021-.469,1.247-.993,2.436-.49,1.121-1.027,2.179a28.041,28.041,0,0,1-6.142,8.414c-.031.027-.061.055-.093.081l-.2.171c-2.089,1.729-4.283,2.6-6.425,2.285a6.049,6.049,0,0,1-1.5-.423,7.024,7.024,0,0,1-1.481-.854,12.308,12.308,0,0,1-3.285-3.982c-.067-.12-.133-.241-.2-.365a30.741,30.741,0,0,1-2.828-8.862,50.262,50.262,0,0,1-.177-15.629c2.034-13.918,8.942-27.243,16.422-26.151s12.695,16.19,10.661,30.108" transform="translate(-686.954 -359.523)" fill="#fff"/>
          <path id="Path_15919" data-name="Path 15919" d="M1018.987,520.4c5.039-1.092,5.628-3.365,6.142-10.33,1.067,6.512,2.063,8.945,7.282,9.37-4.4,2.149-5.94,2.926-6.273,10.55-1.589-7.6-2.622-8.218-7.152-9.59" transform="translate(-863.528 -432.417)" fill="#ffb763"/>
          <path id="Path_15920" data-name="Path 15920" d="M695.794,765.064c6.6-.813,7.546-3.152,8.771-10.4.856,6.878,1.947,9.486,8.66,10.27-5.855,1.961-7.913,2.673-8.957,10.622-1.442-8.051-2.728-8.763-8.473-10.491" transform="translate(-589.642 -639.693)" fill="#ffb763"/>
          <g id="Group_16627" data-name="Group 16627" transform="translate(208.282 102.371)" opacity="0.18">
            <g id="Group_16626" data-name="Group 16626">
              <g id="Group_16625" data-name="Group 16625" clip-path="url(#clip-path-14)">
                <path id="Path_15921" data-name="Path 15921" d="M1365.652,679.183c3.494.776,9.365,1.569,9.567.456s.557-4.961-.861-5.062-1.772-2.278-3.493-2.48c-1.124-.132-1.756.836-2.329,1.265-.607.456-1.67-.354-2.43.658-.671.895-1.367,4.961-.456,5.163" transform="translate(-1365.216 -672.083)" fill="#1f1f39"/>
              </g>
            </g>
          </g>
          <path id="Path_15922" data-name="Path 15922" d="M1388.2,690.125c-.032.787-.042,1.624-.044,2.452s0,1.665.016,2.5q.036,2.506.134,5.019.191,5.022.588,10.039c.53,6.683,1.314,13.347,2.48,19.929.586,3.29,1.266,6.559,2.083,9.785.4,1.615.854,3.214,1.336,4.8.238.795.5,1.58.756,2.367l.407,1.171c.134.391.284.775.425,1.163a51.235,51.235,0,0,0,4.2,8.854,29.956,29.956,0,0,0,2.808,3.891,19.89,19.89,0,0,0,3.421,3.183,15.208,15.208,0,0,0,4.089,2.067,20.241,20.241,0,0,0,4.6.952,24.8,24.8,0,0,0,4.764-.032,31.2,31.2,0,0,0,4.743-.872,39.281,39.281,0,0,0,9.008-3.7,49.488,49.488,0,0,0,8.047-5.647,59.234,59.234,0,0,0,12.538-15.217,68.2,68.2,0,0,0,7.3-18.433h0a1.22,1.22,0,0,1,2.377.556,70.74,70.74,0,0,1-7.4,19.187,61.945,61.945,0,0,1-12.975,16.034,52.311,52.311,0,0,1-8.461,6.051,43.763,43.763,0,0,1-4.688,2.327,39.88,39.88,0,0,1-4.966,1.738,34.2,34.2,0,0,1-5.2,1,27.894,27.894,0,0,1-5.352.084,23.352,23.352,0,0,1-5.312-1.053,19.957,19.957,0,0,1-2.554-1.032c-.214-.093-.414-.212-.617-.323l-.608-.338q-.588-.366-1.162-.753a23.075,23.075,0,0,1-4.018-3.661,33.19,33.19,0,0,1-3.157-4.286,54.479,54.479,0,0,1-4.565-9.385c-.151-.4-.312-.806-.455-1.212l-.435-1.218c-.275-.816-.554-1.631-.808-2.452-.515-1.64-.995-3.289-1.426-4.948-.872-3.315-1.6-6.658-2.228-10.013-1.252-6.713-2.11-13.476-2.709-20.255q-.447-5.085-.69-10.186-.12-2.551-.183-5.11-.029-1.28-.039-2.566c0-.861,0-1.714.024-2.615a1.96,1.96,0,1,1,3.919.123v.033Z" transform="translate(-1173.073 -583.259)" fill="#252530"/>
          <path id="Path_15923" data-name="Path 15923" d="M1494.057,679.129c.085-1.989-6.347-7.458-5.492-8.742,1.591-2.391,4.626,1.189,6.743-3.115,1.649-3.353-3.663-10.035.939-10.455,10.77-.982,13.542,7.539,9.617,15.858-3.051,6.465-.07,11.874-1.314,17.786s-12.289-2.56-12.289-2.56a40.362,40.362,0,0,0,1.8-8.773" transform="translate(-1261.399 -556.71)" fill="#efaea6"/>
          <path id="Path_15924" data-name="Path 15924" d="M1536.331,823.711c-26.767,15.334-63.144,69.194-49.265-17.514.334-2.084-16.215-8.4-16.876-5.219-28.521,137.181,66.87,54.911,78.649,48.158,4.991-2.862,6.17-21.356-1.619-22.687s-10.889-2.737-10.889-2.737" transform="translate(-1241.405 -678.198)" fill="#1b68b3"/>
          <g id="Group_16630" data-name="Group 16630" transform="translate(277.298 147.999)" opacity="0.18">
            <g id="Group_16629" data-name="Group 16629">
              <g id="Group_16628" data-name="Group 16628" clip-path="url(#clip-path-15)">
                <path id="Path_15925" data-name="Path 15925" d="M1819.032,974.328c.553-.327,5.325,10.516,12.384,14.4a17.1,17.1,0,0,0,6.3,2.116,143.347,143.347,0,0,0,24.175.515c-1.736-3.754-1.854-5.547-4.646-9.024-6.094,1.554-15.018,2.493-18.43,1.922a24.894,24.894,0,0,1-7.065-2.366,41.426,41.426,0,0,1-10.07-7.453c-1.308-1.275-1.409-3.111-3.058-3.27-2.187-.214-.305,3.576.406,3.158" transform="translate(-1817.6 -971.161)" fill="#1f1f39"/>
              </g>
            </g>
          </g>
          <path id="Path_15926" data-name="Path 15926" d="M1805.652,962.789a2.735,2.735,0,0,1,3.14-2.461c1.648.159,1.744.838,3.053,2.114,3.932,3.832,9.856,8.6,17.134,9.821s24.542-7.444,35.245-4.468,13.443,12.882,28.945,16.271,32.7-2.256,37.273-1.2,7.307,2.229,7.087,4.05-2.692,4.714-6.009,5.824-31.99,1.413-39.473-.033c-12.217-2.361-22.164-14.078-30.055-15.237-3.321-.487-8.246-.134-13.527.36-7.271.68-15.217,1.628-20.585,1.019-10.336-1.172-18.084-13.732-18.793-13.314a2.821,2.821,0,0,1-2.679.414c-.9-.282-.879-2.125-.754-3.16" transform="translate(-1530.123 -813.965)" fill="#ff9c28"/>
          <path id="Path_15927" data-name="Path 15927" d="M1364.325,675.533c3.494.777,9.365,1.569,9.567.456s.557-4.961-.86-5.062-1.772-2.278-3.493-2.48c-1.124-.132-1.756.836-2.329,1.266-.607.456-1.67-.354-2.43.658-.671.895-1.367,4.961-.456,5.163" transform="translate(-1155.81 -566.62)" fill="#261d1f"/>
          <g id="Group_16636" data-name="Group 16636" transform="translate(92.229 58.117)" opacity="0.18">
            <g id="Group_16635" data-name="Group 16635">
              <g id="Group_16634" data-name="Group 16634" clip-path="url(#clip-path-16)">
                <path id="Path_15929" data-name="Path 15929" d="M631.541,416.886c-1.824,12.477-8.392,22-16.063,25.526-7.165-.051-15.119-.372-8.429-1.686,10.917-2.147,12.564-20.382,13.473-27.525s-1.737-17.936-7.692-28.8l5.308-2.4h0a.046.046,0,0,0,.01.008c.174.138,2.714,2.138,5.574,4.468,5.928,6.81,9.528,18.682,7.817,30.4" transform="translate(-604.529 -382.009)" fill="#3d3d59"/>
              </g>
            </g>
          </g>
          <g id="Group_16666" data-name="Group 16666" transform="translate(131.142 62.143)" opacity="0.18">
            <g id="Group_16665" data-name="Group 16665">
              <g id="Group_16664" data-name="Group 16664" clip-path="url(#clip-path-17)">
                <path id="Path_15945" data-name="Path 15945" d="M886.6,443.28c-1.824,12.477-8.392,22-16.063,25.526-7.166-.051-15.119-.372-8.429-1.686,10.917-2.147,12.564-20.382,13.473-27.525s-1.737-17.936-7.692-28.8l5.308-2.4h0l.01.007c.174.138,2.714,2.138,5.574,4.468,5.928,6.809,9.528,18.682,7.817,30.4" transform="translate(-859.591 -408.403)" fill="#3d3d59"/>
              </g>
            </g>
          </g>
        </g>
      </g>
    </g>
  </g>
</svg>
