<svg viewBox="0 0 32 32" fill="currentColor" xmlns="http://www.w3.org/2000/svg">
<path d="M14.325 10.7375C14.075 10.5656 14 10.3812 14 10.25H12.5C12.5 10.9938 12.9281 11.6 13.475 11.975L14.325 10.7375ZM9.75 12.5H13.7906V11H9.75V12.5ZM9.5 15.1906V12.75H8V15.1906H9.5ZM9.81562 15.9406C9.95 15.8094 10.1031 15.75 10.25 15.75V14.25C9.67188 14.25 9.15937 14.4906 8.77812 14.8562L9.81875 15.9375L9.81562 15.9406ZM10.25 15.75C10.5594 15.75 11 16.0844 11 16.75H12.5C12.5 15.4812 11.5969 14.25 10.25 14.25V15.75ZM11 16.75C11 17.4156 10.5594 17.75 10.25 17.75V19.25C11.5969 19.25 12.5 18.0188 12.5 16.75H11ZM10.25 17.75C10.1031 17.75 9.95312 17.6906 9.81562 17.5594L8.77812 18.6438C9.15937 19.0094 9.67188 19.25 10.25 19.25V17.75ZM9.5 22.25V18.3094H8V22.25H9.5ZM13.6906 22.5H9.75V24H13.6906V22.5ZM12.75 21.75C12.75 22.3281 12.9906 22.8406 13.3562 23.2219L14.4375 22.1812C14.3063 22.0469 14.2469 21.8938 14.2469 21.7469H12.75V21.75ZM15.25 19.5C13.9812 19.5 12.75 20.4031 12.75 21.75H14.25C14.25 21.4406 14.5844 21 15.25 21V19.5ZM17.75 21.75C17.75 20.4031 16.5188 19.5 15.25 19.5V21C15.9156 21 16.25 21.4406 16.25 21.75H17.75ZM17.1438 23.2219C17.5094 22.8406 17.75 22.3281 17.75 21.75H16.25C16.25 21.8969 16.1906 22.0469 16.0594 22.1844L17.1406 23.225L17.1438 23.2219ZM19.25 22.5H16.8094V24H19.25V22.5ZM19.5 18.2094V22.25H21V18.2094H19.5ZM21.75 18C21.6187 18 21.4344 17.925 21.2625 17.675L20.025 18.525C20.4 19.075 21.0063 19.5 21.75 19.5V18ZM22.5 16.75C22.5 17.1562 22.375 17.4937 22.2094 17.7156C22.0438 17.9375 21.875 18 21.75 18V19.5C22.4531 19.5 23.0312 19.1188 23.4094 18.6156C23.7875 18.1125 24 17.45 24 16.75H22.5ZM21.75 15.5C21.875 15.5 22.0469 15.5656 22.2094 15.7844C22.3719 16.0031 22.5 16.3438 22.5 16.75H24C24 16.05 23.7875 15.3906 23.4094 14.8844C23.0312 14.3781 22.4531 14 21.75 14V15.5ZM21.2625 15.825C21.4344 15.575 21.6187 15.5 21.75 15.5V14C21.0063 14 20.4 14.4281 20.025 14.975L21.2625 15.825ZM19.5 12.75V15.2906H21V12.75H19.5ZM16.7094 12.5H19.25V11H16.7094V12.5ZM16.5 10.25C16.5 10.3812 16.425 10.5656 16.175 10.7375L17.025 11.975C17.5719 11.6 18 10.9938 18 10.25H16.5ZM15.25 9.5C15.6562 9.5 15.9937 9.625 16.2156 9.79062C16.4375 9.95625 16.5 10.125 16.5 10.25H18C18 9.54688 17.6188 8.96875 17.1156 8.59062C16.6125 8.2125 15.95 8 15.25 8V9.5ZM14 10.25C14 10.125 14.0656 9.95312 14.2844 9.79062C14.5031 9.62812 14.8438 9.5 15.25 9.5V8C14.55 8 13.8906 8.2125 13.3844 8.59062C12.8781 8.96875 12.5 9.54688 12.5 10.25H14ZM17.25 11.5406C17.25 11.7375 17.1469 11.8906 17.025 11.975L16.175 10.7375C15.9313 10.9062 15.75 11.1938 15.75 11.5406H17.25ZM20.4594 18.75C20.2625 18.75 20.1094 18.6469 20.025 18.525L21.2625 17.675C21.0969 17.4313 20.8062 17.25 20.4625 17.25V18.75H20.4594ZM21 18.2094C21 18.5063 20.7594 18.75 20.4594 18.75V17.25C19.9281 17.25 19.5 17.6813 19.5 18.2094H21ZM19.25 24C20.2156 24 21 23.2156 21 22.25H19.5C19.5 22.3875 19.3875 22.5 19.25 22.5V24ZM15.75 22.9406C15.75 23.525 16.225 24 16.8094 24V22.5C17.0531 22.5 17.25 22.6969 17.25 22.9406H15.75ZM16.0594 22.1844C15.8875 22.3625 15.75 22.625 15.75 22.9406H17.25C17.25 23.0781 17.1906 23.1719 17.1438 23.2219L16.0625 22.1812L16.0594 22.1844ZM13.6906 24C14.275 24 14.75 23.525 14.75 22.9406H13.25C13.25 22.6969 13.4469 22.5 13.6906 22.5V24ZM9.05938 17.25C8.475 17.25 8 17.725 8 18.3094H9.5C9.5 18.5531 9.30313 18.75 9.05938 18.75V17.25ZM9.81562 17.5594C9.6375 17.3906 9.375 17.25 9.05938 17.25V18.75C8.92188 18.75 8.82812 18.6906 8.77812 18.6438L9.81875 17.5625L9.81562 17.5594ZM21 12.75C21 11.7844 20.2156 11 19.25 11V12.5C19.3875 12.5 19.5 12.6125 19.5 12.75H21ZM8 15.1906C8 15.775 8.475 16.25 9.05938 16.25V14.75C9.30313 14.75 9.5 14.9469 9.5 15.1906H8ZM20.4594 14.75C20.7563 14.75 21 14.9906 21 15.2906H19.5C19.5 15.8219 19.9313 16.25 20.4594 16.25V14.75ZM9.75 11C8.78438 11 8 11.7844 8 12.75H9.5C9.5 12.6125 9.6125 12.5 9.75 12.5V11ZM14.75 22.9406C14.75 22.625 14.6094 22.3625 14.4406 22.1844L13.3594 23.225C13.3125 23.175 13.2531 23.0813 13.2531 22.9438H14.7531L14.75 22.9406ZM20.025 14.975C20.1094 14.8531 20.2625 14.75 20.4594 14.75V16.25C20.8063 16.25 21.0938 16.0687 21.2594 15.825L20.0219 14.975H20.025ZM13.25 11.5406C13.25 11.2438 13.4906 11 13.7906 11V12.5C14.3219 12.5 14.75 12.0687 14.75 11.5406H13.25ZM16.7094 11C17.0063 11 17.25 11.2406 17.25 11.5406H15.75C15.75 12.0719 16.1813 12.5 16.7094 12.5V11ZM9.05938 16.25C9.375 16.25 9.6375 16.1094 9.81562 15.9406L8.77812 14.8562C8.82812 14.8094 8.92188 14.75 9.05938 14.75V16.25ZM8 22.25C8 23.2156 8.78438 24 9.75 24V22.5C9.6125 22.5 9.5 22.3875 9.5 22.25H8ZM13.475 11.975C13.3531 11.8906 13.25 11.7375 13.25 11.5406H14.75C14.75 11.1938 14.5687 10.9062 14.325 10.7406L13.475 11.9781V11.975Z" fill="currentColor"/>
</svg>
