<svg width="32" viewBox="0 0 32 32" fill="currentColor" xmlns="http://www.w3.org/2000/svg">
<path d="M16.0016 24.9375C20.938 24.9375 24.9378 20.9371 24.9378 16C24.9378 11.0629 20.938 7.0625 16.0016 7.0625C11.0652 7.0625 7.06542 11.0629 7.06542 16C7.06542 16.2363 7.07401 16.4684 7.0912 16.7004L5.08055 17.2934C5.029 16.868 5.00322 16.4383 5.00322 16C5.00322 9.92422 9.92672 5 16.0016 5C22.0765 5 27 9.92422 27 16C27 22.0758 22.0765 27 16.0016 27C15.5634 27 15.1338 26.9742 14.7084 26.9227L15.3013 24.9074C15.5333 24.9246 15.7653 24.9332 16.0016 24.9332V24.9375ZM15.8985 22.875L16.5129 20.7867C18.9317 20.5289 20.8134 18.4836 20.8134 16C20.8134 13.3402 18.661 11.1875 16.0016 11.1875C13.5184 11.1875 11.4734 13.0695 11.2156 15.4887L9.12762 16.1031C9.12762 16.0687 9.12762 16.0344 9.12762 16C9.12762 12.2016 12.2037 9.125 16.0016 9.125C19.7995 9.125 22.8756 12.2016 22.8756 16C22.8756 19.7984 19.7995 22.875 16.0016 22.875C15.9672 22.875 15.9329 22.875 15.8985 22.875ZM6.67876 18.2559L15.4775 15.6691C15.9973 15.5145 16.4828 16 16.3324 16.5242L13.7461 25.3242C13.5699 25.9215 12.7494 25.9945 12.4701 25.4359L11.2371 22.9738C11.207 22.918 11.1726 22.8621 11.1297 22.8148L7.34897 26.5961C6.81194 27.1332 5.9398 27.1332 5.40277 26.5961C4.86574 26.059 4.86574 25.1867 5.40277 24.6496L9.18347 20.8684C9.13621 20.8254 9.08466 20.7867 9.02451 20.7609L6.56706 19.532C6.00854 19.2527 6.08158 18.432 6.67876 18.2559Z" fill="currentColor"/>
</svg>
