<svg viewBox="0 0 32 32" fill="none" xmlns="http://www.w3.org/2000/svg">
<path d="M17 8.90625C17 8.49062 16.6656 8.15625 16.25 8.15625C15.8344 8.15625 15.5 8.49062 15.5 8.90625V16.4062C15.5 16.8219 15.8344 17.1562 16.25 17.1562C16.6656 17.1562 17 16.8219 17 16.4062V8.90625ZM12.4437 11.5094C12.7781 11.2625 12.8469 10.7937 12.6031 10.4594C12.3594 10.125 11.8875 10.0562 11.5531 10.3C9.70312 11.6656 8.5 13.8656 8.5 16.3438C8.5 20.4875 11.8594 23.8438 16 23.8438C20.1406 23.8438 23.5 20.4844 23.5 16.3438C23.5 13.8656 22.2969 11.6656 20.4438 10.3031C20.1094 10.0562 19.6406 10.1281 19.3938 10.4625C19.1469 10.7969 19.2188 11.2656 19.5531 11.5125C21.0375 12.6062 21.9969 14.3625 21.9969 16.3469C21.9969 19.6594 19.3094 22.3469 15.9969 22.3469C12.6844 22.3469 10 19.6562 10 16.3438C10 14.3625 10.9594 12.6031 12.4437 11.5094Z" fill="currentColor"/>
</svg>
