<svg viewBox="0 0 32 32" fill="currentColor" xmlns="http://www.w3.org/2000/svg">
<path d="M13.7702 15.7373C13.0802 13.8573 13.8102 11.8048 15.4127 10.7498C15.3002 10.6948 15.1852 10.6448 15.0652 10.5998C13.3502 9.97728 11.4502 10.8598 10.8202 12.5748L10.4552 13.5748C10.1002 14.5448 9.44015 15.3748 8.57515 15.9423L8.37265 16.0748C8.11765 16.2423 7.98015 16.5373 8.01515 16.8373C8.05015 17.1373 8.25015 17.3923 8.53515 17.4948L14.2977 19.5923L14.3252 19.4948C14.5602 18.6823 14.5277 17.8148 14.2377 17.0173L13.7702 15.7373ZM15.6502 15.0548C15.2252 13.8948 15.8226 12.6098 16.9826 12.1873C18.1427 11.7648 19.4302 12.3623 19.8552 13.5223L20.3252 14.8023C20.7202 15.8798 21.4152 16.8223 22.3277 17.5148L16.3427 19.6923C16.5902 18.5773 16.5152 17.4123 16.1177 16.3323L15.6502 15.0548ZM15.0977 19.7148L14.9827 20.1098C14.9002 20.3998 14.9852 20.7098 15.2077 20.9148C15.4302 21.1198 15.7452 21.1848 16.0277 21.0823L23.4652 18.3773C23.7477 18.2748 23.9502 18.0223 23.9852 17.7223C24.0202 17.4223 23.8852 17.1298 23.6352 16.9623L23.2927 16.7323C22.4477 16.1648 21.8027 15.3473 21.4527 14.3923L20.9827 13.1123C20.3302 11.3298 18.3527 10.4123 16.5702 11.0598C14.7877 11.7073 13.8702 13.6798 14.5227 15.4648L14.9927 16.7448C15.3427 17.6998 15.3802 18.7398 15.1002 19.7173L15.0977 19.7148ZM20.0202 21.5998C20.9102 21.5998 21.6327 20.8798 21.6327 19.9923C21.6327 19.9598 21.6327 19.9273 21.6302 19.8948L18.7277 20.9523C19.0227 21.3448 19.4927 21.5998 20.0202 21.5998ZM10.3577 19.0023C10.3502 19.0648 10.3477 19.1273 10.3477 19.1898C10.3477 20.0773 11.0702 20.7973 11.9602 20.7973C12.5177 20.7973 13.0077 20.5148 13.2977 20.0873L10.3577 19.0023Z" fill="currentColor"/>
</svg>
