<svg id="Icon-Dublicate" xmlns="http://www.w3.org/2000/svg" width="32" height="32" viewBox="0 0 32 32">
  <rect id="Rectangle_8203" data-name="Rectangle 8203" width="32" height="32" fill="none"/>
  <path id="copy-regular" d="M15.7,2.207,13.782.293A1,1,0,0,0,13.074,0H7.962a2,2,0,0,0-2,2v8A2.042,2.042,0,0,0,7.99,12h6a2.006,2.006,0,0,0,2-2V2.914A1,1,0,0,0,15.7,2.207ZM14.49,10a.5.5,0,0,1-.5.5H7.962a.5.5,0,0,1-.5-.5V2a.5.5,0,0,1,.5-.5h4L11.99,3a1,1,0,0,0,1,1h1.472v6Zm-6,4a.5.5,0,0,1-.5.5H1.962a.5.5,0,0,1-.5-.5L1.49,6a.5.5,0,0,1,.5-.5h3V4h-3a2,2,0,0,0-2,2v8a2,2,0,0,0,2,2h6a2.006,2.006,0,0,0,2-2V13H8.518Z" transform="translate(8.01 8)" fill='currentColor'/>
</svg>