<svg viewBox="0 0 32 32" fill="currentColor" xmlns="http://www.w3.org/2000/svg">
<path d="M16.0014 22.5C19.592 22.5 22.5014 19.5906 22.5014 16C22.5014 12.4094 19.592 9.5 16.0014 9.5C12.4107 9.5 9.50137 12.4094 9.50137 16C9.50137 16.1719 9.50762 16.3406 9.52012 16.5094L8.05762 16.9406C8.02012 16.6313 8.00137 16.3188 8.00137 16C8.00137 11.5813 11.5826 8 16.0014 8C20.4201 8 24.0014 11.5813 24.0014 16C24.0014 20.4187 20.4201 24 16.0014 24C15.6826 24 15.3701 23.9813 15.0607 23.9438L15.492 22.4781C15.6607 22.4906 15.8295 22.4969 16.0014 22.4969V22.5ZM15.9264 21L16.3732 19.4812C18.1326 19.2937 19.5014 17.8062 19.5014 16C19.5014 14.0656 17.9357 12.5 16.0014 12.5C14.1951 12.5 12.7076 13.8688 12.5201 15.6281L11.0014 16.075C11.0014 16.05 11.0014 16.025 11.0014 16C11.0014 13.2375 13.2389 11 16.0014 11C18.7639 11 21.0014 13.2375 21.0014 16C21.0014 18.7625 18.7639 21 16.0014 21C15.9764 21 15.9514 21 15.9264 21ZM9.22012 17.6406L15.6201 15.7594C15.9982 15.6469 16.3514 16 16.242 16.3813L14.3607 22.7812C14.2326 23.2156 13.6357 23.2688 13.4326 22.8625L12.5357 21.0719C12.5139 21.0312 12.4889 20.9906 12.4576 20.9563L9.70762 23.7063C9.31699 24.0969 8.68262 24.0969 8.29199 23.7063C7.90137 23.3156 7.90137 22.6812 8.29199 22.2906L11.042 19.5406C11.0076 19.5094 10.9701 19.4812 10.9264 19.4625L9.13887 18.5688C8.73262 18.3656 8.78574 17.7688 9.22012 17.6406Z" fill="currentColor"/>
</svg>
