<svg viewBox="0 0 32 32" fill="currentColor" xmlns="http://www.w3.org/2000/svg">
<path d="M13.3664 14.6864C13.9694 14.6864 14.5478 14.456 14.9742 14.0458C15.4006 13.6357 15.6401 13.0794 15.6401 12.4993C15.6401 11.9193 15.4006 11.363 14.9742 10.9528C14.5478 10.5427 13.9694 10.3122 13.3664 10.3122C12.7634 10.3122 12.185 10.5427 11.7586 10.9528C11.3322 11.363 11.0927 11.9193 11.0927 12.4993C11.0927 13.0794 11.3322 13.6357 11.7586 14.0458C12.185 14.456 12.7634 14.6864 13.3664 14.6864ZM13.3664 9C14.3312 9 15.2566 9.36868 15.9388 10.0249C16.6211 10.6812 17.0043 11.5712 17.0043 12.4993C17.0043 13.4274 16.6211 14.3175 15.9388 14.9737C15.2566 15.63 14.3312 15.9986 13.3664 15.9986C12.4016 15.9986 11.4762 15.63 10.794 14.9737C10.1117 14.3175 9.72846 13.4274 9.72846 12.4993C9.72846 11.5712 10.1117 10.6812 10.794 10.0249C11.4762 9.36868 12.4016 9 13.3664 9ZM18.3316 21.685C18.3174 21.5921 18.3004 21.5019 18.2805 21.4116L19.5765 22.6583C19.423 22.8633 19.1729 23 18.8887 23H7.84412C7.378 22.9973 7 22.6337 7 22.1853C7 19.4925 9.26803 17.3109 12.0675 17.3109H13.3664H14.6653C15.1626 17.3109 15.6401 17.3792 16.0949 17.5077V18.4099C16.0949 18.5848 16.1176 18.7571 16.1602 18.9238C15.7026 18.7297 15.1967 18.6231 14.6653 18.6231H12.0675C10.2003 18.6231 8.65413 19.9545 8.40118 21.685H18.3316ZM17.9138 15.1238H20.2643C20.7474 15.1238 21.2107 15.307 21.5518 15.635L24.6014 18.5712C25.1329 19.0824 25.1329 19.9135 24.6014 20.4275L22.5153 22.4341C21.9838 22.9453 21.1198 22.9453 20.5854 22.4341L17.5358 19.4979C17.1948 19.1699 17.0043 18.7243 17.0043 18.2595V15.9986C17.0043 15.5147 17.4108 15.1238 17.9138 15.1238ZM19.9602 17.3109C19.9602 17.1369 19.8883 16.97 19.7604 16.8469C19.6325 16.7239 19.459 16.6548 19.2781 16.6548C19.0971 16.6548 18.9236 16.7239 18.7957 16.8469C18.6678 16.97 18.5959 17.1369 18.5959 17.3109C18.5959 17.4849 18.6678 17.6518 18.7957 17.7748C18.9236 17.8979 19.0971 17.967 19.2781 17.967C19.459 17.967 19.6325 17.8979 19.7604 17.7748C19.8883 17.6518 19.9602 17.4849 19.9602 17.3109Z" fill="currentColor"/>
</svg>
