<svg viewBox="0 0 32 32" fill="none" xmlns="http://www.w3.org/2000/svg">
<path d="M18.1326 18.0625H13.8673C11.7934 18.0625 9.80444 18.8593 8.33795 20.2775C6.87147 21.6957 6.04761 23.6193 6.04761 25.625C6.04761 25.9897 6.1974 26.3394 6.46403 26.5973C6.73067 26.8551 7.0923 27 7.46938 27H24.5306C24.9077 27 25.2693 26.8551 25.5359 26.5973C25.8026 26.3394 25.9524 25.9897 25.9524 25.625C25.9524 23.6193 25.1285 21.6957 23.662 20.2775C22.1955 18.8593 20.2066 18.0625 18.1326 18.0625ZM8.22434 24.9375C8.3975 23.6083 9.06636 22.3859 10.1054 21.4998C11.1444 20.6137 12.4821 20.1249 13.8673 20.125H18.1326C19.5174 20.1266 20.8541 20.6161 21.8927 21.5019C22.9314 22.3877 23.6007 23.609 23.7756 24.9375H8.22434ZM16 16C17.1248 16 18.2243 15.6774 19.1596 15.0731C20.0948 14.4687 20.8237 13.6098 21.2542 12.6048C21.6846 11.5998 21.7972 10.4939 21.5778 9.42701C21.3584 8.36011 20.8167 7.3801 20.0214 6.61092C19.226 5.84173 18.2127 5.3179 17.1095 5.10568C16.0063 4.89346 14.8628 5.00238 13.8236 5.41866C12.7845 5.83495 11.8963 6.5399 11.2714 7.44437C10.6465 8.34884 10.3129 9.41221 10.3129 10.5C10.3129 11.9587 10.9121 13.3576 11.9786 14.3891C13.0452 15.4205 14.4917 16 16 16ZM16 7.0625C16.703 7.0625 17.3902 7.26411 17.9747 7.64183C18.5592 8.01954 19.0148 8.55641 19.2838 9.18453C19.5529 9.81265 19.6233 10.5038 19.4861 11.1706C19.349 11.8374 19.0104 12.4499 18.5133 12.9307C18.0162 13.4114 17.3829 13.7388 16.6934 13.8715C16.0039 14.0041 15.2893 13.936 14.6398 13.6758C13.9903 13.4157 13.4352 12.9751 13.0446 12.4098C12.654 11.8445 12.4456 11.1799 12.4456 10.5C12.4456 9.58832 12.82 8.71398 13.4866 8.06932C14.1532 7.42467 15.0573 7.0625 16 7.0625Z" fill="currentColor"/>
</svg>
