<svg viewBox="0 0 32 32" fill="none" xmlns="http://www.w3.org/2000/svg">
<path d="M26.2867 15.3125C26.6734 15.3125 27 15.0117 27 14.625C27 9.30977 22.6902 5 17.375 5C16.9883 5 16.6875 5.32656 16.6875 5.71328V15.3125H26.2867ZM12.5625 17.375C12.5625 18.5137 13.4863 19.4375 14.625 19.4375H23.0941C21.9598 22.643 18.9047 24.9375 15.3125 24.9375C10.7578 24.9375 7.0625 21.2422 7.0625 16.6875C7.0625 13.0953 9.35703 10.0402 12.5625 8.90586V17.375ZM14.625 7.86602C14.625 7.07109 13.9504 6.43516 13.1727 6.59844C8.50195 7.58242 5 11.7246 5 16.6875C5 22.3852 9.61914 27 15.3125 27C20.2754 27 24.4176 23.498 25.4016 18.8273C25.5648 18.0496 24.9289 17.375 24.134 17.375H16.6875H14.625V15.3125V7.86602Z" fill="currentColor"/>
</svg>
