<svg viewBox="0 0 32 32" fill="none" xmlns="http://www.w3.org/2000/svg">
<path d="M23.7797 16.5312C24.0734 16.2375 24.0734 15.7625 23.7797 15.4719L19.7801 11.4692C19.4864 11.1755 19.0114 11.1755 18.7208 11.4692C18.4302 11.7629 18.4271 12.2379 18.7208 12.5285L21.4393 15.2469L13.7494 15.2501C13.3339 15.2501 12.9995 15.5844 12.9995 16C12.9995 16.4156 13.3339 16.7499 13.7494 16.7499H21.4393L18.7208 19.4684C18.4271 19.7621 18.4271 20.2371 18.7208 20.5277C19.0145 20.8183 19.4895 20.8214 19.7801 20.5277L23.7797 16.5312ZM13.2495 10.5005C13.6651 10.5005 13.9994 10.1662 13.9994 9.7506C13.9994 9.33501 13.6651 9.00067 13.2495 9.00067H10.7497C9.23113 9.00067 8 10.2318 8 11.7504V20.2496C8 21.7682 9.23113 22.9993 10.7497 22.9993H13.2495C13.6651 22.9993 13.9994 22.665 13.9994 22.2494C13.9994 21.8338 13.6651 21.4995 13.2495 21.4995H10.7497C10.0592 21.4995 9.49985 20.9401 9.49985 20.2496V11.7504C9.49985 11.0598 10.0592 10.5005 10.7497 10.5005H13.2495Z" fill="currentColor"/>
</svg>
