<svg viewBox="0 0 32 32" fill="none" xmlns="http://www.w3.org/2000/svg">
<path d="M10.5 12C10.5 11.337 10.7634 10.7011 11.2322 10.2322C11.7011 9.76339 12.337 9.5 13 9.5C13.663 9.5 14.2989 9.76339 14.7678 10.2322C15.2366 10.7011 15.5 11.337 15.5 12C15.5 12.663 15.2366 13.2989 14.7678 13.7678C14.2989 14.2366 13.663 14.5 13 14.5C12.337 14.5 11.7011 14.2366 11.2322 13.7678C10.7634 13.2989 10.5 12.663 10.5 12ZM17 12C17 10.9391 16.5786 9.92172 15.8284 9.17157C15.0783 8.42143 14.0609 8 13 8C11.9391 8 10.9217 8.42143 10.1716 9.17157C9.42143 9.92172 9 10.9391 9 12C9 13.0609 9.42143 14.0783 10.1716 14.8284C10.9217 15.5786 11.9391 16 13 16C14.0609 16 15.0783 15.5786 15.8284 14.8284C16.5786 14.0783 17 13.0609 17 12ZM14.4281 19C16.4813 19 18.1813 20.5219 18.4594 22.5H7.54062C7.81875 20.5219 9.51875 19 11.5719 19H14.4281ZM11.5719 17.5C8.49375 17.5 6 19.9937 6 23.0719C6 23.5844 6.41563 24 6.92813 24H19.0719C19.5844 24 20 23.5844 20 23.0719C20 19.9937 17.5063 17.5 14.4281 17.5H13H11.5719ZM20.75 14.25C20.3344 14.25 20 14.5844 20 15C20 15.4156 20.3344 15.75 20.75 15.75H25.25C25.6656 15.75 26 15.4156 26 15C26 14.5844 25.6656 14.25 25.25 14.25H20.75Z" fill="currentColor"/>
</svg>
