<svg viewBox="0 0 32 32" fill="none" xmlns="http://www.w3.org/2000/svg">
  <path
    d="M13.6429 19.5H20.1429C20.3982 19.5 20.6071 19.275 20.6071 19V12H19.2143C18.7007 12 18.2857 11.5531 18.2857 11V9.5H13.6429C13.3875 9.5 13.1786 9.725 13.1786 10V19C13.1786 19.275 13.3875 19.5 13.6429 19.5ZM20.1429 21H13.6429C12.6185 21 11.7857 20.1031 11.7857 19V10C11.7857 8.89688 12.6185 8 13.6429 8H18.4453C18.9386 8 19.4116 8.20938 19.7598 8.58438L21.4574 10.4125C21.8056 10.7875 22 11.2969 22 11.8281V19C22 20.1031 21.1672 21 20.1429 21ZM9.69643 11C10.0824 11 10.3929 11.3344 10.3929 11.75V19.75C10.3929 21.2688 11.5362 22.5 12.9464 22.5H18.5179C18.9038 22.5 19.2143 22.8344 19.2143 23.25C19.2143 23.6656 18.9038 24 18.5179 24H12.9464C10.7672 24 9 22.0969 9 19.75V11.75C9 11.3344 9.31049 11 9.69643 11Z"
    fill="currentColor"
  />
</svg>
