<svg viewBox="0 0 32 32" fill="none" xmlns="http://www.w3.org/2000/svg">
<path d="M15.6188 18.6187C15.2781 18.9594 14.7219 18.9594 14.3812 18.6187L12.3812 16.6187C12.0406 16.2781 12.0406 15.7219 12.3812 15.3812C12.7219 15.0406 13.2781 15.0406 13.6188 15.3812L15 16.7625L18.3813 13.3812C18.7219 13.0406 19.2781 13.0406 19.6187 13.3812C19.9594 13.7219 19.9594 14.2781 19.6187 14.6188L15.6188 18.6187ZM24 16C24 20.4187 20.4187 24 16 24C11.5813 24 8 20.4187 8 16C8 11.5813 11.5813 8 16 8C20.4187 8 24 11.5813 24 16ZM16 9.5C12.4094 9.5 9.5 12.4094 9.5 16C9.5 19.5906 12.4094 22.5 16 22.5C19.5906 22.5 22.5 19.5906 22.5 16C22.5 12.4094 19.5906 9.5 16 9.5Z" fill="currentColor"/>
</svg>
