<svg viewBox="0 0 32 32" fill="none" xmlns="http://www.w3.org/2000/svg">
<path d="M11.8001 6.40002C16.1093 6.40002 19.6 9.35558 19.6 12.9999C19.6 16.6443 16.1093 19.5998 11.8001 19.5998C11.1172 19.5976 10.4366 19.5196 9.7709 19.367C8.3249 20.2871 6.64996 20.7834 4.93613 20.7998C4.75293 20.8004 4.57363 20.7469 4.42062 20.6462C4.2676 20.5455 4.14765 20.4019 4.07574 20.2334C4.00402 20.0655 3.98263 19.8804 4.01416 19.7006C4.04569 19.5208 4.12878 19.3541 4.25333 19.2206C4.82461 18.5831 5.31547 17.8778 5.71493 17.1207C4.63215 16.0204 4.01758 14.5435 4.00014 12.9999C4.00014 9.35558 7.49212 6.40002 11.8001 6.40002ZM10.1729 17.579C10.7023 17.7286 11.25 17.8029 11.8001 17.7998C15.1073 17.7998 17.8001 15.6471 17.8001 12.9999C17.8001 10.3528 15.1073 8.2 11.8001 8.2C8.49291 8.2 5.80013 10.3528 5.80013 12.9999C5.82126 14.0814 6.25885 15.113 7.02172 15.8799L7.90371 16.8135L7.31212 17.9498C7.17772 18.1754 7.02772 18.467 6.87172 18.7142C7.56703 18.5133 8.22661 18.2048 8.82651 17.7998L9.45291 17.4398L10.1729 17.579ZM20.56 11.2071C24.7 11.3643 28 14.2563 28 17.7998C27.9821 19.3431 27.3681 20.8197 26.2864 21.9206C26.6843 22.679 27.1757 23.3845 27.7492 24.0205C27.8758 24.1533 27.9576 24.3224 27.9832 24.504C28.0088 24.6856 27.9769 24.8707 27.892 25.0333C27.831 25.203 27.718 25.349 27.5691 25.4507C27.4202 25.5524 27.243 25.6046 27.0628 25.5997C25.3494 25.5831 23.6749 25.0867 22.2292 24.1669C21.5636 24.3195 20.883 24.3976 20.2 24.3997C18.8128 24.4411 17.4386 24.1226 16.2109 23.4754C14.9833 22.8281 13.9441 21.8741 13.1945 20.7062C13.8285 20.6227 14.4527 20.4768 15.0581 20.2706C15.6811 21.0249 16.4682 21.6269 17.3594 22.0305C18.2505 22.4342 19.2222 22.6289 20.2 22.5998C20.7501 22.6028 21.2979 22.5285 21.8272 22.379L22.5472 22.2482L23.1736 22.6082C23.774 23.0138 24.4345 23.3224 25.1308 23.5225C24.9736 23.2754 24.8236 22.9826 24.688 22.7582L24.0952 21.6218L24.976 20.6882C25.743 19.9205 26.1819 18.8849 26.2 17.7998C26.2 15.3135 23.8264 13.2663 20.7664 13.0227L20.8 12.9999C20.8008 12.3943 20.72 11.7913 20.56 11.2071Z" fill="currentColor"/>
</svg>
