<svg viewBox="0 0 60 60" fill="none" xmlns="http://www.w3.org/2000/svg">
<path d="M17.4286 17.4286V20.8571C17.4286 21.8071 16.6643 22.5714 15.7143 22.5714C14.7643 22.5714 14 21.8071 14 20.8571V16.8571C14 15.2786 15.2786 14 16.8571 14H43.1429C44.7214 14 46 15.2786 46 16.8571V20.8571C46 21.8071 45.2357 22.5714 44.2857 22.5714C43.3357 22.5714 42.5714 21.8071 42.5714 20.8571V17.4286H31.7143V42.5714H35.1429C36.0929 42.5714 36.8571 43.3357 36.8571 44.2857C36.8571 45.2357 36.0929 46 35.1429 46H24.8571C23.9071 46 23.1429 45.2357 23.1429 44.2857C23.1429 43.3357 23.9071 42.5714 24.8571 42.5714H28.2857V17.4286H17.4286Z" fill="currentColor"/>
</svg>
