<svg viewBox="0 0 32 32" fill="currentColor" xmlns="http://www.w3.org/2000/svg">
  <path
    d="M11.5 13V10C11.5 9.725 11.725 9.5 12 9.5H19.1719C19.3031 9.5 19.4312 9.55313 19.525 9.64688L20.3531 10.475C20.4469 10.5687 20.5 10.6969 20.5 10.8281V13H22V10.8281C22 10.2969 21.7906 9.7875 21.4156 9.4125L20.5844 8.58438C20.2094 8.20938 19.7031 8 19.1719 8H12C10.8969 8 10 8.89688 10 10V13H11.5ZM12 19.5H20V22.5H12V19.5ZM11.5 18C10.9469 18 10.5 18.4469 10.5 19H9.5V16C9.5 15.725 9.725 15.5 10 15.5H22C22.275 15.5 22.5 15.725 22.5 16V19H21.5C21.5 18.4469 21.0531 18 20.5 18H11.5ZM21.5 20.5H23C23.5531 20.5 24 20.0531 24 19.5V16C24 14.8969 23.1031 14 22 14H10C8.89688 14 8 14.8969 8 16V19.5C8 20.0531 8.44687 20.5 9 20.5H10.5V23C10.5 23.5531 10.9469 24 11.5 24H20.5C21.0531 24 21.5 23.5531 21.5 23V20.5Z"
    fill="currentColor" />
</svg>