<svg  viewBox="0 0 32 32" fill="currentColor" xmlns="http://www.w3.org/2000/svg">
<path d="M15.2219 8C15.8436 8 16.4398 8.24506 16.8787 8.68396L23.316 15.1213C24.2304 16.0357 24.2304 17.517 23.316 18.4314L18.4332 23.3142C17.5188 24.2286 16.0375 24.2286 15.1231 23.3142L8.68579 16.8769C8.24323 16.438 7.99817 15.8455 7.99817 15.2237V9.75563C7.99817 8.78638 8.78454 8 9.7538 8H15.2219ZM9.7538 15.2237C9.7538 15.3773 9.81598 15.5273 9.9257 15.637L16.363 22.0743C16.5898 22.3011 16.9629 22.3011 17.1896 22.0743L22.0725 17.1915C22.2992 16.9647 22.2992 16.5916 22.0725 16.3648L15.6352 9.92753C15.5254 9.81781 15.3755 9.75563 15.2219 9.75563H9.7538V15.2237ZM12.0946 10.926C12.4051 10.926 12.7028 11.0494 12.9222 11.2689C13.1417 11.4884 13.2651 11.7861 13.2651 12.0965C13.2651 12.4069 13.1417 12.7046 12.9222 12.9241C12.7028 13.1436 12.4051 13.2669 12.0946 13.2669C11.7842 13.2669 11.4865 13.1436 11.267 12.9241C11.0475 12.7046 10.9242 12.4069 10.9242 12.0965C10.9242 11.7861 11.0475 11.4884 11.267 11.2689C11.4865 11.0494 11.7842 10.926 12.0946 10.926Z" fill="currentColor"/>
</svg>
