<svg width="20" viewBox="0 0 20 16" fill="none" xmlns="http://www.w3.org/2000/svg">
<path d="M12.4719 0.034372C12.075 -0.087503 11.6562 0.131247 11.5344 0.528122L7.03438 15.0281C6.9125 15.425 7.13125 15.8437 7.52812 15.9656C7.925 16.0875 8.34375 15.8687 8.46562 15.4719L12.9656 0.971872C13.0875 0.574997 12.8687 0.156247 12.4719 0.034372ZM14.7031 3.7375C14.4187 4.04062 14.4344 4.51562 14.7375 4.79687L18.1531 8L14.7375 11.2031C14.4344 11.4875 14.4187 11.9625 14.7031 12.2625C14.9875 12.5625 15.4625 12.5812 15.7625 12.2969L19.7625 8.54687C19.9125 8.40625 20 8.20625 20 8C20 7.79375 19.9156 7.59375 19.7625 7.45312L15.7625 3.70312C15.4594 3.41875 14.9844 3.43437 14.7031 3.7375ZM5.29688 3.7375C5.0125 3.43437 4.5375 3.41875 4.2375 3.70312L0.2375 7.45312C0.084375 7.59375 0 7.79375 0 8C0 8.20625 0.084375 8.40625 0.2375 8.54687L4.2375 12.2969C4.54063 12.5812 5.01562 12.5656 5.29688 12.2625C5.57813 11.9594 5.56563 11.4844 5.2625 11.2031L1.84687 8L5.2625 4.79687C5.56563 4.5125 5.58125 4.0375 5.29688 3.7375Z" fill="currentColor"/>
</svg>
