<svg viewBox="0 0 30 26" xmlns="http://www.w3.org/2000/svg">
<path d="M19.0359 3.51025C19.4719 3.58056 19.6594 4.14208 19.3406 4.47509L17.5594 6.2666L17.9813 8.80566C18.0047 9.26464 17.5922 9.61621 17.1891 9.40625L15.0094 8.20996L12.8109 9.42089C12.4078 9.63085 11.9531 9.27929 12.0187 8.82519L12.4406 6.28124L10.6594 4.47509C10.3406 4.14208 10.5281 3.58056 10.9641 3.51025L13.4156 3.14208L14.5219 0.809172C14.7234 0.388225 15.2953 0.405754 15.4781 0.809172L16.5844 3.14208L19.0359 3.51025ZM10.5 15.3437C10.5 14.0498 11.5078 13 12.75 13H17.25C18.4922 13 19.5 14.0498 19.5 15.3437V23.1562C19.5 24.4502 18.4922 25.5 17.25 25.5H12.75C11.5078 25.5 10.5 24.4502 10.5 23.1562V15.3437ZM12.75 23.1562H17.25V15.3437H12.75V23.1562ZM0 18.4687C0 17.1748 1.00734 16.125 2.25 16.125H6.75C7.99219 16.125 9 17.1748 9 18.4687V23.1562C9 24.4502 7.99219 25.5 6.75 25.5H2.25C1.00734 25.5 0 24.4502 0 23.1562V18.4687ZM2.25 23.1562H6.75V18.4687H2.25V23.1562ZM27.75 17.6875C28.9922 17.6875 30 18.7373 30 20.0312V23.1562C30 24.4502 28.9922 25.5 27.75 25.5H23.25C22.0078 25.5 21 24.4502 21 23.1562V20.0312C21 18.7373 22.0078 17.6875 23.25 17.6875H27.75ZM27.75 20.0312H23.25V23.1562H27.75V20.0312Z" fill="currentColor"/>
</svg>
