<svg viewBox="0 0 32 32" fill="none" xmlns="http://www.w3.org/2000/svg">
<path d="M9 9.5C8.58437 9.5 8.25 9.83437 8.25 10.25V11.75C8.25 12.1656 8.58437 12.5 9 12.5H10.5C10.9156 12.5 11.25 12.1656 11.25 11.75V10.25C11.25 9.83437 10.9156 9.5 10.5 9.5H9ZM13.5 10.25C13.0844 10.25 12.75 10.5844 12.75 11C12.75 11.4156 13.0844 11.75 13.5 11.75H23C23.4156 11.75 23.75 11.4156 23.75 11C23.75 10.5844 23.4156 10.25 23 10.25H13.5ZM13.5 15.25C13.0844 15.25 12.75 15.5844 12.75 16C12.75 16.4156 13.0844 16.75 13.5 16.75H23C23.4156 16.75 23.75 16.4156 23.75 16C23.75 15.5844 23.4156 15.25 23 15.25H13.5ZM13.5 20.25C13.0844 20.25 12.75 20.5844 12.75 21C12.75 21.4156 13.0844 21.75 13.5 21.75H23C23.4156 21.75 23.75 21.4156 23.75 21C23.75 20.5844 23.4156 20.25 23 20.25H13.5ZM8.25 15.25V16.75C8.25 17.1656 8.58437 17.5 9 17.5H10.5C10.9156 17.5 11.25 17.1656 11.25 16.75V15.25C11.25 14.8344 10.9156 14.5 10.5 14.5H9C8.58437 14.5 8.25 14.8344 8.25 15.25ZM9 19.5C8.58437 19.5 8.25 19.8344 8.25 20.25V21.75C8.25 22.1656 8.58437 22.5 9 22.5H10.5C10.9156 22.5 11.25 22.1656 11.25 21.75V20.25C11.25 19.8344 10.9156 19.5 10.5 19.5H9Z" fill="currentColor"/>
</svg>
