<svg viewBox="0 0 32 32" fill="none" xmlns="http://www.w3.org/2000/svg">
<path d="M18 12C18 10.6188 19.1187 9.5 20.5 9.5C21.8813 9.5 23 10.6188 23 12V14.25C23 14.6656 23.3344 15 23.75 15C24.1656 15 24.5 14.6656 24.5 14.25V12C24.5 9.79063 22.7094 8 20.5 8C18.2906 8 16.5 9.79063 16.5 12V14H9C7.89688 14 7 14.8969 7 16V22C7 23.1031 7.89688 24 9 24H19C20.1031 24 21 23.1031 21 22V16C21 14.8969 20.1031 14 19 14H18V12ZM9 15.5H19C19.275 15.5 19.5 15.725 19.5 16V22C19.5 22.275 19.275 22.5 19 22.5H9C8.725 22.5 8.5 22.275 8.5 22V16C8.5 15.725 8.725 15.5 9 15.5Z" fill="currentColor"/>
</svg>
