<svg xmlns="http://www.w3.org/2000/svg" viewBox="0 0 24 24"><defs><style>.a{fill:none;}</style></defs><g transform="translate(-8 -8)"><rect class="a" width="24" height="24" transform="translate(8 8)"/><path fill="currentcolor" d="M17.876-1.016,13.608-5.284a.417.417,0,0,0-.3-.123h-.464a7.292,7.292,0,0,0,1.779-4.781A7.311,7.311,0,0,0,7.312-17.5,7.311,7.311,0,0,0,0-10.188,7.311,7.311,0,0,0,7.312-2.876a7.292,7.292,0,0,0,4.781-1.779v.464a.432.432,0,0,0,.123.3L16.484.376a.422.422,0,0,0,.6,0l.794-.794A.422.422,0,0,0,17.876-1.016ZM7.312-4.563a5.623,5.623,0,0,1-5.625-5.625,5.623,5.623,0,0,1,5.625-5.625,5.623,5.623,0,0,1,5.625,5.625A5.623,5.623,0,0,1,7.312-4.563Z" transform="translate(11 28.5)"/></g></svg>