<svg viewBox="0 0 32 33" fill="currentColor" xmlns="http://www.w3.org/2000/svg">
<path d="M12 14C12.3978 14 12.7794 13.842 13.0607 13.5607C13.342 13.2794 13.5 12.8978 13.5 12.5C13.5 12.1022 13.342 11.7206 13.0607 11.4393C12.7794 11.158 12.3978 11 12 11C11.6022 11 11.2206 11.158 10.9393 11.4393C10.658 11.7206 10.5 12.1022 10.5 12.5C10.5 12.8978 10.658 13.2794 10.9393 13.5607C11.2206 13.842 11.6022 14 12 14ZM15 12.5C15 12.894 14.9224 13.2841 14.7716 13.6481C14.6209 14.012 14.3999 14.3427 14.1213 14.6213C13.8427 14.8999 13.512 15.1209 13.1481 15.2716C12.7841 15.4224 12.394 15.5 12 15.5C11.606 15.5 11.2159 15.4224 10.8519 15.2716C10.488 15.1209 10.1573 14.8999 9.87868 14.6213C9.6001 14.3427 9.37913 14.012 9.22836 13.6481C9.0776 13.2841 9 12.894 9 12.5C9 12.106 9.0776 11.7159 9.22836 11.3519C9.37913 10.988 9.6001 10.6573 9.87868 10.3787C10.1573 10.1001 10.488 9.87913 10.8519 9.72836C11.2159 9.5776 11.606 9.5 12 9.5C12.394 9.5 12.7841 9.5776 13.1481 9.72836C13.512 9.87913 13.8427 10.1001 14.1213 10.3787C14.3999 10.6573 14.6209 10.988 14.7716 11.3519C14.9224 11.7159 15 12.106 15 12.5ZM12 22C12.3978 22 12.7794 21.842 13.0607 21.5607C13.342 21.2794 13.5 20.8978 13.5 20.5C13.5 20.1022 13.342 19.7206 13.0607 19.4393C12.7794 19.158 12.3978 19 12 19C11.6022 19 11.2206 19.158 10.9393 19.4393C10.658 19.7206 10.5 20.1022 10.5 20.5C10.5 20.8978 10.658 21.2794 10.9393 21.5607C11.2206 21.842 11.6022 22 12 22ZM15 20.5C15 20.894 14.9224 21.2841 14.7716 21.6481C14.6209 22.012 14.3999 22.3427 14.1213 22.6213C13.8427 22.8999 13.512 23.1209 13.1481 23.2716C12.7841 23.4224 12.394 23.5 12 23.5C11.606 23.5 11.2159 23.4224 10.8519 23.2716C10.488 23.1209 10.1573 22.8999 9.87868 22.6213C9.6001 22.3427 9.37913 22.012 9.22836 21.6481C9.0776 21.2841 9 20.894 9 20.5C9 20.106 9.0776 19.7159 9.22836 19.3519C9.37913 18.988 9.6001 18.6573 9.87868 18.3787C10.1573 18.1001 10.488 17.8791 10.8519 17.7284C11.2159 17.5776 11.606 17.5 12 17.5C12.394 17.5 12.7841 17.5776 13.1481 17.7284C13.512 17.8791 13.8427 18.1001 14.1213 18.3787C14.3999 18.6573 14.6209 18.988 14.7716 19.3519C14.9224 19.7159 15 20.106 15 20.5ZM18.5 12.5C18.5 12.8978 18.658 13.2794 18.9393 13.5607C19.2206 13.842 19.6022 14 20 14C20.3978 14 20.7794 13.842 21.0607 13.5607C21.342 13.2794 21.5 12.8978 21.5 12.5C21.5 12.1022 21.342 11.7206 21.0607 11.4393C20.7794 11.158 20.3978 11 20 11C19.6022 11 19.2206 11.158 18.9393 11.4393C18.658 11.7206 18.5 12.1022 18.5 12.5ZM20 15.5C19.606 15.5 19.2159 15.4224 18.8519 15.2716C18.488 15.1209 18.1573 14.8999 17.8787 14.6213C17.6001 14.3427 17.3791 14.012 17.2284 13.6481C17.0776 13.2841 17 12.894 17 12.5C17 12.106 17.0776 11.7159 17.2284 11.3519C17.3791 10.988 17.6001 10.6573 17.8787 10.3787C18.1573 10.1001 18.488 9.87913 18.8519 9.72836C19.2159 9.5776 19.606 9.5 20 9.5C20.394 9.5 20.7841 9.5776 21.1481 9.72836C21.512 9.87913 21.8427 10.1001 22.1213 10.3787C22.3999 10.6573 22.6209 10.988 22.7716 11.3519C22.9224 11.7159 23 12.106 23 12.5C23 12.894 22.9224 13.2841 22.7716 13.6481C22.6209 14.012 22.3999 14.3427 22.1213 14.6213C21.8427 14.8999 21.512 15.1209 21.1481 15.2716C20.7841 15.4224 20.394 15.5 20 15.5ZM20 22C20.3978 22 20.7794 21.842 21.0607 21.5607C21.342 21.2794 21.5 20.8978 21.5 20.5C21.5 20.1022 21.342 19.7206 21.0607 19.4393C20.7794 19.158 20.3978 19 20 19C19.6022 19 19.2206 19.158 18.9393 19.4393C18.658 19.7206 18.5 20.1022 18.5 20.5C18.5 20.8978 18.658 21.2794 18.9393 21.5607C19.2206 21.842 19.6022 22 20 22ZM23 20.5C23 21.2956 22.6839 22.0587 22.1213 22.6213C21.5587 23.1839 20.7956 23.5 20 23.5C19.2044 23.5 18.4413 23.1839 17.8787 22.6213C17.3161 22.0587 17 21.2956 17 20.5C17 19.7044 17.3161 18.9413 17.8787 18.3787C18.4413 17.8161 19.2044 17.5 20 17.5C20.7956 17.5 21.5587 17.8161 22.1213 18.3787C22.6839 18.9413 23 19.7044 23 20.5Z" fill="currentColor"/>
</svg>
