<svg viewBox="0 0 32 32" fill="none" xmlns="http://www.w3.org/2000/svg">
<path d="M15.25 10.75H16.75V9.25H15.25V10.75ZM14 9C14 8.44687 14.4469 8 15 8H17C17.5531 8 18 8.44687 18 9V9.55C20.1187 10.2062 21.7937 11.8781 22.45 14H23C23.5531 14 24 14.4469 24 15V17C24 17.5531 23.5531 18 23 18H22.45C21.7937 20.1187 20.1219 21.7937 18 22.45V23C18 23.5531 17.5531 24 17 24H15C14.4469 24 14 23.5531 14 23V22.45C11.8812 21.7937 10.2062 20.1187 9.55 18H9C8.44687 18 8 17.5531 8 17V15C8 14.4469 8.44687 14 9 14H9.55C10.2062 11.8812 11.8812 10.2062 14 9.55V9ZM11.1406 14.0094C11.625 14.0781 12 14.4969 12 15V17C12 17.5031 11.625 17.9219 11.1406 17.9906C11.6719 19.2906 12.7125 20.3281 14.0094 20.8594C14.0781 20.375 14.4969 20 15 20H17C17.5031 20 17.9219 20.375 17.9906 20.8594C19.2906 20.3281 20.3281 19.2875 20.8594 17.9906C20.375 17.9219 20 17.5031 20 17V15C20 14.4969 20.375 14.0781 20.8594 14.0094C20.3281 12.7094 19.2875 11.6719 17.9906 11.1406C17.9219 11.625 17.5031 12 17 12H15C14.4969 12 14.0781 11.625 14.0094 11.1406C12.7094 11.6719 11.6719 12.7125 11.1406 14.0094ZM21.25 15.25V16.75H22.75V15.25H21.25ZM15.25 21.25V22.75H16.75V21.25H15.25ZM9.25 15.25V16.75H10.75V15.25H9.25Z" fill="currentColor"/>
</svg>
