<svg viewBox="0 0 33 32" fill="none" xmlns="http://www.w3.org/2000/svg">
<path d="M15.5 9.5C15.225 9.5 15 9.725 15 10V22C15 22.275 15.225 22.5 15.5 22.5H23.5C23.775 22.5 24 22.275 24 22V10C24 9.725 23.775 9.5 23.5 9.5H15.5ZM13.5 10C13.5 8.89688 14.3969 8 15.5 8H23.5C24.6031 8 25.5 8.89688 25.5 10V22C25.5 23.1031 24.6031 24 23.5 24H15.5C14.3969 24 13.5 23.1031 13.5 22V10ZM10.5 10.25C10.5 9.83438 10.8344 9.5 11.25 9.5C11.6656 9.5 12 9.83438 12 10.25V21.75C12 22.1656 11.6656 22.5 11.25 22.5C10.8344 22.5 10.5 22.1656 10.5 21.75V10.25ZM7.5 11.75C7.5 11.3344 7.83437 11 8.25 11C8.66562 11 9 11.3344 9 11.75V20.25C9 20.6656 8.66562 21 8.25 21C7.83437 21 7.5 20.6656 7.5 20.25V11.75Z" fill="currentColor"/>
</svg>
