<svg xmlns="http://www.w3.org/2000/svg" viewBox="0 0 32 32"><defs><style>.a{fill:currentcolor;}.b{fill:none;}</style></defs><path class="a" d="M5-11.562a.313.313,0,0,0,.313.313h8.125a.313.313,0,0,0,.313-.312v-1.25a.313.313,0,0,0-.312-.312H5.313A.313.313,0,0,0,5-12.812Zm.313,3.438h8.125a.313.313,0,0,0,.313-.312v-1.25A.313.313,0,0,0,13.438-10H5.313A.313.313,0,0,0,5-9.687v1.25A.313.313,0,0,0,5.313-8.125ZM17-1.887a.624.624,0,0,0,.5-.613V-16.875a.627.627,0,0,0-.625-.625H3.125A3.124,3.124,0,0,0,0-14.375V-.625A3.124,3.124,0,0,0,3.125,2.5h13.75a.627.627,0,0,0,.625-.625V1.25A.625.625,0,0,0,17,.637,6.531,6.531,0,0,1,17-1.887Zm-1.605.012a9.915,9.915,0,0,0,0,2.5H3.125a1.249,1.249,0,0,1-1.25-1.25,1.254,1.254,0,0,1,1.25-1.25Zm.234-13.75V-3.75H3.125a3.1,3.1,0,0,0-1.25.262V-14.375a1.249,1.249,0,0,1,1.25-1.25Z" transform="translate(7.25 23.5)"/><rect class="b" width="32" height="32"/></svg>