<?xml version="1.0" encoding="UTF-8"?>
<svg id="Layer_2" data-name="Layer 2" xmlns="http://www.w3.org/2000/svg" viewBox="0 0 32 32">
  <defs>
    <style>
      .cls-1 {
        fill: none;
      }

      .cls-2 {
        fill: currentcolor;
      }
    </style>
  </defs>
  <g id="Layer_1-2" data-name="Layer 1">
    <g>
      <rect class="cls-1" width="32" height="32"/>
      <path class="cls-2" d="M20.25,9.5H11.75c-.14,0-.25,.11-.25,.25v5.29l-1.34-1.1c-.05-.04-.11-.08-.16-.12v-4.07c0-.97,.78-1.75,1.75-1.75h8.5c.97,0,1.75,.78,1.75,1.75v4.07c-.06,.04-.11,.08-.16,.12l-1.34,1.1v-5.29c0-.14-.11-.25-.25-.25Zm-7.25,2.25c0-.42,.33-.75,.75-.75h4.5c.42,0,.75,.33,.75,.75s-.33,.75-.75,.75h-4.5c-.42,0-.75-.33-.75-.75Zm0,2.5c0-.42,.33-.75,.75-.75h4.5c.42,0,.75,.33,.75,.75s-.33,.75-.75,.75h-4.5c-.42,0-.75-.33-.75-.75Zm-3.5,2.38v5.62c0,.14,.11,.25,.25,.25h12.5c.14,0,.25-.11,.25-.25v-5.62l-4.44,3.64c-1.2,.98-2.93,.98-4.12,0l-4.44-3.64Zm-1.5-1.2c0-.52,.42-.93,.93-.93,.22,0,.43,.07,.59,.21l5.36,4.41c.65,.53,1.57,.53,2.22,0l5.36-4.41c.17-.14,.38-.21,.59-.21,.52,0,.93,.42,.93,.93v6.82c0,.97-.78,1.75-1.75,1.75H9.75c-.97,0-1.75-.78-1.75-1.75v-6.82Z"/>
    </g>
  </g>
</svg>