<svg xmlns="http://www.w3.org/2000/svg" viewBox="0 0 32 32"><defs><style>.a{fill:none;}.b{fill:currentcolor;}</style></defs><g transform="translate(-38 -2813)"><rect class="a" width="32" height="32" transform="translate(38 2813)"/><path class="b" d="M3.375-7.031v-.562a.281.281,0,0,0-.281-.281H-3.094a.281.281,0,0,0-.281.281v.562a.281.281,0,0,0,.281.281H3.094A.281.281,0,0,0,3.375-7.031ZM-3.094-9H3.094a.281.281,0,0,0,.281-.281v-.562a.281.281,0,0,0-.281-.281H-3.094a.281.281,0,0,0-.281.281v.562A.281.281,0,0,0-3.094-9ZM8.388-9.966c-.07-.057-.78-.63-1.638-1.319v-1.089A1.125,1.125,0,0,0,5.625-13.5H3.991l-.359-.286C2.856-14.407,1.527-15.75,0-15.75s-2.835,1.326-3.633,1.964l-.359.286H-5.625A1.125,1.125,0,0,0-6.75-12.375v1.089c-.862.693-1.573,1.266-1.634,1.316A1.683,1.683,0,0,0-9-8.667V.562A1.687,1.687,0,0,0-7.313,2.25H7.312A1.687,1.687,0,0,0,9,.562V-8.666A1.687,1.687,0,0,0,8.388-9.966ZM0-14.625A3.98,3.98,0,0,1,2.22-13.5H-2.218A3.991,3.991,0,0,1,0-14.625Zm-5.625,2.25H5.625v6.094c-1.137.914-2.3,1.844-3.044,2.438C1.988-3.371.816-2.237,0-2.25c-.816.013-1.988-1.121-2.581-1.593-.748-.594-1.907-1.523-3.044-2.438Zm-2.25,3.708A.561.561,0,0,1-7.67-9.1l.92-.741v2.656l-1.125-.906ZM7.875.562a.563.563,0,0,1-.562.562H-7.313A.563.563,0,0,1-7.875.562v-7.21c1.5,1.211,3.491,2.81,4.594,3.685C-2.56-2.387-1.286-1.116,0-1.125c1.281.009,2.541-1.247,3.28-1.837,1.1-.876,3.091-2.475,4.595-3.685Zm0-8.655L6.75-7.186V-9.842l.921.743a.56.56,0,0,1,.2.433Z" transform="translate(54 2835.75)"/></g></svg>