<svg id="Icon-Theming" xmlns="http://www.w3.org/2000/svg" width="32" height="32" viewBox="0 0 32 32">
  <rect id="Rectangle_8316" data-name="Rectangle 8316" width="32" height="32" fill="none"/>
  <path id="palette-regular_1_" data-name="palette-regular (1)" d="M14.5,8.067a.317.317,0,0,1-.131.25.893.893,0,0,1-.556.181H10.748a3,3,0,0,0-3,3,2.887,2.887,0,0,0,.066.619,6.573,6.573,0,0,0,.45,1.269h0c.022.05.044.094.059.134a1.59,1.59,0,0,1,.175.534.592.592,0,0,1-.119.369.211.211,0,0,1-.062.056.125.125,0,0,1-.05.012c-.091,0-.178.006-.269.006A6.5,6.5,0,1,1,14.5,8Zm1.5.016V8a8,8,0,1,0-8,8c.109,0,.222,0,.331-.006A1.84,1.84,0,0,0,10,14.054a3.358,3.358,0,0,0-.378-1.312,4.786,4.786,0,0,1-.337-.934,1.443,1.443,0,0,1-.031-.309,1.5,1.5,0,0,1,1.5-1.5H13.81A2.062,2.062,0,0,0,16,8.083ZM5,8A1,1,0,1,0,4,9,1,1,0,0,0,5,8ZM5,6A1,1,0,1,0,4,5,1,1,0,0,0,5,6ZM9,4A1,1,0,1,0,8,5,1,1,0,0,0,9,4Zm2,2a1,1,0,1,0-1-1A1,1,0,0,0,11,6Z" transform="translate(8 8)"/>
</svg>
