<svg xmlns="http://www.w3.org/2000/svg" viewBox="0 0 25 25">
  <g id="icon_paperclip" transform="translate(-1097 -1370)">
    <rect id="Rectangle_1063" data-name="Rectangle 1063" width="25" height="25" transform="translate(1097 1370)" fill="#fff"/>
    <path id="Path_130" data-name="Path 130" fill='currentcolor' d="M2.11.64a4.638,4.638,0,0,0,6.564,0l6.121-6.125a.375.375,0,0,0,0-.53l-.53-.53a.375.375,0,0,0-.53,0L7.613-.422a3.139,3.139,0,0,1-4.443,0,3.138,3.138,0,0,1,0-4.439L10.2-11.893a2.08,2.08,0,0,1,2.939,0,2.077,2.077,0,0,1,0,2.939L7.22-3.032a1.019,1.019,0,0,1-1.439,0,1.017,1.017,0,0,1,0-1.439L10.8-9.487a.375.375,0,0,0,0-.53l-.53-.53a.375.375,0,0,0-.53,0L4.72-5.532a2.517,2.517,0,0,0,0,3.561,2.52,2.52,0,0,0,3.56,0L14.2-7.893a3.577,3.577,0,0,0,0-5.061,3.582,3.582,0,0,0-5.06,0L2.11-5.921A4.637,4.637,0,0,0,2.11.64Z" transform="translate(1101 1388)"/>
  </g>
</svg>
