<?xml version="1.0" encoding="UTF-8"?>
<svg id="Layer_2" data-name="Layer 2" xmlns="http://www.w3.org/2000/svg" viewBox="0 0 1809.72 1520.32">
  <defs>
    <style>
      .cls-1, .cls-2 {
        fill: #eff9fc;
      }

      .cls-3 {
        opacity: .31;
      }

      .cls-4 {
        opacity: .27;
      }

      .cls-5 {
        opacity: .56;
      }

      .cls-6 {
        opacity: .48;
      }

      .cls-7 {
        fill: #3b5bb3;
      }

      .cls-7, .cls-8, .cls-9, .cls-10, .cls-11, .cls-12, .cls-13, .cls-14, .cls-15, .cls-16, .cls-17, .cls-2, .cls-18, .cls-19, .cls-20, .cls-21, .cls-22, .cls-23 {
        fill-rule: evenodd;
      }

      .cls-8 {
        fill: #284191;
      }

      .cls-9 {
        fill: #4567c6;
      }

      .cls-10 {
        fill: #61a0e0;
      }

      .cls-11 {
        fill: #71afed;
      }

      .cls-12 {
        fill: #87bef5;
      }

      .cls-13 {
        fill: #1e77d1;
      }

      .cls-14 {
        fill: #dfedfa;
      }

      .cls-15 {
        fill: #c3dffa;
      }

      .cls-16 {
        fill: #b3b3b3;
      }

      .cls-17 {
        fill: #ed8a32;
      }

      .cls-18 {
        fill: #f2a470;
      }

      .cls-19 {
        fill: #fff;
      }

      .cls-20 {
        fill: #fae9c5;
      }

      .cls-21 {
        fill: #fc9b33;
      }

      .cls-22 {
        fill: #ffb27d;
      }

      .cls-23 {
        fill: #011638;
      }
    </style>
  </defs>
  <g id="Layer_1-2" data-name="Layer 1">
    <g>
      <path class="cls-20" d="m907.24,1442.82c235.94,0,453.06,3.52,625.36,9.45,421.67-241.03,275.66-710.83,124.26-976.57C1446.16,105.86,948.25-27.06,742.3,268.01,462.76,668.54,193.1,528.78,47.49,832.96c-145.61,304.18,75.52,595.8,234.39,619.31,172.31-5.92,389.42-9.45,625.36-9.45Z"/>
      <path class="cls-19" d="m763.58,1195.82c2.94,40.37,8.89,45.93,47.38,49.04-38.48,3.11-44.44,8.68-47.38,49.04-2.94-40.37-8.9-45.93-47.38-49.04,38.48-3.11,44.44-8.68,47.38-49.04h0Zm-156.44,106.46c1.57,21.55,4.75,24.53,25.29,26.19-20.54,1.66-23.72,4.63-25.29,26.18-1.57-21.55-4.75-24.52-25.3-26.18,20.55-1.66,23.72-4.64,25.3-26.19h0Zm68.51-165.85c1.59,21.83,4.81,24.84,25.61,26.51-20.8,1.68-24.02,4.7-25.61,26.53-1.59-21.83-4.81-24.84-25.62-26.53,20.81-1.67,24.03-4.68,25.62-26.51Z"/>
      <g>
        <path class="cls-19" d="m1395.17,657.09c-116.1,1.05-207.26,11.18-207.71,23.54.07.02.14.03.21.04,0,.35-.01.69-.02,1.04-.98,62.24,4.08,120.4,20.05,171.65,31.43,100.82,130.96,124.89,140.52,207.24-9.56,82.35-109.09,106.41-140.52,207.24-15.97,51.24-21.03,109.4-20.05,171.65,0,.34,0,.69.02,1.03-.07.02-.14.03-.21.05.45,12.36,91.61,22.49,207.71,23.54,116.1-1.05,207.26-11.18,207.71-23.54-.07-.02-.14-.03-.21-.05,0-.34.01-.69.02-1.03.98-62.24-4.08-120.41-20.05-171.65-31.43-100.83-130.96-124.89-140.52-207.24,9.56-82.35,109.09-106.42,140.52-207.24,15.97-51.25,21.03-109.41,20.05-171.65,0-.35-.01-.69-.02-1.04.07-.02.14-.03.21-.04-.45-12.36-91.61-22.49-207.71-23.54Z"/>
        <g class="cls-6">
          <path class="cls-16" d="m1395.17,647.2c125.72,0,227.63,10.61,227.63,23.71s-101.91,23.72-227.63,23.72-227.63-10.61-227.63-23.72,101.91-23.71,227.63-23.71Z"/>
        </g>
        <path class="cls-12" d="m1226.71,686.62c0-1.05,7.73-4.05,11.93-4.05s11.9,3.09,11.93,4.05v754.82c-.03.95-7.73,4.04-11.93,4.04s-11.92-3-11.93-4.04v-754.82Z"/>
        <path class="cls-11" d="m1238.64,685.21c0-.47,1.55-1.33,3.64-2.13,3.94.91,8.27,2.83,8.29,3.54v754.82c-.01.43-1.6,1.3-3.73,2.12-3.92-.9-8.2-2.76-8.2-3.54v-754.82Z"/>
        <path class="cls-21" d="m1396.43,1389.08c9.21-50.12,10.48-223.17,17.77-302.02.99-10.79,14.32-47.31,20.52-59.07,17.25-32.7,53.67-61.84,78.65-86.75,27.01-26.93,48.34-53.77,59.89-90.81.79-2.53,1.55-5.16,2.28-7.85-45.08,29.85-131.42,55.56-168.17,48.2-49.04-9.81-29.43-29.42-58.85-49.04-29.43-19.61-29.43,9.81-78.46,0-15.68-3.14-38.1-18.29-62.48-32.81,2.56,15.2,5.68,29.33,9.48,41.5,11.54,37.04,32.88,63.88,59.89,90.81,23.38,23.31,50.97,46.33,67.13,75.48,2.31,4.16,8.73,18.96,14.37,32.98,7.52,18.73,16.45,47.05,17.79,66.78,4.73,69.6,3.57,207.56,2.09,255.01.51.46,1.01.93,1.52,1.4,5.35,5.01,10.69,10.53,16.58,16.17Z"/>
        <path class="cls-21" d="m1385.46,1314.15c-5.9-5.64-11.24-11.17-16.58-16.18l-1.52-1.39c-12.62-11.56-16.4-20.01-46.43-20.01s-39.23,49.05-78.46,49.05c-29.04,0-20.47,0-29.95,11.92-3.08,13.95-11.96,25.25-12.59,35.58-1.59,26.37-2.71,41.75-2.59,74.28,26.6,9.08,104.07,15.85,197.82,16.7,93.75-.85,171.23-7.61,197.82-16.7-.2-9.42.02-13.73-.2-23.78-26.9-15.58-61.5-34.77-85.51-58.78-24.01-24.01-58.84,0-58.84,0,0,0-22.84-19.23-43.33-34.05-20.49-14.82-13.82-11.07-19.64-16.64Z"/>
        <path class="cls-11" d="m1168.1,626.27v42.96c7.11-10.58,80.91-19.26,177.92-21.48,15.83-.36,32.27-.54,49.15-.54s33.32.19,49.15.54c97,2.23,170.81,10.9,177.92,21.48v-46.32c-8.27-12.32-106.77-22.05-227.07-22.05s-218.79,9.72-227.07,22.05v3.36Z"/>
        <path class="cls-12" d="m1395.17,647.2c-120.29,0-218.79,9.72-227.07,22.03,0,3.57-.41,3.91,3.03,5.91,3.31,1.92,8.85,3.76,16.33,5.5.45-12.36,91.61-22.49,207.71-23.54,116.1,1.05,207.26,11.18,207.71,23.54,7.33-1.7,12.79-3.5,16.13-5.39,3.59-2.02,3.23-2.34,3.23-6.02-8.27-12.31-106.77-22.03-227.07-22.03Z"/>
        <g class="cls-5">
          <path class="cls-2" d="m1395.17,657.09c-116.1,1.05-207.26,11.18-207.71,23.54.07.02.14.03.21.04,0,.35-.01.69-.02,1.04-.98,62.24,4.08,120.4,20.05,171.65,31.43,100.82,130.96,124.89,140.52,207.24-9.56,82.35-109.09,106.41-140.52,207.24-15.97,51.24-21.03,109.4-20.05,171.65,0,.34,0,.69.02,1.03-.07.02-.14.03-.21.05.45,12.36,91.61,22.49,207.71,23.54,116.1-1.05,207.26-11.18,207.71-23.54-.07-.02-.14-.03-.21-.05,0-.34.01-.69.02-1.03.98-62.24-4.08-120.41-20.05-171.65-31.43-100.83-130.96-124.89-140.52-207.24,9.56-82.35,109.09-106.42,140.52-207.24,15.97-51.25,21.03-109.41,20.05-171.65,0-.35-.01-.69-.02-1.04.07-.02.14-.03.21-.04-.45-12.36-91.61-22.49-207.71-23.54Z"/>
        </g>
        <g class="cls-3">
          <path class="cls-2" d="m1592.99,1447.4c.2-54.43-4.12-126.6-19.72-176.64-11.55-37.04-32.88-63.88-59.89-90.81-23.38-23.31-50.97-46.33-67.13-75.49-7.42-13.38-12.11-27.52-13.88-42.73l-.13-1.13.13-1.13c1.77-15.22,6.46-29.35,13.88-42.74,16.16-29.16,43.74-52.17,67.13-75.48,27.01-26.93,48.34-53.77,59.89-90.81,14.51-46.55,19.26-121.63,19.7-176.65-26.62-9.08-104.07-15.84-197.8-16.69-93.72.85-171.17,7.61-197.8,16.69.43,55.02,5.18,130.1,19.7,176.65,11.54,37.04,32.88,63.88,59.89,90.81,23.38,23.31,50.97,46.33,67.13,75.48,7.42,13.38,12.12,27.52,13.88,42.74l.13,1.13-.13,1.13c-1.76,15.21-6.46,29.35-13.88,42.73-16.16,29.17-43.74,52.18-67.13,75.49-27,26.93-48.34,53.77-59.89,90.81-15.6,50.04-19.92,122.22-19.73,176.64,26.6,9.08,104.07,15.85,197.82,16.7,93.75-.85,171.23-7.61,197.82-16.7Z"/>
        </g>
        <path class="cls-11" d="m1168.1,1494.93v-42.97c7.11,10.59,80.91,19.26,177.92,21.48,15.83.37,32.27.55,49.15.55s33.32-.19,49.15-.55c97-2.23,170.81-10.89,177.92-21.48v46.33c-8.27,12.31-106.77,22.04-227.07,22.04s-218.79-9.72-227.07-22.04v-3.36Z"/>
        <path class="cls-12" d="m1395.17,1474c-120.29,0-218.79-9.72-227.07-22.04,0-5.78,2.86-6.31,8.51-8.33,2.95-1.05,6.58-2.08,10.84-3.07.45,12.36,91.61,22.49,207.71,23.54,116.1-1.05,207.26-11.18,207.71-23.54,6.48,1.5,11.51,3.09,14.89,4.74,4.34,2.11,4.47,2.38,4.47,6.65-8.27,12.31-106.77,22.04-227.07,22.04Z"/>
        <g class="cls-4">
          <path class="cls-19" d="m1511.12,1231.94c-28.82-34.58-50.86-55.61-66.13-77.04-1.22-1.71-36.85-58.71-18.36-23.62,26.86,51,82.99,91.48,94.3,169.31,7.85,54.02,1.75,127.38-.17,158.12,21.25-1.71,40.27-4.93,53.72-6.76-11.8-91.34-3.7-148.42-63.36-220.01h0Zm-42.62-255.93c10.59-10.6,93.2-92.97,101.47-175.62,8.26-82.65,9.42-104.52,10.47-115.7-25.84,4.04-26.51,2.41-40.39.75-.31,6.89.39,15.6.5,16.88.69,7.94-4.16,165.25-53.2,224.09-18.47,22.16-28.98,33.86-40.43,52.13-51.29,77.57,10.93,8.12,21.58-2.53Z"/>
        </g>
        <path class="cls-12" d="m1530.73,660.59c0-1.1,7.73-4.29,11.92-4.29s11.91,3.28,11.93,4.29v800.67c-.03,1.01-7.73,4.29-11.93,4.29s-11.92-3.19-11.92-4.29v-800.67Z"/>
        <path class="cls-11" d="m1542.66,659.1c0-.49,1.55-1.41,3.64-2.26,3.94.97,8.27,3,8.29,3.76v800.67c-.01.46-1.6,1.38-3.73,2.26-3.92-.96-8.2-2.93-8.2-3.76v-800.67Z"/>
      </g>
      <g>
        <g>
          <g>
            <path class="cls-10" d="m135.52,360.01h749.69c17.1,0,10.63,53.38,13.01,70.37l140.86,1004.09c2.38,16.99-41.31,58.25-58.41,58.25H230.97c-17.11,0-32.6-14-34.43-31.1L86.33,430.38c-1.83-17.1,32.09-70.37,49.19-70.37Z"/>
            <path class="cls-13" d="m135.66,358.38h749.69c13.95,0,13.91,29.09,13.88,51.68,0,8.18-.02,15.48.61,19.98l140.85,1004.08c.12.91.15,1.85.06,2.82-.78,9-10.39,22.27-22.08,33.75-11.63,11.42-25.44,21.2-34.68,23.25-1.24.28-2.41.41-3.48.41H230.82c-8.95,0-17.46-3.64-23.95-9.52-6.5-5.86-11.01-13.98-11.96-22.91L84.7,430.69c-.11-1.01-.11-2.11,0-3.29.84-9.73,8.68-26.07,18.4-40.33h0c9.81-14.39,21.68-26.8,30.48-28.48.71-.14,1.41-.21,2.08-.21h0Zm749.4,3.27H135.38c-.48,0-.97.05-1.46.15-7.8,1.48-18.82,13.23-28.16,26.93h0c-9.42,13.83-17,29.51-17.79,38.68-.09.99-.09,1.9,0,2.68l110.21,1031.24c.88,8.17,5.02,15.61,11.01,21.02,5.97,5.4,13.77,8.75,21.93,8.75h749.69c.84,0,1.77-.12,2.75-.33,8.59-1.91,21.73-11.29,32.93-22.29,11.15-10.95,20.3-23.4,21-31.53.06-.76.05-1.47-.04-2.1l-140.85-1004.09c-.68-4.77-.67-12.16-.65-20.42.02-21.28.05-48.67-10.88-48.67Z"/>
            <path class="cls-19" d="m145.92,360.01h749.69c17.1,0,32.59,13.99,34.42,31.1l110.21,1031.24c1.83,17.1-10.67,31.1-27.78,31.1H262.79c-17.11,0-32.6-13.99-34.43-31.1L118.14,391.11c-1.83-17.11,10.68-31.1,27.78-31.1Z"/>
            <path class="cls-13" d="m146.07,358.37h749.69c8.95,0,17.46,3.65,23.96,9.52,6.49,5.86,11,13.98,11.96,22.91l110.21,1031.24c.22,2.12.25,4.19.07,6.19-.58,6.62-3.23,12.56-7.38,17.18-4.15,4.62-9.78,7.87-16.3,9.12-1.91.36-3.9.55-5.94.55H262.64c-8.94,0-17.45-3.64-23.95-9.52-6.49-5.87-11.01-13.98-11.96-22.91L116.52,391.41c-.23-2.12-.25-4.19-.08-6.19.58-6.62,3.23-12.57,7.38-17.19,4.16-4.61,9.78-7.87,16.31-9.11,1.91-.37,3.9-.56,5.94-.56h0Zm749.4,3.28H145.78c-1.84,0-3.62.17-5.32.49-5.73,1.09-10.67,3.94-14.29,7.96-3.62,4.03-5.94,9.26-6.45,15.12-.16,1.81-.15,3.68.06,5.58l110.21,1031.24c.88,8.17,5.02,15.61,11.01,21.01,5.98,5.41,13.77,8.75,21.93,8.75h749.69c1.84,0,3.62-.17,5.31-.49,5.74-1.09,10.67-3.94,14.29-7.97,3.62-4.02,5.95-9.26,6.46-15.11.16-1.81.14-3.69-.06-5.58l-110.21-1031.24c-.88-8.17-5.03-15.61-11.01-21.02-5.97-5.4-13.76-8.75-21.93-8.75Z"/>
            <polygon class="cls-2" points="162.57 402.44 270.37 1411.02 995.83 1411.02 888.04 402.44 162.57 402.44"/>
            <polygon class="cls-15" points="160.73 400.8 887.44 400.8 893.4 468.18 166.69 468.18 160.73 400.8"/>
            <path class="cls-13" d="m164.41,404.07l22.23,208.03c-1.06.53-2.11,1.09-3.15,1.67l-22.76-212.97h131c-.75,1.08-1.47,2.17-2.19,3.27h-125.14Zm47.09,440.59l60.36,564.72h191.65c-.02,1.09,0,2.18.05,3.27h-194.69l-60.66-567.59c1.11-.11,2.2-.25,3.29-.41h0Zm411.83,564.72h370.66l-47.05-440.33c1.05-.6,2.1-1.24,3.12-1.89l47.61,445.49h-375.51c.41-1.08.81-2.17,1.17-3.27h0Zm297.59-683.79l-8.63-80.72c1.03-.97,2.04-1.96,3.01-2.99l9.03,84.46c-1.13-.28-2.27-.54-3.41-.75h0Zm-20.66-193.3l-13.71-128.22h-187.81l-.89-3.27h191.68l14.25,133.35c-1.15-.66-2.33-1.27-3.53-1.86Z"/>
          </g>
          <path class="cls-19" d="m222.34,416.99c11.11,0,20.91,9.01,21.9,20.12.98,11.11-7.23,20.12-18.34,20.12s-20.91-9.01-21.9-20.12c-.98-11.11,7.23-20.12,18.34-20.12Z"/>
          <path class="cls-19" d="m275.39,416.99c11.11,0,20.91,9.01,21.9,20.12.98,11.11-7.23,20.12-18.34,20.12s-20.91-9.01-21.9-20.12c-.98-11.11,7.23-20.12,18.34-20.12Z"/>
          <path class="cls-19" d="m328.43,416.99c11.11,0,20.92,9.01,21.9,20.12s-7.23,20.12-18.35,20.12-20.91-9.01-21.9-20.12c-.98-11.11,7.23-20.12,18.34-20.12Z"/>
        </g>
        <polygon class="cls-14" points="207.62 543.94 849.55 543.94 863.98 672.11 222.04 672.11 207.62 543.94"/>
        <polygon class="cls-14" points="224.59 694.73 866.52 694.73 899.02 983.66 257.09 983.66 224.59 694.73"/>
        <polygon class="cls-14" points="259.64 1006.28 901.58 1006.28 913.79 1114.91 271.86 1114.91 259.64 1006.28"/>
        <polygon class="cls-14" points="274.41 1137.53 916.34 1137.53 928.56 1246.15 286.62 1246.15 274.41 1137.53"/>
      </g>
      <path class="cls-21" d="m1400.59,176.05c-22.92,0-41.49,9.3-41.49,20.77s18.58,20.77,41.49,20.77,41.48-9.29,41.48-20.77-18.57-20.77-41.48-20.77Z"/>
      <path class="cls-23" d="m1058.71,912.1c37.02-.6,64.7-1.04,77.48-5.08,13.79-4.35,10.94-12.77,3.02-26.23-34.9,16.05-25.6-3.3-41.92-.84-11.47,9.23-28.46,15.41-50.95,18.55-9.51,7.02-5.65,13.27,12.37,13.59Z"/>
      <path class="cls-21" d="m1106.26,347.98h228.76c4.51,0,9.16,3.69,10.35,8.2l40.7,154.99c1.18,4.51-1.54,8.19-6.04,8.19h-228.77c-4.51,0-9.16-3.69-10.34-8.19l-40.7-154.99c-1.18-4.52,1.54-8.2,6.04-8.2Z"/>
      <path class="cls-21" d="m1350.27,352.44l27.63,105.22c33.18-16.19,73.16-42.18,115.08-75.51,1.13-15.01,2.53-26.97,4.19-35.9-3.36-6.67-7.05-13.8-11.07-21.39,38.69-.25,62.28-8.57,70.79-24.96-10.35-30.29-24.82-61.22-43.41-92.77-13-19.23-38.7-28.33-76.62-31.7-15.4,48.02-90.57,43.88-63.84,2.27-28.3,7.6-52.27,21.63-71.92,42.1-16.9,41.65-27.2,70.71-30.92,87.19,18.35,12.85,35.74,21.17,52.16,24.96.75,3.61,1.34,7.7,1.77,12.3h15.79c4.51,0,9.17,3.69,10.35,8.19Z"/>
      <path class="cls-17" d="m1377.89,457.67l-27.62-105.22c-1.19-4.51-5.84-8.19-10.35-8.19h-228.76c-4.51,0-12.53,5.82-11.2,10.28-.21-3.72,2.36-6.56,6.31-6.56h228.76c4.51,0,9.16,3.69,10.35,8.2l40.7,154.99c.71,2.7.01,5.11-1.62,6.61,3.76-2.44,7.36-7.14,6.51-10.34l-13.07-49.77Z"/>
      <path class="cls-17" d="m1380.03,519.36h-228.77c-.84,0-1.68-.12-2.51-.37,4.56,11.8,16.93,10.06,21.76,10.01h271.22c14.7-.61,14.32-10.92,14.51-20.86h-65.16c.21,3.15-3.13,7.37-6.63,9.63-1.1.99-2.62,1.58-4.41,1.58Z"/>
      <path class="cls-17" d="m1348.02,411.71c-24.53,12.4-53.54,16.21-83.37,17.74.34,1.08.59,2.17.77,3.29,1.99,12.56-6.87,23.27-19.68,23.27-12.06,0-22.99-9.55-24.88-21.42-.2-1.29-.29-2.56-.27-3.8-30.97.83-60.89,2.53-85.63,12.22l17.01,64.79h221.27l-25.23-96.1Z"/>
      <path class="cls-19" d="m1240.8,418.82c8.19,0,15.9,6.64,17.2,14.85,1.3,8.2-4.3,14.85-12.5,14.85s-15.9-6.64-17.2-14.85c-1.31-8.2,4.29-14.85,12.5-14.85Z"/>
      <path class="cls-21" d="m1504,481.6c-4.56-13.92-7.84-28.35-9.84-43.31-30.8,11.93-66.03,23.43-110.58,41.03l6.01,22.9c67.31,2.2,105.45-4.68,114.41-20.63Z"/>
      <path class="cls-22" d="m1383.58,479.33c44.54-17.6,79.77-29.11,110.58-41.03,27.15-10.51,50.87-21.36,74.49-36.99-.98-30.17-5.48-59.36-17.96-93.19-11.47,10.97-32.99,16.55-64.59,16.75,9.14,17.29,16.6,32.19,22.36,44.71-47.51,39.4-93.32,69.9-130.57,88.08l5.69,21.66Z"/>
      <path class="cls-22" d="m1276.13,311.01c-3.43,11.99-6.61,23.06-9.54,33.24h57.54c-.43-4.59-1.02-8.69-1.77-12.3-14.65-3.38-30.06-10.36-46.23-20.94Z"/>
      <path class="cls-7" d="m1136.44,868.61c34.02-123.4,46.19-210.09,36.51-260.06,19.34,2.76,38.76,3.62,58.26,2.6-2.96-13.35-5.94-26.73-8.98-40.29.35-18.4,9.75-32.06,43.09-41.86h-94.82c-3.23.03-9.8.81-15.18-2.17-30.54,8.72-45.46,23.13-50.56,40.73-3.72,48.41,6.34,103.55-2.23,301.41,10.68,1.11,21.99.98,33.91-.37Z"/>
      <path class="cls-9" d="m1171.99,529h-1.47c-3.23.03-9.81.81-15.18-2.17-30.55,8.72-45.46,23.13-50.56,40.73-3.72,48.41,6.34,103.55-2.23,301.41,6.37.66,12.97.88,19.78.67,17.59-68.78,59.4-237.49,12.29-310.2,11.05-11.73,23.52-21.87,37.38-30.44Z"/>
      <path class="cls-9" d="m1471.21,601.55c39.91-14.32,45.34-54.08,27.78-114.15-14.42,11.8-50.89,16.75-109.39,14.84l1.37,5.21c.06.23.1.46.12.71h65.16c-.19,9.94.19,20.24-14.51,20.86h-176.41c-33.35,9.8-42.75,23.45-43.09,41.86,21.11,94.33,39.89,180.83,65.47,300.36,8.62,4.84,20.42,4.46,35.4-1.11,12-115.91,8.71-200.21-9.88-252.89,49.36.19,102.02-6.53,157.97-15.67Z"/>
      <path class="cls-7" d="m1471.21,601.55c39.91-14.32,45.34-54.08,27.78-114.15-3.06,2.51-7.13,4.71-12.19,6.6,14.54,61.73-1.28,95.55-48.18,98.8-54.73,8.11-100.09,12.01-136.1,11.7,15.88,102.91,18.59,192.64,8.16,269.19,3.86-.75,8-1.94,12.43-3.58,12-115.91,8.71-200.21-9.88-252.89,49.36.19,102.02-6.53,157.97-15.67Z"/>
      <path class="cls-22" d="m1106.11,869.3c-.99,3.72-2.6,7.22-4.84,10.49,10.68,1.01,6.57,14.76,35.41,2.14-1.23-3.64-1.92-8.02-2.07-13.12-9.94,1.03-19.44,1.19-28.51.49Z"/>
      <path class="cls-23" d="m1287.8,933.76c19.66-8.11,22.6-21.31,33.42-26.36,10.88-5.08,12.13-14.14,1.49-23.97-7.86,6.28-17.61,14-22.78,9.91-3.45-2.73-15.15-2.55-17.46,1.43-10.19,23.68-24.36,16.18-27.16,26.96-.33,14.35,20.12,17.13,32.49,12.03Z"/>
      <path class="cls-22" d="m1291.16,872.81c.17,6.3-.69,12.62-2.59,18.96,4.21-.66,9.28-.08,11.36,1.57,4.79,3.79,13.51-2.56,21.02-8.51-1.22-3.39-2.04-7.78-2.46-13.13-10.98,3.43-20.09,3.81-27.33,1.11Z"/>
      <path class="cls-17" d="m1486.11,324.87c-5.08-9.19-10.45-21.56-16.13-37.09,3.05,18.09,2.9,31.12,7.81,45.99-3.97,21.04-5.61,42.49-5.21,64.14,6.74-5.05,13.54-10.31,20.4-15.76,1.13-15.01,2.53-26.97,4.19-35.9-3.36-6.67-7.05-13.8-11.07-21.39h0Zm-175.58,3.62c4,1.41,7.94,2.56,11.83,3.46-1.47-23.02-2.44-42.06-2.9-57.08-4.43,22.2-7.41,40.07-8.93,53.63h0Zm193.48,153.11c-4.56-13.92-7.84-28.35-9.84-43.31-5.71,2.21-11.57,4.4-17.6,6.63,2.42,16.37,5.88,32.75,10.28,49.05,8.62-3.23,14.35-7.35,17.16-12.37Z"/>
      <path class="cls-23" d="m1355.34,135.08c43.58,15.78,71.53,17.31,83.87,4.57,12.53-2.91,20.71-14.03,24.51-33.35,12.97-29.41,1.87-76.41-16.37-53.14-15.09-38.6-75.64-16.21-109.78-37.63-20.72,13.54-12.84,47.02,2.06,58.33-.59,38.51,1.52,59.07,15.71,61.22Z"/>
      <path class="cls-23" d="m1457.21,57.38c-4.72-3.63-6.23-7.6-4.55-11.9,7.23-4.06,14.11-4.19,20.63-.4-3.96.24-9.32,4.33-16.07,12.3Z"/>
      <path class="cls-23" d="m1448.22,47.23c3.35,3.76,6.43,4.58,9.23,2.49,1.72-7.07.71-13.29-3.06-18.64.48,3.6-1.58,8.99-6.17,16.15Z"/>
      <path class="cls-8" d="m1425.17,63.37c8.22-3.25,14.43-2.16,18.65,3.25-.33,12.31-6.73,37.07-16.52,42.48-1.71-1.2-1.31-27.24-2.13-45.73Z"/>
      <path class="cls-8" d="m1422.1,51.47c13.88,6.74,18.46,12.81,13.74,18.22-20.94,3.1-41,.83-60.16-6.79,11.55,1.09,27.02-2.73,46.42-11.44Z"/>
      <path class="cls-23" d="m1340.63,72.24c15.71-15.87,45.36-17.78,86.21-2.86,25.86-6.41,31.66-18.35,20.74-37.79-15.43-27.46-48.82-5.75-89.72-31.59,1.56,20.08-59.33,37.27-17.23,72.24Z"/>
      <path class="cls-22" d="m1438.88,85.74c-10.84-2.32-9.82,19.94-9,30.98,1.61,21.7,26.07-27.36,9-30.98Z"/>
      <path class="cls-22" d="m1451.11,177.02c-4.05-.5-15.03-1.67-16.7-3.8-6.39-8.1-10.81-16.57-12.45-21.9,1.24-3.56,2.55-8.03,3.91-13.46,23.14-15.71,26.3-27.33,9.48-34.87-3.39,1.9-7.59,7.75-12.61,17.55-4.02-.15-7.06-2.21-9.12-6.14,4.78-16.54,7.88-29.98,9.32-40.3-11.4-16.94-38.05-19.37-73.36-14.79-1.64,9.4-2.98,19.35-4.03,29.85-4.39,4.05-17.18,71.76,26.2,74.51.28,4.96-.17,11.04-.49,11.71-.51,1.08-2.26,3.33-4.73,4.21h0c-.68,23.06,27.19,22.02,84.58-2.56Z"/>
      <path class="cls-23" d="m1349.59,59.3c35.3-4.58,61.96-2.15,73.36,14.79-1.44,10.32-4.55,23.76-9.32,40.3,2.07,3.93,5.11,5.99,9.12,6.14,5.02-9.8,9.22-15.65,12.61-17.55,16.81,7.54,13.66,19.16-9.48,34.87-1.36,5.42-2.67,9.9-3.91,13.46,20.81-4.67,38.22-23.29,40.67-31.33,24.28-47.85-2.8-68.07-17.29-75.43-6.39-47.38-75.2-5.51-109.68-28.35-13.7,18.93,3.24,42.66,13.92,43.09Z"/>
      <path class="cls-18" d="m1394.95,158.8c-5.64,2.79-13.37,4.41-23.19,4.87.19,3.33.05,7.15-.16,9.52,9.88-1.9,17.66-6.7,23.35-14.39Z"/>
      <path class="cls-23" d="m1354.62,47.63c-5.32,4.1-7.04,8.59-5.15,13.46,8.18,4.59,15.94,4.73,23.32.45-4.48-.26-10.54-4.9-18.17-13.9Z"/>
      <rect class="cls-1" x="796.08" y="292.21" width="164.61" height="164.61" rx="10.97" ry="10.97"/>
      <path class="cls-9" d="m888.69,414.09l60.61-99.43,24.98-40.99c4.38-7.17,2.1-16.52-5.05-20.88-7.17-4.38-16.52-2.11-20.89,5.05l-22.79,37.39-51.31,84.18-40.31-55.43c-4.92-6.79-14.43-8.32-21.23-3.38-6.8,4.92-8.32,14.43-3.39,21.23l53.71,73.88c4.94,6.8,14.45,8.32,21.25,3.39,1.89-1.36,3.36-3.08,4.42-5.01Z"/>
    </g>
  </g>
</svg>