<svg viewBox="0 0 16 16" xmlns="http://www.w3.org/2000/svg">
<path d="M5.26615 2.37655L8.00054 5.28281L10.7349 2.37655H5.26615ZM11.9974 3.22342L9.73492 5.62656H13.7662L11.9974 3.22342ZM13.5599 7.12657H8.00054H2.44114L8.00054 13.261L13.5599 7.12657ZM2.23489 5.62656H6.26616L4.00365 3.22342L2.23489 5.62656ZM15.8068 6.87969L8.55679 14.8797C8.41304 15.036 8.21304 15.1266 8.00054 15.1266C7.78804 15.1266 7.58804 15.036 7.44429 14.8797L0.194251 6.87969C-0.0463753 6.61407 -0.0651254 6.21719 0.147376 5.92969L3.64739 1.17966C3.78802 0.989039 4.01302 0.873413 4.25052 0.873413H11.7506C11.9881 0.873413 12.2131 0.985914 12.3537 1.17966L15.8537 5.92969C16.0662 6.21719 16.0443 6.61407 15.8068 6.87969Z" fill="currentColor"/>
</svg>
