<svg viewBox="0 0 32 32" fill="none" xmlns="http://www.w3.org/2000/svg">
<path d="M8.0014 15.9544C7.9764 16.3693 8.28888 16.7276 8.70446 16.7559C9.12005 16.7842 9.47315 16.4667 9.50127 16.0487L9.51689 15.7972C9.62313 14.0748 11.0418 12.7327 12.7572 12.7327H19.441L17.7224 14.4614C17.4287 14.7569 17.4287 15.2346 17.7224 15.5269C18.0161 15.8192 18.4911 15.8224 18.7817 15.5269L21.7814 12.5095C22.0752 12.2141 22.0752 11.7363 21.7814 11.444L18.7817 8.42667C18.488 8.13122 18.013 8.13122 17.7224 8.42667C17.4318 8.72212 17.4287 9.19987 17.7224 9.49217L19.441 11.2209H12.7572C10.2512 11.224 8.17639 13.1853 8.01702 15.7029L8.0014 15.9544ZM23.9969 16.0487C24.0219 15.6338 23.7094 15.2755 23.2938 15.2472C22.8782 15.2189 22.5251 15.5363 22.5001 15.9544L22.4845 16.2058C22.3783 17.9282 20.9565 19.2703 19.241 19.2703H12.5604L14.279 17.5416C14.5727 17.2462 14.5727 16.7684 14.279 16.4761C13.9853 16.1838 13.5103 16.1807 13.2197 16.4761L10.22 19.4904C9.92623 19.7858 9.92623 20.2636 10.22 20.5559L13.2197 23.5732C13.5134 23.8687 13.9884 23.8687 14.279 23.5732C14.5696 23.2778 14.5727 22.8 14.279 22.5077L12.5604 20.779H19.2442C21.7533 20.779 23.8281 18.8177 23.9844 16.3001L24 16.0487H23.9969Z" fill="currentcolor"/>
</svg>
