<svg viewBox="0 0 18 16" fill="none" xmlns="http://www.w3.org/2000/svg">
<path d="M3.50175 13.0002V14.5001H5.50164V13.0002H3.50175ZM6.25159 15.8C6.02973 15.9281 5.7735 16 5.50164 16H3.50175C2.67367 16 2.00184 15.3282 2.00184 14.5001V13.0002V12.2502L1.99951 11H3.49951V12L5.50164 12.0002V11.5003V10.0003H7.00155V11.5003H9.00143V4.50066H7.00155V6.00058H5.50164V4.50066V4.00069L3.49951 4V5H2.00184V3.7507V3.00075V1.50083C2.00184 0.672757 2.67367 0.000920666 3.50175 0.000920666H5.50164C5.7735 0.000920666 6.02973 0.0727915 6.25159 0.200909C6.47346 0.0727915 6.72969 0.000920666 7.00155 0.000920666H9.00143C9.64515 0.000920666 10.192 0.404022 10.4076 0.97274C10.5826 0.782126 10.8107 0.638384 11.0763 0.566513L12.9356 0.0509178C13.7074 -0.16157 14.5011 0.310278 14.7074 1.10711L15.2698 3.26948L15.4573 3.99444L17.3885 11.4409L17.5759 12.1658L17.9478 13.6033C18.154 14.4001 17.6978 15.2188 16.926 15.4313L15.0636 15.9469C14.2918 16.1594 13.498 15.6875 13.2918 14.8907L12.7293 12.7283L12.5419 12.0034L10.6138 4.56003L10.5013 4.13193V4.50066V11.5003V12.2502V13.0002V14.5001C10.5013 15.3282 9.82951 16 9.00143 16H7.00155C6.72969 16 6.47346 15.9281 6.25159 15.8ZM7.00155 14.5001H9.00143V13.0002H7.00155V14.5001ZM5.50164 1.50083H3.50175V3.00075H5.50164V1.50083ZM7.00155 3.00075H9.00143V1.50083H7.00155V3.00075ZM15.7542 11.1159L14.0105 4.39754L12.245 4.88501L13.9886 11.6034L15.7542 11.1159ZM14.3668 13.0564L14.7386 14.4845L16.501 13.997C16.501 13.9939 16.501 13.9907 16.501 13.9876V13.9845L16.1354 12.5721L14.3699 13.0595L14.3668 13.0564ZM11.87 3.43197L13.6355 2.9445L13.2637 1.51646L11.5013 2.00393C11.5013 2.00706 11.5013 2.01018 11.5013 2.01643L11.8669 3.42885L11.87 3.43197ZM2.00184 7.00052C1.99951 7 2.22453 7 2.49951 7H3.49951C3.7745 7 3.99951 7 4.00172 7.00052H5.50164C5.77662 7.00052 6.00161 7.2255 6.00161 7.50049V8.50043C6.00161 8.77542 5.77662 9.0004 5.50164 9.0004H4.00172C3.49951 9 3.7745 9 3.49951 9H2.49951C2.22453 9 2.49951 9 1.99951 9L2.00184 9.0004H0.501924C0.22694 9.0004 0.00195312 8.77542 0.00195312 8.50043V7.50049C0.00195312 7.2255 0.22694 7.00052 0.501924 7.00052H2.00184Z" fill="currentColor"/>
</svg>
