<svg viewBox="0 0 32 32" fill="none" xmlns="http://www.w3.org/2000/svg">
<path d="M23.7812 16.5312C24.075 16.2375 24.075 15.7625 23.7812 15.4719L20.7812 12.4719C20.4875 12.1781 20.0125 12.1781 19.7219 12.4719C19.4312 12.7656 19.4281 13.2406 19.7219 13.5312L21.4406 15.25H10.5594L12.2781 13.5312C12.5719 13.2375 12.5719 12.7625 12.2781 12.4719C11.9844 12.1812 11.5094 12.1781 11.2187 12.4719L8.21873 15.4687C7.92498 15.7625 7.92498 16.2375 8.21873 16.5281L11.2187 19.5281C11.5125 19.8219 11.9875 19.8219 12.2781 19.5281C12.5687 19.2344 12.5719 18.7594 12.2781 18.4687L10.5594 16.75H21.4375L19.7187 18.4687C19.425 18.7625 19.425 19.2375 19.7187 19.5281C20.0125 19.8187 20.4875 19.8219 20.7781 19.5281L23.7781 16.5281L23.7812 16.5312Z" fill="currentColor"/>
</svg>
