<?xml version="1.0" encoding="UTF-8"?>
<svg id="Layer_2" data-name="Layer 2" xmlns="http://www.w3.org/2000/svg" viewBox="0 0 32 32">
  <defs>
    <style>
      .cls-1 {
        fill: none;
      }

      .cls-2 {
        fill: currentColor;
      }
    </style>
  </defs>
  <g id="Layer_1-2" data-name="Layer 1">
    <g>
      <rect class="cls-1" width="32" height="32"/>
      <path class="cls-2" d="m13.45,10.76c.28-.26.29-.7.03-.97s-.7-.29-.97-.03l-4.07,3.87c-.57.54-.57,1.46,0,2l4.07,3.87c.28.26.71.25.97-.03s.25-.71-.03-.97l-4.07-3.87,4.07-3.87Zm4.12,4.78h-.69c-.38,0-.69.31-.69.69v1.5l-3.45-3.1,3.45-3.1v1.5c0,.38.31.69.69.69h2.07c2.03,0,3.68,1.65,3.68,3.68,0,.44-.05.84-.15,1.19-.48-1.75-2.08-3.03-3.99-3.03h-.92Zm0,2.76v-1.38h.92c.16,0,.31.01.46.04,1.3.22,2.3,1.35,2.3,2.72,0,.5-.12.88-.27,1.15-.05.08-.09.16-.14.23-.07.1-.15.18-.22.25-.01.01-.03.03-.04.04-.14.14-.24.32-.24.52,0,.31.25.57.57.57.08,0,.16-.02.23-.05.07-.04.18-.1.31-.19.08-.05.16-.11.26-.18.11-.08.22-.17.34-.27.86-.74,1.97-2.13,1.97-4.37,0-2.79-2.26-5.05-5.05-5.05h-1.38v-1.84c0-.36-.21-.69-.55-.84s-.72-.09-.99.16l-4.6,4.14c-.19.18-.3.42-.3.68s.11.51.3.68l4.6,4.14c.27.24.66.3.99.16s.55-.48.55-.84v-.46Z"/>
    </g>
  </g>
</svg>