<svg viewBox="0 0 32 32" fill="currentColor" xmlns="http://www.w3.org/2000/svg">
<path d="M23 9.5H9C8.725 9.5 8.5 9.725 8.5 10V16H23.5V10C23.5 9.725 23.275 9.5 23 9.5ZM25 16V17.5V19C25 20.1031 24.1031 21 23 21H18.3844L18.6344 22.5H20.25C20.6656 22.5 21 22.8344 21 23.25C21 23.6656 20.6656 24 20.25 24H18H14H11.75C11.3344 24 11 23.6656 11 23.25C11 22.8344 11.3344 22.5 11.75 22.5H13.3656L13.6156 21H9C7.89688 21 7 20.1031 7 19V17.5V16V10C7 8.89688 7.89688 8 9 8H23C24.1031 8 25 8.89688 25 10V16ZM8.5 17.5V19C8.5 19.275 8.725 19.5 9 19.5H14.4844C14.4938 19.5 14.5031 19.5 14.5094 19.5H17.4844C17.4937 19.5 17.5031 19.5 17.5094 19.5H23C23.275 19.5 23.5 19.275 23.5 19V17.5H8.5ZM14.8844 22.5H17.1125L16.8625 21H15.1344L14.8844 22.5Z" fill="currentColor"/>
</svg>
