<svg xmlns="http://www.w3.org/2000/svg" viewBox="0 0 15.022 15.5">
  <path id="icon_settings" fill="currentcolor" d="M6.141-6.594l1-.574a.751.751,0,0,0,.349-.845,7.737,7.737,0,0,0-2-3.462.75.75,0,0,0-.906-.119l-.993.574a7.384,7.384,0,0,0-1.028-.594v-1.149A.791.791,0,0,0,2-13.49a7.8,7.8,0,0,0-4,0,.75.75,0,0,0-.558.725v1.149a7.384,7.384,0,0,0-1.028.594l-.993-.574a.75.75,0,0,0-.906.119,7.737,7.737,0,0,0-2,3.462.751.751,0,0,0,.349.845l1,.574c-.016.163-.029.429-.029.594s.013.43.029.594l-1,.574a.751.751,0,0,0-.349.845,7.737,7.737,0,0,0,2,3.462A.75.75,0,0,0-4.578-.4l.993-.574a7.384,7.384,0,0,0,1.028.594V.764A.791.791,0,0,0-2,1.489a7.8,7.8,0,0,0,4,0A.75.75,0,0,0,2.556.764V-.384A7.384,7.384,0,0,0,3.585-.979L4.578-.4a.75.75,0,0,0,.906-.119,7.737,7.737,0,0,0,2-3.462.751.751,0,0,0-.349-.845l-1-.574A6.175,6.175,0,0,0,6.141-6.594ZM4.495-4.624l1.369.79A7.482,7.482,0,0,1,4.806-2.005L3.437-2.8A5.324,5.324,0,0,1,1.057-1.42V.161A7.567,7.567,0,0,1,0,.251,7.567,7.567,0,0,1-1.057.161V-1.42A5.324,5.324,0,0,1-3.437-2.8l-1.37.791A7.483,7.483,0,0,1-5.864-3.834l1.369-.79a5.379,5.379,0,0,1,0-2.751l-1.369-.79A6.256,6.256,0,0,1-4.806-9.995l1.37.791a5.323,5.323,0,0,1,2.38-1.376v-1.581A7.567,7.567,0,0,1,0-12.251a7.567,7.567,0,0,1,1.057.09v1.581A5.324,5.324,0,0,1,3.437-9.2l1.37-.791A7.482,7.482,0,0,1,5.864-8.166l-1.369.79A5.378,5.378,0,0,1,4.495-4.624ZM0-9A3,3,0,0,0-3-6,3,3,0,0,0,0-3,3,3,0,0,0,3-6,3,3,0,0,0,0-9ZM0-4.5A1.5,1.5,0,0,1-1.5-6,1.5,1.5,0,0,1,0-7.5,1.5,1.5,0,0,1,1.5-6,1.5,1.5,0,0,1,0-4.5Z" transform="translate(7.511 13.75)"/>
</svg>
