<?xml version="1.0" encoding="UTF-8"?>
<svg id="Layer_2" data-name="Layer 2" xmlns="http://www.w3.org/2000/svg" viewBox="0 0 32 32">
  <defs>
    <style>
      .cls-1 {
        fill: none;
      }

      .cls-2 {
        fill: currentColor;
      }
    </style>
  </defs>
  <g id="Layer_1-2" data-name="Layer 1">
    <g>
      <rect class="cls-1" width="32" height="32"/>
      <path class="cls-2" d="M25.08,19.67c.08-.44,.08-.89,0-1.33l.8-.47c.09-.05,.14-.16,.11-.27-.21-.67-.57-1.29-1.04-1.79-.07-.08-.19-.1-.28-.04l-.8,.47c-.34-.29-.73-.52-1.15-.66v-.93c0-.11-.08-.2-.18-.22-.7-.16-1.41-.15-2.07,0-.1,.02-.18,.11-.18,.22v.93c-.42,.15-.81,.38-1.15,.66l-.81-.47c-.09-.05-.21-.04-.28,.04-.47,.51-.83,1.12-1.04,1.79-.03,.11,.01,.21,.1,.27l.8,.47c-.08,.44-.08,.89,0,1.33l-.8,.47c-.09,.05-.13,.16-.1,.27,.21,.67,.57,1.28,1.04,1.79,.07,.08,.19,.1,.28,.04l.81-.47c.34,.29,.73,.52,1.15,.66v.93c0,.11,.07,.2,.18,.22,.7,.16,1.41,.15,2.07,0,.1-.02,.18-.11,.18-.22v-.93c.42-.15,.81-.38,1.15-.66l.8,.47c.09,.05,.21,.04,.28-.04,.47-.51,.83-1.12,1.04-1.79,.03-.11-.01-.21-.11-.27l-.81-.47Zm-3.58,.85c-.84,0-1.52-.68-1.52-1.52s.68-1.52,1.52-1.52,1.52,.68,1.52,1.52-.68,1.52-1.52,1.52Zm-2.22,2.85c0,.19,.06,.37,.14,.53-.13,.06-.27,.1-.42,.1H7c-.55,0-1-.45-1-1,0-3.04,2.46-5.5,5.5-5.5h2.97c.52,0,1.02,.08,1.5,.21,.01,.42,.24,.81,.61,1.02l.24,.14c0,.08,0,.16,0,.25l-.25,.15c-.1,.05-.18,.13-.25,.2-.53-.29-1.15-.47-1.82-.47h-3c-2.04,0-3.72,1.53-3.97,3.5h9.48c.1,.12,.19,.25,.3,.37,.25,.26,.57,.4,.91,.4,.22,0,.43-.06,.62-.17l.24-.14c.07,.04,.14,.08,.21,.12v.29h0Zm-6.28-7.37c2.21,0,4-1.79,4-4s-1.79-4-4-4-4,1.79-4,4,1.79,4,4,4Zm0-6.5c1.38,0,2.5,1.12,2.5,2.5s-1.12,2.5-2.5,2.5-2.5-1.12-2.5-2.5,1.12-2.5,2.5-2.5Z"/>
    </g>
  </g>
</svg>