<svg viewBox="0 0 32 32" fill="none" xmlns="http://www.w3.org/2000/svg">
<path d="M23 12C23 13.6562 21.6562 15 20 15C19.0969 15 18.2875 14.6 17.7375 13.9688L14.9344 15.3719C14.9781 15.575 15 15.7844 15 16C15 16.2156 14.9781 16.425 14.9344 16.6281L17.7375 18.0312C18.2875 17.4 19.0969 17 20 17C21.6562 17 23 18.3438 23 20C23 21.6562 21.6562 23 20 23C18.3438 23 17 21.6562 17 20C17 19.7844 17.0219 19.575 17.0656 19.3719L14.2625 17.9688C13.7125 18.6 12.9031 19 12 19C10.3438 19 9 17.6562 9 16C9 14.3438 10.3438 13 12 13C12.9031 13 13.7125 13.4 14.2625 14.0312L17.0656 12.6281C17.0219 12.425 17 12.2156 17 12C17 10.3438 18.3438 9 20 9C21.6562 9 23 10.3438 23 12ZM12 17.5C12.3978 17.5 12.7794 17.342 13.0607 17.0607C13.342 16.7794 13.5 16.3978 13.5 16C13.5 15.6022 13.342 15.2206 13.0607 14.9393C12.7794 14.658 12.3978 14.5 12 14.5C11.6022 14.5 11.2206 14.658 10.9393 14.9393C10.658 15.2206 10.5 15.6022 10.5 16C10.5 16.3978 10.658 16.7794 10.9393 17.0607C11.2206 17.342 11.6022 17.5 12 17.5ZM21.5 12C21.5 11.803 21.4612 11.608 21.3858 11.426C21.3104 11.244 21.1999 11.0786 21.0607 10.9393C20.9214 10.8001 20.756 10.6896 20.574 10.6142C20.392 10.5388 20.197 10.5 20 10.5C19.803 10.5 19.608 10.5388 19.426 10.6142C19.244 10.6896 19.0786 10.8001 18.9393 10.9393C18.8001 11.0786 18.6896 11.244 18.6142 11.426C18.5388 11.608 18.5 11.803 18.5 12C18.5 12.197 18.5388 12.392 18.6142 12.574C18.6896 12.756 18.8001 12.9214 18.9393 13.0607C19.0786 13.1999 19.244 13.3104 19.426 13.3858C19.608 13.4612 19.803 13.5 20 13.5C20.197 13.5 20.392 13.4612 20.574 13.3858C20.756 13.3104 20.9214 13.1999 21.0607 13.0607C21.1999 12.9214 21.3104 12.756 21.3858 12.574C21.4612 12.392 21.5 12.197 21.5 12ZM20 21.5C20.3978 21.5 20.7794 21.342 21.0607 21.0607C21.342 20.7794 21.5 20.3978 21.5 20C21.5 19.6022 21.342 19.2206 21.0607 18.9393C20.7794 18.658 20.3978 18.5 20 18.5C19.6022 18.5 19.2206 18.658 18.9393 18.9393C18.658 19.2206 18.5 19.6022 18.5 20C18.5 20.3978 18.658 20.7794 18.9393 21.0607C19.2206 21.342 19.6022 21.5 20 21.5Z" fill="currentColor"/>
</svg>
