<svg xmlns="http://www.w3.org/2000/svg" viewBox="0 0 16 16"><defs><style>.a{fill:none;}.b{fill:#b9b9b9;}</style></defs><path class="a" d="M0,15.7H15.7V0H0Z" transform="translate(0 0.301)"/><rect class="a" width="16" height="16"/><path class="b" d="M2.354,2.217V9.672a.571.571,0,0,1-.549.588.571.571,0,0,1-.549-.588V2.217H.275a.294.294,0,0,1-.192-.5L1.614.084a.268.268,0,0,1,.39,0L3.534,1.717a.3.3,0,0,1-.192.5Z" transform="translate(7.768 3.057)"/><path d="M1.614,10.182.083,8.543a.294.294,0,0,1,.192-.5h.982V.588A.571.571,0,0,1,1.806,0a.571.571,0,0,1,.549.588V8.043h.982a.294.294,0,0,1,.192.5L2,10.182a.262.262,0,0,1-.384,0Z" transform="translate(4.476 3.118)"/></svg>