<svg xmlns="http://www.w3.org/2000/svg" viewBox="0 0 16 16"><defs><style>.a{fill:none;}.b{fill:#b9b9b9;}</style></defs><path class="a" d="M15.7,0H0V15.7H15.7Z" transform="translate(0.301)"/><rect class="a" width="16" height="16"/><path class="b" d="M10.262,11.317V3.861a.55.55,0,1,1,1.1,0v7.456h.982a.294.294,0,0,1,.192.5L11,13.45a.268.268,0,0,1-.39,0L9.082,11.816a.3.3,0,0,1,.192-.5Z" transform="translate(-4.384 -0.591)"/><path d="M7.706,3.291,9.237,4.93a.294.294,0,0,1-.192.5H8.063v7.456a.55.55,0,1,1-1.1,0V5.43H5.984a.294.294,0,0,1-.192-.5L7.322,3.291a.262.262,0,0,1,.384,0Z" transform="translate(2.204 -0.591)"/></svg>