<svg xmlns="http://www.w3.org/2000/svg" viewBox="0 0 32 32">
  <g id="ic_success" transform="translate(-1529 -703)">
    <rect id="Rectangle_1742" data-name="Rectangle 1742" width="32" height="32" transform="translate(1529 703)" fill="none"/>
    <path id="Path_2645" data-name="Path 2645" d="M9-15.469A8.719,8.719,0,0,0,.281-6.75,8.719,8.719,0,0,0,9,1.969,8.719,8.719,0,0,0,17.719-6.75,8.719,8.719,0,0,0,9-15.469Zm0,1.688A7.027,7.027,0,0,1,16.031-6.75,7.027,7.027,0,0,1,9,.281,7.027,7.027,0,0,1,1.969-6.75,7.027,7.027,0,0,1,9-13.781ZM13.929-9.2l-.792-.8a.422.422,0,0,0-.6,0L7.571-5.073l-2.1-2.119a.422.422,0,0,0-.6,0l-.8.792a.422.422,0,0,0,0,.6L7.263-2.588a.422.422,0,0,0,.6,0L13.927-8.6A.422.422,0,0,0,13.929-9.2Z" transform="translate(1536 726)" fill="#fff"/>
  </g>
</svg>
