<svg viewBox="0 0 70 70" fill="none" xmlns="http://www.w3.org/2000/svg">
<rect width="70" height="70" rx="35" fill="white"/>
<path d="M34.4323 24.4375C35.6302 24.4375 36.6458 25.184 37.026 26.225C37.2552 26.8598 37.9688 27.1898 38.6198 26.9664C39.2708 26.743 39.6094 26.0473 39.3802 25.4125C38.6615 23.427 36.7188 22 34.4323 22C32.1458 22 30.1979 23.427 29.4792 25.4125C29.25 26.0473 29.5885 26.743 30.2396 26.9664C30.8906 27.1898 31.6042 26.8598 31.8333 26.225C32.2135 25.184 33.2344 24.4375 34.4323 24.4375ZM23.474 32.0293C24.0937 31.7297 24.3438 30.9984 24.0312 30.3941C23.7188 29.7898 22.974 29.5461 22.3542 29.8508L22.1094 29.9676C20.8177 30.5973 20 31.8871 20 33.3039C20 35.2031 21.4583 36.7723 23.3437 37.0059C23.4583 39.5043 24.7396 41.7133 26.6667 43.125V45.5625C26.6667 46.9082 27.7865 48 29.1667 48H31.6667C33.0469 48 34.1667 46.9082 34.1667 45.5625V44.75H36.6667V45.5625C36.6667 46.9082 37.7865 48 39.1667 48H41.6667C43.0469 48 44.1667 46.9082 44.1667 45.5625V43.6633C45.1406 43.1148 45.9948 42.3734 46.6667 41.5H48.3333C49.2552 41.5 50 40.7738 50 39.875V35C50 34.1012 49.2552 33.375 48.3333 33.375H47.6406C47.2135 32.4203 46.6042 31.5621 45.8594 30.8461L46.4479 28.9773C46.776 27.9312 45.974 26.875 44.8542 26.875H43.75C42.1094 26.875 40.6146 27.4945 39.5 28.5H31.6667C27.7917 28.5 24.5312 31.0797 23.599 34.5734C22.974 34.4719 22.5 33.9387 22.5 33.2988C22.5 32.8113 22.7812 32.3645 23.2344 32.141L23.4792 32.0242L23.474 32.0293ZM42.0833 36.625C42.4149 36.625 42.7328 36.4966 42.9672 36.268C43.2016 36.0395 43.3333 35.7295 43.3333 35.4062C43.3333 35.083 43.2016 34.773 42.9672 34.5445C42.7328 34.3159 42.4149 34.1875 42.0833 34.1875C41.7518 34.1875 41.4339 34.3159 41.1994 34.5445C40.965 34.773 40.8333 35.083 40.8333 35.4062C40.8333 35.7295 40.965 36.0395 41.1994 36.268C41.4339 36.4966 41.7518 36.625 42.0833 36.625ZM40.9531 30.5312C41.6354 29.7848 42.625 29.3176 43.724 29.3125L43.2292 30.8766C43.0781 31.3539 43.2396 31.8719 43.6406 32.1867C44.5469 32.8926 45.224 33.8523 45.5729 34.9543C45.7344 35.4672 46.2188 35.8176 46.7656 35.8176H47.4948V39.0676H46.0104C45.5781 39.0676 45.1771 39.2859 44.9531 39.6414C44.3438 40.591 43.4583 41.3527 42.4062 41.8148C41.9531 42.0078 41.6667 42.4395 41.6667 42.9219V45.5625H39.1667V43.5312C39.1667 42.8559 38.6094 42.3125 37.9167 42.3125H32.9167C32.224 42.3125 31.6667 42.8559 31.6667 43.5312V45.5625H29.1667V42.4852C29.1667 42.0637 28.9427 41.6727 28.5781 41.4543C26.9271 40.4488 25.8333 38.6613 25.8333 36.6301C25.8333 33.4867 28.4427 30.9426 31.6667 30.9426H40H40.0208C40.375 30.9426 40.7187 30.7953 40.9531 30.5363V30.5312Z" fill="currentcolor"/>
<rect x="0.5" y="0.5" width="69" height="69" rx="34.5" stroke="#74B0EA" stroke-opacity="0.25"/>
</svg>
