<svg xmlns="http://www.w3.org/2000/svg" viewBox="0 0 16 16"><defs><style>.a{fill:none;}.b{fill:"currentcolor";}</style></defs><rect class="a" width="16" height="16"/><path class="b" d="M13.593-8.873A2.778,2.778,0,0,0,10.8-11.429a2.831,2.831,0,0,0-.56.056A4.423,4.423,0,0,0,6.8-13,4.384,4.384,0,0,0,2.493-9.567,3.928,3.928,0,0,0,0-5.929,3.964,3.964,0,0,0,4-2h8.4A3.569,3.569,0,0,0,16-5.536,3.542,3.542,0,0,0,13.593-8.873ZM12.4-3.179H4a2.774,2.774,0,0,1-2.8-2.75A2.769,2.769,0,0,1,3.6-8.652v-.027a3.172,3.172,0,0,1,3.2-3.143,3.2,3.2,0,0,1,2.96,1.95,1.608,1.608,0,0,1,1.04-.378,1.587,1.587,0,0,1,1.6,1.571,1.542,1.542,0,0,1-.22.8,2.192,2.192,0,0,1,.22-.01,2.379,2.379,0,0,1,2.4,2.357A2.379,2.379,0,0,1,12.4-3.179Z" transform="translate(0 15.001)"/></svg>