<svg xmlns="http://www.w3.org/2000/svg" viewBox="0 0 16 16"><defs><style>.a{fill:"currentcolor";}.b{fill:none;}</style></defs><path class="a" d="M-3.447-2a.148.148,0,0,0,.18-.1L.153-13.653a.139.139,0,0,0-.1-.173l-.608-.166a.146.146,0,0,0-.18.1L-4.154-2.343a.139.139,0,0,0,.1.173ZM-5.284-4.94l.45-.49A.114.114,0,0,0-4.847-5.6L-7.787-8l2.941-2.4a.114.114,0,0,0,.012-.166l-.45-.49a.124.124,0,0,0-.173-.009l-3.5,2.982a.113.113,0,0,0,0,.176l3.5,2.982A.126.126,0,0,0-5.284-4.94Zm6.739.009,3.5-2.982a.113.113,0,0,0,0-.176l-3.5-2.979a.128.128,0,0,0-.173.009l-.45.49a.114.114,0,0,0,.012.166L3.786-8,.845-5.6a.114.114,0,0,0-.012.166l.45.49A.124.124,0,0,0,1.455-4.931Z" transform="translate(10.001 15.998)"/><rect class="b" width="16" height="16"/></svg>