<svg id="Icon-Video" xmlns="http://www.w3.org/2000/svg" width="32" height="32" viewBox="0 0 32 32">
  <rect id="Rectangle_8151" data-name="Rectangle 8151" width="32" height="32" fill="none"/>
  <path id="play-regular" d="M.876,32.218a1.715,1.715,0,0,1,1.733.033l10.286,6.285A1.72,1.72,0,0,1,13.717,40a1.628,1.628,0,0,1-.822,1.432L2.609,47.72a1.648,1.648,0,0,1-1.733.064A1.715,1.715,0,0,1,0,46.287V33.714a1.715,1.715,0,0,1,.876-1.5Zm.839,14.069L12,40,1.715,33.714Z" transform="translate(9 -23.999)"/>
</svg>
