<svg id="Icon-Scrom" xmlns="http://www.w3.org/2000/svg" width="16" height="16" viewBox="0 0 20 20">
  <rect id="Rectangle_8154" data-name="Rectangle 8154" width="32" height="32" fill="none" opacity="0"/>
  <path id="box-regular" d="M12.229,32a2.288,2.288,0,0,1,2.089,1.358L15.8,36.7a2.3,2.3,0,0,1,.2.929v8.086A2.288,2.288,0,0,1,13.714,48H2.286A2.287,2.287,0,0,1,0,45.714V37.629A2.283,2.283,0,0,1,.2,36.7l1.486-3.342A2.285,2.285,0,0,1,3.771,32Zm0,1.714H8.857v2.857h5.014L12.75,34.054a.569.569,0,0,0-.521-.339Zm2.057,4.571H1.714v7.429a.572.572,0,0,0,.571.571H13.714a.573.573,0,0,0,.571-.571ZM2.13,36.571H7.143V33.714H3.771a.572.572,0,0,0-.523.339Z" transform="translate(8 -24)"/>
</svg>
