<svg xmlns="http://www.w3.org/2000/svg" viewBox="0 0 16 16"><defs><style>.a{fill:none;}.b{fill:"currentcolor";}</style></defs><rect class="a" width="16" height="16"/><path class="b" d="M11.941-9.673l-1.186-3.558A1.122,1.122,0,0,0,9.689-14H2.311a1.122,1.122,0,0,0-1.066.769L.059-9.673A1.147,1.147,0,0,0,0-9.317v6.192A1.125,1.125,0,0,0,1.125-2h9.75A1.125,1.125,0,0,0,12-3.125V-9.317A1.081,1.081,0,0,0,11.941-9.673ZM10.814-9.5H6.563v-3.375H9.689Zm-8.5-3.375H5.438V-9.5H1.186ZM1.125-3.125v-5.25h9.75v5.25Z" transform="translate(2 16)"/></svg>