<svg id="Icon-Audio" xmlns="http://www.w3.org/2000/svg" width="16" height="16" viewBox="0 0 20 20">
  <rect id="Rectangle_8152" data-name="Rectangle 8152" width="32" height="32" fill="none"/>
  <path id="volume-regular" d="M40.859,32.083a.94.94,0,0,0-1.013.155l-3.97,3.527H33.412A1.406,1.406,0,0,0,32,37.149v2.8a1.389,1.389,0,0,0,1.412,1.385h2.466l3.968,3.526a.745.745,0,0,0,.625.318.942.942,0,0,0,.941-.941V32.94A.91.91,0,0,0,40.859,32.083ZM40,43.187,36.415,40h-3V37.2h3L40,33.988Zm4.135-6.779a.708.708,0,0,0-.447-.159.706.706,0,0,0-.446,1.253,1.387,1.387,0,0,1,0,2.17.706.706,0,0,0,.893,1.094,2.8,2.8,0,0,0,0-4.358Zm1.779-2.174a.706.706,0,1,0-.9,1.092,4.175,4.175,0,0,1,0,6.523.706.706,0,0,0,.9,1.092,5.587,5.587,0,0,0,0-8.707Z" transform="translate(-24 -22.999)"/>
</svg>
