<svg id="Icon-Content" xmlns="http://www.w3.org/2000/svg" width="16" height="16" viewBox="0 0 20 20">
  <rect id="Rectangle_8149" data-name="Rectangle 8149" width="32" height="32" fill="none"/>
  <path id="file-invoice-regular" d="M2.5,8v2a1,1,0,0,0,1,1h5a1,1,0,0,0,1-1V8a1,1,0,0,0-1-1h-5A1,1,0,0,0,2.5,8Zm8.916-5.082L9.083.586A2.009,2.009,0,0,0,7.669,0H2A2,2,0,0,0,0,2V14a2,2,0,0,0,2,2h8a2.006,2.006,0,0,0,2-2V4.331A2,2,0,0,0,11.416,2.918ZM10.5,14a.5.5,0,0,1-.5.5H2a.5.5,0,0,1-.5-.5V2A.5.5,0,0,1,2,1.5H7V4A1,1,0,0,0,8,5h2.472v9ZM3,4H5.5a.5.5,0,0,0,0-1H3A.5.5,0,0,0,3,4ZM3,6H5.5a.5.5,0,0,0,0-1H3A.5.5,0,0,0,3,6Zm6,6H6.5a.5.5,0,0,0,0,1H9a.5.5,0,0,0,0-1Z" transform="translate(10 8)"/>
</svg>
