<svg id="Icon-iFrame" xmlns="http://www.w3.org/2000/svg" viewBox="0 0 32 32">
  <rect id="Rectangle_8155" data-name="Rectangle 8155" width="32" height="32" fill="none"/>
  <path id="code-regular" d="M10.373.77l-3.6,11.6a.6.6,0,0,1-1.145-.355l3.6-11.6A.6.6,0,1,1,10.373.77ZM12.61,2.955l3.2,3A.583.583,0,0,1,16,6.37a.645.645,0,0,1-.19.46l-3.2,3a.6.6,0,0,1-.82-.875L14.523,6.37,11.79,3.83a.6.6,0,1,1,.82-.875Zm-8.4.875L1.477,6.37,4.21,8.955a.6.6,0,1,1-.82.875l-3.2-3A.651.651,0,0,1,0,6.37a.589.589,0,0,1,.19-.415l3.2-3a.6.6,0,1,1,.82.875Z" transform="translate(8 10.008)"/>
</svg>
