<svg viewBox="0 0 32 32" fill="none" xmlns="http://www.w3.org/2000/svg">
<path d="M11.7778 11.1111C11.9 11.1111 12 11.2111 12 11.3333V13.5555C12 13.6778 11.9 13.7778 11.7778 13.7778H9.55556C9.43333 13.7778 9.33333 13.6778 9.33333 13.5555V11.3333C9.33333 11.2111 9.43333 11.1111 9.55556 11.1111H11.7778ZM9.55556 9.77777C8.69722 9.77777 8 10.475 8 11.3333V13.5555C8 14.4139 8.69722 15.1111 9.55556 15.1111H11.7778C11.9333 15.1111 12.0861 15.0889 12.2278 15.0444L14.3361 17.8555C14.2611 18.0361 14.2222 18.2361 14.2222 18.4444V20.6667C14.2222 21.525 14.9194 22.2222 15.7778 22.2222H18C18.8583 22.2222 19.5556 21.525 19.5556 20.6667V18.4444C19.5556 17.5861 18.8583 16.8889 18 16.8889H15.7778C15.6222 16.8889 15.4694 16.9111 15.3278 16.9555L13.2194 14.1444C13.2944 13.9639 13.3333 13.7639 13.3333 13.5555V13.1111H18.6667V13.5555C18.6667 14.4139 19.3639 15.1111 20.2222 15.1111H22.4444C23.3028 15.1111 24 14.4139 24 13.5555V11.3333C24 10.475 23.3028 9.77777 22.4444 9.77777H20.2222C19.3639 9.77777 18.6667 10.475 18.6667 11.3333V11.7778H13.3333V11.3333C13.3333 10.475 12.6361 9.77777 11.7778 9.77777H9.55556ZM18 18.2222C18.1222 18.2222 18.2222 18.3222 18.2222 18.4444V20.6667C18.2222 20.7889 18.1222 20.8889 18 20.8889H15.7778C15.6556 20.8889 15.5556 20.7889 15.5556 20.6667V18.4444C15.5556 18.3222 15.6556 18.2222 15.7778 18.2222H18ZM20.2222 11.1111H22.4444C22.5667 11.1111 22.6667 11.2111 22.6667 11.3333V13.5555C22.6667 13.6778 22.5667 13.7778 22.4444 13.7778H20.2222C20.1 13.7778 20 13.6778 20 13.5555V11.3333C20 11.2111 20.1 11.1111 20.2222 11.1111Z" fill="currentColor"/>
</svg>
