<svg id="Icon-Assignment" xmlns="http://www.w3.org/2000/svg" width="16" height="16" viewBox="0 0 20 20">
  <rect id="Rectangle_8158" data-name="Rectangle 8158" width="32" height="32" fill="none"/>
  <path id="pencil-regular" d="M1.145,11.823l-.72,2.443-.388,1.32a.751.751,0,0,0,.929.935l1.323-.391,2.443-.72a2.717,2.717,0,0,0,.895-.454l.009.006.016-.025c.044-.034.084-.069.125-.1s.084-.078.125-.119L15.42,5.2a2,2,0,0,0,0-2.831L14.188,1.137a2,2,0,0,0-2.831,0L1.84,10.653a2.82,2.82,0,0,0-.222.25l-.025.016.006.009A2.778,2.778,0,0,0,1.145,11.823ZM11.988,6.508,6.182,12.314,4.63,11.926l-.388-1.552,5.806-5.806ZM3.041,11.761l.241.97a.754.754,0,0,0,.547.547l.97.241-.232.35a1.28,1.28,0,0,1-.253.106l-.732.216-1.717.5.5-1.714.216-.732a1.206,1.206,0,0,1,.106-.253ZM9.871,7.375a.5.5,0,1,0-.707-.707l-3,3a.5.5,0,0,0,.707.707Z" transform="translate(7.993 7.45)"/>
</svg>
