<svg xmlns="http://www.w3.org/2000/svg" viewBox="0 0 16 16"><defs><style>.a{fill:none;}.b{fill:"currentcolor";}</style></defs><rect class="a" width="16" height="16"/><path class="b" d="M-3.188-13H-6.25A1.734,1.734,0,0,0-8-11.286v3.429A1.734,1.734,0,0,0-6.25-6.143H-4.5V-5.5A1.517,1.517,0,0,1-6.031-4h-.437A1.082,1.082,0,0,0-7.562-2.929v.857A1.082,1.082,0,0,0-6.469-1h.438A4.554,4.554,0,0,0-1.437-5.5v-5.786A1.734,1.734,0,0,0-3.188-13Zm.875,7.5A3.682,3.682,0,0,1-6.031-1.857h-.437a.217.217,0,0,1-.219-.214v-.857a.217.217,0,0,1,.219-.214h.438A2.382,2.382,0,0,0-3.625-5.5V-7H-6.25a.865.865,0,0,1-.875-.857v-3.429a.865.865,0,0,1,.875-.857h3.063a.865.865,0,0,1,.875.857ZM4.25-13H1.188a1.734,1.734,0,0,0-1.75,1.714v3.429a1.734,1.734,0,0,0,1.75,1.714h1.75V-5.5A1.517,1.517,0,0,1,1.406-4H.969A1.082,1.082,0,0,0-.125-2.929v.857A1.082,1.082,0,0,0,.969-1h.437A4.554,4.554,0,0,0,6-5.5v-5.786A1.734,1.734,0,0,0,4.25-13Zm.875,7.5A3.682,3.682,0,0,1,1.406-1.857H.969A.217.217,0,0,1,.75-2.071v-.857a.217.217,0,0,1,.219-.214h.437A2.382,2.382,0,0,0,3.813-5.5V-7H1.188a.865.865,0,0,1-.875-.857v-3.429a.865.865,0,0,1,.875-.857H4.25a.865.865,0,0,1,.875.857Z" transform="translate(9 15)"/></svg>