<svg width="32" height="32" viewBox="0 0 32 32" fill="none" xmlns="http://www.w3.org/2000/svg">
<path d="M16 14.5C16.663 14.5 17.2989 14.2366 17.7678 13.7678C18.2366 13.2989 18.5 12.663 18.5 12C18.5 11.337 18.2366 10.7011 17.7678 10.2322C17.2989 9.76339 16.663 9.5 16 9.5C15.337 9.5 14.7011 9.76339 14.2322 10.2322C13.7634 10.7011 13.5 11.337 13.5 12C13.5 12.663 13.7634 13.2989 14.2322 13.7678C14.7011 14.2366 15.337 14.5 16 14.5ZM20 12C20 13.0609 19.5786 14.0783 18.8284 14.8284C18.0783 15.5786 17.0609 16 16 16C14.9391 16 13.9217 15.5786 13.1716 14.8284C12.4214 14.0783 12 13.0609 12 12C12 10.9391 12.4214 9.92172 13.1716 9.17157C13.9217 8.42143 14.9391 8 16 8C17.0609 8 18.0783 8.42143 18.8284 9.17157C19.5786 9.92172 20 10.9391 20 12ZM15.5344 19.225L14.9531 18.2563C14.7531 17.9219 14.9938 17.5 15.3812 17.5H16H16.6156C17.0031 17.5 17.2437 17.925 17.0437 18.2563L16.4625 19.225L16.9594 21.075L18.3281 18.3375C18.4219 18.15 18.6219 18.0406 18.825 18.075C21.2 18.4875 23 20.5531 23 23.0406C23 23.5719 22.5687 24 22.0406 24H9.95938C9.43125 24 9 23.5687 9 23.0406C9 20.5531 10.8 18.4875 13.1719 18.075C13.3781 18.0406 13.575 18.15 13.6687 18.3375L15.0375 21.075L15.5344 19.225ZM12.7031 19.7594C11.5719 20.2219 10.7312 21.2563 10.5406 22.5H14.0719L12.7031 19.7594ZM17.9281 22.5H21.4594C21.2688 21.2563 20.4281 20.2219 19.2969 19.7594L17.9281 22.5Z" fill="currentColor"/>
</svg>