<svg viewBox="0 0 16 13" fill="none" xmlns="http://www.w3.org/2000/svg">
<path d="M2.4 3.2C2.4 2.35131 2.73714 1.53737 3.33726 0.937258C3.93737 0.337142 4.75131 0 5.6 0C6.44869 0 7.26263 0.337142 7.86274 0.937258C8.46286 1.53737 8.8 2.35131 8.8 3.2C8.8 4.04869 8.46286 4.86263 7.86274 5.46274C7.26263 6.06286 6.44869 6.4 5.6 6.4C4.75131 6.4 3.93737 6.06286 3.33726 5.46274C2.73714 4.86263 2.4 4.04869 2.4 3.2ZM0 12.0575C0 9.595 1.995 7.6 4.4575 7.6H6.7425C9.205 7.6 11.2 9.595 11.2 12.0575C11.2 12.4675 10.8675 12.8 10.4575 12.8H0.7425C0.3325 12.8 0 12.4675 0 12.0575ZM11.8 5H15.4C15.7325 5 16 5.2675 16 5.6C16 5.9325 15.7325 6.2 15.4 6.2H11.8C11.4675 6.2 11.2 5.9325 11.2 5.6C11.2 5.2675 11.4675 5 11.8 5Z"  fill="currentColor"/>
</svg>
