<svg viewBox="0 0 32 32" fill="none" xmlns="http://www.w3.org/2000/svg">
<path d="M18.1525 10.6857C18.385 10.7251 18.485 11.0396 18.315 11.2261L17.365 12.2293L17.59 13.6512C17.6025 13.9082 17.3825 14.1051 17.1675 13.9875L16.005 13.3176L14.8325 13.9957C14.6175 14.1133 14.375 13.9164 14.41 13.6621L14.635 12.2375L13.685 11.2261C13.515 11.0396 13.615 10.7251 13.8475 10.6857L15.155 10.4796L15.745 9.17314C15.8525 8.93741 16.1575 8.94722 16.255 9.17314L16.845 10.4796L18.1525 10.6857ZM13.6 17.3125C13.6 16.5879 14.1375 16 14.8 16H17.2C17.8625 16 18.4 16.5879 18.4 17.3125V21.6875C18.4 22.4121 17.8625 23 17.2 23H14.8C14.1375 23 13.6 22.4121 13.6 21.6875V17.3125ZM14.8 21.6875H17.2V17.3125H14.8V21.6875ZM8 19.0625C8 18.3379 8.53725 17.75 9.2 17.75H11.6C12.2625 17.75 12.8 18.3379 12.8 19.0625V21.6875C12.8 22.4121 12.2625 23 11.6 23H9.2C8.53725 23 8 22.4121 8 21.6875V19.0625ZM9.2 21.6875H11.6V19.0625H9.2V21.6875ZM22.8 18.625C23.4625 18.625 24 19.2129 24 19.9375V21.6875C24 22.4121 23.4625 23 22.8 23H20.4C19.7375 23 19.2 22.4121 19.2 21.6875V19.9375C19.2 19.2129 19.7375 18.625 20.4 18.625H22.8ZM22.8 19.9375H20.4V21.6875H22.8V19.9375Z" fill="currentcolor"/>
</svg>
