<svg xmlns="http://www.w3.org/2000/svg" viewBox="0 0 32 32">
  <g id="ic_warning" transform="translate(-1529 -849)">
    <rect id="Rectangle_1741" data-name="Rectangle 1741" width="32" height="32" transform="translate(1529 849)" fill="none"/>
    <path id="Path_2643" data-name="Path 2643" d="M7.665-9.442l.2,3.451a.37.37,0,0,0,.369.348H9.512a.374.374,0,0,0,.369-.348l.2-3.451a.37.37,0,0,0-.369-.392H8.035A.37.37,0,0,0,7.665-9.442Zm2.5,5.525A1.294,1.294,0,0,0,8.875-5.211,1.294,1.294,0,0,0,7.581-3.917,1.294,1.294,0,0,0,8.875-2.622,1.294,1.294,0,0,0,10.169-3.917Zm-.013-11.094a1.48,1.48,0,0,0-2.562,0L.2-2.191A1.48,1.48,0,0,0,1.481.028H16.269A1.48,1.48,0,0,0,17.55-2.191ZM1.639-1.729,8.715-13.993a.185.185,0,0,1,.32,0L16.111-1.729a.185.185,0,0,1-.16.277H1.8A.185.185,0,0,1,1.639-1.729Z" transform="translate(1536.25 872.111)" fill="currentColor"/>
  </g>
</svg>
