<svg viewBox="0 0 32 32" fill="none" xmlns="http://www.w3.org/2000/svg">
<path d="M26 16.0372C26 10.4932 21.5234 6 16 6C10.4766 6 6 10.4932 6 16.0372C6 20.7422 9.23047 24.6944 13.5859 25.7804V19.1033H11.5234V16.0372H13.5859V14.7159C13.5859 11.3009 15.125 9.71692 18.4688 9.71692C19.1016 9.71692 20.1953 9.84238 20.6445 9.96785V12.7438C20.4102 12.7203 20 12.7046 19.4883 12.7046C17.8477 12.7046 17.2148 13.328 17.2148 14.9473V16.0372H20.4805L19.918 19.1033H17.2109V26C22.1641 25.4001 26 21.1696 26 16.0372Z" fill="currentColor"/>
</svg>
