<svg viewBox="0 0 33 32" fill="none" xmlns="http://www.w3.org/2000/svg">
<path d="M16.5 4C9.8724 4 4.5 9.3724 4.5 16C4.5 22.6276 9.8724 28 16.5 28C23.1276 28 28.5 22.6276 28.5 16C28.5 9.3724 23.1276 4 16.5 4Z" fill="url(#paint0_linear_20466_14638)"/>
<path d="M18.1242 19.1806H21.2298L21.7176 16.0258H18.1242V14.3014C18.1242 12.991 18.5526 11.8288 19.7784 11.8288H21.7482V9.076C21.402 9.0292 20.67 8.9272 19.287 8.9272C16.3986 8.9272 14.7054 10.4524 14.7054 13.9276V16.0264H11.736V19.1812H14.7048V27.8524C15.2928 27.94 15.8886 28 16.5 28C17.0526 28 17.592 27.9496 18.1242 27.8776V19.1806Z" fill="white"/>
<defs>
<linearGradient id="paint0_linear_20466_14638" x1="8.0958" y1="7.5958" x2="26.469" y2="25.969" gradientUnits="userSpaceOnUse">
<stop stop-color="#2AA4F4"/>
<stop offset="1" stop-color="#007AD9"/>
</linearGradient>
</defs>
</svg>
