<svg viewBox="0 0 32 32" fill="none" xmlns="http://www.w3.org/2000/svg">
<path d="M24 21.7778C24 23.0053 23.0053 24 21.7778 24H10.2222C8.99511 24 8 23.0053 8 21.7778V10.2222C8 8.99467 8.99511 8 10.2222 8H21.7778C23.0053 8 24 8.99467 24 10.2222V21.7778Z" fill="currentcolor"/>
<path d="M10.6667 13.7778H12.8889V21.3333H10.6667V13.7778ZM11.7711 12.8889H11.7587C11.0956 12.8889 10.6667 12.3947 10.6667 11.7773C10.6667 11.1467 11.1089 10.6667 11.784 10.6667C12.46 10.6667 12.8764 11.1467 12.8889 11.7773C12.8889 12.3942 12.46 12.8889 11.7711 12.8889ZM21.3333 21.3333H19.1111V17.2893C19.1111 16.3124 18.5667 15.6458 17.6924 15.6458C17.0253 15.6458 16.6644 16.0956 16.4893 16.5302C16.4253 16.6858 16.4444 17.116 16.4444 17.3333V21.3333H14.2222V13.7778H16.4444V14.9404C16.7649 14.4444 17.2667 13.7778 18.5502 13.7778C20.1404 13.7778 21.3329 14.7778 21.3329 17.0107L21.3333 21.3333Z" fill="white"/>
</svg>
