<svg viewBox="0 0 33 32" fill="none" xmlns="http://www.w3.org/2000/svg">
<path d="M28.5 8.5588C27.617 8.95048 26.668 9.21508 25.6721 9.33413C26.6886 8.72476 27.4694 7.75984 27.837 6.61C26.8855 7.17436 25.8318 7.58404 24.7102 7.80484C23.8121 6.84784 22.5324 6.25 21.1161 6.25C18.3969 6.25 16.1922 8.45452 16.1922 11.1737C16.1922 11.5596 16.2357 11.9355 16.3197 12.2959C12.2275 12.0905 8.59941 10.1302 6.17084 7.1512C5.747 7.8784 5.50412 8.72417 5.50412 9.62657C5.50412 11.3349 6.3734 12.842 7.6946 13.7249C6.88748 13.6994 6.12824 13.4779 5.4644 13.1091C5.46384 13.1296 5.46384 13.1502 5.46384 13.171C5.46384 15.5566 7.16113 17.5466 9.41365 17.9992C9.00049 18.1118 8.56549 18.1719 8.11644 18.1719C7.79916 18.1719 7.49077 18.1409 7.19005 18.0836C7.81669 20.0397 9.63505 21.4633 11.7898 21.5029C10.1046 22.8236 7.98157 23.6108 5.67456 23.6108C5.27712 23.6108 4.8852 23.5874 4.5 23.5419C6.67908 24.9391 9.26725 25.7542 12.0479 25.7542C21.1047 25.7542 26.0574 18.2515 26.0574 11.7446C26.0574 11.5311 26.0526 11.3188 26.0432 11.1075C27.0051 10.4134 27.8399 9.54628 28.5 8.5588Z" fill="#2AA9E0"/>
</svg>
