<svg viewBox="0 0 32 32" fill="none" xmlns="http://www.w3.org/2000/svg">
<path d="M8.85714 6C7.28125 6 6 7.28125 6 8.85714V23.1429C6 24.7188 7.28125 26 8.85714 26H23.1429C24.7188 26 26 24.7188 26 23.1429V8.85714C26 7.28125 24.7188 6 23.1429 6H8.85714ZM22.1205 9.75L17.4866 15.0446L22.9375 22.25H18.6696L15.3304 17.8795L11.5045 22.25H9.38393L14.3393 16.5848L9.11161 9.75H13.4866L16.5089 13.7455L20 9.75H22.1205ZM20.433 20.9821L12.8482 10.9509H11.5848L19.2545 20.9821H20.433Z" fill="currentColor"/>
</svg>
