<svg viewBox="0 0 32 33" fill="currentColor" xmlns="http://www.w3.org/2000/svg">
<path d="M12 23H20C20.275 23 20.5 22.775 20.5 22.5V13.5H18C17.4469 13.5 17 13.0531 17 12.5V10H12C11.725 10 11.5 10.225 11.5 10.5V22.5C11.5 22.775 11.725 23 12 23ZM10 10.5C10 9.39688 10.8969 8.5 12 8.5H17.1719C17.7031 8.5 18.2125 8.70938 18.5875 9.08438L21.4156 11.9125C21.7906 12.2875 22 12.7969 22 13.3281V22.5C22 23.6031 21.1031 24.5 20 24.5H12C10.8969 24.5 10 23.6031 10 22.5V10.5ZM12.5 12C12.5 11.725 12.725 11.5 13 11.5H15.5C15.775 11.5 16 11.725 16 12C16 12.275 15.775 12.5 15.5 12.5H13C12.725 12.5 12.5 12.275 12.5 12ZM12.5 14C12.5 13.725 12.725 13.5 13 13.5H15.5C15.775 13.5 16 13.725 16 14C16 14.275 15.775 14.5 15.5 14.5H13C12.725 14.5 12.5 14.275 12.5 14ZM16 21C16 20.725 16.225 20.5 16.5 20.5H19C19.275 20.5 19.5 20.725 19.5 21C19.5 21.275 19.275 21.5 19 21.5H16.5C16.225 21.5 16 21.275 16 21ZM13.5 15.5H18.5C19.0531 15.5 19.5 15.9469 19.5 16.5V18.5C19.5 19.0531 19.0531 19.5 18.5 19.5H13.5C12.9469 19.5 12.5 19.0531 12.5 18.5V16.5C12.5 15.9469 12.9469 15.5 13.5 15.5Z" fill="currentColor"/>
</svg>
