<svg viewBox="0 0 32 32" fill="currentColor" xmlns="http://www.w3.org/2000/svg">
<path d="M7 16C7 13.2375 9.2375 11 12 11H14.25C14.6656 11 15 11.3344 15 11.75C15 12.1656 14.6656 12.5 14.25 12.5H12C10.0656 12.5 8.5 14.0656 8.5 16C8.5 17.9344 10.0656 19.5 12 19.5H14.25C14.6656 19.5 15 19.8344 15 20.25C15 20.6656 14.6656 21 14.25 21H12C9.2375 21 7 18.7625 7 16ZM25 16C25 18.7625 22.7625 21 20 21H17.75C17.3344 21 17 20.6656 17 20.25C17 19.8344 17.3344 19.5 17.75 19.5H20C21.9344 19.5 23.5 17.9344 23.5 16C23.5 14.0656 21.9344 12.5 20 12.5H17.75C17.3344 12.5 17 12.1656 17 11.75C17 11.3344 17.3344 11 17.75 11H20C22.7625 11 25 13.2375 25 16ZM12.75 15.25H19.25C19.6656 15.25 20 15.5844 20 16C20 16.4156 19.6656 16.75 19.25 16.75H12.75C12.3344 16.75 12 16.4156 12 16C12 15.5844 12.3344 15.25 12.75 15.25Z" fill="currentColor"/>
</svg>
