<svg width="32" height="33" viewBox="0 0 32 33" fill="currentColor" xmlns="http://www.w3.org/2000/svg">
<path d="M18.8296 9.32093L19.0971 8.59535C19.1163 8.53779 19.1733 8.5 19.25 8.5C19.3076 8.5 19.3645 8.53837 19.3837 8.59535L19.6512 9.32093L20.3767 9.58837C20.4343 9.60756 20.4721 9.66453 20.4721 9.72209C20.4721 9.79826 20.4337 9.85581 20.3767 9.875L19.6512 10.1424L19.3837 10.8488C19.3645 10.9064 19.3076 10.9442 19.25 10.9442C19.1738 10.9442 19.1163 10.9058 19.0971 10.8488L18.8296 10.1424L18.1233 9.875C18.0657 9.85581 18.0279 9.79884 18.0279 9.72209C18.0279 9.66453 18.0663 9.60756 18.1233 9.58837L18.8296 9.32093ZM23.1645 9.41628L21.064 11.5169L21.7326 12.1855L23.8331 10.0849L23.1645 9.41628ZM15.8884 16.7116L16.5378 17.361L21.0831 12.8349L20.4145 12.1663L15.8884 16.7116ZM22.5157 8.78663C22.8785 8.42384 23.4517 8.42384 23.8145 8.78663L24.464 9.43605C24.8267 9.79884 24.8267 10.3721 24.464 10.7349L17.1878 18.011C16.825 18.3738 16.2517 18.3738 15.889 18.011L15.2395 17.3616C14.8767 16.9988 14.8767 16.4262 15.2395 16.0628L22.5157 8.78663ZM14.4948 10.7535L15.5831 10.3331L15.9843 9.26395C16.0035 9.1686 16.0988 9.11105 16.1942 9.11105C16.2703 9.11105 16.3663 9.1686 16.3849 9.26395L16.8052 10.3331L17.8744 10.7535C17.9698 10.7727 18.0273 10.868 18.0273 10.9442C18.0273 11.0395 17.9698 11.1349 17.8744 11.1541L16.8052 11.5552L16.3849 12.6436C16.3657 12.7198 16.2703 12.7773 16.1942 12.7773C16.0988 12.7773 16.0035 12.7198 15.9843 12.6436L15.5831 11.5552L14.4948 11.1541C14.4186 11.1349 14.361 11.0395 14.361 10.9442C14.361 10.868 14.4186 10.7721 14.4948 10.7535ZM21.2169 15.6424L22.3052 15.2221L22.7064 14.1529C22.7256 14.0576 22.8209 14 22.9163 14C22.9924 14 23.0878 14.0576 23.107 14.1529L23.5273 15.2221L24.5965 15.6424C24.6919 15.6616 24.7494 15.757 24.7494 15.8331C24.7494 15.9285 24.6919 16.0238 24.5965 16.043L23.5273 16.4442L23.107 17.5326C23.0878 17.6087 22.9924 17.6663 22.9163 17.6663C22.8209 17.6663 22.725 17.6087 22.7064 17.5326L22.3052 16.4442L21.2169 16.043C21.1407 16.0238 21.0831 15.9285 21.0831 15.8331C21.0831 15.757 21.1407 15.661 21.2169 15.6424Z" fill="currentColor"/>
<path d="M21.1576 11.611L21.064 11.5174L22.1616 10.4198C21.9488 10.3285 21.7157 10.2779 21.4721 10.2779H21.0244L19.6913 11.611H21.1581H21.1576Z" fill="currentColor"/>
<path d="M22.9163 18.6669C22.6779 18.6669 22.4465 18.5977 22.2523 18.4767C22.1453 18.4099 22.0203 18.307 21.9163 18.1628V20.0552C21.9163 20.3052 21.6942 20.5 21.4715 20.5H9.02791C8.77791 20.5 8.58372 20.3052 8.58372 20.0552V12.0552C8.58372 11.8331 8.77791 11.611 9.02791 11.611H13.5535C13.5535 11.611 13.5523 11.6093 13.5517 11.6081C13.4302 11.414 13.3616 11.1831 13.3616 10.9442C13.3616 10.6797 13.4517 10.4488 13.5645 10.2773H9.02791C8.02791 10.2779 7.25 11.0831 7.25 12.0552V20.0552C7.25 21.0552 8.02791 21.8331 9.02791 21.8331H13.111L12.889 23.1663H11.4721C11.0831 23.1663 10.8052 23.4715 10.8052 23.8331C10.8052 24.2221 11.0831 24.5 11.4721 24.5H19.0273C19.3884 24.5 19.6942 24.2221 19.6942 23.8331C19.6942 23.4721 19.389 23.1663 19.0273 23.1663H17.5826L17.3605 21.8331H21.4715C22.4436 21.8331 23.2494 21.0552 23.2494 20.0552V18.6174C23.1465 18.6477 23.0349 18.6669 22.9163 18.6669ZM14.2494 23.1669L14.4715 21.8337H15.9994L16.2215 23.1669H14.2494Z" fill="currentColor"/>
<path d="M16.8052 11.5558L17.8744 11.1547C17.9698 11.1355 18.0273 11.0401 18.0273 10.9448C18.0273 10.9326 18.0256 10.9198 18.0227 10.907C18.0076 10.8401 17.9547 10.7703 17.8744 10.7541L16.8052 10.3337L16.7831 10.2779H15.6035L15.5826 10.3337L14.4942 10.7541C14.418 10.7733 14.3605 10.8686 14.3605 10.9448C14.3605 11.0401 14.418 11.1355 14.4942 11.1547L15.5826 11.5558L15.6029 11.6116H16.7831L16.8047 11.5558H16.8052Z" fill="currentColor"/>
<path d="M23.2465 11.9512C23.2256 11.6029 23.1017 11.2802 22.9058 11.0122L21.9128 12.0052C21.9151 12.0215 21.9169 12.0384 21.9169 12.0552V13.2808L23.2465 11.9512Z" fill="currentColor"/>
<path d="M22.7064 17.5331C22.7256 17.6093 22.8209 17.6669 22.9163 17.6669C22.9924 17.6669 23.0878 17.6093 23.107 17.5331L23.2494 17.164V14.5151L23.107 14.1529C23.0878 14.0576 22.9924 14 22.9163 14C22.8209 14 22.725 14.0576 22.7064 14.1529L22.3052 15.2221L21.9163 15.3721V16.3012L22.3052 16.4442L22.7064 17.5326V17.5331Z" fill="currentColor"/>
<path d="M19.25 10.9442C19.3076 10.9442 19.3645 10.9058 19.3837 10.8488L19.6 10.2779H18.8814L19.0977 10.8488C19.1169 10.9064 19.1738 10.9442 19.2506 10.9442L19.25 10.9442Z" fill="currentColor"/>
<path d="M12.75 13.9442L13.2262 14.968L14.25 15.4442C14.3134 15.4762 14.361 15.5395 14.361 15.611C14.361 15.6907 14.3134 15.7541 14.25 15.7855L13.2262 16.2616L12.75 17.2855C12.718 17.3488 12.6547 17.3884 12.5831 17.3884C12.5035 17.3884 12.4401 17.3488 12.4087 17.2855L11.9326 16.2616L10.9087 15.7855C10.8453 15.7535 10.8058 15.6901 10.8058 15.611C10.8058 15.5395 10.8453 15.4762 10.9087 15.4442L11.9326 14.968L12.4087 13.9442C12.4407 13.8808 12.5041 13.8331 12.5831 13.8331C12.6547 13.8331 12.718 13.8808 12.75 13.9442Z" fill="currentColor"/>
</svg>
