<svg  viewBox="0 0 32 32" fill="currentColor" xmlns="http://www.w3.org/2000/svg">
<path d="M25.025 24H20.7469C20.9 23.725 20.9844 23.4094 20.9844 23.0719C20.9844 21.0406 20.0625 19.2219 18.6125 18.0156C18.7469 18.0031 18.8844 18 19.025 18H20.9438C23.7281 18 25.9844 20.2562 25.9844 23.0406C25.9844 23.5719 25.5531 24 25.025 24ZM19.4844 16C18.5156 16 17.6406 15.6063 17.0063 14.9719C17.6219 14.1406 17.9844 13.1125 17.9844 12C17.9844 11.1625 17.7781 10.3719 17.4125 9.67813C17.9938 9.25312 18.7094 9 19.4844 9C21.4187 9 22.9844 10.5656 22.9844 12.5C22.9844 14.4344 21.4187 16 19.4844 16Z" fill="currentColor"/>
<path d="M13.0156 14.5C13.6787 14.5 14.3146 14.2366 14.7834 13.7678C15.2522 13.2989 15.5156 12.663 15.5156 12C15.5156 11.337 15.2522 10.7011 14.7834 10.2322C14.3146 9.76339 13.6787 9.5 13.0156 9.5C12.3526 9.5 11.7167 9.76339 11.2479 10.2322C10.779 10.7011 10.5156 11.337 10.5156 12C10.5156 12.663 10.779 13.2989 11.2479 13.7678C11.7167 14.2366 12.3526 14.5 13.0156 14.5ZM17.0156 12C17.0156 13.0609 16.5942 14.0783 15.8441 14.8284C15.0939 15.5786 14.0765 16 13.0156 16C11.9548 16 10.9373 15.5786 10.1872 14.8284C9.43705 14.0783 9.01563 13.0609 9.01563 12C9.01563 10.9391 9.43705 9.92172 10.1872 9.17157C10.9373 8.42143 11.9548 8 13.0156 8C14.0765 8 15.0939 8.42143 15.8441 9.17157C16.5942 9.92172 17.0156 10.9391 17.0156 12ZM12.55 19.225L11.9688 18.2563C11.7688 17.9219 12.0094 17.5 12.3969 17.5H13.6313C14.0188 17.5 14.2594 17.925 14.0594 18.2563L13.4781 19.225L13.975 21.075L15.3438 18.3375C15.4375 18.15 15.6375 18.0406 15.8406 18.075C18.2156 18.4875 20.0156 20.5531 20.0156 23.0406C20.0156 23.5719 19.5844 24 19.0563 24H6.975C6.44688 24 6.01562 23.5688 6.01562 23.0406C6.01562 20.5531 7.81562 18.4875 10.1875 18.075C10.3938 18.0406 10.5906 18.15 10.6844 18.3375L12.0531 21.075L12.55 19.225ZM9.71875 19.7594C8.5875 20.2219 7.74688 21.2563 7.55625 22.5H11.0875L9.71875 19.7594ZM14.9438 22.5H18.475C18.2844 21.2563 17.4438 20.2219 16.3125 19.7594L14.9438 22.5Z" fill="currentColor"/>
</svg>
