<svg viewBox="0 0 32 32" fill="none" xmlns="http://www.w3.org/2000/svg">
<path d="M18.25 8.50049V16.0005C18.25 17.2427 17.2422 18.2505 16 18.2505C14.7578 18.2505 13.75 17.2427 13.75 16.0005V8.50049C13.75 7.2583 14.7578 6.25049 16 6.25049C17.2422 6.25049 18.25 7.2583 18.25 8.50049ZM11.5 8.50049V16.0005C11.5 18.4849 13.5156 20.5005 16 20.5005C18.4844 20.5005 20.5 18.4849 20.5 16.0005V8.50049C20.5 6.01611 18.4844 4.00049 16 4.00049C13.5156 4.00049 11.5 6.01611 11.5 8.50049ZM10 14.1255C10 13.5021 9.49844 13.0005 8.875 13.0005C8.25156 13.0005 7.75 13.5021 7.75 14.1255V16.0005C7.75 20.1771 10.8531 23.6271 14.875 24.1755V25.7505H12.625C12.0016 25.7505 11.5 26.2521 11.5 26.8755C11.5 27.4989 12.0016 28.0005 12.625 28.0005H16H19.375C19.9984 28.0005 20.5 27.4989 20.5 26.8755C20.5 26.2521 19.9984 25.7505 19.375 25.7505H17.125V24.1755C21.1469 23.6271 24.25 20.1771 24.25 16.0005V14.1255C24.25 13.5021 23.7484 13.0005 23.125 13.0005C22.5016 13.0005 22 13.5021 22 14.1255V16.0005C22 19.3146 19.3141 22.0005 16 22.0005C12.6859 22.0005 10 19.3146 10 16.0005V14.1255Z" fill="currentColor"/>
</svg>
