<svg viewBox="0 0 20 20" fill="none" xmlns="http://www.w3.org/2000/svg">
<path d="M10 20C12.6522 20 15.1957 18.9464 17.0711 17.0711C18.9464 15.1957 20 12.6522 20 10C20 7.34784 18.9464 4.8043 17.0711 2.92893C15.1957 1.05357 12.6522 0 10 0C7.34784 0 4.8043 1.05357 2.92893 2.92893C1.05357 4.8043 0 7.34784 0 10C0 12.6522 1.05357 15.1957 2.92893 17.0711C4.8043 18.9464 7.34784 20 10 20ZM6.83594 6.83594C7.20312 6.46875 7.79687 6.46875 8.16016 6.83594L9.99609 8.67188L11.832 6.83594C12.1992 6.46875 12.793 6.46875 13.1562 6.83594C13.5195 7.20312 13.5234 7.79687 13.1562 8.16016L11.3203 9.99609L13.1562 11.832C13.5234 12.1992 13.5234 12.793 13.1562 13.1562C12.7891 13.5195 12.1953 13.5234 11.832 13.1562L9.99609 11.3203L8.16016 13.1562C7.79297 13.5234 7.19922 13.5234 6.83594 13.1562C6.47266 12.7891 6.46875 12.1953 6.83594 11.832L8.67188 9.99609L6.83594 8.16016C6.46875 7.79297 6.46875 7.19922 6.83594 6.83594Z" fill="#D12525"/>
</svg>
