<svg viewBox="0 0 20 20" fill="none" xmlns="http://www.w3.org/2000/svg">
<path d="M10 20C12.6522 20 15.1957 18.9464 17.0711 17.0711C18.9464 15.1957 20 12.6522 20 10C20 7.34784 18.9464 4.8043 17.0711 2.92893C15.1957 1.05357 12.6522 0 10 0C7.34784 0 4.8043 1.05357 2.92893 2.92893C1.05357 4.8043 0 7.34784 0 10C0 12.6522 1.05357 15.1957 2.92893 17.0711C4.8043 18.9464 7.34784 20 10 20ZM14.4141 8.16406L9.41406 13.1641C9.04688 13.5312 8.45312 13.5312 8.08984 13.1641L5.58984 10.6641C5.22266 10.2969 5.22266 9.70312 5.58984 9.33984C5.95703 8.97656 6.55078 8.97266 6.91406 9.33984L8.75 11.1758L13.0859 6.83594C13.4531 6.46875 14.0469 6.46875 14.4102 6.83594C14.7734 7.20312 14.7773 7.79687 14.4102 8.16016L14.4141 8.16406Z" fill="#3CB744"/>
</svg>
