<svg viewBox="0 0 16 17" fill="none" xmlns="http://www.w3.org/2000/svg">
<path d="M0.738944 7.73492C1.13023 7.73492 1.45471 7.43907 1.5406 7.05733C1.70921 6.29703 2.00824 5.58762 2.41225 4.95139C2.62221 4.62054 2.60312 4.18154 2.32317 3.90478C2.00187 3.58348 1.47062 3.60575 1.2193 3.98431C0.640327 4.85277 0.223592 5.83894 0.0136339 6.89827C-0.0754393 7.34364 0.284035 7.73492 0.738944 7.73492ZM4.45457 2.91225C5.09081 2.50824 5.80021 2.20921 6.56051 2.0406C6.94226 1.95471 7.23811 1.63023 7.23811 1.23894C7.23811 0.784035 6.84682 0.424561 6.40145 0.513634C5.34212 0.723592 4.35595 1.14033 3.48749 1.7193C3.10893 1.97062 3.08666 2.50187 3.40796 2.82317C3.68472 3.09994 4.12373 3.12221 4.45457 2.91225ZM8.76507 15.7611C8.76507 16.216 9.15636 16.5754 9.60173 16.4864C10.6611 16.2764 11.6472 15.8597 12.5157 15.2807C12.8943 15.0294 12.9165 14.4981 12.5952 14.1768C12.3185 13.9001 11.8795 13.8778 11.5486 14.0878C10.9124 14.4918 10.203 14.7908 9.44267 14.9594C9.06092 15.0453 8.76507 15.3698 8.76507 15.7611ZM13.5878 12.0454C13.3778 12.3763 13.3969 12.8153 13.6768 13.092C13.9981 13.4133 14.5294 13.3911 14.7807 13.0125C15.3597 12.144 15.7764 11.1579 15.9864 10.0985C16.0754 9.65318 15.716 9.26189 15.2611 9.26189C14.8698 9.26189 14.5453 9.55774 14.4594 9.93949C14.2908 10.6998 13.9918 11.4092 13.5878 12.0454ZM3.40796 14.1705C3.08666 14.4918 3.10893 15.023 3.48749 15.2743C4.35595 15.8533 5.34212 16.27 6.40145 16.48C6.84682 16.5691 7.23811 16.2096 7.23811 15.7547C7.23811 15.3634 6.94226 15.0389 6.56051 14.953C5.80021 14.7844 5.09081 14.4854 4.45457 14.0814C4.12373 13.8714 3.68472 13.8905 3.40796 14.1705ZM1.22248 13.0125C1.4738 13.3911 2.00506 13.4133 2.32636 13.092C2.60312 12.8153 2.62539 12.3763 2.41543 12.0454C2.01142 11.4092 1.71239 10.6998 1.54378 9.93949C1.45789 9.55774 1.13341 9.26189 0.742125 9.26189C0.287216 9.26189 -0.0722581 9.65318 0.0168151 10.0985C0.226773 11.1579 0.643509 12.144 1.22248 13.0125ZM12.5952 2.82317C12.9165 2.50187 12.8943 1.97062 12.5157 1.7193C11.6472 1.14033 10.6611 0.723592 9.60173 0.513634C9.15636 0.424561 8.76507 0.784035 8.76507 1.23894C8.76507 1.63023 9.06092 1.95471 9.44267 2.0406C10.203 2.20921 10.9124 2.50824 11.5486 2.91225C11.8795 3.12221 12.3185 3.10312 12.5952 2.82317ZM13.5878 4.94821C13.9918 5.58444 14.2908 6.29385 14.4594 7.05415C14.5453 7.43589 14.8698 7.73174 15.2611 7.73174C15.716 7.73174 16.0754 7.34046 15.9864 6.89509C15.7764 5.83576 15.3597 4.84959 14.7807 3.98113C14.5294 3.60257 13.9981 3.5803 13.6768 3.9016C13.4001 4.17836 13.3778 4.61736 13.5878 4.94821Z" fill="black"/>
</svg>
