<svg viewBox="0 0 20 20" fill="none" xmlns="http://www.w3.org/2000/svg">
<path fill-rule="evenodd" clip-rule="evenodd" d="M10 20C15.5228 20 20 15.5228 20 10C20 4.47715 15.5228 0 10 0C4.47715 0 0 4.47715 0 10C0 15.5228 4.47715 20 10 20ZM3.5406 8.55733C3.45471 8.93907 3.13023 9.23493 2.73894 9.23493C2.28403 9.23493 1.92456 8.84364 2.01363 8.39827C2.22359 7.33894 2.64033 6.35277 3.2193 5.48431C3.47062 5.10575 4.00187 5.08348 4.32317 5.40478C4.60312 5.68154 4.62221 6.12054 4.41225 6.45139C4.00824 7.08762 3.70921 7.79703 3.5406 8.55733ZM8.56051 3.5406C7.80021 3.70921 7.09081 4.00824 6.45457 4.41225C6.12373 4.62221 5.68472 4.59994 5.40796 4.32317C5.08666 4.00187 5.10893 3.47062 5.48749 3.2193C6.35595 2.64033 7.34212 2.22359 8.40145 2.01363C8.84682 1.92456 9.23811 2.28403 9.23811 2.73894C9.23811 3.13023 8.94226 3.45471 8.56051 3.5406ZM11.6017 17.9864C11.1564 18.0754 10.7651 17.716 10.7651 17.2611C10.7651 16.8698 11.0609 16.5453 11.4427 16.4594C12.203 16.2908 12.9124 15.9918 13.5486 15.5878C13.8795 15.3778 14.3185 15.4001 14.5952 15.6768C14.9165 15.9981 14.8943 16.5294 14.5157 16.7807C13.6472 17.3597 12.6611 17.7764 11.6017 17.9864ZM15.6768 14.592C15.3969 14.3153 15.3778 13.8763 15.5878 13.5454C15.9918 12.9092 16.2908 12.1998 16.4594 11.4395C16.5453 11.0577 16.8698 10.7619 17.2611 10.7619C17.716 10.7619 18.0754 11.1532 17.9864 11.5985C17.7764 12.6579 17.3597 13.644 16.7807 14.5125C16.5294 14.8911 15.9981 14.9133 15.6768 14.592ZM5.48749 16.7743C5.10893 16.523 5.08666 15.9918 5.40796 15.6705C5.68472 15.3905 6.12373 15.3714 6.45457 15.5814C7.09081 15.9854 7.80021 16.2844 8.56051 16.453C8.94226 16.5389 9.23811 16.8634 9.23811 17.2547C9.23811 17.7096 8.84682 18.0691 8.40145 17.98C7.34212 17.77 6.35595 17.3533 5.48749 16.7743ZM4.32636 14.592C4.00506 14.9133 3.4738 14.8911 3.22248 14.5125C2.64351 13.644 2.22677 12.6579 2.01681 11.5985C1.92774 11.1532 2.28722 10.7619 2.74213 10.7619C3.13341 10.7619 3.45789 11.0577 3.54378 11.4395C3.71239 12.1998 4.01142 12.9092 4.41543 13.5454C4.62539 13.8763 4.60312 14.3153 4.32636 14.592ZM14.5157 3.2193C14.8943 3.47062 14.9165 4.00187 14.5952 4.32317C14.3185 4.60312 13.8795 4.62221 13.5486 4.41225C12.9124 4.00824 12.203 3.70921 11.4427 3.5406C11.0609 3.45471 10.7651 3.13023 10.7651 2.73894C10.7651 2.28403 11.1564 1.92456 11.6017 2.01363C12.6611 2.22359 13.6472 2.64033 14.5157 3.2193ZM16.4594 8.55415C16.2908 7.79385 15.9918 7.08444 15.5878 6.44821C15.3778 6.11736 15.4001 5.67836 15.6768 5.4016C15.9981 5.0803 16.5294 5.10257 16.7807 5.48113C17.3597 6.34959 17.7764 7.33576 17.9864 8.39509C18.0754 8.84046 17.716 9.23174 17.2611 9.23174C16.8698 9.23174 16.5453 8.93589 16.4594 8.55415Z" fill="#FF9C28"/>
</svg>
