<svg viewBox="0 0 32 32" fill="none" xmlns="http://www.w3.org/2000/svg">
<path d="M26.5 6.25049H5.5C5.0875 6.25049 4.75 6.58799 4.75 7.00049V16.0005H27.25V7.00049C27.25 6.58799 26.9125 6.25049 26.5 6.25049ZM29.5 16.0005V18.2505V20.5005C29.5 22.1552 28.1547 23.5005 26.5 23.5005H19.5766L19.9516 25.7505H22.375C22.9984 25.7505 23.5 26.2521 23.5 26.8755C23.5 27.4989 22.9984 28.0005 22.375 28.0005H19H13H9.625C9.00156 28.0005 8.5 27.4989 8.5 26.8755C8.5 26.2521 9.00156 25.7505 9.625 25.7505H12.0484L12.4234 23.5005H5.5C3.84531 23.5005 2.5 22.1552 2.5 20.5005V18.2505V16.0005V7.00049C2.5 5.3458 3.84531 4.00049 5.5 4.00049H26.5C28.1547 4.00049 29.5 5.3458 29.5 7.00049V16.0005ZM4.75 18.2505V20.5005C4.75 20.913 5.0875 21.2505 5.5 21.2505H13.7266C13.7406 21.2505 13.7547 21.2505 13.7641 21.2505H18.2266C18.2406 21.2505 18.2547 21.2505 18.2641 21.2505H26.5C26.9125 21.2505 27.25 20.913 27.25 20.5005V18.2505H4.75ZM14.3266 25.7505H17.6688L17.2938 23.5005H14.7016L14.3266 25.7505Z" fill="currentColor"/>
</svg>
