<svg  viewBox="0 0 32 32" fill="none" xmlns="http://www.w3.org/2000/svg">
<path d="M9 9.5H17C17.275 9.5 17.5 9.725 17.5 10V14.8906C17.9563 14.5938 18.4625 14.3594 19 14.2094V10C19 8.89688 18.1031 8 17 8H9C7.89688 8 7 8.89688 7 10V22C7 23.1031 7.89688 24 9 24H17C17.1031 24 17.2063 23.9906 17.3031 23.9781C16.7438 23.5781 16.2625 23.0781 15.8875 22.5H9C8.725 22.5 8.5 22.275 8.5 22V10C8.5 9.725 8.725 9.5 9 9.5ZM10.75 12C10.3344 12 10 12.3344 10 12.75C10 13.1656 10.3344 13.5 10.75 13.5H15.25C15.6656 13.5 16 13.1656 16 12.75C16 12.3344 15.6656 12 15.25 12H10.75ZM10.75 15C10.3344 15 10 15.3344 10 15.75C10 16.1656 10.3344 16.5 10.75 16.5H15.25C15.6656 16.5 16 16.1656 16 15.75C16 15.3344 15.6656 15 15.25 15H10.75ZM10.75 18C10.3344 18 10 18.3344 10 18.75C10 19.1656 10.3344 19.5 10.75 19.5H12.25C12.6656 19.5 13 19.1656 13 18.75C13 18.3344 12.6656 18 12.25 18H10.75ZM24.9438 19.225C24.8281 18.9469 24.3781 17.975 23.4375 17.1C22.5125 16.2375 21.4187 15.7812 20.2812 15.7812C19.1438 15.7812 18.05 16.2375 17.125 17.1C16.1844 17.9719 15.7344 18.9469 15.6219 19.225C15.5469 19.4031 15.5469 19.6 15.6219 19.7781C15.7375 20.0562 16.1875 21.0312 17.125 21.9031C18.05 22.7625 19.1406 23.2188 20.2812 23.2188C21.4187 23.2188 22.5125 22.7625 23.4375 21.9C24.375 21.0312 24.8281 20.0531 24.9438 19.775C25.0188 19.5969 25.0188 19.4031 24.9438 19.225ZM22.6313 21.0312C21.9156 21.6938 21.125 22.0312 20.2812 22.0312C19.4375 22.0312 18.6469 21.6938 17.9312 21.0312C17.3 20.4438 16.9375 19.7875 16.7969 19.5C16.9375 19.2125 17.3 18.5562 17.9344 17.9688C18.65 17.3062 19.4406 16.9688 20.2844 16.9688C21.1281 16.9688 21.9187 17.3062 22.6344 17.9688C23.2656 18.5562 23.6281 19.2125 23.7687 19.5C23.625 19.7875 23.2625 20.4438 22.6313 21.0312ZM20.2812 17.2812C19.0594 17.2812 18.0625 18.275 18.0625 19.5C18.0625 20.725 19.0562 21.7188 20.2812 21.7188C21.5063 21.7188 22.5 20.725 22.5 19.5C22.5 18.275 21.5031 17.2812 20.2812 17.2812ZM20.2812 20.5312C19.7875 20.5312 19.375 20.1812 19.275 19.7188C19.2781 19.7188 19.2812 19.7188 19.2844 19.7188C19.9563 19.7188 20.5031 19.1719 20.5031 18.5C20.5031 18.4969 20.5031 18.4938 20.5031 18.4906C20.9656 18.5906 21.3156 19.0062 21.3156 19.4969C21.3125 20.0687 20.85 20.5312 20.2812 20.5312Z" fill="currentColor"/>
</svg>
