<svg viewBox="0 0 18 16" fill="currentColor">
  <path d="M2 1.5H10C10.275 1.5 10.5 1.725 10.5 2V6.89062C10.9563 6.59375 11.4625 6.35938 12 6.20937V2C12 0.896875 11.1031 0 10 0H2C0.896875 0 0 0.896875 0 2V14C0 15.1031 0.896875 16 2 16H10C10.1031 16 10.2063 15.9906 10.3031 15.9781C9.74375 15.5781 9.2625 15.0781 8.8875 14.5H2C1.725 14.5 1.5 14.275 1.5 14V2C1.5 1.725 1.725 1.5 2 1.5ZM3.75 4C3.33437 4 3 4.33437 3 4.75C3 5.16563 3.33437 5.5 3.75 5.5H8.25C8.66562 5.5 9 5.16563 9 4.75C9 4.33437 8.66562 4 8.25 4H3.75ZM3.75 7C3.33437 7 3 7.33437 3 7.75C3 8.16562 3.33437 8.5 3.75 8.5H8.25C8.66562 8.5 9 8.16562 9 7.75C9 7.33437 8.66562 7 8.25 7H3.75ZM3.75 10C3.33437 10 3 10.3344 3 10.75C3 11.1656 3.33437 11.5 3.75 11.5H5.25C5.66563 11.5 6 11.1656 6 10.75C6 10.3344 5.66563 10 5.25 10H3.75ZM17.9438 11.225C17.8281 10.9469 17.3781 9.975 16.4375 9.1C15.5125 8.2375 14.4187 7.78125 13.2812 7.78125C12.1438 7.78125 11.05 8.2375 10.125 9.1C9.18437 9.97188 8.73438 10.9469 8.62187 11.225C8.54688 11.4031 8.54688 11.6 8.62187 11.7781C8.7375 12.0562 9.1875 13.0312 10.125 13.9031C11.05 14.7625 12.1406 15.2188 13.2812 15.2188C14.4187 15.2188 15.5125 14.7625 16.4375 13.9C17.375 13.0312 17.8281 12.0531 17.9438 11.775C18.0188 11.5969 18.0188 11.4031 17.9438 11.225ZM15.6313 13.0312C14.9156 13.6938 14.125 14.0312 13.2812 14.0312C12.4375 14.0312 11.6469 13.6938 10.9312 13.0312C10.3 12.4438 9.9375 11.7875 9.79688 11.5C9.9375 11.2125 10.3 10.5562 10.9344 9.96875C11.65 9.30625 12.4406 8.96875 13.2844 8.96875C14.1281 8.96875 14.9187 9.30625 15.6344 9.96875C16.2656 10.5562 16.6281 11.2125 16.7687 11.5C16.625 11.7875 16.2625 12.4438 15.6313 13.0312ZM13.2812 9.28125C12.0594 9.28125 11.0625 10.275 11.0625 11.5C11.0625 12.725 12.0562 13.7188 13.2812 13.7188C14.5063 13.7188 15.5 12.725 15.5 11.5C15.5 10.275 14.5031 9.28125 13.2812 9.28125ZM13.2812 12.5312C12.7875 12.5312 12.375 12.1812 12.275 11.7188C12.2781 11.7188 12.2812 11.7188 12.2844 11.7188C12.9563 11.7188 13.5031 11.1719 13.5031 10.5C13.5031 10.4969 13.5031 10.4938 13.5031 10.4906C13.9656 10.5906 14.3156 11.0062 14.3156 11.4969C14.3125 12.0687 13.85 12.5312 13.2812 12.5312Z" fill="currentColor"/>
</svg>