<svg viewBox="0 0 32 32" fill="none" xmlns="http://www.w3.org/2000/svg">
<path d="M6.57143 6.57192V9.14335C6.57143 9.85585 5.99821 10.4291 5.28571 10.4291C4.57321 10.4291 4 9.85585 4 9.14335V6.14335C4 4.95942 4.95893 4.00049 6.14286 4.00049H25.8571C27.0411 4.00049 28 4.95942 28 6.14335V9.14335C28 9.85585 27.4268 10.4291 26.7143 10.4291C26.0018 10.4291 25.4286 9.85585 25.4286 9.14335V6.57192H17.2857V25.4291H19.8571C20.5696 25.4291 21.1429 26.0023 21.1429 26.7148C21.1429 27.4273 20.5696 28.0005 19.8571 28.0005H12.1429C11.4304 28.0005 10.8571 27.4273 10.8571 26.7148C10.8571 26.0023 11.4304 25.4291 12.1429 25.4291H14.7143V6.57192H6.57143Z" fill="currentColor"/>
</svg>
