<svg viewBox="0 0 32 32" fill="none" xmlns="http://www.w3.org/2000/svg">
<path d="M17.125 20.8766C17.125 21.5 16.6234 22.0016 16 22.0016C15.3766 22.0016 14.875 21.5 14.875 20.8766V7.84067L10.4219 12.2938C9.98125 12.7344 9.26875 12.7344 8.83281 12.2938C8.39687 11.8532 8.39219 11.1407 8.83281 10.7047L15.2031 4.32974C15.6438 3.88911 16.3562 3.88911 16.7922 4.32974L23.1719 10.7047C23.6125 11.1454 23.6125 11.8579 23.1719 12.2938C22.7313 12.7297 22.0188 12.7344 21.5828 12.2938L17.1297 7.84067V20.8766H17.125ZM18.625 20.5016V18.2516H25C26.6547 18.2516 28 19.5969 28 21.2516V25.0016C28 26.6563 26.6547 28.0016 25 28.0016H7C5.34531 28.0016 4 26.6563 4 25.0016V21.2516C4 19.5969 5.34531 18.2516 7 18.2516H13.375V20.5016H7C6.5875 20.5016 6.25 20.8391 6.25 21.2516V25.0016C6.25 25.4141 6.5875 25.7516 7 25.7516H25C25.4125 25.7516 25.75 25.4141 25.75 25.0016V21.2516C25.75 20.8391 25.4125 20.5016 25 20.5016H18.625ZM22 23.1266C22 22.8282 22.1185 22.5421 22.3295 22.3311C22.5405 22.1201 22.8266 22.0016 23.125 22.0016C23.4234 22.0016 23.7095 22.1201 23.9205 22.3311C24.1315 22.5421 24.25 22.8282 24.25 23.1266C24.25 23.425 24.1315 23.7111 23.9205 23.9221C23.7095 24.1331 23.4234 24.2516 23.125 24.2516C22.8266 24.2516 22.5405 24.1331 22.3295 23.9221C22.1185 23.7111 22 23.425 22 23.1266Z" fill="currentColor"/>
</svg>
