<svg viewBox="0 0 32 32" fill="none" xmlns="http://www.w3.org/2000/svg">
<path d="M17.4444 9.90674C17.8417 9.90674 18.1667 10.2114 18.1667 10.5838V21.4172C18.1667 21.7896 17.8417 22.0942 17.4444 22.0942H5.88889C5.49167 22.0942 5.16667 21.7896 5.16667 21.4172V10.5838C5.16667 10.2114 5.49167 9.90674 5.88889 9.90674H17.4444ZM5.88889 7.87549C4.29549 7.87549 3 9.09001 3 10.5838V21.4172C3 22.911 4.29549 24.1255 5.88889 24.1255H17.4444C19.0378 24.1255 20.3333 22.911 20.3333 21.4172V20.0207V11.9803V10.5838C20.3333 9.09001 19.0378 7.87549 17.4444 7.87549H5.88889ZM26.8333 11.4556V20.5454L21.7778 18.4126V20.6385L26.4858 22.6232C26.716 22.7205 26.9642 22.7713 27.217 22.7713C28.201 22.7713 29 22.0223 29 21.0998V10.9012C29 9.97868 28.201 9.22965 27.217 9.22965C26.9642 9.22965 26.716 9.28044 26.4858 9.37777L21.7778 11.3625V13.5884L26.8333 11.4556ZM12.75 12.9536C12.75 12.3908 12.267 11.938 11.6667 11.938C11.0663 11.938 10.5833 12.3908 10.5833 12.9536V14.9849H8.41667C7.81632 14.9849 7.33333 15.4377 7.33333 16.0005C7.33333 16.5633 7.81632 17.0161 8.41667 17.0161H10.5833V19.0474C10.5833 19.6102 11.0663 20.063 11.6667 20.063C12.267 20.063 12.75 19.6102 12.75 19.0474V17.0161H14.9167C15.517 17.0161 16 16.5633 16 16.0005C16 15.4377 15.517 14.9849 14.9167 14.9849H12.75V12.9536Z" fill="currentColor"/>
</svg>
