<svg viewBox="0 0 33 32" fill="none" xmlns="http://www.w3.org/2000/svg">
<path d="M8.5 11.5C8.225 11.5 8 11.725 8 12V20C8 20.275 8.225 20.5 8.5 20.5H24.5C24.775 20.5 25 20.275 25 20V12C25 11.725 24.775 11.5 24.5 11.5H8.5ZM6.5 12C6.5 10.8969 7.39688 10 8.5 10H24.5C25.6031 10 26.5 10.8969 26.5 12V20C26.5 21.1031 25.6031 22 24.5 22H8.5C7.39688 22 6.5 21.1031 6.5 20V12ZM12.25 13C12.5469 13 12.8156 13.175 12.9344 13.4469L14.9344 17.9469C15.1031 18.325 14.9313 18.7688 14.5531 18.9375C14.175 19.1062 13.7312 18.9344 13.5625 18.5562L13.4281 18.2531H11.0719L10.9375 18.5562C10.7688 18.9344 10.325 19.1062 9.94688 18.9375C9.56875 18.7688 9.39687 18.325 9.56562 17.9469L11.5656 13.4469C11.6875 13.175 11.9531 13 12.25 13ZM12.25 15.5969L11.7375 16.75H12.7625L12.25 15.5969ZM16 13.75C16 13.3344 16.3344 13 16.75 13H18.375C19.4094 13 20.25 13.8406 20.25 14.875C20.25 15.1625 20.1844 15.4344 20.0688 15.6781C20.4844 16.0219 20.75 16.5406 20.75 17.125C20.75 18.1594 19.9094 19 18.875 19H16.75C16.3344 19 16 18.6656 16 18.25V18V16V14V13.75ZM17.5 14.5V15.25H18.375C18.5813 15.25 18.75 15.0813 18.75 14.875C18.75 14.6687 18.5813 14.5 18.375 14.5H17.5ZM17.5 17.5H18.875C19.0813 17.5 19.25 17.3313 19.25 17.125C19.25 16.9187 19.0813 16.75 18.875 16.75H18.375H17.5V17.5Z" fill="currentColor"/>
</svg>
