<svg viewBox="0 0 22 18" fill="none" xmlns="http://www.w3.org/2000/svg">
<path id="Vector" d="M3.00056 16.3125H10.8756C11.3041 16.9594 11.8541 17.5254 12.4934 17.9754C12.3791 17.993 12.2648 18 12.147 18H3.00056C1.73984 18 0.714844 16.991 0.714844 15.75V2.25C0.714844 1.00898 1.73984 0 3.00056 0H8.91127C9.51841 0 10.1006 0.235547 10.5291 0.657422L13.7613 3.83906C14.1898 4.26094 14.4291 4.83398 14.4291 5.43164V6.98203C13.8148 7.1543 13.2363 7.41445 12.7148 7.74844V5.62148H9.8577C9.22556 5.62148 8.71484 5.11875 8.71484 4.49648V1.68398L3.00056 1.6875C2.68627 1.6875 2.42913 1.94062 2.42913 2.25V15.75C2.42913 16.0594 2.68627 16.3125 3.00056 16.3125ZM16.1434 7.875C17.5074 7.875 18.8155 8.40837 19.78 9.35777C20.7444 10.3072 21.2863 11.5948 21.2863 12.9375C21.2863 14.2802 20.7444 15.5678 19.78 16.5172C18.8155 17.4666 17.5074 18 16.1434 18C14.7794 18 13.4713 17.4666 12.5069 16.5172C11.5424 15.5678 11.0006 14.2802 11.0006 12.9375C11.0006 11.5948 11.5424 10.3072 12.5069 9.35777C13.4713 8.40837 14.7794 7.875 16.1434 7.875ZM16.1434 16.3125C16.3707 16.3125 16.5888 16.2236 16.7495 16.0654C16.9103 15.9071 17.0006 15.6925 17.0006 15.4688C17.0006 15.245 16.9103 15.0304 16.7495 14.8721C16.5888 14.7139 16.3707 14.625 16.1434 14.625C15.9161 14.625 15.6981 14.7139 15.5373 14.8721C15.3766 15.0304 15.2863 15.245 15.2863 15.4688C15.2863 15.6925 15.3766 15.9071 15.5373 16.0654C15.6981 16.2236 15.9161 16.3125 16.1434 16.3125ZM13.8577 11.3063V11.5312C13.8577 11.8406 14.1148 12.0938 14.4291 12.0938C14.7434 12.0938 15.0006 11.8406 15.0006 11.5312V11.3063C15.0006 11.1199 15.1541 10.9688 15.3434 10.9688H16.7898C17.0648 10.9688 17.2863 11.1867 17.2863 11.4574C17.2863 11.6402 17.1827 11.8055 17.022 11.8898L15.8791 12.4805C15.6898 12.5789 15.572 12.7688 15.572 12.9797V13.5C15.572 13.8094 15.8291 14.0625 16.1434 14.0625C16.4577 14.0625 16.7148 13.8094 16.7148 13.5V13.3207L17.5541 12.8883C18.0934 12.6105 18.4291 12.0586 18.4291 11.4609C18.4291 10.568 17.6934 9.84727 16.7898 9.84727H15.3434C14.522 9.84727 13.8577 10.5012 13.8577 11.3098V11.3063Z" fill="currentColor"/>
</svg>
