<svg viewBox="0 0 33 32" fill="none" xmlns="http://www.w3.org/2000/svg">
<path d="M13.7537 9.76673C13.4522 9.46519 12.9646 9.46519 12.6663 9.76673L8.21375 14.216C7.91221 14.5176 7.91221 15.0052 8.21375 15.3035L12.6631 19.756C12.9646 20.0575 13.4522 20.0575 13.7505 19.756L18.203 15.3067C18.5046 15.0052 18.5046 14.5176 18.203 14.2192L13.7537 9.76673ZM11.5756 8.67606C12.477 7.77465 13.9398 7.77465 14.8412 8.67606L19.2937 13.1286C20.1951 14.03 20.1951 15.4928 19.2937 16.3942L14.8412 20.8467C13.9398 21.7481 12.477 21.7481 11.5756 20.8467L7.12308 16.3942C6.22167 15.4928 6.22167 14.03 7.12308 13.1286L11.5756 8.67606ZM16.2879 20.8499L20.0187 17.1191C20.9361 16.2017 21.2056 14.8865 20.8335 13.7349H24.5001C25.6324 13.7349 26.5531 14.6555 26.5531 15.7879V21.947C26.5531 23.0793 25.6324 24 24.5001 24H18.341C17.2086 24 16.2879 23.0793 16.2879 21.947V20.8499ZM22.1904 18.8674C22.1904 18.6632 22.1093 18.4674 21.9649 18.323C21.8205 18.1787 21.6247 18.0975 21.4205 18.0975C21.2163 18.0975 21.0205 18.1787 20.8761 18.323C20.7317 18.4674 20.6506 18.6632 20.6506 18.8674C20.6506 19.0716 20.7317 19.2674 20.8761 19.4118C21.0205 19.5562 21.2163 19.6373 21.4205 19.6373C21.6247 19.6373 21.8205 19.5562 21.9649 19.4118C22.1093 19.2674 22.1904 19.0716 22.1904 18.8674ZM9.87221 13.9915C10.0764 13.9915 10.2722 14.0726 10.4166 14.217C10.561 14.3614 10.6421 14.5572 10.6421 14.7614C10.6421 14.9656 10.561 15.1614 10.4166 15.3058C10.2722 15.4501 10.0764 15.5313 9.87221 15.5313C9.66803 15.5313 9.4722 15.4501 9.32782 15.3058C9.18344 15.1614 9.10233 14.9656 9.10233 14.7614C9.10233 14.5572 9.18344 14.3614 9.32782 14.217C9.4722 14.0726 9.66803 13.9915 9.87221 13.9915ZM13.2084 12.1951C13.0042 12.1951 12.8084 12.114 12.664 11.9696C12.5196 11.8252 12.4385 11.6294 12.4385 11.4252C12.4385 11.221 12.5196 11.0252 12.664 10.8808C12.8084 10.7364 13.0042 10.6553 13.2084 10.6553C13.4126 10.6553 13.6084 10.7364 13.7528 10.8808C13.8972 11.0252 13.9783 11.221 13.9783 11.4252C13.9783 11.6294 13.8972 11.8252 13.7528 11.9696C13.6084 12.114 13.4126 12.1951 13.2084 12.1951ZM13.2084 18.8674C13.0042 18.8674 12.8084 18.7863 12.664 18.6419C12.5196 18.4975 12.4385 18.3017 12.4385 18.0975C12.4385 17.8934 12.5196 17.6975 12.664 17.5531C12.8084 17.4088 13.0042 17.3277 13.2084 17.3277C13.4126 17.3277 13.6084 17.4088 13.7528 17.5531C13.8972 17.6975 13.9783 17.8934 13.9783 18.0975C13.9783 18.3017 13.8972 18.4975 13.7528 18.6419C13.6084 18.7863 13.4126 18.8674 13.2084 18.8674ZM16.5446 13.9915C16.7487 13.9915 16.9446 14.0726 17.089 14.217C17.2333 14.3614 17.3144 14.5572 17.3144 14.7614C17.3144 14.9656 17.2333 15.1614 17.089 15.3058C16.9446 15.4501 16.7487 15.5313 16.5446 15.5313C16.3404 15.5313 16.1446 15.4501 16.0002 15.3058C15.8558 15.1614 15.7747 14.9656 15.7747 14.7614C15.7747 14.5572 15.8558 14.3614 16.0002 14.217C16.1446 14.0726 16.3404 13.9915 16.5446 13.9915ZM13.2084 13.9915C13.4126 13.9915 13.6084 14.0726 13.7528 14.217C13.8972 14.3614 13.9783 14.5572 13.9783 14.7614C13.9783 14.9656 13.8972 15.1614 13.7528 15.3058C13.6084 15.4501 13.4126 15.5313 13.2084 15.5313C13.0042 15.5313 12.8084 15.4501 12.664 15.3058C12.5196 15.1614 12.4385 14.9656 12.4385 14.7614C12.4385 14.5572 12.5196 14.3614 12.664 14.217C12.8084 14.0726 13.0042 13.9915 13.2084 13.9915Z" fill="currentColor"/>
</svg>
