<svg viewBox="0 0 18 18" fill="none" xmlns="http://www.w3.org/2000/svg">
  <path
    d="M9.00001 2.57142V8.99999H2.57144C2.57144 5.45088 5.45091 2.57142 9.00001 2.57142ZM17.5714 8.99999C17.5714 6.7267 16.6684 4.54653 15.0609 2.93907C13.4535 1.33162 11.2733 0.428558 9.00001 0.428558C6.72673 0.428558 4.54655 1.33162 2.9391 2.93907C1.33164 4.54653 0.428585 6.7267 0.428585 8.99999C0.428585 11.2733 1.33164 13.4534 2.9391 15.0609C4.54655 16.6684 6.72673 17.5714 9.00001 17.5714C11.2733 17.5714 13.4535 16.6684 15.0609 15.0609C16.6684 13.4534 17.5714 11.2733 17.5714 8.99999Z"
    fill="currentColor" />
</svg>