<svg width="2" viewBox="0 0 2 30" fill="currentColor" xmlns="http://www.w3.org/2000/svg">
<path d="M0 1.5C0 0.947715 0.447715 0.5 1 0.5C1.55228 0.5 2 0.947715 2 1.5V3.5C2 4.05228 1.55228 4.5 1 4.5C0.447715 4.5 0 4.05228 0 3.5V1.5Z" fill="currentColor"/>
<path d="M0 7.5C0 6.94772 0.447715 6.5 1 6.5C1.55228 6.5 2 6.94772 2 7.5V9.5C2 10.0523 1.55228 10.5 1 10.5C0.447715 10.5 0 10.0523 0 9.5V7.5Z" fill="currentColor"/>
<path d="M0 13.5C0 12.9477 0.447715 12.5 1 12.5C1.55228 12.5 2 12.9477 2 13.5V15.5C2 16.0523 1.55228 16.5 1 16.5C0.447715 16.5 0 16.0523 0 15.5V13.5Z" fill="currentColor"/>
<path d="M0 19.5C0 18.9477 0.447715 18.5 1 18.5C1.55228 18.5 2 18.9477 2 19.5V21.5C2 22.0523 1.55228 22.5 1 22.5C0.447715 22.5 0 22.0523 0 21.5V19.5Z" fill="currentColor"/>
<path d="M0 25.5C0 24.9477 0.447715 24.5 1 24.5C1.55228 24.5 2 24.9477 2 25.5V27.5C2 28.0523 1.55228 28.5 1 28.5C0.447715 28.5 0 28.0523 0 27.5V25.5Z" fill="currentColor"/>
</svg>
