<svg width="2" height="30" viewBox="0 0 2 30" fill="none" xmlns="http://www.w3.org/2000/svg">
<path d="M0 0.5H2V15.5C2 16.0523 1.55228 16.5 1 16.5C0.447715 16.5 0 16.0523 0 15.5V0.5Z" fill="#1B68B3"/>
<path d="M0 19.5C0 18.9477 0.447715 18.5 1 18.5C1.55228 18.5 2 18.9477 2 19.5V21.5C2 22.0523 1.55228 22.5 1 22.5C0.447715 22.5 0 22.0523 0 21.5V19.5Z" fill="currentColor"/>
<path d="M0 25.5C0 24.9477 0.447715 24.5 1 24.5C1.55228 24.5 2 24.9477 2 25.5V27.5C2 28.0523 1.55228 28.5 1 28.5C0.447715 28.5 0 28.0523 0 27.5V25.5Z" fill="currentColor"/>
</svg>
