<svg width="32" height="32" viewBox="0 0 32 32" fill="currentColor" xmlns="http://www.w3.org/2000/svg">
<path d="M13.75 8.75V10H15.25V8.75C15.25 8.34375 15.5625 8 16 8C16.4062 8 16.75 8.34375 16.75 8.75V10H18.25V8.75C18.25 8.34375 18.5625 8 19 8C19.4063 8 19.75 8.34375 19.75 8.75V10H20C21.0938 10 22 10.9063 22 12V12.25H23.25C23.6563 12.25 24 12.5938 24 13C24 13.4375 23.6563 13.75 23.25 13.75H22V15.25H23.25C23.6563 15.25 24 15.5938 24 16C24 16.4375 23.6563 16.75 23.25 16.75H22V18.25H23.25C23.6563 18.25 24 18.5938 24 19C24 19.4375 23.6563 19.75 23.25 19.75H22V20C22 21.125 21.0938 22 20 22H19.75V23.25C19.75 23.6875 19.4063 24 19 24C18.5625 24 18.25 23.6875 18.25 23.25V22H16.75V23.25C16.75 23.6875 16.4062 24 16 24C15.5625 24 15.25 23.6875 15.25 23.25V22H13.75V23.25C13.75 23.6875 13.4063 24 13 24C12.5625 24 12.25 23.6875 12.25 23.25V22H12C10.875 22 10 21.125 10 20V19.75H8.75C8.3125 19.75 8 19.4375 8 19C8 18.5938 8.3125 18.25 8.75 18.25H10V16.75H8.75C8.3125 16.75 8 16.4375 8 16C8 15.5938 8.3125 15.25 8.75 15.25H10V13.75H8.75C8.3125 13.75 8 13.4375 8 13C8 12.5938 8.3125 12.25 8.75 12.25H10V12C10 10.9063 10.875 10 12 10H12.25V8.75C12.25 8.34375 12.5625 8 13 8C13.4063 8 13.75 8.34375 13.75 8.75ZM11.5 12V20C11.5 20.2813 11.7188 20.5 12 20.5H20C20.25 20.5 20.5 20.2813 20.5 20V12C20.5 11.75 20.25 11.5 20 11.5H12C11.7188 11.5 11.5 11.75 11.5 12ZM18.5 13.375C18.8438 13.375 19.125 13.6563 19.125 14V18C19.125 18.3438 18.8438 18.625 18.5 18.625C18.1562 18.625 17.875 18.3438 17.875 18V14C17.875 13.6563 18.1562 13.375 18.5 13.375ZM15.3125 13.75L17.0625 17.75C17.1875 18.0938 17.0625 18.4375 16.75 18.5938C16.4062 18.7188 16.0625 18.5938 15.9063 18.25L15.75 17.875H13.7188L13.5625 18.25C13.4063 18.5938 13.0625 18.7188 12.75 18.5938C12.4062 18.4375 12.2812 18.0938 12.4062 17.75L14.1563 13.75C14.25 13.5313 14.5 13.375 14.75 13.375C14.9688 13.375 15.2188 13.5313 15.3125 13.75ZM14.75 15.5625L14.2813 16.625H15.1875L14.75 15.5625Z" fill="currentColor"/>
</svg>
