<svg viewBox="0 0 16 16" fill="none" xmlns="http://www.w3.org/2000/svg">
<path d="M1 11.75V11.7188C0.375 11.0938 0 10.2188 0 9.25C0 8.40625 0.3125 7.59375 0.8125 7C0.75 6.75 0.75 6.5 0.75 6.25C0.75 5.25 1.25 4.34375 2.03125 3.8125C2.15625 2.90625 2.6875 2.125 3.46875 1.6875C3.875 0.6875 4.84375 0 6 0C6.78125 0 7.46875 0.34375 8 0.875C8.5 0.34375 9.1875 0 10 0C11.125 0 12.0938 0.6875 12.5 1.6875C13.2812 2.125 13.8125 2.90625 13.9375 3.8125C14.7188 4.34375 15.25 5.25 15.25 6.25C15.25 6.5 15.2188 6.75 15.1562 7C15.6562 7.59375 16 8.40625 16 9.25C16 10.2188 15.5938 11.0938 14.9688 11.7188C14.9688 11.7188 14.9688 11.7188 14.9688 11.75C15 11.75 15 11.75 15 11.75C15 13.25 13.9062 14.4688 12.5 14.7188C12 15.5 11.125 16 10.125 16C9.28125 16 8.5 15.6562 8 15.0625C7.46875 15.6562 6.6875 16 5.875 16C4.84375 16 3.96875 15.5 3.46875 14.7188C2.0625 14.4688 1 13.25 1 11.75ZM7.25 9H6C5.71875 9 5.5 9.25 5.5 9.5V9.875C5.9375 10.0625 6.25 10.5 6.25 11C6.25 11.7188 5.6875 12.25 5 12.25C4.28125 12.25 3.75 11.7188 3.75 11C3.75 10.5 4.03125 10.0625 4.5 9.875V9.5C4.5 8.6875 5.15625 8 6 8H7.25V5H6.625C6.4375 5.46875 6 5.75 5.5 5.75C4.78125 5.75 4.25 5.21875 4.25 4.5C4.25 3.8125 4.78125 3.25 5.5 3.25C6 3.25 6.4375 3.5625 6.625 4H7.25V2.75C7.25 2.0625 6.6875 1.5 6 1.5C5.28125 1.5 4.75 2.0625 4.75 2.75V2.78125C4.09375 2.90625 3.59375 3.40625 3.5 4.0625C3.5 4.125 3.5 4.1875 3.5 4.25C3.5 4.4375 3.5 4.625 3.5625 4.78125C3.34375 4.8125 3.09375 4.875 2.90625 5C2.53125 5.25 2.28125 5.65625 2.25 6.09375C2.25 6.15625 2.25 6.21875 2.25 6.25C2.25 6.71875 2.4375 7.125 2.75 7.40625C2.28125 7.59375 1.875 7.96875 1.65625 8.4375C1.5625 8.6875 1.46875 8.96875 1.46875 9.25C1.46875 10 1.90625 10.6562 2.5 11C2.5625 11.0312 2.59375 11.0625 2.65625 11.0938C2.625 11.125 2.625 11.1562 2.59375 11.1875C2.53125 11.375 2.5 11.5625 2.5 11.75C2.5 12.4375 2.9375 13.0312 3.5625 13.2188C3.6875 13.25 3.84375 13.25 4 13.25C4.15625 13.25 4.34375 13.2188 4.5 13.1875C4.5 13.4688 4.59375 13.75 4.78125 13.9688C5.03125 14.3125 5.40625 14.5 5.875 14.5C6.5625 14.5 7.15625 13.9688 7.21875 13.25H7.25V9ZM10 1.5C9.28125 1.5 8.75 2.0625 8.75 2.75V4H10C10.8125 4 11.5 4.6875 11.5 5.5V5.875C11.9375 6.0625 12.25 6.5 12.25 7C12.25 7.71875 11.6875 8.25 11 8.25C10.2812 8.25 9.75 7.71875 9.75 7C9.75 6.5 10.0312 6.0625 10.5 5.875V5.5C10.5 5.25 10.25 5 10 5H8.75V10H10.3438C10.5312 9.5625 10.9688 9.25 11.5 9.25C12.1875 9.25 12.75 9.8125 12.75 10.5C12.75 11.2188 12.1875 11.75 11.5 11.75C10.9688 11.75 10.5312 11.4688 10.3438 11H8.75V13.25C8.8125 13.9688 9.40625 14.5 10.125 14.5C10.5625 14.5 10.9375 14.3125 11.1875 13.9688C11.375 13.75 11.4688 13.4688 11.4688 13.1875C11.625 13.2188 11.8125 13.25 12 13.25C12.125 13.25 12.2812 13.25 12.4062 13.2188C13.0312 13.0312 13.5 12.4375 13.5 11.75C13.5 11.5625 13.4375 11.375 13.375 11.1875C13.3438 11.1562 13.3438 11.125 13.3125 11.0938C13.375 11.0625 13.4062 11.0312 13.4688 11C14.0625 10.6562 14.5 10 14.5 9.25C14.5 8.96875 14.4062 8.6875 14.3125 8.4375C14.0938 7.96875 13.6875 7.59375 13.2188 7.40625C13.5312 7.125 13.75 6.71875 13.75 6.25C13.75 6.21875 13.7188 6.15625 13.7188 6.09375C13.6875 5.65625 13.4375 5.25 13.0625 5C12.875 4.875 12.625 4.8125 12.4062 4.78125C12.4688 4.625 12.5 4.4375 12.5 4.25C12.5 4.1875 12.4688 4.125 12.4688 4.0625C12.375 3.40625 11.875 2.90625 11.2188 2.78125L11.25 2.75C11.25 2.0625 10.6875 1.5 10 1.5ZM5.5 5C5.75 5 6 4.78125 6 4.5C6 4.25 5.75 4 5.5 4C5.21875 4 5 4.25 5 4.5C5 4.78125 5.21875 5 5.5 5ZM5 11.5C5.25 11.5 5.5 11.2812 5.5 11C5.5 10.75 5.25 10.5 5 10.5C4.71875 10.5 4.5 10.75 4.5 11C4.5 11.2812 4.71875 11.5 5 11.5ZM11.5 7C11.5 6.75 11.25 6.5 11 6.5C10.7188 6.5 10.5 6.75 10.5 7C10.5 7.28125 10.7188 7.5 11 7.5C11.25 7.5 11.5 7.28125 11.5 7ZM11.5 11C11.75 11 12 10.7812 12 10.5C12 10.25 11.75 10 11.5 10C11.2188 10 11 10.25 11 10.5C11 10.7812 11.2188 11 11.5 11Z" fill="currentColor"/>
</svg>
