<svg fill="currentColor" height="32" viewBox="0 0 32 32" width="32" xmlns="http://www.w3.org/2000/svg"><path d="m9 19.75v-.0312c-.625-.625-1-1.5-1-2.4688 0-.8438.3125-1.6562.8125-2.25-.0625-.25-.0625-.5-.0625-.75 0-1 .5-1.9062 1.2812-2.4375.125-.9063.6563-1.6875 1.4376-2.125.4062-1 1.375-1.6875 2.5312-1.6875.7812 0 1.4688.34375 2 .875.5-.53125 1.1875-.875 2-.875 1.125 0 2.0938.6875 2.5 1.6875.7812.4375 1.3125 1.2187 1.4375 2.125.7813.5313 1.3125 1.4375 1.3125 2.4375 0 .25-.0312.5-.0938.75.5.5938.8438 1.4062.8438 2.25 0 .9688-.4062 1.8438-1.0312 2.4688v.0312h.0312c0 1.5-1.0938 2.7188-2.5 2.9688-.5.7812-1.375 1.2812-2.375 1.2812-.8438 0-1.625-.3438-2.125-.9375-.5312.5937-1.3125.9375-2.125.9375-1.0312 0-1.9062-.5-2.4062-1.2812-1.4063-.25-2.4688-1.4688-2.4688-2.9688zm6.25-2.75h-1.25c-.2812 0-.5.25-.5.5v.375c.4375.1875.75.625.75 1.125 0 .7188-.5625 1.25-1.25 1.25-.7188 0-1.25-.5312-1.25-1.25 0-.5.2812-.9375.75-1.125v-.375c0-.8125.6562-1.5 1.5-1.5h1.25v-3h-.625c-.1875.4688-.625.75-1.125.75-.7188 0-1.25-.5312-1.25-1.25 0-.6875.5312-1.25 1.25-1.25.5 0 .9375.3125 1.125.75h.625v-1.25c0-.6875-.5625-1.25-1.25-1.25-.7188 0-1.25.5625-1.25 1.25v.0312c-.6562.125-1.1562.625-1.25 1.2813v.1875c0 .1875 0 .375.0625.5312-.2187.0313-.4687.0938-.6563.2188-.375.25-.625.6562-.6562 1.0938v.1562c0 .4688.1875.875.5 1.1562-.4688.1876-.875.5626-1.09375 1.0313-.09375.25-.1875.5313-.1875.8125 0 .75.4375 1.4062 1.03125 1.75.0625.0312.0938.0625.1562.0938-.0312.0312-.0312.0624-.0624.0937-.0626.1875-.0938.375-.0938.5625 0 .6875.4375 1.2812 1.0625 1.4688.125.0312.2813.0312.4375.0312s.3438-.0312.5-.0625c0 .2813.0938.5625.2812.7813.25.3437.625.5312 1.0938.5312.6875 0 1.2812-.5312 1.3438-1.25h.0312zm2.75-7.5c-.7188 0-1.25.5625-1.25 1.25v1.25h1.25c.8125 0 1.5.6875 1.5 1.5v.375c.4375.1875.75.625.75 1.125 0 .7188-.5625 1.25-1.25 1.25-.7188 0-1.25-.5312-1.25-1.25 0-.5.2812-.9375.75-1.125v-.375c0-.25-.25-.5-.5-.5h-1.25v5h1.5938c.1874-.4375.625-.75 1.1562-.75.6875 0 1.25.5625 1.25 1.25 0 .7188-.5625 1.25-1.25 1.25-.5312 0-.9688-.2812-1.1562-.75h-1.5938v2.25c.0625.7188.6562 1.25 1.375 1.25.4375 0 .8125-.1875 1.0625-.5312.1875-.2188.2813-.5.2813-.7813.1562.0313.3437.0625.5312.0625.125 0 .2812 0 .4062-.0312.625-.1876 1.0938-.7813 1.0938-1.4688 0-.1875-.0625-.375-.125-.5625-.0312-.0313-.0312-.0625-.0625-.0937.0625-.0313.0937-.0626.1563-.0938.5937-.3438 1.0312-1 1.0312-1.75 0-.2812-.0938-.5625-.1875-.8125-.2187-.4687-.625-.8437-1.0937-1.0313.3124-.2812.5312-.6874.5312-1.1562 0-.0312-.0312-.0938-.0312-.1562-.0313-.4376-.2813-.8438-.6563-1.0938-.1875-.125-.4375-.1875-.6563-.2188.0626-.1562.0938-.3437.0938-.5312 0-.0625-.0312-.125-.0312-.1875-.0938-.6563-.5938-1.1563-1.25-1.2813l.0312-.0312c0-.6875-.5625-1.25-1.25-1.25zm-4.5 3.5c.25 0 .5-.2188.5-.5 0-.25-.25-.5-.5-.5-.2812 0-.5.25-.5.5 0 .2812.2188.5.5.5zm-.5 6.5c.25 0 .5-.2188.5-.5 0-.25-.25-.5-.5-.5-.2812 0-.5.25-.5.5 0 .2812.2188.5.5.5zm6.5-4.5c0-.25-.25-.5-.5-.5-.2812 0-.5.25-.5.5 0 .2812.2188.5.5.5.25 0 .5-.2188.5-.5zm0 4c.25 0 .5-.2188.5-.5 0-.25-.25-.5-.5-.5-.2812 0-.5.25-.5.5 0 .2812.2188.5.5.5z" fill="currentColor"/></svg>