<svg viewBox="0 0 16 16" fill="currentColor" xmlns="http://www.w3.org/2000/svg">
<path d="M12.0312 13.1094L2.875 3.95312C2 5.07812 1.5 6.48438 1.5 7.98438C1.5 11.5781 4.40625 14.4844 8 14.4844C9.5 14.4844 10.9062 13.9844 12.0312 13.1094ZM13.0938 12.0469C13.9688 10.9219 14.5 9.51562 14.5 7.98438C14.5 4.42188 11.5625 1.48438 8 1.48438C6.46875 1.48438 5.0625 2.01562 3.9375 2.89062L13.0938 12.0469ZM0 7.98438C0 5.14062 1.5 2.51562 4 1.07812C6.46875 -0.359375 9.5 -0.359375 12 1.07812C14.4688 2.51562 16 5.14062 16 7.98438C16 10.8594 14.4688 13.4844 12 14.9219C9.5 16.3594 6.46875 16.3594 4 14.9219C1.5 13.4844 0 10.8594 0 7.98438Z" fill="currentColor"/>
</svg>
