<svg width="32" height="32" viewBox="0 0 32 32" fill="currentColor" xmlns="http://www.w3.org/2000/svg">
<path d="M20.0312 21.1094L10.875 11.9531C10 13.0781 9.5 14.4844 9.5 15.9844C9.5 19.5781 12.4062 22.4844 16 22.4844C17.5 22.4844 18.9062 21.9844 20.0312 21.1094ZM21.0938 20.0469C21.9688 18.9219 22.5 17.5156 22.5 15.9844C22.5 12.4219 19.5625 9.48438 16 9.48438C14.4688 9.48438 13.0625 10.0156 11.9375 10.8906L21.0938 20.0469ZM8 15.9844C8 13.1406 9.5 10.5156 12 9.07812C14.4688 7.64062 17.5 7.64062 20 9.07812C22.4688 10.5156 24 13.1406 24 15.9844C24 18.8594 22.4688 21.4844 20 22.9219C17.5 24.3594 14.4688 24.3594 12 22.9219C9.5 21.4844 8 18.8594 8 15.9844Z" fill="currentColor"/>
</svg>
