<svg width="40" height="40" viewBox="0 0 40 40" fill="none" xmlns="http://www.w3.org/2000/svg">
<rect width="40" height="40" rx="5" fill="#74B0EA" fill-opacity="0.25"/>
<path d="M22.2857 23.9214L18.3571 20L22.2857 16.0786V18C22.2857 18.475 22.6679 18.8571 23.1429 18.8571H27.4286V21.1429H23.1429C22.6679 21.1429 22.2857 21.525 22.2857 22V23.9214ZM16.5714 20C16.5714 20.4107 16.7357 20.8036 17.025 21.0929L21.1714 25.2286C21.4821 25.5393 21.9036 25.7143 22.3429 25.7143C23.2571 25.7143 24 24.9714 24 24.0571V22.8571H27.4286C28.375 22.8571 29.1429 22.0893 29.1429 21.1429V18.8571C29.1429 17.9107 28.375 17.1429 27.4286 17.1429H24V15.9429C24 15.0286 23.2571 14.2857 22.3429 14.2857C21.9036 14.2857 21.4821 14.4607 21.1714 14.7714L17.025 18.9071C16.7357 19.1964 16.5714 19.5893 16.5714 20ZM16.8571 26.2857H14C13.2107 26.2857 12.5714 25.6464 12.5714 24.8571V15.1429C12.5714 14.3536 13.2107 13.7143 14 13.7143H16.8571C17.3321 13.7143 17.7143 13.3321 17.7143 12.8571C17.7143 12.3821 17.3321 12 16.8571 12H14C12.2643 12 10.8571 13.4071 10.8571 15.1429V24.8571C10.8571 26.5929 12.2643 28 14 28H16.8571C17.3321 28 17.7143 27.6179 17.7143 27.1429C17.7143 26.6679 17.3321 26.2857 16.8571 26.2857Z" fill="white"/>
</svg>
