<svg viewBox="0 0 32 32" fill="none" xmlns="http://www.w3.org/2000/svg">
<path d="M16.0003 8C16.262 8 16.5034 8.15525 16.6226 8.39878L18.7601 12.7884L23.4103 13.5616C23.6691 13.6042 23.8843 13.796 23.9658 14.0578C24.0472 14.3196 23.9803 14.6057 23.7971 14.8006L20.4672 18.2861L21.203 23.1536C21.2437 23.4246 21.1361 23.6985 20.9238 23.8599C20.7115 24.0212 20.4294 24.0456 20.1968 23.9208L16.0003 21.6864L11.8037 23.9208C11.5711 24.0456 11.289 24.0212 11.0767 23.8599C10.8644 23.6985 10.7568 23.4276 10.7975 23.1536L11.5304 18.2861L8.2034 14.8006C8.01728 14.6057 7.9533 14.3196 8.03473 14.0578C8.11616 13.796 8.32846 13.6042 8.59019 13.5616L13.2404 12.7884L15.3808 8.39878C15.5 8.15525 15.7414 8 16.0032 8H16.0003ZM16.0003 10.3379L14.3193 13.7838C14.2175 13.9908 14.0285 14.137 13.8075 14.1735L10.1577 14.7823L12.7693 17.519C12.9263 17.6834 12.999 17.9178 12.9641 18.1491L12.3883 21.9695L15.6833 20.2161C15.881 20.1095 16.1166 20.1095 16.3172 20.2161L19.6122 21.9695L19.0364 18.1491C19.0015 17.9178 19.0742 17.6834 19.2312 17.519L21.8428 14.7823L18.193 14.1735C17.972 14.137 17.783 13.9908 17.6812 13.7838L16.0003 10.3379Z" fill="currentColor"/>
</svg>
