<svg width="18" height="15" viewBox="0 0 18 15" fill="currentColor" xmlns="http://www.w3.org/2000/svg">
<path d="M3.9375 4.25C3.9375 5.04297 4.34766 5.75391 5.03125 6.16406C5.6875 6.54688 6.53516 6.54688 7.21875 6.16406C7.875 5.75391 8.3125 5.04297 8.3125 4.25C8.3125 3.48438 7.875 2.77344 7.21875 2.36328C6.53516 1.98047 5.6875 1.98047 5.03125 2.36328C4.34766 2.77344 3.9375 3.48438 3.9375 4.25ZM9.625 4.25C9.625 5.50781 8.94141 6.65625 7.875 7.28516C6.78125 7.91406 5.44141 7.91406 4.375 7.28516C3.28125 6.65625 2.625 5.50781 2.625 4.25C2.625 3.01953 3.28125 1.87109 4.375 1.24219C5.44141 0.613281 6.78125 0.613281 7.875 1.24219C8.94141 1.87109 9.625 3.01953 9.625 4.25ZM7.35547 10.375H4.86719C3.0625 10.375 1.58594 11.7148 1.33984 13.4375H10.8828C10.6367 11.7148 9.16016 10.375 7.35547 10.375ZM4.86719 9.0625H6.125H7.35547C10.0625 9.0625 12.25 11.25 12.25 13.957C12.25 14.3945 11.8672 14.75 11.4297 14.75H0.792969C0.355469 14.75 0 14.3945 0 13.957C0 11.25 2.16016 9.0625 4.86719 9.0625ZM17.0898 5.58984L13.5898 9.08984C13.3164 9.36328 12.9062 9.36328 12.6602 9.08984L10.9102 7.33984C10.6367 7.09375 10.6367 6.68359 10.9102 6.4375C11.1562 6.16406 11.5664 6.16406 11.8398 6.4375L13.125 7.72266L16.1602 4.6875C16.4062 4.41406 16.8164 4.41406 17.0898 4.6875C17.3359 4.93359 17.3359 5.34375 17.0898 5.58984Z" fill="currentColor"/>
</svg>
