<svg width="22" height="23" viewBox="0 0 22 23" fill="none" xmlns="http://www.w3.org/2000/svg">
<path d="M13.4145 6.40065L10.0155 10.3947L8.7395 9.10997C8.54212 8.93822 8.28743 8.84818 8.02674 8.85797C7.76605 8.86776 7.51873 8.97667 7.33461 9.16275C7.1505 9.34883 7.04326 9.59826 7.03452 9.86077C7.02578 10.1233 7.11618 10.3794 7.2875 10.5775L9.35 12.6541C9.5433 12.8487 9.80537 12.9583 10.0787 12.9587H10.1173C10.259 12.9538 10.3981 12.9191 10.5257 12.8569C10.6534 12.7946 10.7667 12.7062 10.8584 12.5973L14.9834 7.75185C15.074 7.64888 15.1434 7.52877 15.1875 7.39851C15.2316 7.26826 15.2495 7.13048 15.2402 6.99319C15.2309 6.8559 15.1945 6.72185 15.1332 6.59886C15.0719 6.47587 14.9869 6.36639 14.8831 6.27681C14.7794 6.18723 14.659 6.11934 14.5289 6.0771C14.3988 6.03486 14.2617 6.0191 14.1255 6.03076C13.9893 6.04241 13.8568 6.08124 13.7357 6.14499C13.6146 6.20873 13.5072 6.29611 13.42 6.40204L13.4145 6.40065ZM19.25 0.500236H2.75C2.02728 0.500164 1.33358 0.786554 0.818943 1.29746C0.30431 1.80837 0.0101181 2.50271 0 3.23032V15.6514C0.00143187 16.0128 0.0738218 16.3703 0.213005 16.7034C0.352188 17.0365 0.555417 17.3386 0.810998 17.5923C1.06658 17.8461 1.36947 18.0464 1.70224 18.1818C2.03501 18.3173 2.39109 18.3851 2.75 18.3815H6.875V21.981C6.875 22.0774 6.90167 22.1719 6.95201 22.2539C7.00235 22.3359 7.07438 22.4022 7.16003 22.4453C7.24568 22.4884 7.34156 22.5067 7.43693 22.498C7.5323 22.4894 7.62339 22.4541 7.7 22.3963L13.0625 18.3427H19.25C19.9727 18.3428 20.6664 18.0564 21.1811 17.5455C21.6957 17.0346 21.9899 16.3402 22 15.6126V3.23032C21.9982 2.86904 21.9256 2.51168 21.7863 2.17874C21.6469 1.84579 21.4437 1.54383 21.1882 1.29017C20.9327 1.03651 20.6299 0.836156 20.2973 0.700598C19.9647 0.56504 19.6088 0.49695 19.25 0.500236ZM19.976 15.7289C19.976 15.9125 19.9036 16.0886 19.7746 16.2184C19.6457 16.3482 19.4708 16.4211 19.2885 16.4211H12.4135L8.976 19.0169V16.4211H2.7885C2.60616 16.4211 2.4313 16.3482 2.30236 16.2184C2.17343 16.0886 2.101 15.9125 2.101 15.7289V3.26908C2.101 3.0855 2.17343 2.90943 2.30236 2.77962C2.4313 2.6498 2.60616 2.57687 2.7885 2.57687H19.2885C19.4708 2.57687 19.6457 2.6498 19.7746 2.77962C19.9036 2.90943 19.976 3.0855 19.976 3.26908V15.7289Z" fill="black"/>
</svg>
