<svg viewBox="0 0 32 32" fill="none" xmlns="http://www.w3.org/2000/svg">
<path d="M16.6985 4.75605C16.2942 4.41465 15.7058 4.41465 15.3015 4.75605L3.44209 14.8186C2.98838 15.2049 2.93448 15.8832 3.31631 16.3369C3.69815 16.7906 4.38096 16.8445 4.83467 16.4627L5.93975 15.5283V23.9062C5.93975 25.8918 7.54795 27.5 9.5335 27.5H22.471C24.4565 27.5 26.0648 25.8918 26.0648 23.9062V15.5283L27.1653 16.4627C27.619 16.849 28.3019 16.7906 28.6837 16.3369C29.0655 15.8832 29.0116 15.2004 28.5579 14.8186L16.6985 4.75605ZM23.9085 13.7V23.9062C23.9085 24.7014 23.2661 25.3438 22.471 25.3438H9.5335C8.73838 25.3438 8.096 24.7014 8.096 23.9062V13.7L16.0023 6.99316L23.9085 13.7ZM18.8773 14.5625C18.8773 13.8 18.5743 13.0687 18.0352 12.5296C17.496 11.9904 16.7647 11.6875 16.0023 11.6875C15.2398 11.6875 14.5085 11.9904 13.9693 12.5296C13.4302 13.0687 13.1273 13.8 13.1273 14.5625C13.1273 15.325 13.4302 16.0563 13.9693 16.5954C14.5085 17.1346 15.2398 17.4375 16.0023 17.4375C16.7647 17.4375 17.496 17.1346 18.0352 16.5954C18.5743 16.0563 18.8773 15.325 18.8773 14.5625ZM14.5648 18.875C12.5792 18.875 10.971 20.4832 10.971 22.4688C10.971 22.8641 11.2944 23.1875 11.6898 23.1875H20.3148C20.7101 23.1875 21.0335 22.8641 21.0335 22.4688C21.0335 20.4832 19.4253 18.875 17.4398 18.875H14.5648Z" fill="currentColor"/>
</svg>
