<svg width="32" height="23" viewBox="0 0 32 23" fill="none" xmlns="http://www.w3.org/2000/svg">
<path d="M4.53 3.64286C4.53 3.02126 4.71181 2.41362 5.05244 1.89678C5.39308 1.37994 5.87723 0.977112 6.44368 0.739237C7.01013 0.501362 7.63344 0.439123 8.23478 0.560391C8.83612 0.681658 9.38849 0.980986 9.82203 1.42052C10.2556 1.86006 10.5508 2.42007 10.6704 3.02972C10.79 3.63938 10.7287 4.27129 10.494 4.84558C10.2594 5.41986 9.86206 5.91071 9.35227 6.25605C8.84248 6.60139 8.24312 6.78572 7.63 6.78572C6.80783 6.78572 6.01933 6.45459 5.43797 5.86519C4.85661 5.27579 4.53 4.47639 4.53 3.64286ZM9.8 8.35714C10.3688 8.34808 10.9287 8.50176 11.4153 8.80055C11.9019 9.09934 12.2956 9.53115 12.5512 10.0464C11.6837 10.22 10.8628 10.5798 10.1436 11.1015C9.42448 11.6232 8.82375 12.2949 8.38175 13.0714H3.6C3.18891 13.0714 2.79467 12.9059 2.50398 12.6112C2.2133 12.3165 2.05 11.9168 2.05 11.5C2.05 10.6665 2.37661 9.86706 2.95797 9.27766C3.53933 8.68826 4.32783 8.35714 5.15 8.35714H9.8ZM28.4 13.0714H23.7733C23.319 12.2738 22.6974 11.5871 21.9525 11.06C21.2075 10.5328 20.3574 10.1781 19.4623 10.0209C19.7269 9.51794 20.1215 9.09742 20.6037 8.80435C21.086 8.51128 21.6377 8.35669 22.2 8.35714H26.85C27.6722 8.35714 28.4607 8.68826 29.042 9.27766C29.6234 9.86706 29.95 10.6665 29.95 11.5C29.95 11.9168 29.7867 12.3165 29.496 12.6112C29.2053 12.9059 28.8111 13.0714 28.4 13.0714ZM23.0525 16.2143C23.0525 16.6311 22.8892 17.0308 22.5985 17.3255C22.3078 17.6202 21.9136 17.7857 21.5025 17.7857H10.6525C10.2414 17.7857 9.84717 17.6202 9.55648 17.3255C9.2658 17.0308 9.1025 16.6311 9.1025 16.2143C9.09219 15.0532 9.51424 13.9309 10.2844 13.0714C10.9601 12.3056 11.862 11.7819 12.8554 11.5786L13.1461 11.5393C13.3472 11.5138 13.5498 11.5007 13.7525 11.5H18.4025C18.6052 11.5007 18.8078 11.5138 19.0089 11.5393C19.0419 11.5393 19.0709 11.5059 19.1 11.555C20.1694 11.7185 21.1491 12.2547 21.8706 13.0714C22.6408 13.9309 23.0628 15.0532 23.0525 16.2143ZM20.5977 15.4286C20.4374 14.9688 20.1403 14.5708 19.7475 14.2893C19.3547 14.0079 18.8854 13.8569 18.4044 13.8571H13.7525C13.2712 13.8565 12.8015 14.0073 12.4083 14.2888C12.0151 14.5702 11.7178 14.9685 11.5573 15.4286H20.5977ZM21.58 3.64286C21.58 3.02126 21.7618 2.41362 22.1024 1.89678C22.4431 1.37994 22.9272 0.977112 23.4937 0.739237C24.0601 0.501362 24.6834 0.439123 25.2848 0.560391C25.8861 0.681658 26.4385 0.980986 26.872 1.42052C27.3056 1.86006 27.6008 2.42007 27.7204 3.02972C27.84 3.63938 27.7787 4.27129 27.544 4.84558C27.3094 5.41986 26.9121 5.91071 26.4023 6.25605C25.8925 6.60139 25.2931 6.78572 24.68 6.78572C23.8578 6.78572 23.0693 6.45459 22.488 5.86519C21.9066 5.27579 21.58 4.47639 21.58 3.64286ZM12.2025 6C12.2025 5.223 12.4298 4.46345 12.8556 3.8174C13.2813 3.17135 13.8865 2.66782 14.5946 2.37047C15.3027 2.07313 16.0818 1.99533 16.8335 2.14692C17.5852 2.2985 18.2756 2.67267 18.8175 3.22209C19.3595 3.77151 19.7285 4.47151 19.878 5.23358C20.0276 5.99565 19.9508 6.78555 19.6575 7.5034C19.3642 8.22126 18.8676 8.83481 18.2303 9.26649C17.5931 9.69817 16.8439 9.92857 16.0775 9.92857C15.2379 9.93571 14.4199 9.65927 13.7525 9.14286C13.2712 8.77693 12.8806 8.30242 12.6116 7.75691C12.3426 7.21141 12.2025 6.60989 12.2025 6ZM16.0775 7.57143C16.3841 7.57143 16.6837 7.47927 16.9386 7.3066C17.1935 7.13393 17.3922 6.8885 17.5095 6.60136C17.6268 6.31422 17.6575 5.99826 17.5977 5.69343C17.5379 5.38861 17.3903 5.1086 17.1735 4.88883C16.9567 4.66906 16.6806 4.5194 16.3799 4.45877C16.0792 4.39814 15.7676 4.42926 15.4843 4.54819C15.2011 4.66713 14.959 4.86855 14.7887 5.12697C14.6184 5.38539 14.5275 5.6892 14.5275 6C14.5275 6.41677 14.6908 6.81647 14.9815 7.11117C15.2722 7.40587 15.6664 7.57143 16.0775 7.57143ZM0.5 21.3214C0.5 21.0088 0.622477 20.7091 0.840488 20.4881C1.0585 20.267 1.35419 20.1429 1.6625 20.1429H30.3375C30.6458 20.1429 30.9415 20.267 31.1595 20.4881C31.3775 20.7091 31.5 21.0088 31.5 21.3214C31.5 21.634 31.3775 21.9338 31.1595 22.1548C30.9415 22.3758 30.6458 22.5 30.3375 22.5H1.6625C1.35419 22.5 1.0585 22.3758 0.840488 22.1548C0.622477 21.9338 0.5 21.634 0.5 21.3214Z" fill="black"/>
</svg>
