<svg viewBox="0 0 32 32" fill="none" xmlns="http://www.w3.org/2000/svg">
<path d="M9.5 15C9.5 11.9625 11.9625 9.5 15 9.5H15.75C17.6281 9.5 19.3656 10.6469 20.1125 12.2594C20.2344 12.5219 20.3469 12.7906 20.4688 13.0687L20.5156 13.1781C20.65 13.4938 20.7937 13.825 20.95 14.15C21.2656 14.8 21.6531 15.4625 22.2188 16.0281L22.3562 16.1656C22.4469 16.2562 22.5 16.3812 22.5 16.5094C22.5 16.7781 22.2812 16.9969 22.0125 16.9969H21.25C20.8344 16.9969 20.5 17.3313 20.5 17.7469V19.9969C20.5 20.2719 20.275 20.4969 20 20.4969H17.25C16.8344 20.4969 16.5 20.8313 16.5 21.2469V23.2469C16.5 23.6625 16.8344 23.9969 17.25 23.9969C17.6656 23.9969 18 23.6625 18 23.2469V22H20C21.1031 22 22 21.1031 22 20V18.5H22.0125C23.1094 18.5 24 17.6094 24 16.5125C24 15.9844 23.7906 15.4812 23.4187 15.1062L23.2812 14.9688C22.8844 14.5719 22.5813 14.0781 22.3 13.4969C22.1594 13.2062 22.0281 12.9062 21.8938 12.5906L21.8469 12.4812C21.7281 12.2031 21.6031 11.9125 21.4719 11.6281C20.4812 9.4875 18.2125 8 15.75 8H15C11.1344 8 8 11.1344 8 15C8 16.675 8.59062 18.2156 9.57187 19.4219C9.85 19.7656 10 20.1219 10 20.4563V23.25C10 23.6656 10.3344 24 10.75 24C11.1656 24 11.5 23.6656 11.5 23.25V20.4563C11.5 19.6781 11.1594 18.9938 10.7344 18.475C9.9625 17.525 9.5 16.3188 9.5 15ZM18.5188 14.1219C18.7156 14.0094 18.8156 13.775 18.7312 13.5594C18.6656 13.3875 18.5875 13.2219 18.5 13.0625L18.4281 12.9375C18.3313 12.7781 18.225 12.6281 18.1094 12.4844C17.9656 12.3063 17.7125 12.275 17.5156 12.3906L17.425 12.4437C17.1375 12.6094 16.7875 12.5687 16.5 12.4031C16.2125 12.2375 15.9969 11.95 15.9969 11.6188V11.5125C15.9969 11.2844 15.8438 11.0812 15.6188 11.0469C15.4156 11.0156 15.2094 11 14.9969 11C14.7844 11 14.5781 11.0156 14.375 11.0469C14.15 11.0812 13.9969 11.2844 13.9969 11.5125V11.6188C13.9969 11.95 13.7812 12.2375 13.4938 12.4031C13.2063 12.5687 12.8562 12.6094 12.5687 12.4437L12.4781 12.3906C12.2812 12.2781 12.0281 12.3094 11.8844 12.4844C11.7688 12.6281 11.6625 12.7812 11.5656 12.9406L11.4938 13.0625C11.4062 13.2219 11.3281 13.3875 11.2625 13.5594C11.1813 13.7719 11.2781 14.0062 11.475 14.1219L11.5656 14.175C11.8531 14.3406 11.9938 14.6687 11.9938 15C11.9938 15.3313 11.8531 15.6594 11.5656 15.825L11.4719 15.8781C11.275 15.9906 11.175 16.225 11.2594 16.4406C11.325 16.6125 11.4031 16.775 11.4906 16.9344L11.5656 17.0625C11.6625 17.2219 11.7656 17.3719 11.8812 17.5156C12.025 17.6938 12.2781 17.725 12.475 17.6094L12.5656 17.5562C12.8531 17.3906 13.2031 17.4313 13.4906 17.5969C13.7781 17.7625 13.9938 18.05 13.9938 18.3813V18.4875C13.9938 18.7156 14.1469 18.9187 14.3719 18.9531C14.575 18.9844 14.7812 19 14.9938 19C15.2063 19 15.4125 18.9844 15.6156 18.9531C15.8406 18.9187 15.9938 18.7156 15.9938 18.4875V18.3813C15.9938 18.05 16.2094 17.7625 16.4969 17.5969C16.7844 17.4313 17.1344 17.3906 17.4219 17.5562L17.5125 17.6094C17.7094 17.7219 17.9625 17.6906 18.1062 17.5156C18.2219 17.3719 18.3281 17.2219 18.4219 17.0625L18.4969 16.9312C18.5844 16.7719 18.6625 16.6094 18.7281 16.4375C18.8094 16.225 18.7125 15.9906 18.5156 15.875L18.4219 15.8219C18.1344 15.6562 17.9937 15.3281 17.9937 14.9969C17.9937 14.6656 18.1344 14.3375 18.4219 14.1719L18.5156 14.1188L18.5188 14.1219ZM13.75 15C13.75 14.6685 13.8817 14.3505 14.1161 14.1161C14.3505 13.8817 14.6685 13.75 15 13.75C15.3315 13.75 15.6495 13.8817 15.8839 14.1161C16.1183 14.3505 16.25 14.6685 16.25 15C16.25 15.3315 16.1183 15.6495 15.8839 15.8839C15.6495 16.1183 15.3315 16.25 15 16.25C14.6685 16.25 14.3505 16.1183 14.1161 15.8839C13.8817 15.6495 13.75 15.3315 13.75 15Z" fill="currentColor"/>
</svg>
