<svg  viewBox="0 0 26 16" fill="currentColor" xmlns="http://www.w3.org/2000/svg">
<rect  rx="5" fill="#74B0EA" fill-opacity="0.25"/>
<path d="M4 8C4 5.2375 6.2375 3 9 3H11.25C11.6656 3 12 3.33437 12 3.75C12 4.16562 11.6656 4.5 11.25 4.5H9C7.06562 4.5 5.5 6.06562 5.5 8C5.5 9.93437 7.06562 11.5 9 11.5H11.25C11.6656 11.5 12 11.8344 12 12.25C12 12.6656 11.6656 13 11.25 13H9C6.2375 13 4 10.7625 4 8ZM22 8C22 10.7625 19.7625 13 17 13H14.75C14.3344 13 14 12.6656 14 12.25C14 11.8344 14.3344 11.5 14.75 11.5H17C18.9344 11.5 20.5 9.93437 20.5 8C20.5 6.06562 18.9344 4.5 17 4.5H14.75C14.3344 4.5 14 4.16562 14 3.75C14 3.33437 14.3344 3 14.75 3H17C19.7625 3 22 5.2375 22 8ZM9.75 7.25H16.25C16.6656 7.25 17 7.58437 17 8C17 8.41563 16.6656 8.75 16.25 8.75H9.75C9.33437 8.75 9 8.41563 9 8C9 7.58437 9.33437 7.25 9.75 7.25Z" fill="#0046AB"/>
</svg>
