<svg  viewBox="0 0 26 12" fill="none" xmlns="http://www.w3.org/2000/svg">
<path d="M8.00146 9.5H5.75146C3.82147 9.5 2.25146 7.93 2.25146 6C2.25146 4.07 3.82147 2.5 5.75146 2.5H8.00146C8.42146 2.5 8.75146 2.17 8.75146 1.75C8.75146 1.33 8.42146 1 8.00146 1H5.75146C2.99146 1 0.751465 3.24 0.751465 6C0.751465 8.76 2.99146 11 5.75146 11H8.00146C8.42146 11 8.75146 10.67 8.75146 10.25C8.75146 9.83 8.42146 9.5 8.00146 9.5Z" fill="#0046AB"/>
<path d="M5.75146 6C5.75146 6.42 6.08146 6.75 6.50146 6.75H13.0015C13.4215 6.75 13.7515 6.42 13.7515 6C13.7515 5.58 13.4215 5.25 13.0015 5.25H6.50146C6.08146 5.25 5.75146 5.58 5.75146 6Z" fill="#0046AB"/>
<path d="M25.0315 5.47L22.2815 2.72C21.9915 2.43 21.5115 2.43 21.2215 2.72C20.9315 3.01 20.9315 3.49 21.2215 3.78L22.6915 5.25H18.6715C18.3115 2.85 16.2515 1 13.7515 1H11.5015C11.0815 1 10.7515 1.33 10.7515 1.75C10.7515 2.17 11.0815 2.5 11.5015 2.5H13.7515C15.6815 2.5 17.2515 4.07 17.2515 6C17.2515 7.93 15.6815 9.5 13.7515 9.5H11.5015C11.0815 9.5 10.7515 9.83 10.7515 10.25C10.7515 10.67 11.0815 11 11.5015 11H13.7515C16.2615 11 18.3115 9.15 18.6715 6.75H22.6915L21.2215 8.22C20.9315 8.51 20.9315 8.99 21.2215 9.28C21.5115 9.57 21.9915 9.57 22.2815 9.28L25.0315 6.53C25.3215 6.24 25.3215 5.76 25.0315 5.47Z" fill="#0046AB"/>
</svg>
