<svg viewBox="0 0 14 14" fill="none" xmlns="http://www.w3.org/2000/svg">
<path d="M3 4.5C3.39782 4.5 3.77936 4.34196 4.06066 4.06066C4.34196 3.77936 4.5 3.39782 4.5 3C4.5 2.60218 4.34196 2.22064 4.06066 1.93934C3.77936 1.65804 3.39782 1.5 3 1.5C2.60218 1.5 2.22064 1.65804 1.93934 1.93934C1.65804 2.22064 1.5 2.60218 1.5 3C1.5 3.39782 1.65804 3.77936 1.93934 4.06066C2.22064 4.34196 2.60218 4.5 3 4.5ZM6 3C6 3.39397 5.9224 3.78407 5.77164 4.14805C5.62087 4.51203 5.3999 4.84274 5.12132 5.12132C4.84274 5.3999 4.51203 5.62087 4.14805 5.77164C3.78407 5.9224 3.39397 6 3 6C2.60603 6 2.21593 5.9224 1.85195 5.77164C1.48797 5.62087 1.15726 5.3999 0.87868 5.12132C0.600104 4.84274 0.379125 4.51203 0.228361 4.14805C0.0775973 3.78407 -5.87054e-09 3.39397 0 3C-5.87054e-09 2.60603 0.0775973 2.21593 0.228361 1.85195C0.379125 1.48797 0.600104 1.15726 0.87868 0.87868C1.15726 0.600104 1.48797 0.379126 1.85195 0.228361C2.21593 0.0775973 2.60603 0 3 0C3.39397 0 3.78407 0.0775973 4.14805 0.228361C4.51203 0.379126 4.84274 0.600104 5.12132 0.87868C5.3999 1.15726 5.62087 1.48797 5.77164 1.85195C5.9224 2.21593 6 2.60603 6 3ZM3 12.5C3.39782 12.5 3.77936 12.342 4.06066 12.0607C4.34196 11.7794 4.5 11.3978 4.5 11C4.5 10.6022 4.34196 10.2206 4.06066 9.93934C3.77936 9.65804 3.39782 9.5 3 9.5C2.60218 9.5 2.22064 9.65804 1.93934 9.93934C1.65804 10.2206 1.5 10.6022 1.5 11C1.5 11.3978 1.65804 11.7794 1.93934 12.0607C2.22064 12.342 2.60218 12.5 3 12.5ZM6 11C6 11.394 5.9224 11.7841 5.77164 12.1481C5.62087 12.512 5.3999 12.8427 5.12132 13.1213C4.84274 13.3999 4.51203 13.6209 4.14805 13.7716C3.78407 13.9224 3.39397 14 3 14C2.60603 14 2.21593 13.9224 1.85195 13.7716C1.48797 13.6209 1.15726 13.3999 0.87868 13.1213C0.600104 12.8427 0.379125 12.512 0.228361 12.1481C0.0775973 11.7841 -5.87054e-09 11.394 0 11C-5.87054e-09 10.606 0.0775973 10.2159 0.228361 9.85195C0.379125 9.48797 0.600104 9.15726 0.87868 8.87868C1.15726 8.6001 1.48797 8.37913 1.85195 8.22836C2.21593 8.0776 2.60603 8 3 8C3.39397 8 3.78407 8.0776 4.14805 8.22836C4.51203 8.37913 4.84274 8.6001 5.12132 8.87868C5.3999 9.15726 5.62087 9.48797 5.77164 9.85195C5.9224 10.2159 6 10.606 6 11ZM9.5 3C9.5 3.39782 9.65804 3.77936 9.93934 4.06066C10.2206 4.34196 10.6022 4.5 11 4.5C11.3978 4.5 11.7794 4.34196 12.0607 4.06066C12.342 3.77936 12.5 3.39782 12.5 3C12.5 2.60218 12.342 2.22064 12.0607 1.93934C11.7794 1.65804 11.3978 1.5 11 1.5C10.6022 1.5 10.2206 1.65804 9.93934 1.93934C9.65804 2.22064 9.5 2.60218 9.5 3ZM11 6C10.606 6 10.2159 5.9224 9.85195 5.77164C9.48797 5.62087 9.15726 5.3999 8.87868 5.12132C8.6001 4.84274 8.37913 4.51203 8.22836 4.14805C8.0776 3.78407 8 3.39397 8 3C8 2.60603 8.0776 2.21593 8.22836 1.85195C8.37913 1.48797 8.6001 1.15726 8.87868 0.87868C9.15726 0.600104 9.48797 0.379126 9.85195 0.228361C10.2159 0.0775973 10.606 5.37341e-08 11 5.96046e-08C11.394 5.37341e-08 11.7841 0.0775973 12.1481 0.228361C12.512 0.379126 12.8427 0.600104 13.1213 0.87868C13.3999 1.15726 13.6209 1.48797 13.7716 1.85195C13.9224 2.21593 14 2.60603 14 3C14 3.39397 13.9224 3.78407 13.7716 4.14805C13.6209 4.51203 13.3999 4.84274 13.1213 5.12132C12.8427 5.3999 12.512 5.62087 12.1481 5.77164C11.7841 5.9224 11.394 6 11 6ZM11 12.5C11.3978 12.5 11.7794 12.342 12.0607 12.0607C12.342 11.7794 12.5 11.3978 12.5 11C12.5 10.6022 12.342 10.2206 12.0607 9.93934C11.7794 9.65804 11.3978 9.5 11 9.5C10.6022 9.5 10.2206 9.65804 9.93934 9.93934C9.65804 10.2206 9.5 10.6022 9.5 11C9.5 11.3978 9.65804 11.7794 9.93934 12.0607C10.2206 12.342 10.6022 12.5 11 12.5ZM14 11C14 11.7956 13.6839 12.5587 13.1213 13.1213C12.5587 13.6839 11.7956 14 11 14C10.2044 14 9.44129 13.6839 8.87868 13.1213C8.31607 12.5587 8 11.7956 8 11C8 10.2044 8.31607 9.44129 8.87868 8.87868C9.44129 8.31607 10.2044 8 11 8C11.7956 8 12.5587 8.31607 13.1213 8.87868C13.6839 9.44129 14 10.2044 14 11Z" fill="black"/>
</svg>
