<svg viewBox="0 0 32 32" fill="none" xmlns="http://www.w3.org/2000/svg">
<path d="M12.7656 5.57812C12.7656 4.98066 12.285 4.5 11.6875 4.5C11.09 4.5 10.6094 4.98066 10.6094 5.57812V7.375H8.8125C7.22676 7.375 5.9375 8.66426 5.9375 10.25V10.9688V13.125H6.65625H8.09375H8.8125H23.1875H23.9062H25.3438H26.0625V10.9688V10.25C26.0625 8.66426 24.7732 7.375 23.1875 7.375H21.3906V5.57812C21.3906 4.98066 20.91 4.5 20.3125 4.5C19.715 4.5 19.2344 4.98066 19.2344 5.57812V7.375H12.7656V5.57812ZM13.0666 25.3438C13.107 25.5773 13.125 25.8154 13.125 26.0625C13.125 26.5881 12.9857 27.0777 12.7387 27.5H19.2613C19.0188 27.0777 18.875 26.5881 18.875 26.0625C18.875 25.8154 18.8975 25.5773 18.9334 25.3438H13.0666ZM25.3438 21.75C26.2969 21.75 27.211 21.3714 27.8849 20.6974C28.5589 20.0235 28.9375 19.1094 28.9375 18.1562C28.9375 17.2031 28.5589 16.289 27.8849 15.6151C27.211 14.9411 26.2969 14.5625 25.3438 14.5625C24.3906 14.5625 23.4765 14.9411 22.8026 15.6151C22.1286 16.289 21.75 17.2031 21.75 18.1562C21.75 19.1094 22.1286 20.0235 22.8026 20.6974C23.4765 21.3714 24.3906 21.75 25.3438 21.75ZM23.1875 23.1875C21.6018 23.1875 20.3125 24.4768 20.3125 26.0625C20.3125 26.8576 20.9549 27.5 21.75 27.5H28.9375C29.7326 27.5 30.375 26.8576 30.375 26.0625C30.375 24.4768 29.0857 23.1875 27.5 23.1875H23.1875ZM10.25 18.1562C10.25 17.2031 9.87137 16.289 9.19741 15.6151C8.52346 14.9411 7.60937 14.5625 6.65625 14.5625C5.70313 14.5625 4.78904 14.9411 4.11509 15.6151C3.44113 16.289 3.0625 17.2031 3.0625 18.1562C3.0625 19.1094 3.44113 20.0235 4.11509 20.6974C4.78904 21.3714 5.70313 21.75 6.65625 21.75C7.60937 21.75 8.52346 21.3714 9.19741 20.6974C9.87137 20.0235 10.25 19.1094 10.25 18.1562ZM1.625 26.0625C1.625 26.8576 2.26738 27.5 3.0625 27.5H10.25C11.0451 27.5 11.6875 26.8576 11.6875 26.0625C11.6875 24.4768 10.3982 23.1875 8.8125 23.1875H4.5C2.91426 23.1875 1.625 24.4768 1.625 26.0625Z" fill="currentColor"/>
</svg>
