<svg viewBox="0 0 32 33" fill="none" xmlns="http://www.w3.org/2000/svg">
<path d="M11.1912 8.95623C11.0755 8.68124 10.8005 8.5 10.5006 8.5C10.2006 8.5 9.92871 8.68124 9.80997 8.95623L7.06011 15.4559C6.89761 15.8371 7.07573 16.2777 7.46009 16.4402C7.84444 16.6027 8.28192 16.4246 8.44441 16.0403L8.77565 15.2497H12.2255L12.5598 16.0434C12.7223 16.4246 13.1598 16.6027 13.5442 16.4434C13.9285 16.284 14.1035 15.8434 13.9441 15.459L11.1943 8.95935L11.1912 8.95623ZM11.5911 13.7497H9.40999L10.5006 11.1749L11.5911 13.7497ZM15.0003 9.24996V12.4998V15.7496C15.0003 16.1652 15.3347 16.4996 15.7503 16.4996H18.6252C19.9376 16.4996 21 15.4372 21 14.1247C21 13.356 20.6344 12.6748 20.0688 12.2404C20.3407 11.853 20.5001 11.3811 20.5001 10.8749C20.5001 9.56245 19.4376 8.5 18.1252 8.5H15.7503C15.3347 8.5 15.0003 8.83436 15.0003 9.24996ZM18.1252 11.7498H16.5003V9.99993H18.1252C18.6095 9.99993 19.0001 10.3905 19.0001 10.8749C19.0001 11.3592 18.6095 11.7498 18.1252 11.7498ZM16.5003 13.2498H18.1252H18.6252C19.1095 13.2498 19.5001 13.6404 19.5001 14.1247C19.5001 14.6091 19.1095 14.9997 18.6252 14.9997H16.5003V13.2498ZM24.7686 18.2901C25.0686 18.0027 25.078 17.5277 24.7905 17.2308C24.503 16.934 24.028 16.9215 23.7312 17.2089L18.0127 22.6993L15.2816 19.9682C14.9878 19.6744 14.5129 19.6744 14.2223 19.9682C13.9316 20.2619 13.9285 20.7369 14.2223 21.0275L17.469 24.2805C17.7565 24.568 18.2252 24.5742 18.5189 24.2898L24.7686 18.2901Z" fill="currentColor"/>
</svg>
