<svg viewBox="0 0 32 32" fill="none" xmlns="http://www.w3.org/2000/svg">
    <path d="M14.5 23L13 24V22.5V22.1969V21H11.5H10.5H9V19.5V14.5H8V15H6V13H8V13.5H9V9.5V8H10.5H21.5H23V9.5V13.5H24V13H26V15H24V14.5H23V19.5V21H21.5H17.5L14.5 23ZM10.5 19.5H13H14.5V21V21.1969L16.6687 19.7531L17.0469 19.5H17.5H21.5V14V9.5H10.5V14V19.5ZM20.5 11V17H11.5V11H20.5ZM13.5 15C13.7652 15 14.0196 14.8946 14.2071 14.7071C14.3946 14.5196 14.5 14.2652 14.5 14C14.5 13.7348 14.3946 13.4804 14.2071 13.2929C14.0196 13.1054 13.7652 13 13.5 13C13.2348 13 12.9804 13.1054 12.7929 13.2929C12.6054 13.4804 12.5 13.7348 12.5 14C12.5 14.2652 12.6054 14.5196 12.7929 14.7071C12.9804 14.8946 13.2348 15 13.5 15ZM19.5 14C19.5 13.7348 19.3946 13.4804 19.2071 13.2929C19.0196 13.1054 18.7652 13 18.5 13C18.2348 13 17.9804 13.1054 17.7929 13.2929C17.6054 13.4804 17.5 13.7348 17.5 14C17.5 14.2652 17.6054 14.5196 17.7929 14.7071C17.9804 14.8946 18.2348 15 18.5 15C18.7652 15 19.0196 14.8946 19.2071 14.7071C19.3946 14.5196 19.5 14.2652 19.5 14Z" fill="currentColor"/>
</svg>
