<svg width="32" height="32" viewBox="0 0 32 32" fill="none" xmlns="http://www.w3.org/2000/svg">
    <path d="M3.6 5.59897C2.935 5.59897 2.4 6.13397 2.4 6.79897V15.599C2.4 16.264 2.935 16.799 3.6 16.799H6C6.665 16.799 7.2 17.334 7.2 17.999V18.959L10.135 16.999C10.33 16.869 10.565 16.799 10.8 16.799H17.2C17.865 16.799 18.4 16.264 18.4 15.599V6.79897C18.4 6.13397 17.865 5.59897 17.2 5.59897H3.6ZM0 6.79897C0 4.80897 1.61 3.19897 3.6 3.19897H17.2C19.19 3.19897 20.8 4.80897 20.8 6.79897V15.599C20.8 17.589 19.19 19.199 17.2 19.199H11.165L6.665 22.199C6.295 22.444 5.825 22.469 5.435 22.259C5.045 22.049 4.8 21.644 4.8 21.199V19.199H3.6C1.61 19.199 0 17.589 0 15.599V6.79897ZM12.8 20.799H15.2V21.999C15.2 22.664 15.735 23.199 16.4 23.199H21.2C21.435 23.199 21.67 23.269 21.865 23.399L24.8 25.359V24.399C24.8 23.734 25.335 23.199 26 23.199H28.4C29.065 23.199 29.6 22.664 29.6 21.999V13.199C29.6 12.534 29.065 11.999 28.4 11.999H22.4V9.59897H28.4C30.39 9.59897 32 11.209 32 13.199V21.999C32 23.989 30.39 25.599 28.4 25.599H27.2V27.599C27.2 28.044 26.955 28.449 26.565 28.659C26.175 28.869 25.7 28.844 25.335 28.599L20.835 25.599H16.4C14.41 25.599 12.8 23.989 12.8 21.999V20.799ZM7.395 8.00397C7.67 7.23397 8.4 6.71897 9.215 6.71897H11.28C12.49 6.71897 13.465 7.69897 13.465 8.90397C13.465 9.68897 13.045 10.409 12.365 10.799L11.2 11.469V11.484C11.2 11.924 10.84 12.284 10.4 12.284C9.96 12.284 9.6 11.924 9.6 11.484V11.009C9.6 10.724 9.755 10.459 10 10.314L11.57 9.41397C11.75 9.30897 11.865 9.11397 11.865 8.90397C11.865 8.57897 11.6 8.31897 11.28 8.31897H9.215C9.075 8.31897 8.95 8.40897 8.9 8.53897L8.885 8.58397C8.735 8.99897 8.28 9.21897 7.865 9.06897C7.45 8.91897 7.23 8.46397 7.38 8.04897L7.395 8.00397ZM9.265 14.599C9.25469 14.4439 9.27633 14.2884 9.32858 14.1421C9.38083 13.9957 9.46257 13.8617 9.56874 13.7482C9.67491 13.6347 9.80326 13.5443 9.94581 13.4824C10.0884 13.4206 10.2421 13.3887 10.3975 13.3887C10.5529 13.3887 10.7066 13.4206 10.8492 13.4824C10.9917 13.5443 11.1201 13.6347 11.2263 13.7482C11.3324 13.8617 11.4142 13.9957 11.4664 14.1421C11.5187 14.2884 11.5403 14.4439 11.53 14.599C11.5403 14.754 11.5187 14.9095 11.4664 15.0559C11.4142 15.2022 11.3324 15.3363 11.2263 15.4498C11.1201 15.5632 10.9917 15.6537 10.8492 15.7155C10.7066 15.7774 10.5529 15.8093 10.3975 15.8093C10.2421 15.8093 10.0884 15.7774 9.94581 15.7155C9.80326 15.6537 9.67491 15.5632 9.56874 15.4498C9.46257 15.3363 9.38083 15.2022 9.32858 15.0559C9.27633 14.9095 9.25469 14.754 9.265 14.599Z" fill="currentColor"/>
</svg>
