<svg id="ic_advanced_search" data-name="ic_advanced search" xmlns="http://www.w3.org/2000/svg" viewBox="0 0 24 24">
  <path id="Path_2112" data-name="Path 2112" d="M22.468-4.255,14.25-9l8.218-4.744a.563.563,0,0,0,.206-.768l-.562-.974a.563.563,0,0,0-.768-.206l-8.218,4.744v-9.489A.563.563,0,0,0,12.562-21H11.437a.563.563,0,0,0-.562.563v9.489L2.657-15.693a.563.563,0,0,0-.768.206l-.562.974a.563.563,0,0,0,.206.768L9.75-9,1.532-4.255a.563.563,0,0,0-.206.768l.562.974a.563.563,0,0,0,.768.206l8.218-4.744V2.437A.563.563,0,0,0,11.437,3h1.125a.563.563,0,0,0,.562-.562V-7.051l8.218,4.744a.563.563,0,0,0,.768-.206l.563-.974A.563.563,0,0,0,22.468-4.255Z" transform="translate(0 21)"/>
  <rect id="Rectangle_1183" data-name="Rectangle 1183" width="24" height="24" transform="translate(0 0)" fill="none"/>
</svg>
