<?xml version="1.0" encoding="UTF-8"?>
<svg id="Layer_2" data-name="Layer 2" xmlns="http://www.w3.org/2000/svg" viewBox="0 0 32 32">
  <defs>
    <style>
      .cls-1 {
        fill: none;
      }

      .cls-2 {
        fill: currentColor;
      }
    </style>
  </defs>
  <g id="Layer_1-2" data-name="Layer 1">
    <g>
      <rect class="cls-1" width="32" height="32"/>
      <path class="cls-2" d="M17.14,8c.95,0,1.71,.77,1.71,1.71v2.29c0,.95-.77,1.71-1.71,1.71h-.29v1.43h5.43c1.1,0,2,.9,2,2v1.14h.29c.95,0,1.71,.77,1.71,1.71v2.29c0,.95-.77,1.71-1.71,1.71h-2.29c-.95,0-1.71-.77-1.71-1.71v-2.29c0-.95,.77-1.71,1.71-1.71h.29v-1.14c0-.16-.13-.29-.29-.29h-5.43v1.43h.29c.95,0,1.71,.77,1.71,1.71v2.29c0,.95-.77,1.71-1.71,1.71h-2.29c-.95,0-1.71-.77-1.71-1.71v-2.29c0-.95,.77-1.71,1.71-1.71h.29v-1.43h-5.43c-.16,0-.29,.13-.29,.29v1.14h.29c.95,0,1.71,.77,1.71,1.71v2.29c0,.95-.77,1.71-1.71,1.71h-2.29c-.95,0-1.71-.77-1.71-1.71v-2.29c0-.95,.77-1.71,1.71-1.71h.29v-1.14c0-1.1,.9-2,2-2h5.43v-1.43h-.29c-.95,0-1.71-.77-1.71-1.71v-2.29c0-.95,.77-1.71,1.71-1.71h2.29Zm0,1.71h-2.29v2.29h2.29v-2.29ZM7.43,22.29h2.29v-2.29h-2.29v2.29Zm7.43,0h2.29v-2.29h-2.29v2.29Zm7.43,0h2.29v-2.29h-2.29v2.29Z"/>
    </g>
  </g>
</svg>