<svg viewBox="0 0 16 16" fill="currentColor" xmlns="http://www.w3.org/2000/svg">
<path d="M8 0C7.73438 0 7.46875 0.053125 7.225 0.159375L0.684375 2.9625C0.26875 3.14062 0 3.54688 0 4C0 4.45312 0.26875 4.85938 0.684375 5.0375L7.225 7.84062C7.46875 7.94687 7.73438 8 8 8C8.26562 8 8.53125 7.94687 8.775 7.84062L15.3156 5.0375C15.7312 4.85938 16 4.45 16 4C16 3.55 15.7312 3.14062 15.3156 2.9625L8.775 0.159375C8.53125 0.053125 8.26562 0 8 0ZM7.81563 1.5375C7.875 1.5125 7.9375 1.5 8 1.5C8.0625 1.5 8.125 1.5125 8.18437 1.5375L13.9281 4L8.18437 6.4625C8.125 6.4875 8.0625 6.5 8 6.5C7.9375 6.5 7.875 6.4875 7.81563 6.4625L2.07188 4L7.81563 1.5375ZM0.684375 6.9625C0.26875 7.14062 0 7.54688 0 8C0 8.45312 0.26875 8.85938 0.684375 9.0375L7.225 11.8406C7.46875 11.9469 7.73438 12 8 12C8.26562 12 8.53125 11.9469 8.775 11.8406L15.3156 9.0375C15.7312 8.85938 16 8.45 16 8C16 7.55 15.7312 7.14062 15.3156 6.9625L14.3406 6.54375L12.4375 7.35938L13.9281 8L8.18437 10.4625C8.125 10.4875 8.0625 10.5 8 10.5C7.9375 10.5 7.875 10.4875 7.81563 10.4625L2.07188 8L3.5625 7.35938L1.65937 6.54375L0.684375 6.9625ZM0.684375 10.9625C0.26875 11.1406 0 11.5469 0 12C0 12.4531 0.26875 12.8594 0.684375 13.0375L7.225 15.8406C7.46875 15.9469 7.73438 16 8 16C8.26562 16 8.53125 15.9469 8.775 15.8406L15.3156 13.0375C15.7312 12.8594 16 12.45 16 12C16 11.55 15.7312 11.1406 15.3156 10.9625L14.3406 10.5437L12.4375 11.3594L13.9281 12L8.18437 14.4625C8.125 14.4875 8.0625 14.5 8 14.5C7.9375 14.5 7.875 14.4875 7.81563 14.4625L2.07188 12L3.5625 11.3594L1.65937 10.5437L0.684375 10.9625Z" />
</svg>
