<svg xmlns="http://www.w3.org/2000/svg" viewBox="0 0 15.5 15.5">
  <path id="Path_2898" data-name="Path 2898" d="M-7.75-6A7.749,7.749,0,0,0,0,1.75,7.749,7.749,0,0,0,7.75-6,7.749,7.749,0,0,0,0-13.75,7.749,7.749,0,0,0-7.75-6Zm14,0A6.248,6.248,0,0,1,0,.25,6.248,6.248,0,0,1-6.25-6,6.248,6.248,0,0,1,0-12.25,6.248,6.248,0,0,1,6.25-6Zm-3.359.266a.375.375,0,0,0,0-.531L-.947-10.1a.375.375,0,0,0-.531,0l-.706.706a.375.375,0,0,0,0,.531L.681-6-2.184-3.134a.375.375,0,0,0,0,.531l.706.706a.375.375,0,0,0,.531,0Z" transform="translate(7.75 13.75)" fill="currentColor"/>
</svg>
