<?xml version="1.0" encoding="UTF-8"?>
<svg id="Layer_2" data-name="Layer 2" xmlns="http://www.w3.org/2000/svg" viewBox="0 0 32 32">
  <defs>
    <style>
      .cls-1 {
        fill: none;
      }

      .cls-2 {
        fill: currentColor;
      }
    </style>
  </defs>
  <g id="Layer_1-2" data-name="Layer 1">
    <g>
      <rect class="cls-1" width="32" height="32"/>
      <path class="cls-2" d="M23.95,21.61l-3.37-12.5c-.18-.67-.79-1.11-1.45-1.11-.13,0-.26,.02-.39,.05l-1.93,.51c-.18,.05-.35,.13-.49,.24-.25-.48-.75-.8-1.32-.8h-2c-.27,0-.53,.08-.75,.21-.22-.13-.47-.21-.75-.21h-2c-.83,0-1.5,.67-1.5,1.5v13c0,.83,.67,1.5,1.5,1.5h2c.27,0,.53-.08,.75-.21,.22,.13,.47,.21,.75,.21h2c.83,0,1.5-.67,1.5-1.5V13.17l2.62,9.73c.18,.67,.78,1.11,1.45,1.11,.13,0,.26-.02,.39-.05l1.93-.51c.8-.21,1.28-1.03,1.06-1.83ZM15,9.5v1.5h-2v-1.5h2Zm-2,3h2v7h-2v-7Zm-1.5,7h-2v-7h2v7Zm0-10v1.5h-2v-1.5h2Zm-2,13v-1.5h2v1.5h-2Zm3.5,0v-1.47s2-.03,2-.03v1.5h-2Zm4.2-12.48l1.93-.51,.39,1.43-1.93,.51-.39-1.43Zm.78,2.88l1.93-.52,1.81,6.73-1.93,.52-1.81-6.73Zm2.59,9.61l-.39-1.44,1.93-.52,.39,1.44-1.93,.52Z"/>
    </g>
  </g>
</svg>