<svg xmlns="http://www.w3.org/2000/svg" viewBox="0 0 32 32"><rect fill="none" width="32" height="32"/><path fill="currentColor" d="M27.225-19.142l-4.588-4.587a2.625,2.625,0,0,0-1.853-.771H9.624A2.634,2.634,0,0,0,7-21.87v4.37H9.624v-4.37h8.748v5.686a1.309,1.309,0,0,0,1.312,1.312h5.69V.876H12.25V3.5H25.371A2.629,2.629,0,0,0,28,.876V-17.283A2.641,2.641,0,0,0,27.225-19.142ZM21-17.5v-4.161L25.158-17.5ZM13.531-6a1.649,1.649,0,0,0,.415-1.574,2.587,2.587,0,0,1,0-2.1,1.649,1.649,0,0,0-.415-1.574A2.553,2.553,0,0,1,12.5-13.07a1.615,1.615,0,0,0-1.133-1.152,2.493,2.493,0,0,1-1.788-1.051,1.582,1.582,0,0,0-1.547-.422,2.46,2.46,0,0,1-2.064,0,1.583,1.583,0,0,0-1.547.422,2.493,2.493,0,0,1-1.788,1.051A1.617,1.617,0,0,0,1.5-13.07,2.548,2.548,0,0,1,.468-11.25,1.649,1.649,0,0,0,.054-9.676a2.587,2.587,0,0,1,0,2.1A1.649,1.649,0,0,0,.468-6,2.553,2.553,0,0,1,1.5-4.181,1.615,1.615,0,0,0,2.633-3.029a3.274,3.274,0,0,1,.866.273V3.5L7,1.75,10.5,3.5V-2.755a3.278,3.278,0,0,1,.866-.273A1.617,1.617,0,0,0,12.5-4.181,2.551,2.551,0,0,1,13.531-6ZM7-5.25a3.5,3.5,0,0,1-3.5-3.5A3.5,3.5,0,0,1,7-12.25a3.5,3.5,0,0,1,3.5,3.5A3.5,3.5,0,0,1,7-5.25Z" transform="translate(2.001 26.5)"/></svg>