<svg viewBox="0 0 18 18" fill="currentColor" xmlns="http://www.w3.org/2000/svg">
    <path id="Vector" d="M9 3C8.26329 3 7.55675 3.28534 7.03581 3.79325C6.51488 4.30116 6.22222 4.99004 6.22222 5.70833V9.5C6.22222 10.2183 6.51488 10.9072 7.03581 11.4151C7.55675 11.923 8.26329 12.2083 9 12.2083C9.73671 12.2083 10.4433 11.923 10.9642 11.4151C11.4851 10.9072 11.7778 10.2183 11.7778 9.5V5.70833C11.7778 4.99004 11.4851 4.30116 10.9642 3.79325C10.4433 3.28534 9.73671 3 9 3ZM4.55556 8.95833C4.7029 8.95833 4.84421 9.0154 4.94839 9.11698C5.05258 9.21857 5.11111 9.35634 5.11111 9.5C5.11111 10.5056 5.52083 11.47 6.25014 12.1811C6.97945 12.8922 7.9686 13.2917 9 13.2917C10.0314 13.2917 11.0206 12.8922 11.7499 12.1811C12.4792 11.47 12.8889 10.5056 12.8889 9.5C12.8889 9.35634 12.9474 9.21857 13.0516 9.11698C13.1558 9.0154 13.2971 8.95833 13.4444 8.95833C13.5918 8.95833 13.7331 9.0154 13.8373 9.11698C13.9415 9.21857 14 9.35634 14 9.5C14.0002 10.6993 13.547 11.8566 12.7271 12.7506C12.1567 13.3724 11.4368 13.8365 10.6399 14.1063C10.0402 14.3093 9.55556 14.8253 9.55556 15.4583C9.55556 15.602 9.49702 15.7398 9.39284 15.8414C9.28865 15.9429 9.14734 16 9 16C8.85266 16 8.71135 15.9429 8.60716 15.8414C8.50298 15.7398 8.44444 15.602 8.44444 15.4583C8.44444 14.8253 7.95978 14.3093 7.36015 14.1063C6.56323 13.8365 5.84326 13.3724 5.2729 12.7506C4.45295 11.8566 3.99976 10.6993 4 9.5C4 9.35634 4.05853 9.21857 4.16272 9.11698C4.26691 9.0154 4.40821 8.95833 4.55556 8.95833Z" fill="currentColor"/>
</svg>