<svg viewBox="0 0 18 18" fill="currentColor" xmlns="http://www.w3.org/2000/svg">
    <path id="Vector" d="M2.9252 2.13393C2.92503 2.1341 2.92519 2.1344 2.92543 2.13434C3.70127 1.94081 4.51413 1.95663 5.28196 2.18019C6.19034 2.44786 6.68192 3.03379 6.91729 3.70483C7.12815 4.30679 7.12815 4.96796 7.12692 5.4367V9.82559C7.12708 9.98917 7.06266 10.1461 6.94783 10.2619C6.83299 10.3777 6.67715 10.4428 6.51459 10.443C6.35203 10.4431 6.19606 10.3783 6.081 10.2628C5.96593 10.1472 5.9012 9.9904 5.90104 9.82683C5.90104 9.63024 5.68917 9.50467 5.51144 9.58869C5.4372 9.62378 5.36233 9.65752 5.28687 9.6899C4.58811 9.98595 3.68096 10.208 2.74806 9.92057C0.662823 9.27544 0.400483 6.45806 2.1915 5.35405C3.05943 4.81994 4.24364 4.83227 5.08827 4.92355C5.50559 4.97021 5.90938 4.64121 5.79865 4.23616C5.78745 4.19519 5.77504 4.15499 5.76128 4.11559C5.64482 3.78254 5.43275 3.50993 4.93626 3.36314C4.37485 3.20048 3.7807 3.18984 3.21389 3.3323C2.97768 3.39051 2.74835 3.47404 2.52985 3.58148L2.52617 3.58394C2.3849 3.66491 2.21746 3.6861 2.06067 3.64284C1.90388 3.59958 1.77058 3.49542 1.69012 3.35327C1.60965 3.21113 1.58859 3.04263 1.63158 2.88487C1.67451 2.72734 1.77778 2.59338 1.91872 2.51237C1.91914 2.51213 1.91961 2.51201 1.92009 2.51201C1.92114 2.51201 1.9221 2.51141 1.92257 2.51047L1.92261 2.5104C1.92288 2.50984 1.92334 2.50939 1.92389 2.50911L1.93039 2.50584L1.94878 2.49597L2.00762 2.46513C2.30094 2.32239 2.60843 2.21124 2.92497 2.13352C2.92521 2.13346 2.92537 2.13375 2.9252 2.13393ZM5.90104 7.26342C5.90104 6.70461 5.51248 6.21273 4.9571 6.15091C4.13944 6.0621 3.323 6.10281 2.83142 6.40625C1.90097 6.97984 2.07627 8.42184 3.10724 8.74132C3.64908 8.90785 4.23506 8.79683 4.81 8.55259C4.99046 8.47249 5.16752 8.38503 5.34072 8.29046C5.7003 8.09411 5.90104 7.70478 5.90104 7.29509V7.26342ZM12.158 5.52798C12.2367 5.54497 12.3113 5.5774 12.3776 5.62342C12.4439 5.66944 12.5005 5.72815 12.5442 5.7962C12.5879 5.86424 12.6179 5.94029 12.6324 6.01999C12.6469 6.09969 12.6456 6.18148 12.6287 6.2607C12.5416 6.67043 12.8834 7.03851 13.2968 6.97086C13.6471 6.91354 13.9954 6.84455 14.3413 6.76398C14.4197 6.74543 14.5009 6.7426 14.5804 6.75565C14.6599 6.76871 14.7361 6.79739 14.8045 6.84005C14.873 6.88272 14.9324 6.93854 14.9795 7.00433C15.0265 7.07011 15.0602 7.14458 15.0786 7.22347C15.0971 7.30235 15.0999 7.38412 15.0869 7.46411C15.0739 7.54409 15.0454 7.62071 15.003 7.68961C14.9606 7.75851 14.9051 7.81833 14.8398 7.86565C14.7744 7.91298 14.7004 7.94688 14.622 7.96543C13.9932 8.11369 13.3214 8.22924 12.6378 8.30687C12.4196 8.33166 12.2416 8.51107 12.2162 8.72926C12.1786 9.05213 12.4803 9.29448 12.8016 9.24497C12.807 9.24414 12.8124 9.24331 12.8179 9.24248C13.0651 9.20506 13.2472 8.97668 13.4142 8.79056C13.4237 8.78004 13.4335 8.76982 13.4437 8.75993C13.5607 8.64634 13.7178 8.58419 13.8803 8.58713C14.0429 8.59007 14.1976 8.65788 14.3105 8.77563C14.4234 8.89337 14.4852 9.05142 14.4822 9.215C14.4822 9.24008 14.5 9.26162 14.5246 9.26675C14.7662 9.31722 14.9936 9.39058 15.208 9.48267C15.6192 9.65447 15.9855 9.91935 16.2785 10.2567C16.5714 10.5941 16.7832 10.9949 16.8972 11.4279C17.341 13.1117 16.337 15.0878 14.0887 15.9587C13.9369 16.0176 13.768 16.0134 13.6193 15.947C13.4705 15.8806 13.3541 15.7574 13.2956 15.6047C13.2371 15.4519 13.2412 15.282 13.3072 15.1323C13.3732 14.9826 13.4956 14.8655 13.6474 14.8066C15.436 14.1158 15.9643 12.6997 15.7118 11.7437C15.6452 11.4911 15.521 11.2576 15.349 11.0617C15.1771 10.8658 14.9622 10.7128 14.7213 10.615C14.5381 10.5358 14.3432 10.6642 14.2982 10.8586C14.0212 12.0555 13.4596 13.0325 12.7956 13.7527C12.5956 13.9696 12.5014 14.2733 12.6042 14.55C12.6611 14.7033 12.6551 14.873 12.5877 15.0219C12.5202 15.1707 12.3967 15.2865 12.2444 15.3438C12.0921 15.401 11.9234 15.395 11.7754 15.3272C11.6275 15.2593 11.5124 15.135 11.4555 14.9817C11.4261 14.9031 11.335 14.8667 11.2588 14.9017C11.0398 15.0022 10.8202 15.0774 10.6048 15.1261C10.0225 15.2568 9.35436 15.205 8.89097 14.7289C8.20448 14.0208 8.16034 12.8823 8.6458 11.893C8.98452 11.2028 9.58444 10.5523 10.4623 10.0507C10.7195 9.90378 10.8968 9.66366 10.9209 9.36843C10.9608 8.87801 10.577 8.43357 10.0852 8.41836C9.89956 8.41262 9.71619 8.40357 9.53579 8.391C9.45546 8.38549 9.37699 8.36412 9.30487 8.32809C9.23274 8.29207 9.16838 8.24211 9.11545 8.18106C9.06251 8.12001 9.02205 8.04906 8.99637 7.97227C8.97068 7.89549 8.96028 7.81436 8.96575 7.73353C8.97122 7.6527 8.99247 7.57374 9.02826 7.50117C9.06406 7.4286 9.11372 7.36383 9.17439 7.31057C9.23507 7.2573 9.30557 7.21659 9.38188 7.19074C9.45819 7.1649 9.53882 7.15443 9.61915 7.15994C9.74531 7.16883 9.87315 7.17582 10.0023 7.18099C10.7014 7.209 11.285 6.68616 11.4298 6.00166C11.4467 5.92243 11.4789 5.84733 11.5246 5.78064C11.5704 5.71396 11.6287 5.65699 11.6963 5.61301C11.764 5.56902 11.8395 5.53887 11.9187 5.52428C11.9979 5.50969 12.0792 5.51095 12.158 5.52798ZM10.9682 12.8927C10.8773 12.1839 10.0598 11.7983 9.74419 12.4394C9.4132 13.1142 9.55173 13.6434 9.76748 13.8654C9.81652 13.9147 9.97098 14.0048 10.3375 13.9221C10.3887 13.9106 10.4419 13.896 10.4969 13.8782C10.8685 13.7582 11.0288 13.3477 10.9771 12.9606C10.9741 12.9381 10.9711 12.9155 10.9682 12.8927ZM12.0789 11.1098C12.0836 11.6507 12.6933 11.8034 12.8858 11.2979C12.9061 11.2445 12.9257 11.1904 12.9447 11.1355C13.0593 10.8028 12.7702 10.4909 12.4297 10.5797C12.2188 10.6347 12.0775 10.8289 12.0785 11.0468C12.0786 11.0679 12.0788 11.0889 12.0789 11.1098Z" fill="currentColor"/>
</svg>
