<svg xmlns="http://www.w3.org/2000/svg" viewBox="0 0 24 24"><path fill="currentColor" d="M8-13.75A7.749,7.749,0,0,0,.25-6,7.749,7.749,0,0,0,8,1.75,7.749,7.749,0,0,0,15.75-6,7.749,7.749,0,0,0,8-13.75Zm0,14A6.248,6.248,0,0,1,1.75-6,6.248,6.248,0,0,1,8-12.25,6.248,6.248,0,0,1,14.25-6,6.248,6.248,0,0,1,8,.25Zm3.181-8.194a.375.375,0,0,0,0-.531l-.706-.706a.375.375,0,0,0-.531,0L8-7.237,6.056-9.181a.375.375,0,0,0-.531,0l-.706.706a.375.375,0,0,0,0,.531L6.762-6,4.819-4.056a.375.375,0,0,0,0,.531l.706.706a.375.375,0,0,0,.531,0L8-4.763,9.944-2.819a.375.375,0,0,0,.531,0l.706-.706a.375.375,0,0,0,0-.531L9.237-6Z" transform="translate(4 18)"/><rect fill="none" width="24" height="24"/></svg>