<svg viewBox="0 0 32 32" fill="currentColor" xmlns="http://www.w3.org/2000/svg">
<path d="M17.4054 15.9923L21.6912 11.711C21.8721 11.5217 21.9719 11.269 21.969 11.007C21.9661 10.745 21.8609 10.4945 21.6759 10.3092C21.4909 10.124 21.2408 10.0186 20.9792 10.0157C20.7176 10.0129 20.4652 10.1127 20.2762 10.2939L16 14.5848L11.725 10.2939C11.6321 10.2008 11.5218 10.1269 11.4003 10.0765C11.2789 10.026 11.1488 10.0001 11.0173 10C10.8859 9.99994 10.7557 10.0258 10.6342 10.0761C10.5127 10.1265 10.4024 10.2003 10.3094 10.2933C10.2164 10.3864 10.1426 10.4968 10.0922 10.6185C10.0419 10.7401 10.0159 10.8704 10.0159 11.0021C10.0158 11.1337 10.0417 11.2641 10.0919 11.3857C10.1422 11.5074 10.2159 11.6179 10.3088 11.711L14.5946 15.9923L10.3088 20.2737C10.2125 20.3659 10.1356 20.4766 10.0826 20.599C10.0296 20.7215 10.0015 20.8533 10.0001 20.9868C9.9986 21.1202 10.0238 21.2526 10.0741 21.3762C10.1244 21.4998 10.1989 21.6121 10.2931 21.7064C10.3874 21.8008 10.4995 21.8754 10.6229 21.9258C10.7463 21.9762 10.8785 22.0014 11.0118 21.9999C11.145 21.9985 11.2766 21.9704 11.3989 21.9173C11.5212 21.8642 11.6316 21.7872 11.7238 21.6908L16 17.3987L20.2762 21.6908C20.3684 21.7872 20.4788 21.8642 20.6011 21.9173C20.7234 21.9704 20.855 21.9985 20.9882 21.9999C21.1215 22.0014 21.2537 21.9762 21.3771 21.9258C21.5005 21.8754 21.6126 21.8008 21.7069 21.7064C21.8011 21.6121 21.8756 21.4998 21.9259 21.3762C21.9762 21.2526 22.0014 21.1202 21.9999 20.9868C21.9985 20.8533 21.9704 20.7215 21.9174 20.599C21.8644 20.4766 21.7875 20.3659 21.6912 20.2737L17.4054 15.9923Z" fill="currentColor"/>
</svg>
