<svg viewBox="0 0 32 32" fill="currentColor" xmlns="http://www.w3.org/2000/svg">
    <path fill-rule="evenodd" clip-rule="evenodd" d="M8 14.5C8 13.9477 8.44772 13.5 9 13.5H18.2941C18.8464 13.5 19.2941 13.9477 19.2941 14.5C19.2941 15.0523 18.8464 15.5 18.2941 15.5H9C8.44771 15.5 8 15.0523 8 14.5ZM8 17.5C8 16.9477 8.44772 16.5 9 16.5H11.7059C12.2582 16.5 12.7059 16.9477 12.7059 17.5C12.7059 18.0523 12.2582 18.5 11.7059 18.5H9C8.44771 18.5 8 18.0523 8 17.5ZM14.6471 16.5C14.0948 16.5 13.6471 16.9477 13.6471 17.5C13.6471 18.0523 14.0948 18.5 14.6471 18.5H16.4118C16.964 18.5 17.4118 18.0523 17.4118 17.5C17.4118 16.9477 16.9641 16.5 16.4118 16.5H14.6471ZM18.3529 17.5C18.3529 16.9477 18.8007 16.5 19.3529 16.5H20.1765C20.7288 16.5 21.1765 16.9477 21.1765 17.5C21.1765 18.0523 20.7288 18.5 20.1765 18.5H19.3529C18.8007 18.5 18.3529 18.0523 18.3529 17.5ZM23.0588 16.5C22.539 16.5 22.1176 16.9214 22.1176 17.4412V17.5588C22.1176 18.0786 22.539 18.5 23.0588 18.5C23.5786 18.5 24 18.0786 24 17.5588V17.4412C24 16.9214 23.5786 16.5 23.0588 16.5Z" fill="currentColor"/>
</svg>
