<svg viewBox="0 0 32 32" fill="none" xmlns="http://www.w3.org/2000/svg">
<path d="M17.3061 19.9997C17.3061 19.5475 17.4495 19.1056 17.7182 18.7296C17.9869 18.3537 18.3687 18.0607 18.8155 17.8878C19.2622 17.7148 19.7538 17.6695 20.2281 17.7578C20.7023 17.846 21.138 18.0638 21.4798 18.3835C21.8217 18.7033 22.0545 19.1107 22.1487 19.5541C22.243 19.9976 22.1945 20.4572 22.0093 20.8749C21.8242 21.2926 21.5107 21.6495 21.1086 21.9006C20.7065 22.1517 20.2338 22.2857 19.7502 22.2856C19.4292 22.2856 19.1113 22.2264 18.8147 22.1116C18.5182 21.9967 18.2487 21.8283 18.0217 21.616C17.7948 21.4037 17.6148 21.1517 17.492 20.8744C17.3692 20.5971 17.306 20.2998 17.3061 19.9997ZM19.7502 21.4287C20.1554 21.4287 20.5441 21.2782 20.8306 21.0102C21.1172 20.7423 21.2782 20.3789 21.2782 20C21.2782 19.6211 21.1172 19.2577 20.8306 18.9898C20.5441 18.7218 20.1554 18.5713 19.7502 18.5713H19.6952C19.7344 18.6621 19.7531 18.7595 19.7502 18.8574C19.7498 19.1604 19.6209 19.4509 19.3918 19.6652C19.1626 19.8795 18.8519 20 18.5278 20.0003C18.4233 20.0027 18.3194 19.985 18.2226 19.9483V19.9855C18.2209 20.1742 18.2592 20.3614 18.3352 20.5362C18.4112 20.711 18.5234 20.87 18.6654 21.0042C18.8074 21.1383 18.9763 21.2448 19.1625 21.3177C19.3486 21.3905 19.5484 21.4283 19.7502 21.4287ZM16.0721 17.4393C17.0555 16.5364 18.3722 16.0212 19.7502 16C21.1282 16.0214 22.4448 16.5366 23.4283 17.4393C24.1883 18.0952 24.7928 18.8927 25.2028 19.7805C25.2339 19.85 25.25 19.9246 25.25 20C25.25 20.0754 25.2339 20.15 25.2028 20.2195C24.7843 21.1028 24.1809 21.8988 23.4283 22.5607C22.445 23.4637 21.1283 23.979 19.7502 24C18.3721 23.9792 17.0553 23.4639 16.0721 22.5607C15.3198 21.8984 14.7164 21.1025 14.2969 20.2195C14.266 20.15 14.25 20.0754 14.25 20C14.25 19.9246 14.266 19.85 14.2969 19.7805C14.7078 18.893 15.3124 18.0956 16.0721 17.4393ZM19.7502 16.8569C18.6041 16.8788 17.5107 17.3117 16.6963 18.0661C16.0654 18.6128 15.5551 19.2697 15.1941 19.9997C15.5594 20.7273 16.0692 21.3835 16.6963 21.9333C17.5106 22.6879 18.604 23.1211 19.7502 23.1431C20.8963 23.1212 21.9897 22.6883 22.8041 21.9339C23.4259 21.3796 23.9351 20.7245 24.3069 20.0003C23.9394 19.2738 23.4296 18.6179 22.8041 18.0667C21.9898 17.3121 20.8964 16.879 19.7502 16.8569Z" fill="currentColor"/>
<path d="M9.5 8.00003C7.98125 8.00003 6.75 9.23128 6.75 10.75V21.25H6.7625C6.75312 21.3312 6.75 21.4156 6.75 21.5C6.75 22.8813 7.86875 24 9.25 24H14.6969C14.125 23.5969 13.6312 23.0875 13.25 22.5H9.25C8.69688 22.5 8.25 22.0531 8.25 21.5C8.25 20.9469 8.69688 20.5 9.25 20.5H12.25C12.1906 20.175 12.25 19.8406 12.25 19.5C12.25 19.3312 12.2344 19.1656 12.25 19H9.25C8.89375 19 8.55625 19.075 8.25 19.2094V10.75C8.25 10.0594 8.80938 9.50003 9.5 9.50003H19C19.1375 9.50003 19.25 9.61253 19.25 9.75003V14.8907C19.7063 14.5938 20.2125 14.65 20.75 14.5V9.75003C20.75 8.78441 19.9656 8.00003 19 8.00003H9.5ZM11.5 11.5H17C17.4156 11.5 17.75 11.8344 17.75 12.25C17.75 12.6657 17.4156 13 17 13H11.5C11.0844 13 10.75 12.6657 10.75 12.25C10.75 11.8344 11.0844 11.5 11.5 11.5ZM11.5 14H17C17.4156 14 17.75 14.3344 17.75 14.75C17.75 15.1657 17.4156 15.5 17 15.5H11.5C11.0844 15.5 10.75 15.1657 10.75 14.75C10.75 14.3344 11.0844 14 11.5 14Z" fill="currentColor"/>
</svg>
