<svg viewBox="0 0 32 32" fill="none" xmlns="http://www.w3.org/2000/svg">
<path d="M24.7771 15.9896C23.9009 15.1134 22.7015 14.6128 21.4603 14.6128C20.2191 14.6128 19.0196 15.103 18.1435 15.9896C17.2673 16.8657 16.7667 18.0652 16.7667 19.3064C16.7667 20.5476 17.2569 21.7471 18.1435 22.6232C19.0196 23.4993 20.2191 24 21.4603 24C22.7015 24 23.9009 23.5098 24.7771 22.6232C25.6532 21.7366 26.1539 20.5476 26.1539 19.3064C26.1539 18.0652 25.6637 16.8657 24.7771 15.9896ZM23.6819 19.588L21.4603 21.8514L19.2386 19.588V19.0248H20.6259V16.7614H22.2947V19.0248H23.6819V19.588ZM16.0157 21.0378H14.9727V17.1265H16.1513C16.3912 16.5528 16.7354 16.0417 17.1526 15.5619H14.9727V12.1721H20.9701V13.6219C21.1369 13.6115 21.2934 13.5698 21.4603 13.5698C21.8253 13.5698 22.1904 13.6115 22.5346 13.6741V10.086C22.5346 8.93872 21.5959 8 20.4485 8H7.93224C6.78491 8 5.84619 8.93872 5.84619 10.086V20.5163C5.84619 21.6636 6.78491 22.6023 7.93224 22.6023H16.7771C16.4329 22.1226 16.193 21.5906 16.0157 21.0378ZM13.4081 21.0378H7.93224C7.64019 21.0378 7.41073 20.7979 7.41073 20.5163V17.1265H13.4081V21.0378ZM13.4081 15.5619H7.41073V12.1721H13.4081V15.5619Z" fill="currentColor"/>
</svg>
