<svg xmlns="http://www.w3.org/2000/svg" viewBox="0 0 24.315 24"><g transform="translate(-1168 -265)"><rect fill="none" width="24" height="24" transform="translate(1168 265)"/><path fill="currentColor" d="M14.5-13H1.5A1.5,1.5,0,0,0,0-11.5v11A1.5,1.5,0,0,0,1.5,1h13A1.5,1.5,0,0,0,16-.5v-11A1.5,1.5,0,0,0,14.5-13ZM5,0H1.5A.5.5,0,0,1,1-.5V-3H5ZM5-4H1V-7H5ZM5-8H1v-3H5Zm5,8H6V-3h4Zm0-4H6V-7h4Zm0-4H6v-3h4Zm5,5V-.5a.5.5,0,0,1-.5.5H11V-3Zm0-1H11V-7h4Zm0-4H11v-3h4Z" transform="translate(1172 283.817)"/><path fill="currentColor" d="M9.724-11.4a.2.2,0,0,0-.286,0L4.9-6.863,4.689-4.936a.4.4,0,0,0,.446.446L7.062-4.7,11.6-9.238a.2.2,0,0,0,0-.286Zm3.363-.475-1.013-1.013a.812.812,0,0,0-1.146,0l-.735.735a.2.2,0,0,0,0,.286l1.873,1.873a.2.2,0,0,0,.286,0l.735-.735A.812.812,0,0,0,13.087-11.872Z" transform="translate(1177.884 281.305)"/><path fill="currentColor" d="M9.724-11.4a.2.2,0,0,0-.286,0L4.9-6.863,4.689-4.936a.4.4,0,0,0,.446.446L7.062-4.7,11.6-9.238a.2.2,0,0,0,0-.286Zm3.363-.475-1.013-1.013a.812.812,0,0,0-1.146,0l-.735.735a.2.2,0,0,0,0,.286l1.873,1.873a.2.2,0,0,0,.286,0l.735-.735A.812.812,0,0,0,13.087-11.872Z" transform="translate(1177.884 281.305)"/></g></svg>