<svg xmlns="http://www.w3.org/2000/svg" viewBox="0 0 24 24">
  <g id="Group_14240" data-name="Group 14240" transform="translate(-1386 -417)">
    <rect id="Rectangle_7067" data-name="Rectangle 7067" width="24" height="24" transform="translate(1386 417)" fill="none"/>
    <path id="Path_15118" data-name="Path 15118" d="M15.9-4.5,13.9-6.507a.333.333,0,0,0-.57.235v1.358H10.667V-8.584a1.341,1.341,0,0,0-.394-.944l-2.33-2.33A1.333,1.333,0,0,0,7-12.25H1.333A1.338,1.338,0,0,0,0-10.914V.639A1.334,1.334,0,0,0,1.333,1.972h8A1.335,1.335,0,0,0,10.667.639V-2.248H9.333V.639h-8V-10.914H5.777v2.888a.665.665,0,0,0,.667.666h2.89v2.445H4.778a.333.333,0,0,0-.333.333v.667a.333.333,0,0,0,.333.333h8.556v1.358a.333.333,0,0,0,.57.235L15.9-4A.356.356,0,0,0,15.9-4.5ZM7.11-8.692v-2.113L9.223-8.692Z" transform="translate(1392.5 434.25)"/>
  </g>
</svg>
