<svg viewBox="0 0 32 32" fill="currentColor" xmlns="http://www.w3.org/2000/svg">
    <path d="M18.3529 16.4707C19.4762 16.4707 20.5535 16.0245 21.3478 15.2302C22.142 14.4359 22.5883 13.3586 22.5883 12.2353C22.5883 11.1121 22.142 10.0348 21.3478 9.2405C20.5535 8.44622 19.4762 8 18.3529 8C17.2297 8 16.1524 8.44622 15.3581 9.2405C14.5638 10.0348 14.1176 11.1121 14.1176 12.2353C14.1176 13.3586 14.5638 14.4359 15.3581 15.2302C16.1524 16.0245 17.2297 16.4707 18.3529 16.4707ZM20.5685 11.1567L17.7449 13.9803C17.7012 14.0241 17.6493 14.0589 17.5921 14.0826C17.5349 14.1063 17.4736 14.1185 17.4117 14.1185C17.3498 14.1185 17.2886 14.1063 17.2314 14.0826C17.1742 14.0589 17.1223 14.0241 17.0786 13.9803L16.1374 13.0391C16.049 12.9507 15.9994 12.8309 15.9994 12.7059C15.9994 12.581 16.049 12.4611 16.1374 12.3727C16.2257 12.2844 16.3456 12.2347 16.4706 12.2347C16.5955 12.2347 16.7154 12.2844 16.8037 12.3727C17.1394 12.709 17.6842 12.7091 18.0201 12.3731L19.9021 10.4904C19.9905 10.402 20.1103 10.3524 20.2353 10.3524C20.3603 10.3524 20.4801 10.402 20.5685 10.4904C20.6568 10.5787 20.7065 10.6986 20.7065 10.8236C20.7065 10.9485 20.6568 11.0684 20.5685 11.1567Z" fill="currentColor"/>
    <path d="M18.4914 17.8025C18.597 17.6216 18.4455 17.4154 18.236 17.4104C18.1464 17.4083 18.0569 17.4039 17.9676 17.3973C17.7786 17.3832 17.5942 17.4712 17.4984 17.6347L16.9111 18.6364C16.2681 19.7333 14.5883 19.2772 14.5883 18.0058V17.9018C14.5883 17.5206 14.8413 17.183 14.9872 16.8309C15.0665 16.6394 15.0804 16.4272 15.0268 16.2271C14.9732 16.027 14.855 15.8501 14.6906 15.724C14.5263 15.5979 14.3249 15.5295 14.1177 15.5295C13.9105 15.5295 13.7091 15.5979 13.5447 15.724C13.3803 15.8501 13.2622 16.027 13.2086 16.2271C13.1549 16.4272 13.1688 16.6394 13.2481 16.8309C13.394 17.183 13.6471 17.5206 13.6471 17.9018V18.0058C13.6471 19.2774 11.9672 19.7336 11.324 18.6367L10.5562 17.3272C10.44 17.1289 10.3739 16.9052 10.3637 16.6756C10.3535 16.446 10.3996 16.2173 10.4979 16.0095L11.8841 13.0819C11.9928 12.8523 12.2241 12.706 12.4781 12.706H12.726C12.9791 12.706 13.176 12.4885 13.176 12.2354C13.176 11.9823 12.9791 11.7648 12.726 11.7648H10.8235C10.6987 11.7648 10.579 11.7152 10.4908 11.6269C10.4025 11.5387 10.3529 11.419 10.3529 11.2942V9.41182C10.3529 9.28701 10.3033 9.16731 10.2151 9.07906C10.1268 8.9908 10.0071 8.94122 9.88234 8.94122C9.75753 8.94122 9.63783 8.9908 9.54958 9.07906C9.46132 9.16731 9.41174 9.28701 9.41174 9.41182V11.2942C9.41174 11.6686 9.56048 12.0277 9.82524 12.2925C10.09 12.5572 10.4491 12.706 10.8235 12.706C10.9153 12.706 10.9758 12.8016 10.9365 12.8846L9.64704 15.6048C9.48293 15.9513 9.40598 16.3327 9.42287 16.7157C9.43977 17.0987 9.55 17.4718 9.74398 17.8025L13.0033 23.3621C13.1173 23.5563 13.2802 23.7174 13.4756 23.8293C13.6711 23.9412 13.8924 24 14.1177 24C14.3429 24 14.5642 23.9412 14.7597 23.8293C14.9552 23.7174 15.118 23.5563 15.232 23.3621L18.4914 17.8025Z" fill="currentColor"/>
</svg>
