<svg width="32" height="32" viewBox="0 0 32 32" fill="currentColor" xmlns="http://www.w3.org/2000/svg">
    <path d="M18.3533 16.4707C19.4766 16.4707 20.5539 16.0245 21.3481 15.2302C22.1424 14.4359 22.5886 13.3586 22.5886 12.2353C22.5886 11.1121 22.1424 10.0348 21.3481 9.2405C20.5539 8.44622 19.4766 8 18.3533 8C17.23 8 16.1527 8.44622 15.3585 9.2405C14.5642 10.0348 14.118 11.1121 14.118 12.2353C14.118 13.3586 14.5642 14.4359 15.3585 15.2302C16.1527 16.0245 17.23 16.4707 18.3533 16.4707ZM20.5689 11.1567L17.7453 13.9803C17.7016 14.0241 17.6496 14.0589 17.5925 14.0826C17.5353 14.1063 17.474 14.1185 17.4121 14.1185C17.3502 14.1185 17.2889 14.1063 17.2318 14.0826C17.1746 14.0589 17.1226 14.0241 17.0789 13.9803L16.1377 13.0391C16.0494 12.9507 15.9997 12.8309 15.9997 12.7059C15.9997 12.581 16.0494 12.4611 16.1377 12.3727C16.2261 12.2844 16.346 12.2347 16.4709 12.2347C16.5959 12.2347 16.7157 12.2844 16.8041 12.3727C17.1398 12.709 17.6846 12.7091 18.0205 12.3731L19.9025 10.4904C19.9909 10.402 20.1107 10.3524 20.2357 10.3524C20.3606 10.3524 20.4805 10.402 20.5689 10.4904C20.6572 10.5787 20.7069 10.6986 20.7069 10.8236C20.7069 10.9485 20.6572 11.0684 20.5689 11.1567Z" />
    <path d="M18.4917 17.8025C18.5974 17.6216 18.4458 17.4154 18.2364 17.4104C18.1468 17.4083 18.0573 17.4039 17.9679 17.3973C17.779 17.3832 17.5945 17.4712 17.4987 17.6347L16.9115 18.6364C16.2684 19.7333 14.5886 19.2772 14.5886 18.0058V17.9018C14.5886 17.5206 14.8417 17.183 14.9876 16.8309C15.0669 16.6394 15.0808 16.4272 15.0272 16.2271C14.9735 16.027 14.8554 15.8501 14.691 15.724C14.5266 15.5979 14.3252 15.5295 14.118 15.5295C13.9109 15.5295 13.7095 15.5979 13.5451 15.724C13.3807 15.8501 13.2625 16.027 13.2089 16.2271C13.1553 16.4272 13.1692 16.6394 13.2485 16.8309C13.3944 17.183 13.6474 17.5206 13.6474 17.9018V18.0058C13.6474 19.2774 11.9675 19.7336 11.3244 18.6367L10.5566 17.3272C10.4403 17.1289 10.3742 16.9052 10.3641 16.6756C10.3539 16.446 10.4 16.2173 10.4982 16.0095L11.8845 13.0819C11.9932 12.8523 12.2244 12.706 12.4785 12.706H12.7263C12.9794 12.706 13.1764 12.4885 13.1764 12.2354C13.1764 11.9823 12.9794 11.7648 12.7263 11.7648H10.8239C10.6991 11.7648 10.5794 11.7152 10.4911 11.6269C10.4029 11.5387 10.3533 11.419 10.3533 11.2942V9.41182C10.3533 9.28701 10.3037 9.16731 10.2155 9.07906C10.1272 8.9908 10.0075 8.94122 9.8827 8.94122C9.75789 8.94122 9.6382 8.9908 9.54994 9.07906C9.46169 9.16731 9.41211 9.28701 9.41211 9.41182V11.2942C9.41211 11.6686 9.56085 12.0277 9.82561 12.2925C10.0904 12.5572 10.4495 12.706 10.8239 12.706C10.9157 12.706 10.9762 12.8016 10.9369 12.8846L9.64741 15.6048C9.4833 15.9513 9.40634 16.3327 9.42324 16.7157C9.44013 17.0987 9.55037 17.4718 9.74435 17.8025L13.0037 23.3621C13.1177 23.5563 13.2805 23.7174 13.476 23.8293C13.6715 23.9412 13.8928 24 14.118 24C14.3433 24 14.5646 23.9412 14.7601 23.8293C14.9555 23.7174 15.1184 23.5563 15.2324 23.3621L18.4917 17.8025Z"/>
</svg>
