<?xml version="1.0" encoding="UTF-8"?>
<svg id="Layer_2" data-name="Layer 2" xmlns="http://www.w3.org/2000/svg" viewBox="0 0 32 32">
  <defs>
    <style>
      .cls-1 {
        fill: none;
      }

      .cls-2 {
        fill: currentColor;
      }
    </style>
  </defs>
  <g id="Layer_1-2" data-name="Layer 1">
    <g>
      <rect class="cls-1" width="32" height="32"/>
      <path class="cls-2" d="m17,15.5h-3c-2.07,0-3.81,1.4-4.34,3.3-.1-.39-.16-.82-.16-1.3,0-2.21,1.79-4,4-4h4.25c.42,0,.75-.33.75-.75v-1.63l3.75,3.38-3.75,3.38v-1.63c0-.42-.33-.75-.75-.75h-.75Zm0,1.5v2c0,.39.23.75.59.91s.78.09,1.07-.17l5-4.5c.21-.19.33-.46.33-.74s-.12-.55-.33-.74l-5-4.5c-.29-.27-.72-.33-1.07-.17-.36.16-.59.52-.59.91v2h-3.5c-3.04,0-5.5,2.46-5.5,5.5,0,2.44,1.21,3.94,2.15,4.75.13.11.25.21.37.29.1.07.19.14.28.19.14.09.26.16.34.2s.17.06.25.06c.34,0,.62-.28.62-.62,0-.21-.11-.41-.26-.57-.02-.02-.03-.03-.04-.04-.08-.07-.16-.16-.24-.27-.05-.07-.11-.16-.16-.25-.17-.3-.3-.72-.3-1.26,0-1.66,1.34-3,3-3h3Z"/>
    </g>
  </g>
</svg>