<svg height="12" viewBox="0 0 20 16" xmlns="http://www.w3.org/2000/svg">
<path d="M10 10C10.6438 10.005 11.2746 9.81856 11.8124 9.46447C12.3501 9.11038 12.7706 8.60455 13.0204 8.01114C13.2702 7.41774 13.3381 6.7635 13.2156 6.13142C13.093 5.49934 12.7855 4.91792 12.332 4.46089C11.8785 4.00387 11.2994 3.69184 10.6683 3.5644C10.0372 3.43696 9.38245 3.49984 8.78713 3.74508C8.19181 3.99031 7.68275 4.40684 7.32452 4.94183C6.96629 5.47681 6.77503 6.10615 6.77501 6.75C6.77198 7.17554 6.85314 7.59748 7.01383 7.99152C7.17452 8.38557 7.41156 8.74394 7.7113 9.04601C8.01105 9.34808 8.36758 9.58788 8.76037 9.7516C9.15316 9.91533 9.57446 9.99975 10 10ZM10 5C10.3461 5 10.6845 5.10264 10.9723 5.29493C11.26 5.48722 11.4843 5.76053 11.6168 6.08031C11.7493 6.40008 11.7839 6.75194 11.7164 7.09141C11.6489 7.43088 11.4822 7.7427 11.2374 7.98744C10.9927 8.23218 10.6809 8.39885 10.3414 8.46638C10.002 8.5339 9.65008 8.49924 9.33031 8.36679C9.01054 8.23434 8.73723 8.01003 8.54494 7.72225C8.35265 7.43446 8.25001 7.09612 8.25001 6.75C8.25027 6.28595 8.43473 5.84099 8.76287 5.51286C9.091 5.18473 9.53596 5.00027 10 5ZM16 5C16.4945 5 16.9778 4.85338 17.3889 4.57867C17.8001 4.30397 18.1205 3.91353 18.3097 3.45671C18.4989 2.99989 18.5484 2.49723 18.452 2.01228C18.3555 1.52732 18.1174 1.08187 17.7678 0.732234C17.4181 0.382603 16.9727 0.144501 16.4877 0.0480379C16.0028 -0.0484251 15.5001 0.00108321 15.0433 0.190302C14.5865 0.379521 14.196 0.699953 13.9213 1.11108C13.6466 1.5222 13.5 2.00555 13.5 2.5C13.5 3.16304 13.7634 3.79893 14.2322 4.26777C14.7011 4.73661 15.337 5 16 5ZM11.559 11H8.44101C7.29996 10.9647 6.19151 11.3835 5.35892 12.1645C4.52633 12.9456 4.0376 14.025 4.00001 15.166C4.00706 15.3942 4.10447 15.6103 4.27081 15.7667C4.43715 15.9231 4.6588 16.007 4.88701 16H15.113C15.3412 16.007 15.5629 15.9231 15.7292 15.7667C15.8955 15.6103 15.993 15.3942 16 15.166C15.9624 14.025 15.4737 12.9456 14.6411 12.1645C13.8085 11.3835 12.7001 10.9647 11.559 11ZM5.56601 14.5C5.76171 13.9042 6.14472 13.3876 6.65795 13.0272C7.17118 12.6667 7.78714 12.4818 8.41401 12.5H11.56C12.1868 12.482 12.8027 12.667 13.3159 13.0274C13.8291 13.3877 14.2122 13.9043 14.408 14.5H5.56601ZM17.247 6H15.314C14.9258 6.00143 14.5428 6.08958 14.193 6.258C14.2191 6.4209 14.2358 6.58517 14.243 6.75C14.2392 7.76117 13.8718 8.73724 13.208 9.5H19.449C19.5994 9.4953 19.7418 9.43121 19.8451 9.32176C19.9483 9.21231 20.004 9.06642 20 8.916C20.021 8.16442 19.7429 7.43522 19.2267 6.8885C18.7106 6.34178 17.9986 6.02223 17.247 6ZM5.74701 6.75C5.75359 6.58248 5.77029 6.41551 5.79701 6.25C5.45344 6.07299 5.07027 5.98693 4.68401 6H2.75301C2.00146 6.02223 1.28944 6.34178 0.773286 6.8885C0.257128 7.43522 -0.0209842 8.16442 9.11159e-06 8.916C-0.00403124 9.06642 0.0516744 9.21231 0.154937 9.32176C0.2582 9.43121 0.400611 9.4953 0.551009 9.5H6.78501C6.11977 8.73786 5.75129 7.76162 5.74701 6.75ZM4.00001 5C4.49446 5 4.97781 4.85338 5.38893 4.57867C5.80006 4.30397 6.12049 3.91353 6.30971 3.45671C6.49893 2.99989 6.54844 2.49723 6.45197 2.01228C6.35551 1.52732 6.11741 1.08187 5.76778 0.732234C5.41814 0.382603 4.97269 0.144501 4.48773 0.0480379C4.00278 -0.0484251 3.50012 0.00108321 3.0433 0.190302C2.58649 0.379521 2.19604 0.699953 1.92133 1.11108C1.64663 1.5222 1.50001 2.00555 1.50001 2.5C1.50001 3.16304 1.7634 3.79893 2.23224 4.26777C2.70108 4.73661 3.33697 5 4.00001 5Z" />
</svg>
