<?xml version="1.0" encoding="UTF-8"?>
<svg id="Layer_2" data-name="Layer 2" xmlns="http://www.w3.org/2000/svg" viewBox="0 0 32 32">
  <defs>
    <style>
      .cls-1 {
        fill: none;
      }

      .cls-2 {
        fill: currentColor;
      }
    </style>
  </defs>
  <g id="Layer_1-2" data-name="Layer 1">
    <g>
      <rect class="cls-1" width="32" height="32"/>
      <path class="cls-2" d="M16,18c1.79,0,3.22-1.45,3.22-3.25s-1.45-3.25-3.22-3.25-3.22,1.45-3.22,3.25c-.03,1.79,1.43,3.25,3.22,3.25Zm0-5c.96,0,1.75,.78,1.75,1.75s-.79,1.75-1.75,1.75-1.75-.78-1.75-1.75,.78-1.75,1.75-1.75Zm6,0c1.38,0,2.5-1.12,2.5-2.5s-1.12-2.5-2.5-2.5-2.5,1.12-2.5,2.5,1.12,2.5,2.5,2.5Zm-4.44,6h-3.12c-2.45,0-4.44,1.87-4.44,4.17,0,.46,.4,.83,.89,.83h10.23c.49,0,.89-.37,.89-.83,0-2.3-1.99-4.17-4.44-4.17Zm-5.99,3.5c.33-1.15,1.48-2,2.85-2h3.15c1.37,0,2.52,.85,2.85,2H11.57Zm11.68-8.5h-1.93c-.4,0-.78,.09-1.12,.26,.02,.16,.05,.32,.05,.49,0,1.05-.4,2.01-1.04,2.75h6.24c.31,0,.55-.26,.55-.58,0-1.61-1.23-2.92-2.75-2.92Zm-11.5,.75c0-.17,.03-.33,.05-.5-.34-.19-.72-.25-1.11-.25h-1.93c-1.52,0-2.75,1.31-2.75,2.92,0,.32,.25,.58,.55,.58h6.23c-.64-.74-1.04-1.7-1.04-2.75Zm-1.75-1.75c1.38,0,2.5-1.12,2.5-2.5s-1.12-2.5-2.5-2.5-2.5,1.12-2.5,2.5,1.12,2.5,2.5,2.5Z"/>
    </g>
  </g>
</svg>