<svg xmlns="http://www.w3.org/2000/svg" viewBox="0 0 32 32"><path fill="currentcolor" d="M10-17.187A9.689,9.689,0,0,0,.313-7.5,9.687,9.687,0,0,0,10,2.188,9.687,9.687,0,0,0,19.688-7.5,9.689,9.689,0,0,0,10-17.187Zm0,17.5A7.808,7.808,0,0,1,2.188-7.5,7.81,7.81,0,0,1,10-15.312,7.81,7.81,0,0,1,17.813-7.5,7.808,7.808,0,0,1,10,.313Zm4.189-9.969c0-1.973-2.046-3.469-3.963-3.469A4.391,4.391,0,0,0,6.3-11.008a.47.47,0,0,0,.1.639l1.087.824a.469.469,0,0,0,.651-.083c.588-.742,1.006-1.171,1.912-1.171.695,0,1.554.447,1.554,1.121,0,.509-.42.771-1.106,1.155-.8.448-1.859,1.007-1.859,2.4v.338a.469.469,0,0,0,.469.469h1.783a.469.469,0,0,0,.469-.469v-.248C11.36-7,14.189-7.037,14.189-9.656ZM11.641-3.125A1.642,1.642,0,0,0,10-4.766,1.642,1.642,0,0,0,8.359-3.125,1.642,1.642,0,0,0,10-1.484,1.642,1.642,0,0,0,11.641-3.125Z" transform="translate(5.688 23.188)"/><rect fill="none" width="32" height="32"/></svg>