<?xml version="1.0" encoding="UTF-8"?>
<svg id="Layer_2" data-name="Layer 2" xmlns="http://www.w3.org/2000/svg" viewBox="0 0 32 32">
  <defs>
    <style>
      .cls-1 {
        fill: none;
      }

      .cls-2 {
        fill: currentcolor;
      }
    </style>
  </defs>
  <g id="Layer_1-2" data-name="Layer 1">
    <g>
      <rect class="cls-1" width="32" height="32"/>
      <path class="cls-2" d="M24.73,15.18c.32,.27,.36,.74,.09,1.06-.27,.32-.74,.36-1.06,.09l-.77-.65v5.83c0,1.38-1.12,2.5-2.5,2.5H11.5c-1.38,0-2.5-1.12-2.5-2.5v-5.83l-.76,.65c-.32,.27-.79,.23-1.06-.09-.27-.32-.23-.79,.09-1.06l8.25-7c.28-.24,.69-.24,.97,0l8.25,7Zm-13.23,7.32h1.5v-4.75c0-.69,.56-1.25,1.25-1.25h3.5c.69,0,1.25,.56,1.25,1.25v4.75h1.5c.55,0,1-.45,1-1v-7.1l-5.5-4.67-5.5,4.67v7.1c0,.55,.45,1,1,1h0Zm3,0h3v-4.5h-3v4.5Z"/>
    </g>
  </g>
</svg>