<svg xmlns="http://www.w3.org/2000/svg" viewBox="0 0 30 30">
  <g id="icon_profile" transform="translate(-287 -1946)">
    <rect id="Rectangle_1257" data-name="Rectangle 1257" width="30" height="30" transform="translate(287 1946)" fill="none"/>
    <path id="Path_2618" data-name="Path 2618" d="M8.719-12.094A3.376,3.376,0,0,0,5.344-8.719,3.376,3.376,0,0,0,8.719-5.344a3.376,3.376,0,0,0,3.375-3.375A3.376,3.376,0,0,0,8.719-12.094Zm0,5.063A1.688,1.688,0,0,1,7.031-8.719a1.688,1.688,0,0,1,1.688-1.687,1.688,1.688,0,0,1,1.688,1.688A1.688,1.688,0,0,1,8.719-7.031Zm0-8.437A8.717,8.717,0,0,0,0-6.75,8.717,8.717,0,0,0,8.719,1.969,8.717,8.717,0,0,0,17.438-6.75,8.717,8.717,0,0,0,8.719-15.469Zm0,15.75a6.991,6.991,0,0,1-4.574-1.7A3.029,3.029,0,0,1,6.592-2.809a7.152,7.152,0,0,0,2.127.338,7.041,7.041,0,0,0,2.127-.338A3.038,3.038,0,0,1,13.293-1.42,6.991,6.991,0,0,1,8.719.281Zm5.72-2.957A4.663,4.663,0,0,0,10.744-4.5a10.55,10.55,0,0,1-2.025.337A10.607,10.607,0,0,1,6.694-4.5,4.674,4.674,0,0,0,3-2.675,6.981,6.981,0,0,1,1.688-6.75a7.038,7.038,0,0,1,7.031-7.031A7.038,7.038,0,0,1,15.75-6.75,6.981,6.981,0,0,1,14.439-2.675Z" transform="translate(294 1968)" fill="currentcolor"/>
  </g>
</svg>
