<svg xmlns="http://www.w3.org/2000/svg"  viewBox="0 0 30 30">
  <g id="icon_message" transform="translate(-423 -1946)">
    <rect id="Rectangle_1258" data-name="Rectangle 1258" width="30" height="30" transform="translate(423 1946)" fill="none"/>
    <path id="Path_2619" data-name="Path 2619" d="M16.313-13.5H1.688A1.687,1.687,0,0,0,0-11.812V-1.687A1.687,1.687,0,0,0,1.688,0H16.313A1.687,1.687,0,0,0,18-1.687V-11.812A1.687,1.687,0,0,0,16.313-13.5Zm0,1.688v1.435c-.788.642-2.045,1.64-4.732,3.744C10.989-6.168,9.816-5.05,9-5.063c-.816.013-1.989-1.106-2.581-1.572-2.686-2.1-3.943-3.1-4.732-3.744v-1.435ZM1.688-1.687V-8.213c.806.642,1.948,1.542,3.689,2.906C6.145-4.7,7.491-3.367,9-3.375c1.5.008,2.83-1.308,3.623-1.932,1.741-1.363,2.884-2.264,3.69-2.906v6.525Z" transform="translate(429 1968)" fill="currentcolor"/>
  </g>
</svg>
