<svg  viewBox="0 0 32 32" fill="currentColor" xmlns="http://www.w3.org/2000/svg">
<path d="M8 10.3031C8 9.58344 8.58344 9 9.30313 9H22.6969C23.4156 9 24 9.58344 24 10.3031C24 10.6031 23.8969 10.8937 23.7063 11.125L18.5 17.5156V21.9906C18.5 22.5469 18.0469 23 17.4906 23C17.2625 23 17.0406 22.9219 16.8625 22.7531L13.9719 20.4875C13.675 20.25 13.5 19.8906 13.5 19.5094V17.5156L8.29291 11.125C8.10347 10.8937 8 10.6031 8 10.3031ZM9.7175 10.5L14.8313 16.775C14.9406 16.9094 15 17.0781 15 17.25V19.3875L17 20.975V17.25C17 17.0781 17.0594 16.9094 17.1687 16.775L22.2812 10.5H9.7175Z" fill="black"/>
</svg>