<svg xmlns="http://www.w3.org/2000/svg" viewBox="0 0 24 24">
  <g id="Group_14241" data-name="Group 14241" transform="translate(-1386 -462)">
    <rect id="Rectangle_7068" data-name="Rectangle 7068" width="24" height="24" transform="translate(1386 462)" fill="none"/>
    <path id="Path_15117" data-name="Path 15117" d="M13.845-9.525l-2.333-2.333a1.335,1.335,0,0,0-.943-.392H4.894A1.339,1.339,0,0,0,3.56-10.913v6.007H.334A.334.334,0,0,0,0-4.572V-3.9a.334.334,0,0,0,.334.334H8.01v1.359a.334.334,0,0,0,.571.235l2-2.011a.356.356,0,0,0,0-.5L8.58-6.5a.334.334,0,0,0-.571.235v1.359H4.894v-6.007H9.343v2.892a.666.666,0,0,0,.667.667H12.9V.655H4.894V-2.236H3.56V.655A1.335,1.335,0,0,0,4.894,1.989H12.9A1.337,1.337,0,0,0,14.239.655V-8.58A1.343,1.343,0,0,0,13.845-9.525Zm-3.167.837V-10.8l2.116,2.116Z" transform="translate(1389 479.25)"/>
  </g>
</svg>
