<?xml version="1.0" encoding="UTF-8"?>
<svg id="Layer_2" data-name="Layer 2" xmlns="http://www.w3.org/2000/svg" viewBox="0 0 32 32">
  <defs>
    <style>
      .cls-1 {
        fill: none;
      }

      .cls-2 {
        fill: currentcolor;
      }
    </style>
  </defs>
  <g id="Layer_1-2" data-name="Layer 1">
    <g>
      <rect class="cls-1" width="32" height="32"/>
      <path class="cls-2" d="M19.5,11c.83,0,1.5-.67,1.5-1.47s-.67-1.53-1.5-1.53-1.5,.67-1.5,1.5,.67,1.5,1.5,1.5Zm3.75,4.5h-1.51c-.11,0-.21-.08-.24-.18l-.43-1.42c-.29-.95-1.06-1.66-2.03-1.88l-2.44-.56c-.8-.18-1.64,0-2.29,.51l-.53,.4c-.33-2.4-1.11-4.38-2.78-4.38-1.37,0-3,1.39-3,7.97,0,3.68,.52,8.03,3,8.03,.77,0,1.62-.44,2.22-2h-1.64c-.18,.32-.38,.5-.58,.5-.83,0-1.5-2.91-1.5-6.5s.67-6.5,1.5-6.5,1.5,2.91,1.5,6.5c0,1.3-.09,2.49-.24,3.5h-.51c-.41,0-.75,.34-.75,.75s.34,.75,.75,.75h2.34c.7,0,1.33-.42,1.61-1.03l.42-1.01-.3-.18c-.36-.22-.66-.52-.88-.87l-.62,1.45c-.04,.09-.13,.15-.23,.15h-.3c.13-.97,.2-2.11,.2-3.5,0-.61-.02-1.23-.05-1.86l1.27-.99c.3-.23,.68-.31,1.04-.23l.47,.11-1.11,2.73c-.32,.8-.02,1.71,.72,2.15l2.62,1.58c.07,.05,.12,.13,.12,.21,0,.02,0,.05,0,.07l-1.04,3.26c-.06,.19-.03,.4,.07,.57,.1,.18,.26,.3,.45,.36,.07,.02,.14,.03,.21,.03,.34,0,.63-.22,.72-.54l1.04-3.27c.22-.76-.1-1.57-.78-1.98l-1.62-.98,1.31-3.27c.09,.11,.16,.24,.2,.38l.44,1.42c.22,.74,.9,1.24,1.67,1.24h1.51c.41,0,.75-.33,.75-.75s-.33-.75-.75-.75Z"/>
    </g>
  </g>
</svg>