<svg xmlns="http://www.w3.org/2000/svg" viewBox="0 0 24 24"><g transform="translate(-0.079 -0.079)"><rect fill="none" width="24" height="24" transform="translate(0.079 0.079)"/><path fill="currentColor" d="M3.983,12.9A.983.983,0,1,0,3,11.915.986.986,0,0,0,3.983,12.9Zm0,3.932A.983.983,0,1,0,3,15.848.986.986,0,0,0,3.983,16.831Zm0-7.865A.983.983,0,1,0,3,7.983.986.986,0,0,0,3.983,8.966ZM7.915,12.9h11.8a.983.983,0,0,0,0-1.966H7.915a.983.983,0,0,0,0,1.966Zm0,3.932h11.8a.983.983,0,1,0,0-1.966H7.915a.983.983,0,1,0,0,1.966ZM6.932,7.983a.986.986,0,0,0,.983.983h11.8a.983.983,0,1,0,0-1.966H7.915A.986.986,0,0,0,6.932,7.983ZM3.983,12.9A.983.983,0,1,0,3,11.915.986.986,0,0,0,3.983,12.9Zm0,3.932A.983.983,0,1,0,3,15.848.986.986,0,0,0,3.983,16.831Zm0-7.865A.983.983,0,1,0,3,7.983.986.986,0,0,0,3.983,8.966ZM7.915,12.9h11.8a.983.983,0,0,0,0-1.966H7.915a.983.983,0,0,0,0,1.966Zm0,3.932h11.8a.983.983,0,1,0,0-1.966H7.915a.983.983,0,1,0,0,1.966ZM6.932,7.983a.986.986,0,0,0,.983.983h11.8a.983.983,0,1,0,0-1.966H7.915A.986.986,0,0,0,6.932,7.983Z" transform="translate(-0.076 -0.144)"/></g></svg>