<svg width="32" height="32" viewBox="0 0 32 32" fill="currentColor" xmlns="http://www.w3.org/2000/svg">
    <path fill-rule="evenodd" clip-rule="evenodd" d="M8 10.5C7.44772 10.5 7 10.9477 7 11.5C7 12.0523 7.44772 12.5 8 12.5H18C18.5523 12.5 19 12.0523 19 11.5C19 10.9477 18.5523 10.5 18 10.5H8ZM8 13.5C7.44772 13.5 7 13.9477 7 14.5C7 15.0523 7.44772 15.5 8 15.5H24C24.5523 15.5 25 15.0523 25 14.5C25 13.9477 24.5523 13.5 24 13.5H8ZM7 17.5C7 16.9477 7.44772 16.5 8 16.5H21C21.5523 16.5 22 16.9477 22 17.5C22 18.0523 21.5523 18.5 21 18.5H8C7.44772 18.5 7 18.0523 7 17.5ZM8 19.5C7.44772 19.5 7 19.9477 7 20.5C7 21.0523 7.44772 21.5 8 21.5H16C16.5523 21.5 17 21.0523 17 20.5C17 19.9477 16.5523 19.5 16 19.5H8Z" />
</svg>
