<svg viewBox="0 0 18 18" fill="currentColor" xmlns="http://www.w3.org/2000/svg">
    <path id="Vector" d="M15 2.49998C15 2.36737 14.9474 2.2402 14.8536 2.14644C14.7598 2.05268 14.6327 2 14.5001 2C14.3675 2 14.2403 2.05268 14.1465 2.14644C14.0528 2.2402 14.0001 2.36737 14.0001 2.49998C14.0001 2.77611 13.7762 2.99995 13.5001 2.99995C13.3675 2.99995 13.2403 3.05263 13.1466 3.14639C13.0528 3.24016 13.0001 3.36733 13.0001 3.49993C13.0001 3.63253 13.0528 3.7597 13.1466 3.85347C13.2403 3.94723 13.3675 3.99991 13.5001 3.99991C13.7762 3.99991 14.0001 4.22376 14.0001 4.49989C14.0001 4.63249 14.0528 4.75966 14.1465 4.85342C14.2403 4.94719 14.3675 4.99986 14.5001 4.99986C14.6327 4.99986 14.7598 4.94719 14.8536 4.85342C14.9474 4.75966 15 4.63249 15 4.49989C15 4.22376 15.2239 3.99991 15.5 3.99991C15.6326 3.99991 15.7598 3.94723 15.8536 3.85347C15.9473 3.7597 16 3.63253 16 3.49993C16 3.36733 15.9473 3.24016 15.8536 3.14639C15.7598 3.05263 15.6326 2.99995 15.5 2.99995C15.2239 2.99995 15 2.77611 15 2.49998ZM5.0005 4.49989C5.0005 4.36728 4.94782 4.24011 4.85406 4.14635C4.7603 4.05258 4.63313 3.99991 4.50052 3.99991C4.36792 3.99991 4.24075 4.05258 4.14699 4.14635C4.05322 4.24011 4.00055 4.36728 4.00055 4.49989C4.00055 4.77602 3.7767 4.99986 3.50057 4.99986C3.36797 4.99986 3.2408 5.05254 3.14703 5.1463C3.05327 5.24007 3.00059 5.36724 3.00059 5.49984C3.00059 5.63244 3.05327 5.75961 3.14703 5.85338C3.2408 5.94714 3.36797 5.99982 3.50057 5.99982C3.7767 5.99982 4.00055 6.22367 4.00055 6.49979C4.00055 6.6324 4.05322 6.75957 4.14699 6.85333C4.24075 6.9471 4.36792 6.99977 4.50052 6.99977C4.63313 6.99977 4.7603 6.9471 4.85406 6.85333C4.94782 6.75957 5.0005 6.6324 5.0005 6.49979C5.0005 6.22367 5.22435 5.99982 5.50048 5.99982C5.63308 5.99982 5.76025 5.94714 5.85402 5.85338C5.94778 5.75961 6.00046 5.63244 6.00046 5.49984C6.00046 5.36724 5.94778 5.24007 5.85402 5.1463C5.76025 5.05254 5.63308 4.99986 5.50048 4.99986C5.22435 4.99986 5.0005 4.77602 5.0005 4.49989ZM14.0001 12.4995C14.0001 12.6321 13.9474 12.7593 13.8537 12.8531C13.7599 12.9468 13.6327 12.9995 13.5001 12.9995C13.224 12.9995 13.0001 13.2233 13.0001 13.4995C13.0001 13.6321 12.9475 13.7592 12.8537 13.853C12.7599 13.9468 12.6328 13.9995 12.5002 13.9995C12.3676 13.9995 12.2404 13.9468 12.1466 13.853C12.0529 13.7592 12.0002 13.6321 12.0002 13.4995C12.0002 13.2233 11.7763 12.9995 11.5002 12.9995C11.3676 12.9995 11.2404 12.9468 11.1467 12.8531C11.0529 12.7593 11.0002 12.6321 11.0002 12.4995C11.0002 12.3669 11.0529 12.2397 11.1467 12.146C11.2404 12.0522 11.3676 11.9995 11.5002 11.9995C11.7763 11.9995 12.0002 11.7757 12.0002 11.4996C12.0002 11.367 12.0529 11.2398 12.1466 11.146C12.2404 11.0523 12.3676 10.9996 12.5002 10.9996C12.6328 10.9996 12.7599 11.0523 12.8537 11.146C12.9475 11.2398 13.0001 11.367 13.0001 11.4996C13.0001 11.7757 13.224 11.9995 13.5001 11.9995C13.6327 11.9995 13.7599 12.0522 13.8537 12.146C13.9474 12.2397 14.0001 12.3669 14.0001 12.4995ZM9.73029 5.56234C9.73029 5.56252 9.73051 5.56261 9.73064 5.56248C10.0897 5.20375 10.5765 5.00228 11.0841 5.00237C11.5918 5.00247 12.0787 5.20425 12.4377 5.56334C12.7966 5.92242 12.9982 6.4094 12.9981 6.91713C12.998 7.42486 12.7962 7.91176 12.4372 8.27071C12.1721 8.53577 11.7423 8.53569 11.4774 8.27054L9.3908 6.18241C9.3132 6.10475 9.31322 5.9789 9.39085 5.90127L9.72993 5.56219C9.73006 5.56206 9.73029 5.56215 9.73029 5.56234ZM7.1899 8.10322C7.93739 7.35574 9.14929 7.35574 9.89678 8.10322C10.6443 8.85071 10.6443 10.0626 9.89678 10.8101L5.26749 15.4394C4.90854 15.7983 4.42169 16 3.91405 16C3.40641 16 2.91957 15.7983 2.56061 15.4394C2.20166 15.0804 2 14.5936 2 14.0859C2 13.5783 2.20166 13.0915 2.56061 12.7325L7.1899 8.10322Z" fill="currentColor"/>
</svg>
