<?xml version="1.0" encoding="UTF-8"?>
<svg id="Layer_2" data-name="Layer 2" xmlns="http://www.w3.org/2000/svg" viewBox="0 0 32 32">
  <defs>
    <style>
      .cls-1 {
        fill: none;
      }

      .cls-2 {
        fill: currentcolor;
      }
    </style>
  </defs>
  <g id="Layer_1-2" data-name="Layer 1">
    <g>
      <rect class="cls-1" width="32" height="32"/>
      <path class="cls-2" d="M23,19V9.5c0-.83-.67-1.5-1.5-1.5H11.5c-1.38,0-2.5,1.12-2.5,2.5v11c0,1.38,1.12,2.5,2.5,2.5h10.75c.41,0,.75-.34,.75-.75s-.34-.75-.75-.75h-.25v-2.09c.58-.21,1-.76,1-1.41Zm-2.5,3.5H11.5c-.55,0-1-.45-1-1s.45-1,1-1h9v2Zm1-3.5H11.5c-.36,0-.69,.07-1,.21V10.5c0-.55,.45-1,1-1h10v9.5Zm-7.75-6h5.5c.42,0,.75-.33,.75-.75s-.33-.75-.75-.75h-5.5c-.41,0-.75,.34-.75,.75s.34,.75,.75,.75Zm0,2.5h5.5c.42,0,.75-.33,.75-.75s-.33-.75-.75-.75h-5.5c-.41,0-.75,.34-.75,.75s.34,.75,.75,.75Z"/>
    </g>
  </g>
</svg>