<svg viewBox="0 0 32 32" fill="none" xmlns="http://www.w3.org/2000/svg">
  <path d="M12 22.5H20C20.275 22.5 20.5 22.275 20.5 22V12.3281C20.5 12.1969 20.4469 12.0687 20.3531 11.975L18.025 9.64688C17.9312 9.55313 17.8031 9.5 17.6719 9.5H12C11.725 9.5 11.5 9.725 11.5 10V22C11.5 22.275 11.725 22.5 12 22.5ZM20 24H12C10.8969 24 10 23.1031 10 22V10C10 8.89688 10.8969 8 12 8H17.6719C18.2031 8 18.7125 8.20938 19.0875 8.58438L21.4156 10.9125C21.7906 11.2875 22 11.7969 22 12.3281V22C22 23.1031 21.1031 24 20 24Z" fill="currentColor" />
</svg>