<svg xmlns="http://www.w3.org/2000/svg" viewBox="0 0 80 80"><path fill="currentColor" d="M37.25,3.25a35.994,35.994,0,0,0,36-36,35.994,35.994,0,0,0-36-36,35.994,35.994,0,0,0-36,36A35.994,35.994,0,0,0,37.25,3.25ZM5.9-32.75A31.353,31.353,0,0,1,37.25-64.1,31.353,31.353,0,0,1,68.6-32.75,31.353,31.353,0,0,1,37.25-1.395,31.353,31.353,0,0,1,5.9-32.75Zm48.15-2.613L28.5-50.895a3.49,3.49,0,0,0-5.182,3.048v30.194A3.492,3.492,0,0,0,28.5-14.6L54.045-29.266A3.5,3.5,0,0,0,54.045-35.363ZM27.96-21.166V-44.232a.863.863,0,0,1,1.321-.74L48.8-33.113a.87.87,0,0,1-.014,1.5L29.266-20.411A.873.873,0,0,1,27.96-21.166Z" transform="translate(2.75 72.75)"/><rect fill="none" width="80" height="80"/></svg>