<svg xmlns="http://www.w3.org/2000/svg" viewBox="0 0 25 25"><rect fill=" #fff" /><path fill="currentcolor" d="M13-8c0-2.763-2.909-5-6.5-5S0-10.762,0-8A4.239,4.239,0,0,0,1.187-5.125a7.034,7.034,0,0,1-1.119,1.7.248.248,0,0,0-.047.272A.245.245,0,0,0,.25-3a5.5,5.5,0,0,0,2.772-.781A7.951,7.951,0,0,0,6.5-3C10.091-3,13-5.237,13-8Zm3.812,6.875A4.234,4.234,0,0,0,18-4c0-2.091-1.672-3.881-4.041-4.628A4.647,4.647,0,0,1,14-8c0,3.309-3.366,6-7.5,6a9.365,9.365,0,0,1-.991-.059A6.755,6.755,0,0,0,11.5,1,7.908,7.908,0,0,0,14.978.219,5.5,5.5,0,0,0,17.75,1a.246.246,0,0,0,.228-.15.25.25,0,0,0-.047-.272A6.96,6.96,0,0,1,16.812-1.125Z" transform="translate(4 19)"/></svg>