<svg xmlns="http://www.w3.org/2000/svg" viewBox="0 0 46.834 34.467"><path fill="currentColor" d="M44.493,22.619H39.809V5.924A6.2,6.2,0,0,0,33.369,0H5.854A5.641,5.641,0,0,0,0,5.386V9.694a2.256,2.256,0,0,0,2.342,2.154H8.2V27.159a7.453,7.453,0,0,0,7.22,7.291v.018H38.247c4.736,0,8.587-3.544,8.587-7.9v-1.8A2.256,2.256,0,0,0,44.493,22.619Zm-40.98-14V5.386A2.256,2.256,0,0,1,5.854,3.231,2.256,2.256,0,0,1,8.2,5.386V8.617Zm8.2,18.542V5.386a4.974,4.974,0,0,0-.49-2.154h22.15A2.82,2.82,0,0,1,36.3,5.924v16.7H22.246A2.256,2.256,0,0,0,19.9,24.773v2.693C19.9,32.312,11.709,32.722,11.709,27.159Zm31.613-.59a4.888,4.888,0,0,1-5.074,4.667H22.181a6.594,6.594,0,0,0,1.236-3.77V25.851h19.9Z"/></svg>