<svg xmlns="http://www.w3.org/2000/svg" viewBox="0 0 24 24"><rect fill="none" width="24" height="24"/><path fill="currentColor" d="M9.885-12.254a4.568,4.568,0,0,0-1.072.172,2.248,2.248,0,0,1,.249.927A1.923,1.923,0,0,1,7.139-9.234a2.248,2.248,0,0,1-.927-.249,4.6,4.6,0,0,0-.15,1.062A3.836,3.836,0,0,0,9.9-4.586,3.836,3.836,0,0,0,13.731-8.42,3.836,3.836,0,0,0,9.9-12.254Zm9.766,3.343A11.009,11.009,0,0,0,9.885-15,11.01,11.01,0,0,0,.119-8.911,1.317,1.317,0,0,0,0-8.41a1.317,1.317,0,0,0,.119.5A11.009,11.009,0,0,0,9.885-1.82a11.01,11.01,0,0,0,9.766-6.089,1.317,1.317,0,0,0,.119-.5A1.317,1.317,0,0,0,19.651-8.911ZM9.885-3.467A9.337,9.337,0,0,1,1.719-8.41a9.337,9.337,0,0,1,8.167-4.943A9.337,9.337,0,0,1,18.052-8.41,9.336,9.336,0,0,1,9.885-3.467Z" transform="translate(2.112 20.213)"/></svg>