<?xml version="1.0" encoding="UTF-8"?>
<svg id="Layer_2" data-name="Layer 2" xmlns="http://www.w3.org/2000/svg" viewBox="0 0 32 32">
  <defs>
    <style>
      .cls-1 {
        fill: none;
      }

      .cls-2 {
        fill: currentColor;
      }
    </style>
  </defs>
  <g id="Layer_1-2" data-name="Layer 1">
    <g>
      <rect class="cls-1" width="32" height="32"/>
      <path class="cls-2" d="M24.22,17.75c-.97-.82-2.16-.5-2.76-.05l-1.89,1.42h-.11c.02-1.19-.93-2.12-2.13-2.12h-4.5c-.89,0-1.76,.29-2.46,.82l-.89,.68h-1.74c-.41,0-.75,.34-.75,.75s.34,.75,.75,.75h2.25s1.29-.98,1.29-.98c.44-.34,.98-.52,1.55-.52h4.5c.87,0,.91,1.26-.04,1.26h-1.87c-.23,0-.43,.19-.43,.43s.2,.43,.43,.43h4.21c.3,0,.6-.1,.84-.28l1.91-1.44c.26-.19,.64-.21,.89,0,.32,.27,.29,.72-.03,.96l-3.14,2.36c-.24,.18-.54,.28-.84,.28H7.75c-.41,0-.75,.34-.75,.75s.34,.75,.75,.75h11.52c.62,0,1.23-.2,1.73-.58l3.15-2.37c.52-.39,.83-.98,.85-1.62,.02-.64-.26-1.25-.78-1.68Zm-10.22-3.25c1.66,0,3-1.34,3-3,0,0-1,1-3,1-.55,0-1-.55-1-1v-.5c0-.55,.45-1,1-1h4c.55,0,1,.45,1,1v.5c0,1.07-.55,2.08-1.32,2.84l-1.68,1.66,.55-.03c2.41-.14,4.43-2.04,4.45-4.42l-.03-.55c0-1.66-1.32-3-2.97-3h-4.03c-1.66,0-2.97,1.34-2.97,3v.5c0,1.6,1.4,3,3,3Z"/>
    </g>
  </g>
</svg>