<?xml version="1.0" encoding="UTF-8"?>
<svg id="Layer_2" data-name="Layer 2" xmlns="http://www.w3.org/2000/svg" viewBox="0 0 32 32">
  <defs>
    <style>
      .cls-1 {
        fill: none;
      }

      .cls-2 {
        fill: currentColor;
      }
    </style>
  </defs>
  <g id="Layer_1-2" data-name="Layer 1">
    <g>
      <rect class="cls-1" width="32" height="32"/>
      <path class="cls-2" d="m23.25,18.75c.42,0,.75.33.75.75s-.33.75-.75.75h-10.37c-.32,1.02-1.27,1.75-2.38,1.75-1.38,0-2.5-1.12-2.5-2.5s1.12-2.5,2.5-2.5c1.12,0,2.07.73,2.38,1.75h10.37Zm-13.75.75c0,.55.45,1,1,1s1-.45,1-1-.45-1-1-1-1,.45-1,1Zm9.62-7.75c.32-1.01,1.27-1.75,2.38-1.75,1.38,0,2.5,1.12,2.5,2.5s-1.12,2.5-2.5,2.5c-1.12,0-2.07-.73-2.38-1.75h-10.37c-.41,0-.75-.33-.75-.75s.34-.75.75-.75h10.37Zm2.38,1.75c.55,0,1-.45,1-1s-.45-1-1-1-1,.45-1,1,.45,1,1,1Z"/>
      <rect class="cls-1" width="32" height="32"/>
    </g>
  </g>
</svg>