<svg viewBox="0 0 32 32" fill="currentColor" xmlns="http://www.w3.org/2000/svg">
    <path d="M11.7897 10.5844C11.6212 10.2367 11.2421 10.0128 10.8262 10.0128C10.4102 10.0128 10.0311 10.2367 9.86261 10.5844L6.91402 16.6807C6.68235 17.1618 6.92455 17.7238 7.45635 17.9334C7.98815 18.1429 8.60946 17.9238 8.84114 17.4428L9.1202 16.8712H12.5321L12.8112 17.4428C13.0429 17.9238 13.6642 18.1429 14.196 17.9334C14.7278 17.7238 14.97 17.1618 14.7383 16.6807L11.7897 10.5844ZM10.8262 13.342L11.6107 14.9661H10.0416L10.8262 13.342Z" />
    <path d="M20.8619 13.1243C20.8619 12.5299 20.3768 12.0436 19.7841 12.0436V12.0382C19.1913 12.0382 18.7062 12.5245 18.7062 13.1189V13.335H15.904C15.3112 13.335 14.8261 13.8213 14.8261 14.4157C14.8261 15.01 15.3112 15.4963 15.904 15.4963H21.681C21.2876 16.3987 20.7433 17.22 20.0751 17.9278L19.2613 17.1119C18.841 16.6905 18.1566 16.6905 17.7362 17.1119C17.3159 17.5334 17.3159 18.2196 17.7362 18.6411L18.3937 19.3003C18.0757 19.5002 17.7416 19.6731 17.3967 19.8298L17.2027 19.9162C16.6584 20.1594 16.4105 20.797 16.653 21.3427C16.8955 21.8884 17.5314 22.137 18.0757 21.8938L18.2697 21.8074C18.9218 21.5156 19.5308 21.1644 20.102 20.7592C20.3337 20.9213 20.5655 21.0725 20.808 21.2184L21.8265 21.829C22.3331 22.1316 23.0013 21.9641 23.3031 21.4562C23.6049 20.9483 23.4432 20.2837 22.9312 19.9757L21.9127 19.3651C21.8642 19.3381 21.8157 19.3111 21.7672 19.2786C22.6941 18.2628 23.4216 17.0633 23.9013 15.7449L23.9875 15.5017H24.0953C24.6881 15.5017 25.1731 15.0154 25.1731 14.4211C25.1731 13.8267 24.6881 13.3404 24.0953 13.3404H20.8619V13.1243Z" />
</svg>
