<svg viewBox="0 0 32 32" fill="currentColor" xmlns="http://www.w3.org/2000/svg">
    <path d="M11.7901 10.5844C11.6216 10.2367 11.2425 10.0128 10.8265 10.0128C10.4106 10.0128 10.0315 10.2367 9.86298 10.5844L6.91439 16.6807C6.68271 17.1618 6.92492 17.7238 7.45672 17.9334C7.98852 18.1429 8.60983 17.9238 8.84151 17.4428L9.12057 16.8712H12.5325L12.8116 17.4428C13.0432 17.9238 13.6646 18.1429 14.1964 17.9334C14.7282 17.7238 14.9704 17.1618 14.7387 16.6807L11.7901 10.5844ZM10.8265 13.342L11.6111 14.9661H10.042L10.8265 13.342Z" fill="currentColor"/>
    <path d="M20.8622 13.1243C20.8622 12.5299 20.3772 12.0436 19.7844 12.0436V12.0382C19.1916 12.0382 18.7066 12.5245 18.7066 13.1189V13.335H15.9043C15.3115 13.335 14.8265 13.8213 14.8265 14.4157C14.8265 15.01 15.3115 15.4963 15.9043 15.4963H21.6814C21.288 16.3987 20.7437 17.22 20.0754 17.9278L19.2617 17.1119C18.8413 16.6905 18.1569 16.6905 17.7366 17.1119C17.3162 17.5334 17.3162 18.2196 17.7366 18.6411L18.394 19.3003C18.0761 19.5002 17.742 19.6731 17.3971 19.8298L17.2031 19.9162C16.6588 20.1594 16.4109 20.797 16.6534 21.3427C16.8959 21.8884 17.5318 22.137 18.0761 21.8938L18.2701 21.8074C18.9222 21.5156 19.5311 21.1644 20.1024 20.7592C20.3341 20.9213 20.5658 21.0725 20.8083 21.2184L21.8269 21.829C22.3334 22.1316 23.0017 21.9641 23.3035 21.4562C23.6052 20.9483 23.4436 20.2837 22.9316 19.9757L21.9131 19.3651C21.8646 19.3381 21.8161 19.3111 21.7676 19.2786C22.6945 18.2628 23.422 17.0633 23.9016 15.7449L23.9879 15.5017H24.0956C24.6884 15.5017 25.1735 15.0154 25.1735 14.4211C25.1735 13.8267 24.6884 13.3404 24.0956 13.3404H20.8622V13.1243Z" fill="currentColor"/>
</svg>
