<svg id="Icon-Web_Content" data-name="Icon-Web Content" xmlns="http://www.w3.org/2000/svg" viewBox="0 0 32 32">
  <rect id="Rectangle_8150" data-name="Rectangle 8150" width="32" height="32" fill="none"/>
  <path id="cloud-regular" d="M12.8,43.2v0H3.6a3.6,3.6,0,0,1-1.2-7v0a4.2,4.2,0,0,1,7.383-2.742A3,3,0,0,1,14,36.2a3.066,3.066,0,0,1-.037.483A3.4,3.4,0,0,1,12.8,43.2ZM9.455,34.917l-.583-.675A3,3,0,0,0,3.6,36.178v.875l-.823.283A2.406,2.406,0,0,0,3.6,42h9.065L12.73,42a2.2,2.2,0,0,0,.75-4.213l-.852-.373.15-.917A1.873,1.873,0,0,0,12.8,36.2,1.8,1.8,0,0,0,11,34.4a1.76,1.76,0,0,0-.73.155ZM3.6,36.178Z" transform="translate(8 -22)"/>
</svg>
