<svg id="Icon-ILT" xmlns="http://www.w3.org/2000/svg" viewBox="0 0 32 32">
  <rect id="Rectangle_8163" data-name="Rectangle 8163" width="32" height="32" fill="none"/>
  <path id="users-line-regular" d="M2.08,33.6a1.6,1.6,0,1,1,1.6,1.6A1.6,1.6,0,0,1,2.08,33.6ZM4.8,36a1.562,1.562,0,0,1,1.42.86A3.2,3.2,0,0,0,4.068,38.4H1.6a.8.8,0,0,1-.8-.8A1.6,1.6,0,0,1,2.4,36Zm9.6,2.4H12.012a3.2,3.2,0,0,0-2.225-1.553A1.6,1.6,0,0,1,11.2,36h2.4a1.6,1.6,0,0,1,1.6,1.6A.8.8,0,0,1,14.4,38.4ZM11.64,40a.8.8,0,0,1-.8.8H5.24a.8.8,0,0,1-.8-.8,2.348,2.348,0,0,1,.61-1.6,2.424,2.424,0,0,1,1.327-.76l.15-.02a2.59,2.59,0,0,1,.313-.02h2.4a2.59,2.59,0,0,1,.313.02c.017,0,.032-.017.047.008a2.4,2.4,0,0,1,1.43.772,2.348,2.348,0,0,1,.61,1.6Zm-1.267-.4a1.2,1.2,0,0,0-1.132-.8H6.84a1.2,1.2,0,0,0-1.133.8Zm.507-6a1.6,1.6,0,1,1,1.6,1.6,1.6,1.6,0,0,1-1.6-1.6ZM6.04,34.8a2,2,0,1,1,2,2,1.951,1.951,0,0,1-1.2-.4,2,2,0,0,1-.8-1.6Zm2,.8a.8.8,0,1,0-.8-.8A.8.8,0,0,0,8.04,35.6ZM0,42.6A.6.6,0,0,1,.6,42H15.4a.6.6,0,0,1,0,1.2H.6A.6.6,0,0,1,0,42.6Z" transform="translate(8 -22)"/>
</svg>
