<svg id="ic_search_results_pdf" data-name="ic_search results_pdf" xmlns="http://www.w3.org/2000/svg"  viewBox="0 0 16 16">
  <path id="Path_2113" data-name="Path 2113" d="M4-11.353,1.734-13.622A1.3,1.3,0,0,0,.817-14H-4.7A1.3,1.3,0,0,0-6-12.7v11.25a1.3,1.3,0,0,0,1.3,1.3H3.086a1.3,1.3,0,0,0,1.3-1.3v-8.981A1.3,1.3,0,0,0,4-11.353Zm-.611.614a.425.425,0,0,1,.114.2H.923v-2.583a.425.425,0,0,1,.2.114ZM3.086-1.02H-4.7a.434.434,0,0,1-.433-.433V-12.7a.434.434,0,0,1,.433-.433H.058v2.812a.647.647,0,0,0,.649.649H3.519v8.221A.434.434,0,0,1,3.086-1.02ZM2.491-5.65C2.126-6.009,1-5.9.5-5.831A2.831,2.831,0,0,1-.721-7.361,3.952,3.952,0,0,0-.548-9.117.633.633,0,0,0-1.754-9.3a4.549,4.549,0,0,0,.227,2.1A26.034,26.034,0,0,1-2.666-4.8c-.562.289-1.463.792-1.59,1.417-.095.454.619,1.065,1.436.173a7.235,7.235,0,0,0,.846-1.23A15.721,15.721,0,0,1,.244-5.09a4.126,4.126,0,0,0,1.747.538A.656.656,0,0,0,2.491-5.65Zm-6.2,2.407a3.778,3.778,0,0,1,.96-1.1C-3.344-3.392-3.707-3.224-3.707-3.243Zm2.574-6.012c.235,0,.211,1.014.057,1.287A2.628,2.628,0,0,1-1.132-9.254ZM-1.9-4.947a12.684,12.684,0,0,0,.779-1.723A3.523,3.523,0,0,0-.172-5.547,9.887,9.887,0,0,0-1.9-4.947Zm4.148-.16s-.157.189-1.176-.246C2.18-5.433,2.362-5.179,2.248-5.106Z" transform="translate(8.808 15.076)" fill="currentcolor"/>
  <rect id="Rectangle_1182" data-name="Rectangle 1182" width="16" height="16" fill="none"/>
</svg>
