<svg xmlns="http://www.w3.org/2000/svg" viewBox="0 0 16 16"><defs><style>.a{fill:none;}.b{fill:"currentcolor";}</style></defs><rect class="a" width="16" height="16"/><path class="b" d="M3.316-4.046-1.047-7,3.316-9.958a.361.361,0,0,0,.1-.448L3.325-10.6a.258.258,0,0,0-.382-.12L-1.42-7.76v-5.912A.307.307,0,0,0-1.7-14h-.186a.307.307,0,0,0-.28.328V-7.76l-4.363-2.956a.258.258,0,0,0-.382.12L-7-10.406a.361.361,0,0,0,.1.448L-2.538-7-6.9-4.046A.361.361,0,0,0-7-3.6l.093.189a.258.258,0,0,0,.382.12l4.363-2.956V-.332A.307.307,0,0,0-1.886,0H-1.7a.307.307,0,0,0,.28-.328V-6.244L2.944-3.288a.258.258,0,0,0,.382-.12L3.419-3.6A.361.361,0,0,0,3.316-4.046Z" transform="translate(9.792 15.002)"/></svg>