<svg width="14" height="16" viewBox="0 0 14 16" xmlns="http://www.w3.org/2000/svg">
<path d="M8.5 9.5H5.5C4.04131 9.5 2.64236 10.0795 1.61091 11.1109C0.579463 12.1424 0 13.5413 0 15C0 15.2652 0.105357 15.5196 0.292893 15.7071C0.48043 15.8946 0.734784 16 1 16H13C13.2652 16 13.5196 15.8946 13.7071 15.7071C13.8946 15.5196 14 15.2652 14 15C14 13.5413 13.4205 12.1424 12.3891 11.1109C11.3576 10.0795 9.95869 9.5 8.5 9.5ZM1.531 14.5C1.65279 13.5333 2.12323 12.6443 2.85402 11.9999C3.5848 11.3555 4.52566 10.9999 5.5 11H8.5C9.47397 11.0012 10.4142 11.3572 11.1447 12.0014C11.8752 12.6456 12.346 13.5338 12.469 14.5H1.531ZM7 8C7.79113 8 8.56448 7.76541 9.22228 7.32588C9.88008 6.88635 10.3928 6.26164 10.6955 5.53074C10.9983 4.79983 11.0775 3.99556 10.9231 3.21964C10.7688 2.44372 10.3878 1.73098 9.82843 1.17157C9.26902 0.612165 8.55628 0.231202 7.78036 0.0768607C7.00444 -0.0774802 6.20017 0.00173312 5.46927 0.304484C4.73836 0.607234 4.11365 1.11992 3.67412 1.77772C3.2346 2.43552 3 3.20888 3 4C3 5.06087 3.42143 6.07828 4.17157 6.82843C4.92172 7.57857 5.93913 8 7 8ZM7 1.5C7.49445 1.5 7.9778 1.64662 8.38893 1.92133C8.80005 2.19603 9.12048 2.58648 9.3097 3.04329C9.49892 3.50011 9.54843 4.00278 9.45196 4.48773C9.3555 4.97268 9.1174 5.41814 8.76777 5.76777C8.41814 6.1174 7.97268 6.3555 7.48773 6.45197C7.00277 6.54843 6.50011 6.49892 6.04329 6.3097C5.58648 6.12048 5.19603 5.80005 4.92133 5.38893C4.64662 4.9778 4.5 4.49446 4.5 4C4.5 3.33696 4.76339 2.70108 5.23223 2.23223C5.70107 1.76339 6.33696 1.5 7 1.5Z" />
</svg>
