<svg viewBox="0 0 32 32" fill="none" xmlns="http://www.w3.org/2000/svg">
    <path d="M14.8342 9.33457L13.6559 9.77526C13.5622 9.80964 13.4997 9.90028 13.4997 10.0003C13.4997 10.1003 13.5622 10.1909 13.6559 10.2253L14.8342 10.666L15.2749 11.8443C15.3093 11.9381 15.3999 12.0006 15.5 12.0006C15.6 12.0006 15.6906 11.9381 15.725 11.8443L16.1657 10.666L17.344 10.2253C17.4377 10.1909 17.5002 10.1003 17.5002 10.0003C17.5002 9.90028 17.4377 9.80964 17.344 9.77526L16.1657 9.33457L15.725 8.15627C15.6906 8.06251 15.6 8 15.5 8C15.3999 8 15.3093 8.06251 15.2749 8.15627L14.8342 9.33457ZM21.9196 9.50022L23.001 10.5816L19.5693 14.0103L18.4879 12.9288L21.9196 9.50022ZM9.99915 21.4207L17.4284 13.9915L18.5098 15.0729L11.0806 22.5021L9.99915 21.4207ZM20.857 8.44069L8.93962 20.3581C8.35515 20.9425 8.35515 21.8927 8.93962 22.4802L10.021 23.5617C10.6055 24.1461 11.5556 24.1461 12.1432 23.5617L24.0606 11.6412C24.645 11.0567 24.645 10.1066 24.0606 9.51897L22.9792 8.44069C22.3947 7.85623 21.4446 7.85623 20.857 8.44069ZM7.73319 11.663C7.59254 11.7162 7.49878 11.8506 7.49878 12.0006C7.49878 12.1506 7.59254 12.285 7.73319 12.3381L9.49907 13.0007L10.1617 14.7666C10.2148 14.9073 10.3492 15.001 10.4992 15.001C10.6492 15.001 10.7836 14.9073 10.8368 14.7666L11.4994 13.0007L13.2652 12.3381C13.4059 12.285 13.4997 12.1506 13.4997 12.0006C13.4997 11.8506 13.4059 11.7162 13.2652 11.663L11.4994 11.0004L10.8368 9.23456C10.7836 9.09391 10.6492 9.00015 10.4992 9.00015C10.3492 9.00015 10.2148 9.09391 10.1617 9.23456L9.49907 11.0004L7.73319 11.663ZM18.7348 19.6642C18.5942 19.7173 18.5004 19.8517 18.5004 20.0018C18.5004 20.1518 18.5942 20.2862 18.7348 20.3393L20.5007 21.0019L21.1633 22.7678C21.2164 22.9084 21.3508 23.0022 21.5008 23.0022C21.6509 23.0022 21.7852 22.9084 21.8384 22.7678L22.501 21.0019L24.2669 20.3393C24.4075 20.2862 24.5013 20.1518 24.5013 20.0018C24.5013 19.8517 24.4075 19.7173 24.2669 19.6642L22.501 19.0016L21.8384 17.2357C21.7852 17.0951 21.6509 17.0013 21.5008 17.0013C21.3508 17.0013 21.2164 17.0951 21.1633 17.2357L20.5007 19.0016L18.7348 19.6642Z" fill="currentColor"/>
</svg>
