<svg viewBox="0 0 32 32" fill="currentColor" xmlns="http://www.w3.org/2000/svg">
    <path d="M10.5659 19.0728L9.52881 22.5972C9.45557 22.8462 9.52295 23.1128 9.70459 23.2944C9.88623 23.4761 10.1528 23.5435 10.3989 23.4731L13.9263 22.4331C14.2896 22.3276 14.6206 22.1431 14.9048 21.894C14.9458 21.8589 14.9839 21.8208 15.022 21.7827L23.9341 12.8735C24.5757 12.2319 24.6548 11.2446 24.1743 10.5151C24.1069 10.4126 24.0249 10.313 23.9341 10.2222L22.7798 9.06494C22.0474 8.33252 20.8608 8.33252 20.1284 9.06494L11.2163 17.9771C10.9116 18.2817 10.689 18.6597 10.5659 19.0728ZM11.9136 19.4683C11.9634 19.3042 12.0454 19.1519 12.1597 19.023C12.1772 19.0054 12.1919 18.9878 12.2095 18.9702L18.9038 12.2788L20.7202 14.0952L14.0288 20.7896C13.8911 20.9272 13.7183 21.0298 13.5308 21.0855L11.2397 21.7593L11.9136 19.4683Z" fill="currentColor"/>
    <path d="M14.8341 9.83408L13.6558 10.2748C13.562 10.3092 13.4995 10.3998 13.4995 10.4998C13.4995 10.5998 13.562 10.6905 13.6558 10.7248L14.8341 11.1655L15.2748 12.3438C15.3092 12.4376 15.3998 12.5001 15.4998 12.5001C15.5998 12.5001 15.6905 12.4376 15.7248 12.3438L16.1655 11.1655L17.3438 10.7248C17.4376 10.6905 17.5001 10.5998 17.5001 10.4998C17.5001 10.3998 17.4376 10.3092 17.3438 10.2748L16.1655 9.83408L15.7248 8.65578C15.6905 8.56202 15.5998 8.49951 15.4998 8.49951C15.3998 8.49951 15.3092 8.56202 15.2748 8.65578L14.8341 9.83408Z" fill="currentColor"/>
    <path d="M18.4995 20.5C18.4995 20.3499 18.5933 20.2155 18.7339 20.1624L20.4998 19.4998L21.1624 17.7339C21.2155 17.5933 21.3499 17.4995 21.5 17.4995C21.65 17.4995 21.7844 17.5933 21.8375 17.7339L22.5001 19.4998L24.266 20.1624C24.4066 20.2155 24.5004 20.3499 24.5004 20.5C24.5004 20.65 24.4066 20.7844 24.266 20.8375L22.5001 21.5001L21.8375 23.266C21.7844 23.4066 21.65 23.5004 21.5 23.5004C21.3499 23.5004 21.2155 23.4066 21.1624 23.266L20.4998 21.5001L18.7339 20.8375C18.5933 20.7844 18.4995 20.65 18.4995 20.5Z" fill="currentColor"/>
    <path d="M7.49951 12.5C7.49951 12.3499 7.59328 12.2155 7.73392 12.1624L9.4998 11.4998L10.1624 9.73392C10.2155 9.59328 10.3499 9.49951 10.5 9.49951C10.65 9.49951 10.7844 9.59328 10.8375 9.73392L11.5001 11.4998L13.266 12.1624C13.4066 12.2155 13.5004 12.3499 13.5004 12.5C13.5004 12.65 13.4066 12.7844 13.266 12.8375L11.5001 13.5001L10.8375 15.266C10.7844 15.4066 10.65 15.5004 10.5 15.5004C10.3499 15.5004 10.2155 15.4066 10.1624 15.266L9.4998 13.5001L7.73392 12.8375C7.59328 12.7844 7.49951 12.65 7.49951 12.5Z" fill="currentColor"/>
</svg>
