<svg viewBox="0 0 32 32" fill="currentColor" xmlns="http://www.w3.org/2000/svg">
    <path d="M14.8345 9.33457L13.6562 9.77526C13.5624 9.80964 13.4999 9.90028 13.4999 10.0003C13.4999 10.1003 13.5624 10.1909 13.6562 10.2253L14.8345 10.666L15.2752 11.8443C15.3095 11.9381 15.4002 12.0006 15.5002 12.0006C15.6002 12.0006 15.6908 11.9381 15.7252 11.8443L16.1659 10.666L17.3442 10.2253C17.438 10.1909 17.5005 10.1003 17.5005 10.0003C17.5005 9.90028 17.438 9.80964 17.3442 9.77526L16.1659 9.33457L15.7252 8.15627C15.6908 8.06251 15.6002 8 15.5002 8C15.4002 8 15.3095 8.06251 15.2752 8.15627L14.8345 9.33457ZM21.9199 9.50022L23.0013 10.5816L19.5695 14.0103L18.4881 12.9288L21.9199 9.50022ZM9.99939 21.4207L17.4286 13.9915L18.51 15.0729L11.0808 22.5021L9.99939 21.4207ZM20.8572 8.44069L8.93986 20.3581C8.3554 20.9425 8.3554 21.8927 8.93986 22.4802L10.0213 23.5617C10.6057 24.1461 11.5559 24.1461 12.1435 23.5617L24.0608 11.6412C24.6453 11.0567 24.6453 10.1066 24.0608 9.51897L22.9794 8.44069C22.395 7.85623 21.4448 7.85623 20.8572 8.44069ZM7.73343 11.663C7.59279 11.7162 7.49902 11.8506 7.49902 12.0006C7.49902 12.1506 7.59279 12.285 7.73343 12.3381L9.49932 13.0007L10.1619 14.7666C10.215 14.9073 10.3494 15.001 10.4995 15.001C10.6495 15.001 10.7839 14.9073 10.837 14.7666L11.4996 13.0007L13.2655 12.3381C13.4061 12.285 13.4999 12.1506 13.4999 12.0006C13.4999 11.8506 13.4061 11.7162 13.2655 11.663L11.4996 11.0004L10.837 9.23456C10.7839 9.09391 10.6495 9.00015 10.4995 9.00015C10.3494 9.00015 10.215 9.09391 10.1619 9.23456L9.49932 11.0004L7.73343 11.663ZM18.735 19.6642C18.5944 19.7173 18.5006 19.8517 18.5006 20.0018C18.5006 20.1518 18.5944 20.2862 18.735 20.3393L20.5009 21.0019L21.1635 22.7678C21.2167 22.9084 21.3511 23.0022 21.5011 23.0022C21.6511 23.0022 21.7855 22.9084 21.8386 22.7678L22.5012 21.0019L24.2671 20.3393C24.4078 20.2862 24.5015 20.1518 24.5015 20.0018C24.5015 19.8517 24.4078 19.7173 24.2671 19.6642L22.5012 19.0016L21.8386 17.2357C21.7855 17.0951 21.6511 17.0013 21.5011 17.0013C21.3511 17.0013 21.2167 17.0951 21.1635 17.2357L20.5009 19.0016L18.735 19.6642Z" />
</svg>
