<svg viewBox="0 0 32 32" fill="currentColor" xmlns="http://www.w3.org/2000/svg">
<path d="M7.28687 20.7587L11.5259 11.2412H12.7274L17.0339 20.7587H15.5894L14.4149 18.0588L15.0089 18.4368H9.24437L9.87887 18.0588L8.70437 20.7587H7.28687ZM12.1064 12.7802L10.0544 17.6267L9.73037 17.3162H14.5229L14.2529 17.6267L12.1604 12.7802H12.1064Z" fill="currentColor"/>
<path d="M21.9018 10H20.7768V11.6805C20.7042 11.6828 20.6315 11.6875 20.5589 11.6945C20.0151 11.7391 19.4526 11.868 18.9839 12.1656C18.4964 12.475 18.1401 12.9531 18.0112 13.6141C17.9198 14.0898 17.9643 14.5234 18.1542 14.9078C18.3417 15.2828 18.644 15.5547 18.9698 15.7563C19.5839 16.1359 20.4206 16.3492 21.1471 16.5344L21.2011 16.5484C21.9956 16.75 22.6682 16.9258 23.1159 17.2047C23.3268 17.3359 23.4511 17.4672 23.5167 17.6008C23.58 17.725 23.6151 17.9008 23.5636 18.175C23.4956 18.5195 23.2495 18.8055 22.755 18.993C22.2487 19.1852 21.5362 19.2484 20.7018 19.1313C20.1721 19.0539 19.2534 18.8336 18.7565 18.6133L18.2432 18.3859L17.7839 19.4102L18.2971 19.6375C18.9253 19.9188 19.9589 20.1578 20.5425 20.2422H20.5448C20.6221 20.2539 20.6995 20.2633 20.7768 20.2703V22H21.9018V20.2984C22.3542 20.268 22.7784 20.1836 23.1557 20.0406C23.9034 19.757 24.5081 19.2156 24.6675 18.3859C24.7589 17.9102 24.7143 17.4766 24.5245 17.0922C24.337 16.7172 24.0346 16.4453 23.7089 16.2437C23.0948 15.8641 22.2581 15.6508 21.5315 15.4656L21.4776 15.4516C20.6831 15.25 20.0104 15.0742 19.5628 14.7953C19.3518 14.6641 19.2276 14.5328 19.162 14.3992C19.0987 14.275 19.0636 14.0992 19.1151 13.825C19.1831 13.4781 19.3518 13.2625 19.5886 13.1125C19.844 12.9508 20.205 12.85 20.6503 12.8148C21.5479 12.7422 22.5979 12.9391 23.3198 13.1078L23.8682 13.2367L24.1261 12.1422L23.5776 12.0156C23.1393 11.9125 22.5417 11.7883 21.9018 11.7227V10Z" fill="currentColor"/>
</svg>
