<svg viewBox="0 0 32 32" fill="currentColor" xmlns="http://www.w3.org/2000/svg">
<path d="M12.8623 20.8803C11.8903 20.8803 11.0623 20.6823 10.3783 20.2863C9.69429 19.8903 9.16779 19.3277 8.79879 18.5987C8.43879 17.8607 8.25879 16.9922 8.25879 15.9932C8.25879 14.9942 8.43879 14.1302 8.79879 13.4012C9.16779 12.6722 9.69429 12.1097 10.3783 11.7137C11.0623 11.3177 11.8903 11.1197 12.8623 11.1197C13.5373 11.1197 14.1403 11.2187 14.6713 11.4167C15.2023 11.6147 15.6658 11.9027 16.0618 12.2807L15.5758 13.4012C15.1438 13.0322 14.7208 12.7667 14.3068 12.6047C13.9018 12.4427 13.4293 12.3617 12.8893 12.3617C11.8633 12.3617 11.0803 12.6767 10.5403 13.3067C10.0003 13.9367 9.73029 14.8322 9.73029 15.9932C9.73029 17.1542 10.0003 18.0542 10.5403 18.6932C11.0803 19.3232 11.8633 19.6383 12.8893 19.6383C13.4293 19.6383 13.9018 19.5573 14.3068 19.3952C14.7208 19.2332 15.1438 18.9633 15.5758 18.5852L16.0618 19.7058C15.6658 20.0838 15.2023 20.3763 14.6713 20.5833C14.1403 20.7813 13.5373 20.8803 12.8623 20.8803Z" fill="currentColor"/>
<path d="M20.9298 10H19.8048V11.6805C19.7321 11.6828 19.6594 11.6875 19.5868 11.6945C19.043 11.7391 18.4805 11.868 18.0118 12.1656C17.5243 12.475 17.168 12.9531 17.0391 13.6141C16.9477 14.0898 16.9923 14.5234 17.1821 14.9078C17.3696 15.2828 17.6719 15.5547 17.9977 15.7563C18.6118 16.1359 19.4485 16.3492 20.1751 16.5344L20.229 16.5484C21.0235 16.75 21.6962 16.9258 22.1438 17.2047C22.3548 17.3359 22.479 17.4672 22.5446 17.6008C22.6079 17.725 22.643 17.9008 22.5915 18.175C22.5235 18.5195 22.2774 18.8055 21.7829 18.993C21.2766 19.1852 20.5641 19.2484 19.7298 19.1313C19.2001 19.0539 18.2813 18.8336 17.7844 18.6133L17.2712 18.3859L16.8118 19.4102L17.3251 19.6375C17.9532 19.9188 18.9868 20.1578 19.5704 20.2422H19.5727C19.6501 20.2539 19.7274 20.2633 19.8048 20.2703V22H20.9298V20.2984C21.3821 20.268 21.8063 20.1836 22.1837 20.0406C22.9313 19.757 23.536 19.2156 23.6954 18.3859C23.7868 17.9102 23.7423 17.4766 23.5524 17.0922C23.3649 16.7172 23.0626 16.4453 22.7368 16.2437C22.1227 15.8641 21.286 15.6508 20.5594 15.4656L20.5055 15.4516C19.711 15.25 19.0384 15.0742 18.5907 14.7953C18.3798 14.6641 18.2555 14.5328 18.1899 14.3992C18.1266 14.275 18.0915 14.0992 18.143 13.825C18.211 13.4781 18.3798 13.2625 18.6165 13.1125C18.8719 12.9508 19.2329 12.85 19.6782 12.8148C20.5759 12.7422 21.6259 12.9391 22.3477 13.1078L22.8962 13.2367L23.154 12.1422L22.6055 12.0156C22.1673 11.9125 21.5696 11.7883 20.9298 11.7227V10Z" fill="currentColor"/>
</svg>
