<svg width="32" height="32" viewBox="0 0 32 32" fill="none" xmlns="http://www.w3.org/2000/svg">
<path d="M9.5 9.75C9.5 9.33437 9.16562 9 8.75 9C8.33437 9 8 9.33437 8 9.75V20.75C8 21.9937 9.00625 23 10.25 23H23.25C23.6656 23 24 22.6656 24 22.25C24 21.8344 23.6656 21.5 23.25 21.5H10.25C9.83438 21.5 9.5 21.1656 9.5 20.75V9.75ZM18 12.75C18 13.1656 18.3344 13.5 18.75 13.5H20.4406L17.5 16.4406L15.0312 13.9719C14.7375 13.6781 14.2625 13.6781 13.9719 13.9719L11.4719 16.4719C11.1781 16.7656 11.1781 17.2406 11.4719 17.5312C11.7656 17.8219 12.2406 17.825 12.5312 17.5312L14.5 15.5625L16.9688 18.0312C17.2625 18.325 17.7375 18.325 18.0281 18.0312L21.4969 14.5625V16.25C21.4969 16.6656 21.8313 17 22.2469 17C22.6625 17 22.9969 16.6656 22.9969 16.25V12.75C22.9969 12.3344 22.6625 12 22.2469 12H18.75C18.3344 12 18 12.3344 18 12.75Z" fill="black"/>
</svg>
