<svg viewBox="0 0 32 32" fill="currentColor" xmlns="http://www.w3.org/2000/svg">
<path d="M9.32642 20.8822V11.6545H10.6877V15.8037H10.7139L14.9547 11.6545H16.6432L11.6693 16.445L11.6824 15.8037L16.9835 20.8822H15.2426L10.7139 16.5759H10.6877V20.8822H9.32642Z" fill="currentColor"/>
<path d="M20.4353 21C19.7721 21 19.1918 20.8647 18.6945 20.5942C18.2058 20.315 17.8262 19.918 17.5557 19.4031C17.2939 18.8796 17.163 18.26 17.163 17.5445C17.163 16.8377 17.2983 16.2312 17.5688 15.7251C17.8393 15.219 18.2189 14.8351 18.7076 14.5733C19.1962 14.3028 19.7721 14.1675 20.4353 14.1675C20.8629 14.1675 21.2774 14.2417 21.6788 14.3901C22.0802 14.5297 22.4117 14.7304 22.6735 14.9921L22.2416 15.9215C21.9973 15.6859 21.7224 15.5113 21.417 15.3979C21.1116 15.2757 20.8149 15.2147 20.5269 15.2147C19.8987 15.2147 19.4056 15.4154 19.0479 15.8168C18.6901 16.2182 18.5112 16.7984 18.5112 17.5576C18.5112 18.3255 18.6901 18.9145 19.0479 19.3246C19.4056 19.7347 19.8987 19.9398 20.5269 19.9398C20.8062 19.9398 21.0985 19.8874 21.4039 19.7827C21.7093 19.6693 21.9885 19.4904 22.2416 19.2461L22.6735 20.1754C22.403 20.4372 22.0627 20.6422 21.6526 20.7906C21.2512 20.9302 20.8454 21 20.4353 21ZM19.7678 13.644L18.328 11H19.2049L20.3699 12.8455L21.5348 11H22.4117L20.9719 13.644H19.7678Z" fill="currentColor"/>
</svg>
