<svg viewBox="0 0 32 32" fill="currentColor" xmlns="http://www.w3.org/2000/svg">
<path d="M16.7622 9.65625V9H15.4497V9.65625V10.9605C15.3649 10.9633 15.2802 10.9688 15.1954 10.977C14.561 11.0289 13.9048 11.1793 13.3579 11.5266C12.7891 11.8875 12.3735 12.4453 12.2231 13.2164C12.1165 13.7715 12.1684 14.2773 12.3899 14.7258C12.6087 15.1633 12.9614 15.4805 13.3415 15.7156C14.0579 16.1586 15.0341 16.4074 15.8817 16.6234L15.9446 16.6398C16.8716 16.875 17.6563 17.0801 18.1786 17.4055C18.4247 17.5586 18.5696 17.7117 18.6462 17.8676C18.72 18.0125 18.761 18.2176 18.7009 18.5375C18.6216 18.9395 18.3344 19.273 17.7575 19.4918C17.1669 19.716 16.3356 19.7898 15.3622 19.6531C14.7442 19.5629 13.6723 19.3059 13.0927 19.0488L12.4938 18.7836L11.9579 19.9785L12.5567 20.2438C13.2895 20.5719 14.4954 20.8508 15.1762 20.9492H15.179C15.2692 20.9629 15.3594 20.9738 15.4497 20.982V22.3438V23H16.7622V22.3438V21.0148C17.2899 20.9793 17.7848 20.8809 18.2251 20.7141C19.0973 20.3832 19.8028 19.7516 19.9887 18.7836C20.0954 18.2285 20.0434 17.7227 19.8219 17.2742C19.6032 16.8367 19.2505 16.5195 18.8704 16.2844C18.154 15.8414 17.1778 15.5926 16.3302 15.3766L16.2673 15.3602C15.3403 15.125 14.5555 14.9199 14.0333 14.5945C13.7872 14.4414 13.6423 14.2883 13.5657 14.1324C13.4919 13.9875 13.4509 13.7824 13.511 13.4625C13.5903 13.0578 13.7872 12.8063 14.0634 12.6313C14.3614 12.4426 14.7825 12.325 15.302 12.284C16.3493 12.1992 17.5743 12.4289 18.4165 12.6258L19.0563 12.7762L19.3571 11.4992L18.7173 11.3516C18.2059 11.2313 17.5087 11.0863 16.7622 11.0098V9.65625Z" fill="currentColor"/>
</svg>
