<svg viewBox="0 0 32 32" fill="currentColor" xmlns="http://www.w3.org/2000/svg">
<path d="M10.192 20.8739V11H16.5225V12.1625H11.6486V15.3277H16.2004V16.4902H11.6486V20.8739H10.192Z" fill="currentColor"/>
<path d="M20.7576 21C19.992 21 19.4131 20.7946 19.0209 20.3838C18.6287 19.9636 18.4327 19.338 18.4327 18.507V14.9076H17.0601V13.8151H18.4327V11.9524L19.8472 11.5742V13.8151H21.808V14.9076H19.8472V18.381C19.8472 18.9038 19.9406 19.2773 20.1273 19.5014C20.3141 19.7255 20.5849 19.8375 20.9397 19.8375C21.1171 19.8375 21.2711 19.8235 21.4019 19.7955C21.5419 19.7582 21.668 19.7162 21.78 19.6695V20.8179C21.64 20.8739 21.4766 20.916 21.2898 20.944C21.1031 20.9813 20.9257 21 20.7576 21Z" fill="currentColor"/>
</svg>
