<svg viewBox="0 0 32 32" fill="currentColor" xmlns="http://www.w3.org/2000/svg">
<path d="M7.7696 21C7.65002 21 7.50802 20.9925 7.3436 20.9776C7.17917 20.9626 7.01101 20.9365 6.83911 20.8991V19.9574C6.98111 19.9873 7.11564 20.0097 7.2427 20.0247C7.36975 20.0471 7.48186 20.0583 7.57902 20.0583C7.92282 20.0583 8.17693 19.9537 8.34135 19.7444C8.50578 19.5351 8.58799 19.2025 8.58799 18.7466V11H9.75391V18.7578C9.75391 19.2511 9.68291 19.6622 9.54091 19.991C9.3989 20.3274 9.18216 20.5777 8.89068 20.7422C8.60668 20.9141 8.23298 21 7.7696 21Z" fill="currentColor"/>
<path d="M11.6121 18.9036V11H14.9641C15.8087 11 16.4551 11.2055 16.9036 11.6166C17.3595 12.0202 17.5874 12.5807 17.5874 13.2982C17.5874 14.0157 17.3595 14.58 16.9036 14.991C16.4551 15.4021 15.8087 15.6076 14.9641 15.6076H12.778V18.9036H11.6121ZM12.778 14.6771H14.8408C15.3714 14.6771 15.7713 14.5575 16.0403 14.3184C16.3094 14.0792 16.4439 13.7392 16.4439 13.2982C16.4439 12.8647 16.3094 12.5284 16.0403 12.2892C15.7713 12.0501 15.3714 11.9305 14.8408 11.9305H12.778V14.6771Z" fill="currentColor"/>
<path d="M21.1026 18.9036V16.9641H19.1071V16.2578H21.1026V15.2377H19.1071V14.5314H20.8111V14.6771L18.2103 11H19.4883L21.8201 14.3744H21.5511L23.8941 11H25.1609L22.5712 14.6771V14.5314H24.2641V15.2377H22.2685V16.2578H24.2641V16.9641H22.2685V18.9036H21.1026Z" fill="currentColor"/>
</svg>
