<svg viewBox="0 0 32 32" fill="currentColor" xmlns="http://www.w3.org/2000/svg">
<path d="M9.34436 21V11H10.8195V15.4965H10.8479L15.4437 11H17.2734L11.8834 16.1915L11.8976 15.4965L17.6422 21H15.7557L10.8479 16.3333H10.8195V21H9.34436Z" fill="currentColor"/>
<path d="M18.386 21V15.6241C18.386 15.331 18.3766 15.0378 18.3577 14.7447C18.3482 14.4421 18.3293 14.1442 18.3009 13.8511H19.691L19.847 15.695H19.6201C19.7146 15.2506 19.8754 14.8818 20.1023 14.5887C20.3293 14.2955 20.6035 14.078 20.925 13.9362C21.256 13.7943 21.6012 13.7234 21.9605 13.7234C22.1118 13.7234 22.2395 13.7329 22.3435 13.7518C22.4475 13.7612 22.5515 13.7801 22.6555 13.8085L22.6413 15.0851C22.4806 15.0189 22.3387 14.9811 22.2158 14.9716C22.1023 14.9527 21.9605 14.9433 21.7903 14.9433C21.3742 14.9433 21.0196 15.0378 20.7265 15.227C20.4333 15.4066 20.2111 15.6525 20.0598 15.9645C19.9085 16.2766 19.8328 16.6123 19.8328 16.9716V21H18.386Z" fill="currentColor"/>
</svg>
