<svg viewBox="0 0 32 32" fill="currentColor" xmlns="http://www.w3.org/2000/svg">
<path d="M5.85901 19.9656V12.0344H6.75901L11.6303 18.4244H11.349V12.0344H12.4403V19.9656H11.5515L6.69151 13.5756H6.95026V19.9656H5.85901Z" fill="currentColor"/>
<path d="M13.8578 19.9656V19.1106L18.4928 12.6194V13.0131H13.8578V12.0344H19.6065V12.8894L14.9603 19.3806V18.9869H19.7415V19.9656H13.8578Z" fill="currentColor"/>
<path d="M23.7982 11H22.8607V12.4004C22.8001 12.4023 22.7396 12.4062 22.679 12.4121C22.2259 12.4492 21.7571 12.5566 21.3665 12.8047C20.9603 13.0625 20.6634 13.4609 20.556 14.0117C20.4798 14.4082 20.5169 14.7695 20.6751 15.0898C20.8314 15.4023 21.0833 15.6289 21.3548 15.7969C21.8665 16.1133 22.5638 16.291 23.1692 16.4453L23.2142 16.457C23.8763 16.625 24.4368 16.7715 24.8099 17.0039C24.9857 17.1133 25.0892 17.2227 25.1439 17.334C25.1966 17.4375 25.2259 17.584 25.1829 17.8125C25.1263 18.0996 24.9212 18.3379 24.5091 18.4941C24.0872 18.6543 23.4935 18.707 22.7982 18.6094C22.3567 18.5449 21.5911 18.3613 21.1771 18.1777L20.7493 17.9883L20.3665 18.8418L20.7942 19.0312C21.3177 19.2656 22.179 19.4648 22.6653 19.5352H22.6673C22.7317 19.5449 22.7962 19.5527 22.8607 19.5586V21H23.7982V19.582C24.1751 19.5566 24.5286 19.4863 24.8431 19.3672C25.4661 19.1309 25.97 18.6797 26.1028 17.9883C26.179 17.5918 26.1419 17.2305 25.9837 16.9102C25.8274 16.5977 25.5755 16.3711 25.304 16.2031C24.7923 15.8867 24.095 15.709 23.4896 15.5547L23.4446 15.543C22.7825 15.375 22.222 15.2285 21.8489 14.9961C21.6732 14.8867 21.5696 14.7773 21.5149 14.666C21.4622 14.5625 21.4329 14.416 21.4759 14.1875C21.5325 13.8984 21.6732 13.7188 21.8704 13.5938C22.0833 13.459 22.3841 13.375 22.7552 13.3457C23.5032 13.2852 24.3782 13.4492 24.9798 13.5898L25.4368 13.6973L25.6517 12.7852L25.1946 12.6797C24.8294 12.5938 24.3314 12.4902 23.7982 12.4355V11Z" fill="currentColor"/>
</svg>
