<svg viewBox="0 0 32 32" fill="none" xmlns="http://www.w3.org/2000/svg">
<path d="M12.766 22V15.634H11.166V14.7149H12.766V13.0298H11.166V12.1106H12.766V10H15.5915C16.5447 10 17.3334 10.1929 17.9575 10.5787C18.5816 10.9645 19.0185 11.5376 19.2681 12.2979L18.8937 12.1106H20.8341V13.0298H19.183L19.4213 12.9277C19.4781 13.234 19.5064 13.5574 19.5064 13.8979C19.5064 14.227 19.4724 14.539 19.4043 14.834L19.2001 14.7149H20.8341V15.634H18.9107L19.2341 15.4468C18.9958 16.173 18.5532 16.7348 17.9064 17.1319C17.271 17.5291 16.4993 17.7277 15.5915 17.7277H14.1447V22H12.766ZM14.0937 16.6894H15.6086C16.1986 16.6894 16.6923 16.5929 17.0894 16.4C17.4866 16.1957 17.7816 15.8837 17.9745 15.4638C18.1788 15.044 18.2809 14.5106 18.2809 13.8638C18.2809 13.2057 18.1845 12.6723 17.9915 12.2638C17.7986 11.844 17.5036 11.5376 17.1064 11.3447C16.7093 11.1518 16.21 11.0553 15.6086 11.0553H14.0937V16.6894Z" fill="currentColor"/>
</svg>
