<svg viewBox="0 0 32 32" fill="currentColor" xmlns="http://www.w3.org/2000/svg">
<path d="M12.2075 20.8803C11.4425 20.8803 10.7495 20.7858 10.1285 20.5968C9.50755 20.3988 8.96754 20.1198 8.50854 19.7597L8.98104 18.6528C9.28705 18.8867 9.60204 19.0802 9.92604 19.2332C10.259 19.3862 10.61 19.5033 10.979 19.5843C11.357 19.6562 11.7665 19.6922 12.2075 19.6922C12.9635 19.6922 13.517 19.5573 13.868 19.2873C14.228 19.0173 14.408 18.6617 14.408 18.2207C14.408 17.8427 14.282 17.5502 14.03 17.3432C13.787 17.1362 13.355 16.9697 12.734 16.8438L11.2625 16.5468C10.3895 16.3667 9.73705 16.0742 9.30504 15.6692C8.88204 15.2552 8.67054 14.6927 8.67054 13.9817C8.67054 13.4057 8.82354 12.9017 9.12954 12.4697C9.43554 12.0377 9.85855 11.7047 10.3985 11.4707C10.9475 11.2367 11.5865 11.1197 12.3155 11.1197C12.9905 11.1197 13.6115 11.2187 14.1785 11.4167C14.7455 11.6057 15.2225 11.8892 15.6095 12.2672L15.1505 13.3337C14.7455 12.9827 14.3135 12.7262 13.8545 12.5642C13.3955 12.3932 12.8735 12.3077 12.2885 12.3077C11.5955 12.3077 11.051 12.4517 10.655 12.7397C10.268 13.0277 10.0745 13.4192 10.0745 13.9142C10.0745 14.3102 10.196 14.6207 10.439 14.8457C10.691 15.0707 11.105 15.2417 11.681 15.3587L13.1525 15.6422C14.0615 15.8312 14.732 16.1237 15.164 16.5197C15.596 16.9067 15.812 17.4422 15.812 18.1263C15.812 18.6753 15.6635 19.1568 15.3665 19.5708C15.0785 19.9848 14.6645 20.3088 14.1245 20.5428C13.5845 20.7677 12.9455 20.8803 12.2075 20.8803Z" fill="currentColor"/>
<path d="M20.68 10H19.555V11.6805C19.4824 11.6828 19.4097 11.6875 19.337 11.6945C18.7933 11.7391 18.2308 11.868 17.762 12.1656C17.2745 12.475 16.9183 12.9531 16.7894 13.6141C16.698 14.0898 16.7425 14.5234 16.9324 14.9078C17.1199 15.2828 17.4222 15.5547 17.748 15.7563C18.362 16.1359 19.1988 16.3492 19.9253 16.5344L19.9792 16.5484C20.7738 16.75 21.4464 16.9258 21.8941 17.2047C22.105 17.3359 22.2292 17.4672 22.2949 17.6008C22.3581 17.725 22.3933 17.9008 22.3417 18.175C22.2738 18.5195 22.0277 18.8055 21.5331 18.993C21.0269 19.1852 20.3144 19.2484 19.48 19.1313C18.9503 19.0539 18.0316 18.8336 17.5347 18.6133L17.0214 18.3859L16.562 19.4102L17.0753 19.6375C17.7035 19.9188 18.737 20.1578 19.3206 20.2422H19.323C19.4003 20.2539 19.4777 20.2633 19.555 20.2703V22H20.68V20.2984C21.1324 20.268 21.5566 20.1836 21.9339 20.0406C22.6816 19.757 23.2863 19.2156 23.4456 18.3859C23.537 17.9102 23.4925 17.4766 23.3027 17.0922C23.1152 16.7172 22.8128 16.4453 22.487 16.2437C21.873 15.8641 21.0363 15.6508 20.3097 15.4656L20.2558 15.4516C19.4613 15.25 18.7886 15.0742 18.341 14.7953C18.13 14.6641 18.0058 14.5328 17.9402 14.3992C17.8769 14.275 17.8417 14.0992 17.8933 13.825C17.9613 13.4781 18.13 13.2625 18.3667 13.1125C18.6222 12.9508 18.9831 12.85 19.4285 12.8148C20.3261 12.7422 21.3761 12.9391 22.098 13.1078L22.6464 13.2367L22.9042 12.1422L22.3558 12.0156C21.9175 11.9125 21.3199 11.7883 20.68 11.7227V10Z" fill="currentColor"/>
</svg>
