<svg viewBox="0 0 32 32" fill="none" xmlns="http://www.w3.org/2000/svg">
<path d="M8.85046 21V11H15.2618V12.1773H10.3256V15.383H14.9356V16.5603H10.3256V21H8.85046Z" fill="currentColor"/>
<path d="M16.6039 21V15.6241C16.6039 15.331 16.5944 15.0378 16.5755 14.7447C16.5661 14.4421 16.5472 14.1442 16.5188 13.8511H17.9089L18.0649 15.695H17.8379C17.9325 15.2506 18.0933 14.8818 18.3202 14.5887C18.5472 14.2955 18.8214 14.078 19.1429 13.9362C19.4739 13.7943 19.819 13.7234 20.1784 13.7234C20.3297 13.7234 20.4573 13.7329 20.5613 13.7518C20.6654 13.7612 20.7694 13.7801 20.8734 13.8085L20.8592 15.0851C20.6985 15.0189 20.5566 14.9811 20.4337 14.9716C20.3202 14.9527 20.1784 14.9433 20.0082 14.9433C19.5921 14.9433 19.2375 15.0378 18.9443 15.227C18.6512 15.4066 18.429 15.6525 18.2777 15.9645C18.1264 16.2766 18.0507 16.6123 18.0507 16.9716V21H16.6039Z" fill="currentColor"/>
<path d="M21.4616 21V19.3121H23.1496V21H21.4616Z" fill="currentColor"/>
</svg>
