<svg width="32" height="32" viewBox="0 0 32 32" fill="none" xmlns="http://www.w3.org/2000/svg">
<path d="M23.8444 14.4332H23.2V14.4H16V17.6H20.5212C19.8616 19.4628 18.0892 20.8 16 20.8C13.3492 20.8 11.2 18.6508 11.2 16C11.2 13.3492 13.3492 11.2 16 11.2C17.2236 11.2 18.3368 11.6616 19.1844 12.4156L21.4472 10.1528C20.0184 8.8212 18.1072 8 16 8C11.582 8 8 11.582 8 16C8 20.418 11.582 24 16 24C20.418 24 24 20.418 24 16C24 15.4636 23.9448 14.94 23.8444 14.4332Z" fill="#FFC107"/>
<path d="M8.92241 12.2764L11.5508 14.204C12.262 12.4432 13.9844 11.2 16 11.2C17.2236 11.2 18.3368 11.6616 19.1844 12.4156L21.4472 10.1528C20.0184 8.8212 18.1072 8 16 8C12.9272 8 10.2624 9.7348 8.92241 12.2764Z" fill="#FF3D00"/>
<path d="M16 24C18.0664 24 19.9439 23.2092 21.3635 21.9232L18.8875 19.828C18.0843 20.4364 17.086 20.8 16 20.8C13.9192 20.8 12.1523 19.4732 11.4867 17.6216L8.87788 19.6316C10.2019 22.2224 12.8908 24 16 24Z" fill="#4CAF50"/>
<path d="M23.8444 14.4332H23.2V14.4H16V17.6H20.5212C20.2044 18.4948 19.6299 19.266 18.8875 19.828L21.3635 21.9232C21.1883 22.0824 24 20 24 16C24 15.4636 23.9448 14.94 23.8444 14.4332Z" fill="#1976D2"/>
</svg>
