<svg viewBox="0 0 16 16" fill="none" xmlns="http://www.w3.org/2000/svg">
<path d="M1.77809 13.7788H8.89043C9.13492 13.7788 9.33495 13.5788 9.33495 13.3343V13.1481L10.4407 12.8731C10.5185 12.8536 10.5963 12.8286 10.6685 12.7981V13.3343C10.6685 14.315 9.87116 15.1124 8.89043 15.1124H1.77809C0.797361 15.1124 0 14.315 0 13.3343V2.66575C0 1.68503 0.797361 0.887665 1.77809 0.887665H6.37611C6.84841 0.887665 7.30127 1.07381 7.63466 1.4072L10.149 3.92152C10.4824 4.25492 10.6685 4.70777 10.6685 5.18008V6.5442L9.33495 7.87777V5.33288H7.11235C6.62059 5.33288 6.2233 4.93559 6.2233 4.44384V2.22123H1.77809C1.5336 2.22123 1.33356 2.42126 1.33356 2.66575V13.3343C1.33356 13.5788 1.5336 13.7788 1.77809 13.7788ZM4.44522 10.5838L4.17295 11.4951C4.00347 12.059 3.48394 12.4452 2.89495 12.4452H2.66713C2.42264 12.4452 2.22261 12.2452 2.22261 12.0007C2.22261 11.7562 2.42264 11.5562 2.66713 11.5562H2.89495C3.0922 11.5562 3.26446 11.4284 3.32002 11.2395L3.73398 9.86422C3.82844 9.55028 4.11738 9.33358 4.44522 9.33358C4.77305 9.33358 5.06199 9.5475 5.15645 9.86422L5.47873 10.9366C5.68432 10.7644 5.94548 10.6671 6.2233 10.6671C6.66505 10.6671 7.06789 10.9172 7.26515 11.3117L7.38739 11.5562H8.09863L8.43202 10.2171C8.47091 10.0615 8.55148 9.91701 8.66539 9.8031L12.2549 6.21637L14.2275 8.18893L10.638 11.7757C10.524 11.8896 10.3824 11.9701 10.224 12.009L8.55426 12.4258C8.5237 12.4341 8.49592 12.4369 8.46536 12.4397C8.44313 12.4424 8.42368 12.4452 8.40146 12.4452H7.11235C6.94287 12.4452 6.79007 12.3508 6.71505 12.2007L6.47057 11.709C6.42334 11.6145 6.32888 11.5562 6.22608 11.5562C6.12329 11.5562 6.02605 11.6145 5.98159 11.709L5.73711 12.2007C5.65654 12.3647 5.48151 12.4619 5.30092 12.4452C5.12033 12.4286 4.96475 12.3035 4.91474 12.1313L4.44522 10.5838ZM15.2749 4.76889L15.6749 5.16896C16.1084 5.60237 16.1084 6.30527 15.6749 6.74146L14.8581 7.55827L12.8856 5.5857L13.7024 4.76889C14.1358 4.33549 14.8387 4.33549 15.2749 4.76889Z" fill="currentcolor"/>
</svg>
