<svg viewBox="0 0 32 32" fill="none" xmlns="http://www.w3.org/2000/svg">
<path d="M8.09139 9.38462C7.79889 9.16841 7.37421 9.21851 7.14359 9.49272C6.91297 9.76693 6.96641 10.1651 7.2589 10.3813L23.9086 22.6154C24.2011 22.8316 24.6258 22.7815 24.8564 22.5073C25.087 22.2331 25.0336 21.8349 24.7411 21.6187L21.7824 19.4461C22.8961 18.3756 23.6499 17.176 24.0295 16.3243C24.1224 16.116 24.1224 15.884 24.0295 15.6757C23.6105 14.7344 22.7302 13.3633 21.414 12.219C20.0921 11.0642 18.2725 10.0939 16 10.0939C14.0819 10.0939 12.4844 10.7873 11.2385 11.697L8.09139 9.38462ZM12.3382 12.5038C13.3563 11.8262 14.5797 11.3595 16 11.3595C17.8337 11.3595 19.3412 12.1399 20.4971 13.1445C21.5799 14.0884 22.328 15.209 22.7105 16C22.3561 16.7383 21.6812 17.7613 20.7165 18.6604L19.2034 17.5477C19.4593 17.0837 19.6027 16.559 19.6027 16C19.6027 14.1359 17.9912 12.6251 16.0028 12.6251C15.0972 12.6251 14.2675 12.9388 13.6347 13.4556L12.3382 12.5038ZM18.1065 16.7435L15.8144 15.0587C15.9325 14.8346 16 14.5788 16 14.3125C16 14.1675 15.9803 14.0251 15.9438 13.8907C15.9634 13.8907 15.9803 13.8907 16 13.8907C17.2431 13.8907 18.25 14.8346 18.25 16C18.25 16.261 18.1993 16.5115 18.1065 16.7435ZM18.3709 20.1791C17.6537 20.4665 16.8634 20.6405 16 20.6405C14.1663 20.6405 12.6588 19.8601 11.5029 18.8555C10.4201 17.9116 9.67199 16.791 9.28949 16C9.52293 15.5149 9.89417 14.9058 10.3976 14.2914L9.3373 13.5084C8.69607 14.2914 8.23764 15.0719 7.97045 15.6757C7.87764 15.884 7.87764 16.116 7.97045 16.3243C8.38951 17.2656 9.26981 18.6367 10.586 19.781C11.9079 20.9358 13.7275 21.9061 16 21.9061C17.3444 21.9061 18.5284 21.566 19.5493 21.0492L18.3709 20.1791ZM12.4001 16C12.4001 17.8641 14.0116 19.3749 16 19.3749C16.3741 19.3749 16.734 19.3222 17.0744 19.222L15.4938 18.0566C14.8328 17.9142 14.2816 17.4976 13.9835 16.9413L12.4057 15.7759C12.4001 15.8497 12.3973 15.9235 12.3973 16H12.4001Z" fill="currentColor"/>
</svg>
