<svg viewBox="0 0 32 32" fill="currentColor" xmlns="http://www.w3.org/2000/svg">
<path d="M12.8571 8C13.3321 8 13.7143 8.38214 13.7143 8.85714C13.7143 9.33214 13.3321 9.71429 12.8571 9.71429H9.71429V12.8571C9.71429 13.3321 9.33214 13.7143 8.85714 13.7143C8.38214 13.7143 8 13.3321 8 12.8571V8.85714C8 8.38214 8.38214 8 8.85714 8H12.8571ZM8 19.1429C8 18.6679 8.38214 18.2857 8.85714 18.2857C9.33214 18.2857 9.71429 18.6679 9.71429 19.1429V22.2857H12.8571C13.3321 22.2857 13.7143 22.6679 13.7143 23.1429C13.7143 23.6179 13.3321 24 12.8571 24H8.85714C8.38214 24 8 23.6179 8 23.1429V19.1429ZM23.1429 8C23.6179 8 24 8.38214 24 8.85714V12.8571C24 13.3321 23.6179 13.7143 23.1429 13.7143C22.6679 13.7143 22.2857 13.3321 22.2857 12.8571V9.71429H19.1429C18.6679 9.71429 18.2857 9.33214 18.2857 8.85714C18.2857 8.38214 18.6679 8 19.1429 8H23.1429ZM22.2857 19.1429C22.2857 18.6679 22.6679 18.2857 23.1429 18.2857C23.6179 18.2857 24 18.6679 24 19.1429V23.1429C24 23.6179 23.6179 24 23.1429 24H19.1429C18.6679 24 18.2857 23.6179 18.2857 23.1429C18.2857 22.6679 18.6679 22.2857 19.1429 22.2857H22.2857V19.1429Z" fill="currentColor"/>
</svg>
