<svg viewBox="8 8 32 32" fill="none" xmlns="http://www.w3.org/2000/svg">
  <path d="M9.5 4V6H4.5V4C4.5 2.61875 5.61875 1.5 7 1.5C8.38125 1.5 9.5 2.61875 9.5 4ZM11 6V4C11 1.79063 9.20937 0 7 0C4.79062 0 3 1.79063 3 4V6H2C0.896875 6 0 6.89687 0 8V14C0 15.1031 0.896875 16 2 16H12C13.1031 16 14 15.1031 14 14V8C14 6.89687 13.1031 6 12 6H11ZM12.5 8V14C12.5 14.275 12.275 14.5 12 14.5H2C1.725 14.5 1.5 14.275 1.5 14V8C1.5 7.725 1.725 7.5 2 7.5H12C12.275 7.5 12.5 7.725 12.5 8Z" fill="currentColor" transform="translate(16, 16)" />
</svg>
