<svg viewBox="0 0 32 32" fill="currentColor" xmlns="http://www.w3.org/2000/svg">
<path d="M23.2 10.1028H13.3C13.0525 10.1028 12.85 10.307 12.85 10.5565V11.7274C12.4337 11.5573 11.9781 11.4637 11.5 11.4637V10.5565C11.5 9.55564 12.3072 8.74194 13.3 8.74194H23.2C24.1928 8.74194 25 9.55564 25 10.5565V18.7218C25 19.7226 24.1928 20.5363 23.2 20.5363H22.3H21.625H18.025H17.35H16.4725C16.2391 20.026 15.9156 19.5667 15.5247 19.1754H17.35V18.0413C17.35 17.1653 18.0559 16.4536 18.925 16.4536H20.725C21.5941 16.4536 22.3 17.1653 22.3 18.0413V19.1754H23.2C23.4475 19.1754 23.65 18.9713 23.65 18.7218V10.5565C23.65 10.307 23.4475 10.1028 23.2 10.1028ZM20.95 19.1754V18.0413C20.95 17.9166 20.8487 17.8145 20.725 17.8145H18.925C18.8012 17.8145 18.7 17.9166 18.7 18.0413V19.1754H20.95ZM12.85 15.0928C12.85 14.7318 12.7078 14.3857 12.4546 14.1305C12.2014 13.8752 11.858 13.7319 11.5 13.7319C11.142 13.7319 10.7986 13.8752 10.5454 14.1305C10.2922 14.3857 10.15 14.7318 10.15 15.0928C10.15 15.4537 10.2922 15.7998 10.5454 16.055C10.7986 16.3103 11.142 16.4536 11.5 16.4536C11.858 16.4536 12.2014 16.3103 12.4546 16.055C12.7078 15.7998 12.85 15.4537 12.85 15.0928ZM8.8 15.0928C8.8 14.3709 9.08446 13.6786 9.59081 13.1682C10.0972 12.6577 10.7839 12.371 11.5 12.371C12.2161 12.371 12.9028 12.6577 13.4092 13.1682C13.9155 13.6786 14.2 14.3709 14.2 15.0928C14.2 15.8146 13.9155 16.5069 13.4092 17.0173C12.9028 17.5278 12.2161 17.8145 11.5 17.8145C10.7839 17.8145 10.0972 17.5278 9.59081 17.0173C9.08446 16.5069 8.8 15.8146 8.8 15.0928ZM8.42594 21.8972H14.5741C14.3069 20.8538 13.3675 20.0827 12.2509 20.0827H10.7491C9.62969 20.0827 8.69031 20.8538 8.42594 21.8972ZM7 22.5011C7 20.4144 8.67906 18.7218 10.7491 18.7218H12.2481C14.3209 18.7218 16 20.4144 16 22.5011C16 22.9179 15.6653 23.2581 15.2491 23.2581H7.75094C7.33469 23.2581 7 22.9207 7 22.5011Z" fill="currentColor"/>
</svg>
