<svg viewBox="0 0 32 32" fill="none" xmlns="http://www.w3.org/2000/svg">
<path d="M13.4688 13.4688C13.7625 13.1781 14.2375 13.1781 14.5031 13.4688L15.9719 14.9406L17.4688 13.4688C17.7625 13.1781 18.2375 13.1781 18.5031 13.4688C18.8219 13.7625 18.8219 14.2375 18.5031 14.5031L17.0594 15.9719L18.5031 17.4688C18.8219 17.7625 18.8219 18.2375 18.5031 18.5031C18.2375 18.8219 17.7625 18.8219 17.4688 18.5031L15.9719 17.0594L14.5031 18.5031C14.2375 18.8219 13.7625 18.8219 13.4688 18.5031C13.1781 18.2375 13.1781 17.7625 13.4688 17.4688L14.9406 15.9719L13.4688 14.5031C13.1781 14.2375 13.1781 13.7625 13.4688 13.4688ZM24 16C24 20.4187 20.4187 24 16 24C11.5813 24 8 20.4187 8 16C8 11.5813 11.5813 8 16 8C20.4187 8 24 11.5813 24 16ZM16 9.5C12.4094 9.5 9.5 12.4094 9.5 16C9.5 19.5906 12.4094 22.5 16 22.5C19.5906 22.5 22.5 19.5906 22.5 16C22.5 12.4094 19.5906 9.5 16 9.5Z" fill="currentColor"/>
</svg>
