<svg viewBox="0 0 32 32" fill="currentColor" xmlns="http://www.w3.org/2000/svg">
<path d="M19.0547 8C19.6516 8 20.0828 8.57187 19.9172 9.14375L18.2453 15H20.9078C21.511 15 21.9985 15.4875 21.9985 16.0906C21.9985 16.4125 21.8578 16.7156 21.6141 16.9219L13.5297 23.7875C13.3672 23.925 13.161 24 12.9485 24C12.3516 24 11.9203 23.4281 12.086 22.8562L13.7578 17H11.0547C10.4735 17 10.0016 16.5281 10.0016 15.9469C10.0016 15.6375 10.136 15.3469 10.3703 15.1469L18.4735 8.21563C18.636 8.075 18.8422 8 19.0547 8ZM17.9266 10.6562L12.2641 15.5H14.7516C14.986 15.5 15.2078 15.6094 15.3516 15.7969C15.4953 15.9844 15.5391 16.2281 15.4735 16.4531L14.0735 21.3594L19.7985 16.5H17.2516C17.0172 16.5 16.7953 16.3906 16.6516 16.2031C16.5078 16.0156 16.4641 15.7719 16.5297 15.5469L17.9266 10.6562Z" fill="currentColor"/>
</svg>
