<svg viewBox="0 0 32 32" fill="currentColor" xmlns="http://www.w3.org/2000/svg">
<path d="M9.71429 21.7143C9.71429 22.0286 9.97143 22.2857 10.2857 22.2857H21.7143C22.0286 22.2857 22.2857 22.0286 22.2857 21.7143V10.2857C22.2857 9.97143 22.0286 9.71429 21.7143 9.71429H10.2857C9.97143 9.71429 9.71429 9.97143 9.71429 10.2857V21.7143ZM8 10.2857C8 9.025 9.025 8 10.2857 8H21.7143C22.975 8 24 9.025 24 10.2857V21.7143C24 22.975 22.975 24 21.7143 24H10.2857C9.025 24 8 22.975 8 21.7143V10.2857ZM11.4286 13.1429C11.4286 12.6679 11.8107 12.2857 12.2857 12.2857H13.4286V11.7143C13.4286 11.2393 13.8107 10.8571 14.2857 10.8571C14.7607 10.8571 15.1429 11.2393 15.1429 11.7143V12.2857H19.7143C20.1893 12.2857 20.5714 12.6679 20.5714 13.1429C20.5714 13.6179 20.1893 14 19.7143 14H15.1429V14.5714C15.1429 15.0464 14.7607 15.4286 14.2857 15.4286C13.8107 15.4286 13.4286 15.0464 13.4286 14.5714V14H12.2857C11.8107 14 11.4286 13.6179 11.4286 13.1429ZM12.2857 19.7143C11.8107 19.7143 11.4286 19.3321 11.4286 18.8571C11.4286 18.3821 11.8107 18 12.2857 18H16.8571V17.4286C16.8571 16.9536 17.2393 16.5714 17.7143 16.5714C18.1893 16.5714 18.5714 16.9536 18.5714 17.4286V18H19.7143C20.1893 18 20.5714 18.3821 20.5714 18.8571C20.5714 19.3321 20.1893 19.7143 19.7143 19.7143H18.5714V20.2857C18.5714 20.7607 18.1893 21.1429 17.7143 21.1429C17.2393 21.1429 16.8571 20.7607 16.8571 20.2857V19.7143H12.2857Z" fill="currentColor"/>
</svg>
