<svg id="Icon_-_Expired" data-name="Icon - Expired" xmlns="http://www.w3.org/2000/svg"  viewBox="0 0 32 32" fill="currentColor">
  <rect id="Rectangle_8452" data-name="Rectangle 8452" />
  <path id="calendar-xmark-regular" d="M36.571,0a.855.855,0,0,1,.857.857V2.286h5.143V.857a.857.857,0,1,1,1.714,0V2.286h1.429A2.288,2.288,0,0,1,48,4.571V16a2.288,2.288,0,0,1-2.286,2.286H34.286A2.288,2.288,0,0,1,32,16V4.571a2.288,2.288,0,0,1,2.286-2.286h1.429V.857A.855.855,0,0,1,36.571,0Zm9.714,6.857H33.714V16a.573.573,0,0,0,.571.571H45.714A.573.573,0,0,0,46.286,16Zm-3.393,3.179-1.679,1.679,1.679,1.679A.856.856,0,0,1,41.682,14.6L40,12.925,38.325,14.6a.856.856,0,0,1-1.211-1.211l1.679-1.679-1.679-1.679a.856.856,0,0,1,1.211-1.211L40,10.5l1.679-1.679a.856.856,0,0,1,1.211,1.211Z" transform="translate(-24 6.714)" fill="currentColor"/>
</svg>
