<?xml version="1.0" encoding="UTF-8"?>
<svg id="Layer_2" data-name="Layer 2" xmlns="http://www.w3.org/2000/svg" viewBox="0 0 24 24">
  <defs>
    <style>
      .cls-1 {
        fill: currentColor;
      }
    </style>
  </defs>
  <g id="Layer_1-2" data-name="Layer 1">
    <path class="cls-1" d="m12,0C5.38,0,0,5.38,0,12s5.38,12,12,12,12-5.38,12-12S18.62,0,12,0Zm0,21.6c-5.29,0-9.6-4.31-9.6-9.6S6.71,2.4,12,2.4s9.6,4.31,9.6,9.6-4.31,9.6-9.6,9.6Zm-1.48-11.97l-2.08-3.34c-.26-.41-.83-.49-1.21-.18-1.49,1.21-2.53,2.96-2.78,4.96-.06.49.3.93.8.93h3.95c0-1,.53-1.87,1.32-2.37Zm1.48,3.97c.88,0,1.6-.72,1.6-1.6s-.72-1.6-1.6-1.6-1.6.72-1.6,1.6.72,1.6,1.6,1.6Zm1.48.76c-.47.27-.94.44-1.48.44s-1.05-.16-1.48-.43l-2.09,3.34c-.26.42-.08.95.36,1.16.97.46,2.06.73,3.2.73s2.23-.27,3.21-.73c.44-.21.62-.75.36-1.16l-2.09-3.34Zm3.29-8.25c-.38-.31-.94-.23-1.2.19l-2.09,3.33c.79.5,1.32,1.37,1.32,2.37h3.95c.49,0,.86-.44.8-.93-.25-2-1.28-3.75-2.77-4.96Z"/>
  </g>
</svg>