<svg viewBox="0 0 32 32" fill="none" xmlns="http://www.w3.org/2000/svg">
<path d="M20.7031 20.4875C20.1062 19.0281 18.6719 18 17 18H15C13.3281 18 11.8937 19.0281 11.2969 20.4875C10.1844 19.3188 9.5 17.7406 9.5 16C9.5 12.4094 12.4094 9.5 16 9.5C19.5906 9.5 22.5 12.4094 22.5 16C22.5 17.7406 21.8156 19.3188 20.7031 20.4875ZM19.45 21.5094C18.45 22.1375 17.2688 22.5 16 22.5C14.7312 22.5 13.55 22.1375 12.5469 21.5094C12.775 20.3625 13.7875 19.5 15 19.5H17C18.2125 19.5 19.225 20.3625 19.4531 21.5094H19.45ZM16 24C18.1217 24 20.1566 23.1571 21.6569 21.6569C23.1571 20.1566 24 18.1217 24 16C24 13.8783 23.1571 11.8434 21.6569 10.3431C20.1566 8.84285 18.1217 8 16 8C13.8783 8 11.8434 8.84285 10.3431 10.3431C8.84285 11.8434 8 13.8783 8 16C8 18.1217 8.84285 20.1566 10.3431 21.6569C11.8434 23.1571 13.8783 24 16 24ZM16 15.5C15.6685 15.5 15.3505 15.3683 15.1161 15.1339C14.8817 14.8995 14.75 14.5815 14.75 14.25C14.75 13.9185 14.8817 13.6005 15.1161 13.3661C15.3505 13.1317 15.6685 13 16 13C16.3315 13 16.6495 13.1317 16.8839 13.3661C17.1183 13.6005 17.25 13.9185 17.25 14.25C17.25 14.5815 17.1183 14.8995 16.8839 15.1339C16.6495 15.3683 16.3315 15.5 16 15.5ZM13.25 14.25C13.25 14.9793 13.5397 15.6788 14.0555 16.1945C14.5712 16.7103 15.2707 17 16 17C16.7293 17 17.4288 16.7103 17.9445 16.1945C18.4603 15.6788 18.75 14.9793 18.75 14.25C18.75 13.5207 18.4603 12.8212 17.9445 12.3055C17.4288 11.7897 16.7293 11.5 16 11.5C15.2707 11.5 14.5712 11.7897 14.0555 12.3055C13.5397 12.8212 13.25 13.5207 13.25 14.25Z" fill="currentColor"/>
</svg>
