<svg viewBox="0 0 32 32" fill="none" xmlns="http://www.w3.org/2000/svg">
<path d="M14.5 21.0003C14.5 20.1722 13.8281 19.5003 13 19.5003H10C9.725 19.5003 9.5 19.2753 9.5 19.0003V10.0003C9.5 9.72534 9.725 9.50034 10 9.50034H22C22.275 9.50034 22.5 9.72534 22.5 10.0003V19.0003C22.5 19.2753 22.275 19.5003 22 19.5003H17.6656C17.3406 19.5003 17.025 19.6066 16.7656 19.8003L14.5 21.5003V21.0003ZM14.4938 23.3816L14.5 23.3753L17.6656 21.0003H22C23.1031 21.0003 24 20.1035 24 19.0003V10.0003C24 8.89721 23.1031 8.00034 22 8.00034H10C8.89688 8.00034 8 8.89721 8 10.0003V19.0003C8 20.1035 8.89688 21.0003 10 21.0003H11.5H13V22.5003V22.6253V22.6347V22.8347V23.5003C13 23.691 13.1063 23.8628 13.275 23.9472C13.4437 24.0316 13.6469 24.0128 13.8 23.9003L14.3344 23.5003L14.4938 23.3816ZM14 13.5003C14.2652 13.5003 14.5196 13.395 14.7071 13.2074C14.8946 13.0199 15 12.7656 15 12.5003C15 12.2351 14.8946 11.9808 14.7071 11.7932C14.5196 11.6057 14.2652 11.5003 14 11.5003C13.7348 11.5003 13.4804 11.6057 13.2929 11.7932C13.1054 11.9808 13 12.2351 13 12.5003C13 12.7656 13.1054 13.0199 13.2929 13.2074C13.4804 13.395 13.7348 13.5003 14 13.5003ZM18 13.5003C18.2652 13.5003 18.5196 13.395 18.7071 13.2074C18.8946 13.0199 19 12.7656 19 12.5003C19 12.2351 18.8946 11.9808 18.7071 11.7932C18.5196 11.6057 18.2652 11.5003 18 11.5003C17.7348 11.5003 17.4804 11.6057 17.2929 11.7932C17.1054 11.9808 17 12.2351 17 12.5003C17 12.7656 17.1054 13.0199 17.2929 13.2074C17.4804 13.395 17.7348 13.5003 18 13.5003ZM12.7031 15.441C12.3938 15.716 12.3688 16.191 12.6438 16.5003C13.4656 17.4191 14.6656 18.0003 15.9969 18.0003C17.3281 18.0003 18.5281 17.4191 19.35 16.5003C19.625 16.191 19.6 15.7191 19.2906 15.441C18.9812 15.1628 18.5094 15.191 18.2312 15.5003C17.6812 16.116 16.8844 16.5003 15.9938 16.5003C15.1031 16.5003 14.3094 16.116 13.7562 15.5003C13.4812 15.191 13.0062 15.166 12.6969 15.441H12.7031Z" fill="currentColor"/>
</svg>
