<svg viewBox="0 0 40 40" fill="none" xmlns="http://www.w3.org/2000/svg">
<path d="M17.1797 8.75H31.25V6.25H17.1797L15.9297 7.5L17.1797 8.75ZM11.5078 8.38281C11.0234 7.89844 11.0234 7.10156 11.5078 6.61719L14.8906 3.23438C15.3594 2.76563 15.9922 2.5 16.6562 2.5H32.5C33.8828 2.5 35 3.61719 35 5V10C35 11.3828 33.8828 12.5 32.5 12.5H16.6641C16 12.5 15.3672 12.2344 14.8984 11.7656L11.5156 8.38281H11.5078ZM5 10C4.33696 10 3.70107 9.73661 3.23223 9.26777C2.76339 8.79893 2.5 8.16304 2.5 7.5C2.5 6.83696 2.76339 6.20107 3.23223 5.73223C3.70107 5.26339 4.33696 5 5 5C5.66304 5 6.29893 5.26339 6.76777 5.73223C7.23661 6.20107 7.5 6.83696 7.5 7.5C7.5 8.16304 7.23661 8.79893 6.76777 9.26777C6.29893 9.73661 5.66304 10 5 10ZM5 22.5C4.33696 22.5 3.70107 22.2366 3.23223 21.7678C2.76339 21.2989 2.5 20.663 2.5 20C2.5 19.337 2.76339 18.7011 3.23223 18.2322C3.70107 17.7634 4.33696 17.5 5 17.5C5.66304 17.5 6.29893 17.7634 6.76777 18.2322C7.23661 18.7011 7.5 19.337 7.5 20C7.5 20.663 7.23661 21.2989 6.76777 21.7678C6.29893 22.2366 5.66304 22.5 5 22.5ZM2.5 32.5C2.5 31.837 2.76339 31.2011 3.23223 30.7322C3.70107 30.2634 4.33696 30 5 30C5.66304 30 6.29893 30.2634 6.76777 30.7322C7.23661 31.2011 7.5 31.837 7.5 32.5C7.5 33.163 7.23661 33.7989 6.76777 34.2678C6.29893 34.7366 5.66304 35 5 35C4.33696 35 3.70107 34.7366 3.23223 34.2678C2.76339 33.7989 2.5 33.163 2.5 32.5ZM17.1797 33.75H31.25V31.25H17.1797L15.9297 32.5L17.1797 33.75ZM11.5078 33.3828C11.0234 32.8984 11.0234 32.1016 11.5078 31.6172L14.8906 28.2344C15.3594 27.7656 15.9922 27.5 16.6562 27.5H32.5C33.8828 27.5 35 28.6172 35 30V35C35 36.3828 33.8828 37.5 32.5 37.5H16.6641C16 37.5 15.3672 37.2344 14.8984 36.7656L11.5156 33.3828H11.5078ZM15.9297 20L17.1797 21.25H36.25V18.75H17.1797L15.9297 20ZM14.8906 24.2656L11.5078 20.8828C11.0234 20.3984 11.0234 19.6016 11.5078 19.1172L14.8906 15.7344C15.3594 15.2656 15.9922 15 16.6562 15H37.5C38.8828 15 40 16.1172 40 17.5V22.5C40 23.8828 38.8828 25 37.5 25H16.6641C16 25 15.3672 24.7344 14.8984 24.2656H14.8906Z" fill="currentColor"/>
</svg>
