<svg viewBox="0 0 32 32" fill="currentColor" xmlns="http://www.w3.org/2000/svg">
<path d="M8.25 12H19.75C20.1656 12 20.5 11.6656 20.5 11.25C20.5 10.8344 20.1656 10.5 19.75 10.5H8.25C7.83438 10.5 7.5 10.8344 7.5 11.25C7.5 11.6656 7.83438 12 8.25 12Z" fill="currentColor"/>
<path d="M9.75 9.5H18.25C18.6656 9.5 19 9.16562 19 8.75C19 8.33437 18.6656 8 18.25 8H9.75C9.33437 8 9 8.33437 9 8.75C9 9.16562 9.33437 9.5 9.75 9.5Z" fill="currentColor"/>
<path d="M16.8906 22.5H8C7.725 22.5 7.5 22.275 7.5 22V15C7.5 14.725 7.725 14.5 8 14.5H19.2063C19.9031 14.1781 20.6812 14 21.5 14C21.5781 14 21.6562 14.0031 21.7344 14.0062C21.3906 13.4031 20.7437 13 20 13H8C6.89688 13 6 13.8969 6 15V22C6 23.1031 6.89688 24 8 24H18.3375C17.7656 23.5969 17.275 23.0875 16.8906 22.5Z" fill="currentColor"/>
<path d="M21.5 14.8766C19.0147 14.8766 17 16.8912 17 19.3766C17 21.8619 19.0147 23.8766 21.5 23.8766C23.9853 23.8766 26 21.8619 26 19.3766C26 16.8912 23.9853 14.8766 21.5 14.8766ZM23.3531 20.5234C23.5469 20.7172 23.5469 21.0359 23.3531 21.2297C23.1594 21.4234 22.8406 21.4234 22.6469 21.2297L21.5 20.0828L20.3531 21.2297C20.1594 21.4234 19.8406 21.4234 19.6469 21.2297C19.4531 21.0359 19.4531 20.7172 19.6469 20.5234L20.7937 19.3766L19.6469 18.2297C19.4531 18.0359 19.4531 17.7172 19.6469 17.5234C19.8406 17.3297 20.1594 17.3297 20.3531 17.5234L21.5 18.6703L22.6469 17.5234C22.8406 17.3297 23.1594 17.3297 23.3531 17.5234C23.5469 17.7172 23.5469 18.0359 23.3531 18.2297L22.2062 19.3766L23.3531 20.5234Z" fill="currentColor"/>
</svg>
