<svg viewBox="0 0 33 32" fill="none" xmlns="http://www.w3.org/2000/svg">
<path d="M19.2148 14.2868V9.71588H23.7857V14.2868H19.2148ZM17.5007 14.2868C17.5007 15.2331 18.2684 16.0009 19.2148 16.0009H23.7857C24.732 16.0009 25.4998 15.2331 25.4998 14.2868V9.71588C25.4998 8.76956 24.732 8.00179 23.7857 8.00179H19.2148C18.2684 8.00179 17.5007 8.76956 17.5007 9.71588V14.2868ZM12.3941 8.25176C12.0584 7.91608 11.5156 7.91608 11.1835 8.25176L7.75176 11.6799C7.41608 12.0156 7.41608 12.5584 7.75176 12.8905C8.08743 13.2226 8.63023 13.2262 8.96234 12.8905L10.9264 10.9265V23.143C10.9264 23.6179 11.3085 24 11.7835 24C12.2584 24 12.6405 23.6179 12.6405 23.143V10.9265L14.6046 12.8905C14.9402 13.2262 15.483 13.2262 15.8151 12.8905C16.1472 12.5548 16.1508 12.0121 15.8151 11.6799L12.3941 8.25176ZM19.2148 20.0004H21.5002V22.2859H19.2148V20.0004ZM17.5007 20.0004V22.2859C17.5007 23.2322 18.2684 24 19.2148 24H21.5002C22.4465 24 23.2143 23.2322 23.2143 22.2859V20.0004C23.2143 19.0541 22.4465 18.2864 21.5002 18.2864H19.2148C18.2684 18.2864 17.5007 19.0541 17.5007 20.0004Z" fill="currentColor"/>
</svg>
