<svg id="Icon_-_Section" data-name="Icon - Section" xmlns="http://www.w3.org/2000/svg" viewBox="0 0 32 32">
  <rect id="Rectangle_8409" data-name="Rectangle 8409" width="32" height="32" fill="none"/>
  <path id="quote-left-solid" d="M0,100.286A4.285,4.285,0,0,1,4.286,96h.286a1.143,1.143,0,1,1,0,2.286H4.286a2,2,0,0,0-2,2v.286H4.571a2.288,2.288,0,0,1,2.286,2.286v2.286a2.288,2.288,0,0,1-2.286,2.286H2.286A2.288,2.288,0,0,1,0,105.143v-4.857Zm9.143,0A4.285,4.285,0,0,1,13.429,96h.286a1.143,1.143,0,1,1,0,2.286h-.286a2,2,0,0,0-2,2v.286h2.286A2.288,2.288,0,0,1,16,102.857v2.286a2.288,2.288,0,0,1-2.286,2.286H11.429a2.288,2.288,0,0,1-2.286-2.286v-4.857Z" transform="translate(8 -86)" fill="currentColor"/>
</svg>
