<svg viewBox="0 0 32 32" fill="none" xmlns="http://www.w3.org/2000/svg">
<path d="M9.5 11.3344V9.75C9.5 9.33438 9.16562 9 8.75 9C8.33437 9 8 9.33438 8 9.75V13.25C8 13.6656 8.33437 14 8.75 14H12.25C12.6656 14 13 13.6656 13 13.25C13 12.8344 12.6656 12.5 12.25 12.5H10.5219C11.6781 10.6937 13.7 9.5 16 9.5C19.5906 9.5 22.5 12.4094 22.5 16C22.5 19.5906 19.5906 22.5 16 22.5C14.6719 22.5 13.4406 22.1031 12.4156 21.4219C12.0719 21.1938 11.6063 21.2875 11.375 21.6313C11.1437 21.975 11.2406 22.4406 11.5844 22.6719C12.85 23.5125 14.3688 24 16 24C20.4187 24 24 20.4187 24 16C24 11.5813 20.4187 8 16 8C13.3219 8 10.95 9.31562 9.5 11.3344ZM16 12C15.5844 12 15.25 12.3344 15.25 12.75V16C15.25 16.2 15.3281 16.3906 15.4688 16.5312L17.7188 18.7812C18.0125 19.075 18.4875 19.075 18.7781 18.7812C19.0687 18.4875 19.0719 18.0125 18.7781 17.7219L16.7469 15.6906V12.75C16.7469 12.3344 16.4125 12 15.9969 12H16Z" fill="currentcolor"/>
</svg>
