<svg width="32" height="32" viewBox="0 0 32 32" fill="none" xmlns="http://www.w3.org/2000/svg">
<path d="M18.2406 15.1125C18.0813 14.7531 18 14.3656 18 13.9719C18 13.6562 18.0531 13.3438 18.1562 13.0437L19.0219 10.5719L15.95 12.3281C15.1187 12.8031 14.4594 13.5312 14.0719 14.4062L11.1406 21H9.5L12.7 13.7969C13.2188 12.6281 14.0969 11.6594 15.2063 11.025L19.7781 8.4125H19.7812L19.8469 8.375L20.3656 8.07812C20.4531 8.02812 20.5531 8 20.6562 8C20.9844 8 21.25 8.26562 21.25 8.59375V8.64062C21.25 8.7125 21.2375 8.78437 21.2125 8.85312L21.0562 9.29688L21.0094 9.42813L21.0063 9.4375L19.5688 13.5406C19.5188 13.6781 19.4937 13.825 19.4937 13.9719C19.4937 14.1562 19.5312 14.3375 19.6062 14.5031L18.2344 15.1125H18.2406ZM19.6125 14.5031L22.5 21H20.8594L18.2406 15.1125L19.6125 14.5031ZM15.6937 21H14.3063L14.1031 20.3938L12.8406 19.9719C12.6375 19.9062 12.5 19.7156 12.5 19.5C12.5 19.2844 12.6375 19.0938 12.8406 19.025L14.1031 18.6031L14.525 17.3406C14.5938 17.1375 14.7844 17 15 17C15.2156 17 15.4062 17.1375 15.475 17.3406L15.8969 18.6031L17.1594 19.025C17.3625 19.0938 17.5 19.2844 17.5 19.5C17.5 19.7156 17.3625 19.9062 17.1594 19.975L15.8969 20.3969L15.6937 21ZM8 23C8 22.4469 8.44687 22 9 22H23C23.5531 22 24 22.4469 24 23C24 23.5531 23.5531 24 23 24H9C8.44687 24 8 23.5531 8 23ZM16.25 13.25C16.3562 13.25 16.4531 13.3187 16.4875 13.4219L16.6969 14.0531L17.3281 14.2625C17.4312 14.2969 17.5 14.3906 17.5 14.5C17.5 14.6094 17.4312 14.7031 17.3281 14.7375L16.6969 14.9469L16.4875 15.5781C16.4531 15.6813 16.3594 15.75 16.25 15.75C16.1406 15.75 16.0469 15.6813 16.0125 15.5781L15.8031 14.9469L15.1719 14.7375C15.0687 14.7031 15 14.6094 15 14.5C15 14.3906 15.0687 14.2969 15.1719 14.2625L15.8031 14.0531L16.0125 13.4219C16.0469 13.3187 16.1406 13.25 16.25 13.25Z" fill="currentColor"/>
</svg>
