<svg viewBox="0 0 32 32" fill="none" xmlns="http://www.w3.org/2000/svg">
<path d="M23.1724 14.8965C23.631 14.8965 24 14.5276 24 14.069V9.10343C24 8.64481 23.631 8.27585 23.1724 8.27585C22.7138 8.27585 22.3448 8.64481 22.3448 9.10343V11.8655L21.6552 11.0552C20.2414 9.35861 18.1069 8.27585 15.7241 8.27585C11.4586 8.27585 8 11.7345 8 16C8 20.2655 11.4586 23.7241 15.7241 23.7241C17.4621 23.7241 19.069 23.1483 20.3586 22.1793C20.7241 21.9034 20.7966 21.3862 20.5241 21.0207C20.2517 20.6552 19.731 20.5827 19.3655 20.8552C18.3517 21.6172 17.0931 22.069 15.7241 22.069C12.3724 22.069 9.65517 19.3517 9.65517 16C9.65517 12.6483 12.3724 9.93102 15.7241 9.93102C17.5966 9.93102 19.2724 10.7793 20.3862 12.1172L20.3897 12.1241L21.3414 13.2414H18.2069C17.7483 13.2414 17.3793 13.6103 17.3793 14.069C17.3793 14.5276 17.7483 14.8965 18.2069 14.8965H23.1724Z" fill="currentColor"/>
</svg>
