<svg viewBox="0 0 32 32" fill="currentColor" xmlns="http://www.w3.org/2000/svg">
<path d="M16.75 19.2508C16.75 19.6664 16.4156 20.0008 16 20.0008C15.5844 20.0008 15.25 19.6664 15.25 19.2508V10.5602L12.2812 13.5289C11.9875 13.8227 11.5125 13.8227 11.2219 13.5289C10.9312 13.2352 10.9281 12.7602 11.2219 12.4695L15.4688 8.21953C15.7625 7.92578 16.2375 7.92578 16.5281 8.21953L20.7812 12.4695C21.075 12.7633 21.075 13.2383 20.7812 13.5289C20.4875 13.8195 20.0125 13.8227 19.7219 13.5289L16.7531 10.5602V19.2508H16.75ZM17.75 19.0008V17.5008H22C23.1031 17.5008 24 18.3977 24 19.5008V22.0008C24 23.1039 23.1031 24.0008 22 24.0008H10C8.89688 24.0008 8 23.1039 8 22.0008V19.5008C8 18.3977 8.89688 17.5008 10 17.5008H14.25V19.0008H10C9.725 19.0008 9.5 19.2258 9.5 19.5008V22.0008C9.5 22.2758 9.725 22.5008 10 22.5008H22C22.275 22.5008 22.5 22.2758 22.5 22.0008V19.5008C22.5 19.2258 22.275 19.0008 22 19.0008H17.75ZM20 20.7508C20 20.5519 20.079 20.3611 20.2197 20.2205C20.3603 20.0798 20.5511 20.0008 20.75 20.0008C20.9489 20.0008 21.1397 20.0798 21.2803 20.2205C21.421 20.3611 21.5 20.5519 21.5 20.7508C21.5 20.9497 21.421 21.1405 21.2803 21.2811C21.1397 21.4218 20.9489 21.5008 20.75 21.5008C20.5511 21.5008 20.3603 21.4218 20.2197 21.2811C20.079 21.1405 20 20.9497 20 20.7508Z" fill="currentColor"/>
</svg>
