<svg viewBox="0 0 32 32" fill="none" xmlns="http://www.w3.org/2000/svg">
<path d="M15.1567 8C12.6227 8 10.5685 10.0147 10.5685 12.5C10.5685 14.9853 12.6227 17 15.1567 17C17.6907 17 19.7448 14.9853 19.7448 12.5C19.7448 10.0147 17.6907 8 15.1567 8ZM15.1567 15.5C13.4673 15.5 12.0979 14.1569 12.0979 12.5C12.0979 10.8431 13.4673 9.5 15.1567 9.5C16.846 9.5 18.2154 10.8431 18.2154 12.5C18.2154 14.1569 16.846 15.5 15.1567 15.5ZM20.447 18.0441C20.7242 17.9972 20.9568 18.2253 20.9568 18.5034V20.5409C20.9568 20.8159 21.1862 21.0409 21.4666 21.0409H23.5058C23.7894 21.0409 24.0251 21.2722 23.971 21.5441C23.955 21.6222 23.9391 21.7003 23.9168 21.7753C23.4803 23.3753 21.8012 24.3253 20.1698 23.8972C18.5385 23.4691 17.5699 21.8222 18.0064 20.2222C18.325 19.0534 19.3064 18.2316 20.4438 18.0409L20.447 18.0441ZM22.483 17.0816C23.7671 17.2909 24.7771 18.2847 24.9937 19.5441C25.0415 19.8159 24.8089 20.0409 24.5254 20.0409H22.4862C22.2058 20.0409 21.9764 19.8159 21.9764 19.5409V17.5409C21.9764 17.2659 22.2058 17.0378 22.483 17.0816ZM17.5877 24H7.97816C7.4397 24 7 23.5687 7 23.0406C7 20.2562 9.30044 18 12.1393 18H17.6237C17.2169 18.4297 16.8957 18.9381 16.6873 19.5H12.1397C10.3331 19.5 8.83876 20.8 8.57111 22.5H16.6736C16.8756 23.0603 17.1891 23.5688 17.5877 24Z" fill="currentcolor"/>
</svg>
