<svg xmlns="http://www.w3.org/2000/svg" viewBox="0 0 24 24"><g transform="translate(-257 -25)"><rect fill="none" width="24" height="24" transform="translate(257 25)"/><path fill="currentColor" d="M17.5-14.062A.935.935,0,0,0,16.562-15h-.937a.935.935,0,0,0-.937.937V-.937A.935.935,0,0,0,15.625,0h.937A.935.935,0,0,0,17.5-.937ZM6.543-11.469,9.105-8.906H.937A.935.935,0,0,0,0-7.969v.937a.935.935,0,0,0,.937.937H9.105L6.543-3.531a.934.934,0,0,0,0,1.324l.664.664a.934.934,0,0,0,1.324,0l5.293-5.293a.934.934,0,0,0,0-1.324l-5.293-5.3a.934.934,0,0,0-1.324,0l-.664.664A.934.934,0,0,0,6.543-11.469Z" transform="translate(260 45)"/></g></svg>