<svg viewBox="0 0 32 32" fill="none" xmlns="http://www.w3.org/2000/svg">
<path d="M15.4541 22.7688C15.5947 22.9156 15.7916 23 15.9978 23C16.2041 23 16.3978 22.9156 16.5416 22.7688L21.7916 17.2688C22.0791 16.9688 22.0666 16.4938 21.7666 16.2094C21.4666 15.925 20.9916 15.9344 20.7072 16.2344L16.7478 20.3781V9.75C16.7478 9.33437 16.4134 9 15.9978 9C15.5822 9 15.2478 9.33437 15.2478 9.75V20.3781L11.2916 16.2312C11.0041 15.9312 10.5322 15.9219 10.2322 16.2063C9.9322 16.4906 9.92282 16.9656 10.2072 17.2656L15.4572 22.7656L15.4541 22.7688Z" fill="currentColor"/>
</svg>
