<svg viewBox="0 0 32 32" fill="none" xmlns="http://www.w3.org/2000/svg">
<path d="M15.9688 8.59458C16.2625 8.30083 16.7375 8.30083 17.0281 8.59458C17.3187 8.88833 17.3219 9.36333 17.0281 9.65396L15.8094 10.8727L21.25 10.8758C22.7688 10.8758 24 12.1071 24 13.6258V14.8758C24 15.2915 23.6656 15.6258 23.25 15.6258C22.8344 15.6258 22.5 15.2915 22.5 14.8758V13.6258C22.5 12.9352 21.9406 12.3758 21.25 12.3758H15.8094L17.0281 13.5946C17.3219 13.8883 17.3219 14.3633 17.0281 14.654C16.7344 14.9446 16.2594 14.9477 15.9688 14.654L13.4688 12.154C13.175 11.8602 13.175 11.3852 13.4688 11.0946L15.9688 8.59458ZM16.0312 16.5946L18.5312 19.0946C18.825 19.3883 18.825 19.8633 18.5312 20.154L16.0312 22.654C15.7375 22.9477 15.2625 22.9477 14.9719 22.654C14.6813 22.3602 14.6781 21.8852 14.9719 21.5946L16.1906 20.3758H10.75C10.0594 20.3758 9.5 20.9352 9.5 21.6258V22.8758C9.5 23.2915 9.16562 23.6258 8.75 23.6258C8.33437 23.6258 8 23.2915 8 22.8758V21.6258C8 20.1071 9.23125 18.8758 10.75 18.8758H16.1906L14.9719 17.6571C14.6781 17.3633 14.6781 16.8883 14.9719 16.5977C15.2656 16.3071 15.7406 16.304 16.0312 16.5977V16.5946ZM20 19.6258C20 19.0954 20.2107 18.5867 20.5858 18.2116C20.9609 17.8365 21.4696 17.6258 22 17.6258C22.5304 17.6258 23.0391 17.8365 23.4142 18.2116C23.7893 18.5867 24 19.0954 24 19.6258C24 20.1563 23.7893 20.665 23.4142 21.04C23.0391 21.4151 22.5304 21.6258 22 21.6258C21.4696 21.6258 20.9609 21.4151 20.5858 21.04C20.2107 20.665 20 20.1563 20 19.6258ZM10 13.6258C9.46957 13.6258 8.96086 13.4151 8.58579 13.04C8.21071 12.665 8 12.1563 8 11.6258C8 11.0954 8.21071 10.5867 8.58579 10.2116C8.96086 9.83654 9.46957 9.62583 10 9.62583C10.5304 9.62583 11.0391 9.83654 11.4142 10.2116C11.7893 10.5867 12 11.0954 12 11.6258C12 12.1563 11.7893 12.665 11.4142 13.04C11.0391 13.4151 10.5304 13.6258 10 13.6258Z" fill="currentColor"/>
</svg>
