<svg viewBox="0 0 32 32" fill="none" xmlns="http://www.w3.org/2000/svg">
<path d="M16.5459 9.23125C16.4022 9.08438 16.2084 9 16.0022 9C15.7959 9 15.6022 9.08438 15.4584 9.23125L10.2084 14.7312C9.9209 15.0312 9.9334 15.5062 10.2334 15.7906C10.5334 16.075 11.0084 16.0656 11.2928 15.7656L15.2522 11.6219V22.25C15.2522 22.6656 15.5865 23 16.0022 23C16.4178 23 16.7522 22.6656 16.7522 22.25V11.6219L20.7084 15.7688C20.9959 16.0688 21.4678 16.0781 21.7678 15.7937C22.0678 15.5094 22.0772 15.0344 21.7928 14.7344L16.5428 9.23438L16.5459 9.23125Z" fill="currentColor"/>
</svg>
