<svg
  width="12"
  height="8"
  viewBox="0 0 12 8"
  fill="currentColor"
  xmlns="http://www.w3.org/2000/svg"
>
  <path d="M11.8092 2.14949L6.49433 7.23903C6.36217 7.36473 6.18978 7.43957 6.00771 7.4503C5.83635 7.44624 5.67231 7.38006 5.54611 7.26407L0.206241 2.14648C0.142994 2.08586 0.0923057 2.01338 0.0570702 1.93318C0.0218347 1.85297 0.00274231 1.76661 0.000882742 1.67902C-0.000976826 1.59143 0.0144325 1.50434 0.046232 1.42271C0.0780315 1.34108 0.125599 1.26651 0.186216 1.20326C0.246833 1.14002 0.319314 1.08934 0.399521 1.0541C0.479728 1.01887 0.56609 0.999767 0.653675 0.997907C0.741261 0.996048 0.828355 1.01145 0.909985 1.04325C0.991615 1.07505 1.06618 1.12262 1.12943 1.18323L6.0067 5.86226L10.885 1.18925C11.0131 1.07184 11.182 1.00915 11.3557 1.01459C11.5294 1.02004 11.6941 1.09318 11.8146 1.21839C11.9351 1.3436 12.0019 1.51097 12.0007 1.68475C11.9995 1.85853 11.9304 2.02495 11.8082 2.14848L11.8092 2.14949Z" />
</svg>