<svg viewBox="0 0 32 32" fill="none" xmlns="http://www.w3.org/2000/svg">
<path d="M16 9.5C17.7239 9.5 19.3772 10.1848 20.5962 11.4038C21.8152 12.6228 22.5 14.2761 22.5 16C22.5 17.7239 21.8152 19.3772 20.5962 20.5962C19.3772 21.8152 17.7239 22.5 16 22.5C14.2761 22.5 12.6228 21.8152 11.4038 20.5962C10.1848 19.3772 9.5 17.7239 9.5 16C9.5 14.2761 10.1848 12.6228 11.4038 11.4038C12.6228 10.1848 14.2761 9.5 16 9.5ZM16 24C18.1217 24 20.1566 23.1571 21.6569 21.6569C23.1571 20.1566 24 18.1217 24 16C24 13.8783 23.1571 11.8434 21.6569 10.3431C20.1566 8.84285 18.1217 8 16 8C13.8783 8 11.8434 8.84285 10.3431 10.3431C8.84285 11.8434 8 13.8783 8 16C8 18.1217 8.84285 20.1566 10.3431 21.6569C11.8434 23.1571 13.8783 24 16 24ZM12.2219 14.7937C12.0813 14.925 12 15.1094 12 15.3031C12 15.6875 12.3125 16 12.6969 16H14.5V19C14.5 19.5531 14.9469 20 15.5 20H16.5C17.0531 20 17.5 19.5531 17.5 19V16H19.3031C19.6875 16 20 15.6875 20 15.3031C20 15.1094 19.9187 14.925 19.7781 14.7937L16.4312 11.6719C16.3125 11.5625 16.1594 11.5 16 11.5C15.8406 11.5 15.6844 11.5625 15.5687 11.6719L12.2219 14.7937Z" fill="currentColor"/>
</svg>
