<svg viewBox="0 0 32 32" fill="none" xmlns="http://www.w3.org/2000/svg">
<path d="M16 22.5C14.2761 22.5 12.6228 21.8152 11.4038 20.5962C10.1848 19.3772 9.5 17.7239 9.5 16C9.5 14.2761 10.1848 12.6228 11.4038 11.4038C12.6228 10.1848 14.2761 9.5 16 9.5C17.7239 9.5 19.3772 10.1848 20.5962 11.4038C21.8152 12.6228 22.5 14.2761 22.5 16C22.5 17.7239 21.8152 19.3772 20.5962 20.5962C19.3772 21.8152 17.7239 22.5 16 22.5ZM16 8C13.8783 8 11.8434 8.84285 10.3431 10.3431C8.84285 11.8434 8 13.8783 8 16C8 18.1217 8.84285 20.1566 10.3431 21.6569C11.8434 23.1571 13.8783 24 16 24C18.1217 24 20.1566 23.1571 21.6569 21.6569C23.1571 20.1566 24 18.1217 24 16C24 13.8783 23.1571 11.8434 21.6569 10.3431C20.1566 8.84285 18.1217 8 16 8ZM19.7781 17.2063C19.9187 17.075 20 16.8906 20 16.6969C20 16.3125 19.6875 16 19.3031 16H17.5V13C17.5 12.4469 17.0531 12 16.5 12H15.5C14.9469 12 14.5 12.4469 14.5 13V16H12.6969C12.3125 16 12 16.3125 12 16.6969C12 16.8906 12.0813 17.075 12.2219 17.2063L15.5687 20.3281C15.6875 20.4375 15.8406 20.5 16 20.5C16.1594 20.5 16.3156 20.4375 16.4312 20.3281L19.7781 17.2063Z" fill="currentColor"/>
</svg>
