<svg width="32" height="32" viewBox="0 0 32 32" fill="none" xmlns="http://www.w3.org/2000/svg">
<g clip-path="url(#clip0_16350_67)">
<path d="M23.07 8.93003C21.19 7.05003 18.65 6.00003 16 6.00003C13.35 6.00003 10.8 7.05003 8.93 8.93003C7.06 10.81 6 13.35 6 16C6 18.65 7.05 21.2 8.93 23.07C10.81 24.95 13.35 26 16 26C18.65 26 21.2 24.95 23.07 23.07C24.95 21.19 26 18.65 26 16C26 13.35 24.95 10.8 23.07 8.93003ZM20.93 16.71L17.46 20.18C17.27 20.37 17.01 20.48 16.74 20.48C16.47 20.48 16.21 20.37 16.02 20.18C15.63 19.78 15.63 19.14 16.02 18.75L17.76 17.01H11.78C11.22 17.01 10.77 16.55 10.77 15.99C10.77 15.43 11.22 14.98 11.78 14.98H17.76L16.02 13.24C15.83 13.05 15.72 12.79 15.72 12.52C15.72 12.25 15.83 12 16.02 11.81C16.21 11.62 16.47 11.51 16.74 11.51C17.01 11.51 17.26 11.62 17.45 11.81L20.92 15.28C21.11 15.47 21.22 15.73 21.22 16C21.22 16.27 21.11 16.52 20.92 16.71H20.93Z" fill="currentColor"/>
</g>
<defs>
<clipPath id="clip0_16350_67">
<rect width="20" height="20" fill="white" transform="translate(6 6.00003)"/>
</clipPath>
</defs>
</svg>
