<svg viewBox="0 0 32 32" fill="none" xmlns="http://www.w3.org/2000/svg">
<g clip-path="url(#clip0_24966_23388)">
<path d="M29 16C29 12.5522 27.6304 9.24558 25.1924 6.80761C22.7544 4.36964 19.4478 3 16 3C12.5522 3 9.24558 4.36964 6.80761 6.80761C4.36964 9.24558 3 12.5522 3 16C3 19.4478 4.36964 22.7544 6.80761 25.1924C9.24558 27.6304 12.5522 29 16 29C19.4478 29 22.7544 27.6304 25.1924 25.1924C27.6304 22.7544 29 19.4478 29 16ZM0 16C0 11.7565 1.68571 7.68687 4.68629 4.68629C7.68687 1.68571 11.7565 0 16 0C20.2435 0 24.3131 1.68571 27.3137 4.68629C30.3143 7.68687 32 11.7565 32 16C32 20.2435 30.3143 24.3131 27.3137 27.3137C24.3131 30.3143 20.2435 32 16 32C11.7565 32 7.68687 30.3143 4.68629 27.3137C1.68571 24.3131 0 20.2435 0 16ZM8.16875 19.6187C7.90625 18.7687 8.6125 18 9.5 18H22.7812C23.6688 18 24.375 18.775 24.1125 19.6187C23.0625 23.025 19.8875 25.5 16.1375 25.5C12.3875 25.5 9.2125 23.025 8.16875 19.6187ZM13.6 14.3L13.5875 14.2875C13.575 14.275 13.5625 14.2562 13.5437 14.2312C13.5062 14.1812 13.4437 14.1062 13.3687 14.0188C13.2125 13.8438 12.9937 13.6062 12.7312 13.375C12.1812 12.8875 11.5562 12.5 11 12.5C10.4438 12.5 9.81875 12.8875 9.26875 13.375C9.00625 13.6062 8.7875 13.8438 8.63125 14.0188C8.55625 14.1062 8.49375 14.1812 8.45625 14.2312C8.4375 14.2562 8.41875 14.275 8.4125 14.2875L8.4 14.3C8.26875 14.475 8.04375 14.5438 7.84375 14.475C7.64375 14.4062 7.5 14.2188 7.5 14C7.5 12.8813 7.91875 11.775 8.5375 10.95C9.15 10.1375 10.0312 9.5 11 9.5C11.9688 9.5 12.85 10.1375 13.4625 10.95C14.0812 11.775 14.5 12.8813 14.5 14C14.5 14.2125 14.3625 14.4062 14.1562 14.475C13.95 14.5438 13.725 14.475 13.6 14.3ZM23.6 14.3L23.5875 14.2875C23.575 14.275 23.5625 14.2562 23.5438 14.2312C23.5063 14.1812 23.4438 14.1062 23.3687 14.0188C23.2125 13.8438 22.9938 13.6062 22.7313 13.375C22.1813 12.8875 21.5562 12.5 21 12.5C20.4438 12.5 19.8187 12.8875 19.2687 13.375C19.0062 13.6062 18.7875 13.8438 18.6313 14.0188C18.5562 14.1062 18.4937 14.1812 18.4562 14.2312C18.4375 14.2562 18.4188 14.275 18.4125 14.2875L18.4 14.3C18.2687 14.475 18.0438 14.5438 17.8438 14.475C17.6437 14.4062 17.5 14.2188 17.5 14C17.5 12.8813 17.9188 11.775 18.5375 10.95C19.15 10.1375 20.0312 9.5 21 9.5C21.9688 9.5 22.85 10.1375 23.4625 10.95C24.0812 11.775 24.5 12.8813 24.5 14C24.5 14.2125 24.3625 14.4062 24.1562 14.475C23.95 14.5438 23.725 14.475 23.6 14.3Z" fill="currentcolor"/>
</g>
<defs>
<clipPath id="clip0_24966_23388">
<rect width="32" height="32" fill="white"/>
</clipPath>
</defs>
</svg>
