<svg viewBox="0 0 32 32" fill="none" xmlns="http://www.w3.org/2000/svg">
<g clip-path="url(#clip0_24966_23384)">
<path d="M29 16C29 12.5522 27.6304 9.24558 25.1924 6.80761C22.7544 4.36964 19.4478 3 16 3C12.5522 3 9.24558 4.36964 6.80761 6.80761C4.36964 9.24558 3 12.5522 3 16C3 19.4478 4.36964 22.7544 6.80761 25.1924C9.24558 27.6304 12.5522 29 16 29C19.4478 29 22.7544 27.6304 25.1924 25.1924C27.6304 22.7544 29 19.4478 29 16ZM0 16C0 11.7565 1.68571 7.68687 4.68629 4.68629C7.68687 1.68571 11.7565 0 16 0C20.2435 0 24.3131 1.68571 27.3137 4.68629C30.3143 7.68687 32 11.7565 32 16C32 20.2435 30.3143 24.3131 27.3137 27.3137C24.3131 30.3143 20.2435 32 16 32C11.7565 32 7.68687 30.3143 4.68629 27.3137C1.68571 24.3131 0 20.2435 0 16ZM11.1 19.8813C12.05 20.9062 13.675 22 16 22C18.325 22 19.95 20.9062 20.9 19.8813C21.4625 19.275 22.4125 19.2313 23.0187 19.7938C23.625 20.3563 23.6688 21.3062 23.1063 21.9125C21.7313 23.4 19.3563 25 16.0063 25C12.6562 25 10.275 23.4062 8.90625 21.9125C8.34375 21.3062 8.38125 20.3563 8.99375 19.7938C9.60625 19.2313 10.55 19.2688 11.1125 19.8813H11.1ZM10.975 13.75C10.3125 13.75 9.73125 13.9875 9.3875 14.3562C8.9125 14.8625 8.125 14.8875 7.61875 14.4125C7.1125 13.9375 7.0875 13.15 7.5625 12.6438C8.46875 11.675 9.7625 11.25 10.975 11.25C12.1875 11.25 13.4812 11.675 14.3875 12.6438C14.8625 13.15 14.8313 13.9375 14.3313 14.4125C13.8313 14.8875 13.0375 14.8562 12.5625 14.3562C12.2188 13.9937 11.6375 13.75 10.975 13.75ZM19.3875 14.3562C18.9125 14.8625 18.125 14.8875 17.6187 14.4125C17.1125 13.9375 17.0875 13.15 17.5625 12.6438C18.4688 11.675 19.7625 11.25 20.975 11.25C22.1875 11.25 23.4813 11.675 24.3875 12.6438C24.8625 13.15 24.8312 13.9375 24.3312 14.4125C23.8312 14.8875 23.0375 14.8562 22.5625 14.3562C22.2188 13.9937 21.6375 13.75 20.975 13.75C20.3125 13.75 19.7313 13.9875 19.3875 14.3562Z" fill="currentcolor"/>
</g>
<defs>
<clipPath id="clip0_24966_23384">
<rect width="32" height="32" fill="white"/>
</clipPath>
</defs>
</svg>
