<svg viewBox="0 0 32 32" fill="none" xmlns="http://www.w3.org/2000/svg">
<g clip-path="url(#clip0_24966_23380)">
<path d="M29 16C29 19.4478 27.6304 22.7544 25.1924 25.1924C22.7544 27.6304 19.4478 29 16 29C12.5522 29 9.24558 27.6304 6.80761 25.1924C4.36964 22.7544 3 19.4478 3 16C3 12.5522 4.36964 9.24558 6.80761 6.80761C9.24558 4.36964 12.5522 3 16 3C19.4478 3 22.7544 4.36964 25.1924 6.80761C27.6304 9.24558 29 12.5522 29 16ZM16 0C11.7565 0 7.68687 1.68571 4.68629 4.68629C1.68571 7.68687 0 11.7565 0 16C0 20.2435 1.68571 24.3131 4.68629 27.3137C7.68687 30.3143 11.7565 32 16 32C20.2435 32 24.3131 30.3143 27.3137 27.3137C30.3143 24.3131 32 20.2435 32 16C32 11.7565 30.3143 7.68687 27.3137 4.68629C24.3131 1.68571 20.2435 0 16 0ZM11.025 15C11.5554 15 12.0641 14.7893 12.4392 14.4142C12.8143 14.0391 13.025 13.5304 13.025 13C13.025 12.4696 12.8143 11.9609 12.4392 11.5858C12.0641 11.2107 11.5554 11 11.025 11C10.4946 11 9.98586 11.2107 9.61079 11.5858C9.23571 11.9609 9.025 12.4696 9.025 13C9.025 13.5304 9.23571 14.0391 9.61079 14.4142C9.98586 14.7893 10.4946 15 11.025 15ZM23.025 13C23.025 12.4696 22.8143 11.9609 22.4392 11.5858C22.0641 11.2107 21.5554 11 21.025 11C20.4946 11 19.9859 11.2107 19.6108 11.5858C19.2357 11.9609 19.025 12.4696 19.025 13C19.025 13.5304 19.2357 14.0391 19.6108 14.4142C19.9859 14.7893 20.4946 15 21.025 15C21.5554 15 22.0641 14.7893 22.4392 14.4142C22.8143 14.0391 23.025 13.5304 23.025 13ZM11.5 20.5C10.6687 20.5 10 21.1688 10 22C10 22.8312 10.6687 23.5 11.5 23.5H20.5C21.3312 23.5 22 22.8312 22 22C22 21.1688 21.3312 20.5 20.5 20.5H11.5Z" fill="currentcolor"/>
</g>
<defs>
<clipPath id="clip0_24966_23380">
<rect width="32" height="32" fill="white"/>
</clipPath>
</defs>
</svg>
