<svg viewBox="0 0 33 32" fill="none" xmlns="http://www.w3.org/2000/svg">
<g clip-path="url(#clip0_67318_91198)">
<path d="M29.5 16C29.5 12.5522 28.1304 9.24558 25.6924 6.80761C23.2544 4.36964 19.9478 3 16.5 3C13.0522 3 9.74558 4.36964 7.30761 6.80761C4.86964 9.24558 3.5 12.5522 3.5 16C3.5 19.4478 4.86964 22.7544 7.30761 25.1924C9.74558 27.6304 13.0522 29 16.5 29C19.9478 29 23.2544 27.6304 25.6924 25.1924C28.1304 22.7544 29.5 19.4478 29.5 16ZM0.5 16C0.5 11.7565 2.18571 7.68687 5.18629 4.68629C8.18687 1.68571 12.2565 0 16.5 0C20.7435 0 24.8131 1.68571 27.8137 4.68629C30.8143 7.68687 32.5 11.7565 32.5 16C32.5 20.2435 30.8143 24.3131 27.8137 27.3137C24.8131 30.3143 20.7435 32 16.5 32C12.2565 32 8.18687 30.3143 5.18629 27.3137C2.18571 24.3131 0.5 20.2435 0.5 16ZM11.6 19.8813C12.55 20.9062 14.175 22 16.5 22C18.825 22 20.45 20.9062 21.4 19.8813C21.9625 19.275 22.9125 19.2313 23.5187 19.7938C24.125 20.3563 24.1688 21.3062 23.6063 21.9125C22.2313 23.4 19.8563 25 16.5063 25C13.1562 25 10.775 23.4062 9.40625 21.9125C8.84375 21.3062 8.88125 20.3563 9.49375 19.7938C10.1062 19.2313 11.05 19.2688 11.6125 19.8813H11.6ZM9.525 13C9.525 12.4696 9.73571 11.9609 10.1108 11.5858C10.4859 11.2107 10.9946 11 11.525 11C12.0554 11 12.5641 11.2107 12.9392 11.5858C13.3143 11.9609 13.525 12.4696 13.525 13C13.525 13.5304 13.3143 14.0391 12.9392 14.4142C12.5641 14.7893 12.0554 15 11.525 15C10.9946 15 10.4859 14.7893 10.1108 14.4142C9.73571 14.0391 9.525 13.5304 9.525 13ZM21.525 11C22.0554 11 22.5641 11.2107 22.9392 11.5858C23.3143 11.9609 23.525 12.4696 23.525 13C23.525 13.5304 23.3143 14.0391 22.9392 14.4142C22.5641 14.7893 22.0554 15 21.525 15C20.9946 15 20.4859 14.7893 20.1108 14.4142C19.7357 14.0391 19.525 13.5304 19.525 13C19.525 12.4696 19.7357 11.9609 20.1108 11.5858C20.4859 11.2107 20.9946 11 21.525 11Z" fill="currentColor"/>
</g>
<defs>
<clipPath id="clip0_67318_91198">
<rect width="32" height="32" fill="white"/>
</clipPath>
</defs>
</svg>
