<svg viewBox="0 0 32 32" fill="none" xmlns="http://www.w3.org/2000/svg">
<g clip-path="url(#clip0_24966_23377)">
<path d="M29 16C29 12.5522 27.6304 9.24558 25.1924 6.80761C22.7544 4.36964 19.4478 3 16 3C12.5522 3 9.24558 4.36964 6.80761 6.80761C4.36964 9.24558 3 12.5522 3 16C3 19.4478 4.36964 22.7544 6.80761 25.1924C9.24558 27.6304 12.5522 29 16 29C19.4478 29 22.7544 27.6304 25.1924 25.1924C27.6304 22.7544 29 19.4478 29 16ZM0 16C0 11.7565 1.68571 7.68687 4.68629 4.68629C7.68687 1.68571 11.7565 0 16 0C20.2435 0 24.3131 1.68571 27.3137 4.68629C30.3143 7.68687 32 11.7565 32 16C32 20.2435 30.3143 24.3131 27.3137 27.3137C24.3131 30.3143 20.2435 32 16 32C11.7565 32 7.68687 30.3143 4.68629 27.3137C1.68571 24.3131 0 20.2435 0 16ZM20.9 24.1187C19.95 23.0938 18.325 22 16 22C13.675 22 12.05 23.0938 11.1 24.1187C10.5375 24.725 9.5875 24.7687 8.98125 24.2062C8.375 23.6437 8.33125 22.6938 8.89375 22.0875C10.2688 20.6 12.6437 19 15.9937 19C19.3438 19 21.725 20.5938 23.0938 22.0875C23.6562 22.6938 23.6187 23.6437 23.0063 24.2062C22.3938 24.7687 21.45 24.7312 20.8875 24.1187H20.9ZM9.025 13C9.025 12.4696 9.23571 11.9609 9.61079 11.5858C9.98586 11.2107 10.4946 11 11.025 11C11.5554 11 12.0641 11.2107 12.4392 11.5858C12.8143 11.9609 13.025 12.4696 13.025 13C13.025 13.5304 12.8143 14.0391 12.4392 14.4142C12.0641 14.7893 11.5554 15 11.025 15C10.4946 15 9.98586 14.7893 9.61079 14.4142C9.23571 14.0391 9.025 13.5304 9.025 13ZM21.025 11C21.5554 11 22.0641 11.2107 22.4392 11.5858C22.8143 11.9609 23.025 12.4696 23.025 13C23.025 13.5304 22.8143 14.0391 22.4392 14.4142C22.0641 14.7893 21.5554 15 21.025 15C20.4946 15 19.9859 14.7893 19.6108 14.4142C19.2357 14.0391 19.025 13.5304 19.025 13C19.025 12.4696 19.2357 11.9609 19.6108 11.5858C19.9859 11.2107 20.4946 11 21.025 11Z" fill="currentColor"/>
</g>
<defs>
<clipPath id="clip0_24966_23377">
<rect width="32" height="32" fill="white"/>
</clipPath>
</defs>
</svg>
