<svg viewBox="0 0 32 32" fill="none" xmlns="http://www.w3.org/2000/svg">
  <g transform="scale(0.380952381)">
    <g stroke="currentColor" stroke-linecap="round" stroke-linejoin="round" stroke-width="4">
      <path d="m56 35c0 1.8565-.7375 3.637-2.0503 4.9497-1.3127 1.3128-3.0932 2.0503-4.9497 2.0503h-25.102c-1.8564.0004-3.6366.7382-4.949 2.051l-7.707 7.707c-.3475.3475-.7903.5841-1.27229.68-.482.0958-.9816.0466-1.43564-.1415-.45403-.188-.84211-.5065-1.11517-.9151s-.41884-.889-.4189-1.3804v-36.001c0-1.8565.7375-3.637 2.05025-4.94975s3.09325-2.05025 4.94975-2.05025h35c1.8565 0 3.637.7375 4.9497 2.05025 1.3128 1.31275 2.0503 3.09325 2.0503 4.94975z" />
      <path d="m70 31.5c1.8565 0 3.637.7375 4.9497 2.0503 1.3128 1.3127 2.0503 3.0932 2.0503 4.9497v36.001c-.0001.4914-.1458.9718-.4189 1.3804s-.6611.7271-1.1152.9151c-.454.1881-.9536.2373-1.4356.1415-.482-.0959-.9248-.3325-1.2723-.68l-7.707-7.707c-1.3124-1.3128-3.0926-2.0506-4.949-2.051h-25.102c-1.8565 0-3.637-.7375-4.9497-2.0503-1.3128-1.3127-2.0503-3.0932-2.0503-4.9497v-3.5" />
    </g>
  </g>
</svg>
