<svg viewBox="0 0 32 32" fill="none" xmlns="http://www.w3.org/2000/svg">
  <g transform="scale(0.380952381)">
    <path
      d="M24.0756 20.1321C22.8876 20.1321 21.9246 21.0951 21.9246 22.283C21.9246 23.471 22.8876 24.434 24.0756 24.434V22.283V20.1321ZM52.7549 24.434C53.943 24.434 54.9059 23.471 54.9059 22.283C54.9059 21.0951 53.943 20.1321 52.7549 20.1321V22.283V24.434ZM24.0756 55.9811C22.8876 55.9811 21.9246 56.944 21.9246 58.1321C21.9246 59.3201 22.8876 60.283 24.0756 60.283V58.1321V55.9811ZM38.4153 60.283C39.6032 60.283 40.5662 59.3201 40.5662 58.1321C40.5662 56.944 39.6032 55.9811 38.4153 55.9811V58.1321V60.283ZM68.5286 38.4151C68.5286 39.603 69.4915 40.566 70.6796 40.566C71.8676 40.566 72.8305 39.603 72.8305 38.4151H70.6796H68.5286ZM40.2077 80C41.3958 80 42.3587 79.0371 42.3587 77.8491C42.3587 76.661 41.3958 75.6981 40.2077 75.6981V77.8491V80ZM24.0756 38.0566C22.8876 38.0566 21.9246 39.0196 21.9246 40.2076C21.9246 41.3956 22.8876 42.3585 24.0756 42.3585V40.2076V38.0566ZM52.7549 42.3585C53.943 42.3585 54.9059 41.3956 54.9059 40.2076C54.9059 39.0196 53.943 38.0566 52.7549 38.0566V40.2076V42.3585ZM76.8546 64.8186L76.0924 62.8068L76.0469 62.8251L76.8546 64.8186ZM64.9584 76.9073L62.9515 76.1322L62.9415 76.1591L64.9584 76.9073ZM62.0202 76.9073L60.0105 77.6752L60.0227 77.7057L62.0202 76.9073ZM50.1595 64.8186L50.9675 62.8247L50.9216 62.8072L50.1595 64.8186ZM62.0202 50.1116L64.0292 50.8795L64.0367 50.8597L62.0202 50.1116ZM64.9584 50.1116L66.9649 49.3362L66.9555 49.3132L64.9584 50.1116ZM76.8546 62.2002L76.0469 64.1942L76.0928 64.2117L76.8546 62.2002ZM24.0756 22.283V24.434H52.7549V22.283V20.1321H24.0756V22.283ZM24.0756 58.1321V60.283H38.4153V58.1321V55.9811H24.0756V58.1321ZM20.4906 6.15094V8.30189H56.3399V6.15094V4H20.4906V6.15094ZM6.15095 63.5094H8.30191V20.4906H6.15095H4V63.5094H6.15095ZM20.4906 77.8491V75.6981C13.759 75.6981 8.30191 70.2412 8.30191 63.5094H6.15095H4C4 72.6169 11.3831 80 20.4906 80V77.8491ZM56.3399 6.15094V8.30189C63.0716 8.30189 68.5286 13.7589 68.5286 20.4906H70.6796H72.8305C72.8305 11.3831 65.4474 4 56.3399 4V6.15094ZM20.4906 6.15094V4C11.3831 4 4 11.3831 4 20.4906H6.15095H8.30191C8.30191 13.7589 13.759 8.30189 20.4906 8.30189V6.15094ZM70.6796 20.4906H68.5286V38.4151H70.6796H72.8305V20.4906H70.6796ZM40.2077 77.8491V75.6981H20.4906V77.8491V80H40.2077V77.8491ZM24.0756 40.2076V42.3585H52.7549V40.2076V38.0566H24.0756V40.2076ZM76.8546 64.8186L76.0469 62.8251C71.9497 64.4849 69.2843 65.5184 67.4094 67.4242C65.5338 69.3295 64.544 72.0107 62.9515 76.1322L64.9584 76.9073L66.9649 77.6827C68.7018 73.1862 69.3768 71.5579 70.4756 70.4416C71.5744 69.3249 73.1926 68.6229 77.6623 66.8122L76.8546 64.8186ZM64.9584 76.9073L62.9415 76.1591C63.0057 75.9863 63.1308 75.8519 63.2555 75.7759C63.3652 75.7092 63.4531 75.6981 63.5025 75.6981C63.5527 75.6981 63.6316 75.7092 63.7288 75.7673C63.8395 75.8336 63.9546 75.9526 64.0173 76.1093L62.0202 76.9073L60.0227 77.7057C60.6697 79.3246 62.2134 80 63.5025 80C64.7917 80 66.3579 79.3189 66.9749 77.6555L64.9584 76.9073ZM62.0202 76.9073L64.0292 76.1394C62.4547 72.0193 61.4749 69.3345 59.6025 67.4263C57.7312 65.5188 55.0636 64.4842 50.9675 62.8247L50.1595 64.8186L49.3518 66.8122C53.8229 68.6237 55.4383 69.3245 56.532 70.4391C57.6247 71.5529 58.2915 73.1776 60.0105 77.6752L62.0202 76.9073ZM50.1595 64.8186L50.9216 62.8072C50.9474 62.8172 51.0543 62.8685 51.1571 63.0104C51.2586 63.1506 51.321 63.3327 51.3206 63.5266C51.3192 63.9633 51.0353 64.1662 50.9672 64.1938L50.1595 62.2002L49.3518 60.2067C47.9698 60.7666 47.0227 62.0274 47.0187 63.5148C47.0144 65.0187 47.9766 66.292 49.3977 66.8301L50.1595 64.8186ZM50.1595 62.2002L50.9672 64.1938C55.0633 62.5343 57.7312 61.5001 59.6025 59.5926C61.4749 57.684 62.4547 54.9996 64.0292 50.8795L62.0202 50.1116L60.0108 49.3437C58.2919 53.8413 57.6247 55.466 56.532 56.5798C55.4383 57.6944 53.8229 58.3952 49.3518 60.2067L50.1595 62.2002ZM62.0202 50.1116L64.0367 50.8597C63.9725 51.0325 63.8478 51.167 63.7227 51.243C63.613 51.3096 63.5251 51.3208 63.4757 51.3208C63.4258 51.3208 63.3466 51.3096 63.2495 51.2516C63.1387 51.1852 63.0236 51.0662 62.9609 50.9096L64.9584 50.1116L66.9555 49.3132C66.3088 47.6943 64.7648 47.0189 63.4757 47.0189C62.1869 47.0189 60.6206 47.7 60.0033 49.3634L62.0202 50.1116ZM64.9584 50.1116L62.9519 50.8866C64.5443 55.0082 65.5338 57.689 67.4094 59.5947C69.2843 61.5005 71.9497 62.5343 76.0469 64.1942L76.8546 62.2002L77.6623 60.2067C73.1926 58.3959 71.5744 57.694 70.4756 56.5773C69.3768 55.461 68.7018 53.8327 66.9649 49.3362L64.9584 50.1116ZM76.8546 62.2002L76.0928 64.2117C76.0605 64.1995 75.9551 64.1465 75.8558 64.0088C75.7587 63.874 75.6981 63.6991 75.6981 63.5094C75.6981 63.3198 75.7587 63.1449 75.8558 63.0101C75.9551 62.8724 76.0602 62.819 76.0924 62.8068L76.8546 64.8186L77.6164 66.8301C79.0478 66.2881 80 65.0025 80 63.5094C80 62.0163 79.0478 60.7308 77.6164 60.1887L76.8546 62.2002Z"
      fill="currentColor"
    />
  </g>
</svg>
