<svg viewBox="0 0 32 32" fill="none" xmlns="http://www.w3.org/2000/svg">
<path d="M7.35714 23.8571C7.35714 24.2893 7.71071 24.6429 8.14286 24.6429H23.8571C24.2893 24.6429 24.6429 24.2893 24.6429 23.8571V8.14286C24.6429 7.71071 24.2893 7.35714 23.8571 7.35714H8.14286C7.71071 7.35714 7.35714 7.71071 7.35714 8.14286V23.8571ZM5 8.14286C5 6.40938 6.40938 5 8.14286 5H23.8571C25.5906 5 27 6.40938 27 8.14286V23.8571C27 25.5906 25.5906 27 23.8571 27H8.14286C6.40938 27 5 25.5906 5 23.8571V8.14286ZM9.71429 12.0714C9.71429 11.4183 10.2397 10.8929 10.8929 10.8929H12.4643V10.1071C12.4643 9.45402 12.9897 8.92857 13.6429 8.92857C14.296 8.92857 14.8214 9.45402 14.8214 10.1071V10.8929H21.1071C21.7603 10.8929 22.2857 11.4183 22.2857 12.0714C22.2857 12.7246 21.7603 13.25 21.1071 13.25H14.8214V14.0357C14.8214 14.6888 14.296 15.2143 13.6429 15.2143C12.9897 15.2143 12.4643 14.6888 12.4643 14.0357V13.25H10.8929C10.2397 13.25 9.71429 12.7246 9.71429 12.0714ZM10.8929 21.1071C10.2397 21.1071 9.71429 20.5817 9.71429 19.9286C9.71429 19.2754 10.2397 18.75 10.8929 18.75H17.1786V17.9643C17.1786 17.3112 17.704 16.7857 18.3571 16.7857C19.0103 16.7857 19.5357 17.3112 19.5357 17.9643V18.75H21.1071C21.7603 18.75 22.2857 19.2754 22.2857 19.9286C22.2857 20.5817 21.7603 21.1071 21.1071 21.1071H19.5357V21.8929C19.5357 22.546 19.0103 23.0714 18.3571 23.0714C17.704 23.0714 17.1786 22.546 17.1786 21.8929V21.1071H10.8929Z" fill="currentColor"/>
</svg>
