<svg viewBox="0 0 32 32" fill="none" xmlns="http://www.w3.org/2000/svg">
<path d="M4.90001 6.66663C4.40126 6.66663 4 7.05673 4 7.54163C4 8.02652 4.40126 8.41663 4.90001 8.41663H6.85379L9.11508 19.9557C9.19758 20.3677 9.56884 20.6666 10.0001 20.6666H16.0264C16.0077 20.4734 16.0002 20.2802 16.0002 20.0833C16.0002 19.6859 16.0377 19.2958 16.1089 18.9166H10.7464L10.4051 17.1666H16.7202C17.0652 16.5104 17.5227 15.9198 18.0702 15.4166H10.0601L8.91633 9.58329H23.5228L22.3415 13.6703C22.4278 13.6666 22.514 13.6666 22.6003 13.6666C23.1365 13.6666 23.6616 13.7286 24.1603 13.8453L25.4728 9.3135C25.6866 8.5734 25.1128 7.83329 24.3178 7.83329H8.57507L8.48507 7.37756C8.40257 6.96558 8.03131 6.66663 7.60006 6.66663H4.90001ZM10.6001 25.3333C11.5942 25.3333 12.4001 24.5498 12.4001 23.5833C12.4001 22.6168 11.5942 21.8333 10.6001 21.8333C9.60596 21.8333 8.80008 22.6168 8.80008 23.5833C8.80008 24.5498 9.60596 25.3333 10.6001 25.3333ZM22.6003 24.3489C22.7563 24.3489 23.1699 24.2013 23.6046 23.3565C23.7902 22.9934 23.9503 22.5526 24.0688 22.052H21.1325C21.2506 22.5523 21.4108 22.9934 21.5968 23.3565C22.0314 24.2013 22.4439 24.3489 22.6003 24.3489ZM20.9656 21.0677H24.2353C24.2691 20.7538 24.2882 20.4238 24.2882 20.0833C24.2882 19.7428 24.2691 19.4128 24.2353 19.0989H20.9656C20.9319 19.4128 20.9128 19.7428 20.9128 20.0833C20.9128 20.4238 20.9319 20.7538 20.9656 21.0677ZM21.1321 18.1145H24.0684C23.9503 17.6143 23.7898 17.1732 23.6042 16.8104C23.1696 15.9653 22.7563 15.8177 22.5999 15.8177C22.4435 15.8177 22.0303 15.9653 21.5956 16.8104C21.41 17.1736 21.2506 17.6143 21.1321 18.1145ZM25.252 19.0989C25.2835 19.4168 25.2985 19.7471 25.2985 20.0833C25.2985 20.4194 25.2816 20.7498 25.252 21.0677H26.8697C26.9459 20.7519 26.9879 20.4216 26.9879 20.0833C26.9879 19.745 26.9477 19.4146 26.8697 19.0989H25.252ZM26.4921 18.1145C26.0406 17.2716 25.3086 16.595 24.4164 16.199C24.7138 16.724 24.9501 17.3781 25.1042 18.1145H26.4944H26.4921ZM20.0941 18.1145C20.2483 17.3784 20.4845 16.7262 20.7819 16.199C19.8897 16.595 19.1577 17.2716 18.7062 18.1145H20.0964H20.0941ZM18.3305 19.0989C18.2547 19.4146 18.2123 19.745 18.2123 20.0833C18.2123 20.4216 18.2525 20.7519 18.3305 21.0677H19.9482C19.9167 20.7498 19.9017 20.4194 19.9017 20.0833C19.9017 19.7471 19.9186 19.4168 19.9482 19.0989H18.3305ZM24.4161 23.9676C25.3082 23.5716 26.0402 22.895 26.4917 22.052H25.1038C24.9497 22.7881 24.7134 23.4404 24.4161 23.9676ZM20.7838 23.9676C20.4864 23.4426 20.2501 22.7885 20.096 22.052H18.7059C19.1574 22.895 19.8894 23.5716 20.7815 23.9676H20.7838ZM22.5999 25.3333C19.6175 25.3333 17.1998 22.9828 17.1998 20.0833C17.1998 17.1838 19.6175 14.8333 22.5999 14.8333C25.5823 14.8333 28 17.1838 28 20.0833C28 22.9828 25.5823 25.3333 22.5999 25.3333Z" fill="currentColor"/>
</svg>
