<svg viewBox="0 0 33 32" fill="none" xmlns="http://www.w3.org/2000/svg">
<path d="M9.04764 7.35714C8.6155 7.35714 8.26193 7.71071 8.26193 8.14286V23.8571C8.26193 24.2893 8.6155 24.6429 9.04764 24.6429H24.7619C25.1941 24.6429 25.5476 24.2893 25.5476 23.8571V8.14286C25.5476 7.71071 25.1941 7.35714 24.7619 7.35714H9.04764ZM5.90479 8.14286C5.90479 6.40937 7.31416 5 9.04764 5H24.7619C26.4954 5 27.9048 6.40937 27.9048 8.14286V23.8571C27.9048 25.5906 26.4954 27 24.7619 27H9.04764C7.31416 27 5.90479 25.5906 5.90479 23.8571V8.14286ZM10.6191 11.2857C10.6191 10.8689 10.7846 10.4692 11.0793 10.1745C11.374 9.87985 11.7737 9.71429 12.1905 9.71429C12.6073 9.71429 13.007 9.87985 13.3017 10.1745C13.5964 10.4692 13.7619 10.8689 13.7619 11.2857C13.7619 11.7025 13.5964 12.1022 13.3017 12.3969C13.007 12.6916 12.6073 12.8571 12.1905 12.8571C11.7737 12.8571 11.374 12.6916 11.0793 12.3969C10.7846 12.1022 10.6191 11.7025 10.6191 11.2857ZM15.7262 11.2857C15.7262 10.6326 16.2517 10.1071 16.9048 10.1071H21.6191C22.2722 10.1071 22.7976 10.6326 22.7976 11.2857C22.7976 11.9388 22.2722 12.4643 21.6191 12.4643H16.9048C16.2517 12.4643 15.7262 11.9388 15.7262 11.2857ZM15.7262 16C15.7262 15.3469 16.2517 14.8214 16.9048 14.8214H21.6191C22.2722 14.8214 22.7976 15.3469 22.7976 16C22.7976 16.6531 22.2722 17.1786 21.6191 17.1786H16.9048C16.2517 17.1786 15.7262 16.6531 15.7262 16ZM15.7262 20.7143C15.7262 20.0612 16.2517 19.5357 16.9048 19.5357H21.6191C22.2722 19.5357 22.7976 20.0612 22.7976 20.7143C22.7976 21.3674 22.2722 21.8929 21.6191 21.8929H16.9048C16.2517 21.8929 15.7262 21.3674 15.7262 20.7143ZM12.1905 17.5714C11.7737 17.5714 11.374 17.4059 11.0793 17.1112C10.7846 16.8165 10.6191 16.4168 10.6191 16C10.6191 15.5832 10.7846 15.1835 11.0793 14.8888C11.374 14.5941 11.7737 14.4286 12.1905 14.4286C12.6073 14.4286 13.007 14.5941 13.3017 14.8888C13.5964 15.1835 13.7619 15.5832 13.7619 16C13.7619 16.4168 13.5964 16.8165 13.3017 17.1112C13.007 17.4059 12.6073 17.5714 12.1905 17.5714ZM10.6191 20.7143C10.6191 20.2975 10.7846 19.8978 11.0793 19.6031C11.374 19.3084 11.7737 19.1429 12.1905 19.1429C12.6073 19.1429 13.007 19.3084 13.3017 19.6031C13.5964 19.8978 13.7619 20.2975 13.7619 20.7143C13.7619 21.1311 13.5964 21.5308 13.3017 21.8255C13.007 22.1202 12.6073 22.2857 12.1905 22.2857C11.7737 22.2857 11.374 22.1202 11.0793 21.8255C10.7846 21.5308 10.6191 21.1311 10.6191 20.7143Z" fill="currentColor"/>
</svg>
