<svg viewBox="0 0 32 32" fill="none" xmlns="http://www.w3.org/2000/svg">
<path d="M25.9048 20.125V7.0625C25.9048 6.51549 25.6801 5.99089 25.2801 5.60409C24.8802 5.2173 24.3377 5 23.7721 5H9.55442C8.61173 5 7.70765 5.36216 7.04107 6.00682C6.37448 6.65148 6 7.52582 6 8.4375L6 23.5625C6 24.4742 6.37448 25.3485 7.04107 25.9932C7.70765 26.6378 8.61173 27 9.55442 27H24.8384C25.1212 27 25.3925 26.8913 25.5924 26.698C25.7924 26.5046 25.9048 26.2423 25.9048 25.9688C25.9048 25.6952 25.7924 25.4329 25.5924 25.2395C25.3925 25.0462 25.1212 24.9375 24.8384 24.9375H24.483V22.061C24.8974 21.9193 25.2564 21.6573 25.5109 21.3107C25.7654 20.9642 25.9029 20.5501 25.9048 20.125ZM22.3503 24.9375H9.55442C9.17735 24.9375 8.81571 24.7926 8.54908 24.5348C8.28245 24.2769 8.13265 23.9272 8.13265 23.5625C8.13265 23.1978 8.28245 22.8481 8.54908 22.5902C8.81571 22.3324 9.17735 22.1875 9.55442 22.1875H22.3503V24.9375ZM23.7721 20.125H9.55442C9.06499 20.1241 8.58075 20.222 8.13265 20.4124V8.4375C8.13265 8.07283 8.28245 7.72309 8.54908 7.46523C8.81571 7.20737 9.17735 7.0625 9.55442 7.0625H23.7721V20.125ZM12.7534 11.875H20.5731C20.8559 11.875 21.1272 11.7664 21.3271 11.573C21.5271 11.3796 21.6395 11.1173 21.6395 10.8438C21.6395 10.5702 21.5271 10.3079 21.3271 10.1145C21.1272 9.92115 20.8559 9.8125 20.5731 9.8125H12.7534C12.4706 9.8125 12.1994 9.92115 11.9994 10.1145C11.7994 10.3079 11.6871 10.5702 11.6871 10.8438C11.6871 11.1173 11.7994 11.3796 11.9994 11.573C12.1994 11.7664 12.4706 11.875 12.7534 11.875ZM12.7534 15.3125H20.5731C20.8559 15.3125 21.1272 15.2039 21.3271 15.0105C21.5271 14.8171 21.6395 14.5548 21.6395 14.2812C21.6395 14.0077 21.5271 13.7454 21.3271 13.552C21.1272 13.3586 20.8559 13.25 20.5731 13.25H12.7534C12.4706 13.25 12.1994 13.3586 11.9994 13.552C11.7994 13.7454 11.6871 14.0077 11.6871 14.2812C11.6871 14.5548 11.7994 14.8171 11.9994 15.0105C12.1994 15.2039 12.4706 15.3125 12.7534 15.3125Z" fill="currentColor"/>
</svg>
