<svg viewBox="0 0 32 32" fill="none" xmlns="http://www.w3.org/2000/svg">
<path d="M16 21.5C17.9145 21.5 19.7506 20.7395 21.1044 19.3857C22.4582 18.0319 23.2188 16.1958 23.2188 14.2812C23.2188 12.3667 22.4582 10.5306 21.1044 9.17682C19.7506 7.82304 17.9145 7.0625 16 7.0625C14.0855 7.0625 12.2494 7.82304 10.8956 9.17682C9.54179 10.5306 8.78125 12.3667 8.78125 14.2812C8.78125 16.1958 9.54179 18.0319 10.8956 19.3857C12.2494 20.7395 14.0855 21.5 16 21.5ZM16 23.5625C14.7496 23.5625 13.5551 23.3133 12.468 22.8664L10.8738 24.9375H21.1262L19.532 22.8664C18.4449 23.3133 17.2504 23.5625 16 23.5625ZM25.2812 14.2812C25.2812 17.4094 23.7344 20.1766 21.3582 21.8609L24.0352 25.3414C24.2758 25.6508 24.3145 26.0719 24.1426 26.4242C23.9707 26.7766 23.6098 27 23.2188 27H8.78125C8.39023 27 8.0293 26.7766 7.85742 26.4242C7.68555 26.0719 7.72422 25.6508 7.96484 25.3414L10.6418 21.8609C8.26563 20.1766 6.71875 17.4094 6.71875 14.2812C6.71875 9.15508 10.8738 5 16 5C21.1262 5 25.2812 9.15508 25.2812 14.2812ZM19.0938 14.2812C19.0938 13.875 19.0137 13.4727 18.8583 13.0973C18.7028 12.722 18.4749 12.3809 18.1876 12.0936C17.9003 11.8064 17.5593 11.5785 17.1839 11.423C16.8086 11.2675 16.4063 11.1875 16 11.1875C15.5937 11.1875 15.1914 11.2675 14.8161 11.423C14.4407 11.5785 14.0997 11.8064 13.8124 12.0936C13.5251 12.3809 13.2972 12.722 13.1417 13.0973C12.9863 13.4727 12.9062 13.875 12.9062 14.2812C12.9062 14.6875 12.9863 15.0898 13.1417 15.4652C13.2972 15.8405 13.5251 16.1816 13.8124 16.4689C14.0997 16.7561 14.4407 16.984 14.8161 17.1395C15.1914 17.295 15.5937 17.375 16 17.375C16.4063 17.375 16.8086 17.295 17.1839 17.1395C17.5593 16.984 17.9003 16.7561 18.1876 16.4689C18.4749 16.1816 18.7028 15.8405 18.8583 15.4652C19.0137 15.0898 19.0938 14.6875 19.0938 14.2812ZM10.8438 14.2812C10.8438 12.9137 11.387 11.6022 12.354 10.6352C13.321 9.66825 14.6325 9.125 16 9.125C17.3675 9.125 18.679 9.66825 19.646 10.6352C20.613 11.6022 21.1562 12.9137 21.1562 14.2812C21.1562 15.6488 20.613 16.9603 19.646 17.9273C18.679 18.8943 17.3675 19.4375 16 19.4375C14.6325 19.4375 13.321 18.8943 12.354 17.9273C11.387 16.9603 10.8438 15.6488 10.8438 14.2812Z" fill="currentColor"/>
</svg>
