<svg viewBox="0 0 32 32" fill="none" xmlns="http://www.w3.org/2000/svg">
<path d="M16 18.3179C16.7725 18.3237 17.5294 18.1076 18.1746 17.6972C18.8198 17.2868 19.3243 16.7005 19.624 16.0127C19.9238 15.3249 20.0053 14.5666 19.8583 13.834C19.7112 13.1014 19.3422 12.4275 18.798 11.8977C18.2539 11.368 17.5591 11.0064 16.8019 10.8587C16.0446 10.7109 15.259 10.7838 14.5447 11.0681C13.8304 11.3523 13.2196 11.8351 12.7898 12.4552C12.3599 13.0753 12.1305 13.8047 12.1304 14.551C12.1268 15.0442 12.2242 15.5332 12.417 15.99C12.6098 16.4467 12.8942 16.8621 13.2539 17.2122C13.6135 17.5623 14.0413 17.8402 14.5126 18.03C14.9839 18.2198 15.4894 18.3176 16 18.3179ZM16 12.5226C16.4153 12.5226 16.8213 12.6416 17.1666 12.8644C17.5119 13.0873 17.781 13.4041 17.9399 13.7747C18.0989 14.1454 18.1404 14.5532 18.0594 14.9467C17.9784 15.3401 17.7784 15.7016 17.4848 15.9852C17.1911 16.2689 16.817 16.4621 16.4096 16.5403C16.0023 16.6186 15.5801 16.5784 15.1965 16.4249C14.8128 16.2714 14.4848 16.0114 14.2541 15.6779C14.0234 15.3443 13.9002 14.9521 13.9002 14.551C13.9006 14.0131 14.1219 13.4974 14.5156 13.117C14.9093 12.7367 15.4432 12.5229 16 12.5226ZM23.1992 12.5226C23.7925 12.5226 24.3724 12.3527 24.8657 12.0343C25.359 11.7159 25.7435 11.2633 25.9705 10.7338C26.1976 10.2044 26.257 9.62174 26.1412 9.05965C26.0255 8.49756 25.7398 7.98124 25.3203 7.576C24.9008 7.17076 24.3663 6.89478 23.7844 6.78297C23.2025 6.67117 22.5994 6.72855 22.0513 6.94787C21.5032 7.16718 21.0347 7.53858 20.7051 8.0151C20.3755 8.49162 20.1995 9.05185 20.1995 9.62495C20.1995 10.3935 20.5156 11.1305 21.0781 11.6739C21.6407 12.2173 22.4036 12.5226 23.1992 12.5226ZM17.8706 19.477H14.1294C12.7603 19.436 11.4303 19.9215 10.4313 20.8267C9.43231 21.732 8.84591 22.9832 8.8008 24.3056C8.80926 24.5701 8.92614 24.8206 9.12572 25.0018C9.3253 25.1831 9.59126 25.2804 9.86508 25.2723H22.1349C22.4087 25.2804 22.6747 25.1831 22.8743 25.0018C23.0739 24.8206 23.1907 24.5701 23.1992 24.3056C23.1541 22.9832 22.5677 21.732 21.5687 20.8267C20.5697 19.9215 19.2397 19.436 17.8706 19.477ZM10.6798 23.5337C10.9146 22.8431 11.3742 22.2443 11.99 21.8266C12.6058 21.4088 13.3448 21.1945 14.097 21.2156H17.8718C18.6239 21.1947 19.3629 21.4091 19.9787 21.8268C20.5944 22.2445 21.054 22.8432 21.289 23.5337H10.6798ZM24.6954 13.6817H22.3761C21.9103 13.6833 21.4507 13.7855 21.031 13.9807C21.0624 14.1695 21.0824 14.3599 21.091 14.551C21.0865 15.723 20.6457 16.8543 19.8492 17.7384H27.3375C27.518 17.7329 27.6889 17.6586 27.8128 17.5318C27.9367 17.4049 28.0035 17.2358 27.9987 17.0615C28.0239 16.1904 27.6902 15.3452 27.0708 14.7115C26.4515 14.0778 25.5972 13.7074 24.6954 13.6817ZM10.897 14.551C10.9049 14.3568 10.9249 14.1633 10.957 13.9714C10.5447 13.7663 10.085 13.6665 9.62151 13.6817H7.30456C6.4028 13.7074 5.54848 14.0778 4.92916 14.7115C4.30984 15.3452 3.97614 16.1904 4.00133 17.0615C3.99648 17.2358 4.06332 17.4049 4.18722 17.5318C4.31112 17.6586 4.482 17.7329 4.66246 17.7384H12.1424C11.3442 16.855 10.9021 15.7235 10.897 14.551ZM8.8008 12.5226C9.39408 12.5226 9.97403 12.3527 10.4673 12.0343C10.9606 11.7159 11.3451 11.2633 11.5721 10.7338C11.7992 10.2044 11.8586 9.62174 11.7428 9.05965C11.6271 8.49756 11.3414 7.98124 10.9219 7.576C10.5024 7.17076 9.96788 6.89478 9.386 6.78297C8.80412 6.67117 8.20099 6.72855 7.65287 6.94787C7.10476 7.16718 6.63627 7.53858 6.30666 8.0151C5.97706 8.49162 5.80113 9.05185 5.80113 9.62495C5.80113 10.3935 6.11717 11.1305 6.67971 11.6739C7.24226 12.2173 8.00524 12.5226 8.8008 12.5226Z" fill="currentColor"/>
</svg>
