<svg viewBox="0 0 32 32" fill="none" xmlns="http://www.w3.org/2000/svg">
<path d="M14.2978 7.20859C14.8451 7.11406 15.4148 7.0625 15.9981 7.0625C16.5813 7.0625 17.151 7.11406 17.6983 7.20859L18.0797 8.7168C18.2636 9.44727 18.7795 9.99727 19.3762 10.3238L19.439 10.3582C20.0312 10.6891 20.7893 10.8438 21.543 10.6332L23.0953 10.1949C23.4272 10.5687 23.7323 10.9684 23.997 11.3895L24.1764 11.6859C24.4187 12.107 24.6296 12.5539 24.8 13.0137L23.6246 14.0836C23.0549 14.5992 22.8171 15.3039 22.8216 15.9613V15.9957V16.0301C22.8171 16.6875 23.0594 17.3879 23.6246 17.9078L24.8 18.9777C24.6296 19.4375 24.4187 19.8844 24.1764 20.3055L23.997 20.602C23.7323 21.023 23.4272 21.4227 23.0953 21.7965L21.543 21.3582C20.7893 21.1434 20.0312 21.298 19.439 21.6332L19.3762 21.6676C18.784 21.9941 18.2636 22.5441 18.0797 23.2746L17.6983 24.7828C17.1465 24.8816 16.5768 24.9289 15.9981 24.9289C15.4193 24.9289 14.8451 24.8773 14.2978 24.7828L13.9164 23.2746C13.7325 22.5441 13.2166 21.9941 12.6199 21.6676L12.5571 21.6332C11.9649 21.3023 11.2068 21.1477 10.4531 21.3582L8.90532 21.8051C8.57334 21.4312 8.26828 21.0316 8.00359 20.6105L7.82414 20.3098C7.58189 19.8887 7.37103 19.4418 7.20056 18.982L8.37595 17.9121C8.9457 17.3965 9.18347 16.6918 9.17898 16.0344V16V15.9656C9.18347 15.3082 8.94121 14.6078 8.37595 14.0879L7.20056 13.018C7.37103 12.5582 7.58189 12.1113 7.82414 11.6902L8.00359 11.3938C8.26828 10.9727 8.57334 10.573 8.90532 10.1992L10.4576 10.6375C11.2112 10.8523 11.9694 10.6977 12.5616 10.3625L12.6244 10.3281C13.2166 10.0016 13.737 9.45156 13.9209 8.72109L14.3023 7.21289L14.2978 7.20859ZM15.9981 5C15.2354 5 14.4907 5.07305 13.7639 5.20625C13.4095 5.2707 12.7859 5.46836 12.445 6.06992C12.3552 6.22891 12.2835 6.39648 12.2386 6.57695L11.8214 8.23125C11.7989 8.31719 11.7227 8.4375 11.5522 8.53203C11.5253 8.54922 11.4984 8.56211 11.467 8.5793C11.2965 8.67383 11.1529 8.67812 11.0587 8.65234L9.35843 8.17109C9.17898 8.11953 8.99505 8.09375 8.81111 8.08945C8.08883 8.06797 7.59983 8.49336 7.36206 8.75117C6.91344 9.24102 6.50968 9.77383 6.15527 10.3367L6.14629 10.3539L5.95787 10.6676L5.9489 10.6848C5.6214 11.2477 5.34774 11.8406 5.12792 12.4594C5.00679 12.7816 4.8722 13.3918 5.24008 13.9762C5.33877 14.1309 5.4599 14.277 5.59897 14.4059L6.89101 15.5832C6.9583 15.6477 7.02559 15.768 7.02559 15.957V16.0043V16.0516C7.02559 16.2363 6.9583 16.3609 6.89101 16.4254L5.59897 17.5941C5.4599 17.723 5.33877 17.8691 5.24008 18.0238C4.8722 18.6082 5.00679 19.2184 5.12343 19.5406C5.34326 20.1594 5.61692 20.7523 5.94441 21.3152L5.95339 21.3324L6.14629 21.6504L6.15527 21.6676C6.50968 22.2305 6.91344 22.759 7.36206 23.2488C7.59983 23.5066 8.09332 23.932 8.81111 23.9105C8.99505 23.9062 9.17898 23.8762 9.35843 23.8289L11.0632 23.3477C11.1529 23.3219 11.301 23.3262 11.4714 23.4207C11.4984 23.4379 11.5253 23.4508 11.5567 23.468C11.7272 23.5625 11.8034 23.6785 11.8259 23.7687L12.2431 25.423C12.2879 25.6035 12.3597 25.7754 12.4494 25.9301C12.7949 26.5316 13.4185 26.725 13.7684 26.7938C14.4907 26.9312 15.2399 27 16.0025 27C16.7652 27 17.5099 26.927 18.2367 26.7938C18.5911 26.7293 19.2147 26.5316 19.5556 25.9301C19.6454 25.7711 19.7171 25.6035 19.762 25.423L20.1792 23.7687C20.2016 23.6828 20.2779 23.5625 20.4484 23.468C20.4753 23.4508 20.5022 23.4379 20.5336 23.4207C20.7041 23.3262 20.8477 23.3219 20.9419 23.3477L22.6466 23.8289C22.8261 23.8805 23.01 23.9062 23.194 23.9105C23.9162 23.932 24.4052 23.5066 24.643 23.2488C25.0916 22.759 25.4954 22.2262 25.8498 21.6633L25.8588 21.6461L26.0472 21.3324L26.0562 21.3152C26.3837 20.7523 26.6573 20.1594 26.8772 19.5406C26.9938 19.2141 27.1284 18.6039 26.756 18.0195C26.6573 17.8648 26.5362 17.7188 26.3971 17.5898L25.1051 16.4168C25.0378 16.3523 24.9705 16.232 24.9705 16.043V15.9957V15.9484C24.9705 15.7637 25.0378 15.6391 25.1051 15.5746L26.3926 14.4016C26.5317 14.2727 26.6528 14.1266 26.7515 13.9719C27.1194 13.3875 26.9848 12.7773 26.8727 12.4508C26.6528 11.832 26.3792 11.2391 26.0517 10.6762L26.0427 10.659L25.8543 10.3453L25.8453 10.3281C25.4909 9.76523 25.0872 9.23672 24.6385 8.74258C24.4008 8.48477 23.9073 8.05937 23.1895 8.08086C23.0055 8.08516 22.8216 8.11523 22.6422 8.1625L20.9329 8.65234C20.8432 8.67812 20.6951 8.67383 20.5247 8.5793C20.4977 8.56211 20.4708 8.54922 20.4394 8.53203C20.2689 8.4375 20.1927 8.32148 20.1702 8.23125L19.753 6.57695C19.7082 6.39648 19.6364 6.22461 19.5467 6.06992C19.2012 5.46836 18.5776 5.275 18.2277 5.20625C17.5054 5.07305 16.7607 5 15.9981 5ZM13.8447 16C13.8447 15.453 14.0715 14.9284 14.4754 14.5416C14.8792 14.1548 15.4269 13.9375 15.9981 13.9375C16.5692 13.9375 17.1169 14.1548 17.5207 14.5416C17.9246 14.9284 18.1514 15.453 18.1514 16C18.1514 16.547 17.9246 17.0716 17.5207 17.4584C17.1169 17.8452 16.5692 18.0625 15.9981 18.0625C15.4269 18.0625 14.8792 17.8452 14.4754 17.4584C14.0715 17.0716 13.8447 16.547 13.8447 16ZM20.3048 16C20.3048 14.906 19.8511 13.8568 19.0434 13.0832C18.2357 12.3096 17.1403 11.875 15.9981 11.875C14.8558 11.875 13.7604 12.3096 12.9527 13.0832C12.145 13.8568 11.6913 14.906 11.6913 16C11.6913 17.094 12.145 18.1432 12.9527 18.9168C13.7604 19.6904 14.8558 20.125 15.9981 20.125C17.1403 20.125 18.2357 19.6904 19.0434 18.9168C19.8511 18.1432 20.3048 17.094 20.3048 16Z" fill="currentColor"/>
</svg>
