<svg viewBox="0 0 33 32" fill="none" xmlns="http://www.w3.org/2000/svg">
<path d="M13.5557 15.6162C12.5195 12.8693 13.6158 9.87037 16.0224 8.32891C15.8535 8.24855 15.6808 8.1755 15.5005 8.10975C12.925 7.20021 10.0715 8.48963 9.12541 10.9954L8.57726 12.4565C8.04412 13.8738 7.05293 15.0865 5.75388 15.9157L5.44976 16.1093C5.06681 16.354 4.86031 16.785 4.91287 17.2234C4.96544 17.6617 5.26579 18.0343 5.69381 18.184L14.3479 21.2487L14.3892 21.1063C14.7421 19.9191 14.6933 18.6516 14.2578 17.4864L13.5557 15.6162ZM16.3791 14.619C15.7408 12.9241 16.6382 11.0466 18.3802 10.4292C20.1223 9.81193 22.0559 10.6849 22.6942 12.3798L23.4 14.25C23.9932 15.8244 25.037 17.2015 26.4073 18.2133L17.4191 21.3948C17.7908 19.7657 17.6781 18.0635 17.0812 16.4855L16.3791 14.619ZM15.5494 21.4277L15.3766 22.0048C15.2527 22.4285 15.3804 22.8815 15.7145 23.181C16.0487 23.4805 16.5218 23.5755 16.946 23.4258L28.1156 19.4735C28.5399 19.3237 28.844 18.9548 28.8966 18.5164C28.9491 18.0781 28.7464 17.6507 28.3709 17.406L27.8566 17.07C26.5876 16.2408 25.6189 15.0463 25.0933 13.651L24.3874 11.7808C23.4075 9.17635 20.4377 7.83579 17.7607 8.78185C15.0838 9.72792 13.7059 12.6099 14.6858 15.218L15.3917 17.0882C15.9173 18.4836 15.9736 20.0031 15.5531 21.4313L15.5494 21.4277ZM22.9419 24.1819C24.2785 24.1819 25.3636 23.1299 25.3636 21.8332C25.3636 21.7857 25.3636 21.7382 25.3598 21.6907L21.0009 23.2358C21.4439 23.8093 22.1497 24.1819 22.9419 24.1819ZM8.43083 20.3867C8.41957 20.478 8.41581 20.5693 8.41581 20.6606C8.41581 21.9573 9.50086 23.0093 10.8375 23.0093C11.6747 23.0093 12.4106 22.5966 12.8461 21.972L8.43083 20.3867Z" fill="currentColor"/>
</svg>
