<svg viewBox="0 0 33 32" fill="none" xmlns="http://www.w3.org/2000/svg">
<path d="M24.261 12.2585C23.1794 11.0565 22.3085 10.0838 21.3598 9.32142C20.1315 8.3346 18.839 7.7687 16.9048 7.7687C13.339 7.7687 10.2177 10.1258 9.1452 13.3669C8.9527 13.9562 8.32479 14.2696 7.75187 14.0731C7.17895 13.8767 6.86729 13.236 7.05979 12.6514C8.43937 8.49362 12.3994 5.5238 16.9048 5.5238C19.3752 5.5238 21.1352 6.28613 22.721 7.55824C23.7248 8.36266 24.6873 9.40561 25.7048 10.5421V8.89115C25.7048 8.26913 26.1952 7.7687 26.8048 7.7687C27.4144 7.7687 27.9048 8.26913 27.9048 8.89115V13.3809C27.9048 14.003 27.4144 14.5034 26.8048 14.5034H22.4048C21.7952 14.5034 21.3048 14.003 21.3048 13.3809C21.3048 12.7589 21.7952 12.2585 22.4048 12.2585H24.261ZM7.00479 24.2313C6.3952 24.2313 5.90479 23.7309 5.90479 23.1088V18.619C5.90479 17.997 6.3952 17.4966 7.00479 17.4966H11.4048C12.0144 17.4966 12.5048 17.997 12.5048 18.619C12.5048 19.2411 12.0144 19.7415 11.4048 19.7415H9.65854L9.79604 19.8958C10.8044 21.0323 11.6202 21.949 12.5185 22.6832C13.7148 23.6654 14.9752 24.2313 16.9094 24.2313C20.4752 24.2313 23.5965 21.8741 24.669 18.6331C24.8615 18.0438 25.4894 17.7304 26.0623 17.9269C26.6352 18.1233 26.9469 18.764 26.7544 19.3486C25.3702 23.5064 21.4102 26.4762 16.9048 26.4762C14.4344 26.4762 12.6927 25.7092 11.139 24.4371C10.126 23.6093 9.14979 22.5196 8.10479 21.341V23.1088C8.10479 23.7309 7.61437 24.2313 7.00479 24.2313ZM18.1285 11.0332V10.0978H16.2952V11.4307C15.9881 11.4915 15.6948 11.5804 15.4198 11.7066C14.6819 12.048 14.0494 12.6794 13.8935 13.5867C13.8065 14.0965 13.8523 14.5876 14.0585 15.0319C14.2602 15.4668 14.5765 15.7755 14.9065 16.0047C15.484 16.4022 16.2494 16.6407 16.8498 16.8231L16.9552 16.8559C17.661 17.071 18.1606 17.244 18.4769 17.4779C18.6144 17.5808 18.674 17.665 18.7015 17.7304C18.729 17.7912 18.761 17.9128 18.7198 18.1373C18.6831 18.3571 18.5594 18.5395 18.2523 18.6705C17.9177 18.8155 17.3952 18.8809 16.7306 18.7781C16.4144 18.7266 15.8598 18.5302 15.374 18.3618C15.264 18.3244 15.1585 18.287 15.0577 18.2542L14.1869 17.9596L13.6094 19.7368L14.4802 20.0315C14.5444 20.0548 14.6223 20.0782 14.7094 20.111C15.1356 20.2606 15.8094 20.4945 16.2952 20.5974V21.949H18.1285V20.6395C18.4265 20.588 18.7106 20.5085 18.9765 20.3916C19.751 20.0548 20.3652 19.4048 20.5256 18.4554C20.6127 17.9315 20.576 17.4358 20.3835 16.9868C20.191 16.5378 19.884 16.2105 19.554 15.9673C18.949 15.5183 18.1423 15.2704 17.519 15.0787L17.4823 15.0693C16.7673 14.8495 16.2585 14.6858 15.9331 14.4613C15.791 14.3631 15.736 14.2883 15.7131 14.2368C15.6948 14.1947 15.6627 14.1059 15.6994 13.9141C15.7223 13.7691 15.8323 13.5774 16.176 13.4184C16.5244 13.2593 17.0515 13.1752 17.6931 13.2781C17.9177 13.3155 18.6098 13.4511 18.8069 13.5072L19.6915 13.7457L20.1635 11.9358L19.279 11.6879C19.036 11.6224 18.454 11.5055 18.1285 11.4447V11.0332Z" fill="currentColor"/>
</svg>
