<svg width="32" viewBox="0 0 32 32" fill="currentColor" xmlns="http://www.w3.org/2000/svg">
<path d="M7.75 24.9375H18.75C19.1281 24.9375 19.4375 24.6281 19.4375 24.25V20.8125H21.5V24.25C21.5 25.7668 20.2668 27 18.75 27H7.75C6.2332 27 5 25.7668 5 24.25V11.6387C5 10.9082 5.28789 10.2078 5.80352 9.69219L9.69648 5.80352C10.2121 5.28789 10.9082 5 11.6387 5H18.75C20.2668 5 21.5 6.2332 21.5 7.75V16H19.4375V7.75C19.4375 7.37188 19.1281 7.0625 18.75 7.0625H11.875V10.5C11.875 11.2605 11.2605 11.875 10.5 11.875H7.0625V24.25C7.0625 24.6281 7.37188 24.9375 7.75 24.9375ZM14.2383 14.2383C14.6422 13.8344 15.2953 13.8344 15.6949 14.2383C16.0945 14.6422 16.0988 15.2953 15.6949 15.6949L14.0191 17.3707H25.9688C26.5402 17.3707 27 17.8305 27 18.402C27 18.9734 26.5402 19.4332 25.9688 19.4332H14.0191L15.6949 21.109C16.0988 21.5129 16.0988 22.166 15.6949 22.5656C15.291 22.9652 14.6379 22.9695 14.2383 22.5656L10.8008 19.1281C10.3969 18.7242 10.3969 18.0711 10.8008 17.6715L14.2383 14.234V14.2383Z" fill="currentColor"/>
</svg>
