<svg viewBox="0 0 32 32" fill="none" xmlns="http://www.w3.org/2000/svg">
<path d="M16 5C15.6348 5 15.2695 5.07305 14.9344 5.21914L5.94102 9.07344C5.36953 9.31836 5 9.87695 5 10.5C5 11.123 5.36953 11.6816 5.94102 11.9266L14.9344 15.7809C15.2695 15.927 15.6348 16 16 16C16.3652 16 16.7305 15.927 17.0656 15.7809L26.059 11.9266C26.6305 11.6816 27 11.1188 27 10.5C27 9.88125 26.6305 9.31836 26.059 9.07344L17.0656 5.21914C16.7305 5.07305 16.3652 5 16 5ZM15.7465 7.11406C15.8281 7.07969 15.9141 7.0625 16 7.0625C16.0859 7.0625 16.1719 7.07969 16.2535 7.11406L24.1512 10.5L16.2535 13.8859C16.1719 13.9203 16.0859 13.9375 16 13.9375C15.9141 13.9375 15.8281 13.9203 15.7465 13.8859L7.84883 10.5L15.7465 7.11406ZM5.94102 14.5734C5.36953 14.8184 5 15.377 5 16C5 16.623 5.36953 17.1816 5.94102 17.4266L14.9344 21.2809C15.2695 21.427 15.6348 21.5 16 21.5C16.3652 21.5 16.7305 21.427 17.0656 21.2809L26.059 17.4266C26.6305 17.1816 27 16.6187 27 16C27 15.3813 26.6305 14.8184 26.059 14.5734L24.7184 13.9977L22.1016 15.1191L24.1512 16L16.2535 19.3859C16.1719 19.4203 16.0859 19.4375 16 19.4375C15.9141 19.4375 15.8281 19.4203 15.7465 19.3859L7.84883 16L9.89844 15.1191L7.28164 13.9977L5.94102 14.5734ZM5.94102 20.0734C5.36953 20.3184 5 20.877 5 21.5C5 22.123 5.36953 22.6816 5.94102 22.9266L14.9344 26.7809C15.2695 26.927 15.6348 27 16 27C16.3652 27 16.7305 26.927 17.0656 26.7809L26.059 22.9266C26.6305 22.6816 27 22.1187 27 21.5C27 20.8813 26.6305 20.3184 26.059 20.0734L24.7184 19.4977L22.1016 20.6191L24.1512 21.5L16.2535 24.8859C16.1719 24.9203 16.0859 24.9375 16 24.9375C15.9141 24.9375 15.8281 24.9203 15.7465 24.8859L7.84883 21.5L9.89844 20.6191L7.28164 19.4977L5.94102 20.0734Z" fill="currentColor"/>
</svg>
