<svg width="32" viewBox="0 0 32 32" fill="currentColor" xmlns="http://www.w3.org/2000/svg">
<path d="M18.7543 12.3839L21.5043 15.2411C21.9426 15.6607 21.9426 16.3393 21.5043 16.7188L18.7543 19.5759C18.3891 20.0313 17.7359 20.0313 17.332 19.5759C16.9324 19.1964 16.9324 18.5179 17.332 18.0982L19.3559 16L17.332 13.8616C16.9324 13.4821 16.9324 12.8036 17.332 12.3839C17.7359 11.9688 18.3891 11.9688 18.7543 12.3839ZM12.6441 16L14.6293 18.0982C15.0676 18.5179 15.0676 19.1964 14.6293 19.5759C14.2641 20.0313 13.6109 20.0313 13.207 19.5759L10.457 16.7188C10.0574 16.3393 10.0574 15.6607 10.457 15.2411L13.207 12.3839C13.6109 11.9688 14.2641 11.9688 14.6293 12.3839C15.0676 12.8036 15.0676 13.4821 14.6293 13.8616L12.6441 16ZM24.25 6C25.7668 6 27 7.27902 27 8.85714V23.1429C27 24.7188 25.7668 26 24.25 26H7.75C6.23105 26 5 24.7188 5 23.1429V8.85714C5 7.27902 6.23105 6 7.75 6H24.25ZM24.25 8.14286H7.75C7.37016 8.14286 7.0625 8.4625 7.0625 8.85714V23.1429C7.0625 23.5357 7.37016 23.8571 7.75 23.8571H24.25C24.6281 23.8571 24.9375 23.5357 24.9375 23.1429V8.85714C24.9375 8.4625 24.6281 8.14286 24.25 8.14286Z" fill="currentColor"/>
</svg>
