<svg viewBox="0 0 32 32" fill="none" xmlns="http://www.w3.org/2000/svg">
<path d="M18.2854 19.9214L14.3569 16L18.2854 12.0786V14C18.2854 14.475 18.6676 14.8571 19.1426 14.8571H23.4283V17.1429H19.1426C18.6676 17.1429 18.2854 17.525 18.2854 18V19.9214ZM12.5711 16C12.5711 16.4107 12.7354 16.8036 13.0247 17.0929L17.1711 21.2286C17.4819 21.5393 17.9033 21.7143 18.3426 21.7143C19.2569 21.7143 19.9997 20.9714 19.9997 20.0571V18.8571H23.4283C24.3747 18.8571 25.1426 18.0893 25.1426 17.1429V14.8571C25.1426 13.9107 24.3747 13.1429 23.4283 13.1429H19.9997V11.9429C19.9997 11.0286 19.2569 10.2857 18.3426 10.2857C17.9033 10.2857 17.4819 10.4607 17.1711 10.7714L13.0247 14.9071C12.7354 15.1964 12.5711 15.5893 12.5711 16ZM12.8569 22.2857H9.99972C9.21043 22.2857 8.57115 21.6464 8.57115 20.8571V11.1429C8.57115 10.3536 9.21043 9.71429 9.99972 9.71429H12.8569C13.3319 9.71429 13.714 9.33214 13.714 8.85714C13.714 8.38214 13.3319 8 12.8569 8H9.99972C8.26401 8 6.85686 9.40714 6.85686 11.1429V20.8571C6.85686 22.5929 8.26401 24 9.99972 24H12.8569C13.3319 24 13.714 23.6179 13.714 23.1429C13.714 22.6679 13.3319 22.2857 12.8569 22.2857Z" fill="currentColor"/>
</svg>
