<svg viewBox="0 0 32 32" fill="none" xmlns="http://www.w3.org/2000/svg">
<path d="M14.762 9.60625C15.1601 9.5375 15.5744 9.5 15.9986 9.5C16.4227 9.5 16.8371 9.5375 17.2351 9.60625L17.5125 10.7031C17.6463 11.2344 18.0215 11.6344 18.4554 11.8719L18.5011 11.8969C18.9318 12.1375 19.4832 12.25 20.0313 12.0969L21.1602 11.7781C21.4016 12.05 21.6235 12.3406 21.816 12.6469L21.9465 12.8625C22.1227 13.1688 22.276 13.4938 22.4 13.8281L21.5452 14.6062C21.1308 14.9812 20.9579 15.4938 20.9612 15.9719V15.9969V16.0219C20.9579 16.5 21.1341 17.0094 21.5452 17.3875L22.4 18.1656C22.276 18.5 22.1227 18.825 21.9465 19.1313L21.816 19.3469C21.6235 19.6531 21.4016 19.9437 21.1602 20.2156L20.0313 19.8969C19.4832 19.7406 18.9318 19.8531 18.5011 20.0969L18.4554 20.1219C18.0247 20.3594 17.6463 20.7594 17.5125 21.2906L17.2351 22.3875C16.8338 22.4594 16.4195 22.4937 15.9986 22.4937C15.5777 22.4937 15.1601 22.4563 14.762 22.3875L14.4847 21.2906C14.3509 20.7594 13.9757 20.3594 13.5418 20.1219L13.4961 20.0969C13.0654 19.8562 12.514 19.7438 11.9659 19.8969L10.8402 20.2219C10.5988 19.95 10.3769 19.6594 10.1844 19.3531L10.0539 19.1344C9.87774 18.8281 9.72439 18.5031 9.60041 18.1687L10.4552 17.3906C10.8696 17.0156 11.0425 16.5031 11.0393 16.025V16V15.975C11.0425 15.4969 10.8663 14.9875 10.4552 14.6094L9.60041 13.8313C9.72439 13.4969 9.87774 13.1719 10.0539 12.8656L10.1844 12.65C10.3769 12.3438 10.5988 12.0531 10.8402 11.7812L11.9691 12.1C12.5173 12.2562 13.0687 12.1438 13.4993 11.9L13.545 11.875C13.9757 11.6375 14.3542 11.2375 14.4879 10.7062L14.7653 9.60938L14.762 9.60625ZM15.9986 8C15.4439 8 14.9023 8.05313 14.3738 8.15C14.116 8.19688 13.6625 8.34062 13.4145 8.77812C13.3493 8.89375 13.2971 9.01562 13.2644 9.14688L12.961 10.35C12.9447 10.4125 12.8892 10.5 12.7652 10.5687C12.7457 10.5812 12.7261 10.5906 12.7032 10.6031C12.5793 10.6719 12.4749 10.675 12.4063 10.6562L11.1698 10.3063C11.0393 10.2688 10.9055 10.25 10.7717 10.2469C10.2464 10.2313 9.89079 10.5406 9.71786 10.7281C9.39159 11.0844 9.09795 11.4719 8.84019 11.8812L8.83367 11.8937L8.69663 12.1219L8.69011 12.1344C8.45193 12.5438 8.25291 12.975 8.09303 13.425C8.00494 13.6594 7.90706 14.1031 8.1746 14.5281C8.24638 14.6406 8.33447 14.7469 8.43562 14.8406L9.37528 15.6969C9.42422 15.7438 9.47316 15.8313 9.47316 15.9688V16.0031V16.0375C9.47316 16.1719 9.42422 16.2625 9.37528 16.3094L8.43562 17.1594C8.33447 17.2531 8.24638 17.3594 8.1746 17.4719C7.90706 17.8969 8.00494 18.3406 8.08977 18.575C8.24964 19.025 8.44867 19.4563 8.68685 19.8656L8.69337 19.8781L8.83367 20.1094L8.84019 20.1219C9.09795 20.5312 9.39159 20.9156 9.71786 21.2719C9.89079 21.4594 10.2497 21.7688 10.7717 21.7531C10.9055 21.75 11.0393 21.7281 11.1698 21.6938L12.4096 21.3438C12.4749 21.325 12.5825 21.3281 12.7065 21.3969C12.7261 21.4094 12.7457 21.4187 12.7685 21.4312C12.8925 21.5 12.9479 21.5844 12.9643 21.65L13.2677 22.8531C13.3003 22.9844 13.3525 23.1094 13.4178 23.2219C13.669 23.6594 14.1225 23.8 14.377 23.85C14.9023 23.95 15.4472 24 16.0018 24C16.5565 24 17.0981 23.9469 17.6267 23.85C17.8844 23.8031 18.3379 23.6594 18.5859 23.2219C18.6512 23.1062 18.7034 22.9844 18.736 22.8531L19.0394 21.65C19.0557 21.5875 19.1112 21.5 19.2352 21.4312C19.2548 21.4187 19.2743 21.4094 19.2972 21.3969C19.4212 21.3281 19.5256 21.325 19.5941 21.3438L20.8339 21.6938C20.9644 21.7313 21.0982 21.75 21.232 21.7531C21.7573 21.7688 22.1129 21.4594 22.2858 21.2719C22.6121 20.9156 22.9057 20.5281 23.1635 20.1187L23.17 20.1062L23.3071 19.8781L23.3136 19.8656C23.5518 19.4563 23.7508 19.025 23.9107 18.575C23.9955 18.3375 24.0934 17.8938 23.8226 17.4688C23.7508 17.3562 23.6627 17.25 23.5615 17.1562L22.6219 16.3031C22.5729 16.2563 22.524 16.1687 22.524 16.0312V15.9969V15.9625C22.524 15.8281 22.5729 15.7375 22.6219 15.6906L23.5583 14.8375C23.6594 14.7438 23.7475 14.6375 23.8193 14.525C24.0868 14.1 23.989 13.6562 23.9074 13.4187C23.7475 12.9688 23.5485 12.5375 23.3103 12.1281L23.3038 12.1156L23.1668 11.8875L23.1602 11.875C22.9025 11.4656 22.6088 11.0812 22.2826 10.7219C22.1096 10.5344 21.7507 10.225 21.2287 10.2406C21.0949 10.2437 20.9612 10.2656 20.8307 10.3L19.5876 10.6562C19.5223 10.675 19.4146 10.6719 19.2907 10.6031C19.2711 10.5906 19.2515 10.5812 19.2287 10.5687C19.1047 10.5 19.0492 10.4156 19.0329 10.35L18.7295 9.14688C18.6968 9.01562 18.6446 8.89062 18.5794 8.77812C18.3282 8.34062 17.8746 8.2 17.6202 8.15C17.0949 8.05313 16.5532 8 15.9986 8ZM14.4325 16C14.4325 15.6022 14.5975 15.2206 14.8912 14.9393C15.1849 14.658 15.5832 14.5 15.9986 14.5C16.4139 14.5 16.8123 14.658 17.106 14.9393C17.3997 15.2206 17.5647 15.6022 17.5647 16C17.5647 16.3978 17.3997 16.7794 17.106 17.0607C16.8123 17.342 16.4139 17.5 15.9986 17.5C15.5832 17.5 15.1849 17.342 14.8912 17.0607C14.5975 16.7794 14.4325 16.3978 14.4325 16ZM19.1308 16C19.1308 15.2044 18.8008 14.4413 18.2134 13.8787C17.626 13.3161 16.8293 13 15.9986 13C15.1679 13 14.3712 13.3161 13.7838 13.8787C13.1964 14.4413 12.8664 15.2044 12.8664 16C12.8664 16.7956 13.1964 17.5587 13.7838 18.1213C14.3712 18.6839 15.1679 19 15.9986 19C16.8293 19 17.626 18.6839 18.2134 18.1213C18.8008 17.5587 19.1308 16.7956 19.1308 16Z" fill="currentColor"/>
</svg>
