<svg viewBox="0 0 32 32" fill="none" xmlns="http://www.w3.org/2000/svg">
<path d="M12.4453 15.9995C12.4453 15.3213 12.6539 14.6583 13.0447 14.0945C13.4354 13.5306 13.9909 13.0911 14.6407 12.8316C15.2905 12.5721 16.0056 12.5042 16.6954 12.6366C17.3852 12.769 18.0188 13.0957 18.5161 13.5753C19.0134 14.0549 19.352 14.666 19.4891 15.3312C19.6262 15.9964 19.5556 16.6858 19.2863 17.3123C19.017 17.9389 18.5611 18.4743 17.9762 18.851C17.3913 19.2276 16.7036 19.4286 16.0003 19.4284C15.5334 19.4284 15.071 19.3397 14.6396 19.1673C14.2082 18.995 13.8163 18.7424 13.4862 18.424C13.156 18.1056 12.8942 17.7276 12.7156 17.3116C12.537 16.8956 12.4452 16.4498 12.4453 15.9995ZM16.0003 18.143C16.5897 18.143 17.155 17.9172 17.5718 17.5154C17.9886 17.1135 18.2228 16.5684 18.2228 16C18.2228 15.4316 17.9886 14.8865 17.5718 14.4846C17.155 14.0828 16.5897 13.857 16.0003 13.857H15.9203C15.9773 13.9932 16.0045 14.1392 16.0003 14.2861C15.9998 14.7406 15.8123 15.1764 15.4789 15.4978C15.1456 15.8192 14.6937 16 14.2223 16.0005C14.0703 16.0041 13.9192 15.9775 13.7783 15.9224V15.9783C13.7759 16.2614 13.8316 16.5421 13.9421 16.8043C14.0527 17.0665 14.2159 17.3051 14.4224 17.5062C14.6289 17.7074 14.8746 17.8673 15.1454 17.9765C15.4162 18.0858 15.7067 18.1424 16.0003 18.143ZM10.6503 12.1589C12.0807 10.8046 13.9959 10.0317 16.0003 10C18.0046 10.032 19.9197 10.8048 21.3503 12.1589C22.4557 13.1427 23.3349 14.3391 23.9313 15.6707C23.9766 15.775 24 15.8869 24 16C24 16.1131 23.9766 16.225 23.9313 16.3293C23.3226 17.6542 22.445 18.8482 21.3503 19.8411C19.92 21.1956 18.0048 21.9685 16.0003 22C13.9958 21.9688 12.0804 21.1958 10.6503 19.8411C9.55611 18.8476 8.67833 17.6537 8.06829 16.3293C8.02321 16.2249 8 16.113 8 16C8 15.887 8.02321 15.7751 8.06829 15.6707C8.66591 14.3395 9.54536 13.1434 10.6503 12.1589ZM16.0003 11.2853C14.3332 11.3181 12.7429 11.9675 11.5583 13.0991C10.6406 13.9191 9.89835 14.9045 9.37329 15.9995C9.90461 17.091 10.6461 18.0753 11.5583 18.9C12.7427 20.0319 14.333 20.6816 16.0003 20.7147C17.6674 20.6819 19.2577 20.0325 20.4423 18.9009C21.3468 18.0694 22.0874 17.0867 22.6283 16.0005C22.0936 14.9106 21.3522 13.9269 20.4423 13.1C19.2579 11.9681 17.6676 11.3184 16.0003 11.2853Z" fill="currentColor"/>
</svg>
