<svg viewBox="0 0 60 60" fill="none" xmlns="http://www.w3.org/2000/svg">
<path d="M15.5484 16.5811C14.6903 16.5811 14 17.2714 14 18.1294V21.2262C14 22.0843 14.6903 22.7746 15.5484 22.7746H18.6452C19.5032 22.7746 20.1935 22.0843 20.1935 21.2262V18.1294C20.1935 17.2714 19.5032 16.5811 18.6452 16.5811H15.5484ZM24.8387 18.1294C23.9806 18.1294 23.2903 18.8198 23.2903 19.6778C23.2903 20.5359 23.9806 21.2262 24.8387 21.2262H44.4516C45.3097 21.2262 46 20.5359 46 19.6778C46 18.8198 45.3097 18.1294 44.4516 18.1294H24.8387ZM24.8387 28.452C23.9806 28.452 23.2903 29.1423 23.2903 30.0004C23.2903 30.8585 23.9806 31.5488 24.8387 31.5488H44.4516C45.3097 31.5488 46 30.8585 46 30.0004C46 29.1423 45.3097 28.452 44.4516 28.452H24.8387ZM24.8387 38.7746C23.9806 38.7746 23.2903 39.4649 23.2903 40.323C23.2903 41.1811 23.9806 41.8714 24.8387 41.8714H44.4516C45.3097 41.8714 46 41.1811 46 40.323C46 39.4649 45.3097 38.7746 44.4516 38.7746H24.8387ZM14 28.452V31.5488C14 32.4069 14.6903 33.0972 15.5484 33.0972H18.6452C19.5032 33.0972 20.1935 32.4069 20.1935 31.5488V28.452C20.1935 27.594 19.5032 26.9036 18.6452 26.9036H15.5484C14.6903 26.9036 14 27.594 14 28.452ZM15.5484 37.2262C14.6903 37.2262 14 37.9165 14 38.7746V41.8714C14 42.7294 14.6903 43.4198 15.5484 43.4198H18.6452C19.5032 43.4198 20.1935 42.7294 20.1935 41.8714V38.7746C20.1935 37.9165 19.5032 37.2262 18.6452 37.2262H15.5484Z" fill="currentColor"/>
</svg>
