<svg viewBox="0 0 60 60" fill="none" xmlns="http://www.w3.org/2000/svg">
<path d="M21.1111 17.7777H45.5556C46.1667 17.7777 46.6667 18.2777 46.6667 18.8888V34.4443C46.6667 35.0554 46.1667 35.5554 45.5556 35.5554H44.0833L36.9514 24.6457C36.6458 24.1735 36.1181 23.8888 35.5556 23.8888C34.9931 23.8888 34.4653 24.1735 34.1597 24.6457L30.5347 30.1874L29.6736 29.0138C29.3611 28.5832 28.8611 28.3332 28.3264 28.3332C27.7917 28.3332 27.2986 28.5832 26.9792 29.0138L22.1944 35.5554H21.1111C20.5 35.5554 20 35.0554 20 34.4443V18.8888C20 18.2777 20.5 17.7777 21.1111 17.7777ZM16.6667 18.8888V34.4443C16.6667 36.8957 18.6597 38.8888 21.1111 38.8888H45.5556C48.0069 38.8888 50 36.8957 50 34.4443V18.8888C50 16.4374 48.0069 14.4443 45.5556 14.4443H21.1111C18.6597 14.4443 16.6667 16.4374 16.6667 18.8888ZM13.3333 20.5554C13.3333 19.6318 12.5903 18.8888 11.6667 18.8888C10.7431 18.8888 10 19.6318 10 20.5554V36.111C10 41.3263 14.2292 45.5554 19.4444 45.5554H41.6667C42.5903 45.5554 43.3333 44.8124 43.3333 43.8888C43.3333 42.9652 42.5903 42.2221 41.6667 42.2221H19.4444C16.0694 42.2221 13.3333 39.486 13.3333 36.111V20.5554ZM27.7778 22.2221C27.7778 21.6327 27.5437 21.0675 27.1269 20.6508C26.7102 20.234 26.1449 19.9999 25.5556 19.9999C24.9662 19.9999 24.401 20.234 23.9842 20.6508C23.5675 21.0675 23.3333 21.6327 23.3333 22.2221C23.3333 22.8115 23.5675 23.3767 23.9842 23.7935C24.401 24.2102 24.9662 24.4443 25.5556 24.4443C26.1449 24.4443 26.7102 24.2102 27.1269 23.7935C27.5437 23.3767 27.7778 22.8115 27.7778 22.2221Z" fill="currentColor"/>
</svg>
