<svg viewBox="0 0 60 60" fill="none" xmlns="http://www.w3.org/2000/svg">
<path d="M26 17C25.45 17 25 17.45 25 18V32C25 32.5438 25.4313 32.9875 25.975 33L30.2938 27.1125C30.575 26.725 31.025 26.5 31.5063 26.5C31.9875 26.5 32.4312 26.725 32.7188 27.1125L33.75 28.525L37.25 23.175C37.525 22.75 38 22.4937 38.5063 22.4937C39.0125 22.4937 39.4875 22.75 39.7625 23.175L46.1688 32.9875C46.6437 32.9062 47 32.4937 47 32V18C47 17.45 46.55 17 46 17H26ZM22 18C22 15.7938 23.7937 14 26 14H46C48.2062 14 50 15.7938 50 18V32C50 34.2062 48.2062 36 46 36H26C23.7937 36 22 34.2062 22 32V18ZM18.5 22H20V25V30.5V37.5V38V43H32V38H35V43H38C38.55 43 39 42.55 39 42V38H42V42C42 44.2062 40.2062 46 38 46H35H33.5H32H20H18.5H17H14C11.7938 46 10 44.2062 10 42V26C10 23.7937 11.7938 22 14 22H17H18.5ZM17 25H14C13.45 25 13 25.45 13 26V29H17V25ZM17 43V39H13V42C13 42.55 13.45 43 14 43H17ZM13 36H17V32H13V36ZM29 19C29.5304 19 30.0391 19.2107 30.4142 19.5858C30.7893 19.9609 31 20.4696 31 21C31 21.5304 30.7893 22.0391 30.4142 22.4142C30.0391 22.7893 29.5304 23 29 23C28.4696 23 27.9609 22.7893 27.5858 22.4142C27.2107 22.0391 27 21.5304 27 21C27 20.4696 27.2107 19.9609 27.5858 19.5858C27.9609 19.2107 28.4696 19 29 19Z" fill="currentColor"/>
</svg>
