<svg viewBox="0 0 60 60" fill="none" xmlns="http://www.w3.org/2000/svg">
<path d="M46 36.8567V15.1424C46 14.2331 45.6388 13.3611 44.9958 12.7181C44.3528 12.0751 43.4807 11.7139 42.5714 11.7139H19.7143C18.1988 11.7139 16.7453 12.3159 15.6737 13.3875C14.602 14.4592 14 15.9126 14 17.4282L14 42.571C14 44.0865 14.602 45.54 15.6737 46.6116C16.7453 47.6833 18.1988 48.2853 19.7143 48.2853H44.2857C44.7404 48.2853 45.1764 48.1047 45.4979 47.7832C45.8194 47.4617 46 47.0257 46 46.571C46 46.1164 45.8194 45.6803 45.4979 45.3588C45.1764 45.0373 44.7404 44.8567 44.2857 44.8567H43.7143V40.075C44.3805 39.8395 44.9576 39.4039 45.3668 38.8278C45.7759 38.2517 45.9971 37.5633 46 36.8567ZM40.2857 44.8567H19.7143C19.1081 44.8567 18.5267 44.6159 18.098 44.1873C17.6694 43.7586 17.4286 43.1772 17.4286 42.571C17.4286 41.9648 17.6694 41.3834 18.098 40.9548C18.5267 40.5261 19.1081 40.2853 19.7143 40.2853H40.2857V44.8567ZM42.5714 36.8567H19.7143C18.9275 36.8553 18.149 37.018 17.4286 37.3344V17.4282C17.4286 16.8219 17.6694 16.2406 18.098 15.8119C18.5267 15.3833 19.1081 15.1424 19.7143 15.1424H42.5714V36.8567ZM24.8571 23.1424H37.4286C37.8832 23.1424 38.3193 22.9618 38.6408 22.6403C38.9622 22.3188 39.1429 21.8828 39.1429 21.4282C39.1429 20.9735 38.9622 20.5375 38.6408 20.216C38.3193 19.8945 37.8832 19.7139 37.4286 19.7139H24.8571C24.4025 19.7139 23.9665 19.8945 23.645 20.216C23.3235 20.5375 23.1429 20.9735 23.1429 21.4282C23.1429 21.8828 23.3235 22.3188 23.645 22.6403C23.9665 22.9618 24.4025 23.1424 24.8571 23.1424ZM24.8571 28.8567H37.4286C37.8832 28.8567 38.3193 28.6761 38.6408 28.3546C38.9622 28.0331 39.1429 27.5971 39.1429 27.1424C39.1429 26.6878 38.9622 26.2517 38.6408 25.9303C38.3193 25.6088 37.8832 25.4282 37.4286 25.4282H24.8571C24.4025 25.4282 23.9665 25.6088 23.645 25.9303C23.3235 26.2517 23.1429 26.6878 23.1429 27.1424C23.1429 27.5971 23.3235 28.0331 23.645 28.3546C23.9665 28.6761 24.4025 28.8567 24.8571 28.8567Z" fill="currentColor"/>
</svg>
