<svg viewBox="0 0 18 18" fill="none" xmlns="http://www.w3.org/2000/svg">
<path d="M8.99999 2.87754C7.37621 2.87754 5.81894 3.52258 4.67076 4.67076C3.52258 5.81894 2.87754 7.37621 2.87754 8.99999C2.87754 10.6238 3.52258 12.181 4.67076 13.3292C5.81894 14.4774 7.37621 15.1224 8.99999 15.1224C10.6238 15.1224 12.181 14.4774 13.3292 13.3292C14.4774 12.181 15.1224 10.6238 15.1224 8.99999C15.1224 7.37621 14.4774 5.81894 13.3292 4.67076C12.181 3.52258 10.6238 2.87754 8.99999 2.87754ZM17.5714 8.99999C17.5714 11.2733 16.6684 13.4534 15.0609 15.0609C13.4534 16.6684 11.2733 17.5714 8.99999 17.5714C6.7267 17.5714 4.54653 16.6684 2.93907 15.0609C1.33162 13.4534 0.428558 11.2733 0.428558 8.99999C0.428558 6.7267 1.33162 4.54653 2.93907 2.93907C4.54653 1.33162 6.7267 0.428558 8.99999 0.428558C11.2733 0.428558 13.4534 1.33162 15.0609 2.93907C16.6684 4.54653 17.5714 6.7267 17.5714 8.99999Z" fill="white"/>
</svg>