<svg viewBox="0 0 18 18" fill="none" xmlns="http://www.w3.org/2000/svg">
<path d="M15.4286 8.99999H9.00001V2.57142C5.45091 2.57142 2.57144 5.45088 2.57144 8.99999C2.57144 12.5491 5.45091 15.4286 9.00001 15.4286C12.5491 15.4286 15.4286 12.5491 15.4286 8.99999ZM17.5714 8.99999C17.5714 11.2733 16.6684 13.4534 15.0609 15.0609C13.4535 16.6684 11.2733 17.5714 9.00001 17.5714C6.72673 17.5714 4.54655 16.6684 2.9391 15.0609C1.33164 13.4534 0.428585 11.2733 0.428585 8.99999C0.428585 6.7267 1.33164 4.54653 2.9391 2.93907C4.54655 1.33162 6.72673 0.428558 9.00001 0.428558C11.2733 0.428558 13.4535 1.33162 15.0609 2.93907C16.6684 4.54653 17.5714 6.7267 17.5714 8.99999Z" fill="white"/>
</svg>