<svg viewBox="0 0 72 72" fill="none" xmlns="http://www.w3.org/2000/svg">
  <path
    d="M37.5009 18.6855C40.9258 19.4839 43.1257 22.8201 42.5924 26.2657C42.4174 27.3665 43.1673 28.4002 44.259 28.5683C45.3506 28.7363 46.3755 27.9884 46.5422 26.8875C47.4005 21.3747 43.884 16.0384 38.4009 14.761C32.6594 13.4248 26.9346 17.03 25.6097 22.8201C24.7181 26.7111 26.043 30.602 28.7512 33.1315L22.8098 42.7201C22.7598 42.7201 22.7181 42.7201 22.6681 42.7201C20.4599 42.7201 18.6683 44.5269 18.6683 46.7538C18.6683 48.9808 20.4599 50.7876 22.6681 50.7876C24.8764 50.7876 26.668 48.9808 26.668 46.7538C26.668 46.0731 26.5013 45.4261 26.2013 44.863L33.1011 33.7281C33.3844 33.2743 33.476 32.7281 33.3511 32.2071C33.2261 31.686 32.9094 31.2322 32.4594 30.9465C30.1095 29.4675 28.8429 26.6018 29.5012 23.7277C30.3345 20.1142 33.9094 17.8536 37.5009 18.6855ZM36.0009 23.8958C36.3546 23.8958 36.6937 24.0375 36.9437 24.2896C37.1938 24.5418 37.3342 24.8838 37.3342 25.2404C37.3342 25.597 37.1938 25.939 36.9437 26.1912C36.6937 26.4433 36.3546 26.585 36.0009 26.585C35.6473 26.585 35.3082 26.4433 35.0582 26.1912C34.8081 25.939 34.6677 25.597 34.6677 25.2404C34.6677 24.8838 34.8081 24.5418 35.0582 24.2896C35.3082 24.0375 35.6473 23.8958 36.0009 23.8958ZM39.5341 27.1312C39.8341 26.5682 40.0008 25.9211 40.0008 25.2404C40.0008 23.0134 38.2092 21.2066 36.0009 21.2066C33.7927 21.2066 32.0011 23.0134 32.0011 25.2404C32.0011 27.4674 33.7927 29.2742 36.0009 29.2742C36.0509 29.2742 36.0926 29.2742 36.1426 29.2742L43.0423 40.4091C43.3257 40.8629 43.7756 41.1822 44.2923 41.3083C44.8089 41.4343 45.3506 41.3335 45.8006 41.0561C48.3755 39.4342 51.8087 39.7536 54.0502 42.0058C56.6501 44.6277 56.6501 48.8884 54.0502 51.5103C51.817 53.7625 48.3755 54.0819 45.8006 52.46C44.8673 51.8717 43.634 52.1574 43.0423 53.0986C42.4507 54.0398 42.7423 55.2836 43.6756 55.8803C47.7921 58.4854 53.2919 57.9812 56.8751 54.3676C61.0416 50.1657 61.0416 43.3588 56.8751 39.1569C53.7919 36.0475 49.2921 35.2408 45.4756 36.7282L39.5341 27.1312ZM21.3349 46.7538C21.3349 46.3972 21.4753 46.0552 21.7254 45.8031C21.9754 45.5509 22.3145 45.4093 22.6681 45.4093C23.0217 45.4093 23.3609 45.5509 23.6109 45.8031C23.8609 46.0552 24.0014 46.3972 24.0014 46.7538C24.0014 47.1105 23.8609 47.4525 23.6109 47.7046C23.3609 47.9568 23.0217 48.0984 22.6681 48.0984C22.3145 48.0984 21.9754 47.9568 21.7254 47.7046C21.4753 47.4525 21.3349 47.1105 21.3349 46.7538ZM48.0005 46.7538C48.0005 46.3972 48.1409 46.0552 48.391 45.8031C48.641 45.5509 48.9801 45.4093 49.3338 45.4093C49.6874 45.4093 50.0265 45.5509 50.2765 45.8031C50.5266 46.0552 50.667 46.3972 50.667 46.7538C50.667 47.1105 50.5266 47.4525 50.2765 47.7046C50.0265 47.9568 49.6874 48.0984 49.3338 48.0984C48.9801 48.0984 48.641 47.9568 48.391 47.7046C48.1409 47.4525 48.0005 47.1105 48.0005 46.7538ZM53.3336 46.7538C53.3336 44.5269 51.542 42.7201 49.3338 42.7201C47.8505 42.7201 46.5589 43.5352 45.8672 44.737H31.3345C30.8012 44.737 30.2928 44.9471 29.9179 45.3252C29.5429 45.7034 29.3345 46.216 29.3345 46.7538C29.3345 49.8128 27.2513 52.586 24.1681 53.3003C20.5766 54.1323 17.0017 51.8801 16.1767 48.2581C15.4351 45.0143 17.1517 41.7789 20.1016 40.5435C21.1182 40.1149 21.6015 38.9384 21.1765 37.9048C20.7515 36.8711 19.5849 36.3921 18.56 36.8207C13.8435 38.804 11.0853 43.9806 12.2769 49.1741C13.6018 54.9642 19.3266 58.5694 25.068 57.2332C29.3179 56.2416 32.3761 52.8213 33.1511 48.7707H45.8672C46.5589 49.9725 47.8505 50.7876 49.3338 50.7876C51.542 50.7876 53.3336 48.9808 53.3336 46.7538Z"
    fill="#207DD7"
  />
</svg>
