<svg viewBox="0 0 72 72" fill="none" xmlns="http://www.w3.org/2000/svg">
	<path d="M40.1743 58.034L31.8425 49.9094L49.7362 31.6367L58.3625 40.0912L40.1743 58.034Z" fill="#8AB4F8"/>
	<path d="M40.2098 22.113L31.908 13.6367L13.7552 31.6176C11.4152 33.9576 11.4152 37.7512 13.7552 40.094L31.6352 58.0912L40.0898 50.1821L26.4671 35.8558L40.2098 22.113Z" fill="#4285F4"/>
	<path d="M58.2425 31.7567L40.2425 13.7567C37.8998 11.414 34.1007 11.414 31.758 13.7567C29.4152 16.0994 29.4152 19.8985 31.758 22.2412L49.758 40.2412C52.1007 42.584 55.8998 42.584 58.2425 40.2412C60.5852 37.8985 60.5852 34.0994 58.2425 31.7567Z" fill="#8AB4F8"/>
	<path d="M35.8625 60.0003C39.1009 60.0003 41.7262 57.3751 41.7262 54.1367C41.7262 50.8983 39.1009 48.273 35.8625 48.273C32.6241 48.273 29.9989 50.8983 29.9989 54.1367C29.9989 57.3751 32.6241 60.0003 35.8625 60.0003Z" fill="#246FDB"/>
</svg>