<svg width="48" height="48" viewBox="0 0 48 48" fill="none" xmlns="http://www.w3.org/2000/svg">
	<path d="M28.1741 46.0344L19.8423 37.9098L37.7359 19.6371L46.3623 28.0916L28.1741 46.0344Z" fill="#8AB4F8"/>
	<path d="M28.2095 10.1135L19.9077 1.63708L1.755 19.618C-0.585 21.958 -0.585 25.7516 1.755 28.0944L19.635 46.0916L28.0895 38.1825L14.4668 23.8562L28.2095 10.1135Z" fill="#4285F4"/>
	<path d="M46.2423 19.757L28.2423 1.75705C25.8996 -0.585682 22.1005 -0.585682 19.7578 1.75705C17.4151 4.09977 17.4151 7.89886 19.7578 10.2416L37.7578 28.2416C40.1005 30.5843 43.8996 30.5843 46.2423 28.2416C48.5851 25.8989 48.5851 22.0998 46.2423 19.757Z" fill="#8AB4F8"/>
	<path d="M23.8622 48.0007C27.1006 48.0007 29.7258 45.3755 29.7258 42.1371C29.7258 38.8987 27.1006 36.2734 23.8622 36.2734C20.6238 36.2734 17.9985 38.8987 17.9985 42.1371C17.9985 45.3755 20.6238 48.0007 23.8622 48.0007Z" fill="#246FDB"/>
</svg>