<svg viewBox="0 0 73 72" fill="none" xmlns="http://www.w3.org/2000/svg">
  <rect x="0.320007" rx="5" fill="#F5F5F6" />
  <path
    d="M61.7002 37.532L10.32 42.9299L10.9398 48.8244L62.32 43.4265L61.7002 37.532Z"
    fill="#FFE900"
  />
  <path
    d="M35.2227 26.4786C34.0498 26.4784 32.9031 26.826 31.9278 27.4773C30.9525 28.1286 30.1925 29.0544 29.7436 30.1376C29.2948 31.2207 29.1774 32.4127 29.4064 33.5625C29.6354 34.7124 30.2004 35.7685 31.03 36.5974C31.8595 37.4262 32.9164 37.9906 34.0668 38.2189C35.2173 38.4473 36.4096 38.3294 37.4932 37.8804C38.5767 37.4313 39.5025 36.6711 40.1537 35.6959C40.8049 34.7209 41.1521 33.5746 41.1514 32.4021C41.152 31.6239 40.999 30.8531 40.7012 30.134C40.4034 29.4149 39.9667 28.7616 39.416 28.2114C38.8653 27.6612 38.2116 27.225 37.492 26.9276C36.7725 26.6303 36.0013 26.4777 35.2227 26.4786ZM35.2227 35.6977C34.5706 35.6977 33.9332 35.5044 33.391 35.1423C32.8488 34.7802 32.4263 34.2655 32.1767 33.6633C31.9272 33.0611 31.8619 32.3985 31.9891 31.7592C32.1162 31.1199 32.4303 30.5327 32.8914 30.0718C33.3525 29.6109 33.94 29.297 34.5795 29.1699C35.2191 29.0427 35.882 29.108 36.4845 29.3574C37.0869 29.6069 37.6018 30.0293 37.9641 30.5712C38.3264 31.1132 38.5197 31.7503 38.5197 32.4021C38.5188 33.2756 38.1711 34.113 37.5528 34.7303C36.9347 35.3476 36.0965 35.6943 35.2227 35.6943V35.6977Z"
    fill="black"
  />
  <path
    d="M54.303 26.4786C53.1302 26.4786 51.9838 26.8262 51.0088 27.4774C50.0337 28.1287 49.2736 29.0543 48.8249 30.1373C48.376 31.2204 48.2587 32.4121 48.4874 33.5617C48.7162 34.7115 49.281 35.7676 50.1102 36.5964C50.9395 37.4253 51.996 37.9898 53.1463 38.2185C54.2964 38.4472 55.4887 38.3299 56.5721 37.8812C57.6557 37.4327 58.5817 36.673 59.2333 35.6983C59.8848 34.7236 60.2325 33.5777 60.2325 32.4055C60.2341 31.6267 60.0818 30.8553 59.7844 30.1355C59.4869 29.4157 59.0502 28.7617 58.4993 28.211C57.9484 27.6604 57.2941 27.2238 56.574 26.9265C55.8539 26.6292 55.0821 26.477 54.303 26.4786ZM54.303 35.6977C53.6509 35.6977 53.0135 35.5043 52.4713 35.1423C51.9291 34.7802 51.5066 34.2655 51.257 33.6633C51.0075 33.0611 50.9422 32.3984 51.0694 31.7592C51.1965 31.1199 51.5106 30.5327 51.9717 30.0718C52.4328 29.6109 53.0203 29.297 53.6598 29.1699C54.2994 29.0427 54.9623 29.108 55.5647 29.3574C56.1672 29.6068 56.6821 30.0292 57.0444 30.5712C57.4067 31.1131 57.6 31.7503 57.6 32.4021C57.5991 33.2756 57.2514 34.1129 56.6331 34.7303C56.015 35.3476 55.1768 35.6942 54.303 35.6942V35.6977Z"
    fill="black"
  />
  <path
    d="M50.6924 26.1329V23.499H38.8342V26.1329H43.4458V38.013H46.0809V26.1329H50.6924Z"
    fill="black"
  />
  <path
    d="M19.2008 29.426V32.0599H22.8427C22.0015 34.2671 20.3987 35.6934 18.5414 35.6934C17.7289 35.6922 16.9293 35.4907 16.2133 35.1068C15.4973 34.7229 14.887 34.1686 14.4366 33.4926C13.9862 32.8168 13.7094 32.0403 13.6308 31.2319C13.5522 30.4236 13.6743 29.6084 13.9862 28.8585C14.298 28.1086 14.7901 27.4471 15.4187 26.9326C16.0474 26.4182 16.7933 26.0666 17.5903 25.909C18.3874 25.7515 19.211 25.7928 19.9883 26.0294C20.7655 26.266 21.4724 26.6904 22.0464 27.2653L23.9172 25.3944C22.8581 24.3355 21.5088 23.6142 20.0397 23.3216C18.5706 23.0289 17.0477 23.1782 15.6635 23.7505C14.2792 24.3227 13.0958 25.2923 12.2627 26.5367C11.4295 27.781 10.9842 29.2443 10.9828 30.7416C10.9787 31.7351 11.1721 32.7194 11.5518 33.6375C11.9314 34.5555 12.4897 35.3891 13.1943 36.0898C13.8949 36.796 14.728 37.3572 15.6457 37.7414C16.5635 38.1256 17.5481 38.3254 18.5431 38.329C21.124 38.329 23.4463 36.6677 24.815 34.0305V38.0121H27.4501V29.426H19.2008Z"
    fill="black"
  />
  <path
    d="M22.772 47.8243V43.0323H20.908V42.1843H25.668V43.0323H23.804V47.8243H22.772Z"
    fill="black"
  />
  <path
    d="M25.6841 47.8243V44.8163C25.6841 44.6457 25.6788 44.4723 25.6681 44.2963C25.6628 44.1203 25.6495 43.9497 25.6281 43.7843H26.5961L26.7081 44.8883H26.5481C26.6015 44.6217 26.6895 44.4003 26.8121 44.2243C26.9401 44.0483 27.0948 43.9177 27.2761 43.8323C27.4575 43.747 27.6548 43.7043 27.8681 43.7043C27.9641 43.7043 28.0415 43.7097 28.1001 43.7203C28.1588 43.7257 28.2175 43.739 28.2761 43.7603L28.2681 44.6403C28.1668 44.5977 28.0788 44.571 28.0041 44.5603C27.9348 44.5497 27.8468 44.5443 27.7401 44.5443C27.5108 44.5443 27.3161 44.5923 27.1561 44.6883C27.0015 44.7843 26.8841 44.9177 26.8041 45.0883C26.7295 45.259 26.6921 45.4537 26.6921 45.6723V47.8243H25.6841Z"
    fill="black"
  />
  <path
    d="M30.3537 47.9043C30.0017 47.9043 29.6924 47.8217 29.4257 47.6563C29.159 47.4857 28.951 47.243 28.8017 46.9283C28.6524 46.6137 28.5777 46.2377 28.5777 45.8003C28.5777 45.363 28.6524 44.9897 28.8017 44.6803C28.951 44.3657 29.159 44.1257 29.4257 43.9603C29.6924 43.7897 30.0017 43.7043 30.3537 43.7043C30.695 43.7043 30.9937 43.7897 31.2497 43.9603C31.511 44.1257 31.6844 44.3497 31.7697 44.6323H31.6817L31.7697 43.7843H32.7297C32.7137 43.9497 32.6977 44.1177 32.6817 44.2883C32.671 44.459 32.6657 44.627 32.6657 44.7923V47.8243H31.6737L31.6657 46.9923H31.7617C31.6764 47.2697 31.503 47.491 31.2417 47.6563C30.9804 47.8217 30.6844 47.9043 30.3537 47.9043ZM30.6337 47.1363C30.9484 47.1363 31.2017 47.027 31.3937 46.8083C31.5857 46.5843 31.6817 46.2483 31.6817 45.8003C31.6817 45.3523 31.5857 45.019 31.3937 44.8003C31.2017 44.5817 30.9484 44.4723 30.6337 44.4723C30.319 44.4723 30.0657 44.5817 29.8737 44.8003C29.6817 45.019 29.5857 45.3523 29.5857 45.8003C29.5857 46.2483 29.679 46.5843 29.8657 46.8083C30.0577 47.027 30.3137 47.1363 30.6337 47.1363Z"
    fill="black"
  />
  <path
    d="M33.7546 47.8243V43.7843H34.7546V47.8243H33.7546ZM33.6986 43.0243V42.0483H34.8106V43.0243H33.6986Z"
    fill="black"
  />
  <path
    d="M35.8406 47.8243V44.7923C35.8406 44.627 35.8352 44.459 35.8246 44.2883C35.8139 44.1177 35.7979 43.9497 35.7766 43.7843H36.7446L36.8246 44.5843H36.7286C36.8566 44.3017 37.0459 44.0857 37.2966 43.9363C37.5473 43.7817 37.8379 43.7043 38.1686 43.7043C38.6432 43.7043 39.0006 43.8377 39.2406 44.1043C39.4806 44.371 39.6006 44.787 39.6006 45.3523V47.8243H38.6006V45.4003C38.6006 45.075 38.5366 44.843 38.4086 44.7043C38.2859 44.5603 38.0993 44.4883 37.8486 44.4883C37.5392 44.4883 37.2939 44.5843 37.1126 44.7763C36.9312 44.9683 36.8406 45.2243 36.8406 45.5443V47.8243H35.8406Z"
    fill="black"
  />
  <path
    d="M40.6609 47.8243V43.7843H41.6609V47.8243H40.6609ZM40.6049 43.0243V42.0483H41.7169V43.0243H40.6049Z"
    fill="black"
  />
  <path
    d="M42.7468 47.8243V44.7923C42.7468 44.627 42.7415 44.459 42.7308 44.2883C42.7202 44.1177 42.7042 43.9497 42.6828 43.7843H43.6508L43.7308 44.5843H43.6348C43.7628 44.3017 43.9522 44.0857 44.2028 43.9363C44.4535 43.7817 44.7442 43.7043 45.0748 43.7043C45.5495 43.7043 45.9068 43.8377 46.1468 44.1043C46.3868 44.371 46.5068 44.787 46.5068 45.3523V47.8243H45.5068V45.4003C45.5068 45.075 45.4428 44.843 45.3148 44.7043C45.1922 44.5603 45.0055 44.4883 44.7548 44.4883C44.4455 44.4883 44.2002 44.5843 44.0188 44.7763C43.8375 44.9683 43.7468 45.2243 43.7468 45.5443V47.8243H42.7468Z"
    fill="black"
  />
  <path
    d="M49.4391 49.6163C49.0658 49.6163 48.7271 49.5763 48.4231 49.4963C48.1245 49.4163 47.8578 49.2937 47.6231 49.1283L47.8391 48.4083C47.9938 48.5097 48.1538 48.5923 48.3191 48.6563C48.4845 48.7203 48.6551 48.7683 48.8311 48.8003C49.0071 48.8323 49.1858 48.8483 49.3671 48.8483C49.7405 48.8483 50.0178 48.755 50.1991 48.5683C50.3858 48.387 50.4791 48.1257 50.4791 47.7843V46.8163H50.5591C50.4738 47.0937 50.3005 47.315 50.0391 47.4803C49.7831 47.6457 49.4871 47.7283 49.1511 47.7283C48.7885 47.7283 48.4711 47.6483 48.1991 47.4883C47.9325 47.323 47.7245 47.0883 47.5751 46.7843C47.4258 46.4803 47.3511 46.123 47.3511 45.7123C47.3511 45.3017 47.4258 44.947 47.5751 44.6483C47.7245 44.3443 47.9325 44.1123 48.1991 43.9523C48.4711 43.787 48.7885 43.7043 49.1511 43.7043C49.4925 43.7043 49.7885 43.787 50.0391 43.9523C50.2951 44.1123 50.4658 44.331 50.5511 44.6083L50.4791 44.5603L50.5591 43.7843H51.5271C51.5058 43.9497 51.4898 44.1177 51.4791 44.2883C51.4685 44.459 51.4631 44.627 51.4631 44.7923V47.6643C51.4631 48.299 51.2898 48.7817 50.9431 49.1123C50.6018 49.4483 50.1005 49.6163 49.4391 49.6163ZM49.4231 46.9603C49.7431 46.9603 49.9965 46.8537 50.1831 46.6403C50.3751 46.4217 50.4711 46.1123 50.4711 45.7123C50.4711 45.3123 50.3751 45.0057 50.1831 44.7923C49.9965 44.579 49.7431 44.4723 49.4231 44.4723C49.0978 44.4723 48.8391 44.579 48.6471 44.7923C48.4551 45.0057 48.3591 45.3123 48.3591 45.7123C48.3591 46.1123 48.4551 46.4217 48.6471 46.6403C48.8391 46.8537 49.0978 46.9603 49.4231 46.9603Z"
    fill="black"
  />
</svg>