<svg viewBox="0 0 72 72" fill="none" xmlns="http://www.w3.org/2000/svg">
<path fill-rule="evenodd" clip-rule="evenodd" d="M46.1904 46.1491C42.7047 46.1491 39.879 43.3928 39.879 39.9931C39.879 36.5929 42.7047 33.8365 46.1904 33.8365C49.6761 33.8365 52.5017 36.5929 52.5017 39.9931C52.5017 43.3928 49.6761 46.1491 46.1904 46.1491ZM48.0798 28.1407V22.6641C49.5453 21.9889 50.5718 20.5428 50.5718 18.8645V18.7381C50.5718 16.4219 48.6291 14.5268 46.2546 14.5268H46.1256C43.7511 14.5268 41.8084 16.4219 41.8084 18.7381V18.8645C41.8084 20.5428 42.8349 21.9895 44.3004 22.6647V28.1407C42.1185 28.4698 40.1249 29.3476 38.4808 30.6395L23.0657 18.9425C23.1675 18.5615 23.2389 18.1693 23.2395 17.7569C23.242 15.1341 21.0655 13.0045 18.3755 13.001C15.6867 12.998 13.503 15.1217 13.5 17.7451C13.497 20.3685 15.6734 22.4981 18.3634 22.5011C19.2397 22.5023 20.0512 22.2595 20.7621 21.8649L35.9252 33.3716C34.6359 35.2702 33.8802 37.5446 33.8802 39.9931C33.8802 42.5563 34.7104 44.9275 36.1129 46.8775L31.5021 51.3759C31.1375 51.2689 30.7596 51.1945 30.3587 51.1945C28.149 51.1945 26.3571 52.9419 26.3571 55.0974C26.3571 57.2536 28.149 59.001 30.3587 59.001C32.5691 59.001 34.3604 57.2536 34.3604 55.0974C34.3604 54.7076 34.2841 54.3384 34.1745 53.9827L38.7357 49.5334C40.8062 51.0746 43.3847 52.0008 46.1904 52.0008C52.9892 52.0008 58.5 46.6246 58.5 39.9931C58.5 33.9896 53.9787 29.0298 48.0798 28.1407Z" fill="#F95C35"/>
</svg>
