<svg viewBox="0 0 72 72" fill="none" xmlns="http://www.w3.org/2000/svg">
  <path
    d="M53.6001 38.3903C53.5955 38.8116 53.4249 39.2142 53.1254 39.5105C52.8258 39.8068 52.4214 39.9731 52 39.9731C51.5787 39.9731 51.1743 39.8068 50.8747 39.5105C50.5751 39.2142 50.4046 38.8116 50.4 38.3903V24C50.4046 23.5786 50.5751 23.1761 50.8747 22.8798C51.1743 22.5834 51.5787 22.4172 52 22.4172C52.4214 22.4172 52.8258 22.5834 53.1254 22.8798C53.4249 23.1761 53.5955 23.5786 53.6001 24V38.3903ZM53.0417 48.4052C52.7944 48.6169 46.8673 53.5905 36 53.5905C25.1329 53.5905 19.206 48.6167 18.9587 48.405C18.6366 48.1288 18.4373 47.7359 18.4048 47.3128C18.3723 46.8897 18.5091 46.471 18.7852 46.1488C19.0608 45.8271 19.4527 45.6278 19.8749 45.5947C20.2972 45.5616 20.7154 45.6974 21.0377 45.9722C21.1316 46.0509 26.4244 50.3903 36.0002 50.3903C45.6962 50.3903 50.907 46.0196 50.9586 45.9756C51.6281 45.4005 52.6401 45.4778 53.2147 46.149C53.491 46.4711 53.6279 46.8898 53.5955 47.3129C53.563 47.736 53.3638 48.1289 53.0417 48.4052ZM18.3999 24C18.4045 23.5786 18.5751 23.1761 18.8747 22.8798C19.1742 22.5834 19.5786 22.4172 20 22.4172C20.4213 22.4172 20.8257 22.5834 21.1253 22.8798C21.4249 23.1761 21.5954 23.5786 21.6 24V38.3903C21.5954 38.8116 21.4249 39.2142 21.1253 39.5105C20.8257 39.8068 20.4213 39.9731 20 39.9731C19.5786 39.9731 19.1742 39.8068 18.8747 39.5105C18.5751 39.2142 18.4045 38.8116 18.3999 38.3903V24ZM26.4002 20.7999C26.4066 20.3798 26.578 19.9791 26.8774 19.6843C27.1767 19.3895 27.58 19.2243 28.0001 19.2243C28.4203 19.2243 28.8235 19.3895 29.1229 19.6843C29.4222 19.9791 29.5936 20.3798 29.6001 20.7999V42.1751C29.5936 42.5952 29.4222 42.9959 29.1229 43.2907C28.8235 43.5855 28.4203 43.7508 28.0001 43.7508C27.58 43.7508 27.1767 43.5855 26.8774 43.2907C26.578 42.9959 26.4066 42.5952 26.4002 42.1751V20.7999ZM34.4001 19.9903C34.4 19.7802 34.4414 19.5721 34.5218 19.378C34.6022 19.1839 34.72 19.0075 34.8686 18.8589C35.0172 18.7104 35.1936 18.5925 35.3877 18.5121C35.5818 18.4317 35.7899 18.3904 36 18.3904C36.2101 18.3903 36.4182 18.4317 36.6124 18.5121C36.8065 18.5924 36.9829 18.7103 37.1315 18.8589C37.2801 19.0074 37.398 19.1838 37.4784 19.378C37.5588 19.5721 37.6001 19.7802 37.6001 19.9903V43.1903C37.5956 43.6116 37.425 44.0142 37.1254 44.3105C36.8258 44.6068 36.4215 44.7731 36.0001 44.7731C35.5787 44.7731 35.1743 44.6068 34.8748 44.3105C34.5752 44.0142 34.4046 43.6116 34.4001 43.1903V19.9903ZM42.4001 20.7999C42.4066 20.3798 42.578 19.9791 42.8773 19.6843C43.1766 19.3895 43.5799 19.2243 44.0001 19.2243C44.4202 19.2243 44.8235 19.3895 45.1228 19.6843C45.4222 19.9791 45.5936 20.3798 45.6 20.7999V42.1751C45.5936 42.5952 45.4222 42.9959 45.1228 43.2907C44.8235 43.5855 44.4202 43.7508 44.0001 43.7508C43.5799 43.7508 43.1766 43.5855 42.8773 43.2907C42.578 42.9959 42.4066 42.5952 42.4001 42.1751V20.7999ZM54 12H18C14.6863 12 12 14.6863 12 18V54C12 57.3135 14.6863 60 18 60H54C57.3137 60 60 57.3135 60 54V18C60 14.6863 57.3137 12 54 12Z"
    fill="#1F8DED"
  />
</svg>