<svg viewBox="0 0 72 72" fill="none" xmlns="http://www.w3.org/2000/svg">
  <path
    d="M15.6 20.4H22.2C23.1975 20.4 24 19.5975 24 18.6C24 17.6025 23.1975 16.8 22.2 16.8H14.4C13.0725 16.8 12 17.8725 12 19.2V27C12 27.9975 12.8025 28.8 13.8 28.8C14.7975 28.8 15.6 27.9975 15.6 27V20.4ZM25.185 33.6C25.6578 33.6 26.1259 33.5069 26.5627 33.326C26.9994 33.1451 27.3963 32.8799 27.7306 32.5456C28.0649 32.2113 28.3301 31.8145 28.511 31.3777C28.6919 30.9409 28.785 30.4728 28.785 30C28.785 29.5273 28.6919 29.0592 28.511 28.6224C28.3301 28.1856 28.0649 27.7888 27.7306 27.4545C27.3963 27.1202 26.9994 26.855 26.5627 26.6741C26.1259 26.4932 25.6578 26.4 25.185 26.4C24.7122 26.4 24.2441 26.4932 23.8073 26.6741C23.3706 26.855 22.9737 27.1202 22.6394 27.4545C22.3051 27.7888 22.04 28.1856 21.859 28.6224C21.6781 29.0592 21.585 29.5273 21.585 30C21.585 30.4728 21.6781 30.9409 21.859 31.3777C22.04 31.8145 22.3051 32.2113 22.6394 32.5456C22.9737 32.8799 23.3706 33.1451 23.8073 33.326C24.2441 33.5069 24.7122 33.6 25.185 33.6ZM23.1975 36C20.9925 36 19.2 37.7925 19.2 39.9975C19.2 41.1 20.0925 42 21.2025 42H25.41C26.01 39.4426 27.87 37.3725 30.3 36.48C29.7375 36.1725 29.085 36 28.4025 36H23.1975ZM50.7975 42C51.9 42 52.8 41.1075 52.8 39.9975C52.8 37.785 51.0075 36 48.8025 36H43.5975C42.9075 36 42.2625 36.1725 41.7 36.48C44.13 37.3725 45.99 39.4426 46.59 42H50.7975ZM44.0925 42C43.4475 40.1775 41.85 38.805 39.9 38.475C39.6075 38.4226 39.3075 38.4 39 38.4H33C32.6925 38.4 32.3925 38.4226 32.1 38.475C30.15 38.805 28.5525 40.1775 27.9075 42C27.705 42.5625 27.6 43.17 27.6 43.8001C27.6 44.7976 28.4025 45.6 29.4 45.6H42.6C43.5975 45.6 44.4 44.7976 44.4 43.8001C44.4 43.17 44.295 42.5625 44.0925 42ZM46.8 33.6C47.2728 33.6 47.7409 33.5069 48.1777 33.326C48.6144 33.1451 49.0113 32.8799 49.3456 32.5456C49.6799 32.2113 49.9451 31.8145 50.126 31.3777C50.3069 30.9409 50.4 30.4728 50.4 30C50.4 29.5273 50.3069 29.0592 50.126 28.6224C49.9451 28.1856 49.6799 27.7888 49.3456 27.4545C49.0113 27.1202 48.6144 26.855 48.1777 26.6741C47.7409 26.4932 47.2728 26.4 46.8 26.4C46.3272 26.4 45.8591 26.4932 45.4223 26.6741C44.9856 26.855 44.5887 27.1202 44.2544 27.4545C43.9201 27.7888 43.655 28.1856 43.474 28.6224C43.2931 29.0592 43.2 29.5273 43.2 30C43.2 30.4728 43.2931 30.9409 43.474 31.3777C43.655 31.8145 43.9201 32.2113 44.2544 32.5456C44.5887 32.8799 44.9856 33.1451 45.4223 33.326C45.8591 33.5069 46.3272 33.6 46.8 33.6ZM40.8 31.2C40.8 29.927 40.2943 28.7061 39.3941 27.8059C38.4939 26.9058 37.273 26.4 36 26.4C34.727 26.4 33.5061 26.9058 32.6059 27.8059C31.7057 28.7061 31.2 29.927 31.2 31.2C31.2 32.4731 31.7057 33.694 32.6059 34.5942C33.5061 35.4943 34.727 36 36 36C37.273 36 38.4939 35.4943 39.3941 34.5942C40.2943 33.694 40.8 32.4731 40.8 31.2ZM49.8 20.4H56.4V27C56.4 27.9975 57.2025 28.8 58.2 28.8C59.1975 28.8 60 27.9975 60 27V19.2C60 17.8725 58.9275 16.8 57.6 16.8H49.8C48.8025 16.8 48 17.6025 48 18.6C48 19.5975 48.8025 20.4 49.8 20.4ZM15.6 51.6001V45C15.6 44.0026 14.7975 43.2001 13.8 43.2001C12.8025 43.2001 12 44.0026 12 45V52.8C12 54.1276 13.0725 55.2001 14.4 55.2001H22.2C23.1975 55.2001 24 54.3975 24 53.4001C24 52.4025 23.1975 51.6001 22.2 51.6001H15.6ZM49.8 51.6001C48.8025 51.6001 48 52.4025 48 53.4001C48 54.3975 48.8025 55.2001 49.8 55.2001H57.6C58.9275 55.2001 60 54.1276 60 52.8V45C60 44.0026 59.1975 43.2001 58.2 43.2001C57.2025 43.2001 56.4 44.0026 56.4 45V51.6001H49.8Z"
    fill="#0046AB"
  />
</svg>