<svg viewBox="0 0 49 48" fill="none" xmlns="http://www.w3.org/2000/svg">
<path d="M45.2316 0H4.07801C2.1923 0 0.660156 1.55357 0.660156 3.46071V44.5393C0.660156 46.4464 2.1923 48 4.07801 48H45.2316C47.1173 48 48.6602 46.4464 48.6602 44.5393V3.46071C48.6602 1.55357 47.1173 0 45.2316 0ZM15.1673 41.1429H8.05301V18.2357H15.178V41.1429H15.1673ZM11.6102 15.1071C9.32801 15.1071 7.48516 13.2536 7.48516 10.9821C7.48516 8.71071 9.32801 6.85714 11.6102 6.85714C13.8816 6.85714 15.7352 8.71071 15.7352 10.9821C15.7352 13.2643 13.8923 15.1071 11.6102 15.1071ZM41.8352 41.1429H34.7209V30C34.7209 27.3429 34.6673 23.925 31.0244 23.925C27.3173 23.925 26.7494 26.8179 26.7494 29.8071V41.1429H19.6352V18.2357H26.4602V21.3643H26.5566C27.5102 19.5643 29.8352 17.6679 33.2959 17.6679C40.4959 17.6679 41.8352 22.4143 41.8352 28.5857V41.1429Z" fill="#0077B5"/>
</svg>
