<svg viewBox="0 0 73 72" fill="none" xmlns="http://www.w3.org/2000/svg">
<rect x="0.660156" width="72" height="72" rx="5" fill="none"/>
<path d="M57.2316 12H16.078C14.1923 12 12.6602 13.5536 12.6602 15.4607V56.5393C12.6602 58.4464 14.1923 60 16.078 60H57.2316C59.1173 60 60.6602 58.4464 60.6602 56.5393V15.4607C60.6602 13.5536 59.1173 12 57.2316 12ZM27.1673 53.1429H20.053V30.2357H27.178V53.1429H27.1673ZM23.6102 27.1071C21.328 27.1071 19.4852 25.2536 19.4852 22.9821C19.4852 20.7107 21.328 18.8571 23.6102 18.8571C25.8816 18.8571 27.7352 20.7107 27.7352 22.9821C27.7352 25.2643 25.8923 27.1071 23.6102 27.1071ZM53.8352 53.1429H46.7209V42C46.7209 39.3429 46.6673 35.925 43.0244 35.925C39.3173 35.925 38.7494 38.8179 38.7494 41.8071V53.1429H31.6352V30.2357H38.4602V33.3643H38.5566C39.5102 31.5643 41.8352 29.6679 45.2959 29.6679C52.4959 29.6679 53.8352 34.4143 53.8352 40.5857V53.1429Z" fill="#0077B5"/>
</svg>
