<svg viewBox="0 0 32 32" fill="none" xmlns="http://www.w3.org/2000/svg">
<path d="M11.5801 9C11.0865 9 10.6154 9.17218 10.266 9.47984L6.40705 12.8782C6.14744 13.1069 6 13.4173 6 13.7419C6 14.0665 6.14744 14.377 6.40705 14.6056L10.266 18.004C10.6154 18.3117 11.0865 18.4839 11.5801 18.4839C12.6058 18.4839 13.4359 17.7528 13.4359 16.8496V16.6774H19.5897C19.8718 16.6774 20.1026 16.4742 20.1026 16.2258V15.1504C20.1026 14.9952 20.2468 14.871 20.4199 14.871C20.5032 14.871 20.5865 14.8992 20.6442 14.9528L24.4006 18.2581L20.6474 21.5633C20.5865 21.6169 20.5064 21.6452 20.4231 21.6452C20.2468 21.6452 20.1058 21.5181 20.1058 21.3657V20.2903C20.1058 20.0419 19.875 19.8387 19.5929 19.8387H16C15.5737 19.8387 15.2308 20.1407 15.2308 20.5161C15.2308 20.8915 15.5737 21.1935 16 21.1935H18.5641V21.3657C18.5641 22.269 19.3942 23 20.4199 23C20.9135 23 21.3846 22.8278 21.734 22.5202L25.5929 19.1218C25.8526 18.8931 26 18.5827 26 18.2581C26 17.9335 25.8526 17.623 25.5929 17.3944L21.734 13.996C21.3846 13.6883 20.9135 13.5161 20.4199 13.5161C19.3942 13.5161 18.5641 14.2472 18.5641 15.1504V15.3226H12.4103C12.1282 15.3226 11.8974 15.5258 11.8974 15.7742V16.8496C11.8974 17.0048 11.7532 17.129 11.5801 17.129C11.4968 17.129 11.4135 17.1008 11.3558 17.0472L7.59936 13.7419L11.3526 10.4367C11.4135 10.3831 11.4936 10.3548 11.5769 10.3548C11.7532 10.3548 11.8942 10.4819 11.8942 10.6343V11.7097C11.8942 11.9581 12.125 12.1613 12.4071 12.1613H16C16.4263 12.1613 16.7692 11.8593 16.7692 11.4839C16.7692 11.1085 16.4263 10.8065 16 10.8065H13.4359V10.6343C13.4359 9.73105 12.6058 9 11.5801 9Z" fill="currentcolor"/>
</svg>
