<svg viewBox="0 0 32 32" fill="none" xmlns="http://www.w3.org/2000/svg">
<path d="M11.1381 8C10.5952 8 10.0769 8.19677 9.69263 8.54839L5.44776 12.4323C5.16218 12.6935 5 13.0484 5 13.4194C5 13.7903 5.16218 14.1452 5.44776 14.4065L9.69263 18.2903C10.0769 18.6419 10.5952 18.8387 11.1381 18.8387C12.2663 18.8387 13.1795 18.0032 13.1795 16.971V16.7742H19.9487C20.259 16.7742 20.5128 16.5419 20.5128 16.2581V15.029C20.5128 14.8516 20.6715 14.7097 20.8619 14.7097C20.9535 14.7097 21.0452 14.7419 21.1087 14.8032L25.2407 18.5806L21.1122 22.3581C21.0452 22.4194 20.9571 22.4516 20.8654 22.4516C20.6715 22.4516 20.5163 22.3065 20.5163 22.1323V20.9032C20.5163 20.6194 20.2625 20.3871 19.9522 20.3871H16C15.5311 20.3871 15.1538 20.7323 15.1538 21.1613C15.1538 21.5903 15.5311 21.9355 16 21.9355H18.8205V22.1323C18.8205 23.1645 19.7337 24 20.8619 24C21.4048 24 21.9231 23.8032 22.3074 23.4516L26.5522 19.5677C26.8378 19.3065 27 18.9516 27 18.5806C27 18.2097 26.8378 17.8548 26.5522 17.5935L22.3074 13.7097C21.9231 13.3581 21.4048 13.1613 20.8619 13.1613C19.7337 13.1613 18.8205 13.9968 18.8205 15.029V15.2258H12.0513C11.741 15.2258 11.4872 15.4581 11.4872 15.7419V16.971C11.4872 17.1484 11.3285 17.2903 11.1381 17.2903C11.0465 17.2903 10.9548 17.2581 10.8913 17.1968L6.75929 13.4194L10.8878 9.64194C10.9548 9.58065 11.0429 9.54839 11.1346 9.54839C11.3285 9.54839 11.4837 9.69355 11.4837 9.86774V11.0968C11.4837 11.3806 11.7375 11.6129 12.0478 11.6129H16C16.4689 11.6129 16.8462 11.2677 16.8462 10.8387C16.8462 10.4097 16.4689 10.0645 16 10.0645H13.1795V9.86774C13.1795 8.83548 12.2663 8 11.1381 8Z" fill="currentcolor"/>
</svg>
