<svg viewBox="0 0 45 44" fill="none" xmlns="http://www.w3.org/2000/svg">
<path fill-rule="evenodd" clip-rule="evenodd" d="M18.6168 17.8962C20.4138 16.1008 19.772 7.63684 14.8945 2.76363C11.429 -0.69892 6.16642 -0.827163 3.08591 2.3789C0.00539321 5.58496 0.00539351 10.7147 3.47097 14.1772C8.47681 19.0504 16.8199 19.6916 18.6168 17.8962ZM30.5538 41.2364C34.1478 44.8272 39.2819 44.8272 42.3625 41.7493C45.5713 38.5433 45.443 33.4136 41.849 29.951C36.9716 25.0778 28.6285 24.4366 26.7032 26.232C25.0346 27.8992 25.6763 36.2349 30.5538 41.2364ZM26.4465 10.2017C27.0882 7.63684 28.5001 4.94375 30.5538 2.76363C34.1478 -0.827163 39.2819 -0.827163 42.3625 2.25066C45.5713 5.45672 45.443 10.5864 41.849 14.049C39.7954 16.1008 37.0999 17.3833 34.5328 18.1527C34.1477 18.281 33.7627 18.4092 33.3776 18.4092C30.4255 19.1787 26.5748 20.2046 23.751 23.0259C20.9272 25.8473 20.0287 29.5663 19.1302 32.6441C19.0019 33.0289 18.8735 33.4136 18.8735 33.7983C18.2318 36.3632 16.8199 39.0563 14.7662 41.1081C11.1723 44.6989 6.03807 44.6989 2.95755 41.6211C-0.251316 38.415 -0.122961 33.2853 3.47097 29.8228C5.52465 27.7709 8.34845 26.3602 10.9155 25.719C11.3006 25.5908 11.6857 25.4625 12.0707 25.4625C15.0229 24.6931 18.8735 23.6672 21.569 20.8458C24.3928 18.0245 25.2913 14.3055 26.1898 11.3559C26.1898 10.9711 26.3181 10.5864 26.4465 10.2017Z" fill="url(#paint0_linear_62822_10)"/>
<defs>
<linearGradient id="paint0_linear_62822_10" x1="7.20609" y1="6.49548" x2="38.2151" y2="37.5316" gradientUnits="userSpaceOnUse">
<stop stop-color="#FEA858"/>
<stop offset="1" stop-color="#F97B53"/>
</linearGradient>
</defs>
</svg>
