<svg viewBox="0 0 73 72" fill="none" xmlns="http://www.w3.org/2000/svg">
<path fill-rule="evenodd" clip-rule="evenodd" d="M32.6168 31.8962C34.4138 30.1008 33.772 21.6368 28.8945 16.7636C25.429 13.3011 20.1664 13.1728 17.0859 16.3789C14.0054 19.585 14.0054 24.7147 17.471 28.1772C22.4768 33.0504 30.8199 33.6916 32.6168 31.8962ZM44.5538 55.2364C48.1478 58.8272 53.2819 58.8272 56.3625 55.7493C59.5713 52.5433 59.443 47.4136 55.849 43.951C50.9716 39.0778 42.6285 38.4366 40.7032 40.232C39.0346 41.8992 39.6763 50.2349 44.5538 55.2364ZM40.4465 24.2017C41.0882 21.6368 42.5001 18.9437 44.5538 16.7636C48.1478 13.1728 53.2819 13.1728 56.3625 16.2507C59.5713 19.4567 59.443 24.5864 55.849 28.049C53.7954 30.1008 51.0999 31.3833 48.5328 32.1527C48.1477 32.281 47.7627 32.4092 47.3776 32.4092C44.4255 33.1787 40.5748 34.2046 37.751 37.0259C34.9272 39.8473 34.0287 43.5663 33.1302 46.6441C33.0019 47.0289 32.8735 47.4136 32.8735 47.7983C32.2318 50.3632 30.8199 53.0563 28.7662 55.1081C25.1723 58.6989 20.0381 58.6989 16.9576 55.6211C13.7487 52.415 13.877 47.2853 17.471 43.8228C19.5246 41.7709 22.3485 40.3602 24.9155 39.719C25.3006 39.5908 25.6857 39.4625 26.0707 39.4625C29.0229 38.6931 32.8735 37.6672 35.569 34.8458C38.3928 32.0245 39.2913 28.3055 40.1898 25.3559C40.1898 24.9711 40.3181 24.5864 40.4465 24.2017Z" fill="url(#paint0_linear_63664_9)"/>
<defs>
<linearGradient id="paint0_linear_63664_9" x1="21.2061" y1="20.4955" x2="52.2151" y2="51.5316" gradientUnits="userSpaceOnUse">
<stop stop-color="#FEA858"/>
<stop offset="1" stop-color="#F97B53"/>
</linearGradient>
</defs>
</svg>
