<svg viewBox="0 0 72 72" fill="none" xmlns="http://www.w3.org/2000/svg">
<rect rx="5" fill="#F5F5F6"/>
<path d="M36 60C49.2548 60 60 49.2548 60 36C60 22.7452 49.2548 12 36 12C22.7452 12 12 22.7452 12 36C12 49.2548 22.7452 60 36 60Z" fill="#0070BA"/>
<path d="M45.9966 28.9172C45.9698 29.088 45.9394 29.2627 45.905 29.4421C44.7245 35.5033 40.6855 37.5972 35.5272 37.5972H32.9008C32.2699 37.5972 31.7383 38.0552 31.64 38.6776L30.2953 47.2057L29.9146 49.6232C29.8506 50.0316 30.1655 50.4 30.5778 50.4H35.2361C35.7877 50.4 36.2563 49.9992 36.3432 49.4552L36.3889 49.2185L37.266 43.6526L37.3223 43.3472C37.4082 42.8014 37.8778 42.4006 38.4294 42.4006H39.1261C43.6393 42.4006 47.1724 40.5682 48.205 35.2656C48.6364 33.0505 48.413 31.201 47.2716 29.9002C46.9261 29.508 46.4976 29.1826 45.9966 28.9172Z" fill="white" fill-opacity="0.6"/>
<path d="M44.7611 28.4245C44.5807 28.3721 44.3946 28.3243 44.2037 28.2814C44.0119 28.2394 43.8152 28.2022 43.6129 28.1698C42.9048 28.0552 42.1289 28.0008 41.2976 28.0008H34.2811C34.1084 28.0008 33.9443 28.0399 33.7973 28.1105C33.4738 28.2661 33.2333 28.5725 33.1751 28.9475L31.6824 38.4016L31.64 38.6776C31.7383 38.0552 32.2699 37.5972 32.9008 37.5972H35.5272C40.6855 37.5972 44.7245 35.5033 45.905 29.4421C45.9394 29.2627 45.9698 29.088 45.9966 28.9172C45.6979 28.7588 45.3738 28.623 45.0254 28.5076C44.9395 28.4789 44.8508 28.4513 44.7611 28.4245Z" fill="white" fill-opacity="0.8"/>
<path d="M33.1751 28.9475C33.2333 28.5724 33.474 28.2662 33.7975 28.1117C33.9455 28.041 34.1084 28.0008 34.2811 28.0008H41.2976C42.1289 28.0008 42.9048 28.0552 43.6129 28.1698C43.8152 28.2022 44.0119 28.2394 44.2037 28.2814C44.3946 28.3243 44.5807 28.3721 44.7611 28.4245C44.8508 28.4513 44.9398 28.4801 45.0266 28.5077C45.375 28.6232 45.6979 28.7598 45.9966 28.9172C46.3478 26.6773 45.9944 25.1521 44.7833 23.7712C43.4482 22.2509 41.0383 21.6 37.9548 21.6H29.0028C28.3729 21.6 27.8356 22.058 27.7382 22.6813L24.0095 46.3163C23.936 46.7839 24.2968 47.2057 24.7682 47.2057H30.2953L31.6824 38.4016L33.1751 28.9475Z" fill="white"/>
</svg>
