<svg viewBox="0 0 73 72" fill="none" xmlns="http://www.w3.org/2000/svg">
  <path
    d="M52.2203 21.3458C52.187 21.1045 51.9752 20.971 51.8002 20.9563C51.6254 20.9418 47.9278 20.6683 47.9278 20.6683C47.9278 20.6683 45.3597 18.1245 45.0778 17.843C44.7958 17.5616 44.245 17.6472 44.0312 17.71C43.9997 17.7192 43.4701 17.8823 42.5941 18.1528C41.7362 15.6898 40.2222 13.4265 37.5588 13.4265C37.4852 13.4265 37.4096 13.4294 37.3339 13.4337C36.5764 12.4342 35.6381 12 34.8276 12C28.6231 12 25.6589 19.7387 24.7295 23.6713C22.3186 24.4166 20.6059 24.9465 20.3871 25.0151C19.0414 25.4363 18.9989 25.4786 18.8222 26.7438C18.6892 27.7016 15.168 54.8708 15.168 54.8708L42.6055 60L57.472 56.7912C57.472 56.7912 52.2531 21.587 52.2203 21.3458ZM41.0776 18.6207L38.7559 19.3377C38.7568 19.1744 38.7576 19.0138 38.7576 18.8382C38.7576 17.3075 38.5446 16.075 38.203 15.098C39.5754 15.2698 40.4894 16.8278 41.0776 18.6207ZM36.5005 15.4015C36.8821 16.3554 37.1302 17.7243 37.1302 19.5717C37.1302 19.6662 37.1294 19.7526 37.1285 19.84C35.6187 20.3066 33.978 20.8132 32.3337 21.3215C33.257 17.7663 34.9876 16.0492 36.5005 15.4015ZM34.6572 13.6604C34.925 13.6604 35.1947 13.7511 35.4529 13.9284C33.4645 14.862 31.3331 17.2133 30.433 21.9087L26.6429 23.0799C27.6972 19.4985 30.2007 13.6604 34.6572 13.6604Z"
    fill="#95BF46"
  />
  <path
    d="M51.7259 21.0383C51.5516 21.0238 47.8623 20.7518 47.8623 20.7518C47.8623 20.7518 45.3 18.2211 45.0187 17.941C44.9135 17.8368 44.7716 17.7833 44.6232 17.7603L42.5533 59.8808L57.385 56.6888C57.385 56.6888 52.1778 21.6658 52.1451 21.4258C52.1119 21.1858 51.9006 21.0529 51.7259 21.0383Z"
    fill="#5E8E3E"
  />
  <path
    d="M37.5167 29.1921L35.6877 34.6045C35.6877 34.6045 34.0852 33.7537 32.121 33.7537C29.2413 33.7537 29.0964 35.5516 29.0964 36.0046C29.0964 38.4766 35.5735 39.4238 35.5735 45.214C35.5735 49.7696 32.6692 52.703 28.7532 52.703C24.0539 52.703 21.6508 49.7934 21.6508 49.7934L22.909 45.6575C22.909 45.6575 25.3793 47.7674 27.4637 47.7674C28.8257 47.7674 29.3797 46.7005 29.3797 45.921C29.3797 42.6965 24.0658 42.5527 24.0658 37.2541C24.0658 32.7945 27.2832 28.479 33.7779 28.479C36.2804 28.479 37.5167 29.1921 37.5167 29.1921Z"
    fill="white"
  />
</svg>