<svg viewBox="0 0 73 72" fill="none" xmlns="http://www.w3.org/2000/svg">
  <path
    fillRule="evenodd"
    clipRule="evenodd"
    d="M30.259 11.9519C27.6056 11.9539 25.4582 14.1072 25.4602 16.7605C25.4582 19.4139 27.6076 21.5672 30.261 21.5692H35.0617V16.7625C35.0637 14.1091 32.9143 11.9558 30.259 11.9519ZM30.259 24.7775H17.4608C14.8074 24.7795 12.6581 26.9328 12.66 29.5862C12.6561 32.2395 14.8055 34.3928 17.4589 34.3967H30.259C32.9124 34.3948 35.0617 32.2415 35.0598 29.5881C35.0617 26.9328 32.9124 24.7795 30.259 24.7775Z"
    fill="#36C5F0"
  />
  <path
    fillRule="evenodd"
    clipRule="evenodd"
    d="M60.66 29.5862C60.662 26.9328 58.5126 24.7795 55.8592 24.7775C53.2059 24.7795 51.0565 26.9328 51.0585 29.5862V34.3967H55.8592C58.5126 34.3948 60.662 32.2415 60.66 29.5862ZM47.8599 29.5862V16.7605C47.8619 14.1091 45.7145 11.9558 43.0611 11.9519C40.4077 11.9539 38.2583 14.1072 38.2603 16.7605V29.5862C38.2564 32.2395 40.4057 34.3928 43.0591 34.3967C45.7125 34.3948 47.8619 32.2415 47.8599 29.5862Z"
    fill="#2EB67D"
  />
  <path
    fillRule="evenodd"
    clipRule="evenodd"
    d="M43.0591 60.048C45.7125 60.046 47.8619 57.8927 47.8599 55.2394C47.8619 52.586 45.7125 50.4327 43.0591 50.4307H38.2583V55.2394C38.2564 57.8908 40.4057 60.0441 43.0591 60.048ZM43.0591 47.2204H55.8592C58.5126 47.2185 60.662 45.0652 60.66 42.4118C60.664 39.7584 58.5146 37.6051 55.8612 37.6012H43.0611C40.4077 37.6032 38.2583 39.7564 38.2603 42.4098C38.2583 45.0652 40.4057 47.2185 43.0591 47.2204Z"
    fill="#ECB22E"
  />
  <path
    fillRule="evenodd"
    clipRule="evenodd"
    d="M12.66 42.4118C12.6581 45.0652 14.8074 47.2185 17.4608 47.2204C20.1142 47.2185 22.2636 45.0652 22.2616 42.4118V37.6032H17.4608C14.8074 37.6051 12.6581 39.7584 12.66 42.4118ZM25.4602 42.4118V55.2374C25.4562 57.8908 27.6056 60.0441 30.259 60.048C32.9124 60.046 35.0617 57.8927 35.0598 55.2394V42.4157C35.0637 39.7623 32.9143 37.609 30.261 37.6051C27.6056 37.6051 25.4582 39.7584 25.4602 42.4118Z"
    fill="#E01E5A"
  />
</svg>