<svg viewBox="0 0 73 72" fill="none" xmlns="http://www.w3.org/2000/svg">
  <path
    d="M36.66 60C49.9148 60 60.66 49.2548 60.66 36C60.66 22.7452 49.9148 12 36.66 12C23.4052 12 12.66 22.7452 12.66 36C12.66 49.2548 23.4052 60 36.66 60Z"
    fill="#635BFF"
  />
  <path
    d="M49.3008 36.1758C49.3008 34.3781 48.4298 32.9592 46.7658 32.9592C45.1017 32.9592 44.0831 34.3777 44.0831 36.1617C44.0831 38.2753 45.277 39.3431 46.9894 39.3431C47.8252 39.3431 48.457 39.1556 48.9347 38.8866V37.4803C48.457 37.7189 47.9095 37.8666 47.2144 37.8666C46.5333 37.8666 45.9291 37.628 45.8522 36.7992H49.2863C49.2867 36.7092 49.3008 36.3441 49.3008 36.1758ZM45.832 35.5087C45.832 34.7152 46.3167 34.3837 46.7592 34.3837C47.1877 34.3837 47.6442 34.7119 47.6442 35.5087H45.832ZM41.3723 32.9592C40.8601 32.9573 40.3669 33.1537 39.9961 33.5072L39.9047 33.0717H38.3578V41.2598L40.1133 40.8877L40.1203 38.9002C40.373 39.083 40.7452 39.3427 41.3634 39.3427C42.6206 39.3427 43.7653 38.3316 43.7653 36.1055C43.7597 34.0688 42.6009 32.9592 41.3723 32.9592ZM40.9505 37.7977C40.5361 37.7977 40.2905 37.65 40.1217 37.4695L40.1147 34.8642C40.2975 34.6608 40.5502 34.5202 40.9505 34.5202C41.5894 34.5202 42.0319 35.2364 42.0319 36.1566C42.0323 37.0955 41.5964 37.7977 40.9505 37.7977ZM35.9438 32.5448L37.7063 32.1656V30.7402L35.9438 31.1123V32.5448ZM35.9438 33.0787H37.7063V39.2236H35.9438V33.0787ZM34.0547 33.5981L33.9413 33.0787H32.4253V39.2231H34.1808V35.0588C34.5952 34.5178 35.2973 34.6163 35.5148 34.6936V33.0787C35.2908 32.9944 34.4691 32.8397 34.0547 33.5981ZM30.5433 31.5548L28.8319 31.9219L28.8248 37.5469C28.8248 38.5861 29.6044 39.3516 30.6436 39.3516C31.2192 39.3516 31.6406 39.2461 31.8727 39.12V37.6927C31.6481 37.7841 30.5386 38.107 30.5386 37.0678V34.5745H31.8727V33.0787H30.5363L30.5433 31.5548ZM25.7963 34.8623C25.7963 34.5886 26.0208 34.4831 26.393 34.4831C27.0005 34.4959 27.5966 34.6498 28.1344 34.9327V33.2812C27.5805 33.0631 26.9897 32.9537 26.3944 32.9592C24.9689 32.9592 24.0206 33.7036 24.0206 34.9467C24.0206 36.885 26.6892 36.5761 26.6892 37.4114C26.6892 37.7344 26.408 37.8398 26.0152 37.8398C25.4325 37.8398 24.6877 37.6012 24.098 37.2773V38.9489C24.7033 39.2108 25.3556 39.347 26.0152 39.3492C27.4758 39.3492 28.4798 38.6259 28.4798 37.3688C28.4719 35.2767 25.7963 35.6489 25.7963 34.8623Z"
    fill="white"
  />
</svg>