<svg viewBox="0 0 73 72" fill="none" xmlns="http://www.w3.org/2000/svg">
  <path
    d="M53.0231 40.3547C55.0329 39.4131 56.5539 38.0552 57.604 36.2807C58.6542 34.5063 59.1793 32.5146 59.1793 30.3237C59.1793 27.1008 58.1291 24.4392 56.0288 22.3388C53.9285 20.2023 50.8685 19.1521 46.8126 19.1521H46.5229C46.5592 19.7858 46.5773 20.4195 46.5773 21.0533C46.5773 23.0631 46.3962 25.0367 46.0522 26.956H46.7221C48.2068 26.8292 49.2932 27.4086 49.9632 28.658C50.6331 29.9254 50.6331 31.1928 49.9632 32.4603C49.2932 33.7458 48.1163 34.3253 46.4143 34.2347H43.9518C41.5437 39.9925 37.6146 44.9537 32.6535 48.6112V52.8481H41.3083V41.6764H44.6399L50.5607 52.8481H60.32L53.0231 40.3547Z"
    fill="#F77A21"
  />
  <path
    d="M43.9518 34.2528H41.3083V26.956H46.0703C46.3962 25.0367 46.5954 23.0812 46.5954 21.0533C46.5954 20.4195 46.5773 19.7858 46.5411 19.1521H32.6535V32.0076H20.8481V19.1521H12.32V52.8481H20.8481V40.1736H32.6535V48.6293C37.6146 44.9718 41.5437 40.0107 43.9518 34.2528Z"
    fill="#FFB229"
  />
</svg>