<svg viewBox="0 0 73 72" fill="none" xmlns="http://www.w3.org/2000/svg">
  <path
    d="M36.6604 60C23.3601 60 12.5601 49.3997 12.6604 36C12.7607 22.6003 22.8604 12 36.6604 12C50.4613 12 60.6604 22.8 60.6604 36C60.6604 49.2 49.9607 60 36.6604 60ZM43.7601 56.2997L36.9604 37.9997L30.5601 56.7C35.2607 57.8006 38.4604 58.0997 43.7601 56.2997ZM27.1607 55.3003L16.9607 27.4003C15.5601 30.4003 15.261 32.9006 15.0604 36C15.1607 44.1994 19.7601 51.6994 27.1607 55.3003ZM58.161 36C58.2604 30.7003 55.8613 26.5003 55.6607 25.9003C55.8613 30.0009 55.2604 32.1 54.561 34.4006L47.5607 54.5006C56.361 49.2 58.0598 41.2997 58.2604 36H58.161ZM35.961 35.1L32.5607 25.8L30.0604 25.6003C29.061 24.9 29.6601 23.8003 30.3604 23.8003C34.8604 24.1003 37.3598 24.1003 41.8607 23.8003C42.9613 23.8003 43.2604 25.4006 41.9601 25.6003L39.5601 25.8L47.3591 48.7997L51.0585 36.1997C51.2591 30.7003 49.7582 30.1003 47.7585 26.1C46.1582 22.9997 47.8588 19.9997 50.9591 19.9003C48.4579 17.5003 43.3588 14.5003 36.6585 14.4C29.9582 14.2997 22.8585 17.7 18.6585 24.1003L26.0591 23.9006C26.9591 24.3009 26.5588 25.6003 26.0591 25.7006L23.4595 25.9003L31.2595 49.3003L35.961 35.1Z"
    fill="#21759B"
  />
</svg>