<svg viewBox="0 0 48 48" fill="none" xmlns="http://www.w3.org/2000/svg">
<mask id="mask0_90030_8807" style="mask-type:luminance" maskUnits="userSpaceOnUse" x="8" y="6" width="32" height="12">
<path d="M23.3999 6.21668C26.7792 6.09147 30.1185 6.98216 32.9865 8.77373C35.8545 10.5653 38.1196 13.1755 39.4894 16.2673C39.6076 16.4764 39.6517 16.7192 39.6147 16.9566C39.5767 17.1588 39.4741 17.3432 39.3222 17.4821C39.1703 17.6209 38.9774 17.7066 38.7726 17.7263C38.5677 17.746 38.3621 17.6986 38.1865 17.5912C38.011 17.4838 37.8751 17.3223 37.7993 17.131C36.8733 14.9708 35.4527 13.0585 33.6518 11.5483C31.851 10.0381 29.7204 8.97229 27.432 8.43679C25.1704 7.94767 22.8303 7.94709 20.5685 8.43509C17.3209 9.15909 14.419 10.9728 12.3451 13.5747C11.4503 14.6445 10.7244 15.845 10.1927 17.1343C10.1007 17.3659 9.92115 17.5517 9.69296 17.6517C9.46476 17.7516 9.20637 17.7575 8.97384 17.6681C8.74132 17.5787 8.55343 17.4012 8.45096 17.1742C8.34848 16.9471 8.33968 16.6888 8.42647 16.4553C9.69217 13.5028 11.7726 10.9718 14.4243 9.1586C17.0761 7.3454 20.1894 6.32495 23.3999 6.21668Z" fill="white"/>
</mask>
<g mask="url(#mask0_90030_8807)">
<path d="M48.0992 -2.25977H-0.101562V26.2007H48.0992V-2.25977Z" fill="#F69F1A"/>
</g>
<mask id="mask1_90030_8807" style="mask-type:luminance" maskUnits="userSpaceOnUse" x="7" y="5" width="34" height="14">
<path d="M38.6749 18.6606C38.2975 18.6596 37.9292 18.5443 37.6185 18.33C37.3077 18.1157 37.0692 17.8124 36.9341 17.46C35.8549 14.9673 34.0791 12.8392 31.8198 11.3314C30.421 10.3948 28.8637 9.72006 27.2238 9.33988C25.09 8.88141 22.8831 8.88256 20.7498 9.34327C17.7074 10.0332 14.9909 11.7391 13.048 14.1797C12.2151 15.1777 11.5395 16.297 11.0446 17.4989C10.9255 17.7918 10.7336 18.0495 10.487 18.2474C10.2404 18.4454 9.9474 18.5771 9.63567 18.6301C9.5296 18.6501 9.42185 18.6598 9.31392 18.6589C9.01034 18.6587 8.71135 18.5848 8.44269 18.4434C8.17403 18.302 7.94374 18.0975 7.77163 17.8474C7.59952 17.5974 7.49075 17.3092 7.45468 17.0078C7.41861 16.7064 7.45632 16.4007 7.56456 16.117C9.35621 11.9433 12.6677 8.60683 16.828 6.78394C20.9882 4.96104 25.6859 4.78807 29.9689 6.30009C33.1572 7.43596 35.9609 9.44731 38.0585 12.1035C38.9721 13.2662 39.7372 14.5382 40.3362 15.8901C40.537 16.2818 40.6013 16.7294 40.5191 17.1619C40.4406 17.5504 40.2403 17.9038 39.9474 18.1709C39.6545 18.4379 39.2841 18.6047 38.8899 18.647C38.8186 18.6563 38.7468 18.6609 38.6749 18.6606ZM14.5466 10.2103C12.2363 11.9008 10.4198 14.178 9.28513 16.8063L9.34101 16.7691C9.91105 15.3941 10.6871 14.1138 11.6424 12.9724C12.5099 11.9514 13.4835 11.0255 14.5466 10.2103ZM33.7334 10.4254C35.8857 12.0875 37.5788 14.2708 38.6529 16.7691L38.6664 16.7928L38.6969 16.7623C38.6885 16.7454 38.6749 16.7115 38.6529 16.6624C37.566 14.2013 35.8736 12.0556 33.7334 10.4254ZM23.9944 7.13337C23.8082 7.13337 23.6202 7.13676 23.4322 7.14352C22.5969 7.17129 21.7651 7.26471 20.9445 7.42294C22.3464 7.17558 23.7724 7.09317 25.1934 7.17739C24.7971 7.14859 24.3975 7.13392 23.9944 7.13337Z" fill="white"/>
</mask>
<g mask="url(#mask1_90030_8807)">
<path d="M49.0259 -3.1875H-1.02734V27.128H49.0259V-3.1875Z" fill="#F69F1A"/>
</g>
<mask id="mask2_90030_8807" style="mask-type:luminance" maskUnits="userSpaceOnUse" x="7" y="21" width="34" height="22">
<path d="M40.0308 21.2109H7.9707V42.7205H40.0308V21.2109Z" fill="white"/>
</mask>
<g mask="url(#mask2_90030_8807)">
<mask id="mask3_90030_8807" style="mask-type:luminance" maskUnits="userSpaceOnUse" x="7" y="20" width="35" height="25">
<path d="M41.3104 20.5215H7.44141V44.2298H41.3104V20.5215Z" fill="white"/>
</mask>
<g mask="url(#mask3_90030_8807)">
<mask id="mask4_90030_8807" style="mask-type:luminance" maskUnits="userSpaceOnUse" x="7" y="21" width="34" height="22">
<path d="M7.9708 21.6767C8.05352 21.5461 8.16603 21.4371 8.29909 21.3585C8.43216 21.2799 8.58197 21.2339 8.73623 21.2245C9.70996 21.216 10.6854 21.194 11.6574 21.238C11.8903 21.2611 12.108 21.3641 12.2735 21.5296C12.439 21.6951 12.5421 21.9128 12.5651 22.1457C13.5202 26.0373 14.4601 29.9339 15.4135 33.8271C15.6929 35.0295 16.0333 36.22 16.2145 37.4427C16.4025 38.54 16.4397 39.656 16.6192 40.7567C16.8261 39.1786 17.123 37.6136 17.5083 36.0693C18.7547 31.4241 20.0005 26.779 21.2457 22.1339C21.3011 21.877 21.443 21.6469 21.6477 21.482C21.8523 21.3171 22.1074 21.2274 22.3702 21.2279C23.454 21.2008 24.5395 21.2194 25.6233 21.2194C25.9171 21.195 26.2104 21.2716 26.4547 21.4367C26.6989 21.6018 26.8794 21.8454 26.9662 22.1271C27.8976 25.514 28.8154 28.9077 29.7418 32.2963C30.4035 34.4665 30.9434 36.672 31.359 38.9024C31.4488 39.5239 31.5334 40.1454 31.6621 40.7618C32.1308 37.2434 32.8014 33.7547 33.6706 30.3133C34.2887 27.5563 34.8932 24.796 35.5181 22.0391C35.5881 21.7836 35.7466 21.5613 35.9652 21.4118C36.1839 21.2623 36.4485 21.1954 36.712 21.2228C37.5892 21.2178 38.4664 21.1924 39.3419 21.2364C39.4612 21.2471 39.5763 21.2858 39.6779 21.3494C39.7794 21.4129 39.8646 21.4995 39.9264 21.6021C39.9883 21.7047 40.0251 21.8204 40.0339 21.9398C40.0426 22.0593 40.0232 22.1792 39.977 22.2897C38.2175 28.7773 36.4608 35.2655 34.7069 41.7542C34.6618 42.0098 34.5301 42.2422 34.334 42.4124C34.138 42.5826 33.8894 42.6802 33.6299 42.689C32.2718 42.733 30.9102 42.6991 29.5538 42.7076C29.3126 42.7405 29.0679 42.6826 28.867 42.5452C28.6661 42.4079 28.5234 42.2008 28.4666 41.9642C27.2507 37.5019 26.0602 33.0346 24.8544 28.569C24.4638 27.0064 24.1982 25.4152 24.0602 23.8104C23.8999 25.2437 23.6613 26.6672 23.3456 28.0745C22.1145 32.6722 20.8788 37.2699 19.6386 41.8676C19.4998 42.6128 18.648 42.7601 18.0146 42.7127C16.7513 42.689 15.4897 42.7415 14.2281 42.689C14.0145 42.6828 13.8097 42.6021 13.6495 42.4607C13.4892 42.3193 13.3836 42.1263 13.3509 41.9151C11.5779 35.4546 9.80709 28.9929 8.03856 22.5302C7.99149 22.2481 7.9688 21.9626 7.9708 21.6767Z" fill="white"/>
</mask>
<g mask="url(#mask4_90030_8807)">
<mask id="mask5_90030_8807" style="mask-type:luminance" maskUnits="userSpaceOnUse" x="7" y="20" width="35" height="25">
<path d="M41.3104 20.5215H7.44141V44.2298H41.3104V20.5215Z" fill="white"/>
</mask>
<g mask="url(#mask5_90030_8807)">
<path d="M48.4985 12.7441H-0.496094V51.1884H48.4985V12.7441Z" fill="#0067AB"/>
</g>
</g>
</g>
</g>
</svg>
