<svg viewBox="0 0 73 72" fill="none" xmlns="http://www.w3.org/2000/svg">
  <path
    d="M38.1609 18.8311C41.5858 19.6227 43.7857 22.9309 43.2524 26.3475C43.0774 27.4391 43.8273 28.464 44.919 28.6307C46.0106 28.7974 47.0355 28.0557 47.2022 26.9641C48.0605 21.4976 44.544 16.2062 39.0609 14.9396C33.3194 13.6146 27.5946 17.1895 26.2697 22.9309C25.3781 26.7891 26.703 30.6473 29.4112 33.1555L23.4698 42.6635C23.4198 42.6635 23.3781 42.6635 23.3281 42.6635C21.1199 42.6635 19.3283 44.4551 19.3283 46.6633C19.3283 48.8716 21.1199 50.6632 23.3281 50.6632C25.5364 50.6632 27.328 48.8716 27.328 46.6633C27.328 45.9883 27.1613 45.3467 26.8613 44.7884L33.7611 33.7472C34.0444 33.2972 34.1361 32.7555 34.0111 32.2389C33.8861 31.7222 33.5694 31.2723 33.1194 30.9889C30.7695 29.5223 29.5029 26.6808 30.1612 23.8309C30.9945 20.2477 34.5694 18.0061 38.1609 18.8311ZM36.6609 23.9975C37.0146 23.9975 37.3537 24.138 37.6037 24.3881C37.8538 24.6381 37.9942 24.9772 37.9942 25.3308C37.9942 25.6844 37.8538 26.0236 37.6037 26.2736C37.3537 26.5236 37.0146 26.6641 36.6609 26.6641C36.3073 26.6641 35.9682 26.5236 35.7182 26.2736C35.4681 26.0236 35.3277 25.6844 35.3277 25.3308C35.3277 24.9772 35.4681 24.6381 35.7182 24.3881C35.9682 24.138 36.3073 23.9975 36.6609 23.9975ZM40.1941 27.2058C40.4941 26.6474 40.6608 26.0058 40.6608 25.3308C40.6608 23.1226 38.8692 21.331 36.6609 21.331C34.4527 21.331 32.6611 23.1226 32.6611 25.3308C32.6611 27.5391 34.4527 29.3307 36.6609 29.3307C36.7109 29.3307 36.7526 29.3307 36.8026 29.3307L43.7023 40.3719C43.9857 40.8219 44.4356 41.1385 44.9523 41.2635C45.4689 41.3885 46.0106 41.2885 46.4606 41.0135C49.0355 39.4053 52.4687 39.7219 54.7102 41.9552C57.3101 44.5551 57.3101 48.7799 54.7102 51.3798C52.477 53.613 49.0355 53.9297 46.4606 52.3214C45.5273 51.7381 44.294 52.0214 43.7023 52.9547C43.1107 53.888 43.4024 55.1213 44.3356 55.713C48.4522 58.2962 53.9519 57.7962 57.5351 54.213C61.7016 50.0465 61.7016 43.2968 57.5351 39.1303C54.4519 36.0471 49.9521 35.2471 46.1356 36.722L40.1941 27.2058ZM21.9949 46.6633C21.9949 46.3097 22.1353 45.9706 22.3854 45.7205C22.6354 45.4705 22.9745 45.33 23.3281 45.33C23.6818 45.33 24.0209 45.4705 24.2709 45.7205C24.521 45.9706 24.6614 46.3097 24.6614 46.6633C24.6614 47.0169 24.521 47.3561 24.2709 47.6061C24.0209 47.8561 23.6818 47.9966 23.3281 47.9966C22.9745 47.9966 22.6354 47.8561 22.3854 47.6061C22.1353 47.3561 21.9949 47.0169 21.9949 46.6633ZM48.6605 46.6633C48.6605 46.3097 48.8009 45.9706 49.051 45.7205C49.301 45.4705 49.6401 45.33 49.9938 45.33C50.3474 45.33 50.6865 45.4705 50.9365 45.7205C51.1866 45.9706 51.327 46.3097 51.327 46.6633C51.327 47.0169 51.1866 47.3561 50.9365 47.6061C50.6865 47.8561 50.3474 47.9966 49.9938 47.9966C49.6401 47.9966 49.301 47.8561 49.051 47.6061C48.8009 47.3561 48.6605 47.0169 48.6605 46.6633ZM53.9936 46.6633C53.9936 44.4551 52.202 42.6635 49.9938 42.6635C48.5105 42.6635 47.2189 43.4718 46.5272 44.6634H31.9945C31.4612 44.6634 30.9528 44.8717 30.5779 45.2467C30.2029 45.6217 29.9945 46.13 29.9945 46.6633C29.9945 49.6965 27.9113 52.4464 24.8281 53.1547C21.2366 53.9797 17.6617 51.7465 16.8367 48.1549C16.0951 44.9384 17.8117 41.7302 20.7616 40.5052C21.7782 40.0802 22.2615 38.9136 21.8365 37.8887C21.4116 36.8637 20.2449 36.3887 19.22 36.8137C14.5035 38.7803 11.7453 43.9134 12.9369 49.0632C14.2618 54.8047 19.9866 58.3795 25.728 57.0546C29.9779 56.0713 33.0361 52.6797 33.8111 48.6632H46.5272C47.2189 49.8549 48.5105 50.6632 49.9938 50.6632C52.202 50.6632 53.9936 48.8716 53.9936 46.6633Z"
    fill="#207DD7"
  />
  <path
    d="M17.0275 25.3337L19.3274 28.6044L21.6273 25.3337H23.3273L20.2274 29.3335L23.3273 33.3333H21.6273L19.3274 30.2293L17.0275 33.3333H15.3276L18.3775 29.3335L15.3276 25.3337H17.0275Z"
    fill="#207DD7"
  />
  <path
    fillRule="evenodd"
    clipRule="evenodd"
    d="M17.3045 24.8004L19.3274 27.6772L21.3504 24.8004H24.4153L20.9021 29.3335L24.4153 33.8667H21.3587L19.3274 31.1251L17.2961 33.8667H14.2503L17.7068 29.3335L14.2503 24.8004H17.3045ZM18.3775 29.3335L15.3276 33.3333H17.0275L19.3274 30.2293L21.6273 33.3333H23.3273L20.2274 29.3335L23.3273 25.3337H21.6273L19.3274 28.6044L17.0275 25.3337H15.3276L18.3775 29.3335Z"
    fill="#207DD7"
  />
</svg>