<svg viewBox="0 0 73 72" fill="none" xmlns="http://www.w3.org/2000/svg">
  <path
    d="M36.66 10.2159C47.7058 10.2159 56.66 19.1701 56.66 30.2159C56.66 41.2618 47.7058 50.2159 36.66 50.2159C25.6142 50.2159 16.66 41.2618 16.66 30.2159C16.66 19.1701 25.6142 10.2159 36.66 10.2159Z"
    fill="#E5E5E4"
  />
  <path
    d="M36.66 10.6054C47.4906 10.6054 56.2706 19.3853 56.2706 30.2159C56.2706 41.0466 47.4906 49.8265 36.66 49.8265C25.8294 49.8265 17.0494 41.0466 17.0494 30.2159C17.0494 19.3853 25.8297 10.6054 36.66 10.6054Z"
    fill="white"
  />
  <path
    d="M36.66 12.1785C46.6218 12.1785 54.6974 20.2542 54.6974 30.2159C54.6974 40.1777 46.6218 48.2534 36.66 48.2534C26.6982 48.2534 18.6226 40.1777 18.6226 30.2159C18.6226 20.2542 26.6982 12.1785 36.66 12.1785Z"
    fill="#4A8CFF"
  />
  <path
    d="M24.8922 24.5648V33.0414C24.8997 34.9582 26.4653 36.5009 28.3746 36.4931H40.7305C41.0817 36.4931 41.3643 36.2105 41.3643 35.8668V27.3902C41.3568 25.4734 39.7912 23.9307 37.8822 23.9385H25.5263C25.1751 23.9385 24.8922 24.2211 24.8922 24.5648ZM42.1507 27.8715L47.252 24.145C47.695 23.7784 48.0384 23.8699 48.0384 24.5344V35.8975C48.0384 36.6535 47.6183 36.562 47.252 36.2869L42.1507 32.5679V27.8715Z"
    fill="white"
  />
  <path
    d="M21.8998 59.9919V54.3519H22.8038L24.8758 59.0159H24.6278L26.6998 54.3519H27.5958V59.9919H26.6598V55.8079H26.9478L25.0518 59.9919H24.4358L22.5398 55.8079H22.8358V59.9919H21.8998Z"
    fill="black"
  />
  <path
    d="M30.7247 60.0719C30.0474 60.0719 29.5167 59.8853 29.1327 59.5119C28.7487 59.1386 28.5567 58.6266 28.5567 57.9759C28.5567 57.5546 28.6394 57.1866 28.8047 56.8719C28.9701 56.5573 29.1994 56.3119 29.4927 56.1359C29.7914 55.9599 30.1381 55.8719 30.5327 55.8719C30.9221 55.8719 31.2474 55.9546 31.5087 56.1199C31.7701 56.2853 31.9674 56.5173 32.1007 56.8159C32.2394 57.1146 32.3087 57.4639 32.3087 57.8639V58.1279H29.3647V57.5999H31.5967L31.4607 57.7119C31.4607 57.3386 31.3807 57.0533 31.2207 56.8559C31.0661 56.6586 30.8394 56.5599 30.5407 56.5599C30.2101 56.5599 29.9541 56.6773 29.7727 56.9119C29.5967 57.1466 29.5087 57.4746 29.5087 57.8959V57.9999C29.5087 58.4373 29.6154 58.7653 29.8287 58.9839C30.0474 59.1973 30.3541 59.3039 30.7487 59.3039C30.9781 59.3039 31.1914 59.2746 31.3887 59.2159C31.5914 59.1519 31.7834 59.0506 31.9647 58.9119L32.2607 59.5839C32.0687 59.7386 31.8394 59.8586 31.5727 59.9439C31.3061 60.0293 31.0234 60.0719 30.7247 60.0719Z"
    fill="black"
  />
  <path
    d="M35.1075 60.0719C34.4302 60.0719 33.8995 59.8853 33.5155 59.5119C33.1315 59.1386 32.9395 58.6266 32.9395 57.9759C32.9395 57.5546 33.0222 57.1866 33.1875 56.8719C33.3529 56.5573 33.5822 56.3119 33.8755 56.1359C34.1742 55.9599 34.5209 55.8719 34.9155 55.8719C35.3049 55.8719 35.6302 55.9546 35.8915 56.1199C36.1529 56.2853 36.3502 56.5173 36.4835 56.8159C36.6222 57.1146 36.6915 57.4639 36.6915 57.8639V58.1279H33.7475V57.5999H35.9795L35.8435 57.7119C35.8435 57.3386 35.7635 57.0533 35.6035 56.8559C35.4489 56.6586 35.2222 56.5599 34.9235 56.5599C34.5929 56.5599 34.3369 56.6773 34.1555 56.9119C33.9795 57.1466 33.8915 57.4746 33.8915 57.8959V57.9999C33.8915 58.4373 33.9982 58.7653 34.2115 58.9839C34.4302 59.1973 34.7369 59.3039 35.1315 59.3039C35.3609 59.3039 35.5742 59.2746 35.7715 59.2159C35.9742 59.1519 36.1662 59.0506 36.3475 58.9119L36.6435 59.5839C36.4515 59.7386 36.2222 59.8586 35.9555 59.9439C35.6889 60.0293 35.4062 60.0719 35.1075 60.0719Z"
    fill="black"
  />
  <path
    d="M39.2507 60.0719C38.7707 60.0719 38.4081 59.9466 38.1627 59.6959C37.9174 59.4453 37.7947 59.0693 37.7947 58.5679V56.7039H37.0187V55.9519H37.7947V54.9199L38.7947 54.6639V55.9519H39.8747V56.7039H38.7947V58.5039C38.7947 58.7813 38.8481 58.9759 38.9547 59.0879C39.0614 59.1999 39.2081 59.2559 39.3947 59.2559C39.4961 59.2559 39.5814 59.2479 39.6507 59.2319C39.7254 59.2159 39.7974 59.1946 39.8667 59.1679V59.9599C39.7761 59.9973 39.6747 60.0239 39.5627 60.0399C39.4561 60.0613 39.3521 60.0719 39.2507 60.0719Z"
    fill="black"
  />
  <path
    d="M40.554 59.9919V55.9519H41.554V59.9919H40.554ZM40.498 55.1919V54.2159H41.61V55.1919H40.498Z"
    fill="black"
  />
  <path
    d="M42.6399 59.9919V56.9599C42.6399 56.7946 42.6346 56.6266 42.6239 56.4559C42.6132 56.2853 42.5972 56.1173 42.5759 55.9519H43.5439L43.6239 56.7519H43.5279C43.6559 56.4693 43.8452 56.2533 44.0959 56.1039C44.3466 55.9493 44.6372 55.8719 44.9679 55.8719C45.4426 55.8719 45.7999 56.0053 46.0399 56.2719C46.2799 56.5386 46.3999 56.9546 46.3999 57.5199V59.9919H45.3999V57.5679C45.3999 57.2426 45.3359 57.0106 45.2079 56.8719C45.0852 56.7279 44.8986 56.6559 44.6479 56.6559C44.3386 56.6559 44.0932 56.7519 43.9119 56.9439C43.7306 57.1359 43.6399 57.3919 43.6399 57.7119V59.9919H42.6399Z"
    fill="black"
  />
  <path
    d="M49.3322 61.7839C48.9589 61.7839 48.6202 61.7439 48.3162 61.6639C48.0176 61.5839 47.7509 61.4613 47.5162 61.2959L47.7322 60.5759C47.8869 60.6773 48.0469 60.7599 48.2122 60.8239C48.3776 60.8879 48.5482 60.9359 48.7242 60.9679C48.9002 60.9999 49.0789 61.0159 49.2602 61.0159C49.6336 61.0159 49.9109 60.9226 50.0922 60.7359C50.2789 60.5546 50.3722 60.2933 50.3722 59.9519V58.9839H50.4522C50.3669 59.2613 50.1936 59.4826 49.9322 59.6479C49.6762 59.8133 49.3802 59.8959 49.0442 59.8959C48.6816 59.8959 48.3642 59.8159 48.0922 59.6559C47.8256 59.4906 47.6176 59.2559 47.4682 58.9519C47.3189 58.6479 47.2442 58.2906 47.2442 57.8799C47.2442 57.4693 47.3189 57.1146 47.4682 56.8159C47.6176 56.5119 47.8256 56.2799 48.0922 56.1199C48.3642 55.9546 48.6816 55.8719 49.0442 55.8719C49.3856 55.8719 49.6816 55.9546 49.9322 56.1199C50.1882 56.2799 50.3589 56.4986 50.4442 56.7759L50.3722 56.7279L50.4522 55.9519H51.4202C51.3989 56.1173 51.3829 56.2853 51.3722 56.4559C51.3615 56.6266 51.3562 56.7946 51.3562 56.9599V59.8319C51.3562 60.4666 51.1829 60.9493 50.8362 61.2799C50.4949 61.6159 49.9936 61.7839 49.3322 61.7839ZM49.3162 59.1279C49.6362 59.1279 49.8896 59.0213 50.0762 58.8079C50.2682 58.5893 50.3642 58.2799 50.3642 57.8799C50.3642 57.4799 50.2682 57.1733 50.0762 56.9599C49.8896 56.7466 49.6362 56.6399 49.3162 56.6399C48.9909 56.6399 48.7322 56.7466 48.5402 56.9599C48.3482 57.1733 48.2522 57.4799 48.2522 57.8799C48.2522 58.2799 48.3482 58.5893 48.5402 58.8079C48.7322 59.0213 48.9909 59.1279 49.3162 59.1279Z"
    fill="black"
  />
</svg>