<svg viewBox="0 0 73 72" fill="none" xmlns="http://www.w3.org/2000/svg">
  <path
    d="M36.32 11.016C47.3658 11.016 56.32 19.9702 56.32 31.016C56.32 42.0618 47.3658 51.016 36.32 51.016C25.2742 51.016 16.32 42.0618 16.32 31.016C16.32 19.9702 25.2742 11.016 36.32 11.016Z"
    fill="#E5E5E4"
  />
  <path
    d="M36.32 11.4054C47.1507 11.4054 55.9306 20.1853 55.9306 31.016C55.9306 41.8466 47.1507 50.6265 36.32 50.6265C25.4894 50.6265 16.7094 41.8466 16.7094 31.016C16.7094 20.1853 25.4897 11.4054 36.32 11.4054Z"
    fill="white"
  />
  <path
    d="M36.32 12.9786C46.2818 12.9786 54.3574 21.0542 54.3574 31.016C54.3574 40.9778 46.2818 49.0534 36.32 49.0534C26.3582 49.0534 18.2826 40.9778 18.2826 31.016C18.2826 21.0542 26.3582 12.9786 36.32 12.9786Z"
    fill="#4A8CFF"
  />
  <path
    d="M24.5522 25.3649V33.8414C24.5597 35.7582 26.1253 37.3009 28.0346 37.2931H40.3905C40.7417 37.2931 41.0243 37.0105 41.0243 36.6668V28.1903C41.0168 26.2735 39.4512 24.7307 37.5422 24.7386H25.1863C24.8351 24.7386 24.5522 25.0212 24.5522 25.3649ZM41.8107 28.6715L46.912 24.945C47.355 24.5785 47.6984 24.6699 47.6984 25.3345V36.6975C47.6984 37.4535 47.2783 37.362 46.912 37.087L41.8107 33.368V28.6715Z"
    fill="white"
  />
  <path
    d="M22.0082 60.904L20.0162 55.264H21.0882L22.6242 59.888H22.3042L23.9602 55.264H24.7282L26.2642 59.888H25.9682L27.5762 55.264H28.5842L26.5762 60.904H25.7202L24.2322 56.568H24.4082L22.8642 60.904H22.0082Z"
    fill="black"
  />
  <path
    d="M30.7809 60.984C30.1036 60.984 29.5729 60.7973 29.1889 60.424C28.8049 60.0507 28.6129 59.5387 28.6129 58.888C28.6129 58.4667 28.6956 58.0987 28.8609 57.784C29.0263 57.4693 29.2556 57.224 29.5489 57.048C29.8476 56.872 30.1943 56.784 30.5889 56.784C30.9783 56.784 31.3036 56.8667 31.5649 57.032C31.8263 57.1973 32.0236 57.4293 32.1569 57.728C32.2956 58.0267 32.3649 58.376 32.3649 58.776V59.04H29.4209V58.512H31.6529L31.5169 58.624C31.5169 58.2507 31.4369 57.9653 31.2769 57.768C31.1223 57.5707 30.8956 57.472 30.5969 57.472C30.2663 57.472 30.0103 57.5893 29.8289 57.824C29.6529 58.0587 29.5649 58.3867 29.5649 58.808V58.912C29.5649 59.3493 29.6716 59.6773 29.8849 59.896C30.1036 60.1093 30.4103 60.216 30.8049 60.216C31.0343 60.216 31.2476 60.1867 31.4449 60.128C31.6476 60.064 31.8396 59.9627 32.0209 59.824L32.3169 60.496C32.1249 60.6507 31.8956 60.7707 31.6289 60.856C31.3623 60.9413 31.0796 60.984 30.7809 60.984Z"
    fill="black"
  />
  <path
    d="M35.5237 60.984C35.1824 60.984 34.8837 60.9013 34.6277 60.736C34.3717 60.5653 34.2011 60.336 34.1157 60.048H34.2037V60.904H33.2117V55.016H34.2117V57.688H34.1157C34.2064 57.4107 34.3797 57.192 34.6357 57.032C34.8917 56.8667 35.1877 56.784 35.5237 56.784C35.8811 56.784 36.1931 56.8693 36.4597 57.04C36.7264 57.2107 36.9344 57.4533 37.0837 57.768C37.2331 58.0773 37.3077 58.4507 37.3077 58.888C37.3077 59.3253 37.2331 59.7013 37.0837 60.016C36.9344 60.3253 36.7237 60.5653 36.4517 60.736C36.1851 60.9013 35.8757 60.984 35.5237 60.984ZM35.2437 60.216C35.5584 60.216 35.8117 60.1067 36.0037 59.888C36.2011 59.6693 36.2997 59.336 36.2997 58.888C36.2997 58.44 36.2011 58.1067 36.0037 57.888C35.8117 57.664 35.5584 57.552 35.2437 57.552C34.9291 57.552 34.6757 57.6613 34.4837 57.88C34.2917 58.0987 34.1957 58.432 34.1957 58.88C34.1957 59.328 34.2917 59.664 34.4837 59.888C34.6757 60.1067 34.9291 60.216 35.2437 60.216Z"
    fill="black"
  />
  <path
    d="M38.1727 60.904V56.864H39.1727V60.904H38.1727ZM38.1167 56.104V55.128H39.2287V56.104H38.1167Z"
    fill="black"
  />
  <path
    d="M40.2586 60.904V57.872C40.2586 57.7067 40.2533 57.5387 40.2426 57.368C40.2319 57.1973 40.2159 57.0293 40.1946 56.864H41.1626L41.2426 57.664H41.1466C41.2746 57.3813 41.4639 57.1653 41.7146 57.016C41.9653 56.8613 42.2559 56.784 42.5866 56.784C43.0613 56.784 43.4186 56.9173 43.6586 57.184C43.8986 57.4507 44.0186 57.8667 44.0186 58.432V60.904H43.0186V58.48C43.0186 58.1547 42.9546 57.9227 42.8266 57.784C42.7039 57.64 42.5173 57.568 42.2666 57.568C41.9573 57.568 41.7119 57.664 41.5306 57.856C41.3493 58.048 41.2586 58.304 41.2586 58.624V60.904H40.2586Z"
    fill="black"
  />
  <path
    d="M46.6389 60.984C46.2869 60.984 45.9776 60.9013 45.7109 60.736C45.4443 60.5653 45.2363 60.3227 45.0869 60.008C44.9376 59.6933 44.8629 59.3173 44.8629 58.88C44.8629 58.4427 44.9376 58.0693 45.0869 57.76C45.2363 57.4453 45.4443 57.2053 45.7109 57.04C45.9776 56.8693 46.2869 56.784 46.6389 56.784C46.9803 56.784 47.2789 56.8693 47.5349 57.04C47.7963 57.2053 47.9696 57.4293 48.0549 57.712H47.9669L48.0549 56.864H49.0149C48.9989 57.0293 48.9829 57.1973 48.9669 57.368C48.9563 57.5387 48.9509 57.7067 48.9509 57.872V60.904H47.9589L47.9509 60.072H48.0469C47.9616 60.3493 47.7883 60.5707 47.5269 60.736C47.2656 60.9013 46.9696 60.984 46.6389 60.984ZM46.9189 60.216C47.2336 60.216 47.4869 60.1067 47.6789 59.888C47.8709 59.664 47.9669 59.328 47.9669 58.88C47.9669 58.432 47.8709 58.0987 47.6789 57.88C47.4869 57.6613 47.2336 57.552 46.9189 57.552C46.6043 57.552 46.3509 57.6613 46.1589 57.88C45.9669 58.0987 45.8709 58.432 45.8709 58.88C45.8709 59.328 45.9643 59.664 46.1509 59.888C46.3429 60.1067 46.5989 60.216 46.9189 60.216Z"
    fill="black"
  />
  <path
    d="M50.0319 60.904V57.896C50.0319 57.7253 50.0265 57.552 50.0159 57.376C50.0105 57.2 49.9972 57.0293 49.9759 56.864H50.9439L51.0559 57.968H50.8959C50.9492 57.7013 51.0372 57.48 51.1599 57.304C51.2879 57.128 51.4425 56.9973 51.6239 56.912C51.8052 56.8267 52.0025 56.784 52.2159 56.784C52.3119 56.784 52.3892 56.7893 52.4479 56.8C52.5065 56.8053 52.5652 56.8187 52.6239 56.84L52.6159 57.72C52.5145 57.6773 52.4265 57.6507 52.3519 57.64C52.2825 57.6293 52.1945 57.624 52.0879 57.624C51.8585 57.624 51.6639 57.672 51.5039 57.768C51.3492 57.864 51.2319 57.9973 51.1519 58.168C51.0772 58.3387 51.0399 58.5333 51.0399 58.752V60.904H50.0319Z"
    fill="black"
  />
</svg>