<svg viewBox="0 0 374 207" fill="currentColor" xmlns="http://www.w3.org/2000/svg">
<path d="M158.479 23.7764H154.624V52.5399H158.479V23.7764Z" fill="#1B68B3"/>
<path d="M172.319 36.551L169.495 39.1807L156.556 25.2564L143.611 39.1807L140.788 36.551L156.556 19.5957L172.319 36.551Z" fill="#1B68B3"/>
<path d="M155.483 66.9971C149.383 66.9971 143.42 65.1882 138.348 61.7992C133.276 58.4102 129.323 53.5933 126.989 47.9576C124.654 42.3219 124.044 36.1206 125.234 30.1377C126.424 24.1549 129.361 18.6594 133.675 14.346C137.988 10.0326 143.484 7.09519 149.466 5.90514C155.449 4.71508 161.651 5.32586 167.286 7.66024C172.922 9.99462 177.739 13.9477 181.128 19.0197C184.517 24.0917 186.326 30.0548 186.326 36.1548C186.316 44.3318 183.064 52.1713 177.282 57.9534C171.5 63.7354 163.66 66.9878 155.483 66.9971ZM155.483 9.16779C150.146 9.16779 144.928 10.7506 140.49 13.7159C136.052 16.6813 132.593 20.8961 130.551 25.8273C128.508 30.7585 127.974 36.1847 129.015 41.4197C130.056 46.6546 132.627 51.4633 136.401 55.2375C140.175 59.0117 144.984 61.5819 150.218 62.6232C155.453 63.6645 160.88 63.1301 165.811 61.0875C170.742 59.0449 174.957 55.5859 177.922 51.148C180.888 46.71 182.47 41.4923 182.47 36.1548C182.462 28.9999 179.616 22.1403 174.557 17.081C169.498 12.0217 162.638 9.17585 155.483 9.16779Z" fill="#1B68B3"/>
<path d="M363.906 38.2871H362.593V48.0808H363.906V38.2871Z" fill="#74B0EA" fill-opacity="0.25"/>
<path d="M368.618 42.6366L367.657 43.5321L363.251 38.7906L358.844 43.5321L357.882 42.6366L363.251 36.8633L368.618 42.6366Z" fill="#74B0EA" fill-opacity="0.25"/>
<path d="M362.886 53.0029C360.809 53.0029 358.779 52.387 357.052 51.2331C355.325 50.0792 353.979 48.4391 353.184 46.5202C352.389 44.6013 352.181 42.4898 352.586 40.4527C352.992 38.4156 353.992 36.5445 355.46 35.0758C356.929 33.6072 358.8 32.607 360.837 32.2018C362.874 31.7966 364.986 32.0046 366.905 32.7994C368.824 33.5942 370.464 34.9402 371.618 36.6672C372.772 38.3941 373.387 40.4245 373.387 42.5015C373.384 45.2857 372.277 47.9549 370.308 49.9237C368.339 51.8924 365.67 52.9998 362.886 53.0029ZM362.886 33.3127C361.069 33.3127 359.292 33.8516 357.781 34.8613C356.27 35.871 355.092 37.3061 354.397 38.9851C353.701 40.6641 353.519 42.5117 353.874 44.2941C354.228 46.0766 355.103 47.7138 356.389 48.9989C357.674 50.284 359.311 51.1591 361.093 51.5137C362.876 51.8682 364.723 51.6863 366.402 50.9908C368.081 50.2953 369.516 49.1176 370.526 47.6065C371.536 46.0954 372.075 44.3189 372.075 42.5015C372.072 40.0653 371.103 37.7297 369.38 36.0071C367.658 34.2845 365.322 33.3155 362.886 33.3127Z" fill="#74B0EA" fill-opacity="0.25"/>
<path d="M336.803 132.491H334.677V148.35H336.803V132.491Z" fill="#74B0EA" fill-opacity="0.25"/>
<path d="M344.434 139.534L342.877 140.984L335.742 133.306L328.606 140.984L327.049 139.534L335.742 130.186L344.434 139.534Z" fill="#74B0EA" fill-opacity="0.25"/>
<path d="M335.152 156.32C331.788 156.32 328.501 155.323 325.704 153.455C322.908 151.586 320.728 148.93 319.441 145.823C318.154 142.716 317.817 139.297 318.473 135.998C319.13 132.699 320.749 129.669 323.127 127.291C325.506 124.913 328.536 123.293 331.834 122.637C335.133 121.981 338.552 122.318 341.659 123.605C344.766 124.892 347.422 127.072 349.291 129.868C351.159 132.664 352.157 135.952 352.157 139.315C352.151 143.824 350.358 148.146 347.17 151.334C343.982 154.522 339.66 156.315 335.152 156.32ZM335.152 124.436C332.209 124.436 329.332 125.309 326.885 126.944C324.438 128.579 322.531 130.903 321.405 133.621C320.279 136.34 319.984 139.332 320.558 142.218C321.132 145.105 322.55 147.756 324.63 149.837C326.711 151.918 329.363 153.335 332.249 153.909C335.135 154.483 338.127 154.188 340.846 153.062C343.565 151.936 345.888 150.029 347.523 147.582C349.158 145.135 350.031 142.258 350.031 139.316C350.026 135.371 348.457 131.589 345.668 128.799C342.879 126.01 339.097 124.441 335.152 124.436Z" fill="#74B0EA" fill-opacity="0.25"/>
<path d="M13.5063 58.0361H12.0373V68.9965H13.5063V58.0361Z" fill="#74B0EA" fill-opacity="0.25"/>
<path d="M18.7799 62.9034L17.7042 63.9056L12.7733 58.5993L7.84113 63.9056L6.76509 62.9034L12.7733 56.4424L18.7799 62.9034Z" fill="#74B0EA" fill-opacity="0.25"/>
<path d="M12.365 74.5049C10.0406 74.5049 7.76836 73.8156 5.83569 72.5242C3.90301 71.2329 2.39667 69.3974 1.50716 67.2499C0.617641 65.1024 0.384903 62.7394 0.838374 60.4597C1.29184 58.1799 2.41115 56.0858 4.05476 54.4422C5.69837 52.7986 7.79246 51.6793 10.0722 51.2258C12.352 50.7724 14.715 51.0051 16.8625 51.8946C19.0099 52.7841 20.8454 54.2905 22.1368 56.2231C23.4282 58.1558 24.1174 60.428 24.1174 62.7524C24.1139 65.8683 22.8746 68.8555 20.6713 71.0588C18.4681 73.262 15.4809 74.5014 12.365 74.5049ZM12.365 52.4691C10.3311 52.4691 8.34296 53.0722 6.65187 54.2022C4.96078 55.3321 3.64273 56.9382 2.8644 58.8172C2.08608 60.6962 1.88243 62.7639 2.27922 64.7586C2.676 66.7534 3.6554 68.5857 5.09355 70.0239C6.53171 71.4621 8.36402 72.4414 10.3588 72.8382C12.3536 73.235 14.4212 73.0314 16.3003 72.2531C18.1793 71.4747 19.7853 70.1567 20.9153 68.4656C22.0452 66.7745 22.6484 64.7863 22.6484 62.7525C22.6453 60.0261 21.5609 57.4123 19.633 55.4844C17.7052 53.5566 15.0914 52.4722 12.365 52.4691Z" fill="#74B0EA" fill-opacity="0.25"/>
<path d="M91.8034 127.161H89.6778V143.02H91.8034V127.161Z" fill="#74B0EA" fill-opacity="0.25"/>
<path d="M99.4341 134.205L97.8772 135.655L90.7425 127.977L83.606 135.655L82.049 134.205L90.7425 124.856L99.4341 134.205Z" fill="#74B0EA" fill-opacity="0.25"/>
<path d="M90.1516 150.991C86.7884 150.991 83.5007 149.994 80.7042 148.125C77.9078 146.257 75.7282 143.601 74.4412 140.494C73.1541 137.387 72.8173 133.968 73.4735 130.669C74.1296 127.37 75.7492 124.34 78.1274 121.962C80.5055 119.584 83.5355 117.964 86.8342 117.308C90.1328 116.652 93.5519 116.989 96.6591 118.276C99.7664 119.563 102.422 121.742 104.291 124.539C106.159 127.335 107.157 130.623 107.157 133.986C107.151 138.495 105.358 142.817 102.17 146.005C98.9824 149.193 94.6601 150.986 90.1516 150.991ZM90.1516 119.107C87.2088 119.107 84.332 119.98 81.8852 121.615C79.4383 123.25 77.5312 125.574 76.405 128.292C75.2788 131.011 74.9842 134.003 75.5583 136.889C76.1324 139.775 77.5495 142.427 79.6304 144.508C81.7113 146.589 84.3625 148.006 87.2488 148.58C90.1351 149.154 93.1269 148.859 95.8457 147.733C98.5645 146.607 100.888 144.7 102.523 142.253C104.158 139.806 105.031 136.929 105.031 133.986C105.026 130.042 103.457 126.26 100.668 123.47C97.8785 120.681 94.0965 119.112 90.1516 119.107Z" fill="#74B0EA" fill-opacity="0.25"/>
<path d="M241.183 120.876C240.708 120.387 240.343 119.802 240.111 119.161C239.88 118.52 239.787 117.837 239.84 117.158C239.893 116.478 240.09 115.818 240.418 115.22C240.746 114.622 241.197 114.101 241.742 113.692C241.974 113.51 242.22 113.347 242.478 113.204L238.394 95.6055L247.893 99.0163L250.315 115.205C250.884 116.218 251.067 117.403 250.829 118.54C250.592 119.677 249.949 120.689 249.022 121.389C247.879 122.278 246.45 122.716 245.005 122.622C243.56 122.527 242.2 121.906 241.183 120.876Z" fill="#FFB8B8"/>
<path d="M240.104 107.145L240.053 106.972C234.918 89.5661 229.61 71.5728 223.13 51.9814L223.087 51.853L223.23 51.7766C226.842 49.8449 232.271 49.9735 235.858 52.0755C239.177 54.0202 240.855 57.7821 239.948 61.2346L244.674 83.8198C246.596 91.2025 248.584 98.8442 250.485 106.379L250.539 106.593L250.245 106.61C246.784 106.812 243.208 107.02 240.344 107.135L240.104 107.145Z" fill="#FF9C28"/>
<path d="M196.464 200.826H189.729L186.523 177.017H196.464V200.826Z" fill="#FFB8B8"/>
<path d="M198.182 206.809H176.465V206.558C176.465 202.286 180.257 198.811 184.918 198.811H198.182V206.809Z" fill="#2F2E41"/>
<path d="M259.932 195.734L253.514 197.608L242.573 175.815L252.044 173.049L259.932 195.734Z" fill="#FFB8B8"/>
<path d="M242.858 207L242.775 206.76C241.36 202.69 243.822 198.324 248.263 197.027L260.901 193.336L263.551 200.957L242.858 207Z" fill="#2F2E41"/>
<path d="M225.841 36.0303C233.294 36.0303 239.335 30.4937 239.335 23.6641C239.335 16.8344 233.294 11.2979 225.841 11.2979C218.389 11.2979 212.348 16.8344 212.348 23.6641C212.348 30.4937 218.389 36.0303 225.841 36.0303Z" fill="#FFB8B8"/>
<path d="M231.9 21.3726C231.976 16.3849 229.699 11.4452 226.177 8.96162C224.475 7.75138 222.43 7.11687 220.341 7.1507C218.253 7.18453 216.23 7.88492 214.567 9.14966C211.1 11.7464 208.929 16.7582 209.113 21.7417C216.882 21.7619 224.65 21.7822 231.9 21.3726Z" fill="#2F2E41"/>
<path d="M200.31 193.162L200.04 193.138C194.18 192.611 188.121 192.067 182.394 192.004L182.083 192.001L182.126 191.718C183.482 182.713 184.057 173.351 184.614 164.297C185.163 155.357 185.731 146.113 187.053 137.334C187.613 134.983 188.158 132.66 188.702 130.345C193.199 111.191 197.446 93.0987 206.214 75.1896L206.297 75.0205L206.498 75.0426C214.725 75.9549 222.63 78.7057 228.757 82.788L228.875 82.8669L228.869 83.0014C228.701 85.7572 228.681 88.5202 228.81 91.2782C231.567 94.7127 233.413 98.7873 234.177 103.125C234.94 107.462 234.598 111.922 233.18 116.092C235.592 123.481 238.086 131.119 240.631 138.653C246.811 154.18 253.205 170.248 259.761 186.535L259.868 186.802L259.566 186.867C254.849 187.882 249.984 188.928 245.185 189.335L245.003 189.35L244.917 189.203C232.745 168.477 222.785 146.529 215.202 123.721C213.564 128.299 211.204 132.431 208.918 136.433C206.741 140.056 204.817 143.825 203.16 147.713C202.148 155.326 201.879 163.574 201.62 171.551C201.375 179.093 201.143 186.217 200.339 192.915L200.31 193.162Z" fill="#2F2E41"/>
<path d="M221.235 9.1905C227.084 8.03563 233.553 9.13433 238.146 12.7509C242.74 16.3674 245.072 22.6238 243.185 27.9895C241.298 33.3552 234.892 37.1305 229.099 35.7449C230.758 31.459 228.891 26.197 224.835 23.7283C220.024 20.8006 218.7 13.811 221.235 9.1905Z" fill="#2F2E41"/>
<path d="M228.336 83.3258L228.122 83.2366C220.661 80.1168 213.344 77.723 206.489 75.5389L206.279 75.4974L206.279 74.9388L206.415 74.9823C206.444 74.9243 206.476 74.8584 206.509 74.7928C206.602 74.603 206.666 74.4737 206.72 74.3881L206.719 74.3874C207.291 73.3202 207.745 72.2888 208.184 71.2915C208.637 70.2621 209.105 69.1993 209.71 68.0748C208.264 66.797 207.258 65.0951 206.836 63.212C206.414 61.3288 206.598 59.3605 207.361 57.5878C208.875 54.2987 212.736 51.737 216.793 51.3119C218.279 47.5616 221.592 39.6813 221.592 39.6813C221.592 39.6813 228.557 39.506 231.358 39.1802L231.405 39.1748L231.451 39.1842C237.566 40.4122 242.672 45.7153 243.866 52.0804C244.875 57.4527 243.343 63.5975 239.555 69.3832C237.599 72.2279 235.45 74.9345 233.122 77.4838C231.416 79.4393 229.804 81.286 228.465 83.1461L228.336 83.3258Z" fill="#FF9C28"/>
<path d="M241.842 16.5189C237.747 15.9588 234.533 12.1232 234.998 8.35338C235.464 4.58359 239.532 1.5032 243.659 1.7956C247.787 2.08801 251.29 5.70489 251.118 9.49539C250.946 13.2859 247.069 17.234 241.842 16.5189Z" fill="#2F2E41"/>
<path d="M241.202 14.0736C237.108 13.5135 233.894 9.67789 234.359 5.90813C234.677 3.32932 236.683 1.07462 239.239 0C235.937 0.662303 233.095 3.29912 232.711 6.41163C232.245 10.1814 235.46 14.017 239.554 14.5771C241.075 14.7972 242.628 14.5982 244.044 14.0016C243.107 14.1815 242.147 14.2058 241.202 14.0736Z" fill="#2F2E41"/>
<path d="M161.784 80.5236C162.588 79.3248 163.807 78.4662 165.206 78.1135C166.606 77.7607 168.086 77.9387 169.362 78.6133C169.623 78.7513 169.873 78.9097 170.109 79.087L186.854 69.6943L186.509 79.0387L170.661 86.5255C169.766 87.3672 168.632 87.91 167.415 88.0789C166.198 88.2478 164.959 88.0344 163.868 87.4683C163.25 87.177 162.699 86.7586 162.253 86.2405C161.806 85.7223 161.474 85.116 161.277 84.4609C161.081 83.8058 161.024 83.1166 161.111 82.4382C161.199 81.7598 161.428 81.1075 161.784 80.5236Z" fill="#FFB8B8"/>
<path d="M175.551 75.0163L175.712 74.9146C191.909 64.6781 208.652 54.0964 226.649 41.9691L226.767 41.8896L226.893 41.9877C230.084 44.4652 231.76 49.1993 230.793 52.9993C229.898 56.515 226.587 59.2181 222.732 59.5846L201.071 71.1938C194.116 75.314 186.917 79.5785 179.798 83.7314L179.597 83.8492L179.481 83.6006C178.12 80.6774 176.714 77.6574 175.641 75.2205L175.551 75.0163Z" fill="#FF9C28"/>
</svg>
