<svg viewBox="0 0 242 207" fill="currentColor" xmlns="http://www.w3.org/2000/svg">
<g clip-path="url(#clip0_57255_98429)">
<path d="M172.288 202.765L168.244 202.765L166.321 187.168L172.289 187.168L172.288 202.765Z" fill="#FFB6B6"/>
<path d="M173.319 206.685L160.281 206.684V206.519C160.281 205.173 160.816 203.883 161.767 202.931C162.719 201.979 164.01 201.445 165.356 201.445H165.356L167.738 199.638L172.181 201.445L173.319 201.445L173.319 206.685Z" fill="#2F2E41"/>
<path d="M237.608 188.016L234.851 190.974L222.13 181.747L226.199 177.382L237.608 188.016Z" fill="#FFB6B6"/>
<path d="M241.179 189.934L232.289 199.472L232.168 199.359C231.184 198.442 230.604 197.171 230.557 195.825C230.51 194.48 230.998 193.172 231.916 192.187L232.218 189.213L236.57 187.194L237.346 186.361L241.179 189.934Z" fill="#2F2E41"/>
<path d="M231.625 179.251L227.351 188.19L201.106 170.813L197.287 165.61L184.768 148.553L179.679 156.628L176.138 165.069C174.984 165.822 174.012 166.821 173.291 167.996C172.57 169.17 172.12 170.49 171.971 171.859L171.809 173.354L174.047 193.469L165.542 196.08L160.657 169.059L162.254 163.203L163.898 154.984L172.174 129.011H194.322L207.025 156.05L207.954 161.559L211.555 165.693L231.625 179.251Z" fill="#2F2E41"/>
<path d="M185.598 86.5156L189.327 89.3546L193.823 90.7363C193.823 90.7363 195.682 116.883 197.357 118.558C199.031 120.233 197.521 120.278 197.857 122.454C198.194 124.629 199.012 129.089 199.012 129.089C187.706 135.074 177.96 135.235 170.131 128.232C170.031 127.798 170.082 127.344 170.275 126.944C170.469 126.543 170.793 126.221 171.195 126.031C172.652 125.257 169.852 121.649 171.042 121.046C172.233 120.442 170.558 115.208 170.558 115.208L171.657 104.288L170.789 102.542L172.907 91.8608L176.583 90.5184L178.051 86.9807L185.598 86.5156Z" fill="#0046AB"/>
<path d="M187.934 132.988C187.917 132.516 188.004 132.046 188.189 131.611C188.373 131.176 188.651 130.787 189.003 130.471C189.354 130.155 189.77 129.92 190.222 129.782C190.674 129.644 191.151 129.607 191.619 129.674L196.873 119.461L199.8 124.662L194.362 133.563C194.198 134.341 193.754 135.033 193.115 135.506C192.476 135.979 191.685 136.201 190.892 136.131C190.1 136.06 189.361 135.701 188.816 135.121C188.271 134.542 187.957 133.783 187.934 132.988Z" fill="#FFB6B6"/>
<path d="M196.783 130.489L208.053 113.022L208.015 112.942C207.973 112.85 205.421 107.338 202.948 102.29C202.567 101.512 202.188 100.746 201.821 100.012C201.662 99.695 201.506 99.3849 201.352 99.0813C200.313 97.0338 199.406 95.3414 198.864 94.5376C197.666 92.72 195.882 91.3669 193.809 90.7029L193.757 90.6895L193.707 90.7102C192.693 91.1381 191.855 91.8988 191.331 92.8669C190.808 93.8349 190.63 94.9526 190.826 96.0355C191.804 101.259 193.982 106.184 197.189 110.421L199.016 112.829L192.667 126.633L196.783 130.489Z" fill="#0046AB"/>
<path d="M158.029 63.5365C158.339 63.8928 158.568 64.3128 158.698 64.7669C158.829 65.221 158.858 65.6983 158.784 66.1649C158.71 66.6316 158.535 67.0764 158.27 67.4679C158.006 67.8595 157.659 68.1883 157.254 68.4313L159.603 79.6737L154.054 77.4766L152.673 67.1374C152.31 66.4296 152.22 65.6132 152.418 64.8429C152.617 64.0726 153.092 63.402 153.752 62.9581C154.412 62.5143 155.212 62.328 156 62.4346C156.789 62.5412 157.51 62.9332 158.029 63.5365Z" fill="#FFB6B6"/>
<path d="M152.728 71.0488L154.972 91.7143L155.052 91.7534C155.117 91.7855 157.96 93.18 161.45 94.8407C162.039 95.1209 161.955 96.3345 162.57 96.6245C162.994 96.8243 164.113 96.0993 164.541 96.2996C168.356 98.0835 172.213 99.818 173.75 100.288C175.825 100.946 178.063 100.873 180.092 100.084L180.141 100.061L180.166 100.014C180.684 99.043 180.856 97.9244 180.654 96.8425C180.451 95.7607 179.886 94.7803 179.051 94.0629C175.002 90.6207 170.209 88.1666 165.05 86.8943L162.114 86.174L158.354 71.4528L152.728 71.0488Z" fill="#0046AB"/>
<path d="M181.623 85.345C185.696 85.345 188.998 82.0432 188.998 77.9703C188.998 73.8974 185.696 70.5957 181.623 70.5957C177.55 70.5957 174.249 73.8974 174.249 77.9703C174.249 82.0432 177.55 85.345 181.623 85.345Z" fill="#FFB6B6"/>
<path d="M174.301 73.0292C174.908 71.2648 177.927 70.041 182.821 69.8709C187.716 69.7007 188.957 75.4685 188.957 75.4685C192.224 78.119 185.468 85.215 185.141 84.9594L185.288 83.6262C185.532 81.4179 186.566 79.6949 185.251 77.3935L183.988 77.408C182.357 77.7216 180.726 78.0352 179.095 78.3488L181.026 76.6488L180.971 76.5645C180.15 76.9923 179.256 77.2637 178.336 77.3648C177.298 77.4258 176.163 77.0128 175.666 76.0997C175.534 75.8488 175.452 75.5738 175.428 75.2909C174.028 75.8501 173.388 77.5753 173.388 77.5753C173.388 77.5753 173.695 74.7936 174.301 73.0292Z" fill="#2F2E41"/>
<path d="M30.5331 73.4716C30.433 73.3447 30.3253 73.2241 30.2104 73.1104C30.2385 73.0719 30.2666 73.0298 30.2946 72.9912L30.5331 73.4716Z" fill="#2F2E41"/>
<path d="M31.9675 103.132C30.7612 105.275 28.352 106.471 25.9639 107.056C23.2815 107.759 20.4568 107.704 17.8036 106.898C17.4669 106.79 17.1303 106.663 16.8041 106.523C16.9609 106.107 17.0852 105.679 17.1758 105.243C17.2979 104.654 17.359 104.053 17.3582 103.451C17.0925 103.97 16.7483 104.444 16.3377 104.857C16.021 105.19 15.6613 105.479 15.2681 105.717C14.0486 104.976 12.9927 103.996 12.1646 102.834C12.2172 102.704 12.2699 102.575 12.3189 102.445C12.5736 101.767 12.7752 101.071 12.9221 100.362C13.1214 99.4032 13.2212 98.4266 13.2202 97.4476C12.7878 98.2912 12.227 99.0625 11.5579 99.734C11.3573 99.9486 11.1442 100.151 10.9197 100.341C10.572 99.2848 10.4376 98.1703 10.5243 97.062C10.611 95.9537 10.9171 94.8737 11.4247 93.8847C12.8134 91.3177 15.5066 89.7923 17.9053 88.1335C20.3074 86.4748 22.7096 84.2305 22.913 81.3163C23.0497 79.349 22.138 77.3782 22.5027 75.4424C22.6561 74.6261 23.0305 73.8676 23.5853 73.2494C24.14 72.6313 24.8537 72.1772 25.6487 71.9367C26.4437 71.6961 27.2895 71.6784 28.0939 71.8853C28.8983 72.0923 29.6304 72.5161 30.2106 73.1104C28.85 75.0392 27.4963 77.0345 26.9458 79.328C26.3847 81.6635 26.8441 84.4023 28.6852 85.9488C29.3164 86.4818 30.0914 86.8606 30.5788 87.5268C31.2276 88.4106 31.2311 89.5888 31.3363 90.676C31.5467 92.7906 32.2375 94.8245 32.6093 96.918C32.9845 99.0081 33.0055 101.277 31.9675 103.132Z" fill="#2F2E41"/>
<path d="M7.23804 190.095L10.4386 192.568L21.4999 181.4L16.7761 177.75L7.23804 190.095Z" fill="#A0616A"/>
<path d="M7.37427 187.679L12.6669 191.286L10.992 193.454L13.2351 200.492C13.3459 200.84 13.3427 201.214 13.226 201.559C13.1092 201.905 12.885 202.204 12.5861 202.414C12.2872 202.623 11.9293 202.731 11.5645 202.723C11.1997 202.714 10.8473 202.589 10.5586 202.366L4.53535 197.712L5.15389 194.765L3.09179 196.596L0.820801 194.842L7.37427 187.679Z" fill="#2F2E41"/>
<path d="M23.4758 79.7017C23.4754 80.9522 23.7819 82.1836 24.3684 83.288C24.955 84.3924 25.8037 85.3359 26.8401 86.0357C27.8764 86.7355 29.0687 87.1702 30.3122 87.3016C31.5558 87.4331 32.8126 87.2572 33.9723 86.7895C35.132 86.3219 36.1592 85.5767 36.9637 84.6193C37.7682 83.662 38.3254 82.5218 38.5864 81.2989C38.8474 80.0759 38.8042 78.8076 38.4605 77.6053C38.1169 76.4029 37.4834 75.3033 36.6156 74.403L36.5789 74.3664C36.5178 74.3022 36.4567 74.238 36.3925 74.1769L36.3913 74.1766L36.3903 74.176L36.3897 74.175L36.3895 74.1738C36.31 74.1005 36.2306 74.0271 36.148 73.9569C34.8035 72.7773 32.9138 71.4971 30.9856 71.4971C26.7656 71.4971 23.4758 75.4817 23.4758 79.7017Z" fill="#2F2E41"/>
<path d="M67.0192 75.7783C67.0558 76.1858 67.0025 76.5963 66.8633 76.981C66.7241 77.3656 66.5022 77.7151 66.2133 78.0047C65.9243 78.2943 65.5754 78.5171 65.1911 78.6573C64.8068 78.7975 64.3964 78.8517 63.9889 78.8162L45.0718 95.8963L41.8164 90.7548L61.4349 75.5823C61.54 74.9016 61.8912 74.2832 62.4218 73.8441C62.9525 73.405 63.6258 73.1758 64.3141 73.2C65.0024 73.2241 65.658 73.4999 66.1566 73.9752C66.6551 74.4504 66.9621 75.092 67.0192 75.7783Z" fill="#A0616A"/>
<path d="M36.9868 101.052C36.9868 101.052 37.6906 102.352 40.0949 100.345C42.0197 98.7376 51.2413 91.7612 53.2279 88.9024C53.6815 89.0821 54.1821 89.1058 54.6506 88.9698C55.1192 88.8337 55.5292 88.5456 55.8161 88.1509L50.3728 83.3838C48.7442 83.5713 48.7791 84.6653 48.9487 85.2865L44.8428 87.1468L34.24 93.9227L36.4613 100.121L36.9868 101.052Z" fill="#FF9C28"/>
<path d="M26.7153 113.028L26.3188 114.916L25.9822 121.881L40.8046 122.696L40.3443 111.984L38.9076 109.623L26.7153 113.028Z" fill="#A0616A"/>
<path d="M32.9973 87.8754C36.5352 87.8754 39.4032 85.0074 39.4032 81.4694C39.4032 77.9315 36.5352 75.0635 32.9973 75.0635C29.4594 75.0635 26.5913 77.9315 26.5913 81.4694C26.5913 85.0074 29.4594 87.8754 32.9973 87.8754Z" fill="#A0616A"/>
<path d="M21.6241 105.097L21.5847 99.7723C21.5838 97.8563 22.2322 95.9966 23.4241 94.4965C24.616 92.9964 26.281 91.9444 28.1476 91.5122L28.1718 91.5065L29.4385 89.7998L34.5848 90.3146L35.5281 92.2424L39.2572 94.4629L40.693 99.0785C41.3158 99.4935 41.8465 100.032 42.2523 100.661C42.658 101.29 42.9301 101.996 43.0517 102.734C43.5391 105.848 41.3591 108.963 41.0998 109.32L40.4316 113.083L25.8965 115.648L25.7785 115.663L21.6241 105.097Z" fill="#FF9C28"/>
<path d="M40.8361 80.3271C40.0889 80.8003 39.3136 81.2278 38.5146 81.607C37.7036 81.9966 36.8553 82.3033 35.9827 82.5223C35.733 81.9745 35.4274 81.4539 35.0709 80.9688C35.1626 81.5436 35.165 82.1292 35.0779 82.7047C33.6315 82.938 32.1501 82.8165 30.761 82.3505L29.5547 80.3271L29.4635 82.5855C28.4641 82.7678 27.4681 82.9397 26.4687 83.1185C26.4091 83.1255 26.3495 83.1395 26.2934 83.1501C25.6727 80.3516 26.5529 77.2692 28.5097 75.4036C29.4812 74.487 30.6932 73.8652 32.0044 73.6107C33.3156 73.3561 34.6721 73.4793 35.916 73.9658C36.0738 74.0289 36.2351 74.099 36.3894 74.1727L36.3897 74.174L36.3904 74.1752L36.3916 74.1759L36.393 74.1762C36.4841 74.2218 36.5613 74.3305 36.663 74.3199C41.0395 73.8325 41.1797 77.227 40.8361 80.3271Z" fill="#2F2E41"/>
<path d="M30.1792 181.835L33.3847 184.301L44.4236 173.111L39.6926 169.471L30.1792 181.835Z" fill="#A0616A"/>
<path d="M30.6013 179.642L35.9011 183.238L34.2306 185.409L36.4879 192.443C36.5995 192.791 36.597 193.165 36.481 193.51C36.3649 193.856 36.1413 194.156 35.8429 194.366C35.5444 194.576 35.1866 194.685 34.8219 194.677C34.4571 194.669 34.1044 194.545 33.8152 194.322L27.7826 189.68L28.3952 186.733L26.3368 188.568L24.0623 186.818L30.6013 179.642Z" fill="#2F2E41"/>
<path d="M19.7773 168.177L19.7772 168.135L21.2964 165.517L19.7451 162.109L19.6986 153.354L19.95 152.039C20.2883 150.271 20.1898 148.448 19.6633 146.727L19.635 141.397C19.5805 140.062 21.6487 138.888 21.1664 137.775C16.6076 127.255 25.8217 119.229 25.884 119.165L26.0723 118.969L27.0939 119.743L28.0663 119.744L41.1882 122.135L41.2829 122.311C41.799 123.279 42.7951 126.616 42.8542 128.126C43.5081 128.883 50.9574 137.503 51.6196 138.102C56.0945 142.151 58.6565 148.853 59.7854 152.487C60.0658 153.385 60.1223 154.338 59.95 155.263C59.7778 156.188 59.382 157.057 58.7971 157.794L41.8565 176.35L37.2977 172.142L46.464 155.438L45.8031 153.744C44.6171 153.525 43.5438 152.901 42.7662 151.979L40.9101 149.776C40.3962 149.168 40.0697 148.424 39.97 147.633L38.8443 147.498L34.8123 143.265L32.015 168.597L31.2545 170.599L18.0103 186.169L12.3994 182.662L19.7773 168.177Z" fill="#2F2E41"/>
<path d="M17.7549 59.4011C17.5004 59.7214 17.3193 60.0936 17.2243 60.4915C17.1292 60.8894 17.1226 61.3033 17.2048 61.7041C17.2871 62.1048 17.4562 62.4826 17.7002 62.811C17.9443 63.1393 18.2573 63.4101 18.6174 63.6043L14.406 76.0721L17.8448 89.2846L23.3899 86.7777L19.9682 76.8119L22.5282 62.3059C22.8144 61.6794 22.8609 60.9697 22.6588 60.3112C22.4567 59.6528 22.0201 59.0914 21.4318 58.7333C20.8434 58.3752 20.1441 58.2455 19.4664 58.3685C18.7888 58.4916 18.1798 58.859 17.7549 59.4011Z" fill="#A0616A"/>
<path d="M22.8306 100.172C22.8306 100.172 21.5282 100.871 20.6224 97.8728C19.8973 95.4725 14.9624 82.4401 14.8735 78.9599C14.3957 78.8608 13.9645 78.6056 13.6477 78.2344C13.331 77.8632 13.1468 77.3972 13.124 76.9098L20.2913 75.918C21.549 76.9695 20.9187 77.8645 20.4356 78.2902L22.8768 82.4252L27.9791 93.5881L23.7809 99.6828L22.8306 100.172Z" fill="#FF9C28"/>
<path d="M26.4673 83.1179C27.2033 80.8983 28.5231 78.9176 30.2882 77.3837C32.0534 75.8497 34.1987 74.8191 36.4994 74.3998C36.5085 74.3968 36.5391 74.3846 36.5788 74.3662C36.6032 74.3509 36.6338 74.3357 36.6644 74.3204C36.5727 74.2685 36.4841 74.2226 36.3924 74.1768L36.3912 74.1765L36.3902 74.1759L36.3896 74.1749L36.3893 74.1737C36.3099 74.1004 36.2304 74.027 36.1479 73.9567L35.9157 73.9659C35.9157 73.9659 27.7538 72.6733 26.4673 83.1179Z" fill="#FF9C28"/>
<path d="M131.786 154.503C132.677 153.164 132.149 151.247 130.608 150.222C129.067 149.196 127.096 149.451 126.205 150.79C125.314 152.128 125.841 154.045 127.382 155.07C128.924 156.096 130.895 155.842 131.786 154.503Z" fill="#74B0EA" fill-opacity="0.25"/>
<path d="M113.703 104.529C114.594 103.19 114.067 101.274 112.526 100.248C110.984 99.2228 109.013 99.477 108.122 100.816C107.231 102.155 107.759 104.071 109.3 105.097C110.841 106.122 112.813 105.868 113.703 104.529Z" fill="#74B0EA" fill-opacity="0.25"/>
<path d="M189.321 181.462C190.212 180.123 189.685 178.206 188.143 177.181C186.602 176.155 184.631 176.41 183.74 177.749C182.849 179.087 183.376 181.004 184.918 182.029C186.459 183.055 188.43 182.801 189.321 181.462Z" fill="#74B0EA" fill-opacity="0.25"/>
<path d="M36.4416 20.6921C37.3324 19.3532 36.8051 17.4366 35.2639 16.4112C33.7228 15.3859 31.7513 15.6401 30.8605 16.979C29.9697 18.3179 30.4969 20.2345 32.0381 21.2599C33.5793 22.2853 35.5508 22.0311 36.4416 20.6921Z" fill="#74B0EA" fill-opacity="0.25"/>
<path d="M107.785 4.91088C108.676 3.57196 108.149 1.65535 106.608 0.62999C105.067 -0.395367 103.095 -0.141182 102.204 1.19773C101.313 2.53665 101.841 4.45329 103.382 5.47865C104.923 6.504 106.895 6.2498 107.785 4.91088Z" fill="#74B0EA" fill-opacity="0.25"/>
<path d="M74.0202 137.312C74.911 135.973 74.3838 134.057 72.8426 133.031C71.3014 132.006 69.3299 132.26 68.4391 133.599C67.5483 134.938 68.0756 136.855 69.6167 137.88C71.1579 138.905 73.1294 138.651 74.0202 137.312Z" fill="#74B0EA" fill-opacity="0.25"/>
<path d="M47.1806 76.9862C45.3821 76.981 43.6487 76.3132 42.3116 75.1104C40.9746 73.9077 40.1277 72.2543 39.9328 70.4665L35.7589 31.7019C35.5539 29.7773 36.1206 27.8498 37.3349 26.3425C38.5492 24.8352 40.3118 23.8711 42.236 23.6618L166.168 10.3176C168.093 10.1124 170.02 10.6791 171.528 11.8934C173.035 13.1076 173.999 14.8702 174.209 16.7945L178.383 55.5588C178.588 57.4836 178.021 59.4111 176.807 60.9184C175.592 62.4258 173.83 63.3899 171.905 63.5993L47.9731 76.9435C47.7099 76.9719 47.4453 76.9862 47.1806 76.9862Z" fill="#E6E6E6"/>
<path d="M164.832 12.1641C164.599 12.1642 164.367 12.1767 164.135 12.2016L44.6713 25.0647C43.8359 25.1547 43.0265 25.4082 42.2892 25.811C41.5519 26.2138 40.9011 26.7578 40.374 27.4121C39.847 28.0663 39.4539 28.818 39.2173 29.6242C38.9808 30.4303 38.9053 31.2752 38.9953 32.1105L41.1056 51.7102C41.4468 54.8788 42.4086 57.9491 43.9364 60.7459C45.4641 63.5427 47.5277 66.0112 50.0094 68.0105C52.4912 70.0098 55.3424 71.5006 58.4003 72.398C61.4582 73.2953 64.6629 73.5816 67.8314 73.2404L151.835 64.1954C154.993 63.8553 158.054 62.8963 160.843 61.3733C163.631 59.8502 166.092 57.7928 168.085 55.3186C170.078 52.8444 171.565 50.0019 172.459 46.9533C173.354 43.9047 173.639 40.7097 173.299 37.5508L171.181 17.8776C171.012 16.3106 170.271 14.861 169.099 13.8066C167.928 12.7523 166.408 12.1674 164.832 12.1641Z" fill="white"/>
<path d="M112.839 35.157C111.797 35.5359 110.865 36.1665 110.126 36.9926C109.275 37.976 109.42 37.8844 108.769 37.7702C107.787 37.6744 106.797 37.8352 105.896 38.2367C105.05 38.6756 104.306 39.2878 103.712 40.0333C103.008 41.0491 102.539 43.0361 102.769 43.9886C102.877 44.4412 102.871 44.4516 102.378 45.1927C101.983 45.7198 101.697 46.3206 101.538 46.9597C101.378 47.5988 101.348 48.2634 101.449 48.9143L101.552 49.5905L102.389 49.7215C102.67 49.7749 102.955 49.8052 103.241 49.8123C103.225 49.6972 103.187 49.5863 103.128 49.486C103.007 49.1211 102.942 48.7397 102.937 48.3552C102.862 47.8906 102.921 47.4144 103.106 46.9818C103.409 46.3465 103.842 45.7817 104.377 45.3237C104.622 45.0932 104.621 45.0842 104.469 44.6649C103.782 42.8051 104.574 40.5801 106.225 39.738C106.708 39.4774 107.238 39.3167 107.785 39.2653C108.331 39.2139 108.882 39.2729 109.405 39.4389C109.65 39.5116 109.899 39.5685 110.15 39.6091C110.2 39.6036 110.332 39.4055 110.449 39.1604C110.9 38.3616 111.509 37.6628 112.238 37.1066C112.884 36.6751 113.626 36.4113 114.399 36.339C115.172 36.2667 115.951 36.3881 116.665 36.6923C117.578 37.1289 118.364 37.7929 118.947 38.6207C119.184 39.0204 119.27 39.0986 119.4 39.0356C119.815 38.7418 120.312 38.5829 120.821 38.5805C121.581 38.5914 122.315 38.8633 122.899 39.3504C123.226 39.5964 123.495 39.9106 123.689 40.2713C123.882 40.6319 123.995 41.0303 124.019 41.4388L124.152 42.3051L124.799 42.5538C125.654 42.9237 126.388 43.5281 126.915 44.2971C127.169 44.7372 127.34 45.2205 127.419 45.7227C127.48 46.0546 127.564 46.3818 127.671 46.7018C128.121 46.7453 128.575 46.7315 129.022 46.6607C129.019 46.0996 128.938 45.5416 128.782 45.0025C128.367 43.4119 127.837 42.725 125.946 41.3633C125.783 41.2522 125.644 41.1092 125.537 40.9428C125.431 40.7763 125.36 40.59 125.328 40.3952C125.08 39.5102 124.557 38.7268 123.835 38.1581C122.897 37.392 121.696 37.023 120.49 37.1299C119.858 37.1988 119.736 37.1445 119.255 36.6354C118.203 35.6851 116.891 35.0697 115.488 34.8677C114.596 34.8538 113.707 34.951 112.839 35.157Z" fill="#0046AB"/>
<path d="M71.5921 42.4683L71.6861 43.3292L72.0494 43.2895C72.2156 43.2602 72.3868 43.282 72.5404 43.3519C72.6359 43.4286 72.787 44.547 73.1378 47.7581C73.5172 51.1429 73.6419 52.1068 73.7608 52.2216C74.0014 52.4759 74.4043 52.519 75.4936 52.4L76.5362 52.2861L76.3493 50.5753L75.8968 50.5957L75.4348 50.6172L74.9039 46.2231C74.6109 43.8065 74.331 41.7755 74.2749 41.7042C74.0736 41.4554 73.5146 41.3907 72.5007 41.5014L71.4944 41.6113L71.5921 42.4683Z" fill="#0046AB"/>
<path d="M128.789 36.2123L128.884 37.0828L129.247 37.0431C129.413 37.0139 129.585 37.0357 129.738 37.1056C129.834 37.1822 129.983 38.2886 130.332 41.4831L130.8 45.768L131.059 46.0106C131.317 46.2437 131.347 46.2501 132.527 46.1598L133.738 46.0566L133.549 44.3257L133.143 44.341L132.729 44.3573L132.201 39.9918L131.672 35.6168L131.376 35.3879C131.09 35.158 131.051 35.1526 129.89 35.2504L128.69 35.3428L128.789 36.2123Z" fill="#F77A18"/>
<path d="M59.1473 43.9939C59.1235 44.3638 59.1414 44.7352 59.2005 45.1011L59.3133 46.1341L58.2612 46.249L58.4284 47.7796L59.4805 47.6647L59.7104 49.7689C59.9737 52.1791 60.1163 52.5993 60.8252 53.1507C61.137 53.404 61.4995 53.5874 61.8883 53.6886C62.277 53.7897 62.683 53.8063 63.0786 53.737L64.0106 53.6739L63.8205 51.933L63.4185 51.9769C63.1762 52.0044 62.9309 51.9768 62.7009 51.8961C62.4709 51.8155 62.262 51.6838 62.0901 51.511C61.8813 51.2823 61.8418 51.1028 61.6224 49.3554L61.3763 47.4561L63.2083 47.256L63.0412 45.7269L61.2264 45.9252L60.9861 43.7253L60.0965 43.8225C59.7741 43.839 59.4551 43.8966 59.1473 43.9939Z" fill="#0046AB"/>
<path d="M94.7281 40.1081C94.7043 40.478 94.7222 40.8494 94.7813 41.2153L94.8941 42.2483L93.842 42.3632L94.0092 43.8938L95.0422 43.781L95.3176 45.9479C95.5699 47.9916 95.6093 48.1518 95.8683 48.598C96.44 49.5809 97.4636 50.0022 98.87 49.8485L99.6831 49.7597L99.4949 48.0369L99.036 48.087C98.7822 48.1318 98.521 48.105 98.2816 48.0098C98.0422 47.9145 97.834 47.7546 97.6802 47.5478C97.5066 47.2862 97.4422 46.9628 97.271 45.3954L97.0704 43.5589L98.8878 43.3604L98.7207 41.8303L96.9033 42.0288L96.663 39.829L95.7251 39.9314C95.3868 39.9499 95.0521 40.0092 94.7281 40.1081Z" fill="#0046AB"/>
<path d="M65.8974 45.3564C64.7875 45.7389 64.433 46.2134 64.4843 47.2145L64.5192 47.8883L66.3558 47.6877L66.3265 47.42C66.3114 47.2919 66.3236 47.162 66.3623 47.0389C66.5291 46.7014 67.5309 46.4855 68.1312 46.6618C68.3372 46.7391 68.517 46.8736 68.6494 47.0494C68.7817 47.2252 68.8613 47.4351 68.8786 47.6545L68.9586 48.0327L67.9329 48.2125C66.0707 48.532 64.8593 49.2259 64.4737 50.2166C64.2879 50.6008 64.2497 51.0399 64.3666 51.4503C64.4187 51.9241 64.6205 52.3689 64.9427 52.7201C65.2649 53.0713 65.6908 53.3106 66.1583 53.4033C67.3636 53.7171 68.8785 53.1351 69.3534 52.1734L69.5212 51.8455L69.5546 52.1514C69.591 52.3609 69.6934 52.5532 69.8468 52.7004C70.1044 52.9335 70.1341 52.9399 71.2669 52.8549L72.4273 52.7572L72.2371 51.0162L71.8069 51.0632C71.4436 51.1029 71.3736 51.0815 71.3049 50.8956C71.2733 50.7829 71.1284 49.8115 71.0008 48.7317C70.7798 46.9738 70.7336 46.7284 70.5092 46.3562C70.1404 45.7745 69.5656 45.3534 68.8997 45.1772C67.8981 45.0118 66.8722 45.0731 65.8974 45.3564ZM69.1824 49.6437C69.1851 50.0122 69.1065 50.3767 68.9524 50.7114C68.7983 51.0461 68.5723 51.3427 68.2906 51.5802C67.8658 51.8146 67.3681 51.8793 66.8975 51.7614C66.7082 51.6639 66.5486 51.5175 66.4352 51.3374C66.3506 51.2489 66.2953 51.1366 66.2769 51.0156C66.2585 50.8946 66.2779 50.7709 66.3323 50.6612C66.3947 50.4517 66.5107 50.2621 66.6689 50.1112C67.2278 49.7623 67.8614 49.5506 68.5178 49.4933C69.1281 49.417 69.1579 49.4234 69.1819 49.6433L69.1824 49.6437Z" fill="#0046AB"/>
<path d="M79.3123 43.8514C78.5979 44.129 77.9703 44.5917 77.4939 45.192C76.9945 45.9361 76.7393 46.8172 76.7637 47.713C76.788 48.6088 77.0907 49.4747 77.6297 50.1906C78.1687 50.9065 78.9172 51.4367 79.7714 51.7077C80.6255 51.9787 81.5429 51.977 82.396 51.7028C83.1214 51.4575 83.7899 51.0684 84.3616 50.5589L84.5617 50.3533L84.0881 49.7466C83.8202 49.4195 83.5943 49.1229 83.5731 49.1059C83.5614 49.0878 83.471 49.146 83.3934 49.2319C83.1893 49.4144 82.9711 49.5806 82.7409 49.7288C82.3708 49.9889 81.9323 50.1344 81.4801 50.1471C81.1589 50.2198 80.8251 50.2163 80.5055 50.1369C80.1859 50.0575 79.8893 49.9044 79.6394 49.6898C79.2895 49.4128 79.0322 49.0358 78.9017 48.609L78.8162 48.3571L84.2503 47.7636L84.2671 47.2974C84.3113 45.7539 83.1752 44.1259 81.8096 43.7619C80.9811 43.6018 80.1271 43.6324 79.3123 43.8514ZM81.1608 45.266C81.3826 45.3616 81.5811 45.504 81.7427 45.6835C81.9043 45.8629 82.0253 46.0752 82.0972 46.3058L82.1572 46.5895L80.4672 46.8031C79.312 46.9486 78.7635 46.9795 78.7561 46.9126C78.8252 46.5186 78.9909 46.148 79.2386 45.8339C79.4644 45.5566 79.7687 45.354 80.1116 45.2527C80.4545 45.1514 80.82 45.156 81.1603 45.2661L81.1608 45.266Z" fill="#0046AB"/>
<path d="M88.9921 42.8825C88.448 43.1252 87.9973 43.5378 87.7076 44.0584C87.653 44.1874 87.5778 44.3067 87.485 44.4117C87.4563 44.4148 87.428 44.2438 87.4241 44.0314C87.4365 43.9048 87.4128 43.7774 87.3559 43.6637C87.299 43.55 87.2111 43.4547 87.1024 43.3888L86.7843 43.1333L84.4697 43.3862L84.6474 45.0124L85.0107 44.9727C85.1769 44.9434 85.3481 44.9652 85.5017 45.0351C85.5971 45.1118 85.7167 45.9409 85.9612 48.1789L86.2934 51.2205L88.1777 51.0147L87.9846 48.7807C87.7815 46.5671 87.7784 46.5385 87.9876 45.9734C88.1128 45.5592 88.3593 45.1921 88.6953 44.9194C89.0313 44.6467 89.4413 44.481 89.8724 44.4436C90.0777 44.399 90.2919 44.4196 90.485 44.5027C90.678 44.5858 90.8402 44.7272 90.949 44.907C91.1312 45.1773 91.19 45.5197 91.3979 47.4226C91.471 48.2807 91.5997 49.1332 91.7831 49.9747C91.9839 50.4849 92.3316 50.5635 93.6609 50.4183L94.713 50.3033L94.5262 48.5926L94.0737 48.613L93.6117 48.6344L93.314 46.4409C93.2412 45.5734 93.0827 44.7153 92.8407 43.8791C92.6641 43.5663 92.4253 43.2931 92.1388 43.0764C91.8524 42.8596 91.5246 42.704 91.1756 42.619C90.4376 42.4933 89.679 42.5849 88.9921 42.8825Z" fill="#0046AB"/>
<path d="M137.732 37.4612C137.057 37.7626 136.506 38.2876 136.172 38.9478C136.094 39.1208 136.081 39.0932 136.033 38.7404C136.033 38.6087 136.001 38.479 135.939 38.3626C135.877 38.2461 135.788 38.1465 135.679 38.0724C135.371 37.8255 135.362 37.8265 134.215 37.9518L133.057 38.0782L133.235 39.7044L133.598 39.6648C133.764 39.6356 133.935 39.6573 134.089 39.7273C134.184 39.8039 134.304 40.633 134.548 42.8711L134.88 45.9127L136.774 45.7058L136.574 43.5209C136.359 41.0862 136.388 40.7536 136.931 39.9591C137.423 39.2373 138.31 38.9373 138.845 39.3045C139.244 39.5898 139.388 40.1938 139.687 42.9294L139.952 45.3587L141.846 45.1518L141.651 43.0148C141.437 40.5896 141.478 40.1105 141.992 39.4063C142.74 38.3663 143.983 38.3176 144.324 39.316C144.498 40.1883 144.627 41.0693 144.709 41.9552C144.955 44.2123 144.956 44.2219 145.215 44.4645C145.473 44.6976 145.503 44.704 146.683 44.6137L147.894 44.5105L147.704 42.7696L147.283 42.8155C146.987 42.8479 146.837 42.8133 146.788 42.7168C146.75 42.6339 146.617 41.6805 146.498 40.5902C146.254 38.3521 146.103 37.8554 145.542 37.3341C144.962 36.8069 144.504 36.6838 143.518 36.7914C143.05 36.7852 142.591 36.9267 142.207 37.1959C141.879 37.4349 141.587 37.7212 141.342 38.0455C141.03 38.4568 140.906 38.5677 140.837 38.4683C140.784 38.4114 140.747 38.3424 140.728 38.2674C140.706 38.0661 140.13 37.5776 139.736 37.4272C139.077 37.2555 138.384 37.2673 137.732 37.4612Z" fill="#F77A18"/>
<path d="M149.62 36.2313C149.119 36.3771 148.679 36.6836 148.37 37.1036C148.202 37.3072 148.083 37.5464 148.022 37.803C147.961 38.0596 147.96 38.3267 148.018 38.5839C148.151 39.7986 148.85 40.3515 150.934 40.908C151.951 41.1838 152.437 41.4699 152.515 41.8289C152.613 42.2827 152.266 42.5629 151.52 42.6444C150.819 42.7042 150.119 42.5209 149.537 42.1252C149.258 41.9622 149.007 41.8736 148.974 41.9352C148.951 41.9886 148.782 42.2948 148.613 42.6137L148.298 43.1903L148.587 43.4393C149.238 43.8904 149.995 44.1646 150.784 44.2349C152.438 44.4025 153.938 43.6867 154.417 42.4929C154.507 42.1858 154.531 41.8633 154.488 41.5463C154.479 41.1701 154.348 40.8071 154.114 40.5128C153.682 39.9306 153.231 39.6994 151.743 39.2718C150.113 38.8012 149.81 38.5924 149.952 38.0255C150.059 37.6065 151.096 37.3195 151.681 37.5463C151.775 37.5727 151.859 37.6263 151.922 37.7004C151.985 37.7744 152.025 37.8655 152.037 37.9622L152.1 38.2745L152.993 38.206L153.875 38.1386L153.816 37.5927C153.813 37.3256 153.741 37.0638 153.607 36.8326C153.474 36.6013 153.282 36.4086 153.052 36.2728C151.952 35.8389 150.73 35.8241 149.62 36.2313Z" fill="#F77A18"/>
<path d="M118.083 43.4012C118.217 43.4664 118.322 43.5789 118.379 43.7172C118.409 43.9944 117.37 45.2021 116.755 45.5982C116.193 45.9498 116.109 45.9783 115.057 46.0933C114.005 46.2082 113.916 46.1985 113.301 45.9754C112.617 45.7359 112.012 45.3133 111.551 44.7537C111.293 44.4255 111.28 44.3963 111.424 44.2075C111.568 44.0187 111.555 44.0094 111.136 44.0551C110.889 44.0895 110.653 44.1823 110.448 44.3259C110.243 44.4694 110.076 44.6596 109.959 44.8808C109.771 45.2012 109.846 45.3574 110.073 45.1295C110.204 44.9991 110.255 45.0226 110.559 45.3279C110.745 45.5205 111.183 45.9085 111.534 46.1889C112.377 46.8886 113.431 47.2843 114.526 47.3125C115.621 47.3406 116.694 46.9995 117.571 46.344C118.273 45.7458 118.882 45.0465 119.377 44.269C119.515 44.0218 119.568 43.9773 119.683 44.0614C119.744 44.1146 119.819 44.15 119.898 44.1637C120.195 44.1313 119.405 43.3754 118.936 43.2428C118.697 43.1823 118.45 43.1635 118.204 43.1874L117.794 43.2418L118.083 43.4012Z" fill="#F77A18"/>
<path d="M167.234 19.9693L42.0831 33.7567C41.9527 33.7696 41.8254 33.7527 41.7284 33.7098C41.6314 33.6669 41.5726 33.6014 41.5644 33.5273C41.5562 33.4532 41.5994 33.3764 41.6847 33.3135C41.77 33.2505 41.8906 33.2063 42.0207 33.1904L167.171 19.403C167.302 19.3902 167.429 19.407 167.526 19.4499C167.623 19.4928 167.682 19.5583 167.69 19.6324C167.698 19.7065 167.655 19.7833 167.57 19.8463C167.484 19.9092 167.364 19.9534 167.234 19.9693Z" fill="#F5F5F6"/>
<path d="M46.4981 31.2335C47.4146 31.1325 48.0739 30.2912 47.9706 29.3542C47.8674 28.4173 47.0408 27.7397 46.1243 27.8406C45.2078 27.9416 44.5485 28.783 44.6517 29.7199C44.755 30.6568 45.5816 31.3344 46.4981 31.2335Z" fill="#3F3D56"/>
<path d="M52.2305 30.6016C53.147 30.5007 53.8063 29.6593 53.7031 28.7224C53.5998 27.7855 52.7732 27.1078 51.8567 27.2088C50.9402 27.3098 50.2809 28.1511 50.3842 29.088C50.4874 30.0249 51.314 30.7026 52.2305 30.6016Z" fill="#3F3D56"/>
<path d="M57.9632 29.9708C58.8796 29.8698 59.5389 29.0285 59.4357 28.0915C59.3325 27.1546 58.5059 26.477 57.5894 26.5779C56.6729 26.6789 56.0136 27.5203 56.1168 28.4572C56.22 29.3941 57.0467 30.0718 57.9632 29.9708Z" fill="#3F3D56"/>
<path d="M163.374 15.5337L159.302 15.9823C159.222 15.9928 159.149 16.0345 159.098 16.0984C159.048 16.1622 159.025 16.2432 159.034 16.324C159.043 16.4047 159.083 16.4787 159.146 16.5301C159.209 16.5816 159.289 16.6063 159.37 16.599L163.442 16.1504C163.523 16.1399 163.596 16.0982 163.646 16.0343C163.696 15.9705 163.72 15.8895 163.711 15.8087C163.702 15.728 163.662 15.654 163.599 15.6026C163.536 15.5511 163.455 15.5264 163.374 15.5337Z" fill="#3F3D56"/>
<path d="M163.502 16.6909L159.43 17.1396C159.349 17.1501 159.276 17.1917 159.226 17.2556C159.176 17.3195 159.153 17.4005 159.161 17.4812C159.17 17.5619 159.211 17.6359 159.273 17.6874C159.336 17.7388 159.417 17.7635 159.498 17.7562L163.57 17.3076C163.65 17.2971 163.724 17.2554 163.774 17.1916C163.824 17.1277 163.847 17.0467 163.838 16.966C163.829 16.8852 163.789 16.8112 163.726 16.7598C163.663 16.7084 163.583 16.6837 163.502 16.6909Z" fill="#3F3D56"/>
<path d="M163.629 17.8472L159.557 18.2958C159.477 18.3063 159.403 18.348 159.353 18.4118C159.303 18.4757 159.28 18.5567 159.289 18.6374C159.298 18.7182 159.338 18.7922 159.401 18.8436C159.464 18.895 159.544 18.9198 159.625 18.9125L163.697 18.4639C163.778 18.4534 163.851 18.4117 163.901 18.3478C163.951 18.2839 163.974 18.203 163.966 18.1222C163.957 18.0415 163.916 17.9675 163.854 17.916C163.791 17.8646 163.71 17.8399 163.629 17.8472Z" fill="#3F3D56"/>
</g>
<defs>
<clipPath id="clip0_57255_98429">
<rect width="240.358" height="207" fill="white" transform="translate(0.820801)"/>
</clipPath>
</defs>
</svg>
