<svg viewBox="0 0 298 207" fill="currentColor" xmlns="http://www.w3.org/2000/svg">
<g clip-path="url(#clip0_57255_99644)">
<path d="M45.6096 45.9295C55.9202 41.5416 68.7621 44.3217 81.3036 46.2512C81.4203 43.9146 82.8349 41.0708 81.3531 39.4406C79.5528 37.4601 79.7185 35.3791 80.8019 33.2862C83.5721 27.9342 79.6031 22.2394 75.5956 17.5042C74.6924 16.4394 73.5508 15.6027 72.2637 15.0621C70.9766 14.5216 69.5802 14.2924 68.1879 14.3933L60.7644 14.9238C58.958 15.0529 57.234 15.731 55.8232 16.8672C54.4124 18.0034 53.3821 19.5436 52.8701 21.2817C51.0975 23.6939 50.1488 26.0993 50.7461 28.4922C48.0911 30.3076 47.645 32.4991 48.8381 34.9695C49.8497 36.525 49.839 38.0391 48.792 39.5113C47.4171 41.3883 46.364 43.4811 45.676 45.7041L45.6096 45.9295Z" fill="#2F2E41"/>
<path d="M290.631 178.949H80.4891C78.6204 178.949 76.8282 178.206 75.5068 176.884C74.1854 175.561 73.443 173.768 73.443 171.898C149.619 163.04 224.364 163.04 297.677 171.898C297.677 173.768 296.934 175.561 295.613 176.884C294.292 178.206 292.499 178.949 290.631 178.949Z" fill="#2F2E41"/>
<path d="M297.677 172.313L73.443 171.898L99.4309 128.146L99.5552 127.938V31.5137C99.5551 30.3433 99.7855 29.1844 100.233 28.1031C100.681 27.0218 101.337 26.0392 102.164 25.2117C102.991 24.3841 103.973 23.7276 105.054 23.2798C106.134 22.8319 107.293 22.6015 108.462 22.6016H261.414C262.584 22.6015 263.742 22.8319 264.823 23.2798C265.903 23.7276 266.885 24.3841 267.712 25.2117C268.539 26.0392 269.196 27.0218 269.643 28.1031C270.091 29.1844 270.321 30.3433 270.321 31.5137V128.602L297.677 172.313Z" fill="#3F3D56"/>
<path d="M108.225 29C107.455 29.0009 106.718 29.307 106.174 29.8512C105.63 30.3954 105.324 31.1333 105.323 31.903V119.822C105.324 120.592 105.63 121.329 106.174 121.874C106.718 122.418 107.456 122.724 108.225 122.725H262.826C263.595 122.724 264.332 122.418 264.876 121.874C265.42 121.329 265.726 120.592 265.727 119.822V31.903C265.726 31.1333 265.42 30.3955 264.876 29.8513C264.332 29.307 263.595 29.0009 262.826 29H108.225Z" fill="white"/>
<path d="M194.566 67.1066C193.183 67.4451 191.905 68.1203 190.846 69.0721C189.622 70.2093 189.82 70.1125 189.004 69.8758C187.764 69.6166 186.477 69.6838 185.271 70.0708C184.129 70.5133 183.093 71.1912 182.231 72.0605C181.19 73.2594 180.314 75.7315 180.475 76.9799C180.549 77.5728 180.54 77.5852 179.808 78.463C179.23 79.0809 178.781 79.8082 178.488 80.6022C178.195 81.3961 178.064 82.2405 178.102 83.0859L178.14 83.9636L179.19 84.2478C179.542 84.3551 179.901 84.4336 180.266 84.4825C180.261 84.3333 180.228 84.1864 180.167 84.0501C180.063 83.5672 180.033 83.0712 180.08 82.5794C180.05 81.9757 180.191 81.3757 180.488 80.8492C180.964 80.0801 181.595 79.4192 182.342 78.909C182.688 78.6489 182.688 78.6372 182.552 78.0806C181.934 75.6099 183.256 72.8791 185.481 72.0338C186.134 71.7684 186.834 71.6372 187.539 71.6478C188.244 71.6584 188.939 71.8107 189.584 72.0956C189.886 72.2225 190.196 72.3298 190.511 72.4168C190.576 72.4168 190.772 72.182 190.956 71.8856C191.643 70.9283 192.518 70.1209 193.527 69.5123C194.411 69.0514 195.397 68.8181 196.394 68.8336C197.391 68.849 198.368 69.1127 199.238 69.6008C200.343 70.2857 201.254 71.2433 201.883 72.3817C202.13 72.9252 202.229 73.0371 202.403 72.9746C202.975 72.6575 203.631 72.5238 204.281 72.5917C205.251 72.7118 206.15 73.1612 206.828 73.8648C207.211 74.2245 207.511 74.6634 207.708 75.1509C207.905 75.6384 207.993 76.1629 207.967 76.6879L208.016 77.8128L208.807 78.2204C209.848 78.8123 210.701 79.6864 211.266 80.7419C211.53 81.3394 211.681 81.9804 211.711 82.6327C211.743 83.065 211.804 83.4946 211.897 83.9181C212.465 84.0365 213.047 84.0821 213.627 84.054C213.701 83.3371 213.676 82.6133 213.553 81.9032C213.244 79.8141 212.662 78.8628 210.438 76.8602C210.245 76.6957 210.087 76.4936 209.975 76.2662C209.862 76.0389 209.797 75.791 209.783 75.5377C209.59 74.3729 209.032 73.2997 208.189 72.4727C207.098 71.3635 205.617 70.7249 204.061 70.6931C203.245 70.6931 203.097 70.6066 202.553 69.8894C201.342 68.5291 199.753 67.5603 197.989 67.1066C196.853 66.9645 195.703 66.9645 194.566 67.1066Z" fill="#1B68B3"/>
<path d="M140.874 70.69L140.874 71.8025L141.343 71.8025C141.56 71.7883 141.775 71.84 141.962 71.9507C142.073 72.0619 142.11 73.5112 142.11 77.6608C142.122 82.0359 142.147 83.2843 142.283 83.4475C142.555 83.8058 143.063 83.917 144.471 83.917L145.818 83.917L145.818 81.7063L145.237 81.6692L144.644 81.6322L144.579 75.9468C144.542 72.82 144.468 70.1874 144.407 70.0885C144.184 69.7426 143.479 69.582 142.169 69.582L140.869 69.582L140.874 70.69Z" fill="#1B68B3"/>
<path d="M214.787 70.6799L214.787 71.8047L215.256 71.8047C215.472 71.7905 215.688 71.8422 215.874 71.9529C215.986 72.0641 216.023 73.4978 216.023 77.6259L216.023 83.163L216.319 83.5089C216.616 83.8425 216.653 83.8548 218.173 83.9043L219.733 83.9413L219.733 81.7046L219.213 81.6676L218.682 81.6305L218.617 75.9822L218.552 70.3216L218.206 69.988C217.873 69.6545 217.823 69.6421 216.327 69.6051L214.782 69.5557L214.787 70.6799Z" fill="#F77A18"/>
<path d="M124.769 70.9022C124.687 71.3712 124.658 71.848 124.683 72.3235L124.683 73.6584L123.323 73.6584L123.323 75.6363L124.683 75.6363L124.683 78.3554C124.683 81.4699 124.806 82.0264 125.635 82.8294C125.998 83.1964 126.435 83.4812 126.917 83.6646C127.4 83.848 127.916 83.9257 128.431 83.8925L129.63 83.9419L129.63 81.6922L129.11 81.6922C128.797 81.6936 128.488 81.6241 128.205 81.489C127.923 81.3539 127.674 81.1566 127.479 80.912C127.244 80.5908 127.219 80.3561 127.182 78.094L127.133 75.6343L129.5 75.6343L129.5 73.6584L127.155 73.6584L127.155 70.8157L126.005 70.8157C125.591 70.7918 125.176 70.8209 124.769 70.9022Z" fill="#1B68B3"/>
<path d="M170.748 70.903C170.666 71.3721 170.637 71.8488 170.662 72.3243L170.662 73.6592L169.302 73.6592L169.302 75.6371L170.637 75.6371L170.686 78.4427C170.723 81.0877 170.751 81.2977 171.02 81.9037C171.613 83.2386 172.861 83.9193 174.679 83.9193L175.729 83.9193L175.729 81.6931L175.136 81.6931C174.806 81.7148 174.476 81.6442 174.184 81.4892C173.891 81.3341 173.648 81.1008 173.48 80.8153C173.295 80.457 173.258 80.0351 173.258 78.0097L173.258 75.6365L175.606 75.6365L175.606 73.6592L173.258 73.6592L173.258 70.8165L172.046 70.8165C171.611 70.7929 171.176 70.822 170.748 70.903Z" fill="#1B68B3"/>
<path d="M133.199 73.5841C131.728 73.9176 131.21 74.4742 131.135 75.7596L131.086 76.625L133.459 76.625L133.459 76.2791C133.458 76.1134 133.492 75.9492 133.558 75.7973C133.818 75.3897 135.128 75.2538 135.87 75.5626C136.122 75.6901 136.333 75.8868 136.477 76.1298C136.622 76.3728 136.694 76.6519 136.686 76.9345L136.735 77.4287L135.4 77.5152C132.977 77.6634 131.334 78.3806 130.703 79.5919C130.412 80.0566 130.302 80.6119 130.394 81.1524C130.395 81.7646 130.59 82.3608 130.953 82.8542C131.315 83.3477 131.826 83.7127 132.41 83.8962C133.905 84.4651 135.921 83.9333 136.661 82.7714L136.922 82.3761L136.922 82.7714C136.939 83.0439 137.043 83.3038 137.218 83.5132C137.515 83.8468 137.552 83.8592 139.01 83.9086L140.505 83.9456L140.505 81.6959L139.95 81.6959C139.48 81.6959 139.394 81.6589 139.332 81.4118C139.307 81.2636 139.258 80.0028 139.245 78.6062C139.208 76.3305 139.184 76.0106 138.949 75.5041C138.559 74.7097 137.884 74.0918 137.058 73.7739C135.802 73.423 134.483 73.3582 133.199 73.5841ZM136.796 79.5171C136.748 79.988 136.597 80.4426 136.353 80.8485C136.11 81.2543 135.78 81.6016 135.387 81.8656C134.812 82.1056 134.167 82.1189 133.583 81.9027C133.355 81.7518 133.171 81.5426 133.052 81.2967C132.956 81.172 132.901 81.0208 132.894 80.8637C132.888 80.7066 132.93 80.5513 133.015 80.419C133.123 80.1601 133.298 79.9342 133.521 79.7635C134.283 79.396 135.122 79.2139 135.968 79.2323C136.758 79.22 136.795 79.2323 136.795 79.5165L136.796 79.5171Z" fill="#1B68B3"/>
<path d="M150.54 73.5334C149.589 73.7883 148.723 74.2916 148.031 74.9918C147.289 75.8724 146.84 76.962 146.746 78.1092C146.653 79.2565 146.918 80.4046 147.507 81.3939C148.095 82.3833 148.977 83.1649 150.03 83.6301C151.083 84.0953 152.255 84.2211 153.382 83.9899C154.343 83.7777 155.251 83.3742 156.052 82.8033L156.336 82.5686L155.816 81.7279C155.52 81.2727 155.273 80.8625 155.248 80.8378C155.235 80.813 155.112 80.8748 155.001 80.9736C154.715 81.1783 154.413 81.36 154.098 81.5172C153.589 81.7977 153.009 81.9223 152.43 81.8755C152.01 81.9235 151.584 81.8725 151.187 81.7265C150.79 81.5805 150.432 81.3436 150.143 81.0348C149.735 80.6322 149.459 80.1149 149.352 79.5517L149.278 79.2181L156.3 79.2181L156.386 78.6251C156.658 76.6602 155.434 74.4229 153.741 73.7675C152.706 73.4475 151.611 73.3675 150.54 73.5334ZM152.703 75.5978C152.973 75.7508 153.206 75.9603 153.388 76.2121C153.569 76.4638 153.694 76.7517 153.754 77.0562L153.791 77.4268L151.603 77.4639C150.107 77.4886 149.403 77.4515 149.403 77.365C149.546 76.8716 149.809 76.4214 150.169 76.0549C150.496 75.7323 150.913 75.516 151.365 75.4345C151.817 75.3529 152.283 75.4098 152.702 75.5978L152.703 75.5978Z" fill="#1B68B3"/>
<path d="M163.036 73.6455C162.308 73.8795 161.674 74.3436 161.232 74.968C161.144 75.1251 161.031 75.2669 160.898 75.388C160.861 75.388 160.849 75.1656 160.874 74.8938C160.907 74.734 160.895 74.5679 160.838 74.4148C160.781 74.2617 160.682 74.1278 160.552 74.0284L160.182 73.6578L157.191 73.6578L157.191 75.7593L157.66 75.7593C157.877 75.7451 158.092 75.7968 158.279 75.9075C158.39 76.0187 158.427 77.0941 158.427 79.9862L158.427 83.9167L160.862 83.9167L160.927 81.0369C160.976 78.1819 160.976 78.1448 161.322 77.4524C161.54 76.9409 161.906 76.5065 162.373 76.2052C162.84 75.9038 163.387 75.7494 163.943 75.7619C164.211 75.7335 164.482 75.7897 164.717 75.9227C164.952 76.0558 165.139 76.2589 165.253 76.5037C165.448 76.8744 165.475 77.3197 165.475 79.7788C165.449 80.8848 165.494 81.9914 165.611 83.0916C165.796 83.771 166.229 83.9199 167.947 83.9199L169.307 83.9199L169.307 81.7092L168.726 81.6722L168.133 81.6351L168.059 78.7924C168.087 77.6745 168.004 76.5566 167.812 75.455C167.63 75.0309 167.363 74.6487 167.028 74.332C166.692 74.0153 166.295 73.7708 165.861 73.6136C164.936 73.3501 163.955 73.3612 163.036 73.6455Z" fill="#1B68B3"/>
<path d="M226.033 73.5219C225.129 73.8126 224.352 74.4062 223.834 75.2026C223.71 75.4126 223.697 75.3756 223.686 74.9185C223.704 74.7502 223.68 74.5801 223.618 74.4228C223.555 74.2655 223.455 74.1259 223.327 74.016C222.968 73.6578 222.956 73.6578 221.473 73.6578L219.978 73.6578L219.978 75.7592L220.446 75.7592C220.663 75.745 220.878 75.7967 221.065 75.9074C221.176 76.0186 221.213 77.0941 221.213 79.9861L221.213 83.9166L223.66 83.9166L223.71 81.0986C223.775 77.9595 223.858 77.5388 224.662 76.5999C225.391 75.7469 226.565 75.4874 227.197 76.031C227.667 76.451 227.766 77.2423 227.766 80.7774L227.766 83.9166L230.214 83.9166L230.262 81.1604C230.327 78.0336 230.448 77.4276 231.201 76.5999C232.302 75.3762 233.896 75.4874 234.192 76.8099C234.293 77.9483 234.335 79.0912 234.316 80.2339C234.316 83.1507 234.316 83.163 234.612 83.5089C234.909 83.8425 234.946 83.8548 236.466 83.9042L238.026 83.9413L238.026 81.6916L237.483 81.6916C237.1 81.6916 236.914 81.6266 236.865 81.4966C236.828 81.3854 236.791 80.1493 236.791 78.7404C236.791 75.8483 236.667 75.1929 236.024 74.449C235.357 73.6948 234.789 73.4738 233.516 73.4738C232.918 73.4004 232.313 73.5171 231.785 73.8073C231.332 74.0667 230.92 74.3916 230.561 74.7715C230.106 75.2533 229.931 75.3775 229.857 75.241C229.798 75.161 229.76 75.0676 229.746 74.9692C229.746 74.7091 229.079 74.005 228.597 73.7579C227.78 73.4469 226.893 73.3653 226.033 73.5219Z" fill="#F77A18"/>
<path d="M241.385 73.6084C240.725 73.7247 240.121 74.0549 239.667 74.548C239.425 74.7845 239.24 75.0735 239.126 75.3926C239.012 75.7118 238.973 76.0527 239.012 76.3893C239.012 77.9589 239.828 78.7625 242.411 79.7638C243.672 80.258 244.252 80.691 244.302 81.1605C244.363 81.7535 243.881 82.063 242.917 82.063C242.014 82.0416 241.145 81.7098 240.458 81.1234C240.124 80.8763 239.816 80.7281 239.766 80.8022C239.729 80.8672 239.469 81.2346 239.209 81.6182L238.727 82.3107L239.061 82.6689C239.829 83.3358 240.758 83.7916 241.756 83.9914C243.844 84.4362 245.86 83.7314 246.638 82.2736C246.796 81.894 246.871 81.4855 246.861 81.0747C246.902 80.5932 246.785 80.1113 246.527 79.7027C246.057 78.8991 245.513 78.5408 243.672 77.7872C241.656 76.9589 241.299 76.6501 241.559 75.9459C241.754 75.4257 243.119 75.204 243.835 75.5753C243.951 75.6221 244.05 75.7022 244.121 75.8055C244.191 75.9089 244.229 76.0308 244.23 76.1559L244.268 76.5636L245.417 76.6006L246.554 76.6377L246.554 75.9322C246.587 75.5908 246.532 75.2464 246.394 74.9325C246.255 74.6185 246.038 74.3457 245.763 74.1403C244.418 73.4326 242.86 73.2433 241.385 73.6084Z" fill="#F77A18"/>
<path d="M200.113 78.3656C200.275 78.4675 200.394 78.6259 200.446 78.8103C200.446 79.1686 198.951 80.5658 198.11 80.9859C197.343 81.3565 197.232 81.3812 195.873 81.3812C194.513 81.3812 194.402 81.3565 193.648 80.9859C192.807 80.5845 192.093 79.9605 191.583 79.1816C191.299 78.7264 191.287 78.6874 191.497 78.4663C191.707 78.2453 191.692 78.2316 191.151 78.2316C190.83 78.241 190.515 78.3265 190.234 78.4813C189.952 78.6361 189.712 78.8556 189.532 79.1217C189.248 79.5047 189.322 79.7147 189.643 79.4553C189.828 79.307 189.89 79.3441 190.236 79.7765C190.446 80.0483 190.951 80.6048 191.361 81.0119C192.34 82.0229 193.63 82.6753 195.025 82.864C196.419 83.0527 197.837 82.7668 199.049 82.0522C200.028 81.3861 200.903 80.578 201.644 79.6542C201.854 79.3578 201.929 79.3083 202.064 79.4319C202.135 79.5083 202.225 79.5639 202.325 79.5925C202.708 79.5925 201.804 78.517 201.224 78.2823C200.928 78.1717 200.614 78.1132 200.297 78.1094L199.766 78.1217L200.113 78.3656Z" fill="#F77A18"/>
<path d="M108.907 134.159C108.67 134.16 108.437 134.228 108.237 134.356C108.037 134.485 107.877 134.667 107.778 134.883L99.7699 152.301C99.6827 152.491 99.6446 152.699 99.659 152.907C99.6734 153.115 99.7399 153.317 99.8524 153.492C99.9649 153.668 100.12 153.813 100.303 153.913C100.486 154.013 100.691 154.065 100.899 154.065H269.297C269.509 154.065 269.717 154.011 269.902 153.908C270.087 153.805 270.243 153.656 270.354 153.475C270.466 153.295 270.529 153.089 270.539 152.877C270.548 152.665 270.503 152.454 270.409 152.265L261.704 134.847C261.602 134.64 261.443 134.466 261.247 134.344C261.05 134.223 260.824 134.159 260.593 134.159H108.907Z" fill="#2F2E41"/>
<path d="M184.938 27.3711C185.968 27.3711 186.803 26.5355 186.803 25.5049C186.803 24.4742 185.968 23.6387 184.938 23.6387C183.908 23.6387 183.073 24.4742 183.073 25.5049C183.073 26.5355 183.908 27.3711 184.938 27.3711Z" fill="white"/>
<path d="M168.386 157.383C168.113 157.383 167.847 157.473 167.63 157.64C167.413 157.806 167.257 158.039 167.186 158.303L165.177 165.768C165.127 165.953 165.121 166.146 165.158 166.333C165.195 166.521 165.274 166.697 165.39 166.848C165.507 167 165.656 167.123 165.827 167.207C165.998 167.292 166.187 167.336 166.377 167.336H204.577C204.776 167.336 204.971 167.288 205.147 167.198C205.323 167.107 205.475 166.975 205.59 166.813C205.705 166.652 205.78 166.465 205.808 166.269C205.836 166.072 205.817 165.872 205.752 165.685L203.17 158.22C203.085 157.976 202.926 157.764 202.716 157.614C202.505 157.464 202.253 157.383 201.995 157.383H168.386Z" fill="#2F2E41"/>
<path d="M270.321 126.487V128.146H99.4309L99.5595 127.939V126.487H270.321Z" fill="#2F2E41"/>
<path d="M265.554 58.0597C281.578 58.0597 294.568 45.0626 294.568 29.0298C294.568 12.9971 281.578 0 265.554 0C249.531 0 236.541 12.9971 236.541 29.0298C236.541 45.0626 249.531 58.0597 265.554 58.0597Z" fill="#FF9C28"/>
<path d="M277.574 41.6783H253.535C253.095 41.6779 252.674 41.503 252.363 41.192C252.052 40.881 251.877 40.4593 251.877 40.0195V25.5045C251.877 25.0647 252.052 24.6431 252.363 24.3321C252.674 24.0211 253.095 23.8462 253.535 23.8457H277.574C278.014 23.8462 278.435 24.0211 278.746 24.3321C279.057 24.6431 279.232 25.0647 279.232 25.5045V40.0195C279.232 40.4593 279.057 40.881 278.746 41.192C278.435 41.503 278.014 41.6779 277.574 41.6783ZM253.535 25.5046V40.0195H277.576L277.574 25.5045L253.535 25.5046Z" fill="white"/>
<path d="M273.015 25.5048H258.094V18.8694C258.094 14.0634 261.232 10.5752 265.555 10.5752C269.877 10.5752 273.015 14.0634 273.015 18.8694L273.015 25.5048ZM259.752 23.846H271.357V18.8694C271.357 14.9627 268.971 12.2341 265.555 12.2341C262.138 12.2341 259.752 14.9627 259.752 18.8694L259.752 23.846Z" fill="white"/>
<path d="M265.555 34.0062C266.47 34.0062 267.212 33.2635 267.212 32.3473C267.212 31.4312 266.47 30.6885 265.555 30.6885C264.639 30.6885 263.897 31.4312 263.897 32.3473C263.897 33.2635 264.639 34.0062 265.555 34.0062Z" fill="white"/>
<path d="M99.1369 78.1608L77.0498 89.9099L76.7703 80.119C83.9793 78.9149 90.838 76.8184 97.1798 73.4053L99.4898 67.695C99.7415 67.0727 100.151 66.5267 100.677 66.1105C101.203 65.6942 101.829 65.4221 102.492 65.3207C103.155 65.2194 103.833 65.2924 104.46 65.5325C105.086 65.7726 105.64 66.1716 106.066 66.6903C106.689 67.4492 107 68.4167 106.937 69.3968C106.873 70.3768 106.44 71.2962 105.725 71.9687L99.1369 78.1608Z" fill="#FFB8B8"/>
<path d="M45.1695 145.996C45.0083 145.405 44.9741 144.786 45.0691 144.181C45.164 143.575 45.386 142.997 45.7204 142.483L50.5723 135.033C51.7199 133.271 53.4807 131.998 55.5133 131.461C57.5458 130.925 59.7051 131.163 61.5721 132.129C59.533 135.602 59.8173 138.649 62.2763 141.296C58.4589 143.161 54.9307 145.568 51.8011 148.442C51.2297 148.831 50.5736 149.079 49.8873 149.163C49.201 149.248 48.5044 149.167 47.8556 148.928C47.2068 148.689 46.6245 148.298 46.1573 147.788C45.69 147.278 45.3514 146.664 45.1695 145.996Z" fill="#2F2E41"/>
<path d="M100.143 136.254C99.4087 137.479 98.3723 138.494 97.1332 139.202C95.894 139.91 94.4938 140.288 93.0668 140.298L60.8341 140.543L59.4362 132.43L73.6949 128.234L61.6728 119.003L74.8132 103.617L98.6802 125.875C100.075 127.176 100.982 128.916 101.248 130.805C101.514 132.695 101.124 134.618 100.143 136.254Z" fill="#2F2E41"/>
<path d="M55.8016 191.735H48.2529C41.4752 145.251 34.5762 98.6368 54.9629 81.2383L79.007 85.1546L75.9316 105.576L62.5116 120.961L55.8016 191.735Z" fill="#2F2E41"/>
<path d="M62.4373 202.266C61.8464 202.427 61.228 202.461 60.6229 202.366C60.0177 202.271 59.4396 202.049 58.9264 201.715L50.73 200.612C48.9687 199.464 47.6965 197.702 47.1602 195.669C46.6238 193.635 46.8616 191.475 47.8273 189.607C51.2984 191.647 54.3433 191.362 56.9892 188.901C58.8588 192.678 61.9392 192.448 64.8811 195.63C65.2707 196.202 65.518 196.858 65.6026 197.545C65.6873 198.232 65.6067 198.929 65.3676 199.578C65.1285 200.227 64.7378 200.81 64.2281 201.277C63.7184 201.745 63.1044 202.084 62.4373 202.266Z" fill="#2F2E41"/>
<path d="M73.6948 50.1868L59.7157 46.8299C62.0374 42.0749 62.2286 36.7839 61.1136 31.1645L70.6194 30.8848C70.9173 37.8727 71.8184 44.4012 73.6948 50.1868Z" fill="#FFB8B8"/>
<path d="M77.5369 93.577C67.3606 100.515 60.1703 93.8144 54.6833 83.4758C55.4458 77.1495 54.2112 69.5788 51.9247 61.3527C50.9078 57.7243 51.2875 53.8464 52.9887 50.4845C54.6899 47.1226 57.589 44.521 61.1137 43.1934L73.1357 48.2287C83.3439 56.5541 85.3531 65.5722 81.5232 75.0836L77.5369 93.577Z" fill="#1B68B3"/>
<path d="M48.2528 57.1802L37.0695 63.0548L56.9199 74.8038L59.6819 81.6207C59.8663 82.0757 59.9561 82.5635 59.9459 83.0543C59.9357 83.5452 59.8256 84.0288 59.6225 84.4757C59.4194 84.9226 59.1274 85.3235 58.7644 85.6538C58.4014 85.9841 57.975 86.237 57.5111 86.3971C56.9838 86.579 56.4216 86.6363 55.8684 86.5646C55.3153 86.4928 54.7862 86.2939 54.3228 85.9834C53.8593 85.6729 53.4739 85.2592 53.1969 84.7749C52.9198 84.2905 52.7586 83.7485 52.7259 83.1914L52.4466 78.4404L27.217 70.11C26.3669 69.8293 25.5919 69.3588 24.9505 68.734C24.3091 68.1092 23.8182 67.3466 23.515 66.5039C23.073 65.2756 23.0505 63.9353 23.451 62.6928C23.8515 61.4503 24.6524 60.3757 25.7283 59.6371L46.0162 45.7109L48.2528 57.1802Z" fill="#FFB8B8"/>
<path d="M59.4362 58.2994C54.7721 56.2542 50.5308 58.4759 45.1775 60.2575L44.3387 45.4314C49.6544 42.5966 54.7225 41.8323 59.4362 44.0327L59.4362 58.2994Z" fill="#1B68B3"/>
<path d="M65.0155 38.2294C69.9447 38.2294 73.9406 34.2313 73.9406 29.2993C73.9406 24.3673 69.9447 20.3691 65.0155 20.3691C60.0863 20.3691 56.0903 24.3673 56.0903 29.2993C56.0903 34.2313 60.0863 38.2294 65.0155 38.2294Z" fill="#FFB8B8"/>
<path d="M75.6929 28.1722C66.8562 29.0382 60.1228 27.5922 55.8193 23.4749V20.1592H74.9429L75.6929 28.1722Z" fill="#2F2E41"/>
</g>
<defs>
<clipPath id="clip0_57255_99644">
<rect width="297.353" height="207" fill="white" transform="translate(0.323364)"/>
</clipPath>
</defs>
</svg>
