<svg viewBox="0 0 32 32" fill="currentColor" xmlns="http://www.w3.org/2000/svg">
<path d="M8.25208 20.7587V11.2412H12.2751C13.2921 11.2412 14.0796 11.4842 14.6376 11.9702C15.1956 12.4472 15.4746 13.1177 15.4746 13.9818C15.4746 14.5488 15.3486 15.0348 15.0966 15.4398C14.8446 15.8448 14.4891 16.1553 14.0301 16.3713C13.5711 16.5782 13.0311 16.6818 12.4101 16.6818L12.6261 16.4658H12.9906C13.3596 16.4658 13.6881 16.5602 13.9761 16.7492C14.2731 16.9382 14.5161 17.2397 14.7051 17.6537L16.0686 20.7587H14.5296L13.1796 17.6403C13.0446 17.2713 12.8331 17.0327 12.5451 16.9247C12.2661 16.8168 11.9196 16.7628 11.5056 16.7628H9.65608V20.7587H8.25208ZM9.65608 15.6962H12.0456C12.7206 15.6962 13.2291 15.5522 13.5711 15.2642C13.9221 14.9763 14.0976 14.5623 14.0976 14.0223C14.0976 13.4732 13.9221 13.0592 13.5711 12.7802C13.2291 12.5012 12.7206 12.3617 12.0456 12.3617H9.65608V15.6962Z" fill="currentColor"/>
<path d="M20.9365 10H19.8115V11.6805C19.7389 11.6828 19.6662 11.6875 19.5936 11.6945C19.0498 11.7391 18.4873 11.868 18.0186 12.1656C17.5311 12.475 17.1748 12.9531 17.0459 13.6141C16.9545 14.0898 16.999 14.5234 17.1889 14.9078C17.3764 15.2828 17.6787 15.5547 18.0045 15.7563C18.6186 16.1359 19.4553 16.3492 20.1819 16.5344L20.2358 16.5484C21.0303 16.75 21.703 16.9258 22.1506 17.2047C22.3615 17.3359 22.4858 17.4672 22.5514 17.6008C22.6147 17.725 22.6498 17.9008 22.5983 18.175C22.5303 18.5195 22.2842 18.8055 21.7897 18.993C21.2834 19.1852 20.5709 19.2484 19.7365 19.1313C19.2069 19.0539 18.2881 18.8336 17.7912 18.6133L17.278 18.3859L16.8186 19.4102L17.3319 19.6375C17.96 19.9188 18.9936 20.1578 19.5772 20.2422H19.5795C19.6569 20.2539 19.7342 20.2633 19.8115 20.2703V22H20.9365V20.2984C21.3889 20.268 21.8131 20.1836 22.1905 20.0406C22.9381 19.757 23.5428 19.2156 23.7022 18.3859C23.7936 17.9102 23.749 17.4766 23.5592 17.0922C23.3717 16.7172 23.0694 16.4453 22.7436 16.2437C22.1295 15.8641 21.2928 15.6508 20.5662 15.4656L20.5123 15.4516C19.7178 15.25 19.0451 15.0742 18.5975 14.7953C18.3865 14.6641 18.2623 14.5328 18.1967 14.3992C18.1334 14.275 18.0983 14.0992 18.1498 13.825C18.2178 13.4781 18.3865 13.2625 18.6233 13.1125C18.8787 12.9508 19.2397 12.85 19.685 12.8148C20.5826 12.7422 21.6326 12.9391 22.3545 13.1078L22.903 13.2367L23.1608 12.1422L22.6123 12.0156C22.174 11.9125 21.5764 11.7883 20.9365 11.7227V10Z" fill="currentColor"/>
</svg>
