<svg viewBox="0 0 32 32" fill="currentColor" xmlns="http://www.w3.org/2000/svg">
<path d="M13.016 15.5714C13.0053 15.7134 12.9999 15.8554 12.9999 16C12.9999 16.1446 13.0053 16.2866 13.016 16.4286H11.7142V17.7143H13.2491C13.9857 20.192 16.2812 22 18.9999 22H19.6428H20.2857V20.7143H19.6428H18.9999C17.0017 20.7143 15.2928 19.4714 14.6071 17.7143H19.4285V16.4286H14.3044C14.291 16.2866 14.2857 16.1446 14.2857 16C14.2857 15.8554 14.291 15.7134 14.3044 15.5714H19.4285V14.2857H14.6071C15.2928 12.5286 17.0017 11.2857 18.9999 11.2857H19.6428H20.2857V10H19.6428H18.9999C16.2812 10 13.9857 11.808 13.2491 14.2857H11.7142V15.5714H13.016Z" fill="currentColor"/>
</svg>
