<svg viewBox="0 0 32 32" fill="currentColor" xmlns="http://www.w3.org/2000/svg">
<path d="M5.18103 19.9656V12.0344H6.35103V15.4544H10.806V12.0344H11.976V19.9656H10.806V16.4331H6.35103V19.9656H5.18103Z" fill="currentColor"/>
<path d="M13.8383 19.9656V12.0344H15.0083V15.6006H15.0308L18.6758 12.0344H20.127L15.852 16.1519L15.8633 15.6006L20.4195 19.9656H18.9233L15.0308 16.2644H15.0083V19.9656H13.8383Z" fill="currentColor"/>
<path d="M24.4761 11H23.5386V12.4004C23.4781 12.4023 23.4176 12.4062 23.357 12.4121C22.9039 12.4492 22.4351 12.5566 22.0445 12.8047C21.6383 13.0625 21.3414 13.4609 21.234 14.0117C21.1578 14.4082 21.1949 14.7695 21.3531 15.0898C21.5093 15.4023 21.7613 15.6289 22.0328 15.7969C22.5445 16.1133 23.2418 16.291 23.8472 16.4453L23.8922 16.457C24.5543 16.625 25.1148 16.7715 25.4879 17.0039C25.6636 17.1133 25.7672 17.2227 25.8218 17.334C25.8746 17.4375 25.9039 17.584 25.8609 17.8125C25.8043 18.0996 25.5992 18.3379 25.1871 18.4941C24.7652 18.6543 24.1715 18.707 23.4761 18.6094C23.0347 18.5449 22.2691 18.3613 21.8551 18.1777L21.4273 17.9883L21.0445 18.8418L21.4722 19.0312C21.9957 19.2656 22.857 19.4648 23.3433 19.5352H23.3453C23.4097 19.5449 23.4742 19.5527 23.5386 19.5586V21H24.4761V19.582C24.8531 19.5566 25.2066 19.4863 25.5211 19.3672C26.1441 19.1309 26.648 18.6797 26.7808 17.9883C26.857 17.5918 26.8199 17.2305 26.6617 16.9102C26.5054 16.5977 26.2535 16.3711 25.982 16.2031C25.4703 15.8867 24.773 15.709 24.1676 15.5547L24.1226 15.543C23.4605 15.375 22.9 15.2285 22.5269 14.9961C22.3511 14.8867 22.2476 14.7773 22.1929 14.666C22.1402 14.5625 22.1109 14.416 22.1539 14.1875C22.2105 13.8984 22.3511 13.7188 22.5484 13.5938C22.7613 13.459 23.0621 13.375 23.4332 13.3457C24.1812 13.2852 25.0562 13.4492 25.6578 13.5898L26.1148 13.6973L26.3297 12.7852L25.8726 12.6797C25.5074 12.5938 25.0093 12.4902 24.4761 12.4355V11Z" fill="currentColor"/>
</svg>
