<svg viewBox="0 0 32 32" fill="none" xmlns="http://www.w3.org/2000/svg">
<path d="M10.6807 22V10H14.563C15.7955 10 16.7031 10.3473 17.2857 11.042C17.8683 11.7367 18.1597 12.6499 18.1597 13.7815V18.9412H16.7983V13.7983C16.7983 12.9244 16.5854 12.2689 16.1597 11.8319C15.7451 11.3838 15.1569 11.1597 14.3949 11.1597H12.042V22H10.6807ZM13.7395 13.0588H15.1008V20.8403H17.3865C18.2381 20.8403 18.8767 20.6162 19.3025 20.1681C19.7395 19.7087 19.958 19.0476 19.958 18.1849V10H21.3193V18.1849C21.3193 18.9132 21.1905 19.5686 20.9328 20.1513C20.6751 20.7227 20.2661 21.1765 19.7059 21.5126C19.1457 21.8375 18.4118 22 17.5042 22H13.7395V13.0588Z" fill="currentColor"/>
</svg>
