<svg viewBox="0 0 32 32" fill="currentColor" xmlns="http://www.w3.org/2000/svg">
<path d="M6.11865 21V11H10.3456C11.4142 11 12.2416 11.2553 12.8279 11.766C13.4142 12.2671 13.7073 12.9716 13.7073 13.8794C13.7073 14.4752 13.5749 14.9858 13.3101 15.4113C13.0454 15.8369 12.6718 16.1631 12.1896 16.3901C11.7073 16.6076 11.1399 16.7163 10.4874 16.7163L10.7144 16.4894H11.0974C11.4851 16.4894 11.8302 16.5887 12.1328 16.7872C12.4449 16.9858 12.7002 17.3026 12.8988 17.7376L14.3314 21H12.7144L11.296 17.7234C11.1541 17.3357 10.9319 17.0851 10.6293 16.9716C10.3361 16.8582 9.97208 16.8014 9.53709 16.8014H7.59383V21H6.11865ZM7.59383 15.6809H10.1045C10.8137 15.6809 11.348 15.5296 11.7073 15.227C12.0761 14.9244 12.2605 14.4894 12.2605 13.922C12.2605 13.3452 12.0761 12.9102 11.7073 12.617C11.348 12.3239 10.8137 12.1773 10.1045 12.1773H7.59383V15.6809Z" fill="currentColor"/>
<path d="M16.0231 21V11H17.3139L21.1721 19.695H20.7465L24.6047 11H25.8813V21H24.548V13H25.016L21.4132 21H20.4912L16.8884 13H17.3706V21H16.0231Z" fill="currentColor"/>
</svg>
