<svg viewBox="0 0 32 32" fill="currentColor" xmlns="http://www.w3.org/2000/svg">
<path d="M2.33643 19.915V11.9837H3.36018L6.42018 18.88H6.08268L9.14268 11.9837H10.1552V19.915H9.09768V13.57H9.46893L6.61143 19.915H5.88018L3.02268 13.57H3.40518V19.915H2.33643Z" fill="currentColor"/>
<path d="M14.5681 20.0163C13.6531 20.0163 12.9331 19.7575 12.4081 19.24C11.8831 18.7225 11.6206 18.0062 11.6206 17.0912C11.6206 16.4987 11.7331 15.9812 11.9581 15.5387C12.1906 15.0962 12.5093 14.755 12.9143 14.515C13.3268 14.2675 13.8031 14.1437 14.3431 14.1437C14.8756 14.1437 15.3218 14.2562 15.6818 14.4812C16.0418 14.7062 16.3156 15.025 16.5031 15.4375C16.6906 15.8425 16.7843 16.3225 16.7843 16.8775V17.2375H12.5093V16.585H16.0081L15.8168 16.7312C15.8168 16.1687 15.6893 15.7337 15.4343 15.4262C15.1868 15.1112 14.8268 14.9537 14.3543 14.9537C13.8293 14.9537 13.4243 15.1375 13.1393 15.505C12.8543 15.865 12.7118 16.3637 12.7118 17.0013V17.1137C12.7118 17.7812 12.8731 18.2838 13.1956 18.6213C13.5256 18.9588 13.9906 19.1275 14.5906 19.1275C14.9206 19.1275 15.2281 19.0825 15.5131 18.9925C15.8056 18.895 16.0831 18.7375 16.3456 18.52L16.7168 19.2963C16.4543 19.5288 16.1356 19.7088 15.7606 19.8363C15.3856 19.9563 14.9881 20.0163 14.5681 20.0163Z" fill="currentColor"/>
<path d="M17.2342 19.915L19.8105 16.72V17.26L17.3692 14.245H18.7305L20.4517 16.4612H20.0467L21.768 14.245H23.118L20.6992 17.2487V16.7312L23.2642 19.915H21.903L20.0467 17.5412H20.4517L18.5842 19.915H17.2342Z" fill="currentColor"/>
<path d="M27.3209 11H26.3834V12.4004C26.3228 12.4023 26.2623 12.4062 26.2017 12.4121C25.7486 12.4492 25.2799 12.5566 24.8892 12.8047C24.483 13.0625 24.1861 13.4609 24.0787 14.0117C24.0025 14.4082 24.0396 14.7695 24.1978 15.0898C24.3541 15.4023 24.606 15.6289 24.8775 15.7969C25.3892 16.1133 26.0865 16.291 26.692 16.4453L26.7369 16.457C27.399 16.625 27.9596 16.7715 28.3326 17.0039C28.5084 17.1133 28.6119 17.2227 28.6666 17.334C28.7193 17.4375 28.7486 17.584 28.7056 17.8125C28.649 18.0996 28.4439 18.3379 28.0318 18.4941C27.6099 18.6543 27.0162 18.707 26.3209 18.6094C25.8795 18.5449 25.1138 18.3613 24.6998 18.1777L24.2721 17.9883L23.8892 18.8418L24.317 19.0312C24.8404 19.2656 25.7017 19.4648 26.1881 19.5352H26.19C26.2545 19.5449 26.3189 19.5527 26.3834 19.5586V21H27.3209V19.582C27.6978 19.5566 28.0513 19.4863 28.3658 19.3672C28.9888 19.1309 29.4928 18.6797 29.6256 17.9883C29.7017 17.5918 29.6646 17.2305 29.5064 16.9102C29.3502 16.5977 29.0982 16.3711 28.8267 16.2031C28.315 15.8867 27.6178 15.709 27.0123 15.5547L26.9674 15.543C26.3053 15.375 25.7447 15.2285 25.3717 14.9961C25.1959 14.8867 25.0924 14.7773 25.0377 14.666C24.9849 14.5625 24.9556 14.416 24.9986 14.1875C25.0553 13.8984 25.1959 13.7188 25.3931 13.5938C25.606 13.459 25.9068 13.375 26.2779 13.3457C27.026 13.2852 27.901 13.4492 28.5025 13.5898L28.9596 13.6973L29.1744 12.7852L28.7174 12.6797C28.3521 12.5938 27.8541 12.4902 27.3209 12.4355V11Z" fill="currentColor"/>
</svg>
