<svg viewBox="0 0 32 32" fill="currentColor" xmlns="http://www.w3.org/2000/svg">
<path d="M5.69031 19.9656V12.0344H6.59031L11.4616 18.4244H11.1803V12.0344H12.2716V19.9656H11.3828L6.52281 13.5756H6.78156V19.9656H5.69031Z" fill="currentColor"/>
<path d="M16.0291 19.9656V13.0131H13.3178V12.0344H19.9103V13.0131H17.1991V19.9656H16.0291Z" fill="currentColor"/>
<path d="M23.9669 11H23.0294V12.4004C22.9689 12.4023 22.9084 12.4062 22.8478 12.4121C22.3947 12.4492 21.9259 12.5566 21.5353 12.8047C21.1291 13.0625 20.8322 13.4609 20.7248 14.0117C20.6486 14.4082 20.6857 14.7695 20.8439 15.0898C21.0002 15.4023 21.2521 15.6289 21.5236 15.7969C22.0353 16.1133 22.7326 16.291 23.338 16.4453L23.383 16.457C24.0451 16.625 24.6056 16.7715 24.9787 17.0039C25.1544 17.1133 25.258 17.2227 25.3127 17.334C25.3654 17.4375 25.3947 17.584 25.3517 17.8125C25.2951 18.0996 25.09 18.3379 24.6779 18.4941C24.256 18.6543 23.6623 18.707 22.9669 18.6094C22.5255 18.5449 21.7599 18.3613 21.3459 18.1777L20.9181 17.9883L20.5353 18.8418L20.963 19.0312C21.4865 19.2656 22.3478 19.4648 22.8341 19.5352H22.8361C22.9005 19.5449 22.965 19.5527 23.0294 19.5586V21H23.9669V19.582C24.3439 19.5566 24.6974 19.4863 25.0119 19.3672C25.6349 19.1309 26.1388 18.6797 26.2716 17.9883C26.3478 17.5918 26.3107 17.2305 26.1525 16.9102C25.9962 16.5977 25.7443 16.3711 25.4728 16.2031C24.9611 15.8867 24.2638 15.709 23.6584 15.5547L23.6134 15.543C22.9513 15.375 22.3908 15.2285 22.0177 14.9961C21.8419 14.8867 21.7384 14.7773 21.6837 14.666C21.631 14.5625 21.6017 14.416 21.6447 14.1875C21.7013 13.8984 21.8419 13.7188 22.0392 13.5938C22.2521 13.459 22.5529 13.375 22.924 13.3457C23.672 13.2852 24.547 13.4492 25.1486 13.5898L25.6056 13.6973L25.8205 12.7852L25.3634 12.6797C24.9982 12.5938 24.5002 12.4902 23.9669 12.4355V11Z" fill="currentColor"/>
</svg>
