<svg viewBox="0 0 32 32" fill="currentColor" xmlns="http://www.w3.org/2000/svg">
<path d="M11.5967 22V21.0252C12.1345 20.8123 12.5547 20.5546 12.8572 20.2521C13.1597 19.9384 13.311 19.5406 13.311 19.0588V16.521H11.5967V15.5966H13.311V13.4286C13.311 12.7003 13.4454 12.084 13.7143 11.5798C13.9944 11.0644 14.409 10.6723 14.958 10.4034C15.507 10.1345 16.1961 10 17.0253 10C17.6863 10 18.3082 10.1176 18.8908 10.3529C19.4734 10.577 19.9776 10.902 20.4034 11.3277L19.8488 12.3866C19.4678 11.972 19.0421 11.6695 18.5715 11.479C18.1121 11.2773 17.5911 11.1765 17.0084 11.1765C16.2353 11.1765 15.6583 11.3613 15.2774 11.7311C14.8964 12.1008 14.7059 12.6499 14.7059 13.3782V15.5966H17.8152V16.521H14.7059V18.6555C14.7059 19.2717 14.5771 19.7591 14.3194 20.1176C14.0617 20.4762 13.7199 20.7451 13.2942 20.9244V20.8235H20.2858V22H11.5967Z" fill="currentColor"/>
</svg>
