<svg viewBox="0 0 32 32" fill="none" xmlns="http://www.w3.org/2000/svg">
<path d="M18.3704 15.8076C18.6411 15.5574 18.8572 15.2541 19.0052 14.9166C19.1532 14.5791 19.23 14.2147 19.2307 13.8462V13.3077C19.2299 12.5939 18.9459 11.9096 18.4412 11.4049C17.9365 10.9001 17.2522 10.6162 16.5384 10.6154H15.9999V9H14.923V10.6154H12.2307V21.3846H14.923V23H15.9999V21.3846H17.0769C17.7907 21.3838 18.475 21.0999 18.9797 20.5951C19.4844 20.0904 19.7683 19.4061 19.7692 18.6923V18.1538C19.7675 17.6733 19.6367 17.2021 19.3907 16.7894C19.1446 16.3767 18.7923 16.0376 18.3704 15.8076ZM13.3076 11.6923H16.5384C16.9667 11.6928 17.3773 11.8631 17.6801 12.166C17.983 12.4688 18.1533 12.8794 18.1538 13.3077V13.8462C18.1533 14.2744 17.983 14.685 17.6801 14.9879C17.3773 15.2907 16.9667 15.4611 16.5384 15.4615H13.3076V11.6923ZM18.6923 18.6923C18.6918 19.1206 18.5214 19.5312 18.2186 19.834C17.9158 20.1369 17.5051 20.3072 17.0769 20.3077H13.3076V16.5385H17.0769C17.5051 16.5389 17.9158 16.7093 18.2186 17.0121C18.5214 17.315 18.6918 17.7256 18.6923 18.1538V18.6923Z" fill="currentColor"/>
</svg>
