<svg viewBox="0 0 73 72" fill="none" xmlns="http://www.w3.org/2000/svg">
  <path
    fillRule="evenodd"
    clipRule="evenodd"
    d="M40.382 45.8448C37.2824 45.8448 34.6592 43.4004 34.6592 40.128C34.6592 36.8556 36.8708 34.1628 40.4372 34.1628C44.0036 34.1628 46.106 37.0464 46.106 40.068C46.106 43.3536 43.8824 45.846 40.382 45.846V45.8448ZM31.244 35.0004L30.1484 31.4124C29.4944 29.5248 29.3012 28.4388 27.4604 26.4936C26.8292 25.8264 24.4424 24.3588 24.7388 24.6792C27.764 27.9456 29.312 31.9032 29.9084 33.0024C29.36 32.3364 28.718 31.7388 27.9848 30.996C27.3608 30.3624 26.708 29.7912 26.0888 29.4084C25.6808 29.1552 25.4516 29.016 25.0388 28.8024C23.174 27.834 21.368 27.2472 20.6732 27.0744C19.826 26.8632 18.9908 26.808 18.9908 26.808C18.9908 26.808 21.692 29.0892 22.8488 30.54C24.0068 31.9908 25.1876 33.2916 26.4932 33.8244C27.7988 34.356 28.2524 34.5096 29.2784 34.6644C30.164 34.7976 31.244 35.0004 31.244 35.0004ZM40.6304 31.8216C37.7744 31.8216 36.2432 32.802 35.1692 33.8676L34.8764 34.1748V24.6024H32.408V40.2696C32.408 45.0912 36.1208 48.0936 40.382 48.0936C45.0764 48.0936 48.6296 44.4816 48.6296 39.8376C48.6296 35.526 44.9228 31.8204 40.6304 31.8204V31.8216ZM60.32 36C60.32 49.2552 49.5752 60 36.32 60C23.0648 60 12.32 49.2552 12.32 36C12.32 22.7448 23.0648 12 36.32 12C49.5752 12 60.32 22.7448 60.32 36Z"
    fill="#73C41D"
  />
</svg>