<svg viewBox="0 0 73 72" fill="none" xmlns="http://www.w3.org/2000/svg">
  <path
    d="M36.66 12C30.2948 12 24.1903 14.5286 19.6894 19.0294C15.1886 23.5303 12.66 29.6348 12.66 36C12.66 42.3652 15.1886 48.4697 19.6894 52.9706C24.1903 57.4714 30.2948 60 36.66 60C43.0252 60 49.1297 57.4714 53.6306 52.9706C58.1314 48.4697 60.66 42.3652 60.66 36C60.66 29.6348 58.1314 23.5303 53.6306 19.0294C49.1297 14.5286 43.0252 12 36.66 12ZM26.336 21.032C27.822 21.032 29.092 21.76 30.144 23.214C31.196 24.67 31.718 26.418 31.718 28.464V41.984C31.718 43.062 32.258 43.602 33.336 43.602H41.684C42.76 43.602 43.3 43.062 43.3 41.984V35.574C43.3 34.534 42.76 33.998 41.684 33.96H40.07C37.988 33.888 36.224 33.344 34.79 32.328C33.352 31.314 32.636 30.062 32.636 28.574H41.684C43.624 28.574 45.276 29.258 46.64 30.622C47.3014 31.2638 47.8244 32.0343 48.1766 32.886C48.5289 33.7377 48.7029 34.6525 48.688 35.574V41.984C48.688 43.924 48.004 45.578 46.64 46.942C45.276 48.306 43.622 48.984 41.684 48.984H33.336C31.396 48.984 29.746 48.306 28.382 46.942C27.7204 46.2992 27.1975 45.5276 26.8456 44.6749C26.4937 43.8221 26.3203 42.9063 26.336 41.984V21.032Z"
    fill="#4249B3"
  />
</svg>