<svg viewBox="0 0 73 72" fill="none" xmlns="http://www.w3.org/2000/svg">
  <path
    d="M62.0402 37.532L10.66 42.9299L11.2798 48.8244L62.66 43.4265L62.0402 37.532Z"
    fill="#FFE900"
  />
  <path
    d="M35.5627 26.4786C34.3898 26.4784 33.2431 26.826 32.2678 27.4773C31.2925 28.1286 30.5325 29.0544 30.0836 30.1376C29.6348 31.2207 29.5174 32.4127 29.7464 33.5625C29.9753 34.7124 30.5404 35.7685 31.37 36.5974C32.1995 37.4262 33.2564 37.9906 34.4068 38.2189C35.5573 38.4473 36.7496 38.3294 37.8332 37.8804C38.9166 37.4313 39.8425 36.6711 40.4937 35.6959C41.1449 34.7209 41.4921 33.5746 41.4914 32.4021C41.492 31.6239 41.339 30.8531 41.0412 30.134C40.7434 29.4149 40.3067 28.7616 39.756 28.2114C39.2053 27.6612 38.5516 27.225 37.832 26.9276C37.1125 26.6303 36.3413 26.4777 35.5627 26.4786ZM35.5627 35.6977C34.9106 35.6977 34.2732 35.5044 33.731 35.1423C33.1888 34.7802 32.7663 34.2655 32.5167 33.6633C32.2672 33.0611 32.2019 32.3985 32.3291 31.7592C32.4562 31.1199 32.7703 30.5327 33.2314 30.0718C33.6925 29.6109 34.28 29.297 34.9195 29.1699C35.5591 29.0427 36.222 29.108 36.8244 29.3574C37.4269 29.6069 37.9418 30.0293 38.3041 30.5712C38.6664 31.1132 38.8597 31.7503 38.8597 32.4021C38.8588 33.2756 38.5111 34.113 37.8928 34.7303C37.2747 35.3476 36.4365 35.6943 35.5627 35.6943V35.6977Z"
    fill="black"
  />
  <path
    d="M54.643 26.4786C53.4702 26.4786 52.3238 26.8262 51.3488 27.4774C50.3737 28.1287 49.6136 29.0543 49.1649 30.1373C48.716 31.2204 48.5987 32.4121 48.8274 33.5617C49.0562 34.7115 49.621 35.7676 50.4502 36.5964C51.2795 37.4253 52.336 37.9898 53.4863 38.2185C54.6364 38.4472 55.8286 38.3299 56.9121 37.8812C57.9957 37.4327 58.9217 36.673 59.5733 35.6983C60.2248 34.7236 60.5725 33.5777 60.5725 32.4055C60.5741 31.6267 60.4218 30.8553 60.1244 30.1355C59.8269 29.4157 59.3902 28.7617 58.8393 28.211C58.2884 27.6604 57.6341 27.2238 56.914 26.9265C56.1939 26.6292 55.4221 26.477 54.643 26.4786ZM54.643 35.6977C53.9909 35.6977 53.3535 35.5043 52.8113 35.1423C52.2691 34.7802 51.8466 34.2655 51.597 33.6633C51.3475 33.0611 51.2822 32.3984 51.4094 31.7592C51.5365 31.1199 51.8506 30.5327 52.3117 30.0718C52.7728 29.6109 53.3603 29.297 53.9998 29.1699C54.6394 29.0427 55.3023 29.108 55.9047 29.3574C56.5072 29.6068 57.0221 30.0292 57.3844 30.5712C57.7467 31.1131 57.94 31.7503 57.94 32.4021C57.9391 33.2756 57.5914 34.1129 56.9731 34.7303C56.355 35.3476 55.5168 35.6942 54.643 35.6942V35.6977Z"
    fill="black"
  />
  <path
    d="M51.0324 26.1329V23.499H39.1742V26.1329H43.7858V38.013H46.4209V26.1329H51.0324Z"
    fill="black"
  />
  <path
    d="M19.5408 29.426V32.0599H23.1827C22.3415 34.2671 20.7387 35.6934 18.8814 35.6934C18.0689 35.6922 17.2693 35.4907 16.5533 35.1068C15.8373 34.7229 15.227 34.1686 14.7766 33.4926C14.3261 32.8168 14.0494 32.0403 13.9708 31.2319C13.8922 30.4236 14.0143 29.6084 14.3262 28.8585C14.638 28.1086 15.1301 27.4471 15.7587 26.9326C16.3874 26.4182 17.1333 26.0666 17.9303 25.909C18.7274 25.7515 19.551 25.7928 20.3282 26.0294C21.1055 26.266 21.8124 26.6904 22.3864 27.2653L24.2572 25.3944C23.1981 24.3355 21.8488 23.6142 20.3797 23.3216C18.9106 23.0289 17.3877 23.1782 16.0035 23.7505C14.6192 24.3227 13.4358 25.2923 12.6027 26.5367C11.7695 27.781 11.3242 29.2443 11.3228 30.7416C11.3187 31.7351 11.5121 32.7194 11.8918 33.6375C12.2714 34.5555 12.8297 35.3891 13.5343 36.0898C14.2349 36.796 15.068 37.3572 15.9857 37.7414C16.9035 38.1256 17.888 38.3254 18.8831 38.329C21.464 38.329 23.7863 36.6677 25.155 34.0305V38.0121H27.7901V29.426H19.5408Z"
    fill="black"
  />
  <path
    d="M23.352 47.8245L21.36 42.1845H22.432L23.968 46.8085H23.648L25.304 42.1845H26.072L27.608 46.8085H27.312L28.92 42.1845H29.928L27.92 47.8245H27.064L25.576 43.4885H25.752L24.208 47.8245H23.352Z"
    fill="black"
  />
  <path
    d="M32.1248 47.9045C31.4474 47.9045 30.9168 47.7179 30.5328 47.3445C30.1488 46.9712 29.9568 46.4592 29.9568 45.8085C29.9568 45.3872 30.0394 45.0192 30.2048 44.7045C30.3701 44.3899 30.5994 44.1445 30.8928 43.9685C31.1914 43.7925 31.5381 43.7045 31.9328 43.7045C32.3221 43.7045 32.6474 43.7872 32.9088 43.9525C33.1701 44.1179 33.3674 44.3499 33.5008 44.6485C33.6394 44.9472 33.7088 45.2965 33.7088 45.6965V45.9605H30.7648V45.4325H32.9968L32.8608 45.5445C32.8608 45.1712 32.7808 44.8859 32.6208 44.6885C32.4661 44.4912 32.2394 44.3925 31.9408 44.3925C31.6101 44.3925 31.3541 44.5099 31.1728 44.7445C30.9968 44.9792 30.9088 45.3072 30.9088 45.7285V45.8325C30.9088 46.2699 31.0154 46.5979 31.2288 46.8165C31.4474 47.0299 31.7541 47.1365 32.1488 47.1365C32.3781 47.1365 32.5914 47.1072 32.7888 47.0485C32.9914 46.9845 33.1834 46.8832 33.3648 46.7445L33.6608 47.4165C33.4688 47.5712 33.2394 47.6912 32.9728 47.7765C32.7061 47.8619 32.4234 47.9045 32.1248 47.9045Z"
    fill="black"
  />
  <path
    d="M36.8676 47.9045C36.5262 47.9045 36.2276 47.8219 35.9716 47.6565C35.7156 47.4859 35.5449 47.2565 35.4596 46.9685H35.5476V47.8245H34.5556V41.9365H35.5556V44.6085H35.4596C35.5502 44.3312 35.7236 44.1125 35.9796 43.9525C36.2356 43.7872 36.5316 43.7045 36.8676 43.7045C37.2249 43.7045 37.5369 43.7899 37.8036 43.9605C38.0702 44.1312 38.2782 44.3739 38.4276 44.6885C38.5769 44.9979 38.6516 45.3712 38.6516 45.8085C38.6516 46.2459 38.5769 46.6219 38.4276 46.9365C38.2782 47.2459 38.0676 47.4859 37.7956 47.6565C37.5289 47.8219 37.2196 47.9045 36.8676 47.9045ZM36.5876 47.1365C36.9022 47.1365 37.1556 47.0272 37.3476 46.8085C37.5449 46.5899 37.6436 46.2565 37.6436 45.8085C37.6436 45.3605 37.5449 45.0272 37.3476 44.8085C37.1556 44.5845 36.9022 44.4725 36.5876 44.4725C36.2729 44.4725 36.0196 44.5819 35.8276 44.8005C35.6356 45.0192 35.5396 45.3525 35.5396 45.8005C35.5396 46.2485 35.6356 46.5845 35.8276 46.8085C36.0196 47.0272 36.2729 47.1365 36.5876 47.1365Z"
    fill="black"
  />
  <path
    d="M39.5165 47.8245V43.7845H40.5165V47.8245H39.5165ZM39.4605 43.0245V42.0485H40.5725V43.0245H39.4605Z"
    fill="black"
  />
  <path
    d="M41.6025 47.8245V44.7925C41.6025 44.6272 41.5971 44.4592 41.5865 44.2885C41.5758 44.1179 41.5598 43.9499 41.5385 43.7845H42.5065L42.5865 44.5845H42.4905C42.6185 44.3019 42.8078 44.0859 43.0585 43.9365C43.3091 43.7819 43.5998 43.7045 43.9305 43.7045C44.4051 43.7045 44.7625 43.8379 45.0025 44.1045C45.2425 44.3712 45.3625 44.7872 45.3625 45.3525V47.8245H44.3625V45.4005C44.3625 45.0752 44.2985 44.8432 44.1705 44.7045C44.0478 44.5605 43.8611 44.4885 43.6105 44.4885C43.3011 44.4885 43.0558 44.5845 42.8745 44.7765C42.6931 44.9685 42.6025 45.2245 42.6025 45.5445V47.8245H41.6025Z"
    fill="black"
  />
  <path
    d="M47.9828 47.9045C47.6308 47.9045 47.3214 47.8219 47.0548 47.6565C46.7881 47.4859 46.5801 47.2432 46.4308 46.9285C46.2814 46.6139 46.2068 46.2379 46.2068 45.8005C46.2068 45.3632 46.2814 44.9899 46.4308 44.6805C46.5801 44.3659 46.7881 44.1259 47.0548 43.9605C47.3214 43.7899 47.6308 43.7045 47.9828 43.7045C48.3241 43.7045 48.6228 43.7899 48.8788 43.9605C49.1401 44.1259 49.3134 44.3499 49.3988 44.6325H49.3108L49.3988 43.7845H50.3588C50.3428 43.9499 50.3268 44.1179 50.3108 44.2885C50.3001 44.4592 50.2948 44.6272 50.2948 44.7925V47.8245H49.3028L49.2948 46.9925H49.3908C49.3054 47.2699 49.1321 47.4912 48.8708 47.6565C48.6094 47.8219 48.3134 47.9045 47.9828 47.9045ZM48.2628 47.1365C48.5774 47.1365 48.8308 47.0272 49.0228 46.8085C49.2148 46.5845 49.3108 46.2485 49.3108 45.8005C49.3108 45.3525 49.2148 45.0192 49.0228 44.8005C48.8308 44.5819 48.5774 44.4725 48.2628 44.4725C47.9481 44.4725 47.6948 44.5819 47.5028 44.8005C47.3108 45.0192 47.2148 45.3525 47.2148 45.8005C47.2148 46.2485 47.3081 46.5845 47.4948 46.8085C47.6868 47.0272 47.9428 47.1365 48.2628 47.1365Z"
    fill="black"
  />
  <path
    d="M51.3757 47.8245V44.8165C51.3757 44.6459 51.3704 44.4725 51.3597 44.2965C51.3544 44.1205 51.341 43.9499 51.3197 43.7845H52.2877L52.3997 44.8885H52.2397C52.293 44.6219 52.381 44.4005 52.5037 44.2245C52.6317 44.0485 52.7864 43.9179 52.9677 43.8325C53.149 43.7472 53.3464 43.7045 53.5597 43.7045C53.6557 43.7045 53.733 43.7099 53.7917 43.7205C53.8504 43.7259 53.909 43.7392 53.9677 43.7605L53.9597 44.6405C53.8584 44.5979 53.7704 44.5712 53.6957 44.5605C53.6264 44.5499 53.5384 44.5445 53.4317 44.5445C53.2024 44.5445 53.0077 44.5925 52.8477 44.6885C52.693 44.7845 52.5757 44.9179 52.4957 45.0885C52.421 45.2592 52.3837 45.4539 52.3837 45.6725V47.8245H51.3757Z"
    fill="black"
  />
</svg>