<svg viewBox="0 0 72 72" fill="none" xmlns="http://www.w3.org/2000/svg">
  <path d="M61.3802 37.532L10 42.9299L10.6198 48.8244L62 43.4265L61.3802 37.532Z" fill="#FFE900" />
  <path
    d="M34.9027 26.4786C33.7298 26.4784 32.5831 26.826 31.6078 27.4773C30.6325 28.1286 29.8725 29.0544 29.4236 30.1376C28.9748 31.2207 28.8574 32.4127 29.0864 33.5625C29.3153 34.7124 29.8804 35.7685 30.71 36.5974C31.5395 37.4262 32.5964 37.9906 33.7468 38.2189C34.8973 38.4473 36.0896 38.3294 37.1732 37.8804C38.2566 37.4313 39.1825 36.6711 39.8337 35.6959C40.4849 34.7209 40.8321 33.5746 40.8314 32.4021C40.832 31.6239 40.679 30.8531 40.3812 30.134C40.0834 29.4149 39.6467 28.7616 39.096 28.2114C38.5453 27.6612 37.8916 27.225 37.172 26.9276C36.4525 26.6303 35.6813 26.4777 34.9027 26.4786ZM34.9027 35.6977C34.2506 35.6977 33.6132 35.5044 33.071 35.1423C32.5288 34.7802 32.1063 34.2655 31.8567 33.6633C31.6072 33.0611 31.5419 32.3985 31.6691 31.7592C31.7962 31.1199 32.1103 30.5327 32.5714 30.0718C33.0325 29.6109 33.62 29.297 34.2595 29.1699C34.8991 29.0427 35.562 29.108 36.1644 29.3574C36.7669 29.6069 37.2818 30.0293 37.6441 30.5712C38.0064 31.1132 38.1997 31.7503 38.1997 32.4021C38.1988 33.2756 37.8511 34.113 37.2328 34.7303C36.6147 35.3476 35.7765 35.6943 34.9027 35.6943V35.6977Z"
    fill="black"
  />
  <path
    d="M53.983 26.4786C52.8102 26.4786 51.6638 26.8262 50.6888 27.4774C49.7137 28.1287 48.9536 29.0543 48.5049 30.1373C48.056 31.2204 47.9387 32.4121 48.1674 33.5617C48.3962 34.7115 48.961 35.7676 49.7902 36.5964C50.6195 37.4253 51.676 37.9898 52.8263 38.2185C53.9764 38.4472 55.1686 38.3299 56.2521 37.8812C57.3357 37.4327 58.2617 36.673 58.9133 35.6983C59.5648 34.7236 59.9125 33.5777 59.9125 32.4055C59.9141 31.6267 59.7618 30.8553 59.4644 30.1355C59.1669 29.4157 58.7302 28.7617 58.1793 28.211C57.6284 27.6604 56.9741 27.2238 56.254 26.9265C55.5339 26.6292 54.7621 26.477 53.983 26.4786ZM53.983 35.6977C53.3309 35.6977 52.6935 35.5043 52.1513 35.1423C51.6091 34.7802 51.1866 34.2655 50.937 33.6633C50.6875 33.0611 50.6222 32.3984 50.7493 31.7592C50.8765 31.1199 51.1906 30.5327 51.6517 30.0718C52.1128 29.6109 52.7003 29.297 53.3398 29.1699C53.9794 29.0427 54.6423 29.108 55.2447 29.3574C55.8472 29.6068 56.3621 30.0292 56.7244 30.5712C57.0866 31.1131 57.28 31.7503 57.28 32.4021C57.2791 33.2756 56.9314 34.1129 56.3131 34.7303C55.695 35.3476 54.8568 35.6942 53.983 35.6942V35.6977Z"
    fill="black"
  />
  <path
    d="M50.3724 26.1329V23.499H38.5142V26.1329H43.1258V38.013H45.7609V26.1329H50.3724Z"
    fill="black"
  />
  <path
    d="M18.8808 29.426V32.0599H22.5227C21.6815 34.2671 20.0787 35.6934 18.2214 35.6934C17.4089 35.6922 16.6093 35.4907 15.8933 35.1068C15.1773 34.7229 14.567 34.1686 14.1166 33.4926C13.6661 32.8168 13.3894 32.0403 13.3108 31.2319C13.2322 30.4236 13.3543 29.6084 13.6662 28.8585C13.978 28.1086 14.4701 27.4471 15.0987 26.9326C15.7274 26.4182 16.4733 26.0666 17.2703 25.909C18.0674 25.7515 18.891 25.7928 19.6682 26.0294C20.4455 26.266 21.1524 26.6904 21.7264 27.2653L23.5971 25.3944C22.5381 24.3355 21.1888 23.6142 19.7197 23.3216C18.2506 23.0289 16.7277 23.1782 15.3435 23.7505C13.9592 24.3227 12.7758 25.2923 11.9427 26.5367C11.1095 27.781 10.6642 29.2443 10.6628 30.7416C10.6587 31.7351 10.8521 32.7194 11.2317 33.6375C11.6114 34.5555 12.1697 35.3891 12.8743 36.0898C13.5749 36.796 14.408 37.3572 15.3257 37.7414C16.2435 38.1256 17.228 38.3254 18.2231 38.329C20.804 38.329 23.1263 36.6677 24.495 34.0305V38.0121H27.1301V29.426H18.8808Z"
    fill="black"
  />
  <path
    d="M21.132 47.8243V42.1843H22.036L24.108 46.8483H23.86L25.932 42.1843H26.828V47.8243H25.892V43.6403H26.18L24.284 47.8243H23.668L21.772 43.6403H22.068V47.8243H21.132Z"
    fill="black"
  />
  <path
    d="M29.9569 47.9043C29.2796 47.9043 28.7489 47.7177 28.3649 47.3443C27.9809 46.971 27.7889 46.459 27.7889 45.8083C27.7889 45.387 27.8716 45.019 28.0369 44.7043C28.2023 44.3897 28.4316 44.1443 28.7249 43.9683C29.0236 43.7923 29.3703 43.7043 29.7649 43.7043C30.1543 43.7043 30.4796 43.787 30.7409 43.9523C31.0023 44.1177 31.1996 44.3497 31.3329 44.6483C31.4716 44.947 31.5409 45.2963 31.5409 45.6963V45.9603H28.5969V45.4323H30.8289L30.6929 45.5443C30.6929 45.171 30.6129 44.8857 30.4529 44.6883C30.2983 44.491 30.0716 44.3923 29.7729 44.3923C29.4423 44.3923 29.1863 44.5097 29.0049 44.7443C28.8289 44.979 28.7409 45.307 28.7409 45.7283V45.8323C28.7409 46.2697 28.8476 46.5977 29.0609 46.8163C29.2796 47.0297 29.5863 47.1363 29.9809 47.1363C30.2103 47.1363 30.4236 47.107 30.6209 47.0483C30.8236 46.9843 31.0156 46.883 31.1969 46.7443L31.4929 47.4163C31.3009 47.571 31.0716 47.691 30.8049 47.7763C30.5383 47.8617 30.2556 47.9043 29.9569 47.9043Z"
    fill="black"
  />
  <path
    d="M34.3398 47.9043C33.6624 47.9043 33.1318 47.7177 32.7478 47.3443C32.3638 46.971 32.1718 46.459 32.1718 45.8083C32.1718 45.387 32.2544 45.019 32.4198 44.7043C32.5851 44.3897 32.8144 44.1443 33.1078 43.9683C33.4064 43.7923 33.7531 43.7043 34.1478 43.7043C34.5371 43.7043 34.8624 43.787 35.1238 43.9523C35.3851 44.1177 35.5824 44.3497 35.7158 44.6483C35.8544 44.947 35.9238 45.2963 35.9238 45.6963V45.9603H32.9798V45.4323H35.2118L35.0758 45.5443C35.0758 45.171 34.9958 44.8857 34.8358 44.6883C34.6811 44.491 34.4544 44.3923 34.1558 44.3923C33.8251 44.3923 33.5691 44.5097 33.3878 44.7443C33.2118 44.979 33.1238 45.307 33.1238 45.7283V45.8323C33.1238 46.2697 33.2304 46.5977 33.4438 46.8163C33.6624 47.0297 33.9691 47.1363 34.3638 47.1363C34.5931 47.1363 34.8064 47.107 35.0038 47.0483C35.2064 46.9843 35.3984 46.883 35.5798 46.7443L35.8758 47.4163C35.6838 47.571 35.4544 47.691 35.1878 47.7763C34.9211 47.8617 34.6384 47.9043 34.3398 47.9043Z"
    fill="black"
  />
  <path
    d="M38.4829 47.9043C38.0029 47.9043 37.6403 47.779 37.3949 47.5283C37.1496 47.2777 37.0269 46.9017 37.0269 46.4003V44.5363H36.2509V43.7843H37.0269V42.7523L38.0269 42.4963V43.7843H39.1069V44.5363H38.0269V46.3363C38.0269 46.6137 38.0803 46.8083 38.1869 46.9203C38.2936 47.0323 38.4403 47.0883 38.6269 47.0883C38.7283 47.0883 38.8136 47.0803 38.8829 47.0643C38.9576 47.0483 39.0296 47.027 39.0989 47.0003V47.7923C39.0083 47.8297 38.9069 47.8563 38.7949 47.8723C38.6883 47.8937 38.5843 47.9043 38.4829 47.9043Z"
    fill="black"
  />
  <path
    d="M39.7862 47.8243V43.7843H40.7862V47.8243H39.7862ZM39.7302 43.0243V42.0483H40.8422V43.0243H39.7302Z"
    fill="black"
  />
  <path
    d="M41.8721 47.8243V44.7923C41.8721 44.627 41.8668 44.459 41.8561 44.2883C41.8455 44.1177 41.8295 43.9497 41.8081 43.7843H42.7761L42.8561 44.5843H42.7601C42.8881 44.3017 43.0775 44.0857 43.3281 43.9363C43.5788 43.7817 43.8695 43.7043 44.2001 43.7043C44.6748 43.7043 45.0321 43.8377 45.2721 44.1043C45.5121 44.371 45.6321 44.787 45.6321 45.3523V47.8243H44.6321V45.4003C44.6321 45.075 44.5681 44.843 44.4401 44.7043C44.3175 44.5603 44.1308 44.4883 43.8801 44.4883C43.5708 44.4883 43.3255 44.5843 43.1441 44.7763C42.9628 44.9683 42.8721 45.2243 42.8721 45.5443V47.8243H41.8721Z"
    fill="black"
  />
  <path
    d="M48.5644 49.6163C48.1911 49.6163 47.8524 49.5763 47.5484 49.4963C47.2498 49.4163 46.9831 49.2937 46.7484 49.1283L46.9644 48.4083C47.1191 48.5097 47.2791 48.5923 47.4444 48.6563C47.6098 48.7203 47.7804 48.7683 47.9564 48.8003C48.1324 48.8323 48.3111 48.8483 48.4924 48.8483C48.8658 48.8483 49.1431 48.755 49.3244 48.5683C49.5111 48.387 49.6044 48.1257 49.6044 47.7843V46.8163H49.6844C49.5991 47.0937 49.4258 47.315 49.1644 47.4803C48.9084 47.6457 48.6124 47.7283 48.2764 47.7283C47.9138 47.7283 47.5964 47.6483 47.3244 47.4883C47.0578 47.323 46.8498 47.0883 46.7004 46.7843C46.5511 46.4803 46.4764 46.123 46.4764 45.7123C46.4764 45.3017 46.5511 44.947 46.7004 44.6483C46.8498 44.3443 47.0578 44.1123 47.3244 43.9523C47.5964 43.787 47.9138 43.7043 48.2764 43.7043C48.6178 43.7043 48.9138 43.787 49.1644 43.9523C49.4204 44.1123 49.5911 44.331 49.6764 44.6083L49.6044 44.5603L49.6844 43.7843H50.6524C50.6311 43.9497 50.6151 44.1177 50.6044 44.2883C50.5938 44.459 50.5884 44.627 50.5884 44.7923V47.6643C50.5884 48.299 50.4151 48.7817 50.0684 49.1123C49.7271 49.4483 49.2258 49.6163 48.5644 49.6163ZM48.5484 46.9603C48.8684 46.9603 49.1218 46.8537 49.3084 46.6403C49.5004 46.4217 49.5964 46.1123 49.5964 45.7123C49.5964 45.3123 49.5004 45.0057 49.3084 44.7923C49.1218 44.579 48.8684 44.4723 48.5484 44.4723C48.2231 44.4723 47.9644 44.579 47.7724 44.7923C47.5804 45.0057 47.4844 45.3123 47.4844 45.7123C47.4844 46.1123 47.5804 46.4217 47.7724 46.6403C47.9644 46.8537 48.2231 46.9603 48.5484 46.9603Z"
    fill="black"
  />
</svg>
