<svg viewBox="0 0 72 72" fill="none" xmlns="http://www.w3.org/2000/svg">
<g clip-path="url(#clip0_33148_141)">
<path d="M45.4807 30.4185H57.8791C59.0505 30.4185 60 31.368 60 32.5393V43.8328C60 48.1378 56.5101 51.6277 52.2051 51.6277H52.1682C47.8632 51.6284 44.3729 48.1389 44.3722 43.8339C44.3722 43.8334 44.3722 43.8332 44.3722 43.8328V31.5269C44.3722 30.9146 44.8684 30.4185 45.4807 30.4185Z" fill="#5059C9"/>
<path d="M53.8605 28.1859C56.6348 28.1859 58.8838 25.9369 58.8838 23.1627C58.8838 20.3884 56.6348 18.1394 53.8605 18.1394C51.0863 18.1394 48.8373 20.3884 48.8373 23.1627C48.8373 25.9369 51.0863 28.1859 53.8605 28.1859Z" fill="#5059C9"/>
<path d="M38.2325 28.1861C42.2398 28.1861 45.4884 24.9375 45.4884 20.9302C45.4884 16.9229 42.2398 13.6743 38.2325 13.6743C34.2252 13.6743 30.9766 16.9229 30.9766 20.9302C30.9766 24.9375 34.2252 28.1861 38.2325 28.1861Z" fill="#7B83EB"/>
<path d="M47.9073 30.4185H27.4415C26.2842 30.4471 25.3685 31.4076 25.3954 32.5652V45.4458C25.2336 52.3916 30.729 58.1555 37.6745 58.3254C44.6201 58.1555 50.1152 52.3916 49.9537 45.4458V32.5652C49.9804 31.4076 49.0649 30.4471 47.9073 30.4185Z" fill="#7B83EB"/>
<path opacity="0.1" d="M38.7907 30.4185V48.4688C38.7851 49.2967 38.2836 50.0401 37.5182 50.3554C37.2744 50.4585 37.0125 50.5115 36.7478 50.5117H26.3776C26.2325 50.1435 26.0985 49.775 25.987 49.3955C25.5963 48.1146 25.3969 46.783 25.3954 45.4439V32.5617C25.3685 31.4061 26.2827 30.4471 27.4381 30.4185H38.7907Z" fill="black"/>
<path opacity="0.2" d="M37.6745 30.4185V49.585C37.6745 49.8497 37.6213 50.1116 37.5182 50.3554C37.2031 51.1208 36.4595 51.6223 35.6316 51.6279H26.9022C26.7125 51.2597 26.534 50.8912 26.3776 50.5117C26.2213 50.1323 26.0985 49.775 25.987 49.3955C25.5963 48.1146 25.3969 46.783 25.3954 45.4439V32.5617C25.3685 31.4061 26.2827 30.4471 27.4381 30.4185H37.6745Z" fill="black"/>
<path opacity="0.2" d="M37.6745 30.4185V47.3524C37.6659 48.477 36.7565 49.3867 35.6318 49.3951H25.987C25.5963 48.1141 25.3969 46.7826 25.3954 45.4435V32.5617C25.3685 31.4061 26.2827 30.4471 27.4381 30.4185H37.6745Z" fill="black"/>
<path opacity="0.2" d="M36.5581 30.4185V47.3524C36.5495 48.477 35.64 49.3867 34.5154 49.3951H25.987C25.5963 48.1141 25.3969 46.7826 25.3954 45.4435V32.5617C25.3685 31.4061 26.2827 30.4471 27.4381 30.4185H36.5581Z" fill="black"/>
<path opacity="0.1" d="M38.7907 24.6472V28.1636C38.601 28.1748 38.4225 28.186 38.2325 28.186C38.0426 28.186 37.8643 28.1748 37.6743 28.1636C37.2974 28.1386 36.9238 28.0787 36.5581 27.9851C34.2977 27.4497 32.4301 25.8644 31.5348 23.7209C31.3809 23.3611 31.2611 22.9872 31.1776 22.6047H36.7478C37.8744 22.6088 38.7864 23.5209 38.7907 24.6472Z" fill="black"/>
<path opacity="0.2" d="M37.6745 25.7634V28.1636C37.2977 28.1386 36.924 28.0787 36.5583 27.9851C34.2979 27.4497 32.4303 25.8644 31.5351 23.7209H35.6318C36.7582 23.725 37.6702 24.6371 37.6745 25.7634Z" fill="black"/>
<path opacity="0.2" d="M37.6745 25.7634V28.1636C37.2977 28.1386 36.924 28.0787 36.5583 27.9851C34.2979 27.4497 32.4303 25.8644 31.5351 23.7209H35.6318C36.7582 23.725 37.6702 24.6371 37.6745 25.7634Z" fill="black"/>
<path opacity="0.2" d="M36.5581 25.7636V27.9851C34.2977 27.4497 32.4301 25.8644 31.5348 23.7209H34.5154C35.6417 23.7253 36.5538 24.6373 36.5581 25.7636Z" fill="black"/>
<path d="M14.0461 23.7209H34.512C35.642 23.7209 36.5581 24.6371 36.5581 25.7671V46.2329C36.5581 47.3629 35.642 48.2791 34.512 48.2791H14.0461C12.9161 48.2791 12 47.3629 12 46.2329V25.7671C12 24.6371 12.9161 23.7209 14.0461 23.7209Z" fill="url(#paint0_linear_33148_141)"/>
<path d="M29.664 31.5103H25.5728V42.6508H22.9663V31.5103H18.8941V29.3491H29.664V31.5103Z" fill="white"/>
</g>
<defs>
<linearGradient id="paint0_linear_33148_141" x1="16.2662" y1="22.1221" x2="32.2919" y2="49.8779" gradientUnits="userSpaceOnUse">
<stop stop-color="#5A62C3"/>
<stop offset="0.5" stop-color="#4D55BD"/>
<stop offset="1" stop-color="#3940AB"/>
</linearGradient>
<clipPath id="clip0_33148_141">
<rect width="48" height="44.6512" fill="white" transform="translate(12 13.6743)"/>
</clipPath>
</defs>
</svg>