<svg viewBox="0 0 48 48" fill="none" xmlns="http://www.w3.org/2000/svg">
  <path
    d="M24 48C37.2548 48 48 37.2548 48 24C48 10.7452 37.2548 0 24 0C10.7452 0 0 10.7452 0 24C0 37.2548 10.7452 48 24 48Z"
    fill="#0070BA"
  />
  <path
    d="M33.9966 16.9172C33.9698 17.088 33.9394 17.2627 33.905 17.4421C32.7245 23.5033 28.6855 25.5972 23.5272 25.5972H20.9008C20.2699 25.5972 19.7383 26.0552 19.64 26.6776L18.2953 35.2057L17.9146 37.6232C17.8506 38.0316 18.1655 38.4 18.5778 38.4H23.2361C23.7877 38.4 24.2563 37.9992 24.3432 37.4552L24.3889 37.2185L25.266 31.6526L25.3223 31.3472C25.4082 30.8014 25.8778 30.4006 26.4294 30.4006H27.1261C31.6393 30.4006 35.1724 28.5682 36.205 23.2656C36.6364 21.0505 36.413 19.201 35.2716 17.9002C34.9261 17.508 34.4976 17.1826 33.9966 16.9172Z"
    fill="white"
    fillOpacity="0.6"
  />
  <path
    d="M32.7611 16.4245C32.5807 16.3721 32.3946 16.3243 32.2037 16.2814C32.0119 16.2394 31.8152 16.2022 31.6129 16.1698C30.9048 16.0552 30.1289 16.0008 29.2976 16.0008H22.2811C22.1084 16.0008 21.9443 16.0399 21.7973 16.1105C21.4738 16.2661 21.2333 16.5725 21.1751 16.9475L19.6824 26.4016L19.64 26.6776C19.7383 26.0552 20.2699 25.5972 20.9008 25.5972H23.5272C28.6855 25.5972 32.7245 23.5033 33.905 17.4421C33.9394 17.2627 33.9698 17.088 33.9966 16.9172C33.6979 16.7588 33.3738 16.623 33.0254 16.5076C32.9395 16.4789 32.8508 16.4513 32.7611 16.4245Z"
    fill="white"
    fillOpacity="0.8"
  />
  <path
    d="M21.1751 16.9475C21.2333 16.5724 21.474 16.2662 21.7975 16.1117C21.9455 16.041 22.1084 16.0008 22.2811 16.0008H29.2976C30.1289 16.0008 30.9048 16.0552 31.6129 16.1698C31.8152 16.2022 32.0119 16.2394 32.2037 16.2814C32.3946 16.3243 32.5807 16.3721 32.7611 16.4245C32.8508 16.4513 32.9398 16.4801 33.0266 16.5077C33.375 16.6232 33.6979 16.7598 33.9966 16.9172C34.3478 14.6773 33.9944 13.1521 32.7833 11.7712C31.4482 10.2509 29.0383 9.6 25.9548 9.6H17.0028C16.3729 9.6 15.8356 10.058 15.7382 10.6813L12.0095 34.3163C11.936 34.7839 12.2968 35.2057 12.7682 35.2057H18.2953L19.6824 26.4016L21.1751 16.9475Z"
    fill="white"
  />
</svg>