<svg viewBox="0 0 72 72" fill="none" xmlns="http://www.w3.org/2000/svg">
  <path
    d="M43.7287 30.8474C38.9826 30.2375 25.3559 30.7798 25.3559 24.5422C25.3559 20.8815 31.0512 18.8469 36.3388 18.8469C44.7456 18.8469 50.3725 22.2368 51.9324 23.3214L59.0508 16.2031C56.9493 14.5762 49.1525 9.08472 36.3388 9.08472C24.6783 9.08472 14.1692 15.1862 14.1692 24.9491C14.1692 39.9319 32.2712 39.9319 39.7965 40.6781C44.4064 41.1527 48.5425 41.4242 48.5425 45.8987C48.5425 50.1025 42.1695 52.4071 37.2204 52.4071C29.1528 52.4071 24.339 49.7633 19.593 45.4918L12 53.1525C18.983 59.9324 27.8644 62.9154 36.6104 62.9154C50.1694 62.9154 60 56.9493 60 44.9495C60 36.9497 54.6439 32.2036 43.7287 30.8474Z"
    fill="#3FAE2A"
  />
</svg>