<svg viewBox="0 0 72 72" fill="none" xmlns="http://www.w3.org/2000/svg">
  <path
    d="M30.9684 19.5821C32.9035 17.5659 35.5975 16.3153 38.5769 16.3153C42.5377 16.3153 45.9932 18.5239 47.8334 21.8025C49.4326 21.088 51.2026 20.6905 53.065 20.6905C60.2085 20.6905 66 26.5325 66 33.7384C66 40.9452 60.2085 46.7871 53.065 46.7871C52.2094 46.7876 51.3558 46.7026 50.5171 46.5332C48.8966 49.4238 45.8086 51.3768 42.2641 51.3768C40.7804 51.3768 39.3769 51.0341 38.1274 50.4247C36.4846 54.2888 32.6573 56.9982 28.1966 56.9982C23.5513 56.9982 19.5923 54.0589 18.0727 49.9367C17.4086 50.0777 16.7205 50.1512 16.0145 50.1512C10.4838 50.1513 6 45.6213 6 40.0325C6 36.2872 8.01453 33.017 11.0077 31.2675C10.3915 29.8496 10.0487 28.2846 10.0487 26.6392C10.0487 20.2119 15.2667 15.0017 21.7026 15.0017C25.4812 15.0017 28.8393 16.7983 30.9684 19.5821Z"
    fill="#00A1E0"
  />
  <path
    d="M14.6905 36.7804C14.6529 36.8787 14.7041 36.8993 14.7161 36.9163C14.8289 36.9984 14.9435 37.0574 15.0589 37.1232C15.6708 37.4479 16.2486 37.5427 16.8529 37.5427C18.0837 37.5427 18.8477 36.8881 18.8477 35.8342V35.8137C18.8477 34.8393 17.9854 34.4855 17.176 34.23L17.0709 34.1958C16.4606 33.9975 15.9341 33.8266 15.9341 33.4248V33.4035C15.9341 33.0599 16.2418 32.8069 16.7187 32.8069C17.2486 32.8069 17.8777 32.983 18.2828 33.2069C18.2828 33.2069 18.4016 33.2838 18.4452 33.1685C18.4691 33.1069 18.6743 32.5548 18.6957 32.4949C18.7187 32.43 18.6777 32.3821 18.6359 32.3564C18.1735 32.0752 17.5341 31.8829 16.8726 31.8829L16.7495 31.8838C15.6231 31.8838 14.8368 32.5641 14.8368 33.5393V33.5599C14.8368 34.588 15.7043 34.9214 16.5171 35.1539L16.6479 35.194C17.2402 35.3761 17.7505 35.5325 17.7505 35.9496V35.9701C17.7505 36.3513 17.4189 36.6351 16.8838 36.6351C16.6761 36.6351 16.0137 36.6308 15.2983 36.1786C15.212 36.1281 15.1616 36.0915 15.0949 36.0513C15.0599 36.0291 14.9718 35.9906 14.9334 36.1068L14.6905 36.7804ZM32.7083 36.7804C32.6708 36.8787 32.722 36.8993 32.734 36.9163C32.8468 36.9984 32.9614 37.0574 33.0767 37.1232C33.6886 37.4479 34.2665 37.5427 34.8708 37.5427C36.1015 37.5427 36.8656 36.8881 36.8656 35.8342V35.8137C36.8656 34.8393 36.0032 34.4855 35.1938 34.23L35.0887 34.1958C34.4784 33.9975 33.9519 33.8266 33.9519 33.4248V33.4035C33.9519 33.0599 34.2596 32.8069 34.7365 32.8069C35.2664 32.8069 35.8955 32.983 36.3007 33.2069C36.3007 33.2069 36.4195 33.2838 36.463 33.1685C36.4869 33.1069 36.6921 32.5548 36.7135 32.4949C36.7366 32.43 36.6955 32.3821 36.6536 32.3564C36.1912 32.0752 35.5519 31.8829 34.8904 31.8829L34.7673 31.8838C33.6408 31.8838 32.8545 32.5641 32.8545 33.5393V33.5599C32.8545 34.588 33.722 34.9214 34.5348 35.1539L34.6656 35.194C35.2579 35.3761 35.7691 35.5325 35.7691 35.9496V35.9701C35.7691 36.3513 35.4366 36.6351 34.9015 36.6351C34.6939 36.6351 34.0315 36.6308 33.3161 36.1786C33.2297 36.1281 33.1785 36.0931 33.1136 36.0513C33.0913 36.0367 32.987 35.9966 32.9511 36.1068L32.7083 36.7804ZM45.0087 34.7161C45.0087 35.3119 44.8976 35.7811 44.6788 36.1127C44.4625 36.4409 44.1352 36.6008 43.6789 36.6008C43.2216 36.6008 42.896 36.4418 42.6831 36.1127C42.4677 35.782 42.3584 35.3119 42.3584 34.7161C42.3584 34.1213 42.4677 33.6529 42.6831 33.3247C42.896 32.9999 43.2216 32.8418 43.6789 32.8418C44.1353 32.8418 44.4626 32.9999 44.6797 33.3247C44.8977 33.6528 45.0087 34.1212 45.0087 34.7161ZM46.0361 33.6119C45.9352 33.2708 45.778 32.97 45.5686 32.7196C45.3592 32.4683 45.0942 32.2666 44.7796 32.1196C44.4659 31.9734 44.0951 31.8991 43.6789 31.8991C43.2617 31.8991 42.8908 31.9734 42.5771 32.1196C42.2626 32.2666 41.9977 32.4683 41.7874 32.7196C41.5789 32.9709 41.4216 33.2717 41.3199 33.6119C41.2199 33.9512 41.1694 34.3221 41.1694 34.7161C41.1694 35.1102 41.2199 35.482 41.3199 35.8204C41.4216 36.1606 41.578 36.4615 41.7883 36.7127C41.9977 36.964 42.2635 37.1648 42.5772 37.3076C42.8917 37.4503 43.2617 37.5229 43.6789 37.5229C44.0951 37.5229 44.4652 37.4503 44.7797 37.3076C45.0934 37.1648 45.3592 36.9639 45.5686 36.7127C45.778 36.4623 45.9353 36.1614 46.0362 35.8204C46.1371 35.4811 46.1874 35.1093 46.1874 34.7161C46.1874 34.323 46.1369 33.9512 46.0361 33.6119ZM54.4726 36.4417C54.4384 36.3417 54.3418 36.3793 54.3418 36.3793C54.1922 36.4366 54.0332 36.4895 53.864 36.516C53.6922 36.5424 53.5033 36.5562 53.3007 36.5562C52.8034 36.5562 52.4085 36.4083 52.1256 36.116C51.8418 35.8237 51.6828 35.3511 51.6845 34.7118C51.6862 34.1297 51.8264 33.6921 52.0786 33.3588C52.329 33.0272 52.7102 32.857 53.2187 32.857C53.6427 32.857 53.9658 32.9057 54.3041 33.0126C54.3041 33.0126 54.3853 33.0476 54.4238 32.9417C54.5135 32.6921 54.5802 32.5134 54.6759 32.2391C54.7033 32.1613 54.6366 32.128 54.6127 32.1185C54.4793 32.0664 54.1648 31.9818 53.9272 31.9459C53.705 31.9118 53.4452 31.8938 53.1563 31.8938C52.7246 31.8938 52.34 31.9673 52.011 32.1143C51.6828 32.2605 51.4041 32.4621 51.1837 32.7135C50.9631 32.9648 50.7956 33.2656 50.6837 33.6057C50.5726 33.945 50.5162 34.3177 50.5162 34.7118C50.5162 35.5639 50.7461 36.2527 51.1999 36.757C51.6546 37.263 52.3375 37.5203 53.2282 37.5203C53.7547 37.5203 54.2948 37.4135 54.6829 37.2605C54.6829 37.2605 54.7572 37.2245 54.7247 37.1383L54.4726 36.4417ZM56.2701 34.1454C56.3188 33.8147 56.4103 33.5394 56.5513 33.325C56.7641 32.9993 57.0889 32.8207 57.5453 32.8207C58.0018 32.8207 58.3035 33.0002 58.5197 33.325C58.6633 33.5394 58.7257 33.8267 58.7505 34.1454H56.2701ZM59.7291 33.4181C59.6419 33.089 59.4256 32.7565 59.2838 32.6044C59.0598 32.3633 58.8411 32.195 58.624 32.1009C58.3402 31.9796 58 31.8993 57.6274 31.8993C57.1932 31.8993 56.7992 31.9719 56.4795 32.1223C56.159 32.2728 55.8899 32.4779 55.6787 32.7335C55.4675 32.9881 55.3086 33.2916 55.2077 33.636C55.106 33.9788 55.0547 34.3523 55.0547 34.7462C55.0547 35.1471 55.1077 35.5206 55.2129 35.8565C55.3189 36.195 55.488 36.4933 55.7171 36.7402C55.9453 36.989 56.2393 37.1839 56.5915 37.3197C56.9411 37.4548 57.3659 37.5248 57.8539 37.5239C58.8582 37.5205 59.3872 37.2966 59.6052 37.1761C59.6437 37.1548 59.6804 37.1172 59.6342 37.0095L59.4068 36.3727C59.3727 36.2778 59.2761 36.3128 59.2761 36.3128C59.0273 36.4051 58.6736 36.571 57.8487 36.5693C57.3094 36.5685 56.9094 36.4095 56.6589 36.1607C56.4017 35.906 56.276 35.5316 56.2538 35.0035L59.7316 35.0069C59.7316 35.0069 59.823 35.0052 59.8325 34.9163C59.8359 34.8788 59.9522 34.2018 59.7291 33.4181ZM28.4181 34.1454C28.4677 33.8147 28.5583 33.5394 28.6993 33.325C28.9121 32.9993 29.2369 32.8207 29.6933 32.8207C30.1497 32.8207 30.4515 33.0002 30.6685 33.325C30.8112 33.5394 30.8736 33.8267 30.8984 34.1454H28.4181ZM31.8762 33.4181C31.7891 33.089 31.5737 32.7565 31.4318 32.6044C31.2079 32.3633 30.9891 32.195 30.772 32.1009C30.4882 31.9796 30.1481 31.8993 29.7754 31.8993C29.3421 31.8993 28.9472 31.9719 28.6276 32.1223C28.3071 32.2728 28.0378 32.4779 27.8267 32.7335C27.6156 32.9881 27.4566 33.2916 27.3558 33.636C27.255 33.9788 27.2028 34.3523 27.2028 34.7462C27.2028 35.1471 27.2558 35.5206 27.361 35.8565C27.467 36.195 27.6362 36.4933 27.8652 36.7402C28.0935 36.989 28.3874 37.1839 28.7396 37.3197C29.0892 37.4548 29.5139 37.5248 30.002 37.5239C31.0062 37.5205 31.5353 37.2966 31.7533 37.1761C31.7918 37.1548 31.8285 37.1172 31.7823 37.0095L31.5559 36.3727C31.5208 36.2778 31.4243 36.3128 31.4243 36.3128C31.1756 36.4051 30.8225 36.571 29.996 36.5693C29.4576 36.5685 29.0576 36.4095 28.8071 36.1607C28.5499 35.906 28.4243 35.5316 28.402 35.0035L31.8798 35.0069C31.8798 35.0069 31.9712 35.0052 31.9806 34.9163C31.9839 34.8788 32.1001 34.2018 31.8762 33.4181ZM20.901 36.4226C20.765 36.314 20.7462 36.2867 20.7001 36.2166C20.6317 36.1098 20.5967 35.9576 20.5967 35.7645C20.5967 35.4585 20.6975 35.2388 20.907 35.091C20.9044 35.0919 21.2061 34.8303 21.9155 34.8397C22.4138 34.8465 22.859 34.92 22.859 34.92V36.5012C22.859 36.5012 22.418 36.5961 21.9206 36.626C21.2129 36.6688 20.8984 36.4218 20.901 36.4226ZM22.2847 33.979C22.1437 33.9688 21.9607 33.9627 21.7419 33.9627C21.4437 33.9627 21.1556 34.0003 20.8855 34.073C20.6138 34.1456 20.3693 34.2594 20.159 34.4097C19.9491 34.5596 19.7765 34.7558 19.6548 34.9832C19.5317 35.2123 19.4693 35.4824 19.4693 35.785C19.4693 36.0927 19.5223 36.3602 19.6283 36.579C19.7343 36.7987 19.8873 36.9815 20.0821 37.1226C20.2753 37.2636 20.5138 37.367 20.7906 37.4294C21.0633 37.4918 21.3727 37.5234 21.7112 37.5234C22.0676 37.5234 22.4231 37.4944 22.7676 37.4354C23.1086 37.3772 23.5274 37.2926 23.6436 37.2662C23.7251 37.2465 23.8063 37.2257 23.8872 37.2038C23.9736 37.1824 23.9667 37.0901 23.9667 37.0901L23.965 33.9098C23.965 33.2123 23.7787 32.6952 23.412 32.3747C23.047 32.0551 22.5094 31.8934 21.8146 31.8934C21.5539 31.8934 21.1342 31.9294 20.8829 31.9798C20.8829 31.9798 20.1231 32.1268 19.8103 32.3713C19.8103 32.3713 19.7419 32.414 19.7795 32.5098L20.0257 33.1713C20.0565 33.2568 20.1394 33.2277 20.1394 33.2277C20.1394 33.2277 20.1659 33.2175 20.1967 33.1995C20.8659 32.8354 21.7121 32.8465 21.7121 32.8465C22.0882 32.8465 22.3771 32.9217 22.5719 33.0713C22.7616 33.2166 22.8582 33.4362 22.8582 33.8994V34.0465C22.559 34.0038 22.2847 33.979 22.2847 33.979ZM50.3345 32.1871C50.3609 32.1084 50.3054 32.0708 50.2823 32.0623C50.2234 32.0392 49.9276 31.9768 49.6994 31.9623C49.2627 31.9358 49.02 32.0093 48.8028 32.1067C48.5874 32.2041 48.3482 32.3614 48.2148 32.54V32.117C48.2148 32.058 48.1729 32.011 48.1148 32.011H47.2233C47.1652 32.011 47.1234 32.0579 47.1234 32.117V37.3041C47.1234 37.3623 47.1712 37.4101 47.2293 37.4101H48.143C48.171 37.41 48.1978 37.3987 48.2175 37.3789C48.2372 37.359 48.2482 37.3321 48.2481 37.3041V34.7127C48.2481 34.3648 48.2866 34.0179 48.3635 33.7999C48.4387 33.5845 48.5413 33.4119 48.6678 33.2879C48.7951 33.1648 48.9396 33.0785 49.0977 33.0298C49.2592 32.9802 49.4378 32.964 49.5644 32.964C49.7464 32.964 49.9464 33.011 49.9464 33.011C50.013 33.0187 50.0507 32.9776 50.0729 32.917C50.1327 32.758 50.302 32.2819 50.3345 32.1871Z"
    fill="white"
  />
  <path
    d="M41.7582 29.7832C41.6471 29.749 41.5462 29.7259 41.4146 29.7011C41.2812 29.6772 41.1223 29.6652 40.942 29.6652C40.3129 29.6652 39.8171 29.843 39.4693 30.1934C39.1231 30.5422 38.888 31.0729 38.7701 31.7712L38.7273 32.0062H37.9377C37.9377 32.0062 37.8419 32.0028 37.8214 32.1071L37.6924 32.831C37.6829 32.8995 37.7129 32.943 37.8052 32.943H38.5736L37.7941 37.2951C37.7333 37.6456 37.6632 37.9336 37.5855 38.1524C37.5094 38.3678 37.4351 38.5293 37.3428 38.6473C37.2539 38.7601 37.1701 38.8438 37.0247 38.8925C36.9051 38.9327 36.7667 38.9515 36.6154 38.9515C36.5316 38.9515 36.4197 38.9378 36.3368 38.9207C36.2547 38.9044 36.2111 38.8865 36.1487 38.86C36.1487 38.86 36.059 38.8259 36.0231 38.9156C35.9948 38.99 35.7897 39.5531 35.7649 39.6225C35.741 39.6916 35.7752 39.7455 35.8187 39.7617C35.9213 39.7976 35.9974 39.8216 36.1367 39.8549C36.3299 39.9002 36.4931 39.9028 36.6461 39.9028C36.9657 39.9028 37.258 39.8575 37.4999 39.7703C37.7427 39.6823 37.9546 39.5292 38.1426 39.3225C38.3452 39.0985 38.4726 38.8643 38.594 38.5438C38.7145 38.2276 38.818 37.8344 38.8999 37.3763L39.6837 32.943H40.829C40.829 32.943 40.9255 32.9464 40.9453 32.8413L41.0751 32.1182C41.0837 32.0491 41.0546 32.0063 40.9614 32.0063H39.8495C39.8555 31.9816 39.9059 31.59 40.0333 31.2217C40.088 31.0653 40.1905 30.9379 40.2769 30.8507C40.3624 30.7653 40.4607 30.7046 40.5684 30.6695C40.6786 30.6336 40.8043 30.6166 40.9419 30.6166C41.0462 30.6166 41.1495 30.6285 41.2273 30.6447C41.335 30.6679 41.3769 30.6798 41.4052 30.6884C41.5189 30.7226 41.5342 30.6892 41.5565 30.6346L41.8223 29.9047C41.8496 29.8259 41.7821 29.7925 41.7582 29.7832ZM26.2219 37.3046C26.2219 37.3627 26.18 37.4097 26.1219 37.4097H25.1996C25.1415 37.4097 25.1005 37.3627 25.1005 37.3046V29.8823C25.1005 29.8243 25.1415 29.7772 25.1996 29.7772H26.1219C26.18 29.7772 26.2219 29.8243 26.2219 29.8823V37.3046Z"
    fill="white"
  />
</svg>