<svg viewBox="0 0 73 72" fill="none" xmlns="http://www.w3.org/2000/svg">
  <path
    d="M42.3198 36.0105C42.3206 37.7412 42.0084 39.4579 41.3983 41.0775C39.778 41.6876 38.061 42.0003 36.3298 42.0006H36.3095C34.5268 41.9983 32.8186 41.6724 31.2425 41.0783C30.632 39.4584 30.3194 37.7416 30.32 36.0105V35.9895C30.3192 34.2591 30.6311 32.5427 31.2406 30.9233C32.8607 30.312 34.5781 29.9992 36.3097 30H36.3299C38.0613 29.9992 39.7785 30.3119 41.3984 30.9231C42.0087 32.5424 42.3209 34.2588 42.32 35.9893V36.0103L42.3198 36.0105ZM59.9866 32.0001H45.9774L55.8828 22.0939C55.1053 21.0017 54.2381 19.9763 53.2901 19.0284V19.0277C52.342 18.0808 51.3169 17.2143 50.2254 16.4372L40.3192 26.3434V12.3341C39.0017 12.1125 37.668 12.0007 36.332 12L36.3073 12C34.9483 12.0008 33.6172 12.1163 32.3201 12.3341V26.3434L22.4139 16.4372C21.3222 17.2141 20.2975 18.0812 19.3507 19.0294L19.3454 19.0331C18.399 19.9799 17.533 21.0036 16.7563 22.0939L26.6632 32.0001H12.6541C12.6541 32.0001 12.32 34.6313 12.32 35.9918V36.0083C12.32 37.3688 12.4353 38.7021 12.6541 39.9999H26.6634L16.7564 49.9061C18.3149 52.0931 20.2269 54.0051 22.4139 55.5636L32.3201 45.6566V59.6666C33.6361 59.8872 34.9682 59.9987 36.3026 60H36.3365C37.6709 59.9988 39.003 59.8873 40.319 59.6666V45.6566L50.2261 55.5636C51.3175 54.7862 52.3423 53.9194 53.2901 52.9723L53.2923 52.9701C54.239 52.0221 55.1055 50.9973 55.8828 49.9061L45.9759 39.9999H59.9866C60.2047 38.7043 60.3185 37.3749 60.32 36.0174V35.9826C60.3185 34.6251 60.2047 33.2957 59.9866 32.0001Z"
    fill="#FF4A00"
  />
</svg>